M48
;DRILL file {PCBnew (2011-aug-04)-testing} date Wed 27 Feb 2013 02:16:27 PM PST
;FORMAT={2:4/ absolute / inch / suppress trailing zeros}
FMAT,2
INCH,LZ
T1C0.025
T2C0.040
T3C0.063
T4C0.073
T5C0.106
T6C0.124
T7C0.130
T8C0.260
%
G90
G05
M72
T1
X034583Y-013644
X058178Y-017832
X060711Y-013391
X084266Y-013391
T2
X02177Y-02275
X02277Y-02275
X02377Y-02275
X02477Y-02275
X02577Y-02275
X02677Y-02275
X02777Y-02275
X02877Y-02275
X02966Y-01387
X02966Y-01487
X02966Y-01587
X02966Y-01687
X03066Y-01387
X03066Y-01487
X03066Y-01587
X03066Y-01687
X03266Y-01387
X03266Y-01487
X03266Y-01587
X03266Y-01687
X03366Y-01387
X03366Y-01487
X03366Y-01587
X03366Y-01687
X03455Y-02275
X03555Y-02275
X03655Y-02275
X03755Y-02275
X03855Y-02275
X03955Y-02275
X04055Y-02275
X04155Y-02275
X04344Y-01225
X04544Y-01225
X04733Y-02275
X04833Y-02275
X04933Y-02275
X05033Y-02275
X05133Y-02275
X05233Y-02275
X05333Y-02275
X05433Y-02275
X05522Y-01387
X05522Y-01487
X05522Y-01587
X05522Y-01687
X05622Y-01387
X05622Y-01487
X05622Y-01587
X05622Y-01687
X05822Y-01387
X05822Y-01487
X05822Y-01587
X05822Y-01687
X05922Y-01387
X05922Y-01487
X05922Y-01587
X05922Y-01687
X06011Y-02275
X06111Y-02275
X06211Y-02275
X06311Y-02275
X06411Y-02275
X06511Y-02275
X06611Y-02275
X06711Y-02275
X069Y-01225
X071Y-01225
X07289Y-02275
X07389Y-02275
X07489Y-02275
X07589Y-02275
X07689Y-02275
X07789Y-02275
X07889Y-02275
X07989Y-02275
X08078Y-01387
X08078Y-01487
X08078Y-01587
X08078Y-01687
X08178Y-01387
X08178Y-01487
X08178Y-01587
X08178Y-01687
X08378Y-01387
X08378Y-01487
X08378Y-01587
X08378Y-01687
X08478Y-01387
X08478Y-01487
X08478Y-01587
X08478Y-01687
X08567Y-02275
X08667Y-02275
X08767Y-02275
X08867Y-02275
X08967Y-02275
X09067Y-02275
X09167Y-02275
X09267Y-02275
X09456Y-01225
X09656Y-01225
X09845Y-02275
X09945Y-02275
X10045Y-02275
X10145Y-02275
X10245Y-02275
X10345Y-02275
X10445Y-02275
X10545Y-02275
X10634Y-01387
X10634Y-01487
X10634Y-01587
X10634Y-01687
X10734Y-01387
X10734Y-01487
X10734Y-01587
X10734Y-01687
X10934Y-01387
X10934Y-01487
X10934Y-01587
X10934Y-01687
X11034Y-01387
X11034Y-01487
X11034Y-01587
X11034Y-01687
X11123Y-02275
X11223Y-02275
X11323Y-02275
X11423Y-02275
X11523Y-02275
X11623Y-02275
X11723Y-02275
X11823Y-02275
X11931Y-01506
X11985Y-01406
X12039Y-01506
X12093Y-01406
X12147Y-01506
X12201Y-01406
X12255Y-01506
X12309Y-01406
X12363Y-01506
T3
X0232Y-01117
T4
X01339Y-01196
X01439Y-01696
X01439Y-01896
X01439Y-02096
X01539Y-01196
T5
X02143Y-01196
X0232Y-01235
X02497Y-01196
T6
X0232Y-01471
T7
X11654Y-01456
X1264Y-01456
T8
X04Y-0175
X07Y-0175
X1Y-0175
T0
M30
