G04 (created by PCBNEW-RS274X (2011-aug-04)-testing) date Wed 27 Feb 2013 02:16:23 PM PST*
G01*
G70*
G90*
%MOIN*%
G04 Gerber Fmt 3.4, Leading zero omitted, Abs format*
%FSLAX34Y34*%
G04 APERTURE LIST*
%ADD10C,0.006000*%
%ADD11R,0.060000X0.060000*%
%ADD12C,0.060000*%
%ADD13O,0.109500X0.109500*%
%ADD14C,0.109500*%
%ADD15C,0.100000*%
%ADD16C,0.076000*%
%ADD17C,0.140000*%
%ADD18C,0.160000*%
%ADD19C,0.200000*%
%ADD20C,0.320000*%
%ADD21C,0.035000*%
%ADD22C,0.040000*%
%ADD23C,0.015000*%
%ADD24C,0.010000*%
G04 APERTURE END LIST*
G54D10*
G54D11*
X110340Y-16870D03*
G54D12*
X109340Y-16870D03*
X110340Y-15870D03*
X109340Y-15870D03*
X110340Y-14870D03*
X109340Y-14870D03*
X110340Y-13870D03*
X109340Y-13870D03*
G54D11*
X107340Y-16870D03*
G54D12*
X106340Y-16870D03*
X107340Y-15870D03*
X106340Y-15870D03*
X107340Y-14870D03*
X106340Y-14870D03*
X107340Y-13870D03*
X106340Y-13870D03*
G54D11*
X84780Y-16870D03*
G54D12*
X83780Y-16870D03*
X84780Y-15870D03*
X83780Y-15870D03*
X84780Y-14870D03*
X83780Y-14870D03*
X84780Y-13870D03*
X83780Y-13870D03*
G54D11*
X30660Y-16870D03*
G54D12*
X29660Y-16870D03*
X30660Y-15870D03*
X29660Y-15870D03*
X30660Y-14870D03*
X29660Y-14870D03*
X30660Y-13870D03*
X29660Y-13870D03*
G54D11*
X33660Y-16870D03*
G54D12*
X32660Y-16870D03*
X33660Y-15870D03*
X32660Y-15870D03*
X33660Y-14870D03*
X32660Y-14870D03*
X33660Y-13870D03*
X32660Y-13870D03*
G54D11*
X56220Y-16870D03*
G54D12*
X55220Y-16870D03*
X56220Y-15870D03*
X55220Y-15870D03*
X56220Y-14870D03*
X55220Y-14870D03*
X56220Y-13870D03*
X55220Y-13870D03*
G54D11*
X59220Y-16870D03*
G54D12*
X58220Y-16870D03*
X59220Y-15870D03*
X58220Y-15870D03*
X59220Y-14870D03*
X58220Y-14870D03*
X59220Y-13870D03*
X58220Y-13870D03*
G54D11*
X81780Y-16870D03*
G54D12*
X80780Y-16870D03*
X81780Y-15870D03*
X80780Y-15870D03*
X81780Y-14870D03*
X80780Y-14870D03*
X81780Y-13870D03*
X80780Y-13870D03*
G54D13*
X14390Y-16960D03*
X14390Y-18960D03*
X14390Y-20960D03*
G54D14*
X15390Y-11960D03*
X13390Y-11960D03*
G54D15*
X94560Y-12250D03*
X96560Y-12250D03*
X69000Y-12250D03*
X71000Y-12250D03*
X43440Y-12250D03*
X45440Y-12250D03*
G54D16*
X23200Y-11170D03*
G54D17*
X23200Y-12350D03*
G54D18*
X23200Y-14710D03*
G54D17*
X21430Y-11960D03*
X24970Y-11960D03*
G54D12*
X123630Y-15060D03*
X122550Y-15060D03*
X121470Y-15060D03*
X120390Y-15060D03*
X119310Y-15060D03*
X123090Y-14060D03*
X122010Y-14060D03*
X120930Y-14060D03*
X119850Y-14060D03*
G54D19*
X126400Y-14560D03*
X116540Y-14560D03*
G54D20*
X40000Y-17500D03*
X70000Y-17500D03*
X100000Y-17500D03*
G54D12*
X111230Y-22750D03*
X112230Y-22750D03*
X113230Y-22750D03*
X114230Y-22750D03*
X115230Y-22750D03*
X116230Y-22750D03*
X117230Y-22750D03*
G54D11*
X118230Y-22750D03*
G54D12*
X98450Y-22750D03*
X99450Y-22750D03*
X100450Y-22750D03*
X101450Y-22750D03*
X102450Y-22750D03*
X103450Y-22750D03*
X104450Y-22750D03*
G54D11*
X105450Y-22750D03*
G54D12*
X85670Y-22750D03*
X86670Y-22750D03*
X87670Y-22750D03*
X88670Y-22750D03*
X89670Y-22750D03*
X90670Y-22750D03*
X91670Y-22750D03*
G54D11*
X92670Y-22750D03*
G54D12*
X72890Y-22750D03*
X73890Y-22750D03*
X74890Y-22750D03*
X75890Y-22750D03*
X76890Y-22750D03*
X77890Y-22750D03*
X78890Y-22750D03*
G54D11*
X79890Y-22750D03*
G54D12*
X60110Y-22750D03*
X61110Y-22750D03*
X62110Y-22750D03*
X63110Y-22750D03*
X64110Y-22750D03*
X65110Y-22750D03*
X66110Y-22750D03*
G54D11*
X67110Y-22750D03*
G54D12*
X21770Y-22750D03*
X22770Y-22750D03*
X23770Y-22750D03*
X24770Y-22750D03*
X25770Y-22750D03*
X26770Y-22750D03*
X27770Y-22750D03*
G54D11*
X28770Y-22750D03*
G54D12*
X34550Y-22750D03*
X35550Y-22750D03*
X36550Y-22750D03*
X37550Y-22750D03*
X38550Y-22750D03*
X39550Y-22750D03*
X40550Y-22750D03*
G54D11*
X41550Y-22750D03*
G54D12*
X47330Y-22750D03*
X48330Y-22750D03*
X49330Y-22750D03*
X50330Y-22750D03*
X51330Y-22750D03*
X52330Y-22750D03*
X53330Y-22750D03*
G54D11*
X54330Y-22750D03*
G54D21*
X58178Y-17832D03*
X34583Y-13644D03*
X84266Y-13391D03*
X60711Y-13391D03*
G54D22*
X35550Y-23522D02*
X35550Y-22750D01*
X38778Y-23522D02*
X35550Y-23522D01*
X39550Y-22750D02*
X38778Y-23522D01*
X27542Y-23522D02*
X26770Y-22750D01*
X35550Y-23522D02*
X27542Y-23522D01*
X74594Y-23454D02*
X73890Y-22750D01*
X77186Y-23454D02*
X74594Y-23454D01*
X77890Y-22750D02*
X77186Y-23454D01*
X100154Y-23454D02*
X99450Y-22750D01*
X102746Y-23454D02*
X100154Y-23454D01*
X103450Y-22750D02*
X102746Y-23454D01*
X112934Y-23454D02*
X112230Y-22750D01*
X115526Y-23454D02*
X112934Y-23454D01*
X116230Y-22750D02*
X115526Y-23454D01*
X23547Y-23527D02*
X22770Y-22750D01*
X25993Y-23527D02*
X23547Y-23527D01*
X26770Y-22750D02*
X25993Y-23527D01*
X111002Y-23978D02*
X112230Y-22750D01*
X104678Y-23978D02*
X111002Y-23978D01*
X103450Y-22750D02*
X104678Y-23978D01*
X52330Y-22750D02*
X52330Y-22784D01*
X59900Y-23960D02*
X61110Y-22750D01*
X53506Y-23960D02*
X59900Y-23960D01*
X52330Y-22784D02*
X53506Y-23960D01*
X86670Y-23522D02*
X86670Y-22750D01*
X86299Y-23893D02*
X86670Y-23522D01*
X79033Y-23893D02*
X86299Y-23893D01*
X77890Y-22750D02*
X79033Y-23893D01*
X89898Y-23522D02*
X90670Y-22750D01*
X86670Y-23522D02*
X89898Y-23522D01*
X94560Y-23454D02*
X94560Y-12250D01*
X91374Y-23454D02*
X94560Y-23454D01*
X90670Y-22750D02*
X91374Y-23454D01*
X98746Y-23454D02*
X99450Y-22750D01*
X94560Y-23454D02*
X98746Y-23454D01*
X61814Y-23454D02*
X61110Y-22750D01*
X64406Y-23454D02*
X61814Y-23454D01*
X65110Y-22750D02*
X64406Y-23454D01*
X67914Y-13336D02*
X69000Y-12250D01*
X67914Y-23454D02*
X67914Y-13336D01*
X65814Y-23454D02*
X67914Y-23454D01*
X65110Y-22750D02*
X65814Y-23454D01*
X73186Y-23454D02*
X73890Y-22750D01*
X67914Y-23454D02*
X73186Y-23454D01*
X49034Y-23454D02*
X48330Y-22750D01*
X51660Y-23454D02*
X49034Y-23454D01*
X52330Y-22784D02*
X51660Y-23454D01*
X43440Y-23454D02*
X43440Y-12250D01*
X47626Y-23454D02*
X43440Y-23454D01*
X48330Y-22750D02*
X47626Y-23454D01*
X40254Y-23454D02*
X39550Y-22750D01*
X43440Y-23454D02*
X40254Y-23454D01*
G54D23*
X57660Y-17832D02*
X56698Y-16870D01*
X58178Y-17832D02*
X57660Y-17832D01*
X56220Y-16870D02*
X56698Y-16870D01*
X107340Y-16870D02*
X107340Y-16392D01*
X122873Y-14060D02*
X123090Y-14060D01*
X122222Y-14711D02*
X122873Y-14060D01*
X121844Y-14711D02*
X122222Y-14711D01*
X121470Y-14337D02*
X121844Y-14711D01*
X121470Y-13907D02*
X121470Y-14337D01*
X120627Y-13064D02*
X121470Y-13907D01*
X109444Y-13064D02*
X120627Y-13064D01*
X107818Y-14690D02*
X109444Y-13064D01*
X107818Y-16349D02*
X107818Y-14690D01*
X107775Y-16392D02*
X107818Y-16349D01*
X107340Y-16392D02*
X107775Y-16392D01*
X107838Y-12272D02*
X106840Y-13270D01*
X122434Y-12272D02*
X107838Y-12272D01*
X123586Y-13424D02*
X122434Y-12272D01*
X123586Y-14242D02*
X123586Y-13424D01*
X123047Y-14781D02*
X123586Y-14242D01*
X123047Y-15502D02*
X123047Y-14781D01*
X123004Y-15545D02*
X123047Y-15502D01*
X121955Y-15545D02*
X123004Y-15545D01*
X121470Y-15060D02*
X121955Y-15545D01*
X104635Y-11065D02*
X106840Y-13270D01*
X85257Y-11065D02*
X104635Y-11065D01*
X82506Y-13816D02*
X85257Y-11065D01*
X82506Y-14144D02*
X82506Y-13816D01*
X81780Y-14870D02*
X82506Y-14144D01*
X106840Y-14370D02*
X107340Y-14870D01*
X106840Y-13270D02*
X106840Y-14370D01*
X34001Y-13062D02*
X34583Y-13644D01*
X32468Y-13062D02*
X34001Y-13062D01*
X30660Y-14870D02*
X32468Y-13062D01*
X108400Y-12810D02*
X107340Y-13870D01*
X120760Y-12810D02*
X108400Y-12810D01*
X122010Y-14060D02*
X120760Y-12810D01*
X56220Y-11110D02*
X56220Y-13870D01*
X79138Y-11110D02*
X56220Y-11110D01*
X81780Y-13752D02*
X79138Y-11110D01*
X81780Y-13870D02*
X81780Y-13752D01*
X33420Y-11110D02*
X30660Y-13870D01*
X56220Y-11110D02*
X33420Y-11110D01*
X29660Y-14870D02*
X29660Y-15870D01*
X29660Y-15870D02*
X29660Y-16870D01*
X54330Y-17760D02*
X55220Y-16870D01*
X54330Y-22750D02*
X54330Y-17760D01*
X55220Y-16870D02*
X55220Y-15870D01*
X55220Y-15870D02*
X55220Y-14870D01*
X55220Y-14870D02*
X55220Y-13870D01*
X79890Y-17760D02*
X80780Y-16870D01*
X79890Y-22750D02*
X79890Y-17760D01*
X80780Y-13870D02*
X80780Y-14870D01*
X80780Y-15870D02*
X80780Y-16870D01*
X80780Y-14870D02*
X80780Y-15870D01*
X106340Y-13870D02*
X106340Y-14870D01*
X106340Y-15870D02*
X106340Y-14870D01*
X106340Y-16870D02*
X106340Y-15870D01*
X106340Y-21382D02*
X106340Y-16870D01*
X105450Y-22272D02*
X106340Y-21382D01*
X105450Y-22750D02*
X105450Y-22272D01*
X84780Y-16870D02*
X85258Y-16870D01*
X90809Y-11319D02*
X85258Y-16870D01*
X97056Y-11319D02*
X90809Y-11319D01*
X104972Y-19235D02*
X97056Y-11319D01*
X104972Y-23187D02*
X104972Y-19235D01*
X105014Y-23229D02*
X104972Y-23187D01*
X105861Y-23229D02*
X105014Y-23229D01*
X110340Y-18750D02*
X105861Y-23229D01*
X110340Y-16870D02*
X110340Y-18750D01*
X116294Y-16870D02*
X110340Y-16870D01*
X118965Y-14199D02*
X116294Y-16870D01*
X119312Y-14199D02*
X118965Y-14199D01*
X119672Y-14559D02*
X119312Y-14199D01*
X120431Y-14559D02*
X119672Y-14559D01*
X120930Y-14060D02*
X120431Y-14559D01*
X85413Y-15237D02*
X84780Y-15870D01*
X85413Y-13795D02*
X85413Y-15237D01*
X84622Y-13004D02*
X85413Y-13795D01*
X83797Y-13004D02*
X84622Y-13004D01*
X83171Y-13630D02*
X83797Y-13004D01*
X83171Y-15240D02*
X83171Y-13630D01*
X82041Y-16370D02*
X83171Y-15240D01*
X81323Y-16370D02*
X82041Y-16370D01*
X81280Y-16327D02*
X81323Y-16370D01*
X81280Y-13611D02*
X81280Y-16327D01*
X79127Y-11458D02*
X81280Y-13611D01*
X63632Y-11458D02*
X79127Y-11458D01*
X59220Y-15870D02*
X63632Y-11458D01*
X58720Y-14370D02*
X59220Y-14870D01*
X58720Y-13434D02*
X58720Y-14370D01*
X58677Y-13391D02*
X58720Y-13434D01*
X57683Y-13391D02*
X58677Y-13391D01*
X56725Y-14349D02*
X57683Y-13391D01*
X55763Y-14349D02*
X56725Y-14349D01*
X55720Y-14306D02*
X55763Y-14349D01*
X55720Y-13433D02*
X55720Y-14306D01*
X53745Y-11458D02*
X55720Y-13433D01*
X37608Y-11458D02*
X53745Y-11458D01*
X34196Y-14870D02*
X37608Y-11458D01*
X33660Y-14870D02*
X34196Y-14870D01*
X59232Y-14870D02*
X60711Y-13391D01*
X59220Y-14870D02*
X59232Y-14870D01*
X84266Y-14356D02*
X84266Y-13391D01*
X84780Y-14870D02*
X84266Y-14356D01*
X110889Y-13321D02*
X110340Y-13870D01*
X119111Y-13321D02*
X110889Y-13321D01*
X119850Y-14060D02*
X119111Y-13321D01*
X32660Y-13870D02*
X32660Y-14870D01*
X27770Y-22750D02*
X33155Y-17365D01*
X35165Y-17365D02*
X33155Y-17365D01*
X40550Y-22750D02*
X35165Y-17365D01*
X33155Y-17365D02*
X32660Y-16870D01*
X32660Y-14870D02*
X32660Y-15870D01*
X32660Y-15870D02*
X32660Y-16870D01*
X58220Y-13870D02*
X58220Y-14870D01*
X58220Y-14870D02*
X58220Y-15870D01*
X58220Y-16870D02*
X58220Y-15870D01*
X58531Y-17181D02*
X58220Y-16870D01*
X58531Y-19736D02*
X58531Y-17181D01*
X63096Y-19736D02*
X58531Y-19736D01*
X66110Y-22750D02*
X63096Y-19736D01*
X53809Y-23229D02*
X53330Y-22750D01*
X55038Y-23229D02*
X53809Y-23229D01*
X58531Y-19736D02*
X55038Y-23229D01*
X83780Y-15870D02*
X83780Y-16870D01*
X80326Y-23229D02*
X83780Y-19775D01*
X79369Y-23229D02*
X80326Y-23229D01*
X78890Y-22750D02*
X79369Y-23229D01*
X83780Y-19775D02*
X83780Y-16870D01*
X83780Y-15870D02*
X83780Y-14870D01*
X83780Y-14870D02*
X83780Y-13870D01*
X88695Y-19775D02*
X91670Y-22750D01*
X83780Y-19775D02*
X88695Y-19775D01*
X109340Y-13870D02*
X109340Y-14870D01*
X109340Y-14870D02*
X109340Y-15870D01*
X109340Y-15870D02*
X109340Y-16870D01*
G54D22*
X47330Y-14140D02*
X45440Y-12250D01*
X47330Y-22750D02*
X47330Y-14140D01*
X72890Y-14140D02*
X71000Y-12250D01*
X72890Y-22750D02*
X72890Y-14140D01*
X96560Y-20860D02*
X96560Y-12250D01*
X98450Y-22750D02*
X96560Y-20860D01*
X118920Y-15060D02*
X111230Y-22750D01*
X119310Y-15060D02*
X118920Y-15060D01*
X24550Y-13700D02*
X23200Y-12350D01*
X24550Y-19970D02*
X24550Y-13700D01*
X21770Y-22750D02*
X24550Y-19970D01*
G54D23*
X20950Y-16960D02*
X14390Y-16960D01*
X23200Y-14710D02*
X20950Y-16960D01*
G54D10*
G36*
X39541Y-22201D02*
X39441Y-22201D01*
X39239Y-22285D01*
X39085Y-22439D01*
X39050Y-22523D01*
X39015Y-22439D01*
X38861Y-22285D01*
X38659Y-22201D01*
X38441Y-22201D01*
X38239Y-22285D01*
X38085Y-22439D01*
X38050Y-22523D01*
X38015Y-22439D01*
X37861Y-22285D01*
X37659Y-22201D01*
X37441Y-22201D01*
X37239Y-22285D01*
X37085Y-22439D01*
X37050Y-22523D01*
X37015Y-22439D01*
X36861Y-22285D01*
X36659Y-22201D01*
X36441Y-22201D01*
X36239Y-22285D01*
X36085Y-22439D01*
X36050Y-22523D01*
X36015Y-22439D01*
X35861Y-22285D01*
X35659Y-22201D01*
X35441Y-22201D01*
X35239Y-22285D01*
X35085Y-22439D01*
X35001Y-22641D01*
X35001Y-22859D01*
X35085Y-23061D01*
X35096Y-23072D01*
X34994Y-23072D01*
X34874Y-23072D01*
X34912Y-23034D01*
X34895Y-23017D01*
X34916Y-23010D01*
X34988Y-22850D01*
X34994Y-22675D01*
X34932Y-22511D01*
X34916Y-22490D01*
X34845Y-22462D01*
X34838Y-22469D01*
X34838Y-22455D01*
X34810Y-22384D01*
X34650Y-22312D01*
X34475Y-22306D01*
X34311Y-22368D01*
X34290Y-22384D01*
X34262Y-22455D01*
X34550Y-22743D01*
X34838Y-22455D01*
X34838Y-22469D01*
X34592Y-22715D01*
X34557Y-22750D01*
X34550Y-22757D01*
X34543Y-22750D01*
X34508Y-22715D01*
X34255Y-22462D01*
X34184Y-22490D01*
X34112Y-22650D01*
X34106Y-22825D01*
X34168Y-22989D01*
X34184Y-23010D01*
X34204Y-23017D01*
X34188Y-23034D01*
X34226Y-23072D01*
X29319Y-23072D01*
X29319Y-23001D01*
X29319Y-22401D01*
X29281Y-22309D01*
X29211Y-22239D01*
X29120Y-22201D01*
X29021Y-22201D01*
X28778Y-22201D01*
X33289Y-17690D01*
X35030Y-17690D01*
X39541Y-22201D01*
X39541Y-22201D01*
G37*
G54D24*
X39541Y-22201D02*
X39441Y-22201D01*
X39239Y-22285D01*
X39085Y-22439D01*
X39050Y-22523D01*
X39015Y-22439D01*
X38861Y-22285D01*
X38659Y-22201D01*
X38441Y-22201D01*
X38239Y-22285D01*
X38085Y-22439D01*
X38050Y-22523D01*
X38015Y-22439D01*
X37861Y-22285D01*
X37659Y-22201D01*
X37441Y-22201D01*
X37239Y-22285D01*
X37085Y-22439D01*
X37050Y-22523D01*
X37015Y-22439D01*
X36861Y-22285D01*
X36659Y-22201D01*
X36441Y-22201D01*
X36239Y-22285D01*
X36085Y-22439D01*
X36050Y-22523D01*
X36015Y-22439D01*
X35861Y-22285D01*
X35659Y-22201D01*
X35441Y-22201D01*
X35239Y-22285D01*
X35085Y-22439D01*
X35001Y-22641D01*
X35001Y-22859D01*
X35085Y-23061D01*
X35096Y-23072D01*
X34994Y-23072D01*
X34874Y-23072D01*
X34912Y-23034D01*
X34895Y-23017D01*
X34916Y-23010D01*
X34988Y-22850D01*
X34994Y-22675D01*
X34932Y-22511D01*
X34916Y-22490D01*
X34845Y-22462D01*
X34838Y-22469D01*
X34838Y-22455D01*
X34810Y-22384D01*
X34650Y-22312D01*
X34475Y-22306D01*
X34311Y-22368D01*
X34290Y-22384D01*
X34262Y-22455D01*
X34550Y-22743D01*
X34838Y-22455D01*
X34838Y-22469D01*
X34592Y-22715D01*
X34557Y-22750D01*
X34550Y-22757D01*
X34543Y-22750D01*
X34508Y-22715D01*
X34255Y-22462D01*
X34184Y-22490D01*
X34112Y-22650D01*
X34106Y-22825D01*
X34168Y-22989D01*
X34184Y-23010D01*
X34204Y-23017D01*
X34188Y-23034D01*
X34226Y-23072D01*
X29319Y-23072D01*
X29319Y-23001D01*
X29319Y-22401D01*
X29281Y-22309D01*
X29211Y-22239D01*
X29120Y-22201D01*
X29021Y-22201D01*
X28778Y-22201D01*
X33289Y-17690D01*
X35030Y-17690D01*
X39541Y-22201D01*
G54D10*
G36*
X55148Y-13321D02*
X55111Y-13321D01*
X54909Y-13405D01*
X54755Y-13559D01*
X54671Y-13761D01*
X54671Y-13979D01*
X54755Y-14181D01*
X54895Y-14321D01*
X54895Y-14419D01*
X54755Y-14559D01*
X54671Y-14761D01*
X54671Y-14979D01*
X54755Y-15181D01*
X54895Y-15321D01*
X54895Y-15419D01*
X54755Y-15559D01*
X54671Y-15761D01*
X54671Y-15979D01*
X54755Y-16181D01*
X54895Y-16321D01*
X54895Y-16419D01*
X54755Y-16559D01*
X54671Y-16761D01*
X54671Y-16959D01*
X54100Y-17530D01*
X54030Y-17636D01*
X54005Y-17760D01*
X54005Y-22201D01*
X53981Y-22201D01*
X53889Y-22239D01*
X53819Y-22309D01*
X53781Y-22400D01*
X53781Y-22425D01*
X53641Y-22285D01*
X53439Y-22201D01*
X53221Y-22201D01*
X53019Y-22285D01*
X52865Y-22439D01*
X52830Y-22523D01*
X52795Y-22439D01*
X52641Y-22285D01*
X52439Y-22201D01*
X52221Y-22201D01*
X52019Y-22285D01*
X51865Y-22439D01*
X51830Y-22523D01*
X51795Y-22439D01*
X51641Y-22285D01*
X51439Y-22201D01*
X51221Y-22201D01*
X51019Y-22285D01*
X50865Y-22439D01*
X50830Y-22523D01*
X50795Y-22439D01*
X50641Y-22285D01*
X50439Y-22201D01*
X50221Y-22201D01*
X50019Y-22285D01*
X49865Y-22439D01*
X49830Y-22523D01*
X49795Y-22439D01*
X49641Y-22285D01*
X49439Y-22201D01*
X49221Y-22201D01*
X49019Y-22285D01*
X48865Y-22439D01*
X48830Y-22523D01*
X48795Y-22439D01*
X48641Y-22285D01*
X48439Y-22201D01*
X48221Y-22201D01*
X48019Y-22285D01*
X47865Y-22439D01*
X47781Y-22641D01*
X47781Y-22662D01*
X47772Y-22670D01*
X47712Y-22511D01*
X47696Y-22490D01*
X47625Y-22462D01*
X47618Y-22469D01*
X47618Y-22455D01*
X47590Y-22384D01*
X47430Y-22312D01*
X47255Y-22306D01*
X47091Y-22368D01*
X47070Y-22384D01*
X47042Y-22455D01*
X47330Y-22743D01*
X47618Y-22455D01*
X47618Y-22469D01*
X47372Y-22715D01*
X47337Y-22750D01*
X47330Y-22757D01*
X47323Y-22750D01*
X47288Y-22715D01*
X47035Y-22462D01*
X46964Y-22490D01*
X46892Y-22650D01*
X46886Y-22825D01*
X46948Y-22989D01*
X46959Y-23004D01*
X46081Y-23004D01*
X46081Y-12144D01*
X45991Y-11907D01*
X45968Y-11872D01*
X45876Y-11821D01*
X45447Y-12250D01*
X45876Y-12679D01*
X45968Y-12628D01*
X46072Y-12397D01*
X46081Y-12144D01*
X46081Y-23004D01*
X45869Y-23004D01*
X45869Y-12686D01*
X45440Y-12257D01*
X45433Y-12264D01*
X45433Y-12250D01*
X45004Y-11821D01*
X44912Y-11872D01*
X44808Y-12103D01*
X44799Y-12356D01*
X44889Y-12593D01*
X44912Y-12628D01*
X45004Y-12679D01*
X45433Y-12250D01*
X45433Y-12264D01*
X45011Y-12686D01*
X45062Y-12778D01*
X45293Y-12882D01*
X45546Y-12891D01*
X45783Y-12801D01*
X45818Y-12778D01*
X45869Y-12686D01*
X45869Y-23004D01*
X43890Y-23004D01*
X43890Y-12858D01*
X44074Y-12675D01*
X44189Y-12400D01*
X44189Y-12102D01*
X44075Y-11827D01*
X44031Y-11783D01*
X45028Y-11783D01*
X45011Y-11814D01*
X45440Y-12243D01*
X45869Y-11814D01*
X45851Y-11783D01*
X53610Y-11783D01*
X55148Y-13321D01*
X55148Y-13321D01*
G37*
G54D24*
X55148Y-13321D02*
X55111Y-13321D01*
X54909Y-13405D01*
X54755Y-13559D01*
X54671Y-13761D01*
X54671Y-13979D01*
X54755Y-14181D01*
X54895Y-14321D01*
X54895Y-14419D01*
X54755Y-14559D01*
X54671Y-14761D01*
X54671Y-14979D01*
X54755Y-15181D01*
X54895Y-15321D01*
X54895Y-15419D01*
X54755Y-15559D01*
X54671Y-15761D01*
X54671Y-15979D01*
X54755Y-16181D01*
X54895Y-16321D01*
X54895Y-16419D01*
X54755Y-16559D01*
X54671Y-16761D01*
X54671Y-16959D01*
X54100Y-17530D01*
X54030Y-17636D01*
X54005Y-17760D01*
X54005Y-22201D01*
X53981Y-22201D01*
X53889Y-22239D01*
X53819Y-22309D01*
X53781Y-22400D01*
X53781Y-22425D01*
X53641Y-22285D01*
X53439Y-22201D01*
X53221Y-22201D01*
X53019Y-22285D01*
X52865Y-22439D01*
X52830Y-22523D01*
X52795Y-22439D01*
X52641Y-22285D01*
X52439Y-22201D01*
X52221Y-22201D01*
X52019Y-22285D01*
X51865Y-22439D01*
X51830Y-22523D01*
X51795Y-22439D01*
X51641Y-22285D01*
X51439Y-22201D01*
X51221Y-22201D01*
X51019Y-22285D01*
X50865Y-22439D01*
X50830Y-22523D01*
X50795Y-22439D01*
X50641Y-22285D01*
X50439Y-22201D01*
X50221Y-22201D01*
X50019Y-22285D01*
X49865Y-22439D01*
X49830Y-22523D01*
X49795Y-22439D01*
X49641Y-22285D01*
X49439Y-22201D01*
X49221Y-22201D01*
X49019Y-22285D01*
X48865Y-22439D01*
X48830Y-22523D01*
X48795Y-22439D01*
X48641Y-22285D01*
X48439Y-22201D01*
X48221Y-22201D01*
X48019Y-22285D01*
X47865Y-22439D01*
X47781Y-22641D01*
X47781Y-22662D01*
X47772Y-22670D01*
X47712Y-22511D01*
X47696Y-22490D01*
X47625Y-22462D01*
X47618Y-22469D01*
X47618Y-22455D01*
X47590Y-22384D01*
X47430Y-22312D01*
X47255Y-22306D01*
X47091Y-22368D01*
X47070Y-22384D01*
X47042Y-22455D01*
X47330Y-22743D01*
X47618Y-22455D01*
X47618Y-22469D01*
X47372Y-22715D01*
X47337Y-22750D01*
X47330Y-22757D01*
X47323Y-22750D01*
X47288Y-22715D01*
X47035Y-22462D01*
X46964Y-22490D01*
X46892Y-22650D01*
X46886Y-22825D01*
X46948Y-22989D01*
X46959Y-23004D01*
X46081Y-23004D01*
X46081Y-12144D01*
X45991Y-11907D01*
X45968Y-11872D01*
X45876Y-11821D01*
X45447Y-12250D01*
X45876Y-12679D01*
X45968Y-12628D01*
X46072Y-12397D01*
X46081Y-12144D01*
X46081Y-23004D01*
X45869Y-23004D01*
X45869Y-12686D01*
X45440Y-12257D01*
X45433Y-12264D01*
X45433Y-12250D01*
X45004Y-11821D01*
X44912Y-11872D01*
X44808Y-12103D01*
X44799Y-12356D01*
X44889Y-12593D01*
X44912Y-12628D01*
X45004Y-12679D01*
X45433Y-12250D01*
X45433Y-12264D01*
X45011Y-12686D01*
X45062Y-12778D01*
X45293Y-12882D01*
X45546Y-12891D01*
X45783Y-12801D01*
X45818Y-12778D01*
X45869Y-12686D01*
X45869Y-23004D01*
X43890Y-23004D01*
X43890Y-12858D01*
X44074Y-12675D01*
X44189Y-12400D01*
X44189Y-12102D01*
X44075Y-11827D01*
X44031Y-11783D01*
X45028Y-11783D01*
X45011Y-11814D01*
X45440Y-12243D01*
X45869Y-11814D01*
X45851Y-11783D01*
X53610Y-11783D01*
X55148Y-13321D01*
G54D10*
G36*
X65101Y-22201D02*
X65001Y-22201D01*
X64799Y-22285D01*
X64645Y-22439D01*
X64610Y-22523D01*
X64575Y-22439D01*
X64421Y-22285D01*
X64219Y-22201D01*
X64001Y-22201D01*
X63799Y-22285D01*
X63645Y-22439D01*
X63610Y-22523D01*
X63575Y-22439D01*
X63421Y-22285D01*
X63219Y-22201D01*
X63001Y-22201D01*
X62799Y-22285D01*
X62645Y-22439D01*
X62610Y-22523D01*
X62575Y-22439D01*
X62421Y-22285D01*
X62219Y-22201D01*
X62001Y-22201D01*
X61799Y-22285D01*
X61645Y-22439D01*
X61610Y-22523D01*
X61575Y-22439D01*
X61421Y-22285D01*
X61219Y-22201D01*
X61001Y-22201D01*
X60799Y-22285D01*
X60645Y-22439D01*
X60561Y-22641D01*
X60561Y-22663D01*
X60552Y-22671D01*
X60492Y-22511D01*
X60476Y-22490D01*
X60405Y-22462D01*
X60398Y-22469D01*
X60398Y-22455D01*
X60370Y-22384D01*
X60210Y-22312D01*
X60035Y-22306D01*
X59871Y-22368D01*
X59850Y-22384D01*
X59822Y-22455D01*
X60110Y-22743D01*
X60398Y-22455D01*
X60398Y-22469D01*
X60152Y-22715D01*
X60117Y-22750D01*
X60110Y-22757D01*
X60103Y-22764D01*
X60103Y-22750D01*
X59815Y-22462D01*
X59744Y-22490D01*
X59672Y-22650D01*
X59666Y-22825D01*
X59728Y-22989D01*
X59744Y-23010D01*
X59815Y-23038D01*
X60103Y-22750D01*
X60103Y-22764D01*
X60075Y-22792D01*
X59822Y-23045D01*
X59850Y-23116D01*
X60010Y-23188D01*
X60035Y-23188D01*
X59714Y-23510D01*
X55190Y-23510D01*
X55268Y-23459D01*
X58665Y-20061D01*
X62961Y-20061D01*
X65101Y-22201D01*
X65101Y-22201D01*
G37*
G54D24*
X65101Y-22201D02*
X65001Y-22201D01*
X64799Y-22285D01*
X64645Y-22439D01*
X64610Y-22523D01*
X64575Y-22439D01*
X64421Y-22285D01*
X64219Y-22201D01*
X64001Y-22201D01*
X63799Y-22285D01*
X63645Y-22439D01*
X63610Y-22523D01*
X63575Y-22439D01*
X63421Y-22285D01*
X63219Y-22201D01*
X63001Y-22201D01*
X62799Y-22285D01*
X62645Y-22439D01*
X62610Y-22523D01*
X62575Y-22439D01*
X62421Y-22285D01*
X62219Y-22201D01*
X62001Y-22201D01*
X61799Y-22285D01*
X61645Y-22439D01*
X61610Y-22523D01*
X61575Y-22439D01*
X61421Y-22285D01*
X61219Y-22201D01*
X61001Y-22201D01*
X60799Y-22285D01*
X60645Y-22439D01*
X60561Y-22641D01*
X60561Y-22663D01*
X60552Y-22671D01*
X60492Y-22511D01*
X60476Y-22490D01*
X60405Y-22462D01*
X60398Y-22469D01*
X60398Y-22455D01*
X60370Y-22384D01*
X60210Y-22312D01*
X60035Y-22306D01*
X59871Y-22368D01*
X59850Y-22384D01*
X59822Y-22455D01*
X60110Y-22743D01*
X60398Y-22455D01*
X60398Y-22469D01*
X60152Y-22715D01*
X60117Y-22750D01*
X60110Y-22757D01*
X60103Y-22764D01*
X60103Y-22750D01*
X59815Y-22462D01*
X59744Y-22490D01*
X59672Y-22650D01*
X59666Y-22825D01*
X59728Y-22989D01*
X59744Y-23010D01*
X59815Y-23038D01*
X60103Y-22750D01*
X60103Y-22764D01*
X60075Y-22792D01*
X59822Y-23045D01*
X59850Y-23116D01*
X60010Y-23188D01*
X60035Y-23188D01*
X59714Y-23510D01*
X55190Y-23510D01*
X55268Y-23459D01*
X58665Y-20061D01*
X62961Y-20061D01*
X65101Y-22201D01*
G54D10*
G36*
X80571Y-13362D02*
X80469Y-13405D01*
X80315Y-13559D01*
X80231Y-13761D01*
X80231Y-13979D01*
X80315Y-14181D01*
X80455Y-14321D01*
X80455Y-14419D01*
X80315Y-14559D01*
X80231Y-14761D01*
X80231Y-14979D01*
X80315Y-15181D01*
X80455Y-15321D01*
X80455Y-15419D01*
X80315Y-15559D01*
X80231Y-15761D01*
X80231Y-15979D01*
X80315Y-16181D01*
X80455Y-16321D01*
X80455Y-16419D01*
X80315Y-16559D01*
X80231Y-16761D01*
X80231Y-16959D01*
X79660Y-17530D01*
X79590Y-17636D01*
X79565Y-17760D01*
X79565Y-22201D01*
X79541Y-22201D01*
X79449Y-22239D01*
X79379Y-22309D01*
X79341Y-22400D01*
X79341Y-22425D01*
X79201Y-22285D01*
X78999Y-22201D01*
X78781Y-22201D01*
X78579Y-22285D01*
X78425Y-22439D01*
X78390Y-22523D01*
X78355Y-22439D01*
X78201Y-22285D01*
X77999Y-22201D01*
X77781Y-22201D01*
X77579Y-22285D01*
X77425Y-22439D01*
X77390Y-22523D01*
X77355Y-22439D01*
X77201Y-22285D01*
X76999Y-22201D01*
X76781Y-22201D01*
X76579Y-22285D01*
X76425Y-22439D01*
X76390Y-22523D01*
X76355Y-22439D01*
X76201Y-22285D01*
X75999Y-22201D01*
X75781Y-22201D01*
X75579Y-22285D01*
X75425Y-22439D01*
X75390Y-22523D01*
X75355Y-22439D01*
X75201Y-22285D01*
X74999Y-22201D01*
X74781Y-22201D01*
X74579Y-22285D01*
X74425Y-22439D01*
X74390Y-22523D01*
X74355Y-22439D01*
X74201Y-22285D01*
X73999Y-22201D01*
X73781Y-22201D01*
X73579Y-22285D01*
X73425Y-22439D01*
X73341Y-22641D01*
X73341Y-22662D01*
X73332Y-22670D01*
X73272Y-22511D01*
X73256Y-22490D01*
X73185Y-22462D01*
X73178Y-22469D01*
X73178Y-22455D01*
X73150Y-22384D01*
X72990Y-22312D01*
X72815Y-22306D01*
X72651Y-22368D01*
X72630Y-22384D01*
X72602Y-22455D01*
X72890Y-22743D01*
X73178Y-22455D01*
X73178Y-22469D01*
X72932Y-22715D01*
X72897Y-22750D01*
X72890Y-22757D01*
X72883Y-22750D01*
X72848Y-22715D01*
X72595Y-22462D01*
X72524Y-22490D01*
X72452Y-22650D01*
X72446Y-22825D01*
X72508Y-22989D01*
X72519Y-23004D01*
X68364Y-23004D01*
X68364Y-18383D01*
X68431Y-18546D01*
X68951Y-19067D01*
X69630Y-19349D01*
X70366Y-19350D01*
X71046Y-19069D01*
X71567Y-18549D01*
X71849Y-17870D01*
X71850Y-17134D01*
X71641Y-16628D01*
X71641Y-12144D01*
X71551Y-11907D01*
X71528Y-11872D01*
X71436Y-11821D01*
X71007Y-12250D01*
X71436Y-12679D01*
X71528Y-12628D01*
X71632Y-12397D01*
X71641Y-12144D01*
X71641Y-16628D01*
X71569Y-16454D01*
X71429Y-16313D01*
X71429Y-12686D01*
X71000Y-12257D01*
X70993Y-12264D01*
X70993Y-12250D01*
X70564Y-11821D01*
X70472Y-11872D01*
X70368Y-12103D01*
X70359Y-12356D01*
X70449Y-12593D01*
X70472Y-12628D01*
X70564Y-12679D01*
X70993Y-12250D01*
X70993Y-12264D01*
X70571Y-12686D01*
X70622Y-12778D01*
X70853Y-12882D01*
X71106Y-12891D01*
X71343Y-12801D01*
X71378Y-12778D01*
X71429Y-12686D01*
X71429Y-16313D01*
X71049Y-15933D01*
X70370Y-15651D01*
X69634Y-15650D01*
X68954Y-15931D01*
X68433Y-16451D01*
X68364Y-16617D01*
X68364Y-13522D01*
X68887Y-12999D01*
X69148Y-12999D01*
X69423Y-12885D01*
X69634Y-12675D01*
X69749Y-12400D01*
X69749Y-12102D01*
X69635Y-11827D01*
X69591Y-11783D01*
X70588Y-11783D01*
X70571Y-11814D01*
X71000Y-12243D01*
X71429Y-11814D01*
X71411Y-11783D01*
X78992Y-11783D01*
X80571Y-13362D01*
X80571Y-13362D01*
G37*
G54D24*
X80571Y-13362D02*
X80469Y-13405D01*
X80315Y-13559D01*
X80231Y-13761D01*
X80231Y-13979D01*
X80315Y-14181D01*
X80455Y-14321D01*
X80455Y-14419D01*
X80315Y-14559D01*
X80231Y-14761D01*
X80231Y-14979D01*
X80315Y-15181D01*
X80455Y-15321D01*
X80455Y-15419D01*
X80315Y-15559D01*
X80231Y-15761D01*
X80231Y-15979D01*
X80315Y-16181D01*
X80455Y-16321D01*
X80455Y-16419D01*
X80315Y-16559D01*
X80231Y-16761D01*
X80231Y-16959D01*
X79660Y-17530D01*
X79590Y-17636D01*
X79565Y-17760D01*
X79565Y-22201D01*
X79541Y-22201D01*
X79449Y-22239D01*
X79379Y-22309D01*
X79341Y-22400D01*
X79341Y-22425D01*
X79201Y-22285D01*
X78999Y-22201D01*
X78781Y-22201D01*
X78579Y-22285D01*
X78425Y-22439D01*
X78390Y-22523D01*
X78355Y-22439D01*
X78201Y-22285D01*
X77999Y-22201D01*
X77781Y-22201D01*
X77579Y-22285D01*
X77425Y-22439D01*
X77390Y-22523D01*
X77355Y-22439D01*
X77201Y-22285D01*
X76999Y-22201D01*
X76781Y-22201D01*
X76579Y-22285D01*
X76425Y-22439D01*
X76390Y-22523D01*
X76355Y-22439D01*
X76201Y-22285D01*
X75999Y-22201D01*
X75781Y-22201D01*
X75579Y-22285D01*
X75425Y-22439D01*
X75390Y-22523D01*
X75355Y-22439D01*
X75201Y-22285D01*
X74999Y-22201D01*
X74781Y-22201D01*
X74579Y-22285D01*
X74425Y-22439D01*
X74390Y-22523D01*
X74355Y-22439D01*
X74201Y-22285D01*
X73999Y-22201D01*
X73781Y-22201D01*
X73579Y-22285D01*
X73425Y-22439D01*
X73341Y-22641D01*
X73341Y-22662D01*
X73332Y-22670D01*
X73272Y-22511D01*
X73256Y-22490D01*
X73185Y-22462D01*
X73178Y-22469D01*
X73178Y-22455D01*
X73150Y-22384D01*
X72990Y-22312D01*
X72815Y-22306D01*
X72651Y-22368D01*
X72630Y-22384D01*
X72602Y-22455D01*
X72890Y-22743D01*
X73178Y-22455D01*
X73178Y-22469D01*
X72932Y-22715D01*
X72897Y-22750D01*
X72890Y-22757D01*
X72883Y-22750D01*
X72848Y-22715D01*
X72595Y-22462D01*
X72524Y-22490D01*
X72452Y-22650D01*
X72446Y-22825D01*
X72508Y-22989D01*
X72519Y-23004D01*
X68364Y-23004D01*
X68364Y-18383D01*
X68431Y-18546D01*
X68951Y-19067D01*
X69630Y-19349D01*
X70366Y-19350D01*
X71046Y-19069D01*
X71567Y-18549D01*
X71849Y-17870D01*
X71850Y-17134D01*
X71641Y-16628D01*
X71641Y-12144D01*
X71551Y-11907D01*
X71528Y-11872D01*
X71436Y-11821D01*
X71007Y-12250D01*
X71436Y-12679D01*
X71528Y-12628D01*
X71632Y-12397D01*
X71641Y-12144D01*
X71641Y-16628D01*
X71569Y-16454D01*
X71429Y-16313D01*
X71429Y-12686D01*
X71000Y-12257D01*
X70993Y-12264D01*
X70993Y-12250D01*
X70564Y-11821D01*
X70472Y-11872D01*
X70368Y-12103D01*
X70359Y-12356D01*
X70449Y-12593D01*
X70472Y-12628D01*
X70564Y-12679D01*
X70993Y-12250D01*
X70993Y-12264D01*
X70571Y-12686D01*
X70622Y-12778D01*
X70853Y-12882D01*
X71106Y-12891D01*
X71343Y-12801D01*
X71378Y-12778D01*
X71429Y-12686D01*
X71429Y-16313D01*
X71049Y-15933D01*
X70370Y-15651D01*
X69634Y-15650D01*
X68954Y-15931D01*
X68433Y-16451D01*
X68364Y-16617D01*
X68364Y-13522D01*
X68887Y-12999D01*
X69148Y-12999D01*
X69423Y-12885D01*
X69634Y-12675D01*
X69749Y-12400D01*
X69749Y-12102D01*
X69635Y-11827D01*
X69591Y-11783D01*
X70588Y-11783D01*
X70571Y-11814D01*
X71000Y-12243D01*
X71429Y-11814D01*
X71411Y-11783D01*
X78992Y-11783D01*
X80571Y-13362D01*
G54D10*
G36*
X90661Y-22201D02*
X90561Y-22201D01*
X90359Y-22285D01*
X90205Y-22439D01*
X90170Y-22523D01*
X90135Y-22439D01*
X89981Y-22285D01*
X89779Y-22201D01*
X89561Y-22201D01*
X89359Y-22285D01*
X89205Y-22439D01*
X89170Y-22523D01*
X89135Y-22439D01*
X88981Y-22285D01*
X88779Y-22201D01*
X88561Y-22201D01*
X88359Y-22285D01*
X88205Y-22439D01*
X88170Y-22523D01*
X88135Y-22439D01*
X87981Y-22285D01*
X87779Y-22201D01*
X87561Y-22201D01*
X87359Y-22285D01*
X87205Y-22439D01*
X87170Y-22523D01*
X87135Y-22439D01*
X86981Y-22285D01*
X86779Y-22201D01*
X86561Y-22201D01*
X86359Y-22285D01*
X86205Y-22439D01*
X86121Y-22641D01*
X86121Y-22859D01*
X86205Y-23061D01*
X86220Y-23076D01*
X86220Y-23335D01*
X86114Y-23441D01*
X86114Y-22675D01*
X86052Y-22511D01*
X86036Y-22490D01*
X85965Y-22462D01*
X85958Y-22469D01*
X85958Y-22455D01*
X85930Y-22384D01*
X85770Y-22312D01*
X85595Y-22306D01*
X85431Y-22368D01*
X85410Y-22384D01*
X85382Y-22455D01*
X85670Y-22743D01*
X85958Y-22455D01*
X85958Y-22469D01*
X85677Y-22750D01*
X85965Y-23038D01*
X86036Y-23010D01*
X86108Y-22850D01*
X86114Y-22675D01*
X86114Y-23441D01*
X86112Y-23443D01*
X85958Y-23443D01*
X85958Y-23045D01*
X85670Y-22757D01*
X85663Y-22764D01*
X85663Y-22750D01*
X85375Y-22462D01*
X85304Y-22490D01*
X85232Y-22650D01*
X85226Y-22825D01*
X85288Y-22989D01*
X85304Y-23010D01*
X85375Y-23038D01*
X85663Y-22750D01*
X85663Y-22764D01*
X85382Y-23045D01*
X85410Y-23116D01*
X85570Y-23188D01*
X85745Y-23194D01*
X85909Y-23132D01*
X85930Y-23116D01*
X85958Y-23045D01*
X85958Y-23443D01*
X80571Y-23443D01*
X83914Y-20100D01*
X88560Y-20100D01*
X90661Y-22201D01*
X90661Y-22201D01*
G37*
G54D24*
X90661Y-22201D02*
X90561Y-22201D01*
X90359Y-22285D01*
X90205Y-22439D01*
X90170Y-22523D01*
X90135Y-22439D01*
X89981Y-22285D01*
X89779Y-22201D01*
X89561Y-22201D01*
X89359Y-22285D01*
X89205Y-22439D01*
X89170Y-22523D01*
X89135Y-22439D01*
X88981Y-22285D01*
X88779Y-22201D01*
X88561Y-22201D01*
X88359Y-22285D01*
X88205Y-22439D01*
X88170Y-22523D01*
X88135Y-22439D01*
X87981Y-22285D01*
X87779Y-22201D01*
X87561Y-22201D01*
X87359Y-22285D01*
X87205Y-22439D01*
X87170Y-22523D01*
X87135Y-22439D01*
X86981Y-22285D01*
X86779Y-22201D01*
X86561Y-22201D01*
X86359Y-22285D01*
X86205Y-22439D01*
X86121Y-22641D01*
X86121Y-22859D01*
X86205Y-23061D01*
X86220Y-23076D01*
X86220Y-23335D01*
X86114Y-23441D01*
X86114Y-22675D01*
X86052Y-22511D01*
X86036Y-22490D01*
X85965Y-22462D01*
X85958Y-22469D01*
X85958Y-22455D01*
X85930Y-22384D01*
X85770Y-22312D01*
X85595Y-22306D01*
X85431Y-22368D01*
X85410Y-22384D01*
X85382Y-22455D01*
X85670Y-22743D01*
X85958Y-22455D01*
X85958Y-22469D01*
X85677Y-22750D01*
X85965Y-23038D01*
X86036Y-23010D01*
X86108Y-22850D01*
X86114Y-22675D01*
X86114Y-23441D01*
X86112Y-23443D01*
X85958Y-23443D01*
X85958Y-23045D01*
X85670Y-22757D01*
X85663Y-22764D01*
X85663Y-22750D01*
X85375Y-22462D01*
X85304Y-22490D01*
X85232Y-22650D01*
X85226Y-22825D01*
X85288Y-22989D01*
X85304Y-23010D01*
X85375Y-23038D01*
X85663Y-22750D01*
X85663Y-22764D01*
X85382Y-23045D01*
X85410Y-23116D01*
X85570Y-23188D01*
X85745Y-23194D01*
X85909Y-23132D01*
X85930Y-23116D01*
X85958Y-23045D01*
X85958Y-23443D01*
X80571Y-23443D01*
X83914Y-20100D01*
X88560Y-20100D01*
X90661Y-22201D01*
G54D10*
G36*
X104647Y-22237D02*
X104559Y-22201D01*
X104341Y-22201D01*
X104139Y-22285D01*
X103985Y-22439D01*
X103950Y-22523D01*
X103915Y-22439D01*
X103761Y-22285D01*
X103559Y-22201D01*
X103341Y-22201D01*
X103139Y-22285D01*
X102985Y-22439D01*
X102950Y-22523D01*
X102915Y-22439D01*
X102761Y-22285D01*
X102559Y-22201D01*
X102341Y-22201D01*
X102139Y-22285D01*
X101985Y-22439D01*
X101950Y-22523D01*
X101915Y-22439D01*
X101850Y-22374D01*
X101850Y-17134D01*
X101569Y-16454D01*
X101049Y-15933D01*
X100370Y-15651D01*
X99634Y-15650D01*
X98954Y-15931D01*
X98433Y-16451D01*
X98151Y-17130D01*
X98150Y-17866D01*
X98431Y-18546D01*
X98951Y-19067D01*
X99630Y-19349D01*
X100366Y-19350D01*
X101046Y-19069D01*
X101567Y-18549D01*
X101849Y-17870D01*
X101850Y-17134D01*
X101850Y-22374D01*
X101761Y-22285D01*
X101559Y-22201D01*
X101341Y-22201D01*
X101139Y-22285D01*
X100985Y-22439D01*
X100950Y-22523D01*
X100915Y-22439D01*
X100761Y-22285D01*
X100559Y-22201D01*
X100341Y-22201D01*
X100139Y-22285D01*
X99985Y-22439D01*
X99950Y-22523D01*
X99915Y-22439D01*
X99761Y-22285D01*
X99559Y-22201D01*
X99341Y-22201D01*
X99139Y-22285D01*
X98985Y-22439D01*
X98901Y-22641D01*
X98901Y-22662D01*
X98892Y-22670D01*
X98832Y-22511D01*
X98816Y-22490D01*
X98745Y-22462D01*
X98738Y-22469D01*
X98738Y-22455D01*
X98710Y-22384D01*
X98550Y-22312D01*
X98375Y-22306D01*
X98211Y-22368D01*
X98190Y-22384D01*
X98162Y-22455D01*
X98450Y-22743D01*
X98738Y-22455D01*
X98738Y-22469D01*
X98492Y-22715D01*
X98457Y-22750D01*
X98450Y-22757D01*
X98443Y-22750D01*
X98408Y-22715D01*
X98155Y-22462D01*
X98084Y-22490D01*
X98012Y-22650D01*
X98006Y-22825D01*
X98068Y-22989D01*
X98079Y-23004D01*
X97201Y-23004D01*
X97201Y-12144D01*
X97111Y-11907D01*
X97088Y-11872D01*
X96996Y-11821D01*
X96567Y-12250D01*
X96996Y-12679D01*
X97088Y-12628D01*
X97192Y-12397D01*
X97201Y-12144D01*
X97201Y-23004D01*
X96989Y-23004D01*
X96989Y-12686D01*
X96560Y-12257D01*
X96553Y-12264D01*
X96553Y-12250D01*
X96124Y-11821D01*
X96032Y-11872D01*
X95928Y-12103D01*
X95919Y-12356D01*
X96009Y-12593D01*
X96032Y-12628D01*
X96124Y-12679D01*
X96553Y-12250D01*
X96553Y-12264D01*
X96131Y-12686D01*
X96182Y-12778D01*
X96413Y-12882D01*
X96666Y-12891D01*
X96903Y-12801D01*
X96938Y-12778D01*
X96989Y-12686D01*
X96989Y-23004D01*
X95010Y-23004D01*
X95010Y-12858D01*
X95194Y-12675D01*
X95309Y-12400D01*
X95309Y-12102D01*
X95195Y-11827D01*
X95012Y-11644D01*
X96361Y-11644D01*
X96217Y-11699D01*
X96182Y-11722D01*
X96131Y-11814D01*
X96560Y-12243D01*
X96989Y-11814D01*
X96938Y-11722D01*
X96764Y-11644D01*
X96921Y-11644D01*
X104647Y-19369D01*
X104647Y-22237D01*
X104647Y-22237D01*
G37*
G54D24*
X104647Y-22237D02*
X104559Y-22201D01*
X104341Y-22201D01*
X104139Y-22285D01*
X103985Y-22439D01*
X103950Y-22523D01*
X103915Y-22439D01*
X103761Y-22285D01*
X103559Y-22201D01*
X103341Y-22201D01*
X103139Y-22285D01*
X102985Y-22439D01*
X102950Y-22523D01*
X102915Y-22439D01*
X102761Y-22285D01*
X102559Y-22201D01*
X102341Y-22201D01*
X102139Y-22285D01*
X101985Y-22439D01*
X101950Y-22523D01*
X101915Y-22439D01*
X101850Y-22374D01*
X101850Y-17134D01*
X101569Y-16454D01*
X101049Y-15933D01*
X100370Y-15651D01*
X99634Y-15650D01*
X98954Y-15931D01*
X98433Y-16451D01*
X98151Y-17130D01*
X98150Y-17866D01*
X98431Y-18546D01*
X98951Y-19067D01*
X99630Y-19349D01*
X100366Y-19350D01*
X101046Y-19069D01*
X101567Y-18549D01*
X101849Y-17870D01*
X101850Y-17134D01*
X101850Y-22374D01*
X101761Y-22285D01*
X101559Y-22201D01*
X101341Y-22201D01*
X101139Y-22285D01*
X100985Y-22439D01*
X100950Y-22523D01*
X100915Y-22439D01*
X100761Y-22285D01*
X100559Y-22201D01*
X100341Y-22201D01*
X100139Y-22285D01*
X99985Y-22439D01*
X99950Y-22523D01*
X99915Y-22439D01*
X99761Y-22285D01*
X99559Y-22201D01*
X99341Y-22201D01*
X99139Y-22285D01*
X98985Y-22439D01*
X98901Y-22641D01*
X98901Y-22662D01*
X98892Y-22670D01*
X98832Y-22511D01*
X98816Y-22490D01*
X98745Y-22462D01*
X98738Y-22469D01*
X98738Y-22455D01*
X98710Y-22384D01*
X98550Y-22312D01*
X98375Y-22306D01*
X98211Y-22368D01*
X98190Y-22384D01*
X98162Y-22455D01*
X98450Y-22743D01*
X98738Y-22455D01*
X98738Y-22469D01*
X98492Y-22715D01*
X98457Y-22750D01*
X98450Y-22757D01*
X98443Y-22750D01*
X98408Y-22715D01*
X98155Y-22462D01*
X98084Y-22490D01*
X98012Y-22650D01*
X98006Y-22825D01*
X98068Y-22989D01*
X98079Y-23004D01*
X97201Y-23004D01*
X97201Y-12144D01*
X97111Y-11907D01*
X97088Y-11872D01*
X96996Y-11821D01*
X96567Y-12250D01*
X96996Y-12679D01*
X97088Y-12628D01*
X97192Y-12397D01*
X97201Y-12144D01*
X97201Y-23004D01*
X96989Y-23004D01*
X96989Y-12686D01*
X96560Y-12257D01*
X96553Y-12264D01*
X96553Y-12250D01*
X96124Y-11821D01*
X96032Y-11872D01*
X95928Y-12103D01*
X95919Y-12356D01*
X96009Y-12593D01*
X96032Y-12628D01*
X96124Y-12679D01*
X96553Y-12250D01*
X96553Y-12264D01*
X96131Y-12686D01*
X96182Y-12778D01*
X96413Y-12882D01*
X96666Y-12891D01*
X96903Y-12801D01*
X96938Y-12778D01*
X96989Y-12686D01*
X96989Y-23004D01*
X95010Y-23004D01*
X95010Y-12858D01*
X95194Y-12675D01*
X95309Y-12400D01*
X95309Y-12102D01*
X95195Y-11827D01*
X95012Y-11644D01*
X96361Y-11644D01*
X96217Y-11699D01*
X96182Y-11722D01*
X96131Y-11814D01*
X96560Y-12243D01*
X96989Y-11814D01*
X96938Y-11722D01*
X96764Y-11644D01*
X96921Y-11644D01*
X104647Y-19369D01*
X104647Y-22237D01*
G54D10*
G36*
X129675Y-24675D02*
X127650Y-24675D01*
X127650Y-14313D01*
X127460Y-13853D01*
X127109Y-13501D01*
X126650Y-13311D01*
X126153Y-13310D01*
X125693Y-13500D01*
X125341Y-13851D01*
X125151Y-14310D01*
X125150Y-14807D01*
X125340Y-15267D01*
X125691Y-15619D01*
X126150Y-15809D01*
X126647Y-15810D01*
X127107Y-15620D01*
X127459Y-15269D01*
X127649Y-14810D01*
X127650Y-14313D01*
X127650Y-24675D01*
X124179Y-24675D01*
X124179Y-15169D01*
X124179Y-14951D01*
X124095Y-14749D01*
X123941Y-14595D01*
X123765Y-14522D01*
X123816Y-14472D01*
X123886Y-14367D01*
X123886Y-14366D01*
X123911Y-14242D01*
X123911Y-13424D01*
X123886Y-13300D01*
X123886Y-13299D01*
X123816Y-13194D01*
X122664Y-12042D01*
X122558Y-11972D01*
X122434Y-11947D01*
X107838Y-11947D01*
X107713Y-11972D01*
X107608Y-12042D01*
X106840Y-12810D01*
X104865Y-10835D01*
X104759Y-10765D01*
X104635Y-10740D01*
X85257Y-10740D01*
X85133Y-10765D01*
X85027Y-10835D01*
X85025Y-10837D01*
X82276Y-13586D01*
X82263Y-13604D01*
X82245Y-13559D01*
X82091Y-13405D01*
X81889Y-13321D01*
X81809Y-13321D01*
X79368Y-10880D01*
X79262Y-10810D01*
X79138Y-10785D01*
X56220Y-10785D01*
X33420Y-10785D01*
X33295Y-10810D01*
X33190Y-10880D01*
X30749Y-13321D01*
X30551Y-13321D01*
X30349Y-13405D01*
X30195Y-13559D01*
X30160Y-13643D01*
X30125Y-13559D01*
X29971Y-13405D01*
X29769Y-13321D01*
X29551Y-13321D01*
X29349Y-13405D01*
X29195Y-13559D01*
X29111Y-13761D01*
X29111Y-13979D01*
X29195Y-14181D01*
X29349Y-14335D01*
X29433Y-14370D01*
X29349Y-14405D01*
X29195Y-14559D01*
X29111Y-14761D01*
X29111Y-14979D01*
X29195Y-15181D01*
X29335Y-15321D01*
X29335Y-15419D01*
X29195Y-15559D01*
X29111Y-15761D01*
X29111Y-15979D01*
X29195Y-16181D01*
X29335Y-16321D01*
X29335Y-16419D01*
X29195Y-16559D01*
X29111Y-16761D01*
X29111Y-16979D01*
X29195Y-17181D01*
X29349Y-17335D01*
X29551Y-17419D01*
X29769Y-17419D01*
X29971Y-17335D01*
X30111Y-17195D01*
X30111Y-17219D01*
X30149Y-17311D01*
X30219Y-17381D01*
X30310Y-17419D01*
X30409Y-17419D01*
X31009Y-17419D01*
X31101Y-17381D01*
X31171Y-17311D01*
X31209Y-17220D01*
X31209Y-17121D01*
X31209Y-16521D01*
X31171Y-16429D01*
X31101Y-16359D01*
X31010Y-16321D01*
X30985Y-16321D01*
X31125Y-16181D01*
X31209Y-15979D01*
X31209Y-15761D01*
X31125Y-15559D01*
X30971Y-15405D01*
X30886Y-15370D01*
X30971Y-15335D01*
X31125Y-15181D01*
X31209Y-14979D01*
X31209Y-14780D01*
X32111Y-13878D01*
X32111Y-13979D01*
X32195Y-14181D01*
X32335Y-14321D01*
X32335Y-14419D01*
X32195Y-14559D01*
X32111Y-14761D01*
X32111Y-14979D01*
X32195Y-15181D01*
X32335Y-15321D01*
X32335Y-15419D01*
X32195Y-15559D01*
X32111Y-15761D01*
X32111Y-15979D01*
X32195Y-16181D01*
X32335Y-16321D01*
X32335Y-16419D01*
X32195Y-16559D01*
X32111Y-16761D01*
X32111Y-16979D01*
X32195Y-17181D01*
X32349Y-17335D01*
X32551Y-17419D01*
X32641Y-17419D01*
X27859Y-22201D01*
X27661Y-22201D01*
X27459Y-22285D01*
X27305Y-22439D01*
X27270Y-22523D01*
X27235Y-22439D01*
X27081Y-22285D01*
X26879Y-22201D01*
X26661Y-22201D01*
X26459Y-22285D01*
X26305Y-22439D01*
X26270Y-22523D01*
X26235Y-22439D01*
X26081Y-22285D01*
X25920Y-22218D01*
X25920Y-12150D01*
X25920Y-11772D01*
X25776Y-11423D01*
X25509Y-11155D01*
X25160Y-11010D01*
X24782Y-11010D01*
X24433Y-11154D01*
X24165Y-11421D01*
X24020Y-11770D01*
X24020Y-12148D01*
X24164Y-12497D01*
X24431Y-12765D01*
X24780Y-12910D01*
X25158Y-12910D01*
X25507Y-12766D01*
X25775Y-12499D01*
X25920Y-12150D01*
X25920Y-22218D01*
X25879Y-22201D01*
X25661Y-22201D01*
X25459Y-22285D01*
X25305Y-22439D01*
X25270Y-22523D01*
X25235Y-22439D01*
X25081Y-22285D01*
X24879Y-22201D01*
X24661Y-22201D01*
X24459Y-22285D01*
X24305Y-22439D01*
X24270Y-22523D01*
X24250Y-22475D01*
X24250Y-14920D01*
X24250Y-14502D01*
X24090Y-14116D01*
X24038Y-14063D01*
X24038Y-12212D01*
X23921Y-11902D01*
X23890Y-11855D01*
X23830Y-11814D01*
X23830Y-11296D01*
X23830Y-11045D01*
X23734Y-10813D01*
X23557Y-10636D01*
X23326Y-10540D01*
X23075Y-10540D01*
X22843Y-10636D01*
X22666Y-10813D01*
X22570Y-11044D01*
X22570Y-11295D01*
X22666Y-11527D01*
X22763Y-11624D01*
X22752Y-11629D01*
X22705Y-11660D01*
X22629Y-11772D01*
X23200Y-12343D01*
X23771Y-11772D01*
X23695Y-11660D01*
X23630Y-11630D01*
X23734Y-11527D01*
X23830Y-11296D01*
X23830Y-11814D01*
X23778Y-11779D01*
X23207Y-12350D01*
X23778Y-12921D01*
X23890Y-12845D01*
X24027Y-12543D01*
X24038Y-12212D01*
X24038Y-14063D01*
X23795Y-13820D01*
X23771Y-13810D01*
X23771Y-12928D01*
X23200Y-12357D01*
X23193Y-12364D01*
X23193Y-12350D01*
X22622Y-11779D01*
X22510Y-11855D01*
X22380Y-12141D01*
X22380Y-11772D01*
X22236Y-11423D01*
X21969Y-11155D01*
X21620Y-11010D01*
X21242Y-11010D01*
X20893Y-11154D01*
X20625Y-11421D01*
X20480Y-11770D01*
X20480Y-12148D01*
X20624Y-12497D01*
X20891Y-12765D01*
X21240Y-12910D01*
X21618Y-12910D01*
X21967Y-12766D01*
X22235Y-12499D01*
X22372Y-12167D01*
X22362Y-12488D01*
X22479Y-12798D01*
X22510Y-12845D01*
X22622Y-12921D01*
X23193Y-12350D01*
X23193Y-12364D01*
X22629Y-12928D01*
X22705Y-13040D01*
X23007Y-13177D01*
X23338Y-13188D01*
X23648Y-13071D01*
X23695Y-13040D01*
X23771Y-12928D01*
X23771Y-13810D01*
X23410Y-13660D01*
X22992Y-13660D01*
X22606Y-13820D01*
X22310Y-14115D01*
X22150Y-14500D01*
X22150Y-14918D01*
X22261Y-15188D01*
X20815Y-16635D01*
X16187Y-16635D01*
X16187Y-12119D01*
X16187Y-11802D01*
X16066Y-11509D01*
X15842Y-11285D01*
X15549Y-11163D01*
X15232Y-11163D01*
X14939Y-11284D01*
X14715Y-11508D01*
X14593Y-11801D01*
X14593Y-12118D01*
X14714Y-12411D01*
X14938Y-12635D01*
X15231Y-12757D01*
X15548Y-12757D01*
X15841Y-12636D01*
X16065Y-12412D01*
X16187Y-12119D01*
X16187Y-16635D01*
X15116Y-16635D01*
X15068Y-16518D01*
X14848Y-16297D01*
X14561Y-16178D01*
X14250Y-16178D01*
X14220Y-16178D01*
X14187Y-16191D01*
X14187Y-12119D01*
X14187Y-11802D01*
X14066Y-11509D01*
X13842Y-11285D01*
X13549Y-11163D01*
X13232Y-11163D01*
X12939Y-11284D01*
X12715Y-11508D01*
X12593Y-11801D01*
X12593Y-12118D01*
X12714Y-12411D01*
X12938Y-12635D01*
X13231Y-12757D01*
X13548Y-12757D01*
X13841Y-12636D01*
X14065Y-12412D01*
X14187Y-12119D01*
X14187Y-16191D01*
X13933Y-16297D01*
X13712Y-16517D01*
X13593Y-16804D01*
X13593Y-17115D01*
X13712Y-17402D01*
X13932Y-17623D01*
X14219Y-17742D01*
X14530Y-17742D01*
X14560Y-17742D01*
X14847Y-17623D01*
X15068Y-17403D01*
X15116Y-17285D01*
X20950Y-17285D01*
X21074Y-17260D01*
X21180Y-17190D01*
X22721Y-15648D01*
X22990Y-15760D01*
X23408Y-15760D01*
X23794Y-15600D01*
X24090Y-15305D01*
X24250Y-14920D01*
X24250Y-22475D01*
X24235Y-22439D01*
X24081Y-22285D01*
X23879Y-22201D01*
X23661Y-22201D01*
X23459Y-22285D01*
X23305Y-22439D01*
X23270Y-22523D01*
X23235Y-22439D01*
X23081Y-22285D01*
X22879Y-22201D01*
X22661Y-22201D01*
X22459Y-22285D01*
X22305Y-22439D01*
X22221Y-22641D01*
X22221Y-22859D01*
X22305Y-23061D01*
X22459Y-23215D01*
X22661Y-23299D01*
X22682Y-23299D01*
X23228Y-23845D01*
X23229Y-23845D01*
X23326Y-23910D01*
X23374Y-23942D01*
X23375Y-23943D01*
X23546Y-23976D01*
X23547Y-23977D01*
X25993Y-23977D01*
X26165Y-23943D01*
X26166Y-23943D01*
X26311Y-23845D01*
X26770Y-23386D01*
X27223Y-23840D01*
X27224Y-23840D01*
X27321Y-23905D01*
X27369Y-23937D01*
X27370Y-23938D01*
X27541Y-23971D01*
X27542Y-23972D01*
X35550Y-23972D01*
X38778Y-23972D01*
X38950Y-23938D01*
X38951Y-23938D01*
X39096Y-23840D01*
X39550Y-23386D01*
X39935Y-23772D01*
X39936Y-23772D01*
X40033Y-23837D01*
X40081Y-23869D01*
X40082Y-23870D01*
X40254Y-23904D01*
X43440Y-23904D01*
X47626Y-23904D01*
X47798Y-23870D01*
X47799Y-23870D01*
X47944Y-23772D01*
X48330Y-23386D01*
X48715Y-23772D01*
X48716Y-23772D01*
X48813Y-23837D01*
X48861Y-23869D01*
X48862Y-23870D01*
X49034Y-23904D01*
X51660Y-23904D01*
X51832Y-23870D01*
X51833Y-23870D01*
X51978Y-23772D01*
X52330Y-23420D01*
X53188Y-24278D01*
X53333Y-24376D01*
X53334Y-24376D01*
X53506Y-24410D01*
X59900Y-24410D01*
X60072Y-24376D01*
X60073Y-24376D01*
X60218Y-24278D01*
X61109Y-23386D01*
X61495Y-23772D01*
X61496Y-23772D01*
X61593Y-23837D01*
X61641Y-23869D01*
X61642Y-23870D01*
X61814Y-23904D01*
X64406Y-23904D01*
X64578Y-23870D01*
X64579Y-23870D01*
X64724Y-23772D01*
X65110Y-23386D01*
X65495Y-23772D01*
X65496Y-23772D01*
X65593Y-23837D01*
X65641Y-23869D01*
X65642Y-23870D01*
X65814Y-23904D01*
X67914Y-23904D01*
X73186Y-23904D01*
X73358Y-23870D01*
X73359Y-23870D01*
X73504Y-23772D01*
X73890Y-23386D01*
X74275Y-23772D01*
X74276Y-23772D01*
X74373Y-23837D01*
X74421Y-23869D01*
X74422Y-23870D01*
X74594Y-23904D01*
X77186Y-23904D01*
X77358Y-23870D01*
X77359Y-23870D01*
X77504Y-23772D01*
X77890Y-23386D01*
X78714Y-24211D01*
X78715Y-24211D01*
X78812Y-24276D01*
X78860Y-24308D01*
X78861Y-24309D01*
X79033Y-24343D01*
X86299Y-24343D01*
X86471Y-24309D01*
X86472Y-24309D01*
X86617Y-24211D01*
X86856Y-23972D01*
X89898Y-23972D01*
X90070Y-23938D01*
X90071Y-23938D01*
X90216Y-23840D01*
X90670Y-23386D01*
X91055Y-23772D01*
X91056Y-23772D01*
X91153Y-23837D01*
X91201Y-23869D01*
X91202Y-23870D01*
X91374Y-23904D01*
X94560Y-23904D01*
X98746Y-23904D01*
X98918Y-23870D01*
X98919Y-23870D01*
X99064Y-23772D01*
X99450Y-23386D01*
X99835Y-23772D01*
X99836Y-23772D01*
X99933Y-23837D01*
X99981Y-23869D01*
X99982Y-23870D01*
X100154Y-23904D01*
X102746Y-23904D01*
X102918Y-23870D01*
X102919Y-23870D01*
X103064Y-23772D01*
X103450Y-23386D01*
X104359Y-24296D01*
X104360Y-24296D01*
X104457Y-24361D01*
X104505Y-24393D01*
X104506Y-24394D01*
X104678Y-24428D01*
X111002Y-24428D01*
X111174Y-24394D01*
X111175Y-24394D01*
X111320Y-24296D01*
X112230Y-23386D01*
X112615Y-23772D01*
X112616Y-23772D01*
X112713Y-23837D01*
X112761Y-23869D01*
X112762Y-23870D01*
X112934Y-23904D01*
X115526Y-23904D01*
X115698Y-23870D01*
X115699Y-23870D01*
X115844Y-23772D01*
X116317Y-23299D01*
X116339Y-23299D01*
X116541Y-23215D01*
X116695Y-23061D01*
X116730Y-22976D01*
X116765Y-23061D01*
X116919Y-23215D01*
X117121Y-23299D01*
X117339Y-23299D01*
X117541Y-23215D01*
X117681Y-23075D01*
X117681Y-23099D01*
X117719Y-23191D01*
X117789Y-23261D01*
X117880Y-23299D01*
X117979Y-23299D01*
X118579Y-23299D01*
X118671Y-23261D01*
X118741Y-23191D01*
X118779Y-23100D01*
X118779Y-23001D01*
X118779Y-22401D01*
X118741Y-22309D01*
X118671Y-22239D01*
X118580Y-22201D01*
X118481Y-22201D01*
X117881Y-22201D01*
X117789Y-22239D01*
X117719Y-22309D01*
X117681Y-22400D01*
X117681Y-22425D01*
X117541Y-22285D01*
X117339Y-22201D01*
X117121Y-22201D01*
X116919Y-22285D01*
X116765Y-22439D01*
X116730Y-22523D01*
X116695Y-22439D01*
X116541Y-22285D01*
X116339Y-22201D01*
X116121Y-22201D01*
X115919Y-22285D01*
X115765Y-22439D01*
X115730Y-22523D01*
X115695Y-22439D01*
X115541Y-22285D01*
X115339Y-22201D01*
X115121Y-22201D01*
X114919Y-22285D01*
X114765Y-22439D01*
X114730Y-22523D01*
X114695Y-22439D01*
X114541Y-22285D01*
X114339Y-22201D01*
X114121Y-22201D01*
X113919Y-22285D01*
X113765Y-22439D01*
X113730Y-22523D01*
X113695Y-22439D01*
X113541Y-22285D01*
X113339Y-22201D01*
X113121Y-22201D01*
X112919Y-22285D01*
X112765Y-22439D01*
X112730Y-22523D01*
X112695Y-22439D01*
X112541Y-22285D01*
X112339Y-22201D01*
X112121Y-22201D01*
X111919Y-22285D01*
X111765Y-22439D01*
X111681Y-22641D01*
X111681Y-22662D01*
X111672Y-22670D01*
X111612Y-22511D01*
X111596Y-22490D01*
X111525Y-22462D01*
X111518Y-22469D01*
X111518Y-22455D01*
X111490Y-22384D01*
X111330Y-22312D01*
X111155Y-22306D01*
X110991Y-22368D01*
X110970Y-22384D01*
X110942Y-22455D01*
X111230Y-22743D01*
X111518Y-22455D01*
X111518Y-22469D01*
X111272Y-22715D01*
X111237Y-22750D01*
X111230Y-22757D01*
X111223Y-22764D01*
X111223Y-22750D01*
X110935Y-22462D01*
X110864Y-22490D01*
X110792Y-22650D01*
X110786Y-22825D01*
X110848Y-22989D01*
X110864Y-23010D01*
X110935Y-23038D01*
X111223Y-22750D01*
X111223Y-22764D01*
X111195Y-22792D01*
X110942Y-23045D01*
X110970Y-23116D01*
X111130Y-23188D01*
X111154Y-23188D01*
X110815Y-23528D01*
X105986Y-23528D01*
X106091Y-23459D01*
X110570Y-18980D01*
X110640Y-18875D01*
X110640Y-18874D01*
X110665Y-18750D01*
X110665Y-17419D01*
X110689Y-17419D01*
X110781Y-17381D01*
X110851Y-17311D01*
X110889Y-17220D01*
X110889Y-17195D01*
X116294Y-17195D01*
X116418Y-17170D01*
X116524Y-17100D01*
X119100Y-14524D01*
X119177Y-14524D01*
X119270Y-14617D01*
X119235Y-14616D01*
X119071Y-14678D01*
X119050Y-14694D01*
X119022Y-14765D01*
X119275Y-15018D01*
X119310Y-15053D01*
X119317Y-15060D01*
X119352Y-15095D01*
X119605Y-15348D01*
X119676Y-15320D01*
X119748Y-15160D01*
X119754Y-14985D01*
X119715Y-14884D01*
X119868Y-14884D01*
X119841Y-14951D01*
X119841Y-15169D01*
X119925Y-15371D01*
X120079Y-15525D01*
X120281Y-15609D01*
X120499Y-15609D01*
X120701Y-15525D01*
X120855Y-15371D01*
X120930Y-15190D01*
X121005Y-15371D01*
X121159Y-15525D01*
X121361Y-15609D01*
X121559Y-15609D01*
X121723Y-15772D01*
X121725Y-15775D01*
X121830Y-15844D01*
X121831Y-15845D01*
X121929Y-15864D01*
X121954Y-15870D01*
X121954Y-15869D01*
X121955Y-15870D01*
X123004Y-15870D01*
X123128Y-15845D01*
X123234Y-15775D01*
X123274Y-15733D01*
X123276Y-15732D01*
X123277Y-15732D01*
X123346Y-15627D01*
X123347Y-15626D01*
X123363Y-15543D01*
X123521Y-15609D01*
X123739Y-15609D01*
X123941Y-15525D01*
X124095Y-15371D01*
X124179Y-15169D01*
X124179Y-24675D01*
X119598Y-24675D01*
X119598Y-15355D01*
X119310Y-15067D01*
X119303Y-15074D01*
X119303Y-15060D01*
X119015Y-14772D01*
X118944Y-14800D01*
X118872Y-14960D01*
X118866Y-15135D01*
X118928Y-15299D01*
X118944Y-15320D01*
X119015Y-15348D01*
X119303Y-15060D01*
X119303Y-15074D01*
X119022Y-15355D01*
X119050Y-15426D01*
X119210Y-15498D01*
X119385Y-15504D01*
X119549Y-15442D01*
X119570Y-15426D01*
X119598Y-15355D01*
X119598Y-24675D01*
X22214Y-24675D01*
X22214Y-22675D01*
X22152Y-22511D01*
X22136Y-22490D01*
X22065Y-22462D01*
X22058Y-22469D01*
X22058Y-22455D01*
X22030Y-22384D01*
X21870Y-22312D01*
X21695Y-22306D01*
X21531Y-22368D01*
X21510Y-22384D01*
X21482Y-22455D01*
X21770Y-22743D01*
X22058Y-22455D01*
X22058Y-22469D01*
X21777Y-22750D01*
X22065Y-23038D01*
X22136Y-23010D01*
X22208Y-22850D01*
X22214Y-22675D01*
X22214Y-24675D01*
X22058Y-24675D01*
X22058Y-23045D01*
X21770Y-22757D01*
X21763Y-22764D01*
X21763Y-22750D01*
X21475Y-22462D01*
X21404Y-22490D01*
X21332Y-22650D01*
X21326Y-22825D01*
X21388Y-22989D01*
X21404Y-23010D01*
X21475Y-23038D01*
X21763Y-22750D01*
X21763Y-22764D01*
X21482Y-23045D01*
X21510Y-23116D01*
X21670Y-23188D01*
X21845Y-23194D01*
X22009Y-23132D01*
X22030Y-23116D01*
X22058Y-23045D01*
X22058Y-24675D01*
X15187Y-24675D01*
X15187Y-21116D01*
X15187Y-20805D01*
X15187Y-19116D01*
X15187Y-18805D01*
X15068Y-18518D01*
X14848Y-18297D01*
X14561Y-18178D01*
X14250Y-18178D01*
X14220Y-18178D01*
X13933Y-18297D01*
X13712Y-18517D01*
X13593Y-18804D01*
X13593Y-19115D01*
X13712Y-19402D01*
X13932Y-19623D01*
X14219Y-19742D01*
X14530Y-19742D01*
X14560Y-19742D01*
X14847Y-19623D01*
X15068Y-19403D01*
X15187Y-19116D01*
X15187Y-20805D01*
X15068Y-20518D01*
X14848Y-20297D01*
X14561Y-20178D01*
X14250Y-20178D01*
X14220Y-20178D01*
X13933Y-20297D01*
X13712Y-20517D01*
X13593Y-20804D01*
X13593Y-21115D01*
X13712Y-21402D01*
X13932Y-21623D01*
X14219Y-21742D01*
X14530Y-21742D01*
X14560Y-21742D01*
X14847Y-21623D01*
X15068Y-21403D01*
X15187Y-21116D01*
X15187Y-24675D01*
X10325Y-24675D01*
X10325Y-10325D01*
X129675Y-10325D01*
X129675Y-24675D01*
X129675Y-24675D01*
G37*
G54D24*
X129675Y-24675D02*
X127650Y-24675D01*
X127650Y-14313D01*
X127460Y-13853D01*
X127109Y-13501D01*
X126650Y-13311D01*
X126153Y-13310D01*
X125693Y-13500D01*
X125341Y-13851D01*
X125151Y-14310D01*
X125150Y-14807D01*
X125340Y-15267D01*
X125691Y-15619D01*
X126150Y-15809D01*
X126647Y-15810D01*
X127107Y-15620D01*
X127459Y-15269D01*
X127649Y-14810D01*
X127650Y-14313D01*
X127650Y-24675D01*
X124179Y-24675D01*
X124179Y-15169D01*
X124179Y-14951D01*
X124095Y-14749D01*
X123941Y-14595D01*
X123765Y-14522D01*
X123816Y-14472D01*
X123886Y-14367D01*
X123886Y-14366D01*
X123911Y-14242D01*
X123911Y-13424D01*
X123886Y-13300D01*
X123886Y-13299D01*
X123816Y-13194D01*
X122664Y-12042D01*
X122558Y-11972D01*
X122434Y-11947D01*
X107838Y-11947D01*
X107713Y-11972D01*
X107608Y-12042D01*
X106840Y-12810D01*
X104865Y-10835D01*
X104759Y-10765D01*
X104635Y-10740D01*
X85257Y-10740D01*
X85133Y-10765D01*
X85027Y-10835D01*
X85025Y-10837D01*
X82276Y-13586D01*
X82263Y-13604D01*
X82245Y-13559D01*
X82091Y-13405D01*
X81889Y-13321D01*
X81809Y-13321D01*
X79368Y-10880D01*
X79262Y-10810D01*
X79138Y-10785D01*
X56220Y-10785D01*
X33420Y-10785D01*
X33295Y-10810D01*
X33190Y-10880D01*
X30749Y-13321D01*
X30551Y-13321D01*
X30349Y-13405D01*
X30195Y-13559D01*
X30160Y-13643D01*
X30125Y-13559D01*
X29971Y-13405D01*
X29769Y-13321D01*
X29551Y-13321D01*
X29349Y-13405D01*
X29195Y-13559D01*
X29111Y-13761D01*
X29111Y-13979D01*
X29195Y-14181D01*
X29349Y-14335D01*
X29433Y-14370D01*
X29349Y-14405D01*
X29195Y-14559D01*
X29111Y-14761D01*
X29111Y-14979D01*
X29195Y-15181D01*
X29335Y-15321D01*
X29335Y-15419D01*
X29195Y-15559D01*
X29111Y-15761D01*
X29111Y-15979D01*
X29195Y-16181D01*
X29335Y-16321D01*
X29335Y-16419D01*
X29195Y-16559D01*
X29111Y-16761D01*
X29111Y-16979D01*
X29195Y-17181D01*
X29349Y-17335D01*
X29551Y-17419D01*
X29769Y-17419D01*
X29971Y-17335D01*
X30111Y-17195D01*
X30111Y-17219D01*
X30149Y-17311D01*
X30219Y-17381D01*
X30310Y-17419D01*
X30409Y-17419D01*
X31009Y-17419D01*
X31101Y-17381D01*
X31171Y-17311D01*
X31209Y-17220D01*
X31209Y-17121D01*
X31209Y-16521D01*
X31171Y-16429D01*
X31101Y-16359D01*
X31010Y-16321D01*
X30985Y-16321D01*
X31125Y-16181D01*
X31209Y-15979D01*
X31209Y-15761D01*
X31125Y-15559D01*
X30971Y-15405D01*
X30886Y-15370D01*
X30971Y-15335D01*
X31125Y-15181D01*
X31209Y-14979D01*
X31209Y-14780D01*
X32111Y-13878D01*
X32111Y-13979D01*
X32195Y-14181D01*
X32335Y-14321D01*
X32335Y-14419D01*
X32195Y-14559D01*
X32111Y-14761D01*
X32111Y-14979D01*
X32195Y-15181D01*
X32335Y-15321D01*
X32335Y-15419D01*
X32195Y-15559D01*
X32111Y-15761D01*
X32111Y-15979D01*
X32195Y-16181D01*
X32335Y-16321D01*
X32335Y-16419D01*
X32195Y-16559D01*
X32111Y-16761D01*
X32111Y-16979D01*
X32195Y-17181D01*
X32349Y-17335D01*
X32551Y-17419D01*
X32641Y-17419D01*
X27859Y-22201D01*
X27661Y-22201D01*
X27459Y-22285D01*
X27305Y-22439D01*
X27270Y-22523D01*
X27235Y-22439D01*
X27081Y-22285D01*
X26879Y-22201D01*
X26661Y-22201D01*
X26459Y-22285D01*
X26305Y-22439D01*
X26270Y-22523D01*
X26235Y-22439D01*
X26081Y-22285D01*
X25920Y-22218D01*
X25920Y-12150D01*
X25920Y-11772D01*
X25776Y-11423D01*
X25509Y-11155D01*
X25160Y-11010D01*
X24782Y-11010D01*
X24433Y-11154D01*
X24165Y-11421D01*
X24020Y-11770D01*
X24020Y-12148D01*
X24164Y-12497D01*
X24431Y-12765D01*
X24780Y-12910D01*
X25158Y-12910D01*
X25507Y-12766D01*
X25775Y-12499D01*
X25920Y-12150D01*
X25920Y-22218D01*
X25879Y-22201D01*
X25661Y-22201D01*
X25459Y-22285D01*
X25305Y-22439D01*
X25270Y-22523D01*
X25235Y-22439D01*
X25081Y-22285D01*
X24879Y-22201D01*
X24661Y-22201D01*
X24459Y-22285D01*
X24305Y-22439D01*
X24270Y-22523D01*
X24250Y-22475D01*
X24250Y-14920D01*
X24250Y-14502D01*
X24090Y-14116D01*
X24038Y-14063D01*
X24038Y-12212D01*
X23921Y-11902D01*
X23890Y-11855D01*
X23830Y-11814D01*
X23830Y-11296D01*
X23830Y-11045D01*
X23734Y-10813D01*
X23557Y-10636D01*
X23326Y-10540D01*
X23075Y-10540D01*
X22843Y-10636D01*
X22666Y-10813D01*
X22570Y-11044D01*
X22570Y-11295D01*
X22666Y-11527D01*
X22763Y-11624D01*
X22752Y-11629D01*
X22705Y-11660D01*
X22629Y-11772D01*
X23200Y-12343D01*
X23771Y-11772D01*
X23695Y-11660D01*
X23630Y-11630D01*
X23734Y-11527D01*
X23830Y-11296D01*
X23830Y-11814D01*
X23778Y-11779D01*
X23207Y-12350D01*
X23778Y-12921D01*
X23890Y-12845D01*
X24027Y-12543D01*
X24038Y-12212D01*
X24038Y-14063D01*
X23795Y-13820D01*
X23771Y-13810D01*
X23771Y-12928D01*
X23200Y-12357D01*
X23193Y-12364D01*
X23193Y-12350D01*
X22622Y-11779D01*
X22510Y-11855D01*
X22380Y-12141D01*
X22380Y-11772D01*
X22236Y-11423D01*
X21969Y-11155D01*
X21620Y-11010D01*
X21242Y-11010D01*
X20893Y-11154D01*
X20625Y-11421D01*
X20480Y-11770D01*
X20480Y-12148D01*
X20624Y-12497D01*
X20891Y-12765D01*
X21240Y-12910D01*
X21618Y-12910D01*
X21967Y-12766D01*
X22235Y-12499D01*
X22372Y-12167D01*
X22362Y-12488D01*
X22479Y-12798D01*
X22510Y-12845D01*
X22622Y-12921D01*
X23193Y-12350D01*
X23193Y-12364D01*
X22629Y-12928D01*
X22705Y-13040D01*
X23007Y-13177D01*
X23338Y-13188D01*
X23648Y-13071D01*
X23695Y-13040D01*
X23771Y-12928D01*
X23771Y-13810D01*
X23410Y-13660D01*
X22992Y-13660D01*
X22606Y-13820D01*
X22310Y-14115D01*
X22150Y-14500D01*
X22150Y-14918D01*
X22261Y-15188D01*
X20815Y-16635D01*
X16187Y-16635D01*
X16187Y-12119D01*
X16187Y-11802D01*
X16066Y-11509D01*
X15842Y-11285D01*
X15549Y-11163D01*
X15232Y-11163D01*
X14939Y-11284D01*
X14715Y-11508D01*
X14593Y-11801D01*
X14593Y-12118D01*
X14714Y-12411D01*
X14938Y-12635D01*
X15231Y-12757D01*
X15548Y-12757D01*
X15841Y-12636D01*
X16065Y-12412D01*
X16187Y-12119D01*
X16187Y-16635D01*
X15116Y-16635D01*
X15068Y-16518D01*
X14848Y-16297D01*
X14561Y-16178D01*
X14250Y-16178D01*
X14220Y-16178D01*
X14187Y-16191D01*
X14187Y-12119D01*
X14187Y-11802D01*
X14066Y-11509D01*
X13842Y-11285D01*
X13549Y-11163D01*
X13232Y-11163D01*
X12939Y-11284D01*
X12715Y-11508D01*
X12593Y-11801D01*
X12593Y-12118D01*
X12714Y-12411D01*
X12938Y-12635D01*
X13231Y-12757D01*
X13548Y-12757D01*
X13841Y-12636D01*
X14065Y-12412D01*
X14187Y-12119D01*
X14187Y-16191D01*
X13933Y-16297D01*
X13712Y-16517D01*
X13593Y-16804D01*
X13593Y-17115D01*
X13712Y-17402D01*
X13932Y-17623D01*
X14219Y-17742D01*
X14530Y-17742D01*
X14560Y-17742D01*
X14847Y-17623D01*
X15068Y-17403D01*
X15116Y-17285D01*
X20950Y-17285D01*
X21074Y-17260D01*
X21180Y-17190D01*
X22721Y-15648D01*
X22990Y-15760D01*
X23408Y-15760D01*
X23794Y-15600D01*
X24090Y-15305D01*
X24250Y-14920D01*
X24250Y-22475D01*
X24235Y-22439D01*
X24081Y-22285D01*
X23879Y-22201D01*
X23661Y-22201D01*
X23459Y-22285D01*
X23305Y-22439D01*
X23270Y-22523D01*
X23235Y-22439D01*
X23081Y-22285D01*
X22879Y-22201D01*
X22661Y-22201D01*
X22459Y-22285D01*
X22305Y-22439D01*
X22221Y-22641D01*
X22221Y-22859D01*
X22305Y-23061D01*
X22459Y-23215D01*
X22661Y-23299D01*
X22682Y-23299D01*
X23228Y-23845D01*
X23229Y-23845D01*
X23326Y-23910D01*
X23374Y-23942D01*
X23375Y-23943D01*
X23546Y-23976D01*
X23547Y-23977D01*
X25993Y-23977D01*
X26165Y-23943D01*
X26166Y-23943D01*
X26311Y-23845D01*
X26770Y-23386D01*
X27223Y-23840D01*
X27224Y-23840D01*
X27321Y-23905D01*
X27369Y-23937D01*
X27370Y-23938D01*
X27541Y-23971D01*
X27542Y-23972D01*
X35550Y-23972D01*
X38778Y-23972D01*
X38950Y-23938D01*
X38951Y-23938D01*
X39096Y-23840D01*
X39550Y-23386D01*
X39935Y-23772D01*
X39936Y-23772D01*
X40033Y-23837D01*
X40081Y-23869D01*
X40082Y-23870D01*
X40254Y-23904D01*
X43440Y-23904D01*
X47626Y-23904D01*
X47798Y-23870D01*
X47799Y-23870D01*
X47944Y-23772D01*
X48330Y-23386D01*
X48715Y-23772D01*
X48716Y-23772D01*
X48813Y-23837D01*
X48861Y-23869D01*
X48862Y-23870D01*
X49034Y-23904D01*
X51660Y-23904D01*
X51832Y-23870D01*
X51833Y-23870D01*
X51978Y-23772D01*
X52330Y-23420D01*
X53188Y-24278D01*
X53333Y-24376D01*
X53334Y-24376D01*
X53506Y-24410D01*
X59900Y-24410D01*
X60072Y-24376D01*
X60073Y-24376D01*
X60218Y-24278D01*
X61109Y-23386D01*
X61495Y-23772D01*
X61496Y-23772D01*
X61593Y-23837D01*
X61641Y-23869D01*
X61642Y-23870D01*
X61814Y-23904D01*
X64406Y-23904D01*
X64578Y-23870D01*
X64579Y-23870D01*
X64724Y-23772D01*
X65110Y-23386D01*
X65495Y-23772D01*
X65496Y-23772D01*
X65593Y-23837D01*
X65641Y-23869D01*
X65642Y-23870D01*
X65814Y-23904D01*
X67914Y-23904D01*
X73186Y-23904D01*
X73358Y-23870D01*
X73359Y-23870D01*
X73504Y-23772D01*
X73890Y-23386D01*
X74275Y-23772D01*
X74276Y-23772D01*
X74373Y-23837D01*
X74421Y-23869D01*
X74422Y-23870D01*
X74594Y-23904D01*
X77186Y-23904D01*
X77358Y-23870D01*
X77359Y-23870D01*
X77504Y-23772D01*
X77890Y-23386D01*
X78714Y-24211D01*
X78715Y-24211D01*
X78812Y-24276D01*
X78860Y-24308D01*
X78861Y-24309D01*
X79033Y-24343D01*
X86299Y-24343D01*
X86471Y-24309D01*
X86472Y-24309D01*
X86617Y-24211D01*
X86856Y-23972D01*
X89898Y-23972D01*
X90070Y-23938D01*
X90071Y-23938D01*
X90216Y-23840D01*
X90670Y-23386D01*
X91055Y-23772D01*
X91056Y-23772D01*
X91153Y-23837D01*
X91201Y-23869D01*
X91202Y-23870D01*
X91374Y-23904D01*
X94560Y-23904D01*
X98746Y-23904D01*
X98918Y-23870D01*
X98919Y-23870D01*
X99064Y-23772D01*
X99450Y-23386D01*
X99835Y-23772D01*
X99836Y-23772D01*
X99933Y-23837D01*
X99981Y-23869D01*
X99982Y-23870D01*
X100154Y-23904D01*
X102746Y-23904D01*
X102918Y-23870D01*
X102919Y-23870D01*
X103064Y-23772D01*
X103450Y-23386D01*
X104359Y-24296D01*
X104360Y-24296D01*
X104457Y-24361D01*
X104505Y-24393D01*
X104506Y-24394D01*
X104678Y-24428D01*
X111002Y-24428D01*
X111174Y-24394D01*
X111175Y-24394D01*
X111320Y-24296D01*
X112230Y-23386D01*
X112615Y-23772D01*
X112616Y-23772D01*
X112713Y-23837D01*
X112761Y-23869D01*
X112762Y-23870D01*
X112934Y-23904D01*
X115526Y-23904D01*
X115698Y-23870D01*
X115699Y-23870D01*
X115844Y-23772D01*
X116317Y-23299D01*
X116339Y-23299D01*
X116541Y-23215D01*
X116695Y-23061D01*
X116730Y-22976D01*
X116765Y-23061D01*
X116919Y-23215D01*
X117121Y-23299D01*
X117339Y-23299D01*
X117541Y-23215D01*
X117681Y-23075D01*
X117681Y-23099D01*
X117719Y-23191D01*
X117789Y-23261D01*
X117880Y-23299D01*
X117979Y-23299D01*
X118579Y-23299D01*
X118671Y-23261D01*
X118741Y-23191D01*
X118779Y-23100D01*
X118779Y-23001D01*
X118779Y-22401D01*
X118741Y-22309D01*
X118671Y-22239D01*
X118580Y-22201D01*
X118481Y-22201D01*
X117881Y-22201D01*
X117789Y-22239D01*
X117719Y-22309D01*
X117681Y-22400D01*
X117681Y-22425D01*
X117541Y-22285D01*
X117339Y-22201D01*
X117121Y-22201D01*
X116919Y-22285D01*
X116765Y-22439D01*
X116730Y-22523D01*
X116695Y-22439D01*
X116541Y-22285D01*
X116339Y-22201D01*
X116121Y-22201D01*
X115919Y-22285D01*
X115765Y-22439D01*
X115730Y-22523D01*
X115695Y-22439D01*
X115541Y-22285D01*
X115339Y-22201D01*
X115121Y-22201D01*
X114919Y-22285D01*
X114765Y-22439D01*
X114730Y-22523D01*
X114695Y-22439D01*
X114541Y-22285D01*
X114339Y-22201D01*
X114121Y-22201D01*
X113919Y-22285D01*
X113765Y-22439D01*
X113730Y-22523D01*
X113695Y-22439D01*
X113541Y-22285D01*
X113339Y-22201D01*
X113121Y-22201D01*
X112919Y-22285D01*
X112765Y-22439D01*
X112730Y-22523D01*
X112695Y-22439D01*
X112541Y-22285D01*
X112339Y-22201D01*
X112121Y-22201D01*
X111919Y-22285D01*
X111765Y-22439D01*
X111681Y-22641D01*
X111681Y-22662D01*
X111672Y-22670D01*
X111612Y-22511D01*
X111596Y-22490D01*
X111525Y-22462D01*
X111518Y-22469D01*
X111518Y-22455D01*
X111490Y-22384D01*
X111330Y-22312D01*
X111155Y-22306D01*
X110991Y-22368D01*
X110970Y-22384D01*
X110942Y-22455D01*
X111230Y-22743D01*
X111518Y-22455D01*
X111518Y-22469D01*
X111272Y-22715D01*
X111237Y-22750D01*
X111230Y-22757D01*
X111223Y-22764D01*
X111223Y-22750D01*
X110935Y-22462D01*
X110864Y-22490D01*
X110792Y-22650D01*
X110786Y-22825D01*
X110848Y-22989D01*
X110864Y-23010D01*
X110935Y-23038D01*
X111223Y-22750D01*
X111223Y-22764D01*
X111195Y-22792D01*
X110942Y-23045D01*
X110970Y-23116D01*
X111130Y-23188D01*
X111154Y-23188D01*
X110815Y-23528D01*
X105986Y-23528D01*
X106091Y-23459D01*
X110570Y-18980D01*
X110640Y-18875D01*
X110640Y-18874D01*
X110665Y-18750D01*
X110665Y-17419D01*
X110689Y-17419D01*
X110781Y-17381D01*
X110851Y-17311D01*
X110889Y-17220D01*
X110889Y-17195D01*
X116294Y-17195D01*
X116418Y-17170D01*
X116524Y-17100D01*
X119100Y-14524D01*
X119177Y-14524D01*
X119270Y-14617D01*
X119235Y-14616D01*
X119071Y-14678D01*
X119050Y-14694D01*
X119022Y-14765D01*
X119275Y-15018D01*
X119310Y-15053D01*
X119317Y-15060D01*
X119352Y-15095D01*
X119605Y-15348D01*
X119676Y-15320D01*
X119748Y-15160D01*
X119754Y-14985D01*
X119715Y-14884D01*
X119868Y-14884D01*
X119841Y-14951D01*
X119841Y-15169D01*
X119925Y-15371D01*
X120079Y-15525D01*
X120281Y-15609D01*
X120499Y-15609D01*
X120701Y-15525D01*
X120855Y-15371D01*
X120930Y-15190D01*
X121005Y-15371D01*
X121159Y-15525D01*
X121361Y-15609D01*
X121559Y-15609D01*
X121723Y-15772D01*
X121725Y-15775D01*
X121830Y-15844D01*
X121831Y-15845D01*
X121929Y-15864D01*
X121954Y-15870D01*
X121954Y-15869D01*
X121955Y-15870D01*
X123004Y-15870D01*
X123128Y-15845D01*
X123234Y-15775D01*
X123274Y-15733D01*
X123276Y-15732D01*
X123277Y-15732D01*
X123346Y-15627D01*
X123347Y-15626D01*
X123363Y-15543D01*
X123521Y-15609D01*
X123739Y-15609D01*
X123941Y-15525D01*
X124095Y-15371D01*
X124179Y-15169D01*
X124179Y-24675D01*
X119598Y-24675D01*
X119598Y-15355D01*
X119310Y-15067D01*
X119303Y-15074D01*
X119303Y-15060D01*
X119015Y-14772D01*
X118944Y-14800D01*
X118872Y-14960D01*
X118866Y-15135D01*
X118928Y-15299D01*
X118944Y-15320D01*
X119015Y-15348D01*
X119303Y-15060D01*
X119303Y-15074D01*
X119022Y-15355D01*
X119050Y-15426D01*
X119210Y-15498D01*
X119385Y-15504D01*
X119549Y-15442D01*
X119570Y-15426D01*
X119598Y-15355D01*
X119598Y-24675D01*
X22214Y-24675D01*
X22214Y-22675D01*
X22152Y-22511D01*
X22136Y-22490D01*
X22065Y-22462D01*
X22058Y-22469D01*
X22058Y-22455D01*
X22030Y-22384D01*
X21870Y-22312D01*
X21695Y-22306D01*
X21531Y-22368D01*
X21510Y-22384D01*
X21482Y-22455D01*
X21770Y-22743D01*
X22058Y-22455D01*
X22058Y-22469D01*
X21777Y-22750D01*
X22065Y-23038D01*
X22136Y-23010D01*
X22208Y-22850D01*
X22214Y-22675D01*
X22214Y-24675D01*
X22058Y-24675D01*
X22058Y-23045D01*
X21770Y-22757D01*
X21763Y-22764D01*
X21763Y-22750D01*
X21475Y-22462D01*
X21404Y-22490D01*
X21332Y-22650D01*
X21326Y-22825D01*
X21388Y-22989D01*
X21404Y-23010D01*
X21475Y-23038D01*
X21763Y-22750D01*
X21763Y-22764D01*
X21482Y-23045D01*
X21510Y-23116D01*
X21670Y-23188D01*
X21845Y-23194D01*
X22009Y-23132D01*
X22030Y-23116D01*
X22058Y-23045D01*
X22058Y-24675D01*
X15187Y-24675D01*
X15187Y-21116D01*
X15187Y-20805D01*
X15187Y-19116D01*
X15187Y-18805D01*
X15068Y-18518D01*
X14848Y-18297D01*
X14561Y-18178D01*
X14250Y-18178D01*
X14220Y-18178D01*
X13933Y-18297D01*
X13712Y-18517D01*
X13593Y-18804D01*
X13593Y-19115D01*
X13712Y-19402D01*
X13932Y-19623D01*
X14219Y-19742D01*
X14530Y-19742D01*
X14560Y-19742D01*
X14847Y-19623D01*
X15068Y-19403D01*
X15187Y-19116D01*
X15187Y-20805D01*
X15068Y-20518D01*
X14848Y-20297D01*
X14561Y-20178D01*
X14250Y-20178D01*
X14220Y-20178D01*
X13933Y-20297D01*
X13712Y-20517D01*
X13593Y-20804D01*
X13593Y-21115D01*
X13712Y-21402D01*
X13932Y-21623D01*
X14219Y-21742D01*
X14530Y-21742D01*
X14560Y-21742D01*
X14847Y-21623D01*
X15068Y-21403D01*
X15187Y-21116D01*
X15187Y-24675D01*
X10325Y-24675D01*
X10325Y-10325D01*
X129675Y-10325D01*
X129675Y-24675D01*
M02*
