G04 (created by PCBNEW-RS274X (2011-aug-04)-testing) date Wed 27 Feb 2013 02:16:23 PM PST*
G01*
G70*
G90*
%MOIN*%
G04 Gerber Fmt 3.4, Leading zero omitted, Abs format*
%FSLAX34Y34*%
G04 APERTURE LIST*
%ADD10C,0.006000*%
%ADD11C,0.010000*%
%ADD12C,0.015000*%
%ADD13C,0.012000*%
%ADD14C,0.008000*%
%ADD15C,0.032000*%
%ADD16C,0.005000*%
G04 APERTURE END LIST*
G54D10*
G54D11*
X11283Y-21862D02*
X10583Y-21862D01*
X10583Y-21671D01*
X10617Y-21624D01*
X10650Y-21600D01*
X10717Y-21576D01*
X10817Y-21576D01*
X10883Y-21600D01*
X10917Y-21624D01*
X10950Y-21671D01*
X10950Y-21862D01*
X11283Y-21291D02*
X11250Y-21338D01*
X11183Y-21362D01*
X10583Y-21362D01*
X11283Y-20886D02*
X10917Y-20886D01*
X10850Y-20909D01*
X10817Y-20957D01*
X10817Y-21052D01*
X10850Y-21100D01*
X11250Y-20886D02*
X11283Y-20933D01*
X11283Y-21052D01*
X11250Y-21100D01*
X11183Y-21124D01*
X11117Y-21124D01*
X11050Y-21100D01*
X11017Y-21052D01*
X11017Y-20933D01*
X10983Y-20886D01*
X10817Y-20648D02*
X11283Y-20648D01*
X10883Y-20648D02*
X10850Y-20624D01*
X10817Y-20577D01*
X10817Y-20505D01*
X10850Y-20457D01*
X10917Y-20434D01*
X11283Y-20434D01*
X11283Y-19982D02*
X10917Y-19982D01*
X10850Y-20005D01*
X10817Y-20053D01*
X10817Y-20148D01*
X10850Y-20196D01*
X11250Y-19982D02*
X11283Y-20029D01*
X11283Y-20148D01*
X11250Y-20196D01*
X11183Y-20220D01*
X11117Y-20220D01*
X11050Y-20196D01*
X11017Y-20148D01*
X11017Y-20029D01*
X10983Y-19982D01*
X11283Y-19744D02*
X10817Y-19744D01*
X10950Y-19744D02*
X10883Y-19720D01*
X10850Y-19696D01*
X10817Y-19649D01*
X10817Y-19601D01*
X11283Y-19053D02*
X10583Y-19053D01*
X10583Y-18862D01*
X10617Y-18815D01*
X10650Y-18791D01*
X10717Y-18767D01*
X10817Y-18767D01*
X10883Y-18791D01*
X10917Y-18815D01*
X10950Y-18862D01*
X10950Y-19053D01*
X11283Y-18339D02*
X10917Y-18339D01*
X10850Y-18362D01*
X10817Y-18410D01*
X10817Y-18505D01*
X10850Y-18553D01*
X11250Y-18339D02*
X11283Y-18386D01*
X11283Y-18505D01*
X11250Y-18553D01*
X11183Y-18577D01*
X11117Y-18577D01*
X11050Y-18553D01*
X11017Y-18505D01*
X11017Y-18386D01*
X10983Y-18339D01*
X10817Y-18101D02*
X11283Y-18101D01*
X10883Y-18101D02*
X10850Y-18077D01*
X10817Y-18030D01*
X10817Y-17958D01*
X10850Y-17910D01*
X10917Y-17887D01*
X11283Y-17887D01*
X11250Y-17458D02*
X11283Y-17506D01*
X11283Y-17601D01*
X11250Y-17649D01*
X11183Y-17673D01*
X10917Y-17673D01*
X10850Y-17649D01*
X10817Y-17601D01*
X10817Y-17506D01*
X10850Y-17458D01*
X10917Y-17435D01*
X10983Y-17435D01*
X11050Y-17673D01*
X11283Y-17149D02*
X11250Y-17196D01*
X11183Y-17220D01*
X10583Y-17220D01*
X11250Y-16982D02*
X11283Y-16934D01*
X11283Y-16839D01*
X11250Y-16791D01*
X11183Y-16767D01*
X11150Y-16767D01*
X11083Y-16791D01*
X11050Y-16839D01*
X11050Y-16910D01*
X11017Y-16958D01*
X10950Y-16982D01*
X10917Y-16982D01*
X10850Y-16958D01*
X10817Y-16910D01*
X10817Y-16839D01*
X10850Y-16791D01*
X11083Y-16196D02*
X11083Y-15958D01*
X11283Y-16243D02*
X10583Y-16077D01*
X11283Y-15910D01*
X11283Y-15743D02*
X10817Y-15743D01*
X10950Y-15743D02*
X10883Y-15719D01*
X10850Y-15695D01*
X10817Y-15648D01*
X10817Y-15600D01*
X11250Y-15242D02*
X11283Y-15290D01*
X11283Y-15385D01*
X11250Y-15433D01*
X11183Y-15457D01*
X10917Y-15457D01*
X10850Y-15433D01*
X10817Y-15385D01*
X10817Y-15290D01*
X10850Y-15242D01*
X10917Y-15219D01*
X10983Y-15219D01*
X11050Y-15457D01*
X10817Y-15004D02*
X11283Y-15004D01*
X10883Y-15004D02*
X10850Y-14980D01*
X10817Y-14933D01*
X10817Y-14861D01*
X10850Y-14813D01*
X10917Y-14790D01*
X11283Y-14790D01*
X11283Y-14338D02*
X10917Y-14338D01*
X10850Y-14361D01*
X10817Y-14409D01*
X10817Y-14504D01*
X10850Y-14552D01*
X11250Y-14338D02*
X11283Y-14385D01*
X11283Y-14504D01*
X11250Y-14552D01*
X11183Y-14576D01*
X11117Y-14576D01*
X11050Y-14552D01*
X11017Y-14504D01*
X11017Y-14385D01*
X10983Y-14338D01*
X10583Y-13790D02*
X11283Y-13624D01*
X10583Y-13457D01*
X11283Y-13028D02*
X11283Y-13314D01*
X11283Y-13171D02*
X10583Y-13171D01*
X10683Y-13219D01*
X10750Y-13266D01*
X10783Y-13314D01*
X11217Y-12814D02*
X11250Y-12790D01*
X11283Y-12814D01*
X11250Y-12838D01*
X11217Y-12814D01*
X11283Y-12814D01*
X10583Y-12481D02*
X10583Y-12433D01*
X10617Y-12385D01*
X10650Y-12362D01*
X10717Y-12338D01*
X10850Y-12314D01*
X11017Y-12314D01*
X11150Y-12338D01*
X11217Y-12362D01*
X11250Y-12385D01*
X11283Y-12433D01*
X11283Y-12481D01*
X11250Y-12528D01*
X11217Y-12552D01*
X11150Y-12576D01*
X11017Y-12600D01*
X10850Y-12600D01*
X10717Y-12576D01*
X10650Y-12552D01*
X10617Y-12528D01*
X10583Y-12481D01*
X12363Y-19564D02*
X11663Y-19564D01*
X11663Y-19231D02*
X11663Y-19135D01*
X11697Y-19088D01*
X11763Y-19040D01*
X11897Y-19016D01*
X12130Y-19016D01*
X12263Y-19040D01*
X12330Y-19088D01*
X12363Y-19135D01*
X12363Y-19231D01*
X12330Y-19278D01*
X12263Y-19326D01*
X12130Y-19350D01*
X11897Y-19350D01*
X11763Y-19326D01*
X11697Y-19278D01*
X11663Y-19231D01*
X12363Y-18135D02*
X12030Y-18302D01*
X12363Y-18421D02*
X11663Y-18421D01*
X11663Y-18230D01*
X11697Y-18183D01*
X11730Y-18159D01*
X11797Y-18135D01*
X11897Y-18135D01*
X11963Y-18159D01*
X11997Y-18183D01*
X12030Y-18230D01*
X12030Y-18421D01*
X12363Y-17850D02*
X12330Y-17897D01*
X12297Y-17921D01*
X12230Y-17945D01*
X12030Y-17945D01*
X11963Y-17921D01*
X11930Y-17897D01*
X11897Y-17850D01*
X11897Y-17778D01*
X11930Y-17730D01*
X11963Y-17707D01*
X12030Y-17683D01*
X12230Y-17683D01*
X12297Y-17707D01*
X12330Y-17730D01*
X12363Y-17778D01*
X12363Y-17850D01*
X12363Y-17255D02*
X11663Y-17255D01*
X12330Y-17255D02*
X12363Y-17302D01*
X12363Y-17398D01*
X12330Y-17445D01*
X12297Y-17469D01*
X12230Y-17493D01*
X12030Y-17493D01*
X11963Y-17469D01*
X11930Y-17445D01*
X11897Y-17398D01*
X11897Y-17302D01*
X11930Y-17255D01*
X12330Y-16826D02*
X12363Y-16874D01*
X12363Y-16969D01*
X12330Y-17017D01*
X12263Y-17041D01*
X11997Y-17041D01*
X11930Y-17017D01*
X11897Y-16969D01*
X11897Y-16874D01*
X11930Y-16826D01*
X11997Y-16803D01*
X12063Y-16803D01*
X12130Y-17041D01*
X12363Y-16517D02*
X12330Y-16564D01*
X12297Y-16588D01*
X12230Y-16612D01*
X12030Y-16612D01*
X11963Y-16588D01*
X11930Y-16564D01*
X11897Y-16517D01*
X11897Y-16445D01*
X11930Y-16397D01*
X11963Y-16374D01*
X12030Y-16350D01*
X12230Y-16350D01*
X12297Y-16374D01*
X12330Y-16397D01*
X12363Y-16445D01*
X12363Y-16517D01*
X12363Y-15755D02*
X11663Y-15755D01*
X11897Y-15517D02*
X12363Y-15517D01*
X11963Y-15517D02*
X11930Y-15493D01*
X11897Y-15446D01*
X11897Y-15374D01*
X11930Y-15326D01*
X11997Y-15303D01*
X12363Y-15303D01*
X12330Y-14851D02*
X12363Y-14898D01*
X12363Y-14994D01*
X12330Y-15041D01*
X12297Y-15065D01*
X12230Y-15089D01*
X12030Y-15089D01*
X11963Y-15065D01*
X11930Y-15041D01*
X11897Y-14994D01*
X11897Y-14898D01*
X11930Y-14851D01*
X12297Y-14636D02*
X12330Y-14612D01*
X12363Y-14636D01*
X12330Y-14660D01*
X12297Y-14636D01*
X12363Y-14636D01*
X22329Y-16283D02*
X22091Y-16283D01*
X22067Y-16617D01*
X22091Y-16583D01*
X22139Y-16550D01*
X22258Y-16550D01*
X22305Y-16583D01*
X22329Y-16617D01*
X22353Y-16683D01*
X22353Y-16850D01*
X22329Y-16917D01*
X22305Y-16950D01*
X22258Y-16983D01*
X22139Y-16983D01*
X22091Y-16950D01*
X22067Y-16917D01*
X22496Y-16283D02*
X22662Y-16983D01*
X22829Y-16283D01*
X23377Y-16983D02*
X23377Y-16283D01*
X23568Y-16283D01*
X23615Y-16317D01*
X23639Y-16350D01*
X23663Y-16417D01*
X23663Y-16517D01*
X23639Y-16583D01*
X23615Y-16617D01*
X23568Y-16650D01*
X23377Y-16650D01*
X23829Y-16283D02*
X23948Y-16983D01*
X24044Y-16483D01*
X24139Y-16983D01*
X24258Y-16283D01*
X24734Y-16983D02*
X24567Y-16650D01*
X24448Y-16983D02*
X24448Y-16283D01*
X24639Y-16283D01*
X24686Y-16317D01*
X24710Y-16350D01*
X24734Y-16417D01*
X24734Y-16517D01*
X24710Y-16583D01*
X24686Y-16617D01*
X24639Y-16650D01*
X24448Y-16650D01*
X109193Y-13050D02*
X109265Y-13083D01*
X109384Y-13083D01*
X109431Y-13050D01*
X109455Y-13017D01*
X109479Y-12950D01*
X109479Y-12883D01*
X109455Y-12817D01*
X109431Y-12783D01*
X109384Y-12750D01*
X109288Y-12717D01*
X109241Y-12683D01*
X109217Y-12650D01*
X109193Y-12583D01*
X109193Y-12517D01*
X109217Y-12450D01*
X109241Y-12417D01*
X109288Y-12383D01*
X109408Y-12383D01*
X109479Y-12417D01*
X109693Y-13083D02*
X109693Y-12383D01*
X109812Y-12383D01*
X109884Y-12417D01*
X109931Y-12483D01*
X109955Y-12550D01*
X109979Y-12683D01*
X109979Y-12783D01*
X109955Y-12917D01*
X109931Y-12983D01*
X109884Y-13050D01*
X109812Y-13083D01*
X109693Y-13083D01*
X110169Y-12883D02*
X110407Y-12883D01*
X110122Y-13083D02*
X110288Y-12383D01*
X110455Y-13083D01*
X106305Y-13030D02*
X106377Y-13063D01*
X106496Y-13063D01*
X106543Y-13030D01*
X106567Y-12997D01*
X106591Y-12930D01*
X106591Y-12863D01*
X106567Y-12797D01*
X106543Y-12763D01*
X106496Y-12730D01*
X106400Y-12697D01*
X106353Y-12663D01*
X106329Y-12630D01*
X106305Y-12563D01*
X106305Y-12497D01*
X106329Y-12430D01*
X106353Y-12397D01*
X106400Y-12363D01*
X106520Y-12363D01*
X106591Y-12397D01*
X107091Y-12997D02*
X107067Y-13030D01*
X106996Y-13063D01*
X106948Y-13063D01*
X106876Y-13030D01*
X106829Y-12963D01*
X106805Y-12897D01*
X106781Y-12763D01*
X106781Y-12663D01*
X106805Y-12530D01*
X106829Y-12463D01*
X106876Y-12397D01*
X106948Y-12363D01*
X106996Y-12363D01*
X107067Y-12397D01*
X107091Y-12430D01*
X107543Y-13063D02*
X107305Y-13063D01*
X107305Y-12363D01*
X83593Y-13050D02*
X83665Y-13083D01*
X83784Y-13083D01*
X83831Y-13050D01*
X83855Y-13017D01*
X83879Y-12950D01*
X83879Y-12883D01*
X83855Y-12817D01*
X83831Y-12783D01*
X83784Y-12750D01*
X83688Y-12717D01*
X83641Y-12683D01*
X83617Y-12650D01*
X83593Y-12583D01*
X83593Y-12517D01*
X83617Y-12450D01*
X83641Y-12417D01*
X83688Y-12383D01*
X83808Y-12383D01*
X83879Y-12417D01*
X84093Y-13083D02*
X84093Y-12383D01*
X84212Y-12383D01*
X84284Y-12417D01*
X84331Y-12483D01*
X84355Y-12550D01*
X84379Y-12683D01*
X84379Y-12783D01*
X84355Y-12917D01*
X84331Y-12983D01*
X84284Y-13050D01*
X84212Y-13083D01*
X84093Y-13083D01*
X84569Y-12883D02*
X84807Y-12883D01*
X84522Y-13083D02*
X84688Y-12383D01*
X84855Y-13083D01*
X80705Y-13030D02*
X80777Y-13063D01*
X80896Y-13063D01*
X80943Y-13030D01*
X80967Y-12997D01*
X80991Y-12930D01*
X80991Y-12863D01*
X80967Y-12797D01*
X80943Y-12763D01*
X80896Y-12730D01*
X80800Y-12697D01*
X80753Y-12663D01*
X80729Y-12630D01*
X80705Y-12563D01*
X80705Y-12497D01*
X80729Y-12430D01*
X80753Y-12397D01*
X80800Y-12363D01*
X80920Y-12363D01*
X80991Y-12397D01*
X81491Y-12997D02*
X81467Y-13030D01*
X81396Y-13063D01*
X81348Y-13063D01*
X81276Y-13030D01*
X81229Y-12963D01*
X81205Y-12897D01*
X81181Y-12763D01*
X81181Y-12663D01*
X81205Y-12530D01*
X81229Y-12463D01*
X81276Y-12397D01*
X81348Y-12363D01*
X81396Y-12363D01*
X81467Y-12397D01*
X81491Y-12430D01*
X81943Y-13063D02*
X81705Y-13063D01*
X81705Y-12363D01*
X58093Y-13050D02*
X58165Y-13083D01*
X58284Y-13083D01*
X58331Y-13050D01*
X58355Y-13017D01*
X58379Y-12950D01*
X58379Y-12883D01*
X58355Y-12817D01*
X58331Y-12783D01*
X58284Y-12750D01*
X58188Y-12717D01*
X58141Y-12683D01*
X58117Y-12650D01*
X58093Y-12583D01*
X58093Y-12517D01*
X58117Y-12450D01*
X58141Y-12417D01*
X58188Y-12383D01*
X58308Y-12383D01*
X58379Y-12417D01*
X58593Y-13083D02*
X58593Y-12383D01*
X58712Y-12383D01*
X58784Y-12417D01*
X58831Y-12483D01*
X58855Y-12550D01*
X58879Y-12683D01*
X58879Y-12783D01*
X58855Y-12917D01*
X58831Y-12983D01*
X58784Y-13050D01*
X58712Y-13083D01*
X58593Y-13083D01*
X59069Y-12883D02*
X59307Y-12883D01*
X59022Y-13083D02*
X59188Y-12383D01*
X59355Y-13083D01*
X55105Y-13030D02*
X55177Y-13063D01*
X55296Y-13063D01*
X55343Y-13030D01*
X55367Y-12997D01*
X55391Y-12930D01*
X55391Y-12863D01*
X55367Y-12797D01*
X55343Y-12763D01*
X55296Y-12730D01*
X55200Y-12697D01*
X55153Y-12663D01*
X55129Y-12630D01*
X55105Y-12563D01*
X55105Y-12497D01*
X55129Y-12430D01*
X55153Y-12397D01*
X55200Y-12363D01*
X55320Y-12363D01*
X55391Y-12397D01*
X55891Y-12997D02*
X55867Y-13030D01*
X55796Y-13063D01*
X55748Y-13063D01*
X55676Y-13030D01*
X55629Y-12963D01*
X55605Y-12897D01*
X55581Y-12763D01*
X55581Y-12663D01*
X55605Y-12530D01*
X55629Y-12463D01*
X55676Y-12397D01*
X55748Y-12363D01*
X55796Y-12363D01*
X55867Y-12397D01*
X55891Y-12430D01*
X56343Y-13063D02*
X56105Y-13063D01*
X56105Y-12363D01*
X32493Y-13050D02*
X32565Y-13083D01*
X32684Y-13083D01*
X32731Y-13050D01*
X32755Y-13017D01*
X32779Y-12950D01*
X32779Y-12883D01*
X32755Y-12817D01*
X32731Y-12783D01*
X32684Y-12750D01*
X32588Y-12717D01*
X32541Y-12683D01*
X32517Y-12650D01*
X32493Y-12583D01*
X32493Y-12517D01*
X32517Y-12450D01*
X32541Y-12417D01*
X32588Y-12383D01*
X32708Y-12383D01*
X32779Y-12417D01*
X32993Y-13083D02*
X32993Y-12383D01*
X33112Y-12383D01*
X33184Y-12417D01*
X33231Y-12483D01*
X33255Y-12550D01*
X33279Y-12683D01*
X33279Y-12783D01*
X33255Y-12917D01*
X33231Y-12983D01*
X33184Y-13050D01*
X33112Y-13083D01*
X32993Y-13083D01*
X33469Y-12883D02*
X33707Y-12883D01*
X33422Y-13083D02*
X33588Y-12383D01*
X33755Y-13083D01*
X29605Y-13030D02*
X29677Y-13063D01*
X29796Y-13063D01*
X29843Y-13030D01*
X29867Y-12997D01*
X29891Y-12930D01*
X29891Y-12863D01*
X29867Y-12797D01*
X29843Y-12763D01*
X29796Y-12730D01*
X29700Y-12697D01*
X29653Y-12663D01*
X29629Y-12630D01*
X29605Y-12563D01*
X29605Y-12497D01*
X29629Y-12430D01*
X29653Y-12397D01*
X29700Y-12363D01*
X29820Y-12363D01*
X29891Y-12397D01*
X30391Y-12997D02*
X30367Y-13030D01*
X30296Y-13063D01*
X30248Y-13063D01*
X30176Y-13030D01*
X30129Y-12963D01*
X30105Y-12897D01*
X30081Y-12763D01*
X30081Y-12663D01*
X30105Y-12530D01*
X30129Y-12463D01*
X30176Y-12397D01*
X30248Y-12363D01*
X30296Y-12363D01*
X30367Y-12397D01*
X30391Y-12430D01*
X30843Y-13063D02*
X30605Y-13063D01*
X30605Y-12363D01*
X105233Y-13543D02*
X105543Y-13543D01*
X105376Y-13771D01*
X105448Y-13771D01*
X105495Y-13800D01*
X105519Y-13829D01*
X105543Y-13886D01*
X105543Y-14029D01*
X105519Y-14086D01*
X105495Y-14114D01*
X105448Y-14143D01*
X105305Y-14143D01*
X105257Y-14114D01*
X105233Y-14086D01*
X105257Y-14600D02*
X105281Y-14571D01*
X105329Y-14543D01*
X105448Y-14543D01*
X105495Y-14571D01*
X105519Y-14600D01*
X105543Y-14657D01*
X105543Y-14714D01*
X105519Y-14800D01*
X105233Y-15143D01*
X105543Y-15143D01*
X105543Y-16243D02*
X105257Y-16243D01*
X105400Y-16243D02*
X105400Y-15643D01*
X105352Y-15729D01*
X105305Y-15786D01*
X105257Y-15814D01*
X105376Y-16643D02*
X105424Y-16643D01*
X105472Y-16671D01*
X105495Y-16700D01*
X105519Y-16757D01*
X105543Y-16871D01*
X105543Y-17014D01*
X105519Y-17129D01*
X105495Y-17186D01*
X105472Y-17214D01*
X105424Y-17243D01*
X105376Y-17243D01*
X105329Y-17214D01*
X105305Y-17186D01*
X105281Y-17129D01*
X105257Y-17014D01*
X105257Y-16871D01*
X105281Y-16757D01*
X105305Y-16700D01*
X105329Y-16671D01*
X105376Y-16643D01*
X79776Y-16643D02*
X79824Y-16643D01*
X79872Y-16671D01*
X79895Y-16700D01*
X79919Y-16757D01*
X79943Y-16871D01*
X79943Y-17014D01*
X79919Y-17129D01*
X79895Y-17186D01*
X79872Y-17214D01*
X79824Y-17243D01*
X79776Y-17243D01*
X79729Y-17214D01*
X79705Y-17186D01*
X79681Y-17129D01*
X79657Y-17014D01*
X79657Y-16871D01*
X79681Y-16757D01*
X79705Y-16700D01*
X79729Y-16671D01*
X79776Y-16643D01*
X79943Y-16243D02*
X79657Y-16243D01*
X79800Y-16243D02*
X79800Y-15643D01*
X79752Y-15729D01*
X79705Y-15786D01*
X79657Y-15814D01*
X79657Y-14600D02*
X79681Y-14571D01*
X79729Y-14543D01*
X79848Y-14543D01*
X79895Y-14571D01*
X79919Y-14600D01*
X79943Y-14657D01*
X79943Y-14714D01*
X79919Y-14800D01*
X79633Y-15143D01*
X79943Y-15143D01*
X79633Y-13543D02*
X79943Y-13543D01*
X79776Y-13771D01*
X79848Y-13771D01*
X79895Y-13800D01*
X79919Y-13829D01*
X79943Y-13886D01*
X79943Y-14029D01*
X79919Y-14086D01*
X79895Y-14114D01*
X79848Y-14143D01*
X79705Y-14143D01*
X79657Y-14114D01*
X79633Y-14086D01*
X54133Y-13543D02*
X54443Y-13543D01*
X54276Y-13771D01*
X54348Y-13771D01*
X54395Y-13800D01*
X54419Y-13829D01*
X54443Y-13886D01*
X54443Y-14029D01*
X54419Y-14086D01*
X54395Y-14114D01*
X54348Y-14143D01*
X54205Y-14143D01*
X54157Y-14114D01*
X54133Y-14086D01*
X54157Y-14600D02*
X54181Y-14571D01*
X54229Y-14543D01*
X54348Y-14543D01*
X54395Y-14571D01*
X54419Y-14600D01*
X54443Y-14657D01*
X54443Y-14714D01*
X54419Y-14800D01*
X54133Y-15143D01*
X54443Y-15143D01*
X54443Y-16243D02*
X54157Y-16243D01*
X54300Y-16243D02*
X54300Y-15643D01*
X54252Y-15729D01*
X54205Y-15786D01*
X54157Y-15814D01*
X54276Y-16643D02*
X54324Y-16643D01*
X54372Y-16671D01*
X54395Y-16700D01*
X54419Y-16757D01*
X54443Y-16871D01*
X54443Y-17014D01*
X54419Y-17129D01*
X54395Y-17186D01*
X54372Y-17214D01*
X54324Y-17243D01*
X54276Y-17243D01*
X54229Y-17214D01*
X54205Y-17186D01*
X54181Y-17129D01*
X54157Y-17014D01*
X54157Y-16871D01*
X54181Y-16757D01*
X54205Y-16700D01*
X54229Y-16671D01*
X54276Y-16643D01*
X28676Y-16643D02*
X28724Y-16643D01*
X28772Y-16671D01*
X28795Y-16700D01*
X28819Y-16757D01*
X28843Y-16871D01*
X28843Y-17014D01*
X28819Y-17129D01*
X28795Y-17186D01*
X28772Y-17214D01*
X28724Y-17243D01*
X28676Y-17243D01*
X28629Y-17214D01*
X28605Y-17186D01*
X28581Y-17129D01*
X28557Y-17014D01*
X28557Y-16871D01*
X28581Y-16757D01*
X28605Y-16700D01*
X28629Y-16671D01*
X28676Y-16643D01*
X28843Y-16243D02*
X28557Y-16243D01*
X28700Y-16243D02*
X28700Y-15643D01*
X28652Y-15729D01*
X28605Y-15786D01*
X28557Y-15814D01*
X28557Y-14600D02*
X28581Y-14571D01*
X28629Y-14543D01*
X28748Y-14543D01*
X28795Y-14571D01*
X28819Y-14600D01*
X28843Y-14657D01*
X28843Y-14714D01*
X28819Y-14800D01*
X28533Y-15143D01*
X28843Y-15143D01*
X28533Y-13543D02*
X28843Y-13543D01*
X28676Y-13771D01*
X28748Y-13771D01*
X28795Y-13800D01*
X28819Y-13829D01*
X28843Y-13886D01*
X28843Y-14029D01*
X28819Y-14086D01*
X28795Y-14114D01*
X28748Y-14143D01*
X28605Y-14143D01*
X28557Y-14114D01*
X28533Y-14086D01*
X106763Y-18167D02*
X106834Y-18200D01*
X106858Y-18233D01*
X106882Y-18300D01*
X106882Y-18400D01*
X106858Y-18467D01*
X106834Y-18500D01*
X106787Y-18533D01*
X106596Y-18533D01*
X106596Y-17833D01*
X106763Y-17833D01*
X106810Y-17867D01*
X106834Y-17900D01*
X106858Y-17967D01*
X106858Y-18033D01*
X106834Y-18100D01*
X106810Y-18133D01*
X106763Y-18167D01*
X106596Y-18167D01*
X107096Y-17833D02*
X107096Y-18400D01*
X107120Y-18467D01*
X107144Y-18500D01*
X107191Y-18533D01*
X107287Y-18533D01*
X107334Y-18500D01*
X107358Y-18467D01*
X107382Y-18400D01*
X107382Y-17833D01*
X107596Y-18500D02*
X107668Y-18533D01*
X107787Y-18533D01*
X107834Y-18500D01*
X107858Y-18467D01*
X107882Y-18400D01*
X107882Y-18333D01*
X107858Y-18267D01*
X107834Y-18233D01*
X107787Y-18200D01*
X107691Y-18167D01*
X107644Y-18133D01*
X107620Y-18100D01*
X107596Y-18033D01*
X107596Y-17967D01*
X107620Y-17900D01*
X107644Y-17867D01*
X107691Y-17833D01*
X107811Y-17833D01*
X107882Y-17867D01*
X108453Y-18500D02*
X108525Y-18533D01*
X108644Y-18533D01*
X108691Y-18500D01*
X108715Y-18467D01*
X108739Y-18400D01*
X108739Y-18333D01*
X108715Y-18267D01*
X108691Y-18233D01*
X108644Y-18200D01*
X108548Y-18167D01*
X108501Y-18133D01*
X108477Y-18100D01*
X108453Y-18033D01*
X108453Y-17967D01*
X108477Y-17900D01*
X108501Y-17867D01*
X108548Y-17833D01*
X108668Y-17833D01*
X108739Y-17867D01*
X108953Y-18167D02*
X109120Y-18167D01*
X109191Y-18533D02*
X108953Y-18533D01*
X108953Y-17833D01*
X109191Y-17833D01*
X109643Y-18533D02*
X109405Y-18533D01*
X109405Y-17833D01*
X109810Y-18167D02*
X109977Y-18167D01*
X110048Y-18533D02*
X109810Y-18533D01*
X109810Y-17833D01*
X110048Y-17833D01*
X110548Y-18467D02*
X110524Y-18500D01*
X110453Y-18533D01*
X110405Y-18533D01*
X110333Y-18500D01*
X110286Y-18433D01*
X110262Y-18367D01*
X110238Y-18233D01*
X110238Y-18133D01*
X110262Y-18000D01*
X110286Y-17933D01*
X110333Y-17867D01*
X110405Y-17833D01*
X110453Y-17833D01*
X110524Y-17867D01*
X110548Y-17900D01*
X110691Y-17833D02*
X110976Y-17833D01*
X110833Y-18533D02*
X110833Y-17833D01*
X81013Y-18167D02*
X81084Y-18200D01*
X81108Y-18233D01*
X81132Y-18300D01*
X81132Y-18400D01*
X81108Y-18467D01*
X81084Y-18500D01*
X81037Y-18533D01*
X80846Y-18533D01*
X80846Y-17833D01*
X81013Y-17833D01*
X81060Y-17867D01*
X81084Y-17900D01*
X81108Y-17967D01*
X81108Y-18033D01*
X81084Y-18100D01*
X81060Y-18133D01*
X81013Y-18167D01*
X80846Y-18167D01*
X81346Y-17833D02*
X81346Y-18400D01*
X81370Y-18467D01*
X81394Y-18500D01*
X81441Y-18533D01*
X81537Y-18533D01*
X81584Y-18500D01*
X81608Y-18467D01*
X81632Y-18400D01*
X81632Y-17833D01*
X81846Y-18500D02*
X81918Y-18533D01*
X82037Y-18533D01*
X82084Y-18500D01*
X82108Y-18467D01*
X82132Y-18400D01*
X82132Y-18333D01*
X82108Y-18267D01*
X82084Y-18233D01*
X82037Y-18200D01*
X81941Y-18167D01*
X81894Y-18133D01*
X81870Y-18100D01*
X81846Y-18033D01*
X81846Y-17967D01*
X81870Y-17900D01*
X81894Y-17867D01*
X81941Y-17833D01*
X82061Y-17833D01*
X82132Y-17867D01*
X82703Y-18500D02*
X82775Y-18533D01*
X82894Y-18533D01*
X82941Y-18500D01*
X82965Y-18467D01*
X82989Y-18400D01*
X82989Y-18333D01*
X82965Y-18267D01*
X82941Y-18233D01*
X82894Y-18200D01*
X82798Y-18167D01*
X82751Y-18133D01*
X82727Y-18100D01*
X82703Y-18033D01*
X82703Y-17967D01*
X82727Y-17900D01*
X82751Y-17867D01*
X82798Y-17833D01*
X82918Y-17833D01*
X82989Y-17867D01*
X83203Y-18167D02*
X83370Y-18167D01*
X83441Y-18533D02*
X83203Y-18533D01*
X83203Y-17833D01*
X83441Y-17833D01*
X83893Y-18533D02*
X83655Y-18533D01*
X83655Y-17833D01*
X84060Y-18167D02*
X84227Y-18167D01*
X84298Y-18533D02*
X84060Y-18533D01*
X84060Y-17833D01*
X84298Y-17833D01*
X84798Y-18467D02*
X84774Y-18500D01*
X84703Y-18533D01*
X84655Y-18533D01*
X84583Y-18500D01*
X84536Y-18433D01*
X84512Y-18367D01*
X84488Y-18233D01*
X84488Y-18133D01*
X84512Y-18000D01*
X84536Y-17933D01*
X84583Y-17867D01*
X84655Y-17833D01*
X84703Y-17833D01*
X84774Y-17867D01*
X84798Y-17900D01*
X84941Y-17833D02*
X85226Y-17833D01*
X85083Y-18533D02*
X85083Y-17833D01*
X55513Y-18167D02*
X55584Y-18200D01*
X55608Y-18233D01*
X55632Y-18300D01*
X55632Y-18400D01*
X55608Y-18467D01*
X55584Y-18500D01*
X55537Y-18533D01*
X55346Y-18533D01*
X55346Y-17833D01*
X55513Y-17833D01*
X55560Y-17867D01*
X55584Y-17900D01*
X55608Y-17967D01*
X55608Y-18033D01*
X55584Y-18100D01*
X55560Y-18133D01*
X55513Y-18167D01*
X55346Y-18167D01*
X55846Y-17833D02*
X55846Y-18400D01*
X55870Y-18467D01*
X55894Y-18500D01*
X55941Y-18533D01*
X56037Y-18533D01*
X56084Y-18500D01*
X56108Y-18467D01*
X56132Y-18400D01*
X56132Y-17833D01*
X56346Y-18500D02*
X56418Y-18533D01*
X56537Y-18533D01*
X56584Y-18500D01*
X56608Y-18467D01*
X56632Y-18400D01*
X56632Y-18333D01*
X56608Y-18267D01*
X56584Y-18233D01*
X56537Y-18200D01*
X56441Y-18167D01*
X56394Y-18133D01*
X56370Y-18100D01*
X56346Y-18033D01*
X56346Y-17967D01*
X56370Y-17900D01*
X56394Y-17867D01*
X56441Y-17833D01*
X56561Y-17833D01*
X56632Y-17867D01*
X57203Y-18500D02*
X57275Y-18533D01*
X57394Y-18533D01*
X57441Y-18500D01*
X57465Y-18467D01*
X57489Y-18400D01*
X57489Y-18333D01*
X57465Y-18267D01*
X57441Y-18233D01*
X57394Y-18200D01*
X57298Y-18167D01*
X57251Y-18133D01*
X57227Y-18100D01*
X57203Y-18033D01*
X57203Y-17967D01*
X57227Y-17900D01*
X57251Y-17867D01*
X57298Y-17833D01*
X57418Y-17833D01*
X57489Y-17867D01*
X57703Y-18167D02*
X57870Y-18167D01*
X57941Y-18533D02*
X57703Y-18533D01*
X57703Y-17833D01*
X57941Y-17833D01*
X58393Y-18533D02*
X58155Y-18533D01*
X58155Y-17833D01*
X58560Y-18167D02*
X58727Y-18167D01*
X58798Y-18533D02*
X58560Y-18533D01*
X58560Y-17833D01*
X58798Y-17833D01*
X59298Y-18467D02*
X59274Y-18500D01*
X59203Y-18533D01*
X59155Y-18533D01*
X59083Y-18500D01*
X59036Y-18433D01*
X59012Y-18367D01*
X58988Y-18233D01*
X58988Y-18133D01*
X59012Y-18000D01*
X59036Y-17933D01*
X59083Y-17867D01*
X59155Y-17833D01*
X59203Y-17833D01*
X59274Y-17867D01*
X59298Y-17900D01*
X59441Y-17833D02*
X59726Y-17833D01*
X59583Y-18533D02*
X59583Y-17833D01*
X29763Y-18167D02*
X29834Y-18200D01*
X29858Y-18233D01*
X29882Y-18300D01*
X29882Y-18400D01*
X29858Y-18467D01*
X29834Y-18500D01*
X29787Y-18533D01*
X29596Y-18533D01*
X29596Y-17833D01*
X29763Y-17833D01*
X29810Y-17867D01*
X29834Y-17900D01*
X29858Y-17967D01*
X29858Y-18033D01*
X29834Y-18100D01*
X29810Y-18133D01*
X29763Y-18167D01*
X29596Y-18167D01*
X30096Y-17833D02*
X30096Y-18400D01*
X30120Y-18467D01*
X30144Y-18500D01*
X30191Y-18533D01*
X30287Y-18533D01*
X30334Y-18500D01*
X30358Y-18467D01*
X30382Y-18400D01*
X30382Y-17833D01*
X30596Y-18500D02*
X30668Y-18533D01*
X30787Y-18533D01*
X30834Y-18500D01*
X30858Y-18467D01*
X30882Y-18400D01*
X30882Y-18333D01*
X30858Y-18267D01*
X30834Y-18233D01*
X30787Y-18200D01*
X30691Y-18167D01*
X30644Y-18133D01*
X30620Y-18100D01*
X30596Y-18033D01*
X30596Y-17967D01*
X30620Y-17900D01*
X30644Y-17867D01*
X30691Y-17833D01*
X30811Y-17833D01*
X30882Y-17867D01*
X31453Y-18500D02*
X31525Y-18533D01*
X31644Y-18533D01*
X31691Y-18500D01*
X31715Y-18467D01*
X31739Y-18400D01*
X31739Y-18333D01*
X31715Y-18267D01*
X31691Y-18233D01*
X31644Y-18200D01*
X31548Y-18167D01*
X31501Y-18133D01*
X31477Y-18100D01*
X31453Y-18033D01*
X31453Y-17967D01*
X31477Y-17900D01*
X31501Y-17867D01*
X31548Y-17833D01*
X31668Y-17833D01*
X31739Y-17867D01*
X31953Y-18167D02*
X32120Y-18167D01*
X32191Y-18533D02*
X31953Y-18533D01*
X31953Y-17833D01*
X32191Y-17833D01*
X32643Y-18533D02*
X32405Y-18533D01*
X32405Y-17833D01*
X32810Y-18167D02*
X32977Y-18167D01*
X33048Y-18533D02*
X32810Y-18533D01*
X32810Y-17833D01*
X33048Y-17833D01*
X33548Y-18467D02*
X33524Y-18500D01*
X33453Y-18533D01*
X33405Y-18533D01*
X33333Y-18500D01*
X33286Y-18433D01*
X33262Y-18367D01*
X33238Y-18233D01*
X33238Y-18133D01*
X33262Y-18000D01*
X33286Y-17933D01*
X33333Y-17867D01*
X33405Y-17833D01*
X33453Y-17833D01*
X33524Y-17867D01*
X33548Y-17900D01*
X33691Y-17833D02*
X33976Y-17833D01*
X33833Y-18533D02*
X33833Y-17833D01*
G54D12*
X108340Y-20000D02*
X108340Y-18990D01*
X82780Y-20000D02*
X82780Y-19000D01*
X57220Y-20000D02*
X57220Y-19000D01*
X31660Y-20000D02*
X31660Y-19000D01*
X120850Y-20000D02*
X120850Y-21000D01*
X95775Y-20000D02*
X120850Y-20000D01*
X95775Y-21000D02*
X95775Y-20000D01*
X95325Y-20000D02*
X95325Y-21000D01*
X70225Y-20000D02*
X95325Y-20000D01*
X57000Y-20000D02*
X57400Y-20000D01*
X31475Y-20000D02*
X31875Y-20000D01*
X70225Y-21000D02*
X70225Y-20000D01*
X69775Y-20000D02*
X69775Y-21000D01*
X57425Y-20000D02*
X69775Y-20000D01*
X44650Y-20000D02*
X57000Y-20000D01*
X44650Y-21000D02*
X44650Y-20000D01*
X44225Y-20000D02*
X44225Y-21000D01*
X31875Y-20000D02*
X44225Y-20000D01*
X19125Y-20000D02*
X31450Y-20000D01*
X19125Y-21000D02*
X19125Y-20000D01*
G54D13*
X108840Y-17370D02*
X108840Y-13370D01*
X108840Y-13370D02*
X110840Y-13370D01*
X110840Y-13370D02*
X110840Y-17370D01*
X110840Y-17370D02*
X108840Y-17370D01*
X105840Y-17370D02*
X105840Y-13370D01*
X105840Y-13370D02*
X107840Y-13370D01*
X107840Y-13370D02*
X107840Y-17370D01*
X107840Y-17370D02*
X105840Y-17370D01*
X83280Y-17370D02*
X83280Y-13370D01*
X83280Y-13370D02*
X85280Y-13370D01*
X85280Y-13370D02*
X85280Y-17370D01*
X85280Y-17370D02*
X83280Y-17370D01*
X29160Y-17370D02*
X29160Y-13370D01*
X29160Y-13370D02*
X31160Y-13370D01*
X31160Y-13370D02*
X31160Y-17370D01*
X31160Y-17370D02*
X29160Y-17370D01*
X32160Y-17370D02*
X32160Y-13370D01*
X32160Y-13370D02*
X34160Y-13370D01*
X34160Y-13370D02*
X34160Y-17370D01*
X34160Y-17370D02*
X32160Y-17370D01*
X54720Y-17370D02*
X54720Y-13370D01*
X54720Y-13370D02*
X56720Y-13370D01*
X56720Y-13370D02*
X56720Y-17370D01*
X56720Y-17370D02*
X54720Y-17370D01*
X57720Y-17370D02*
X57720Y-13370D01*
X57720Y-13370D02*
X59720Y-13370D01*
X59720Y-13370D02*
X59720Y-17370D01*
X59720Y-17370D02*
X57720Y-17370D01*
X80280Y-17370D02*
X80280Y-13370D01*
X80280Y-13370D02*
X82280Y-13370D01*
X82280Y-13370D02*
X82280Y-17370D01*
X82280Y-17370D02*
X80280Y-17370D01*
G54D14*
X14640Y-17160D02*
X14140Y-17160D01*
X14140Y-17160D02*
X14140Y-17460D01*
X14640Y-17460D02*
X14140Y-17460D01*
X14640Y-17160D02*
X14640Y-17460D01*
X14640Y-18460D02*
X14140Y-18460D01*
X14140Y-18460D02*
X14140Y-19460D01*
X14640Y-19460D02*
X14140Y-19460D01*
X14640Y-18460D02*
X14640Y-19460D01*
X14640Y-20460D02*
X14140Y-20460D01*
X14140Y-20460D02*
X14140Y-21460D01*
X14640Y-21460D02*
X14140Y-21460D01*
X14640Y-20460D02*
X14640Y-21460D01*
X14640Y-17460D02*
X14140Y-17460D01*
X14140Y-17460D02*
X14140Y-18460D01*
X14640Y-18460D02*
X14140Y-18460D01*
X14640Y-17460D02*
X14640Y-18460D01*
X14640Y-19460D02*
X14140Y-19460D01*
X14140Y-19460D02*
X14140Y-20460D01*
X14640Y-20460D02*
X14140Y-20460D01*
X14640Y-19460D02*
X14640Y-20460D01*
X14640Y-20460D02*
X14140Y-20460D01*
X14140Y-20460D02*
X14140Y-21110D01*
X14640Y-21110D02*
X14140Y-21110D01*
X14640Y-20460D02*
X14640Y-21110D01*
X13040Y-11960D02*
X12790Y-11960D01*
X12790Y-11960D02*
X12790Y-12410D01*
X13040Y-12410D02*
X12790Y-12410D01*
X13040Y-11960D02*
X13040Y-12410D01*
X13040Y-12410D02*
X12790Y-12410D01*
X12790Y-12410D02*
X12790Y-14960D01*
X13040Y-14960D02*
X12790Y-14960D01*
X13040Y-12410D02*
X13040Y-14960D01*
X14790Y-11960D02*
X13990Y-11960D01*
X13990Y-11960D02*
X13990Y-13460D01*
X14790Y-13460D02*
X13990Y-13460D01*
X14790Y-11960D02*
X14790Y-13460D01*
X14890Y-11960D02*
X14790Y-11960D01*
X14790Y-11960D02*
X14790Y-13460D01*
X14890Y-13460D02*
X14790Y-13460D01*
X14890Y-11960D02*
X14890Y-13460D01*
X13990Y-11960D02*
X13890Y-11960D01*
X13890Y-11960D02*
X13890Y-13460D01*
X13990Y-13460D02*
X13890Y-13460D01*
X13990Y-11960D02*
X13990Y-13460D01*
X15990Y-11960D02*
X15740Y-11960D01*
X15740Y-11960D02*
X15740Y-12410D01*
X15990Y-12410D02*
X15740Y-12410D01*
X15990Y-11960D02*
X15990Y-12410D01*
X15990Y-12410D02*
X15740Y-12410D01*
X15740Y-12410D02*
X15740Y-14960D01*
X15990Y-14960D02*
X15740Y-14960D01*
X15990Y-12410D02*
X15990Y-14960D01*
G54D10*
X15990Y-11960D02*
X15990Y-16160D01*
X15990Y-11960D02*
X15840Y-11960D01*
X15840Y-11960D02*
X15840Y-11860D01*
X12940Y-11860D02*
X13040Y-11860D01*
X12940Y-11860D02*
X12940Y-11960D01*
X12940Y-11960D02*
X12790Y-11960D01*
X15740Y-11860D02*
X15740Y-11610D01*
X15740Y-11860D02*
X15840Y-11860D01*
X13040Y-11610D02*
X13390Y-11610D01*
X13040Y-11610D02*
X13040Y-11860D01*
X13390Y-09160D02*
X14290Y-09160D01*
X15390Y-09160D02*
X15240Y-09010D01*
X15240Y-09010D02*
X14740Y-09010D01*
X13390Y-09160D02*
X13540Y-09010D01*
X14290Y-09160D02*
X14290Y-11610D01*
X14290Y-09160D02*
X14490Y-09160D01*
X14290Y-11610D02*
X14490Y-11610D01*
X14490Y-09160D02*
X14490Y-11610D01*
X14490Y-09160D02*
X15390Y-09160D01*
X14740Y-09010D02*
X14890Y-06960D01*
X13890Y-06960D02*
X14040Y-09010D01*
X14040Y-09010D02*
X13540Y-09010D01*
X14740Y-09010D02*
X14040Y-09010D01*
X12840Y-16210D02*
X13390Y-16210D01*
X13390Y-16160D02*
X13390Y-16210D01*
X15390Y-16160D02*
X15390Y-16210D01*
X12840Y-16210D02*
X12790Y-16160D01*
X12790Y-16160D02*
X12790Y-11960D01*
X15990Y-16160D02*
X15940Y-16210D01*
X15940Y-16210D02*
X15390Y-16210D01*
X15390Y-16160D02*
X13390Y-16160D01*
X13390Y-11610D02*
X13390Y-11410D01*
X13390Y-11410D02*
X13390Y-09160D01*
X13390Y-11610D02*
X13840Y-11610D01*
X13840Y-11610D02*
X14290Y-11610D01*
X13040Y-11860D02*
X13940Y-11860D01*
X12940Y-11960D02*
X13940Y-11960D01*
X14790Y-11960D02*
X13940Y-11960D01*
X14790Y-11960D02*
X15840Y-11960D01*
X14840Y-11860D02*
X13940Y-11860D01*
X14840Y-11860D02*
X15740Y-11860D01*
X14940Y-11610D02*
X14490Y-11610D01*
X14940Y-11610D02*
X15390Y-11610D01*
X15390Y-11610D02*
X15740Y-11610D01*
X15390Y-11610D02*
X15390Y-11410D01*
X15390Y-11410D02*
X15390Y-09160D01*
X14890Y-06960D02*
X14888Y-06917D01*
X14882Y-06874D01*
X14872Y-06831D01*
X14859Y-06789D01*
X14843Y-06749D01*
X14823Y-06711D01*
X14799Y-06674D01*
X14773Y-06639D01*
X14743Y-06607D01*
X14711Y-06577D01*
X14676Y-06551D01*
X14640Y-06527D01*
X14601Y-06507D01*
X14561Y-06491D01*
X14519Y-06478D01*
X14476Y-06468D01*
X14433Y-06462D01*
X14390Y-06460D01*
X14347Y-06462D01*
X14304Y-06468D01*
X14261Y-06478D01*
X14219Y-06491D01*
X14179Y-06507D01*
X14141Y-06527D01*
X14104Y-06551D01*
X14069Y-06577D01*
X14037Y-06607D01*
X14007Y-06639D01*
X13981Y-06674D01*
X13957Y-06711D01*
X13937Y-06749D01*
X13921Y-06789D01*
X13908Y-06831D01*
X13898Y-06874D01*
X13892Y-06917D01*
X13890Y-06960D01*
G54D12*
X97621Y-12250D02*
X97581Y-12650D01*
X97465Y-13035D01*
X97276Y-13390D01*
X97022Y-13702D01*
X96712Y-13958D01*
X96358Y-14149D01*
X95974Y-14268D01*
X95574Y-14310D01*
X95174Y-14274D01*
X94788Y-14160D01*
X94432Y-13974D01*
X94118Y-13722D01*
X93860Y-13414D01*
X93666Y-13061D01*
X93545Y-12678D01*
X93500Y-12278D01*
X93533Y-11878D01*
X93644Y-11492D01*
X93828Y-11134D01*
X94078Y-10819D01*
X94384Y-10558D01*
X94735Y-10362D01*
X95118Y-10238D01*
X95517Y-10190D01*
X95917Y-10221D01*
X96305Y-10329D01*
X96664Y-10510D01*
X96981Y-10758D01*
X97244Y-11062D01*
X97442Y-11412D01*
X97569Y-11794D01*
X97620Y-12193D01*
X97621Y-12250D01*
G54D14*
X95660Y-12700D02*
X95910Y-12700D01*
X95910Y-12700D02*
X95910Y-11800D01*
X95660Y-11800D02*
X95910Y-11800D01*
X95660Y-12700D02*
X95660Y-11800D01*
G54D10*
X95110Y-12250D02*
X95210Y-12250D01*
X95210Y-12250D02*
X95210Y-12700D01*
X95210Y-12700D02*
X95460Y-12700D01*
X95460Y-12700D02*
X95460Y-11800D01*
X95460Y-11800D02*
X95210Y-11800D01*
X95210Y-11800D02*
X95210Y-12250D01*
X95810Y-12250D02*
X96010Y-12250D01*
X93060Y-12100D02*
X93060Y-12400D01*
X93210Y-12250D02*
X92910Y-12250D01*
X96010Y-12250D02*
X96210Y-12250D01*
X94910Y-12250D02*
X95110Y-12250D01*
G54D12*
X72061Y-12250D02*
X72021Y-12650D01*
X71905Y-13035D01*
X71716Y-13390D01*
X71462Y-13702D01*
X71152Y-13958D01*
X70798Y-14149D01*
X70414Y-14268D01*
X70014Y-14310D01*
X69614Y-14274D01*
X69228Y-14160D01*
X68872Y-13974D01*
X68558Y-13722D01*
X68300Y-13414D01*
X68106Y-13061D01*
X67985Y-12678D01*
X67940Y-12278D01*
X67973Y-11878D01*
X68084Y-11492D01*
X68268Y-11134D01*
X68518Y-10819D01*
X68824Y-10558D01*
X69175Y-10362D01*
X69558Y-10238D01*
X69957Y-10190D01*
X70357Y-10221D01*
X70745Y-10329D01*
X71104Y-10510D01*
X71421Y-10758D01*
X71684Y-11062D01*
X71882Y-11412D01*
X72009Y-11794D01*
X72060Y-12193D01*
X72061Y-12250D01*
G54D14*
X70100Y-12700D02*
X70350Y-12700D01*
X70350Y-12700D02*
X70350Y-11800D01*
X70100Y-11800D02*
X70350Y-11800D01*
X70100Y-12700D02*
X70100Y-11800D01*
G54D10*
X69550Y-12250D02*
X69650Y-12250D01*
X69650Y-12250D02*
X69650Y-12700D01*
X69650Y-12700D02*
X69900Y-12700D01*
X69900Y-12700D02*
X69900Y-11800D01*
X69900Y-11800D02*
X69650Y-11800D01*
X69650Y-11800D02*
X69650Y-12250D01*
X70250Y-12250D02*
X70450Y-12250D01*
X67500Y-12100D02*
X67500Y-12400D01*
X67650Y-12250D02*
X67350Y-12250D01*
X70450Y-12250D02*
X70650Y-12250D01*
X69350Y-12250D02*
X69550Y-12250D01*
G54D12*
X46501Y-12250D02*
X46461Y-12650D01*
X46345Y-13035D01*
X46156Y-13390D01*
X45902Y-13702D01*
X45592Y-13958D01*
X45238Y-14149D01*
X44854Y-14268D01*
X44454Y-14310D01*
X44054Y-14274D01*
X43668Y-14160D01*
X43312Y-13974D01*
X42998Y-13722D01*
X42740Y-13414D01*
X42546Y-13061D01*
X42425Y-12678D01*
X42380Y-12278D01*
X42413Y-11878D01*
X42524Y-11492D01*
X42708Y-11134D01*
X42958Y-10819D01*
X43264Y-10558D01*
X43615Y-10362D01*
X43998Y-10238D01*
X44397Y-10190D01*
X44797Y-10221D01*
X45185Y-10329D01*
X45544Y-10510D01*
X45861Y-10758D01*
X46124Y-11062D01*
X46322Y-11412D01*
X46449Y-11794D01*
X46500Y-12193D01*
X46501Y-12250D01*
G54D14*
X44540Y-12700D02*
X44790Y-12700D01*
X44790Y-12700D02*
X44790Y-11800D01*
X44540Y-11800D02*
X44790Y-11800D01*
X44540Y-12700D02*
X44540Y-11800D01*
G54D10*
X43990Y-12250D02*
X44090Y-12250D01*
X44090Y-12250D02*
X44090Y-12700D01*
X44090Y-12700D02*
X44340Y-12700D01*
X44340Y-12700D02*
X44340Y-11800D01*
X44340Y-11800D02*
X44090Y-11800D01*
X44090Y-11800D02*
X44090Y-12250D01*
X44690Y-12250D02*
X44890Y-12250D01*
X41940Y-12100D02*
X41940Y-12400D01*
X42090Y-12250D02*
X41790Y-12250D01*
X44890Y-12250D02*
X45090Y-12250D01*
X43790Y-12250D02*
X43990Y-12250D01*
G54D12*
X20450Y-09990D02*
X25950Y-09990D01*
X25950Y-09990D02*
X25950Y-15740D01*
X25950Y-15740D02*
X20450Y-15740D01*
X20450Y-15740D02*
X20450Y-09990D01*
G54D14*
X117670Y-10360D02*
X117570Y-10360D01*
X117570Y-10360D02*
X117570Y-11310D01*
X117670Y-11310D02*
X117570Y-11310D01*
X117670Y-10360D02*
X117670Y-11310D01*
X125370Y-10360D02*
X125270Y-10360D01*
X125270Y-10360D02*
X125270Y-11310D01*
X125370Y-11310D02*
X125270Y-11310D01*
X125370Y-10360D02*
X125370Y-11310D01*
X116740Y-11560D02*
X116340Y-11560D01*
X116340Y-11560D02*
X116340Y-12210D01*
X116740Y-12210D02*
X116340Y-12210D01*
X116740Y-11560D02*
X116740Y-12210D01*
X126600Y-11560D02*
X126200Y-11560D01*
X126200Y-11560D02*
X126200Y-12210D01*
X126600Y-12210D02*
X126200Y-12210D01*
X126600Y-11560D02*
X126600Y-12210D01*
X125120Y-11560D02*
X117820Y-11560D01*
X117820Y-11560D02*
X117820Y-11860D01*
X125120Y-11860D02*
X117820Y-11860D01*
X125120Y-11560D02*
X125120Y-11860D01*
X127570Y-09960D02*
X115370Y-09960D01*
X115370Y-09960D02*
X115370Y-10160D01*
X127570Y-10160D02*
X115370Y-10160D01*
X127570Y-09960D02*
X127570Y-10160D01*
X123790Y-11860D02*
X123470Y-11860D01*
X123470Y-11860D02*
X123470Y-14710D01*
X123790Y-14710D02*
X123470Y-14710D01*
X123790Y-11860D02*
X123790Y-14710D01*
X123250Y-11860D02*
X122930Y-11860D01*
X122930Y-11860D02*
X122930Y-13710D01*
X123250Y-13710D02*
X122930Y-13710D01*
X123250Y-11860D02*
X123250Y-13710D01*
X122710Y-11860D02*
X122390Y-11860D01*
X122390Y-11860D02*
X122390Y-14710D01*
X122710Y-14710D02*
X122390Y-14710D01*
X122710Y-11860D02*
X122710Y-14710D01*
X122170Y-11860D02*
X121850Y-11860D01*
X121850Y-11860D02*
X121850Y-13710D01*
X122170Y-13710D02*
X121850Y-13710D01*
X122170Y-11860D02*
X122170Y-13710D01*
X121630Y-11860D02*
X121310Y-11860D01*
X121310Y-11860D02*
X121310Y-14710D01*
X121630Y-14710D02*
X121310Y-14710D01*
X121630Y-11860D02*
X121630Y-14710D01*
X121090Y-11860D02*
X120770Y-11860D01*
X120770Y-11860D02*
X120770Y-13710D01*
X121090Y-13710D02*
X120770Y-13710D01*
X121090Y-11860D02*
X121090Y-13710D01*
X120550Y-11860D02*
X120230Y-11860D01*
X120230Y-11860D02*
X120230Y-14710D01*
X120550Y-14710D02*
X120230Y-14710D01*
X120550Y-11860D02*
X120550Y-14710D01*
X120010Y-11860D02*
X119690Y-11860D01*
X119690Y-11860D02*
X119690Y-13710D01*
X120010Y-13710D02*
X119690Y-13710D01*
X120010Y-11860D02*
X120010Y-13710D01*
X119470Y-11860D02*
X119150Y-11860D01*
X119150Y-11860D02*
X119150Y-14710D01*
X119470Y-14710D02*
X119150Y-14710D01*
X119470Y-11860D02*
X119470Y-14710D01*
G54D10*
X118220Y-07661D02*
X118320Y-07661D01*
X118170Y-09960D02*
X118170Y-07860D01*
X118170Y-09960D02*
X124770Y-09960D01*
X124770Y-09960D02*
X124770Y-07860D01*
X115370Y-11560D02*
X117370Y-11560D01*
X115370Y-11560D02*
X115370Y-10360D01*
X115370Y-11560D02*
X115370Y-11610D01*
X115370Y-10360D02*
X116370Y-10360D01*
X115370Y-10360D02*
X115370Y-10160D01*
X115370Y-10160D02*
X115370Y-09960D01*
X127570Y-09960D02*
X127570Y-10160D01*
X127570Y-10160D02*
X127570Y-10360D01*
X127570Y-10360D02*
X127570Y-11560D01*
X127570Y-11560D02*
X127570Y-11610D01*
X116370Y-10460D02*
X117370Y-10460D01*
X115370Y-10160D02*
X116370Y-10160D01*
X116370Y-10160D02*
X117370Y-10160D01*
X116370Y-10360D02*
X116370Y-10160D01*
X116370Y-10360D02*
X116370Y-10460D01*
X117370Y-10460D02*
X117370Y-10360D01*
X117370Y-10360D02*
X117370Y-10160D01*
X115370Y-11610D02*
X117370Y-11610D01*
X117370Y-11610D02*
X117370Y-11560D01*
X117370Y-10360D02*
X117420Y-10360D01*
X117420Y-10360D02*
X125520Y-10360D01*
X117370Y-11560D02*
X117720Y-11560D01*
X117720Y-11560D02*
X117820Y-11560D01*
X117420Y-11310D02*
X117420Y-10360D01*
X117820Y-11560D02*
X117820Y-11860D01*
X117820Y-11560D02*
X125120Y-11560D01*
X117820Y-11860D02*
X125120Y-11860D01*
X125120Y-11560D02*
X125120Y-11860D01*
X125120Y-11560D02*
X125220Y-11560D01*
X125220Y-11560D02*
X125270Y-11560D01*
X125270Y-11560D02*
X125570Y-11560D01*
X125570Y-11610D02*
X127570Y-11610D01*
X126570Y-10360D02*
X126570Y-10160D01*
X126570Y-10360D02*
X127570Y-10360D01*
X126570Y-10160D02*
X127570Y-10160D01*
X125570Y-10460D02*
X126570Y-10460D01*
X126570Y-10360D02*
X126570Y-10460D01*
X117370Y-10160D02*
X125570Y-10160D01*
X125570Y-10160D02*
X126570Y-10160D01*
X125570Y-10460D02*
X125570Y-10360D01*
X125570Y-10360D02*
X125570Y-10160D01*
X125520Y-11310D02*
X125520Y-10360D01*
X125520Y-10360D02*
X125570Y-10360D01*
X115620Y-15810D02*
X115370Y-15560D01*
X115370Y-15560D02*
X115370Y-11610D01*
X117520Y-15810D02*
X115620Y-15810D01*
X117520Y-15810D02*
X117720Y-15610D01*
X117720Y-15610D02*
X117720Y-11560D01*
X125220Y-15610D02*
X125220Y-11560D01*
X125220Y-15610D02*
X125420Y-15810D01*
X125420Y-15810D02*
X127370Y-15810D01*
X127370Y-15810D02*
X127570Y-15610D01*
X127570Y-15610D02*
X127570Y-11610D01*
X123470Y-09060D02*
X122570Y-09060D01*
X122570Y-09060D02*
X122570Y-08160D01*
X122570Y-08160D02*
X122720Y-08160D01*
X122720Y-08160D02*
X122720Y-08911D01*
X122720Y-08911D02*
X123320Y-08911D01*
X123320Y-08911D02*
X123320Y-08160D01*
X123320Y-08160D02*
X123470Y-08160D01*
X123470Y-08160D02*
X123470Y-09060D01*
X121920Y-09060D02*
X121020Y-09060D01*
X121020Y-09060D02*
X121020Y-08160D01*
X121020Y-08160D02*
X121170Y-08160D01*
X121170Y-08160D02*
X121170Y-08911D01*
X121170Y-08911D02*
X121770Y-08911D01*
X121770Y-08911D02*
X121770Y-08160D01*
X121770Y-08160D02*
X121920Y-08160D01*
X121920Y-08160D02*
X121920Y-09060D01*
X120370Y-09060D02*
X119470Y-09060D01*
X119470Y-09060D02*
X119470Y-08160D01*
X119470Y-08160D02*
X119620Y-08160D01*
X119620Y-08160D02*
X119620Y-08911D01*
X119620Y-08911D02*
X120220Y-08911D01*
X120220Y-08911D02*
X120220Y-08160D01*
X120220Y-08160D02*
X120370Y-08160D01*
X120370Y-08160D02*
X120370Y-09060D01*
X125570Y-11610D02*
X125570Y-11560D01*
X125570Y-11560D02*
X127570Y-11560D01*
X124770Y-09960D02*
X125170Y-09960D01*
X125170Y-09960D02*
X127570Y-09960D01*
X124919Y-09710D02*
X124919Y-07860D01*
X115370Y-09960D02*
X117770Y-09960D01*
X117770Y-09960D02*
X118170Y-09960D01*
X118021Y-09710D02*
X118021Y-07860D01*
X124620Y-09760D02*
X124620Y-07661D01*
X124620Y-07661D02*
X124720Y-07661D01*
X118320Y-09760D02*
X118320Y-07661D01*
X118320Y-07661D02*
X124620Y-07661D01*
G54D15*
X121470Y-15010D02*
X121470Y-14610D01*
X120390Y-15010D02*
X120390Y-14610D01*
X119310Y-15010D02*
X119310Y-14610D01*
X119850Y-14010D02*
X119850Y-13610D01*
X120930Y-14010D02*
X120930Y-13610D01*
X122010Y-14010D02*
X122010Y-13610D01*
X122550Y-15010D02*
X122550Y-14610D01*
X123090Y-14010D02*
X123090Y-13610D01*
X123630Y-15010D02*
X123630Y-14610D01*
G54D10*
X116999Y-14560D02*
X116990Y-14649D01*
X116964Y-14734D01*
X116922Y-14814D01*
X116865Y-14883D01*
X116796Y-14940D01*
X116717Y-14983D01*
X116632Y-15009D01*
X116543Y-15018D01*
X116454Y-15010D01*
X116369Y-14985D01*
X116289Y-14944D01*
X116219Y-14887D01*
X116162Y-14819D01*
X116119Y-14740D01*
X116092Y-14655D01*
X116082Y-14566D01*
X116089Y-14478D01*
X116114Y-14392D01*
X116155Y-14312D01*
X116210Y-14242D01*
X116279Y-14184D01*
X116357Y-14140D01*
X116442Y-14112D01*
X116531Y-14102D01*
X116619Y-14108D01*
X116705Y-14133D01*
X116785Y-14173D01*
X116856Y-14228D01*
X116915Y-14296D01*
X116959Y-14374D01*
X116987Y-14459D01*
X116998Y-14548D01*
X116999Y-14560D01*
X126859Y-14560D02*
X126850Y-14649D01*
X126824Y-14734D01*
X126782Y-14814D01*
X126725Y-14883D01*
X126656Y-14940D01*
X126577Y-14983D01*
X126492Y-15009D01*
X126403Y-15018D01*
X126314Y-15010D01*
X126229Y-14985D01*
X126149Y-14944D01*
X126079Y-14887D01*
X126022Y-14819D01*
X125979Y-14740D01*
X125952Y-14655D01*
X125942Y-14566D01*
X125949Y-14478D01*
X125974Y-14392D01*
X126015Y-14312D01*
X126070Y-14242D01*
X126139Y-14184D01*
X126217Y-14140D01*
X126302Y-14112D01*
X126391Y-14102D01*
X126479Y-14108D01*
X126565Y-14133D01*
X126645Y-14173D01*
X126716Y-14228D01*
X126775Y-14296D01*
X126819Y-14374D01*
X126847Y-14459D01*
X126858Y-14548D01*
X126859Y-14560D01*
X118220Y-07661D02*
X118203Y-07662D01*
X118186Y-07665D01*
X118169Y-07668D01*
X118152Y-07674D01*
X118136Y-07680D01*
X118121Y-07688D01*
X118106Y-07697D01*
X118093Y-07708D01*
X118080Y-07720D01*
X118068Y-07733D01*
X118057Y-07746D01*
X118048Y-07761D01*
X118040Y-07776D01*
X118034Y-07792D01*
X118028Y-07809D01*
X118025Y-07826D01*
X118022Y-07843D01*
X118021Y-07860D01*
X124919Y-07860D02*
X124918Y-07843D01*
X124915Y-07826D01*
X124912Y-07809D01*
X124906Y-07792D01*
X124900Y-07776D01*
X124892Y-07761D01*
X124883Y-07746D01*
X124872Y-07733D01*
X124860Y-07720D01*
X124847Y-07708D01*
X124834Y-07697D01*
X124819Y-07688D01*
X124804Y-07680D01*
X124788Y-07674D01*
X124771Y-07668D01*
X124754Y-07665D01*
X124737Y-07662D01*
X124720Y-07661D01*
X117420Y-11310D02*
X117421Y-11331D01*
X117424Y-11353D01*
X117429Y-11374D01*
X117436Y-11395D01*
X117444Y-11415D01*
X117454Y-11434D01*
X117466Y-11453D01*
X117479Y-11470D01*
X117494Y-11486D01*
X117510Y-11501D01*
X117527Y-11514D01*
X117546Y-11526D01*
X117565Y-11536D01*
X117585Y-11544D01*
X117606Y-11551D01*
X117627Y-11556D01*
X117649Y-11559D01*
X117670Y-11560D01*
X125270Y-11560D02*
X125291Y-11559D01*
X125313Y-11556D01*
X125334Y-11551D01*
X125355Y-11544D01*
X125375Y-11536D01*
X125395Y-11526D01*
X125413Y-11514D01*
X125430Y-11501D01*
X125446Y-11486D01*
X125461Y-11470D01*
X125474Y-11453D01*
X125486Y-11434D01*
X125496Y-11415D01*
X125504Y-11395D01*
X125511Y-11374D01*
X125516Y-11353D01*
X125519Y-11331D01*
X125520Y-11310D01*
X124920Y-09710D02*
X124921Y-09731D01*
X124924Y-09753D01*
X124929Y-09774D01*
X124936Y-09795D01*
X124944Y-09815D01*
X124954Y-09834D01*
X124966Y-09853D01*
X124979Y-09870D01*
X124994Y-09886D01*
X125010Y-09901D01*
X125027Y-09914D01*
X125046Y-09926D01*
X125065Y-09936D01*
X125085Y-09944D01*
X125106Y-09951D01*
X125127Y-09956D01*
X125149Y-09959D01*
X125170Y-09960D01*
X117770Y-09961D02*
X117791Y-09960D01*
X117813Y-09957D01*
X117834Y-09952D01*
X117855Y-09945D01*
X117876Y-09937D01*
X117895Y-09927D01*
X117913Y-09915D01*
X117931Y-09902D01*
X117947Y-09887D01*
X117962Y-09871D01*
X117975Y-09853D01*
X117987Y-09835D01*
X117997Y-09816D01*
X118005Y-09795D01*
X118012Y-09774D01*
X118017Y-09753D01*
X118020Y-09731D01*
X118021Y-09710D01*
G54D12*
X42164Y-17500D02*
X42122Y-17920D01*
X42000Y-18324D01*
X41802Y-18697D01*
X41535Y-19024D01*
X41210Y-19294D01*
X40838Y-19494D01*
X40435Y-19619D01*
X40015Y-19663D01*
X39595Y-19625D01*
X39190Y-19506D01*
X38816Y-19310D01*
X38486Y-19046D01*
X38215Y-18722D01*
X38011Y-18352D01*
X37884Y-17949D01*
X37837Y-17530D01*
X37872Y-17110D01*
X37988Y-16704D01*
X38182Y-16328D01*
X38444Y-15997D01*
X38765Y-15724D01*
X39134Y-15517D01*
X39536Y-15387D01*
X39955Y-15337D01*
X40375Y-15369D01*
X40782Y-15483D01*
X41159Y-15673D01*
X41492Y-15933D01*
X41768Y-16253D01*
X41976Y-16620D01*
X42110Y-17021D01*
X42163Y-17440D01*
X42164Y-17500D01*
X72164Y-17500D02*
X72122Y-17920D01*
X72000Y-18324D01*
X71802Y-18697D01*
X71535Y-19024D01*
X71210Y-19294D01*
X70838Y-19494D01*
X70435Y-19619D01*
X70015Y-19663D01*
X69595Y-19625D01*
X69190Y-19506D01*
X68816Y-19310D01*
X68486Y-19046D01*
X68215Y-18722D01*
X68011Y-18352D01*
X67884Y-17949D01*
X67837Y-17530D01*
X67872Y-17110D01*
X67988Y-16704D01*
X68182Y-16328D01*
X68444Y-15997D01*
X68765Y-15724D01*
X69134Y-15517D01*
X69536Y-15387D01*
X69955Y-15337D01*
X70375Y-15369D01*
X70782Y-15483D01*
X71159Y-15673D01*
X71492Y-15933D01*
X71768Y-16253D01*
X71976Y-16620D01*
X72110Y-17021D01*
X72163Y-17440D01*
X72164Y-17500D01*
X102164Y-17500D02*
X102122Y-17920D01*
X102000Y-18324D01*
X101802Y-18697D01*
X101535Y-19024D01*
X101210Y-19294D01*
X100838Y-19494D01*
X100435Y-19619D01*
X100015Y-19663D01*
X99595Y-19625D01*
X99190Y-19506D01*
X98816Y-19310D01*
X98486Y-19046D01*
X98215Y-18722D01*
X98011Y-18352D01*
X97884Y-17949D01*
X97837Y-17530D01*
X97872Y-17110D01*
X97988Y-16704D01*
X98182Y-16328D01*
X98444Y-15997D01*
X98765Y-15724D01*
X99134Y-15517D01*
X99536Y-15387D01*
X99955Y-15337D01*
X100375Y-15369D01*
X100782Y-15483D01*
X101159Y-15673D01*
X101492Y-15933D01*
X101768Y-16253D01*
X101976Y-16620D01*
X102110Y-17021D01*
X102163Y-17440D01*
X102164Y-17500D01*
X108380Y-21750D02*
X108380Y-25000D01*
X121080Y-21750D02*
X121080Y-25000D01*
X108380Y-21750D02*
X121080Y-21750D01*
X108380Y-25000D02*
X121080Y-25000D01*
G54D14*
X116980Y-22250D02*
X117480Y-22250D01*
X117480Y-22250D02*
X117730Y-22500D01*
X117730Y-23000D02*
X117480Y-23250D01*
X115730Y-22500D02*
X115980Y-22250D01*
X115980Y-22250D02*
X116480Y-22250D01*
X116480Y-22250D02*
X116730Y-22500D01*
X116730Y-23000D02*
X116480Y-23250D01*
X116480Y-23250D02*
X115980Y-23250D01*
X115980Y-23250D02*
X115730Y-23000D01*
X116980Y-22250D02*
X116730Y-22500D01*
X116730Y-23000D02*
X116980Y-23250D01*
X117480Y-23250D02*
X116980Y-23250D01*
X113980Y-22250D02*
X114480Y-22250D01*
X114480Y-22250D02*
X114730Y-22500D01*
X114730Y-23000D02*
X114480Y-23250D01*
X114730Y-22500D02*
X114980Y-22250D01*
X114980Y-22250D02*
X115480Y-22250D01*
X115480Y-22250D02*
X115730Y-22500D01*
X115730Y-23000D02*
X115480Y-23250D01*
X115480Y-23250D02*
X114980Y-23250D01*
X114980Y-23250D02*
X114730Y-23000D01*
X112730Y-22500D02*
X112980Y-22250D01*
X112980Y-22250D02*
X113480Y-22250D01*
X113480Y-22250D02*
X113730Y-22500D01*
X113730Y-23000D02*
X113480Y-23250D01*
X113480Y-23250D02*
X112980Y-23250D01*
X112980Y-23250D02*
X112730Y-23000D01*
X113980Y-22250D02*
X113730Y-22500D01*
X113730Y-23000D02*
X113980Y-23250D01*
X114480Y-23250D02*
X113980Y-23250D01*
X110980Y-22250D02*
X111480Y-22250D01*
X111480Y-22250D02*
X111730Y-22500D01*
X111730Y-23000D02*
X111480Y-23250D01*
X111730Y-22500D02*
X111980Y-22250D01*
X111980Y-22250D02*
X112480Y-22250D01*
X112480Y-22250D02*
X112730Y-22500D01*
X112730Y-23000D02*
X112480Y-23250D01*
X112480Y-23250D02*
X111980Y-23250D01*
X111980Y-23250D02*
X111730Y-23000D01*
X110730Y-22500D02*
X110730Y-23000D01*
X110980Y-22250D02*
X110730Y-22500D01*
X110730Y-23000D02*
X110980Y-23250D01*
X111480Y-23250D02*
X110980Y-23250D01*
X117980Y-22250D02*
X118480Y-22250D01*
X118480Y-22250D02*
X118730Y-22500D01*
X118730Y-22500D02*
X118730Y-23000D01*
X118730Y-23000D02*
X118480Y-23250D01*
X117980Y-22250D02*
X117730Y-22500D01*
X117730Y-23000D02*
X117980Y-23250D01*
X118480Y-23250D02*
X117980Y-23250D01*
G54D12*
X95600Y-21750D02*
X95600Y-25000D01*
X108300Y-21750D02*
X108300Y-25000D01*
X95600Y-21750D02*
X108300Y-21750D01*
X95600Y-25000D02*
X108300Y-25000D01*
G54D14*
X104200Y-22250D02*
X104700Y-22250D01*
X104700Y-22250D02*
X104950Y-22500D01*
X104950Y-23000D02*
X104700Y-23250D01*
X102950Y-22500D02*
X103200Y-22250D01*
X103200Y-22250D02*
X103700Y-22250D01*
X103700Y-22250D02*
X103950Y-22500D01*
X103950Y-23000D02*
X103700Y-23250D01*
X103700Y-23250D02*
X103200Y-23250D01*
X103200Y-23250D02*
X102950Y-23000D01*
X104200Y-22250D02*
X103950Y-22500D01*
X103950Y-23000D02*
X104200Y-23250D01*
X104700Y-23250D02*
X104200Y-23250D01*
X101200Y-22250D02*
X101700Y-22250D01*
X101700Y-22250D02*
X101950Y-22500D01*
X101950Y-23000D02*
X101700Y-23250D01*
X101950Y-22500D02*
X102200Y-22250D01*
X102200Y-22250D02*
X102700Y-22250D01*
X102700Y-22250D02*
X102950Y-22500D01*
X102950Y-23000D02*
X102700Y-23250D01*
X102700Y-23250D02*
X102200Y-23250D01*
X102200Y-23250D02*
X101950Y-23000D01*
X99950Y-22500D02*
X100200Y-22250D01*
X100200Y-22250D02*
X100700Y-22250D01*
X100700Y-22250D02*
X100950Y-22500D01*
X100950Y-23000D02*
X100700Y-23250D01*
X100700Y-23250D02*
X100200Y-23250D01*
X100200Y-23250D02*
X99950Y-23000D01*
X101200Y-22250D02*
X100950Y-22500D01*
X100950Y-23000D02*
X101200Y-23250D01*
X101700Y-23250D02*
X101200Y-23250D01*
X98200Y-22250D02*
X98700Y-22250D01*
X98700Y-22250D02*
X98950Y-22500D01*
X98950Y-23000D02*
X98700Y-23250D01*
X98950Y-22500D02*
X99200Y-22250D01*
X99200Y-22250D02*
X99700Y-22250D01*
X99700Y-22250D02*
X99950Y-22500D01*
X99950Y-23000D02*
X99700Y-23250D01*
X99700Y-23250D02*
X99200Y-23250D01*
X99200Y-23250D02*
X98950Y-23000D01*
X97950Y-22500D02*
X97950Y-23000D01*
X98200Y-22250D02*
X97950Y-22500D01*
X97950Y-23000D02*
X98200Y-23250D01*
X98700Y-23250D02*
X98200Y-23250D01*
X105200Y-22250D02*
X105700Y-22250D01*
X105700Y-22250D02*
X105950Y-22500D01*
X105950Y-22500D02*
X105950Y-23000D01*
X105950Y-23000D02*
X105700Y-23250D01*
X105200Y-22250D02*
X104950Y-22500D01*
X104950Y-23000D02*
X105200Y-23250D01*
X105700Y-23250D02*
X105200Y-23250D01*
G54D12*
X82820Y-21750D02*
X82820Y-25000D01*
X95520Y-21750D02*
X95520Y-25000D01*
X82820Y-21750D02*
X95520Y-21750D01*
X82820Y-25000D02*
X95520Y-25000D01*
G54D14*
X91420Y-22250D02*
X91920Y-22250D01*
X91920Y-22250D02*
X92170Y-22500D01*
X92170Y-23000D02*
X91920Y-23250D01*
X90170Y-22500D02*
X90420Y-22250D01*
X90420Y-22250D02*
X90920Y-22250D01*
X90920Y-22250D02*
X91170Y-22500D01*
X91170Y-23000D02*
X90920Y-23250D01*
X90920Y-23250D02*
X90420Y-23250D01*
X90420Y-23250D02*
X90170Y-23000D01*
X91420Y-22250D02*
X91170Y-22500D01*
X91170Y-23000D02*
X91420Y-23250D01*
X91920Y-23250D02*
X91420Y-23250D01*
X88420Y-22250D02*
X88920Y-22250D01*
X88920Y-22250D02*
X89170Y-22500D01*
X89170Y-23000D02*
X88920Y-23250D01*
X89170Y-22500D02*
X89420Y-22250D01*
X89420Y-22250D02*
X89920Y-22250D01*
X89920Y-22250D02*
X90170Y-22500D01*
X90170Y-23000D02*
X89920Y-23250D01*
X89920Y-23250D02*
X89420Y-23250D01*
X89420Y-23250D02*
X89170Y-23000D01*
X87170Y-22500D02*
X87420Y-22250D01*
X87420Y-22250D02*
X87920Y-22250D01*
X87920Y-22250D02*
X88170Y-22500D01*
X88170Y-23000D02*
X87920Y-23250D01*
X87920Y-23250D02*
X87420Y-23250D01*
X87420Y-23250D02*
X87170Y-23000D01*
X88420Y-22250D02*
X88170Y-22500D01*
X88170Y-23000D02*
X88420Y-23250D01*
X88920Y-23250D02*
X88420Y-23250D01*
X85420Y-22250D02*
X85920Y-22250D01*
X85920Y-22250D02*
X86170Y-22500D01*
X86170Y-23000D02*
X85920Y-23250D01*
X86170Y-22500D02*
X86420Y-22250D01*
X86420Y-22250D02*
X86920Y-22250D01*
X86920Y-22250D02*
X87170Y-22500D01*
X87170Y-23000D02*
X86920Y-23250D01*
X86920Y-23250D02*
X86420Y-23250D01*
X86420Y-23250D02*
X86170Y-23000D01*
X85170Y-22500D02*
X85170Y-23000D01*
X85420Y-22250D02*
X85170Y-22500D01*
X85170Y-23000D02*
X85420Y-23250D01*
X85920Y-23250D02*
X85420Y-23250D01*
X92420Y-22250D02*
X92920Y-22250D01*
X92920Y-22250D02*
X93170Y-22500D01*
X93170Y-22500D02*
X93170Y-23000D01*
X93170Y-23000D02*
X92920Y-23250D01*
X92420Y-22250D02*
X92170Y-22500D01*
X92170Y-23000D02*
X92420Y-23250D01*
X92920Y-23250D02*
X92420Y-23250D01*
G54D12*
X70040Y-21750D02*
X70040Y-25000D01*
X82740Y-21750D02*
X82740Y-25000D01*
X70040Y-21750D02*
X82740Y-21750D01*
X70040Y-25000D02*
X82740Y-25000D01*
G54D14*
X78640Y-22250D02*
X79140Y-22250D01*
X79140Y-22250D02*
X79390Y-22500D01*
X79390Y-23000D02*
X79140Y-23250D01*
X77390Y-22500D02*
X77640Y-22250D01*
X77640Y-22250D02*
X78140Y-22250D01*
X78140Y-22250D02*
X78390Y-22500D01*
X78390Y-23000D02*
X78140Y-23250D01*
X78140Y-23250D02*
X77640Y-23250D01*
X77640Y-23250D02*
X77390Y-23000D01*
X78640Y-22250D02*
X78390Y-22500D01*
X78390Y-23000D02*
X78640Y-23250D01*
X79140Y-23250D02*
X78640Y-23250D01*
X75640Y-22250D02*
X76140Y-22250D01*
X76140Y-22250D02*
X76390Y-22500D01*
X76390Y-23000D02*
X76140Y-23250D01*
X76390Y-22500D02*
X76640Y-22250D01*
X76640Y-22250D02*
X77140Y-22250D01*
X77140Y-22250D02*
X77390Y-22500D01*
X77390Y-23000D02*
X77140Y-23250D01*
X77140Y-23250D02*
X76640Y-23250D01*
X76640Y-23250D02*
X76390Y-23000D01*
X74390Y-22500D02*
X74640Y-22250D01*
X74640Y-22250D02*
X75140Y-22250D01*
X75140Y-22250D02*
X75390Y-22500D01*
X75390Y-23000D02*
X75140Y-23250D01*
X75140Y-23250D02*
X74640Y-23250D01*
X74640Y-23250D02*
X74390Y-23000D01*
X75640Y-22250D02*
X75390Y-22500D01*
X75390Y-23000D02*
X75640Y-23250D01*
X76140Y-23250D02*
X75640Y-23250D01*
X72640Y-22250D02*
X73140Y-22250D01*
X73140Y-22250D02*
X73390Y-22500D01*
X73390Y-23000D02*
X73140Y-23250D01*
X73390Y-22500D02*
X73640Y-22250D01*
X73640Y-22250D02*
X74140Y-22250D01*
X74140Y-22250D02*
X74390Y-22500D01*
X74390Y-23000D02*
X74140Y-23250D01*
X74140Y-23250D02*
X73640Y-23250D01*
X73640Y-23250D02*
X73390Y-23000D01*
X72390Y-22500D02*
X72390Y-23000D01*
X72640Y-22250D02*
X72390Y-22500D01*
X72390Y-23000D02*
X72640Y-23250D01*
X73140Y-23250D02*
X72640Y-23250D01*
X79640Y-22250D02*
X80140Y-22250D01*
X80140Y-22250D02*
X80390Y-22500D01*
X80390Y-22500D02*
X80390Y-23000D01*
X80390Y-23000D02*
X80140Y-23250D01*
X79640Y-22250D02*
X79390Y-22500D01*
X79390Y-23000D02*
X79640Y-23250D01*
X80140Y-23250D02*
X79640Y-23250D01*
G54D12*
X57260Y-21750D02*
X57260Y-25000D01*
X69960Y-21750D02*
X69960Y-25000D01*
X57260Y-21750D02*
X69960Y-21750D01*
X57260Y-25000D02*
X69960Y-25000D01*
G54D14*
X65860Y-22250D02*
X66360Y-22250D01*
X66360Y-22250D02*
X66610Y-22500D01*
X66610Y-23000D02*
X66360Y-23250D01*
X64610Y-22500D02*
X64860Y-22250D01*
X64860Y-22250D02*
X65360Y-22250D01*
X65360Y-22250D02*
X65610Y-22500D01*
X65610Y-23000D02*
X65360Y-23250D01*
X65360Y-23250D02*
X64860Y-23250D01*
X64860Y-23250D02*
X64610Y-23000D01*
X65860Y-22250D02*
X65610Y-22500D01*
X65610Y-23000D02*
X65860Y-23250D01*
X66360Y-23250D02*
X65860Y-23250D01*
X62860Y-22250D02*
X63360Y-22250D01*
X63360Y-22250D02*
X63610Y-22500D01*
X63610Y-23000D02*
X63360Y-23250D01*
X63610Y-22500D02*
X63860Y-22250D01*
X63860Y-22250D02*
X64360Y-22250D01*
X64360Y-22250D02*
X64610Y-22500D01*
X64610Y-23000D02*
X64360Y-23250D01*
X64360Y-23250D02*
X63860Y-23250D01*
X63860Y-23250D02*
X63610Y-23000D01*
X61610Y-22500D02*
X61860Y-22250D01*
X61860Y-22250D02*
X62360Y-22250D01*
X62360Y-22250D02*
X62610Y-22500D01*
X62610Y-23000D02*
X62360Y-23250D01*
X62360Y-23250D02*
X61860Y-23250D01*
X61860Y-23250D02*
X61610Y-23000D01*
X62860Y-22250D02*
X62610Y-22500D01*
X62610Y-23000D02*
X62860Y-23250D01*
X63360Y-23250D02*
X62860Y-23250D01*
X59860Y-22250D02*
X60360Y-22250D01*
X60360Y-22250D02*
X60610Y-22500D01*
X60610Y-23000D02*
X60360Y-23250D01*
X60610Y-22500D02*
X60860Y-22250D01*
X60860Y-22250D02*
X61360Y-22250D01*
X61360Y-22250D02*
X61610Y-22500D01*
X61610Y-23000D02*
X61360Y-23250D01*
X61360Y-23250D02*
X60860Y-23250D01*
X60860Y-23250D02*
X60610Y-23000D01*
X59610Y-22500D02*
X59610Y-23000D01*
X59860Y-22250D02*
X59610Y-22500D01*
X59610Y-23000D02*
X59860Y-23250D01*
X60360Y-23250D02*
X59860Y-23250D01*
X66860Y-22250D02*
X67360Y-22250D01*
X67360Y-22250D02*
X67610Y-22500D01*
X67610Y-22500D02*
X67610Y-23000D01*
X67610Y-23000D02*
X67360Y-23250D01*
X66860Y-22250D02*
X66610Y-22500D01*
X66610Y-23000D02*
X66860Y-23250D01*
X67360Y-23250D02*
X66860Y-23250D01*
G54D12*
X18920Y-21750D02*
X18920Y-25000D01*
X31620Y-21750D02*
X31620Y-25000D01*
X18920Y-21750D02*
X31620Y-21750D01*
X18920Y-25000D02*
X31620Y-25000D01*
G54D14*
X27520Y-22250D02*
X28020Y-22250D01*
X28020Y-22250D02*
X28270Y-22500D01*
X28270Y-23000D02*
X28020Y-23250D01*
X26270Y-22500D02*
X26520Y-22250D01*
X26520Y-22250D02*
X27020Y-22250D01*
X27020Y-22250D02*
X27270Y-22500D01*
X27270Y-23000D02*
X27020Y-23250D01*
X27020Y-23250D02*
X26520Y-23250D01*
X26520Y-23250D02*
X26270Y-23000D01*
X27520Y-22250D02*
X27270Y-22500D01*
X27270Y-23000D02*
X27520Y-23250D01*
X28020Y-23250D02*
X27520Y-23250D01*
X24520Y-22250D02*
X25020Y-22250D01*
X25020Y-22250D02*
X25270Y-22500D01*
X25270Y-23000D02*
X25020Y-23250D01*
X25270Y-22500D02*
X25520Y-22250D01*
X25520Y-22250D02*
X26020Y-22250D01*
X26020Y-22250D02*
X26270Y-22500D01*
X26270Y-23000D02*
X26020Y-23250D01*
X26020Y-23250D02*
X25520Y-23250D01*
X25520Y-23250D02*
X25270Y-23000D01*
X23270Y-22500D02*
X23520Y-22250D01*
X23520Y-22250D02*
X24020Y-22250D01*
X24020Y-22250D02*
X24270Y-22500D01*
X24270Y-23000D02*
X24020Y-23250D01*
X24020Y-23250D02*
X23520Y-23250D01*
X23520Y-23250D02*
X23270Y-23000D01*
X24520Y-22250D02*
X24270Y-22500D01*
X24270Y-23000D02*
X24520Y-23250D01*
X25020Y-23250D02*
X24520Y-23250D01*
X21520Y-22250D02*
X22020Y-22250D01*
X22020Y-22250D02*
X22270Y-22500D01*
X22270Y-23000D02*
X22020Y-23250D01*
X22270Y-22500D02*
X22520Y-22250D01*
X22520Y-22250D02*
X23020Y-22250D01*
X23020Y-22250D02*
X23270Y-22500D01*
X23270Y-23000D02*
X23020Y-23250D01*
X23020Y-23250D02*
X22520Y-23250D01*
X22520Y-23250D02*
X22270Y-23000D01*
X21270Y-22500D02*
X21270Y-23000D01*
X21520Y-22250D02*
X21270Y-22500D01*
X21270Y-23000D02*
X21520Y-23250D01*
X22020Y-23250D02*
X21520Y-23250D01*
X28520Y-22250D02*
X29020Y-22250D01*
X29020Y-22250D02*
X29270Y-22500D01*
X29270Y-22500D02*
X29270Y-23000D01*
X29270Y-23000D02*
X29020Y-23250D01*
X28520Y-22250D02*
X28270Y-22500D01*
X28270Y-23000D02*
X28520Y-23250D01*
X29020Y-23250D02*
X28520Y-23250D01*
G54D12*
X31700Y-21750D02*
X31700Y-25000D01*
X44400Y-21750D02*
X44400Y-25000D01*
X31700Y-21750D02*
X44400Y-21750D01*
X31700Y-25000D02*
X44400Y-25000D01*
G54D14*
X40300Y-22250D02*
X40800Y-22250D01*
X40800Y-22250D02*
X41050Y-22500D01*
X41050Y-23000D02*
X40800Y-23250D01*
X39050Y-22500D02*
X39300Y-22250D01*
X39300Y-22250D02*
X39800Y-22250D01*
X39800Y-22250D02*
X40050Y-22500D01*
X40050Y-23000D02*
X39800Y-23250D01*
X39800Y-23250D02*
X39300Y-23250D01*
X39300Y-23250D02*
X39050Y-23000D01*
X40300Y-22250D02*
X40050Y-22500D01*
X40050Y-23000D02*
X40300Y-23250D01*
X40800Y-23250D02*
X40300Y-23250D01*
X37300Y-22250D02*
X37800Y-22250D01*
X37800Y-22250D02*
X38050Y-22500D01*
X38050Y-23000D02*
X37800Y-23250D01*
X38050Y-22500D02*
X38300Y-22250D01*
X38300Y-22250D02*
X38800Y-22250D01*
X38800Y-22250D02*
X39050Y-22500D01*
X39050Y-23000D02*
X38800Y-23250D01*
X38800Y-23250D02*
X38300Y-23250D01*
X38300Y-23250D02*
X38050Y-23000D01*
X36050Y-22500D02*
X36300Y-22250D01*
X36300Y-22250D02*
X36800Y-22250D01*
X36800Y-22250D02*
X37050Y-22500D01*
X37050Y-23000D02*
X36800Y-23250D01*
X36800Y-23250D02*
X36300Y-23250D01*
X36300Y-23250D02*
X36050Y-23000D01*
X37300Y-22250D02*
X37050Y-22500D01*
X37050Y-23000D02*
X37300Y-23250D01*
X37800Y-23250D02*
X37300Y-23250D01*
X34300Y-22250D02*
X34800Y-22250D01*
X34800Y-22250D02*
X35050Y-22500D01*
X35050Y-23000D02*
X34800Y-23250D01*
X35050Y-22500D02*
X35300Y-22250D01*
X35300Y-22250D02*
X35800Y-22250D01*
X35800Y-22250D02*
X36050Y-22500D01*
X36050Y-23000D02*
X35800Y-23250D01*
X35800Y-23250D02*
X35300Y-23250D01*
X35300Y-23250D02*
X35050Y-23000D01*
X34050Y-22500D02*
X34050Y-23000D01*
X34300Y-22250D02*
X34050Y-22500D01*
X34050Y-23000D02*
X34300Y-23250D01*
X34800Y-23250D02*
X34300Y-23250D01*
X41300Y-22250D02*
X41800Y-22250D01*
X41800Y-22250D02*
X42050Y-22500D01*
X42050Y-22500D02*
X42050Y-23000D01*
X42050Y-23000D02*
X41800Y-23250D01*
X41300Y-22250D02*
X41050Y-22500D01*
X41050Y-23000D02*
X41300Y-23250D01*
X41800Y-23250D02*
X41300Y-23250D01*
G54D12*
X44480Y-21750D02*
X44480Y-25000D01*
X57180Y-21750D02*
X57180Y-25000D01*
X44480Y-21750D02*
X57180Y-21750D01*
X44480Y-25000D02*
X57180Y-25000D01*
G54D14*
X53080Y-22250D02*
X53580Y-22250D01*
X53580Y-22250D02*
X53830Y-22500D01*
X53830Y-23000D02*
X53580Y-23250D01*
X51830Y-22500D02*
X52080Y-22250D01*
X52080Y-22250D02*
X52580Y-22250D01*
X52580Y-22250D02*
X52830Y-22500D01*
X52830Y-23000D02*
X52580Y-23250D01*
X52580Y-23250D02*
X52080Y-23250D01*
X52080Y-23250D02*
X51830Y-23000D01*
X53080Y-22250D02*
X52830Y-22500D01*
X52830Y-23000D02*
X53080Y-23250D01*
X53580Y-23250D02*
X53080Y-23250D01*
X50080Y-22250D02*
X50580Y-22250D01*
X50580Y-22250D02*
X50830Y-22500D01*
X50830Y-23000D02*
X50580Y-23250D01*
X50830Y-22500D02*
X51080Y-22250D01*
X51080Y-22250D02*
X51580Y-22250D01*
X51580Y-22250D02*
X51830Y-22500D01*
X51830Y-23000D02*
X51580Y-23250D01*
X51580Y-23250D02*
X51080Y-23250D01*
X51080Y-23250D02*
X50830Y-23000D01*
X48830Y-22500D02*
X49080Y-22250D01*
X49080Y-22250D02*
X49580Y-22250D01*
X49580Y-22250D02*
X49830Y-22500D01*
X49830Y-23000D02*
X49580Y-23250D01*
X49580Y-23250D02*
X49080Y-23250D01*
X49080Y-23250D02*
X48830Y-23000D01*
X50080Y-22250D02*
X49830Y-22500D01*
X49830Y-23000D02*
X50080Y-23250D01*
X50580Y-23250D02*
X50080Y-23250D01*
X47080Y-22250D02*
X47580Y-22250D01*
X47580Y-22250D02*
X47830Y-22500D01*
X47830Y-23000D02*
X47580Y-23250D01*
X47830Y-22500D02*
X48080Y-22250D01*
X48080Y-22250D02*
X48580Y-22250D01*
X48580Y-22250D02*
X48830Y-22500D01*
X48830Y-23000D02*
X48580Y-23250D01*
X48580Y-23250D02*
X48080Y-23250D01*
X48080Y-23250D02*
X47830Y-23000D01*
X46830Y-22500D02*
X46830Y-23000D01*
X47080Y-22250D02*
X46830Y-22500D01*
X46830Y-23000D02*
X47080Y-23250D01*
X47580Y-23250D02*
X47080Y-23250D01*
X54080Y-22250D02*
X54580Y-22250D01*
X54580Y-22250D02*
X54830Y-22500D01*
X54830Y-22500D02*
X54830Y-23000D01*
X54830Y-23000D02*
X54580Y-23250D01*
X54080Y-22250D02*
X53830Y-22500D01*
X53830Y-23000D02*
X54080Y-23250D01*
X54580Y-23250D02*
X54080Y-23250D01*
X110995Y-13762D02*
X110995Y-13362D01*
X111148Y-13362D01*
X111186Y-13381D01*
X111205Y-13400D01*
X111224Y-13438D01*
X111224Y-13495D01*
X111205Y-13533D01*
X111186Y-13552D01*
X111148Y-13571D01*
X110995Y-13571D01*
X111414Y-13762D02*
X111490Y-13762D01*
X111529Y-13743D01*
X111548Y-13724D01*
X111586Y-13667D01*
X111605Y-13590D01*
X111605Y-13438D01*
X111586Y-13400D01*
X111567Y-13381D01*
X111529Y-13362D01*
X111452Y-13362D01*
X111414Y-13381D01*
X111395Y-13400D01*
X111376Y-13438D01*
X111376Y-13533D01*
X111395Y-13571D01*
X111414Y-13590D01*
X111452Y-13610D01*
X111529Y-13610D01*
X111567Y-13590D01*
X111586Y-13571D01*
X111605Y-13533D01*
X107995Y-13762D02*
X107995Y-13362D01*
X108148Y-13362D01*
X108186Y-13381D01*
X108205Y-13400D01*
X108224Y-13438D01*
X108224Y-13495D01*
X108205Y-13533D01*
X108186Y-13552D01*
X108148Y-13571D01*
X107995Y-13571D01*
X108452Y-13533D02*
X108414Y-13514D01*
X108395Y-13495D01*
X108376Y-13457D01*
X108376Y-13438D01*
X108395Y-13400D01*
X108414Y-13381D01*
X108452Y-13362D01*
X108529Y-13362D01*
X108567Y-13381D01*
X108586Y-13400D01*
X108605Y-13438D01*
X108605Y-13457D01*
X108586Y-13495D01*
X108567Y-13514D01*
X108529Y-13533D01*
X108452Y-13533D01*
X108414Y-13552D01*
X108395Y-13571D01*
X108376Y-13610D01*
X108376Y-13686D01*
X108395Y-13724D01*
X108414Y-13743D01*
X108452Y-13762D01*
X108529Y-13762D01*
X108567Y-13743D01*
X108586Y-13724D01*
X108605Y-13686D01*
X108605Y-13610D01*
X108586Y-13571D01*
X108567Y-13552D01*
X108529Y-13533D01*
X85445Y-13752D02*
X85445Y-13352D01*
X85598Y-13352D01*
X85636Y-13371D01*
X85655Y-13390D01*
X85674Y-13428D01*
X85674Y-13485D01*
X85655Y-13523D01*
X85636Y-13542D01*
X85598Y-13561D01*
X85445Y-13561D01*
X85807Y-13352D02*
X86074Y-13352D01*
X85902Y-13752D01*
X31315Y-13742D02*
X31315Y-13342D01*
X31468Y-13342D01*
X31506Y-13361D01*
X31525Y-13380D01*
X31544Y-13418D01*
X31544Y-13475D01*
X31525Y-13513D01*
X31506Y-13532D01*
X31468Y-13551D01*
X31315Y-13551D01*
X31696Y-13380D02*
X31715Y-13361D01*
X31753Y-13342D01*
X31849Y-13342D01*
X31887Y-13361D01*
X31906Y-13380D01*
X31925Y-13418D01*
X31925Y-13456D01*
X31906Y-13513D01*
X31677Y-13742D01*
X31925Y-13742D01*
X34335Y-13742D02*
X34335Y-13342D01*
X34488Y-13342D01*
X34526Y-13361D01*
X34545Y-13380D01*
X34564Y-13418D01*
X34564Y-13475D01*
X34545Y-13513D01*
X34526Y-13532D01*
X34488Y-13551D01*
X34335Y-13551D01*
X34697Y-13342D02*
X34945Y-13342D01*
X34811Y-13494D01*
X34869Y-13494D01*
X34907Y-13513D01*
X34926Y-13532D01*
X34945Y-13570D01*
X34945Y-13666D01*
X34926Y-13704D01*
X34907Y-13723D01*
X34869Y-13742D01*
X34754Y-13742D01*
X34716Y-13723D01*
X34697Y-13704D01*
X56885Y-13752D02*
X56885Y-13352D01*
X57038Y-13352D01*
X57076Y-13371D01*
X57095Y-13390D01*
X57114Y-13428D01*
X57114Y-13485D01*
X57095Y-13523D01*
X57076Y-13542D01*
X57038Y-13561D01*
X56885Y-13561D01*
X57457Y-13485D02*
X57457Y-13752D01*
X57361Y-13333D02*
X57266Y-13619D01*
X57514Y-13619D01*
X59865Y-13752D02*
X59865Y-13352D01*
X60018Y-13352D01*
X60056Y-13371D01*
X60075Y-13390D01*
X60094Y-13428D01*
X60094Y-13485D01*
X60075Y-13523D01*
X60056Y-13542D01*
X60018Y-13561D01*
X59865Y-13561D01*
X60456Y-13352D02*
X60265Y-13352D01*
X60246Y-13542D01*
X60265Y-13523D01*
X60303Y-13504D01*
X60399Y-13504D01*
X60437Y-13523D01*
X60456Y-13542D01*
X60475Y-13580D01*
X60475Y-13676D01*
X60456Y-13714D01*
X60437Y-13733D01*
X60399Y-13752D01*
X60303Y-13752D01*
X60265Y-13733D01*
X60246Y-13714D01*
X82425Y-13752D02*
X82425Y-13352D01*
X82578Y-13352D01*
X82616Y-13371D01*
X82635Y-13390D01*
X82654Y-13428D01*
X82654Y-13485D01*
X82635Y-13523D01*
X82616Y-13542D01*
X82578Y-13561D01*
X82425Y-13561D01*
X82997Y-13352D02*
X82920Y-13352D01*
X82882Y-13371D01*
X82863Y-13390D01*
X82825Y-13447D01*
X82806Y-13523D01*
X82806Y-13676D01*
X82825Y-13714D01*
X82844Y-13733D01*
X82882Y-13752D01*
X82959Y-13752D01*
X82997Y-13733D01*
X83016Y-13714D01*
X83035Y-13676D01*
X83035Y-13580D01*
X83016Y-13542D01*
X82997Y-13523D01*
X82959Y-13504D01*
X82882Y-13504D01*
X82844Y-13523D01*
X82825Y-13542D01*
X82806Y-13580D01*
G54D13*
X14514Y-15300D02*
X14543Y-15214D01*
X14543Y-15071D01*
X14514Y-15014D01*
X14486Y-14985D01*
X14429Y-14957D01*
X14371Y-14957D01*
X14314Y-14985D01*
X14286Y-15014D01*
X14257Y-15071D01*
X14229Y-15185D01*
X14200Y-15243D01*
X14171Y-15271D01*
X14114Y-15300D01*
X14057Y-15300D01*
X14000Y-15271D01*
X13971Y-15243D01*
X13943Y-15185D01*
X13943Y-15043D01*
X13971Y-14957D01*
X13943Y-14757D02*
X14543Y-14614D01*
X14114Y-14500D01*
X14543Y-14386D01*
X13943Y-14243D01*
X14543Y-13700D02*
X14543Y-14043D01*
X14543Y-13871D02*
X13943Y-13871D01*
X14029Y-13928D01*
X14086Y-13986D01*
X14114Y-14043D01*
X95441Y-11216D02*
X95412Y-11244D01*
X95326Y-11273D01*
X95269Y-11273D01*
X95184Y-11244D01*
X95126Y-11187D01*
X95098Y-11130D01*
X95069Y-11016D01*
X95069Y-10930D01*
X95098Y-10816D01*
X95126Y-10759D01*
X95184Y-10701D01*
X95269Y-10673D01*
X95326Y-10673D01*
X95412Y-10701D01*
X95441Y-10730D01*
X95641Y-10673D02*
X96012Y-10673D01*
X95812Y-10901D01*
X95898Y-10901D01*
X95955Y-10930D01*
X95984Y-10959D01*
X96012Y-11016D01*
X96012Y-11159D01*
X95984Y-11216D01*
X95955Y-11244D01*
X95898Y-11273D01*
X95726Y-11273D01*
X95669Y-11244D01*
X95641Y-11216D01*
X95068Y-13733D02*
X94725Y-13733D01*
X94897Y-13733D02*
X94897Y-13133D01*
X94840Y-13219D01*
X94782Y-13276D01*
X94725Y-13304D01*
X95439Y-13133D02*
X95496Y-13133D01*
X95553Y-13161D01*
X95582Y-13190D01*
X95611Y-13247D01*
X95639Y-13361D01*
X95639Y-13504D01*
X95611Y-13619D01*
X95582Y-13676D01*
X95553Y-13704D01*
X95496Y-13733D01*
X95439Y-13733D01*
X95382Y-13704D01*
X95353Y-13676D01*
X95325Y-13619D01*
X95296Y-13504D01*
X95296Y-13361D01*
X95325Y-13247D01*
X95353Y-13190D01*
X95382Y-13161D01*
X95439Y-13133D01*
X96153Y-13333D02*
X96153Y-13733D01*
X95896Y-13333D02*
X95896Y-13647D01*
X95924Y-13704D01*
X95982Y-13733D01*
X96067Y-13733D01*
X96124Y-13704D01*
X96153Y-13676D01*
X96639Y-13419D02*
X96439Y-13419D01*
X96439Y-13733D02*
X96439Y-13133D01*
X96725Y-13133D01*
X69871Y-11266D02*
X69842Y-11294D01*
X69756Y-11323D01*
X69699Y-11323D01*
X69614Y-11294D01*
X69556Y-11237D01*
X69528Y-11180D01*
X69499Y-11066D01*
X69499Y-10980D01*
X69528Y-10866D01*
X69556Y-10809D01*
X69614Y-10751D01*
X69699Y-10723D01*
X69756Y-10723D01*
X69842Y-10751D01*
X69871Y-10780D01*
X70099Y-10780D02*
X70128Y-10751D01*
X70185Y-10723D01*
X70328Y-10723D01*
X70385Y-10751D01*
X70414Y-10780D01*
X70442Y-10837D01*
X70442Y-10894D01*
X70414Y-10980D01*
X70071Y-11323D01*
X70442Y-11323D01*
X69478Y-13693D02*
X69135Y-13693D01*
X69307Y-13693D02*
X69307Y-13093D01*
X69250Y-13179D01*
X69192Y-13236D01*
X69135Y-13264D01*
X69849Y-13093D02*
X69906Y-13093D01*
X69963Y-13121D01*
X69992Y-13150D01*
X70021Y-13207D01*
X70049Y-13321D01*
X70049Y-13464D01*
X70021Y-13579D01*
X69992Y-13636D01*
X69963Y-13664D01*
X69906Y-13693D01*
X69849Y-13693D01*
X69792Y-13664D01*
X69763Y-13636D01*
X69735Y-13579D01*
X69706Y-13464D01*
X69706Y-13321D01*
X69735Y-13207D01*
X69763Y-13150D01*
X69792Y-13121D01*
X69849Y-13093D01*
X70563Y-13293D02*
X70563Y-13693D01*
X70306Y-13293D02*
X70306Y-13607D01*
X70334Y-13664D01*
X70392Y-13693D01*
X70477Y-13693D01*
X70534Y-13664D01*
X70563Y-13636D01*
X71049Y-13379D02*
X70849Y-13379D01*
X70849Y-13693D02*
X70849Y-13093D01*
X71135Y-13093D01*
X44301Y-11166D02*
X44272Y-11194D01*
X44186Y-11223D01*
X44129Y-11223D01*
X44044Y-11194D01*
X43986Y-11137D01*
X43958Y-11080D01*
X43929Y-10966D01*
X43929Y-10880D01*
X43958Y-10766D01*
X43986Y-10709D01*
X44044Y-10651D01*
X44129Y-10623D01*
X44186Y-10623D01*
X44272Y-10651D01*
X44301Y-10680D01*
X44872Y-11223D02*
X44529Y-11223D01*
X44701Y-11223D02*
X44701Y-10623D01*
X44644Y-10709D01*
X44586Y-10766D01*
X44529Y-10794D01*
X44008Y-13663D02*
X43665Y-13663D01*
X43837Y-13663D02*
X43837Y-13063D01*
X43780Y-13149D01*
X43722Y-13206D01*
X43665Y-13234D01*
X44379Y-13063D02*
X44436Y-13063D01*
X44493Y-13091D01*
X44522Y-13120D01*
X44551Y-13177D01*
X44579Y-13291D01*
X44579Y-13434D01*
X44551Y-13549D01*
X44522Y-13606D01*
X44493Y-13634D01*
X44436Y-13663D01*
X44379Y-13663D01*
X44322Y-13634D01*
X44293Y-13606D01*
X44265Y-13549D01*
X44236Y-13434D01*
X44236Y-13291D01*
X44265Y-13177D01*
X44293Y-13120D01*
X44322Y-13091D01*
X44379Y-13063D01*
X45093Y-13263D02*
X45093Y-13663D01*
X44836Y-13263D02*
X44836Y-13577D01*
X44864Y-13634D01*
X44922Y-13663D01*
X45007Y-13663D01*
X45064Y-13634D01*
X45093Y-13606D01*
X45579Y-13349D02*
X45379Y-13349D01*
X45379Y-13663D02*
X45379Y-13063D01*
X45665Y-13063D01*
X19943Y-13432D02*
X19343Y-13432D01*
X19343Y-13204D01*
X19371Y-13146D01*
X19400Y-13118D01*
X19457Y-13089D01*
X19543Y-13089D01*
X19600Y-13118D01*
X19629Y-13146D01*
X19657Y-13204D01*
X19657Y-13432D01*
X19943Y-12518D02*
X19943Y-12861D01*
X19943Y-12689D02*
X19343Y-12689D01*
X19429Y-12746D01*
X19486Y-12804D01*
X19514Y-12861D01*
X116420Y-15953D02*
X116420Y-16381D01*
X116392Y-16467D01*
X116335Y-16524D01*
X116249Y-16553D01*
X116192Y-16553D01*
X117020Y-16553D02*
X116677Y-16553D01*
X116849Y-16553D02*
X116849Y-15953D01*
X116792Y-16039D01*
X116734Y-16096D01*
X116677Y-16124D01*
G54D16*
X124613Y-15012D02*
X124327Y-15012D01*
X124470Y-15012D02*
X124470Y-14512D01*
X124422Y-14584D01*
X124375Y-14631D01*
X124327Y-14655D01*
X118740Y-14512D02*
X118502Y-14512D01*
X118478Y-14750D01*
X118502Y-14727D01*
X118550Y-14703D01*
X118669Y-14703D01*
X118716Y-14727D01*
X118740Y-14750D01*
X118764Y-14798D01*
X118764Y-14917D01*
X118740Y-14965D01*
X118716Y-14989D01*
X118669Y-15012D01*
X118550Y-15012D01*
X118502Y-14989D01*
X118478Y-14965D01*
X118526Y-14012D02*
X118621Y-14012D01*
X118669Y-13989D01*
X118693Y-13965D01*
X118740Y-13893D01*
X118764Y-13798D01*
X118764Y-13608D01*
X118740Y-13560D01*
X118716Y-13536D01*
X118669Y-13512D01*
X118573Y-13512D01*
X118526Y-13536D01*
X118502Y-13560D01*
X118478Y-13608D01*
X118478Y-13727D01*
X118502Y-13774D01*
X118526Y-13798D01*
X118573Y-13822D01*
X118669Y-13822D01*
X118716Y-13798D01*
X118740Y-13774D01*
X118764Y-13727D01*
X124565Y-13462D02*
X124470Y-13462D01*
X124422Y-13486D01*
X124399Y-13510D01*
X124351Y-13581D01*
X124327Y-13677D01*
X124327Y-13867D01*
X124351Y-13915D01*
X124375Y-13939D01*
X124422Y-13962D01*
X124518Y-13962D01*
X124565Y-13939D01*
X124589Y-13915D01*
X124613Y-13867D01*
X124613Y-13748D01*
X124589Y-13700D01*
X124565Y-13677D01*
X124518Y-13653D01*
X124422Y-13653D01*
X124375Y-13677D01*
X124351Y-13700D01*
X124327Y-13748D01*
G54D13*
X117252Y-21243D02*
X117252Y-20643D01*
X117480Y-20643D01*
X117538Y-20671D01*
X117566Y-20700D01*
X117595Y-20757D01*
X117595Y-20843D01*
X117566Y-20900D01*
X117538Y-20929D01*
X117480Y-20957D01*
X117252Y-20957D01*
X118166Y-21243D02*
X117823Y-21243D01*
X117995Y-21243D02*
X117995Y-20643D01*
X117938Y-20729D01*
X117880Y-20786D01*
X117823Y-20814D01*
X118366Y-20643D02*
X118766Y-20643D01*
X118509Y-21243D01*
X104472Y-21243D02*
X104472Y-20643D01*
X104700Y-20643D01*
X104758Y-20671D01*
X104786Y-20700D01*
X104815Y-20757D01*
X104815Y-20843D01*
X104786Y-20900D01*
X104758Y-20929D01*
X104700Y-20957D01*
X104472Y-20957D01*
X105386Y-21243D02*
X105043Y-21243D01*
X105215Y-21243D02*
X105215Y-20643D01*
X105158Y-20729D01*
X105100Y-20786D01*
X105043Y-20814D01*
X105900Y-20643D02*
X105786Y-20643D01*
X105729Y-20671D01*
X105700Y-20700D01*
X105643Y-20786D01*
X105614Y-20900D01*
X105614Y-21129D01*
X105643Y-21186D01*
X105671Y-21214D01*
X105729Y-21243D01*
X105843Y-21243D01*
X105900Y-21214D01*
X105929Y-21186D01*
X105957Y-21129D01*
X105957Y-20986D01*
X105929Y-20929D01*
X105900Y-20900D01*
X105843Y-20871D01*
X105729Y-20871D01*
X105671Y-20900D01*
X105643Y-20929D01*
X105614Y-20986D01*
X91692Y-21243D02*
X91692Y-20643D01*
X91920Y-20643D01*
X91978Y-20671D01*
X92006Y-20700D01*
X92035Y-20757D01*
X92035Y-20843D01*
X92006Y-20900D01*
X91978Y-20929D01*
X91920Y-20957D01*
X91692Y-20957D01*
X92606Y-21243D02*
X92263Y-21243D01*
X92435Y-21243D02*
X92435Y-20643D01*
X92378Y-20729D01*
X92320Y-20786D01*
X92263Y-20814D01*
X93149Y-20643D02*
X92863Y-20643D01*
X92834Y-20929D01*
X92863Y-20900D01*
X92920Y-20871D01*
X93063Y-20871D01*
X93120Y-20900D01*
X93149Y-20929D01*
X93177Y-20986D01*
X93177Y-21129D01*
X93149Y-21186D01*
X93120Y-21214D01*
X93063Y-21243D01*
X92920Y-21243D01*
X92863Y-21214D01*
X92834Y-21186D01*
X78912Y-21243D02*
X78912Y-20643D01*
X79140Y-20643D01*
X79198Y-20671D01*
X79226Y-20700D01*
X79255Y-20757D01*
X79255Y-20843D01*
X79226Y-20900D01*
X79198Y-20929D01*
X79140Y-20957D01*
X78912Y-20957D01*
X79826Y-21243D02*
X79483Y-21243D01*
X79655Y-21243D02*
X79655Y-20643D01*
X79598Y-20729D01*
X79540Y-20786D01*
X79483Y-20814D01*
X80340Y-20843D02*
X80340Y-21243D01*
X80197Y-20614D02*
X80054Y-21043D01*
X80426Y-21043D01*
X66132Y-21243D02*
X66132Y-20643D01*
X66360Y-20643D01*
X66418Y-20671D01*
X66446Y-20700D01*
X66475Y-20757D01*
X66475Y-20843D01*
X66446Y-20900D01*
X66418Y-20929D01*
X66360Y-20957D01*
X66132Y-20957D01*
X67046Y-21243D02*
X66703Y-21243D01*
X66875Y-21243D02*
X66875Y-20643D01*
X66818Y-20729D01*
X66760Y-20786D01*
X66703Y-20814D01*
X67246Y-20643D02*
X67617Y-20643D01*
X67417Y-20871D01*
X67503Y-20871D01*
X67560Y-20900D01*
X67589Y-20929D01*
X67617Y-20986D01*
X67617Y-21129D01*
X67589Y-21186D01*
X67560Y-21214D01*
X67503Y-21243D01*
X67331Y-21243D01*
X67274Y-21214D01*
X67246Y-21186D01*
X27792Y-21243D02*
X27792Y-20643D01*
X28020Y-20643D01*
X28078Y-20671D01*
X28106Y-20700D01*
X28135Y-20757D01*
X28135Y-20843D01*
X28106Y-20900D01*
X28078Y-20929D01*
X28020Y-20957D01*
X27792Y-20957D01*
X28706Y-21243D02*
X28363Y-21243D01*
X28535Y-21243D02*
X28535Y-20643D01*
X28478Y-20729D01*
X28420Y-20786D01*
X28363Y-20814D01*
X29077Y-20643D02*
X29134Y-20643D01*
X29191Y-20671D01*
X29220Y-20700D01*
X29249Y-20757D01*
X29277Y-20871D01*
X29277Y-21014D01*
X29249Y-21129D01*
X29220Y-21186D01*
X29191Y-21214D01*
X29134Y-21243D01*
X29077Y-21243D01*
X29020Y-21214D01*
X28991Y-21186D01*
X28963Y-21129D01*
X28934Y-21014D01*
X28934Y-20871D01*
X28963Y-20757D01*
X28991Y-20700D01*
X29020Y-20671D01*
X29077Y-20643D01*
X40572Y-21243D02*
X40572Y-20643D01*
X40800Y-20643D01*
X40858Y-20671D01*
X40886Y-20700D01*
X40915Y-20757D01*
X40915Y-20843D01*
X40886Y-20900D01*
X40858Y-20929D01*
X40800Y-20957D01*
X40572Y-20957D01*
X41486Y-21243D02*
X41143Y-21243D01*
X41315Y-21243D02*
X41315Y-20643D01*
X41258Y-20729D01*
X41200Y-20786D01*
X41143Y-20814D01*
X42057Y-21243D02*
X41714Y-21243D01*
X41886Y-21243D02*
X41886Y-20643D01*
X41829Y-20729D01*
X41771Y-20786D01*
X41714Y-20814D01*
X53352Y-21243D02*
X53352Y-20643D01*
X53580Y-20643D01*
X53638Y-20671D01*
X53666Y-20700D01*
X53695Y-20757D01*
X53695Y-20843D01*
X53666Y-20900D01*
X53638Y-20929D01*
X53580Y-20957D01*
X53352Y-20957D01*
X54266Y-21243D02*
X53923Y-21243D01*
X54095Y-21243D02*
X54095Y-20643D01*
X54038Y-20729D01*
X53980Y-20786D01*
X53923Y-20814D01*
X54494Y-20700D02*
X54523Y-20671D01*
X54580Y-20643D01*
X54723Y-20643D01*
X54780Y-20671D01*
X54809Y-20700D01*
X54837Y-20757D01*
X54837Y-20814D01*
X54809Y-20900D01*
X54466Y-21243D01*
X54837Y-21243D01*
M02*
