G04 (created by PCBnew (20090216-final)) date Tue 28 Dec 2010 04:35:51 PM PST*
G01*
G70*
G90*
%MOIN*%
G04 Gerber Fmt 3.4, Leading zero omitted, Abs format*
%FSLAX34Y34*%
G04 APERTURE LIST*
%ADD10C,0.009000*%
%ADD11C,0.070000*%
%ADD12C,0.060000*%
%ADD13C,0.200000*%
%ADD14C,0.076700*%
%ADD15C,0.073000*%
%ADD16R,0.073000X0.073000*%
%ADD17C,0.109500*%
%ADD18C,0.300000*%
%ADD19C,0.500000*%
%ADD20C,0.100000*%
%ADD21C,0.035000*%
%ADD22C,0.008000*%
%ADD23C,0.010000*%
%ADD24C,0.020000*%
%ADD25C,0.005000*%
%ADD26C,0.012000*%
%ADD27C,0.015000*%
%ADD28C,0.006000*%
%ADD29C,0.032000*%
%ADD30C,0.090000*%
%ADD31C,0.080000*%
%ADD32C,0.096700*%
%ADD33C,0.093000*%
%ADD34R,0.093000X0.093000*%
%ADD35C,0.129500*%
%ADD36C,0.320000*%
%ADD37C,0.520000*%
%ADD38C,0.120000*%
G04 APERTURE END LIST*
G54D10*
X105100Y-09950D02*
X105100Y-67000D01*
X11100Y-09950D02*
X11100Y-67000D01*
X95190Y-67000D02*
X105100Y-67000D01*
X21010Y-67010D02*
X11100Y-67010D01*
X11100Y-09950D02*
X12100Y-09950D01*
X105100Y-09950D02*
X104100Y-09950D01*
X12100Y-09950D02*
X104100Y-09950D01*
X95191Y-67002D02*
X96886Y-59027D01*
X96886Y-59027D02*
X96886Y-50873D01*
X96886Y-50873D02*
X95191Y-42898D01*
X95191Y-42898D02*
X91875Y-35450D01*
X91875Y-35450D02*
X87083Y-28854D01*
X87083Y-28854D02*
X81024Y-23398D01*
X81024Y-23398D02*
X73963Y-19322D01*
X73963Y-19322D02*
X66209Y-16802D01*
X66209Y-16802D02*
X58100Y-15950D01*
X58100Y-15950D02*
X49991Y-16802D01*
X49991Y-16802D02*
X42237Y-19322D01*
X42237Y-19322D02*
X35176Y-23398D01*
X35176Y-23398D02*
X29117Y-28854D01*
X29117Y-28854D02*
X24325Y-35450D01*
X24325Y-35450D02*
X21009Y-42898D01*
X21009Y-42898D02*
X19314Y-50873D01*
X19314Y-50873D02*
X19314Y-59027D01*
X19314Y-59027D02*
X21009Y-67002D01*
G36*
X91064Y-22941D02*
X90428Y-23577D01*
X89792Y-22941D01*
X90428Y-22305D01*
X91064Y-22941D01*
G37*
G54D30*
X89721Y-23648D03*
X89721Y-22234D03*
X89014Y-22941D03*
X89014Y-21526D03*
X88306Y-22234D03*
X88306Y-20819D03*
X87599Y-21526D03*
X87599Y-20112D03*
X86892Y-20819D03*
G54D31*
X95760Y-14750D03*
X94680Y-14750D03*
X93600Y-14750D03*
X92520Y-14750D03*
X91440Y-14750D03*
X95220Y-13750D03*
X94140Y-13750D03*
X93060Y-13750D03*
X91980Y-13750D03*
G54D32*
X100300Y-18048D03*
X100300Y-21000D03*
X100300Y-23952D03*
X99316Y-19032D03*
X99316Y-22968D03*
X104237Y-20016D03*
X104237Y-21984D03*
G54D33*
X97000Y-27200D03*
G54D34*
X97000Y-26200D03*
G54D35*
X99000Y-30100D03*
X97000Y-30100D03*
X95000Y-30100D03*
X104000Y-31100D03*
X104000Y-29100D03*
G36*
X97605Y-57255D02*
X98396Y-57380D01*
X98271Y-58171D01*
X97480Y-58046D01*
X97605Y-57255D01*
G37*
G54D31*
X97781Y-58701D03*
X97625Y-59688D03*
X97468Y-60676D03*
X97312Y-61664D03*
X97155Y-62652D03*
X96999Y-63639D03*
X96842Y-64627D03*
G36*
X96384Y-44940D02*
X97175Y-44815D01*
X97300Y-45606D01*
X96509Y-45731D01*
X96384Y-44940D01*
G37*
X96999Y-46261D03*
X97155Y-47248D03*
X97312Y-48236D03*
X97468Y-49224D03*
X97625Y-50212D03*
X97781Y-51199D03*
X97938Y-52187D03*
G36*
X91413Y-33596D02*
X92126Y-33233D01*
X92489Y-33946D01*
X91776Y-34309D01*
X91413Y-33596D01*
G37*
X92405Y-34662D03*
X92859Y-35553D03*
X93313Y-36444D03*
X93767Y-37336D03*
X94221Y-38227D03*
X94675Y-39118D03*
X95129Y-40009D03*
G36*
X83189Y-24345D02*
X83755Y-23779D01*
X84321Y-24345D01*
X83755Y-24911D01*
X83189Y-24345D01*
G37*
X84462Y-25052D03*
X85169Y-25759D03*
X85876Y-26466D03*
X86584Y-27174D03*
X87291Y-27881D03*
X87998Y-28588D03*
X88705Y-29295D03*
G36*
X72503Y-18096D02*
X72866Y-17383D01*
X73579Y-17746D01*
X73216Y-18459D01*
X72503Y-18096D01*
G37*
X73932Y-18375D03*
X74823Y-18829D03*
X75714Y-19283D03*
X76606Y-19737D03*
X77497Y-20191D03*
X78388Y-20645D03*
X79279Y-21099D03*
G36*
X60405Y-15445D02*
X60530Y-14654D01*
X61321Y-14779D01*
X61196Y-15570D01*
X60405Y-15445D01*
G37*
X61851Y-15269D03*
X62838Y-15425D03*
X63826Y-15582D03*
X64814Y-15738D03*
X65802Y-15895D03*
X66789Y-16051D03*
X67777Y-16208D03*
G36*
X48090Y-16666D02*
X47965Y-15875D01*
X48756Y-15750D01*
X48881Y-16541D01*
X48090Y-16666D01*
G37*
X49411Y-16051D03*
X50398Y-15895D03*
X51386Y-15738D03*
X52374Y-15582D03*
X53362Y-15425D03*
X54349Y-15269D03*
X55337Y-15112D03*
G36*
X36796Y-21637D02*
X36433Y-20924D01*
X37146Y-20561D01*
X37509Y-21274D01*
X36796Y-21637D01*
G37*
X37862Y-20645D03*
X38753Y-20191D03*
X39644Y-19737D03*
X40536Y-19283D03*
X41427Y-18829D03*
X42318Y-18375D03*
X43209Y-17921D03*
G36*
X27495Y-29861D02*
X26929Y-29295D01*
X27495Y-28729D01*
X28061Y-29295D01*
X27495Y-29861D01*
G37*
X28202Y-28588D03*
X28909Y-27881D03*
X29616Y-27174D03*
X30324Y-26466D03*
X31031Y-25759D03*
X31738Y-25052D03*
X32445Y-24345D03*
G36*
X21246Y-40547D02*
X20533Y-40184D01*
X20896Y-39471D01*
X21609Y-39834D01*
X21246Y-40547D01*
G37*
X21525Y-39118D03*
X21979Y-38227D03*
X22433Y-37336D03*
X22887Y-36444D03*
X23341Y-35553D03*
X23795Y-34662D03*
X24249Y-33771D03*
G36*
X18595Y-52645D02*
X17804Y-52520D01*
X17929Y-51729D01*
X18720Y-51854D01*
X18595Y-52645D01*
G37*
X18419Y-51199D03*
X18575Y-50212D03*
X18732Y-49224D03*
X18888Y-48236D03*
X19045Y-47248D03*
X19201Y-46261D03*
X19358Y-45273D03*
G36*
X19816Y-64960D02*
X19025Y-65085D01*
X18900Y-64294D01*
X19691Y-64169D01*
X19816Y-64960D01*
G37*
X19201Y-63639D03*
X19045Y-62652D03*
X18888Y-61664D03*
X18732Y-60676D03*
X18575Y-59688D03*
X18419Y-58701D03*
X18262Y-57713D03*
G54D36*
X103100Y-14950D03*
X103100Y-34950D03*
X103100Y-44950D03*
X103100Y-54950D03*
X103100Y-64950D03*
X13100Y-34950D03*
X13100Y-14950D03*
X13100Y-44950D03*
X13100Y-24950D03*
X13100Y-54950D03*
X13100Y-64950D03*
G54D37*
X83100Y-14950D03*
X33100Y-14950D03*
G54D38*
X20990Y-19960D03*
X22990Y-19960D03*
X72960Y-13190D03*
X74960Y-13190D03*
M02*
