M48
;DRILL file {PCBnew (2010-03-14)-final} date Tue 08 Feb 2011 05:29:48 PM PST
;FORMAT={2:4/ absolute / inch / suppress trailing zeros}
R,T
VER,1
FMAT,2
INCH,LZ
TCST,OFF
ICI,OFF
ATC,ON
T1C0.040
T2C0.200
%
M47
G05
M72
T1
X014495Y-050653
X014495Y-057347
X014652Y-049665
X014652Y-058335
X014808Y-048678
X014808Y-059322
X014965Y-04769
X014965Y-06031
X015121Y-046702
X015121Y-061298
X015278Y-045714
X015278Y-062286
X015434Y-044727
X015434Y-063273
X015591Y-043739
X015591Y-064261
X017659Y-037374
X018113Y-036483
X018567Y-035592
X019021Y-034701
X019475Y-033809
X019929Y-032918
X020383Y-032027
X020837Y-031136
X024771Y-025721
X025478Y-025014
X026185Y-024307
X026892Y-0236
X0276Y-022892
X028307Y-022185
X029014Y-021478
X029721Y-020771
X035136Y-016837
X036027Y-016383
X036918Y-015929
X037809Y-015475
X038701Y-015021
X039592Y-014567
X040483Y-014113
X041374Y-013659
X047739Y-011591
X048727Y-011434
X049714Y-011278
X050702Y-011121
X05169Y-010965
X052678Y-010808
X053665Y-010652
X054653Y-010495
X061347Y-010495
X062335Y-010652
X063322Y-010808
X06431Y-010965
X065298Y-011121
X066286Y-011278
X067273Y-011434
X068261Y-011591
X074626Y-013659
X075517Y-014113
X076408Y-014567
X077299Y-015021
X078191Y-015475
X079082Y-015929
X079973Y-016383
X080864Y-016837
X086279Y-020771
X086986Y-021478
X087693Y-022185
X0884Y-022892
X089108Y-0236
X089815Y-024307
X090522Y-025014
X091229Y-025721
X095163Y-031136
X095617Y-032027
X096071Y-032918
X096525Y-033809
X096979Y-034701
X097433Y-035592
X097887Y-036483
X098341Y-037374
X100409Y-043739
X100409Y-064261
X100566Y-044727
X100566Y-063273
X100722Y-045714
X100722Y-062286
X100879Y-046702
X100879Y-061298
X101035Y-04769
X101035Y-06031
X101192Y-048678
X101192Y-059322
X101348Y-049665
X101348Y-058335
X101505Y-050653
X101505Y-057347
T2
X008Y-014
X008Y-024
X008Y-034
X008Y-044
X008Y-054
X008Y-064
X108Y-014
X108Y-034
X108Y-044
X108Y-054
X108Y-064
T0
M30
