G04 (created by PCBNEW-RS274X (2010-03-14)-final) date Tue 08 Feb 2011 05:29:44 PM PST*
G01*
G70*
G90*
%MOIN*%
G04 Gerber Fmt 3.4, Leading zero omitted, Abs format*
%FSLAX34Y34*%
G04 APERTURE LIST*
%ADD10C,0.006000*%
%ADD11C,0.009000*%
%ADD12C,0.300000*%
%ADD13C,0.060000*%
%ADD14C,0.010000*%
G04 APERTURE END LIST*
G54D10*
G54D11*
X110500Y-68000D02*
X96474Y-68000D01*
X05500Y-68000D02*
X19526Y-68000D01*
X96472Y-68002D02*
X97546Y-64596D01*
X98319Y-61109D01*
X98786Y-57568D01*
X98942Y-54000D01*
X98786Y-50432D01*
X98319Y-46891D01*
X97546Y-43404D01*
X96472Y-39998D01*
X95106Y-36698D01*
X93456Y-33529D01*
X91537Y-30517D01*
X89363Y-27683D01*
X86950Y-25050D01*
X84317Y-22637D01*
X81483Y-20463D01*
X78471Y-18544D01*
X75302Y-16894D01*
X72002Y-15528D01*
X68596Y-14454D01*
X65109Y-13681D01*
X61568Y-13214D01*
X58000Y-13058D01*
X54432Y-13214D01*
X50891Y-13681D01*
X47404Y-14454D01*
X43998Y-15528D01*
X40698Y-16894D01*
X37529Y-18544D01*
X34517Y-20463D01*
X31683Y-22637D01*
X29050Y-25050D01*
X26637Y-27683D01*
X24463Y-30517D01*
X22544Y-33529D01*
X20894Y-36698D01*
X19528Y-39998D01*
X18454Y-43404D01*
X17681Y-46891D01*
X17214Y-50432D01*
X17058Y-54000D01*
X17214Y-57568D01*
X17681Y-61109D01*
X18454Y-64596D01*
X19528Y-68002D01*
X110500Y-08000D02*
X110500Y-68000D01*
X05500Y-08000D02*
X110500Y-08000D01*
X05500Y-68000D02*
X05500Y-08000D01*
G54D12*
X108000Y-14000D03*
X108000Y-34000D03*
X108000Y-44000D03*
X108000Y-54000D03*
X108000Y-64000D03*
X08000Y-34000D03*
X08000Y-14000D03*
X08000Y-44000D03*
X08000Y-24000D03*
X08000Y-54000D03*
X08000Y-64000D03*
G54D10*
G36*
X15934Y-64510D02*
X15342Y-64604D01*
X15248Y-64012D01*
X15840Y-63918D01*
X15934Y-64510D01*
X15934Y-64510D01*
G37*
G54D13*
X15434Y-63273D03*
X15278Y-62286D03*
X15121Y-61298D03*
X14965Y-60310D03*
X14808Y-59322D03*
X14652Y-58335D03*
X14495Y-57347D03*
G54D10*
G36*
X14744Y-50996D02*
X14152Y-50902D01*
X14246Y-50310D01*
X14838Y-50404D01*
X14744Y-50996D01*
X14744Y-50996D01*
G37*
G54D13*
X14652Y-49665D03*
X14808Y-48678D03*
X14965Y-47690D03*
X15121Y-46702D03*
X15278Y-45714D03*
X15434Y-44727D03*
X15591Y-43739D03*
G54D10*
G36*
X17790Y-37777D02*
X17256Y-37505D01*
X17528Y-36971D01*
X18062Y-37243D01*
X17790Y-37777D01*
X17790Y-37777D01*
G37*
G54D13*
X18113Y-36483D03*
X18567Y-35592D03*
X19021Y-34701D03*
X19475Y-33809D03*
X19929Y-32918D03*
X20383Y-32027D03*
X20837Y-31136D03*
G54D10*
G36*
X24771Y-26145D02*
X24347Y-25721D01*
X24771Y-25297D01*
X25195Y-25721D01*
X24771Y-26145D01*
X24771Y-26145D01*
G37*
G54D13*
X25478Y-25014D03*
X26185Y-24307D03*
X26892Y-23600D03*
X27600Y-22892D03*
X28307Y-22185D03*
X29014Y-21478D03*
X29721Y-20771D03*
G54D10*
G36*
X35005Y-17240D02*
X34733Y-16706D01*
X35267Y-16434D01*
X35539Y-16968D01*
X35005Y-17240D01*
X35005Y-17240D01*
G37*
G54D13*
X36027Y-16383D03*
X36918Y-15929D03*
X37809Y-15475D03*
X38701Y-15021D03*
X39592Y-14567D03*
X40483Y-14113D03*
X41374Y-13659D03*
G54D10*
G36*
X47490Y-11934D02*
X47396Y-11342D01*
X47988Y-11248D01*
X48082Y-11840D01*
X47490Y-11934D01*
X47490Y-11934D01*
G37*
G54D13*
X48727Y-11434D03*
X49714Y-11278D03*
X50702Y-11121D03*
X51690Y-10965D03*
X52678Y-10808D03*
X53665Y-10652D03*
X54653Y-10495D03*
G54D10*
G36*
X61004Y-10744D02*
X61098Y-10152D01*
X61690Y-10246D01*
X61596Y-10838D01*
X61004Y-10744D01*
X61004Y-10744D01*
G37*
G54D13*
X62335Y-10652D03*
X63322Y-10808D03*
X64310Y-10965D03*
X65298Y-11121D03*
X66286Y-11278D03*
X67273Y-11434D03*
X68261Y-11591D03*
G54D10*
G36*
X74223Y-13790D02*
X74495Y-13256D01*
X75029Y-13528D01*
X74757Y-14062D01*
X74223Y-13790D01*
X74223Y-13790D01*
G37*
G54D13*
X75517Y-14113D03*
X76408Y-14567D03*
X77299Y-15021D03*
X78191Y-15475D03*
X79082Y-15929D03*
X79973Y-16383D03*
X80864Y-16837D03*
G54D10*
G36*
X85855Y-20771D02*
X86279Y-20347D01*
X86703Y-20771D01*
X86279Y-21195D01*
X85855Y-20771D01*
X85855Y-20771D01*
G37*
G54D13*
X86986Y-21478D03*
X87693Y-22185D03*
X88400Y-22892D03*
X89108Y-23600D03*
X89815Y-24307D03*
X90522Y-25014D03*
X91229Y-25721D03*
G54D10*
G36*
X94760Y-31005D02*
X95294Y-30733D01*
X95566Y-31267D01*
X95032Y-31539D01*
X94760Y-31005D01*
X94760Y-31005D01*
G37*
G54D13*
X95617Y-32027D03*
X96071Y-32918D03*
X96525Y-33809D03*
X96979Y-34701D03*
X97433Y-35592D03*
X97887Y-36483D03*
X98341Y-37374D03*
G54D10*
G36*
X100066Y-43490D02*
X100658Y-43396D01*
X100752Y-43988D01*
X100160Y-44082D01*
X100066Y-43490D01*
X100066Y-43490D01*
G37*
G54D13*
X100566Y-44727D03*
X100722Y-45714D03*
X100879Y-46702D03*
X101035Y-47690D03*
X101192Y-48678D03*
X101348Y-49665D03*
X101505Y-50653D03*
G54D10*
G36*
X101256Y-57004D02*
X101848Y-57098D01*
X101754Y-57690D01*
X101162Y-57596D01*
X101256Y-57004D01*
X101256Y-57004D01*
G37*
G54D13*
X101348Y-58335D03*
X101192Y-59322D03*
X101035Y-60310D03*
X100879Y-61298D03*
X100722Y-62286D03*
X100566Y-63273D03*
X100409Y-64261D03*
G54D14*
X05745Y-08245D02*
X110255Y-08245D01*
X05745Y-08325D02*
X110255Y-08325D01*
X05745Y-08405D02*
X110255Y-08405D01*
X05745Y-08485D02*
X110255Y-08485D01*
X05745Y-08565D02*
X110255Y-08565D01*
X05745Y-08645D02*
X110255Y-08645D01*
X05745Y-08725D02*
X110255Y-08725D01*
X05745Y-08805D02*
X110255Y-08805D01*
X05745Y-08885D02*
X110255Y-08885D01*
X05745Y-08965D02*
X110255Y-08965D01*
X05745Y-09045D02*
X110255Y-09045D01*
X05745Y-09125D02*
X110255Y-09125D01*
X05745Y-09205D02*
X110255Y-09205D01*
X05745Y-09285D02*
X110255Y-09285D01*
X05745Y-09365D02*
X110255Y-09365D01*
X05745Y-09445D02*
X110255Y-09445D01*
X05745Y-09525D02*
X110255Y-09525D01*
X05745Y-09605D02*
X110255Y-09605D01*
X05745Y-09685D02*
X110255Y-09685D01*
X05745Y-09765D02*
X110255Y-09765D01*
X05745Y-09845D02*
X110255Y-09845D01*
X05745Y-09925D02*
X60986Y-09925D01*
X61259Y-09925D02*
X110255Y-09925D01*
X05745Y-10005D02*
X54414Y-10005D01*
X54866Y-10005D02*
X60896Y-10005D01*
X61761Y-10005D02*
X110255Y-10005D01*
X05745Y-10085D02*
X54301Y-10085D01*
X54889Y-10085D02*
X60857Y-10085D01*
X61882Y-10085D02*
X110255Y-10085D01*
X05745Y-10165D02*
X53407Y-10165D01*
X53924Y-10165D02*
X54291Y-10165D01*
X54831Y-10165D02*
X54955Y-10165D01*
X55088Y-10165D02*
X60844Y-10165D01*
X61928Y-10165D02*
X62077Y-10165D01*
X62594Y-10165D02*
X110255Y-10165D01*
X05745Y-10245D02*
X53296Y-10245D01*
X54034Y-10245D02*
X54394Y-10245D01*
X54772Y-10245D02*
X54897Y-10245D01*
X55137Y-10245D02*
X60831Y-10245D01*
X61942Y-10245D02*
X61966Y-10245D01*
X62704Y-10245D02*
X110255Y-10245D01*
X05745Y-10325D02*
X52411Y-10325D01*
X52946Y-10325D02*
X53216Y-10325D01*
X54114Y-10325D02*
X54137Y-10325D01*
X54335Y-10325D02*
X54504Y-10325D01*
X54714Y-10325D02*
X54839Y-10325D01*
X55167Y-10325D02*
X60819Y-10325D01*
X62784Y-10325D02*
X63055Y-10325D01*
X63590Y-10325D02*
X110255Y-10325D01*
X05745Y-10405D02*
X52305Y-10405D01*
X53051Y-10405D02*
X53174Y-10405D01*
X54445Y-10405D02*
X54614Y-10405D01*
X54656Y-10405D02*
X54781Y-10405D01*
X55185Y-10405D02*
X60806Y-10405D01*
X62827Y-10405D02*
X62949Y-10405D01*
X63695Y-10405D02*
X110255Y-10405D01*
X05745Y-10485D02*
X51416Y-10485D01*
X51965Y-10485D02*
X52225Y-10485D01*
X53131Y-10485D02*
X53140Y-10485D01*
X54555Y-10485D02*
X54724Y-10485D01*
X55202Y-10485D02*
X60793Y-10485D01*
X62860Y-10485D02*
X62869Y-10485D01*
X63775Y-10485D02*
X64036Y-10485D01*
X64585Y-10485D02*
X110255Y-10485D01*
X05745Y-10565D02*
X51314Y-10565D01*
X52066Y-10565D02*
X52185Y-10565D01*
X54540Y-10565D02*
X54664Y-10565D01*
X54664Y-10565D02*
X54834Y-10565D01*
X55187Y-10565D02*
X60780Y-10565D01*
X63816Y-10565D02*
X63934Y-10565D01*
X64686Y-10565D02*
X110255Y-10565D01*
X05745Y-10645D02*
X50418Y-10645D01*
X50987Y-10645D02*
X51234Y-10645D01*
X52146Y-10645D02*
X52151Y-10645D01*
X54481Y-10645D02*
X54606Y-10645D01*
X54774Y-10645D02*
X54944Y-10645D01*
X55172Y-10645D02*
X60768Y-10645D01*
X63849Y-10645D02*
X63854Y-10645D01*
X64766Y-10645D02*
X65014Y-10645D01*
X65583Y-10645D02*
X110255Y-10645D01*
X05745Y-10725D02*
X50322Y-10725D01*
X51082Y-10725D02*
X51196Y-10725D01*
X54423Y-10725D02*
X54548Y-10725D01*
X54884Y-10725D02*
X55054Y-10725D01*
X55106Y-10725D02*
X60755Y-10725D01*
X64805Y-10725D02*
X64918Y-10725D01*
X65678Y-10725D02*
X110255Y-10725D01*
X05745Y-10805D02*
X49423Y-10805D01*
X50006Y-10805D02*
X50242Y-10805D01*
X54194Y-10805D02*
X54205Y-10805D01*
X54365Y-10805D02*
X54490Y-10805D01*
X54994Y-10805D02*
X60762Y-10805D01*
X65758Y-10805D02*
X65995Y-10805D01*
X66578Y-10805D02*
X110255Y-10805D01*
X05745Y-10885D02*
X48618Y-10885D01*
X48836Y-10885D02*
X49331Y-10885D01*
X50097Y-10885D02*
X50206Y-10885D01*
X54161Y-10885D02*
X54432Y-10885D01*
X55008Y-10885D02*
X60797Y-10885D01*
X65795Y-10885D02*
X65903Y-10885D01*
X66669Y-10885D02*
X67164Y-10885D01*
X67382Y-10885D02*
X110255Y-10885D01*
X05745Y-10965D02*
X48426Y-10965D01*
X49029Y-10965D02*
X49251Y-10965D01*
X54128Y-10965D02*
X54430Y-10965D01*
X54924Y-10965D02*
X60887Y-10965D01*
X61810Y-10965D02*
X61872Y-10965D01*
X66749Y-10965D02*
X66972Y-10965D01*
X67575Y-10965D02*
X110255Y-10965D01*
X05745Y-11045D02*
X47674Y-11045D01*
X48134Y-11045D02*
X48340Y-11045D01*
X49114Y-11045D02*
X49217Y-11045D01*
X53173Y-11045D02*
X53282Y-11045D01*
X54048Y-11045D02*
X61309Y-11045D01*
X61736Y-11045D02*
X61952Y-11045D01*
X62717Y-11045D02*
X62826Y-11045D01*
X66784Y-11045D02*
X66886Y-11045D01*
X67660Y-11045D02*
X68211Y-11045D01*
X68211Y-11045D02*
X110255Y-11045D01*
X05745Y-11125D02*
X47273Y-11125D01*
X48206Y-11125D02*
X48262Y-11125D01*
X52217Y-11125D02*
X52219Y-11125D01*
X53137Y-11125D02*
X53373Y-11125D01*
X53956Y-11125D02*
X62043Y-11125D01*
X62626Y-11125D02*
X62863Y-11125D01*
X63780Y-11125D02*
X63781Y-11125D01*
X67739Y-11125D02*
X68037Y-11125D01*
X68531Y-11125D02*
X110255Y-11125D01*
X05745Y-11205D02*
X47187Y-11205D01*
X52184Y-11205D02*
X52299Y-11205D01*
X53057Y-11205D02*
X62943Y-11205D01*
X63700Y-11205D02*
X63815Y-11205D01*
X67773Y-11205D02*
X68042Y-11205D01*
X68617Y-11205D02*
X110255Y-11205D01*
X05745Y-11285D02*
X47154Y-11285D01*
X51226Y-11285D02*
X51234Y-11285D01*
X52146Y-11285D02*
X52395Y-11285D01*
X52960Y-11285D02*
X63039Y-11285D01*
X63604Y-11285D02*
X63854Y-11285D01*
X64765Y-11285D02*
X64772Y-11285D01*
X67806Y-11285D02*
X67814Y-11285D01*
X67977Y-11285D02*
X68100Y-11285D01*
X68596Y-11285D02*
X110255Y-11285D01*
X05745Y-11365D02*
X47147Y-11365D01*
X51194Y-11365D02*
X51314Y-11365D01*
X52066Y-11365D02*
X63934Y-11365D01*
X64685Y-11365D02*
X64805Y-11365D01*
X68035Y-11365D02*
X68158Y-11365D01*
X68486Y-11365D02*
X68657Y-11365D01*
X68723Y-11365D02*
X110255Y-11365D01*
X05745Y-11445D02*
X47159Y-11445D01*
X50238Y-11445D02*
X50250Y-11445D01*
X51154Y-11445D02*
X51415Y-11445D01*
X51964Y-11445D02*
X64035Y-11445D01*
X64584Y-11445D02*
X64846Y-11445D01*
X65749Y-11445D02*
X65760Y-11445D01*
X68093Y-11445D02*
X68216Y-11445D01*
X68376Y-11445D02*
X68547Y-11445D01*
X68785Y-11445D02*
X110255Y-11445D01*
X05745Y-11525D02*
X47172Y-11525D01*
X50205Y-11525D02*
X50330Y-11525D01*
X51074Y-11525D02*
X64926Y-11525D01*
X65669Y-11525D02*
X65794Y-11525D01*
X68151Y-11525D02*
X68437Y-11525D01*
X68804Y-11525D02*
X110255Y-11525D01*
X05745Y-11605D02*
X47184Y-11605D01*
X49249Y-11605D02*
X49265Y-11605D01*
X50163Y-11605D02*
X50436Y-11605D01*
X50967Y-11605D02*
X65032Y-11605D01*
X65563Y-11605D02*
X65837Y-11605D01*
X66734Y-11605D02*
X66749Y-11605D01*
X68156Y-11605D02*
X68333Y-11605D01*
X68800Y-11605D02*
X110255Y-11605D01*
X05745Y-11685D02*
X47197Y-11685D01*
X49216Y-11685D02*
X49345Y-11685D01*
X50083Y-11685D02*
X65917Y-11685D01*
X66654Y-11685D02*
X66782Y-11685D01*
X68046Y-11685D02*
X68217Y-11685D01*
X68268Y-11685D02*
X68391Y-11685D01*
X68792Y-11685D02*
X110255Y-11685D01*
X05745Y-11765D02*
X47210Y-11765D01*
X49172Y-11765D02*
X49455Y-11765D01*
X49972Y-11765D02*
X66027Y-11765D01*
X66544Y-11765D02*
X66828Y-11765D01*
X67718Y-11765D02*
X67743Y-11765D01*
X67936Y-11765D02*
X68107Y-11765D01*
X68326Y-11765D02*
X68449Y-11765D01*
X68779Y-11765D02*
X110255Y-11765D01*
X05745Y-11845D02*
X47222Y-11845D01*
X48336Y-11845D02*
X48362Y-11845D01*
X49092Y-11845D02*
X66908Y-11845D01*
X67638Y-11845D02*
X67997Y-11845D01*
X68384Y-11845D02*
X68507Y-11845D01*
X68735Y-11845D02*
X110255Y-11845D01*
X05745Y-11925D02*
X47235Y-11925D01*
X48318Y-11925D02*
X48478Y-11925D01*
X48975Y-11925D02*
X67024Y-11925D01*
X67521Y-11925D02*
X67899Y-11925D01*
X68443Y-11925D02*
X68565Y-11925D01*
X68692Y-11925D02*
X110255Y-11925D01*
X05745Y-12005D02*
X47248Y-12005D01*
X48270Y-12005D02*
X67909Y-12005D01*
X68501Y-12005D02*
X110255Y-12005D01*
X05745Y-12085D02*
X47289Y-12085D01*
X48132Y-12085D02*
X68042Y-12085D01*
X68471Y-12085D02*
X110255Y-12085D01*
X05745Y-12165D02*
X47383Y-12165D01*
X47627Y-12165D02*
X110255Y-12165D01*
X05745Y-12245D02*
X110255Y-12245D01*
X05745Y-12325D02*
X07565Y-12325D01*
X08449Y-12325D02*
X107565Y-12325D01*
X108449Y-12325D02*
X110255Y-12325D01*
X05745Y-12405D02*
X07366Y-12405D01*
X08636Y-12405D02*
X107366Y-12405D01*
X108636Y-12405D02*
X110255Y-12405D01*
X05745Y-12485D02*
X07168Y-12485D01*
X08824Y-12485D02*
X107168Y-12485D01*
X108824Y-12485D02*
X110255Y-12485D01*
X05745Y-12565D02*
X07005Y-12565D01*
X08996Y-12565D02*
X107005Y-12565D01*
X108996Y-12565D02*
X110255Y-12565D01*
X05745Y-12645D02*
X06942Y-12645D01*
X09059Y-12645D02*
X106942Y-12645D01*
X109059Y-12645D02*
X110255Y-12645D01*
X05745Y-12725D02*
X06879Y-12725D01*
X09122Y-12725D02*
X106879Y-12725D01*
X109122Y-12725D02*
X110255Y-12725D01*
X05745Y-12805D02*
X06875Y-12805D01*
X09124Y-12805D02*
X106875Y-12805D01*
X109124Y-12805D02*
X110255Y-12805D01*
X05745Y-12885D02*
X06718Y-12885D01*
X06815Y-12885D02*
X06955Y-12885D01*
X09044Y-12885D02*
X09186Y-12885D01*
X09283Y-12885D02*
X59638Y-12885D01*
X59953Y-12885D02*
X106718Y-12885D01*
X106815Y-12885D02*
X106955Y-12885D01*
X109044Y-12885D02*
X109186Y-12885D01*
X109283Y-12885D02*
X110255Y-12885D01*
X05745Y-12965D02*
X06615Y-12965D01*
X06895Y-12965D02*
X07035Y-12965D01*
X08964Y-12965D02*
X09106Y-12965D01*
X09386Y-12965D02*
X59115Y-12965D01*
X60279Y-12965D02*
X106615Y-12965D01*
X106895Y-12965D02*
X107035Y-12965D01*
X108964Y-12965D02*
X109106Y-12965D01*
X109386Y-12965D02*
X110255Y-12965D01*
X05745Y-13045D02*
X06541Y-13045D01*
X06975Y-13045D02*
X07115Y-13045D01*
X08884Y-13045D02*
X09026Y-13045D01*
X09466Y-13045D02*
X58592Y-13045D01*
X60605Y-13045D02*
X74359Y-13045D01*
X74631Y-13045D02*
X106541Y-13045D01*
X106975Y-13045D02*
X107115Y-13045D01*
X108884Y-13045D02*
X109026Y-13045D01*
X109466Y-13045D02*
X110255Y-13045D01*
X05745Y-13125D02*
X06507Y-13125D01*
X07055Y-13125D02*
X07195Y-13125D01*
X08804Y-13125D02*
X08946Y-13125D01*
X09499Y-13125D02*
X41304Y-13125D01*
X41424Y-13125D02*
X58069Y-13125D01*
X60931Y-13125D02*
X74283Y-13125D01*
X74788Y-13125D02*
X106507Y-13125D01*
X107055Y-13125D02*
X107195Y-13125D01*
X108804Y-13125D02*
X108946Y-13125D01*
X109499Y-13125D02*
X110255Y-13125D01*
X05745Y-13205D02*
X06473Y-13205D01*
X07135Y-13205D02*
X07275Y-13205D01*
X08724Y-13205D02*
X08866Y-13205D01*
X09531Y-13205D02*
X41084Y-13205D01*
X41468Y-13205D02*
X41614Y-13205D01*
X41679Y-13205D02*
X57546Y-13205D01*
X61256Y-13205D02*
X74242Y-13205D01*
X74945Y-13205D02*
X106473Y-13205D01*
X107135Y-13205D02*
X107275Y-13205D01*
X108724Y-13205D02*
X108866Y-13205D01*
X109531Y-13205D02*
X110255Y-13205D01*
X05745Y-13285D02*
X06439Y-13285D01*
X07215Y-13285D02*
X07355Y-13285D01*
X08644Y-13285D02*
X08786Y-13285D01*
X09563Y-13285D02*
X40980Y-13285D01*
X41442Y-13285D02*
X41548Y-13285D01*
X41772Y-13285D02*
X57023Y-13285D01*
X61582Y-13285D02*
X74201Y-13285D01*
X75101Y-13285D02*
X106439Y-13285D01*
X107215Y-13285D02*
X107355Y-13285D01*
X108644Y-13285D02*
X108786Y-13285D01*
X109563Y-13285D02*
X110255Y-13285D01*
X05745Y-13365D02*
X06405Y-13365D01*
X07295Y-13365D02*
X07435Y-13365D01*
X08564Y-13365D02*
X08706Y-13365D01*
X09595Y-13365D02*
X40911Y-13365D01*
X41416Y-13365D02*
X41522Y-13365D01*
X41826Y-13365D02*
X56501Y-13365D01*
X61908Y-13365D02*
X74160Y-13365D01*
X75218Y-13365D02*
X106405Y-13365D01*
X107295Y-13365D02*
X107435Y-13365D01*
X108564Y-13365D02*
X108706Y-13365D01*
X109595Y-13365D02*
X110255Y-13365D01*
X05745Y-13445D02*
X06371Y-13445D01*
X07375Y-13445D02*
X07515Y-13445D01*
X08484Y-13445D02*
X08626Y-13445D01*
X09627Y-13445D02*
X40924Y-13445D01*
X41390Y-13445D02*
X41496Y-13445D01*
X41873Y-13445D02*
X55978Y-13445D01*
X62234Y-13445D02*
X74119Y-13445D01*
X75265Y-13445D02*
X106371Y-13445D01*
X107375Y-13445D02*
X107515Y-13445D01*
X108484Y-13445D02*
X108626Y-13445D01*
X109627Y-13445D02*
X110255Y-13445D01*
X05745Y-13525D02*
X06337Y-13525D01*
X07455Y-13525D02*
X07595Y-13525D01*
X08404Y-13525D02*
X08546Y-13525D01*
X09660Y-13525D02*
X41122Y-13525D01*
X41364Y-13525D02*
X41471Y-13525D01*
X41900Y-13525D02*
X55455Y-13525D01*
X62559Y-13525D02*
X74079Y-13525D01*
X75279Y-13525D02*
X106337Y-13525D01*
X107455Y-13525D02*
X107595Y-13525D01*
X108404Y-13525D02*
X108546Y-13525D01*
X109660Y-13525D02*
X110255Y-13525D01*
X05745Y-13605D02*
X06303Y-13605D01*
X07535Y-13605D02*
X07675Y-13605D01*
X08324Y-13605D02*
X08466Y-13605D01*
X09692Y-13605D02*
X40276Y-13605D01*
X40691Y-13605D02*
X40846Y-13605D01*
X41046Y-13605D02*
X41445Y-13605D01*
X41911Y-13605D02*
X54931Y-13605D01*
X62885Y-13605D02*
X74038Y-13605D01*
X75269Y-13605D02*
X75308Y-13605D01*
X75725Y-13605D02*
X106303Y-13605D01*
X107535Y-13605D02*
X107675Y-13605D01*
X108324Y-13605D02*
X108466Y-13605D01*
X109692Y-13605D02*
X110255Y-13605D01*
X05745Y-13685D02*
X06287Y-13685D01*
X07615Y-13685D02*
X07755Y-13685D01*
X08244Y-13685D02*
X08386Y-13685D01*
X09719Y-13685D02*
X40135Y-13685D01*
X40831Y-13685D02*
X40833Y-13685D01*
X41329Y-13685D02*
X41616Y-13685D01*
X41921Y-13685D02*
X54406Y-13685D01*
X63211Y-13685D02*
X73997Y-13685D01*
X75865Y-13685D02*
X106287Y-13685D01*
X107615Y-13685D02*
X107755Y-13685D01*
X108244Y-13685D02*
X108386Y-13685D01*
X109719Y-13685D02*
X110255Y-13685D01*
X05745Y-13765D02*
X06286Y-13765D01*
X07695Y-13765D02*
X07835Y-13765D01*
X08164Y-13765D02*
X08306Y-13765D01*
X09719Y-13765D02*
X40055Y-13765D01*
X41338Y-13765D02*
X41393Y-13765D01*
X41539Y-13765D02*
X53884Y-13765D01*
X63537Y-13765D02*
X73975Y-13765D01*
X75945Y-13765D02*
X106286Y-13765D01*
X107695Y-13765D02*
X107835Y-13765D01*
X108164Y-13765D02*
X108306Y-13765D01*
X109719Y-13765D02*
X110255Y-13765D01*
X05745Y-13845D02*
X06285Y-13845D01*
X07775Y-13845D02*
X07915Y-13845D01*
X08084Y-13845D02*
X08226Y-13845D01*
X09718Y-13845D02*
X40001Y-13845D01*
X41260Y-13845D02*
X41367Y-13845D01*
X41787Y-13845D02*
X53361Y-13845D01*
X63862Y-13845D02*
X73978Y-13845D01*
X76000Y-13845D02*
X106285Y-13845D01*
X107775Y-13845D02*
X107915Y-13845D01*
X108084Y-13845D02*
X108226Y-13845D01*
X109718Y-13845D02*
X110255Y-13845D01*
X05745Y-13925D02*
X06285Y-13925D01*
X07855Y-13925D02*
X07995Y-13925D01*
X08004Y-13925D02*
X08146Y-13925D01*
X09717Y-13925D02*
X39967Y-13925D01*
X41234Y-13925D02*
X41341Y-13925D01*
X41833Y-13925D02*
X52839Y-13925D01*
X64188Y-13925D02*
X74010Y-13925D01*
X76034Y-13925D02*
X106285Y-13925D01*
X107855Y-13925D02*
X107995Y-13925D01*
X108004Y-13925D02*
X108146Y-13925D01*
X109717Y-13925D02*
X110255Y-13925D01*
X05745Y-14005D02*
X06284Y-14005D01*
X07924Y-14005D02*
X08075Y-14005D01*
X09716Y-14005D02*
X39934Y-14005D01*
X41209Y-14005D02*
X41315Y-14005D01*
X41792Y-14005D02*
X52317Y-14005D01*
X64514Y-14005D02*
X74096Y-14005D01*
X76066Y-14005D02*
X106284Y-14005D01*
X107924Y-14005D02*
X108075Y-14005D01*
X109716Y-14005D02*
X110255Y-14005D01*
X05745Y-14085D02*
X06283Y-14085D01*
X07844Y-14085D02*
X07986Y-14085D01*
X08015Y-14085D02*
X08155Y-14085D01*
X09715Y-14085D02*
X39322Y-14085D01*
X39863Y-14085D02*
X39934Y-14085D01*
X41032Y-14085D02*
X41037Y-14085D01*
X41183Y-14085D02*
X41289Y-14085D01*
X41712Y-14085D02*
X51795Y-14085D01*
X64840Y-14085D02*
X74252Y-14085D01*
X76066Y-14085D02*
X76138Y-14085D01*
X76679Y-14085D02*
X106283Y-14085D01*
X107844Y-14085D02*
X107986Y-14085D01*
X108015Y-14085D02*
X108155Y-14085D01*
X109715Y-14085D02*
X110255Y-14085D01*
X05745Y-14165D02*
X06282Y-14165D01*
X07764Y-14165D02*
X07906Y-14165D01*
X08095Y-14165D02*
X08235Y-14165D01*
X09714Y-14165D02*
X39218Y-14165D01*
X41032Y-14165D02*
X41298Y-14165D01*
X41574Y-14165D02*
X51272Y-14165D01*
X65165Y-14165D02*
X74409Y-14165D01*
X76782Y-14165D02*
X106282Y-14165D01*
X107764Y-14165D02*
X107906Y-14165D01*
X108095Y-14165D02*
X108235Y-14165D01*
X109714Y-14165D02*
X110255Y-14165D01*
X05745Y-14245D02*
X06281Y-14245D01*
X07684Y-14245D02*
X07826Y-14245D01*
X08175Y-14245D02*
X08315Y-14245D01*
X09714Y-14245D02*
X39138Y-14245D01*
X41022Y-14245D02*
X50750Y-14245D01*
X65491Y-14245D02*
X74566Y-14245D01*
X74926Y-14245D02*
X74977Y-14245D01*
X76862Y-14245D02*
X106281Y-14245D01*
X107684Y-14245D02*
X107826Y-14245D01*
X108175Y-14245D02*
X108315Y-14245D01*
X109714Y-14245D02*
X110255Y-14245D01*
X05745Y-14325D02*
X06280Y-14325D01*
X07604Y-14325D02*
X07746Y-14325D01*
X08255Y-14325D02*
X08395Y-14325D01*
X09713Y-14325D02*
X39099Y-14325D01*
X40989Y-14325D02*
X50228Y-14325D01*
X65817Y-14325D02*
X75010Y-14325D01*
X76902Y-14325D02*
X106280Y-14325D01*
X107604Y-14325D02*
X107746Y-14325D01*
X108255Y-14325D02*
X108395Y-14325D01*
X109713Y-14325D02*
X110255Y-14325D01*
X05745Y-14405D02*
X06312Y-14405D01*
X07524Y-14405D02*
X07666Y-14405D01*
X08335Y-14405D02*
X08475Y-14405D01*
X09693Y-14405D02*
X39066Y-14405D01*
X40955Y-14405D02*
X49706Y-14405D01*
X66142Y-14405D02*
X75044Y-14405D01*
X76935Y-14405D02*
X106312Y-14405D01*
X107524Y-14405D02*
X107666Y-14405D01*
X108335Y-14405D02*
X108475Y-14405D01*
X109693Y-14405D02*
X110255Y-14405D01*
X05745Y-14485D02*
X06344Y-14485D01*
X07444Y-14485D02*
X07586Y-14485D01*
X08415Y-14485D02*
X08555Y-14485D01*
X09659Y-14485D02*
X38561Y-14485D01*
X38842Y-14485D02*
X39043Y-14485D01*
X40887Y-14485D02*
X49183Y-14485D01*
X66468Y-14485D02*
X75113Y-14485D01*
X76957Y-14485D02*
X77159Y-14485D01*
X77440Y-14485D02*
X106344Y-14485D01*
X107444Y-14485D02*
X107586Y-14485D01*
X108415Y-14485D02*
X108555Y-14485D01*
X109659Y-14485D02*
X110255Y-14485D01*
X05745Y-14565D02*
X06377Y-14565D01*
X07364Y-14565D02*
X07506Y-14565D01*
X08495Y-14565D02*
X08635Y-14565D01*
X09625Y-14565D02*
X38381Y-14565D01*
X39021Y-14565D02*
X39043Y-14565D01*
X40141Y-14565D02*
X40159Y-14565D01*
X40807Y-14565D02*
X48661Y-14565D01*
X66794Y-14565D02*
X75193Y-14565D01*
X75841Y-14565D02*
X75859Y-14565D01*
X76957Y-14565D02*
X76979Y-14565D01*
X77619Y-14565D02*
X106377Y-14565D01*
X107364Y-14565D02*
X107506Y-14565D01*
X108495Y-14565D02*
X108635Y-14565D01*
X109625Y-14565D02*
X110255Y-14565D01*
X05745Y-14645D02*
X06409Y-14645D01*
X07284Y-14645D02*
X07426Y-14645D01*
X08575Y-14645D02*
X08715Y-14645D01*
X09591Y-14645D02*
X38301Y-14645D01*
X40141Y-14645D02*
X40333Y-14645D01*
X40632Y-14645D02*
X48139Y-14645D01*
X67120Y-14645D02*
X75367Y-14645D01*
X75666Y-14645D02*
X75859Y-14645D01*
X77699Y-14645D02*
X106409Y-14645D01*
X107284Y-14645D02*
X107426Y-14645D01*
X108575Y-14645D02*
X108715Y-14645D01*
X109591Y-14645D02*
X110255Y-14645D01*
X05745Y-14725D02*
X06441Y-14725D01*
X07204Y-14725D02*
X07346Y-14725D01*
X08655Y-14725D02*
X08795Y-14725D01*
X09557Y-14725D02*
X38230Y-14725D01*
X40120Y-14725D02*
X47617Y-14725D01*
X67446Y-14725D02*
X75879Y-14725D01*
X77771Y-14725D02*
X106441Y-14725D01*
X107204Y-14725D02*
X107346Y-14725D01*
X108655Y-14725D02*
X108795Y-14725D01*
X109557Y-14725D02*
X110255Y-14725D01*
X05745Y-14805D02*
X06473Y-14805D01*
X07124Y-14805D02*
X07266Y-14805D01*
X08735Y-14805D02*
X08875Y-14805D01*
X09522Y-14805D02*
X38197Y-14805D01*
X40087Y-14805D02*
X47094Y-14805D01*
X67773Y-14805D02*
X75912Y-14805D01*
X77804Y-14805D02*
X106473Y-14805D01*
X107124Y-14805D02*
X107266Y-14805D01*
X108735Y-14805D02*
X108875Y-14805D01*
X109522Y-14805D02*
X110255Y-14805D01*
X05745Y-14885D02*
X06505Y-14885D01*
X07044Y-14885D02*
X07186Y-14885D01*
X08815Y-14885D02*
X08955Y-14885D01*
X09488Y-14885D02*
X38164Y-14885D01*
X40050Y-14885D02*
X46571Y-14885D01*
X68099Y-14885D02*
X75950Y-14885D01*
X77837Y-14885D02*
X106505Y-14885D01*
X107044Y-14885D02*
X107186Y-14885D01*
X108815Y-14885D02*
X108955Y-14885D01*
X109488Y-14885D02*
X110255Y-14885D01*
X05745Y-14965D02*
X06540Y-14965D01*
X06964Y-14965D02*
X07106Y-14965D01*
X08895Y-14965D02*
X09035Y-14965D01*
X09454Y-14965D02*
X37607Y-14965D01*
X38012Y-14965D02*
X38152Y-14965D01*
X39970Y-14965D02*
X46048Y-14965D01*
X68425Y-14965D02*
X76030Y-14965D01*
X77848Y-14965D02*
X77989Y-14965D01*
X78394Y-14965D02*
X106540Y-14965D01*
X106964Y-14965D02*
X107106Y-14965D01*
X108895Y-14965D02*
X109035Y-14965D01*
X109454Y-14965D02*
X110255Y-14965D01*
X05745Y-15045D02*
X06627Y-15045D01*
X06884Y-15045D02*
X07026Y-15045D01*
X08975Y-15045D02*
X09115Y-15045D01*
X09372Y-15045D02*
X37463Y-15045D01*
X39250Y-15045D02*
X39312Y-15045D01*
X39871Y-15045D02*
X45525Y-15045D01*
X68750Y-15045D02*
X76128Y-15045D01*
X76687Y-15045D02*
X76750Y-15045D01*
X78537Y-15045D02*
X106627Y-15045D01*
X106884Y-15045D02*
X107026Y-15045D01*
X108975Y-15045D02*
X109115Y-15045D01*
X109372Y-15045D02*
X110255Y-15045D01*
X05745Y-15125D02*
X06729Y-15125D01*
X06804Y-15125D02*
X06946Y-15125D01*
X09055Y-15125D02*
X09195Y-15125D01*
X09270Y-15125D02*
X37383Y-15125D01*
X39250Y-15125D02*
X45003Y-15125D01*
X69076Y-15125D02*
X76750Y-15125D01*
X78617Y-15125D02*
X106729Y-15125D01*
X106804Y-15125D02*
X106946Y-15125D01*
X109055Y-15125D02*
X109195Y-15125D01*
X109270Y-15125D02*
X110255Y-15125D01*
X05745Y-15205D02*
X06866Y-15205D01*
X09135Y-15205D02*
X37327Y-15205D01*
X39218Y-15205D02*
X44480Y-15205D01*
X69401Y-15205D02*
X76781Y-15205D01*
X78674Y-15205D02*
X106866Y-15205D01*
X109135Y-15205D02*
X110255Y-15205D01*
X05745Y-15285D02*
X06886Y-15285D01*
X09113Y-15285D02*
X37294Y-15285D01*
X39185Y-15285D02*
X43961Y-15285D01*
X69727Y-15285D02*
X76814Y-15285D01*
X78707Y-15285D02*
X106886Y-15285D01*
X109113Y-15285D02*
X110255Y-15285D01*
X05745Y-15365D02*
X06949Y-15365D01*
X09050Y-15365D02*
X37261Y-15365D01*
X39133Y-15365D02*
X43815Y-15365D01*
X70052Y-15365D02*
X76867Y-15365D01*
X78740Y-15365D02*
X106949Y-15365D01*
X109050Y-15365D02*
X110255Y-15365D01*
X05745Y-15445D02*
X07012Y-15445D01*
X08988Y-15445D02*
X36653Y-15445D01*
X37184Y-15445D02*
X37260Y-15445D01*
X39053Y-15445D02*
X43683Y-15445D01*
X70378Y-15445D02*
X76947Y-15445D01*
X78740Y-15445D02*
X78817Y-15445D01*
X79348Y-15445D02*
X107012Y-15445D01*
X108988Y-15445D02*
X110255Y-15445D01*
X05745Y-15525D02*
X07199Y-15525D01*
X08808Y-15525D02*
X36546Y-15525D01*
X38358Y-15525D02*
X38483Y-15525D01*
X38918Y-15525D02*
X43551Y-15525D01*
X70703Y-15525D02*
X77081Y-15525D01*
X77516Y-15525D02*
X77642Y-15525D01*
X79454Y-15525D02*
X107199Y-15525D01*
X108808Y-15525D02*
X110255Y-15525D01*
X05745Y-15605D02*
X07387Y-15605D01*
X08609Y-15605D02*
X36466Y-15605D01*
X38349Y-15605D02*
X43419Y-15605D01*
X71029Y-15605D02*
X77650Y-15605D01*
X79534Y-15605D02*
X107387Y-15605D01*
X108609Y-15605D02*
X110255Y-15605D01*
X05745Y-15685D02*
X07575Y-15685D01*
X08410Y-15685D02*
X36426Y-15685D01*
X38316Y-15685D02*
X43287Y-15685D01*
X71354Y-15685D02*
X77684Y-15685D01*
X79575Y-15685D02*
X107575Y-15685D01*
X108410Y-15685D02*
X110255Y-15685D01*
X05745Y-15765D02*
X36392Y-15765D01*
X38282Y-15765D02*
X43155Y-15765D01*
X71680Y-15765D02*
X77717Y-15765D01*
X79609Y-15765D02*
X110255Y-15765D01*
X05745Y-15845D02*
X35892Y-15845D01*
X36163Y-15845D02*
X36369Y-15845D01*
X38215Y-15845D02*
X43023Y-15845D01*
X72005Y-15845D02*
X77785Y-15845D01*
X79631Y-15845D02*
X79838Y-15845D01*
X80109Y-15845D02*
X110255Y-15845D01*
X05745Y-15925D02*
X35709Y-15925D01*
X36345Y-15925D02*
X36369Y-15925D01*
X37467Y-15925D02*
X37483Y-15925D01*
X38135Y-15925D02*
X42890Y-15925D01*
X72331Y-15925D02*
X77865Y-15925D01*
X78517Y-15925D02*
X78533Y-15925D01*
X79631Y-15925D02*
X79655Y-15925D01*
X80291Y-15925D02*
X110255Y-15925D01*
X05745Y-16005D02*
X35629Y-16005D01*
X37467Y-16005D02*
X37654Y-16005D01*
X37963Y-16005D02*
X42758Y-16005D01*
X72656Y-16005D02*
X78036Y-16005D01*
X78345Y-16005D02*
X78533Y-16005D01*
X80371Y-16005D02*
X110255Y-16005D01*
X05745Y-16085D02*
X35557Y-16085D01*
X37447Y-16085D02*
X42626Y-16085D01*
X72982Y-16085D02*
X78552Y-16085D01*
X80444Y-16085D02*
X110255Y-16085D01*
X05745Y-16165D02*
X35524Y-16165D01*
X37414Y-16165D02*
X42494Y-16165D01*
X73307Y-16165D02*
X78585Y-16165D01*
X80477Y-16165D02*
X110255Y-16165D01*
X05745Y-16245D02*
X35089Y-16245D01*
X35430Y-16245D02*
X35491Y-16245D01*
X37378Y-16245D02*
X42362Y-16245D01*
X73632Y-16245D02*
X78622Y-16245D01*
X80510Y-16245D02*
X110255Y-16245D01*
X05745Y-16325D02*
X34932Y-16325D01*
X37298Y-16325D02*
X42230Y-16325D01*
X73958Y-16325D02*
X78702Y-16325D01*
X80522Y-16325D02*
X80795Y-16325D01*
X81038Y-16325D02*
X110255Y-16325D01*
X05745Y-16405D02*
X34775Y-16405D01*
X36576Y-16405D02*
X36633Y-16405D01*
X37202Y-16405D02*
X42098Y-16405D01*
X74283Y-16405D02*
X78797Y-16405D01*
X79366Y-16405D02*
X79424Y-16405D01*
X80522Y-16405D02*
X80537Y-16405D01*
X80672Y-16405D02*
X80776Y-16405D01*
X81197Y-16405D02*
X110255Y-16405D01*
X05745Y-16485D02*
X34618Y-16485D01*
X36576Y-16485D02*
X41965Y-16485D01*
X74609Y-16485D02*
X79424Y-16485D01*
X80698Y-16485D02*
X80802Y-16485D01*
X81273Y-16485D02*
X110255Y-16485D01*
X05745Y-16565D02*
X34526Y-16565D01*
X36545Y-16565D02*
X41833Y-16565D01*
X74934Y-16565D02*
X79454Y-16565D01*
X80724Y-16565D02*
X80828Y-16565D01*
X81324Y-16565D02*
X110255Y-16565D01*
X05745Y-16645D02*
X34491Y-16645D01*
X36512Y-16645D02*
X41701Y-16645D01*
X75260Y-16645D02*
X79487Y-16645D01*
X80750Y-16645D02*
X80854Y-16645D01*
X81294Y-16645D02*
X110255Y-16645D01*
X05745Y-16725D02*
X34483Y-16725D01*
X36461Y-16725D02*
X41569Y-16725D01*
X75488Y-16725D02*
X79539Y-16725D01*
X80823Y-16725D02*
X80880Y-16725D01*
X81047Y-16725D02*
X110255Y-16725D01*
X05745Y-16805D02*
X34503Y-16805D01*
X36381Y-16805D02*
X41437Y-16805D01*
X75597Y-16805D02*
X79619Y-16805D01*
X80825Y-16805D02*
X81125Y-16805D01*
X81411Y-16805D02*
X110255Y-16805D01*
X05745Y-16885D02*
X34544Y-16885D01*
X35777Y-16885D02*
X35806Y-16885D01*
X36249Y-16885D02*
X41305Y-16885D01*
X75706Y-16885D02*
X79750Y-16885D01*
X80195Y-16885D02*
X80328Y-16885D01*
X80552Y-16885D02*
X80932Y-16885D01*
X81405Y-16885D02*
X110255Y-16885D01*
X05745Y-16965D02*
X34584Y-16965D01*
X35790Y-16965D02*
X41173Y-16965D01*
X75815Y-16965D02*
X80632Y-16965D01*
X80854Y-16965D02*
X80958Y-16965D01*
X81396Y-16965D02*
X110255Y-16965D01*
X05745Y-17045D02*
X34625Y-17045D01*
X35776Y-17045D02*
X41041Y-17045D01*
X75924Y-17045D02*
X80416Y-17045D01*
X80880Y-17045D02*
X80983Y-17045D01*
X81360Y-17045D02*
X110255Y-17045D01*
X05745Y-17125D02*
X34666Y-17125D01*
X35732Y-17125D02*
X40909Y-17125D01*
X76033Y-17125D02*
X80401Y-17125D01*
X80906Y-17125D02*
X81009Y-17125D01*
X81324Y-17125D02*
X110255Y-17125D01*
X05745Y-17205D02*
X34707Y-17205D01*
X35623Y-17205D02*
X40777Y-17205D01*
X76142Y-17205D02*
X80471Y-17205D01*
X80931Y-17205D02*
X81035Y-17205D01*
X81258Y-17205D02*
X110255Y-17205D01*
X05745Y-17285D02*
X34747Y-17285D01*
X35466Y-17285D02*
X40645Y-17285D01*
X76251Y-17285D02*
X80547Y-17285D01*
X80957Y-17285D02*
X81071Y-17285D01*
X81173Y-17285D02*
X110255Y-17285D01*
X05745Y-17365D02*
X34788Y-17365D01*
X35309Y-17365D02*
X40513Y-17365D01*
X76360Y-17365D02*
X80726Y-17365D01*
X80918Y-17365D02*
X110255Y-17365D01*
X05745Y-17445D02*
X34861Y-17445D01*
X35152Y-17445D02*
X40381Y-17445D01*
X76469Y-17445D02*
X110255Y-17445D01*
X05745Y-17525D02*
X40249Y-17525D01*
X76578Y-17525D02*
X110255Y-17525D01*
X05745Y-17605D02*
X40117Y-17605D01*
X76686Y-17605D02*
X110255Y-17605D01*
X05745Y-17685D02*
X39985Y-17685D01*
X76795Y-17685D02*
X110255Y-17685D01*
X05745Y-17765D02*
X39853Y-17765D01*
X76904Y-17765D02*
X110255Y-17765D01*
X05745Y-17845D02*
X39721Y-17845D01*
X77013Y-17845D02*
X110255Y-17845D01*
X05745Y-17925D02*
X39588Y-17925D01*
X77122Y-17925D02*
X110255Y-17925D01*
X05745Y-18005D02*
X39456Y-18005D01*
X77231Y-18005D02*
X110255Y-18005D01*
X05745Y-18085D02*
X39324Y-18085D01*
X77340Y-18085D02*
X110255Y-18085D01*
X05745Y-18165D02*
X39192Y-18165D01*
X77449Y-18165D02*
X110255Y-18165D01*
X05745Y-18245D02*
X39060Y-18245D01*
X77558Y-18245D02*
X110255Y-18245D01*
X05745Y-18325D02*
X38928Y-18325D01*
X77667Y-18325D02*
X110255Y-18325D01*
X05745Y-18405D02*
X38796Y-18405D01*
X77776Y-18405D02*
X110255Y-18405D01*
X05745Y-18485D02*
X38664Y-18485D01*
X77885Y-18485D02*
X110255Y-18485D01*
X05745Y-18565D02*
X38532Y-18565D01*
X77994Y-18565D02*
X110255Y-18565D01*
X05745Y-18645D02*
X38400Y-18645D01*
X78103Y-18645D02*
X110255Y-18645D01*
X05745Y-18725D02*
X38268Y-18725D01*
X78211Y-18725D02*
X110255Y-18725D01*
X05745Y-18805D02*
X38136Y-18805D01*
X78320Y-18805D02*
X110255Y-18805D01*
X05745Y-18885D02*
X38003Y-18885D01*
X78429Y-18885D02*
X110255Y-18885D01*
X05745Y-18965D02*
X37871Y-18965D01*
X78538Y-18965D02*
X110255Y-18965D01*
X05745Y-19045D02*
X37739Y-19045D01*
X78647Y-19045D02*
X110255Y-19045D01*
X05745Y-19125D02*
X37607Y-19125D01*
X78756Y-19125D02*
X110255Y-19125D01*
X05745Y-19205D02*
X37475Y-19205D01*
X78865Y-19205D02*
X110255Y-19205D01*
X05745Y-19285D02*
X37343Y-19285D01*
X78974Y-19285D02*
X110255Y-19285D01*
X05745Y-19365D02*
X37211Y-19365D01*
X79083Y-19365D02*
X110255Y-19365D01*
X05745Y-19445D02*
X37079Y-19445D01*
X79192Y-19445D02*
X110255Y-19445D01*
X05745Y-19525D02*
X36947Y-19525D01*
X79301Y-19525D02*
X110255Y-19525D01*
X05745Y-19605D02*
X36815Y-19605D01*
X79410Y-19605D02*
X110255Y-19605D01*
X05745Y-19685D02*
X36683Y-19685D01*
X79519Y-19685D02*
X110255Y-19685D01*
X05745Y-19765D02*
X36551Y-19765D01*
X79628Y-19765D02*
X110255Y-19765D01*
X05745Y-19845D02*
X36418Y-19845D01*
X79737Y-19845D02*
X110255Y-19845D01*
X05745Y-19925D02*
X36286Y-19925D01*
X79845Y-19925D02*
X110255Y-19925D01*
X05745Y-20005D02*
X36154Y-20005D01*
X79954Y-20005D02*
X110255Y-20005D01*
X05745Y-20085D02*
X36022Y-20085D01*
X80063Y-20085D02*
X110255Y-20085D01*
X05745Y-20165D02*
X35890Y-20165D01*
X80172Y-20165D02*
X86108Y-20165D01*
X86450Y-20165D02*
X110255Y-20165D01*
X05745Y-20245D02*
X29574Y-20245D01*
X29597Y-20245D02*
X29846Y-20245D01*
X29871Y-20245D02*
X35758Y-20245D01*
X80281Y-20245D02*
X86029Y-20245D01*
X86530Y-20245D02*
X110255Y-20245D01*
X05745Y-20325D02*
X29406Y-20325D01*
X29671Y-20325D02*
X29771Y-20325D01*
X30030Y-20325D02*
X35626Y-20325D01*
X80390Y-20325D02*
X85949Y-20325D01*
X86610Y-20325D02*
X110255Y-20325D01*
X05745Y-20405D02*
X29327Y-20405D01*
X29671Y-20405D02*
X29771Y-20405D01*
X30119Y-20405D02*
X35494Y-20405D01*
X80499Y-20405D02*
X85869Y-20405D01*
X86690Y-20405D02*
X110255Y-20405D01*
X05745Y-20485D02*
X29255Y-20485D01*
X29671Y-20485D02*
X29771Y-20485D01*
X30182Y-20485D02*
X35362Y-20485D01*
X80609Y-20485D02*
X85789Y-20485D01*
X86770Y-20485D02*
X110255Y-20485D01*
X05745Y-20565D02*
X29219Y-20565D01*
X29671Y-20565D02*
X29771Y-20565D01*
X30220Y-20565D02*
X35230Y-20565D01*
X80718Y-20565D02*
X85709Y-20565D01*
X86850Y-20565D02*
X110255Y-20565D01*
X05745Y-20645D02*
X29193Y-20645D01*
X29671Y-20645D02*
X29771Y-20645D01*
X30248Y-20645D02*
X35098Y-20645D01*
X80827Y-20645D02*
X85638Y-20645D01*
X86922Y-20645D02*
X110255Y-20645D01*
X05745Y-20725D02*
X34966Y-20725D01*
X80936Y-20725D02*
X85606Y-20725D01*
X86952Y-20725D02*
X110255Y-20725D01*
X05745Y-20805D02*
X29616Y-20805D01*
X29684Y-20805D02*
X34834Y-20805D01*
X81045Y-20805D02*
X85606Y-20805D01*
X86952Y-20805D02*
X110255Y-20805D01*
X05745Y-20885D02*
X29201Y-20885D01*
X29677Y-20885D02*
X29771Y-20885D01*
X30242Y-20885D02*
X34701Y-20885D01*
X81153Y-20885D02*
X85632Y-20885D01*
X86925Y-20885D02*
X110255Y-20885D01*
X05745Y-20965D02*
X28819Y-20965D01*
X29211Y-20965D02*
X29216Y-20965D01*
X29671Y-20965D02*
X29771Y-20965D01*
X30228Y-20965D02*
X34569Y-20965D01*
X81262Y-20965D02*
X85696Y-20965D01*
X87182Y-20965D02*
X110255Y-20965D01*
X05745Y-21045D02*
X28671Y-21045D01*
X29671Y-21045D02*
X29771Y-21045D01*
X30194Y-21045D02*
X34437Y-21045D01*
X81371Y-21045D02*
X85776Y-21045D01*
X87329Y-21045D02*
X110255Y-21045D01*
X05745Y-21125D02*
X28591Y-21125D01*
X29671Y-21125D02*
X29771Y-21125D01*
X30126Y-21125D02*
X34305Y-21125D01*
X81480Y-21125D02*
X85856Y-21125D01*
X87409Y-21125D02*
X110255Y-21125D01*
X05745Y-21205D02*
X28534Y-21205D01*
X29671Y-21205D02*
X29771Y-21205D01*
X30054Y-21205D02*
X34173Y-21205D01*
X81589Y-21205D02*
X85936Y-21205D01*
X87467Y-21205D02*
X110255Y-21205D01*
X05745Y-21285D02*
X28500Y-21285D01*
X29528Y-21285D02*
X29543Y-21285D01*
X29618Y-21285D02*
X29823Y-21285D01*
X29893Y-21285D02*
X34041Y-21285D01*
X81698Y-21285D02*
X86016Y-21285D01*
X87501Y-21285D02*
X110255Y-21285D01*
X05745Y-21365D02*
X28467Y-21365D01*
X29562Y-21365D02*
X33909Y-21365D01*
X81807Y-21365D02*
X86096Y-21365D01*
X87534Y-21365D02*
X110255Y-21365D01*
X05745Y-21445D02*
X28465Y-21445D01*
X29563Y-21445D02*
X33777Y-21445D01*
X81916Y-21445D02*
X86437Y-21445D01*
X87535Y-21445D02*
X110255Y-21445D01*
X05745Y-21525D02*
X28465Y-21525D01*
X29563Y-21525D02*
X33645Y-21525D01*
X82025Y-21525D02*
X86437Y-21525D01*
X87535Y-21525D02*
X110255Y-21525D01*
X05745Y-21605D02*
X28472Y-21605D01*
X29555Y-21605D02*
X33513Y-21605D01*
X82133Y-21605D02*
X86444Y-21605D01*
X87527Y-21605D02*
X110255Y-21605D01*
X05745Y-21685D02*
X28081Y-21685D01*
X29522Y-21685D02*
X33381Y-21685D01*
X82242Y-21685D02*
X86477Y-21685D01*
X87920Y-21685D02*
X110255Y-21685D01*
X05745Y-21765D02*
X27951Y-21765D01*
X29488Y-21765D02*
X33248Y-21765D01*
X82351Y-21765D02*
X86511Y-21765D01*
X88049Y-21765D02*
X110255Y-21765D01*
X05745Y-21845D02*
X27871Y-21845D01*
X29423Y-21845D02*
X33116Y-21845D01*
X82460Y-21845D02*
X86577Y-21845D01*
X88129Y-21845D02*
X110255Y-21845D01*
X05745Y-21925D02*
X27821Y-21925D01*
X29343Y-21925D02*
X32984Y-21925D01*
X82569Y-21925D02*
X86657Y-21925D01*
X88180Y-21925D02*
X110255Y-21925D01*
X05745Y-22005D02*
X27788Y-22005D01*
X28827Y-22005D02*
X28852Y-22005D01*
X29175Y-22005D02*
X32852Y-22005D01*
X82678Y-22005D02*
X86824Y-22005D01*
X87147Y-22005D02*
X87173Y-22005D01*
X88213Y-22005D02*
X110255Y-22005D01*
X05745Y-22085D02*
X27758Y-22085D01*
X28856Y-22085D02*
X32720Y-22085D01*
X82787Y-22085D02*
X87144Y-22085D01*
X88242Y-22085D02*
X110255Y-22085D01*
X05745Y-22165D02*
X27758Y-22165D01*
X28856Y-22165D02*
X32588Y-22165D01*
X82896Y-22165D02*
X87144Y-22165D01*
X88242Y-22165D02*
X110255Y-22165D01*
X05745Y-22245D02*
X27758Y-22245D01*
X28856Y-22245D02*
X32456Y-22245D01*
X83005Y-22245D02*
X87144Y-22245D01*
X88242Y-22245D02*
X110255Y-22245D01*
X05745Y-22325D02*
X07565Y-22325D01*
X08449Y-22325D02*
X27770Y-22325D01*
X28843Y-22325D02*
X32324Y-22325D01*
X83114Y-22325D02*
X87156Y-22325D01*
X88228Y-22325D02*
X110255Y-22325D01*
X05745Y-22405D02*
X07366Y-22405D01*
X08636Y-22405D02*
X27342Y-22405D01*
X28809Y-22405D02*
X32192Y-22405D01*
X83222Y-22405D02*
X87190Y-22405D01*
X88659Y-22405D02*
X110255Y-22405D01*
X05745Y-22485D02*
X07168Y-22485D01*
X08824Y-22485D02*
X27231Y-22485D01*
X28776Y-22485D02*
X32060Y-22485D01*
X83331Y-22485D02*
X87223Y-22485D01*
X88769Y-22485D02*
X110255Y-22485D01*
X05745Y-22565D02*
X07005Y-22565D01*
X08996Y-22565D02*
X27151Y-22565D01*
X28703Y-22565D02*
X31928Y-22565D01*
X83440Y-22565D02*
X87297Y-22565D01*
X88849Y-22565D02*
X110255Y-22565D01*
X05745Y-22645D02*
X06942Y-22645D01*
X09059Y-22645D02*
X27109Y-22645D01*
X28623Y-22645D02*
X31796Y-22645D01*
X83549Y-22645D02*
X87377Y-22645D01*
X88892Y-22645D02*
X110255Y-22645D01*
X05745Y-22725D02*
X06879Y-22725D01*
X09122Y-22725D02*
X27076Y-22725D01*
X28125Y-22725D02*
X28176Y-22725D01*
X28437Y-22725D02*
X31663Y-22725D01*
X83658Y-22725D02*
X87562Y-22725D01*
X87823Y-22725D02*
X87875Y-22725D01*
X88925Y-22725D02*
X110255Y-22725D01*
X05745Y-22805D02*
X06875Y-22805D01*
X09124Y-22805D02*
X27051Y-22805D01*
X28149Y-22805D02*
X31531Y-22805D01*
X83767Y-22805D02*
X87851Y-22805D01*
X88949Y-22805D02*
X110255Y-22805D01*
X05745Y-22885D02*
X06718Y-22885D01*
X06815Y-22885D02*
X06955Y-22885D01*
X09044Y-22885D02*
X09186Y-22885D01*
X09283Y-22885D02*
X27051Y-22885D01*
X28149Y-22885D02*
X31399Y-22885D01*
X83876Y-22885D02*
X87851Y-22885D01*
X88949Y-22885D02*
X110255Y-22885D01*
X05745Y-22965D02*
X06615Y-22965D01*
X06895Y-22965D02*
X07035Y-22965D01*
X08964Y-22965D02*
X09106Y-22965D01*
X09386Y-22965D02*
X27051Y-22965D01*
X28149Y-22965D02*
X31267Y-22965D01*
X83985Y-22965D02*
X87851Y-22965D01*
X88949Y-22965D02*
X110255Y-22965D01*
X05745Y-23045D02*
X06541Y-23045D01*
X06975Y-23045D02*
X07115Y-23045D01*
X08884Y-23045D02*
X09026Y-23045D01*
X09466Y-23045D02*
X27069Y-23045D01*
X28130Y-23045D02*
X31135Y-23045D01*
X84094Y-23045D02*
X87869Y-23045D01*
X88930Y-23045D02*
X110255Y-23045D01*
X05745Y-23125D02*
X06507Y-23125D01*
X07055Y-23125D02*
X07195Y-23125D01*
X08804Y-23125D02*
X08946Y-23125D01*
X09499Y-23125D02*
X26606Y-23125D01*
X28097Y-23125D02*
X31003Y-23125D01*
X84202Y-23125D02*
X87902Y-23125D01*
X89395Y-23125D02*
X110255Y-23125D01*
X05745Y-23205D02*
X06473Y-23205D01*
X07135Y-23205D02*
X07275Y-23205D01*
X08724Y-23205D02*
X08866Y-23205D01*
X09531Y-23205D02*
X26511Y-23205D01*
X28063Y-23205D02*
X30871Y-23205D01*
X84311Y-23205D02*
X87937Y-23205D01*
X89489Y-23205D02*
X110255Y-23205D01*
X05745Y-23285D02*
X06439Y-23285D01*
X07215Y-23285D02*
X07355Y-23285D01*
X08644Y-23285D02*
X08786Y-23285D01*
X09563Y-23285D02*
X26431Y-23285D01*
X27983Y-23285D02*
X30739Y-23285D01*
X84420Y-23285D02*
X88017Y-23285D01*
X89569Y-23285D02*
X110255Y-23285D01*
X05745Y-23365D02*
X06405Y-23365D01*
X07295Y-23365D02*
X07435Y-23365D01*
X08564Y-23365D02*
X08706Y-23365D01*
X09595Y-23365D02*
X26396Y-23365D01*
X27891Y-23365D02*
X30607Y-23365D01*
X84529Y-23365D02*
X88108Y-23365D01*
X89605Y-23365D02*
X110255Y-23365D01*
X05745Y-23445D02*
X06371Y-23445D01*
X07375Y-23445D02*
X07515Y-23445D01*
X08484Y-23445D02*
X08626Y-23445D01*
X09627Y-23445D02*
X26363Y-23445D01*
X27422Y-23445D02*
X30475Y-23445D01*
X84638Y-23445D02*
X88578Y-23445D01*
X89638Y-23445D02*
X110255Y-23445D01*
X05745Y-23525D02*
X06337Y-23525D01*
X07455Y-23525D02*
X07595Y-23525D01*
X08404Y-23525D02*
X08546Y-23525D01*
X09660Y-23525D02*
X26343Y-23525D01*
X27441Y-23525D02*
X30343Y-23525D01*
X84747Y-23525D02*
X88559Y-23525D01*
X89657Y-23525D02*
X110255Y-23525D01*
X05745Y-23605D02*
X06303Y-23605D01*
X07535Y-23605D02*
X07675Y-23605D01*
X08324Y-23605D02*
X08466Y-23605D01*
X09692Y-23605D02*
X26343Y-23605D01*
X27441Y-23605D02*
X30212Y-23605D01*
X84856Y-23605D02*
X88559Y-23605D01*
X89657Y-23605D02*
X110255Y-23605D01*
X05745Y-23685D02*
X06287Y-23685D01*
X07615Y-23685D02*
X07755Y-23685D01*
X08244Y-23685D02*
X08386Y-23685D01*
X09719Y-23685D02*
X26343Y-23685D01*
X27441Y-23685D02*
X30137Y-23685D01*
X84965Y-23685D02*
X88559Y-23685D01*
X89657Y-23685D02*
X110255Y-23685D01*
X05745Y-23765D02*
X06286Y-23765D01*
X07695Y-23765D02*
X07835Y-23765D01*
X08164Y-23765D02*
X08306Y-23765D01*
X09719Y-23765D02*
X26060Y-23765D01*
X26312Y-23765D02*
X26365Y-23765D01*
X27417Y-23765D02*
X30088Y-23765D01*
X85074Y-23765D02*
X88582Y-23765D01*
X89633Y-23765D02*
X89689Y-23765D01*
X89941Y-23765D02*
X110255Y-23765D01*
X05745Y-23845D02*
X06285Y-23845D01*
X07775Y-23845D02*
X07915Y-23845D01*
X08084Y-23845D02*
X08226Y-23845D01*
X09718Y-23845D02*
X25871Y-23845D01*
X27384Y-23845D02*
X30029Y-23845D01*
X85183Y-23845D02*
X88615Y-23845D01*
X90129Y-23845D02*
X110255Y-23845D01*
X05745Y-23925D02*
X06285Y-23925D01*
X07855Y-23925D02*
X07995Y-23925D01*
X08004Y-23925D02*
X08146Y-23925D01*
X09717Y-23925D02*
X25791Y-23925D01*
X27343Y-23925D02*
X29970Y-23925D01*
X85291Y-23925D02*
X88657Y-23925D01*
X90209Y-23925D02*
X110255Y-23925D01*
X05745Y-24005D02*
X06284Y-24005D01*
X07924Y-24005D02*
X08075Y-24005D01*
X09716Y-24005D02*
X25717Y-24005D01*
X27263Y-24005D02*
X29911Y-24005D01*
X85400Y-24005D02*
X88737Y-24005D01*
X90284Y-24005D02*
X110255Y-24005D01*
X05745Y-24085D02*
X06283Y-24085D01*
X07844Y-24085D02*
X07986Y-24085D01*
X08015Y-24085D02*
X08155Y-24085D01*
X09715Y-24085D02*
X25683Y-24085D01*
X27154Y-24085D02*
X29852Y-24085D01*
X85509Y-24085D02*
X88845Y-24085D01*
X90318Y-24085D02*
X110255Y-24085D01*
X05745Y-24165D02*
X06282Y-24165D01*
X07764Y-24165D02*
X07906Y-24165D01*
X08095Y-24165D02*
X08235Y-24165D01*
X09714Y-24165D02*
X25650Y-24165D01*
X26721Y-24165D02*
X29793Y-24165D01*
X85618Y-24165D02*
X89280Y-24165D01*
X90351Y-24165D02*
X110255Y-24165D01*
X05745Y-24245D02*
X06281Y-24245D01*
X07684Y-24245D02*
X07826Y-24245D01*
X08175Y-24245D02*
X08315Y-24245D01*
X09714Y-24245D02*
X25636Y-24245D01*
X26734Y-24245D02*
X29735Y-24245D01*
X85727Y-24245D02*
X89266Y-24245D01*
X90364Y-24245D02*
X110255Y-24245D01*
X05745Y-24325D02*
X06280Y-24325D01*
X07604Y-24325D02*
X07746Y-24325D01*
X08255Y-24325D02*
X08395Y-24325D01*
X09713Y-24325D02*
X25636Y-24325D01*
X26734Y-24325D02*
X29676Y-24325D01*
X85836Y-24325D02*
X89266Y-24325D01*
X90364Y-24325D02*
X110255Y-24325D01*
X05745Y-24405D02*
X06312Y-24405D01*
X07524Y-24405D02*
X07666Y-24405D01*
X08335Y-24405D02*
X08475Y-24405D01*
X09693Y-24405D02*
X25636Y-24405D01*
X26734Y-24405D02*
X29617Y-24405D01*
X85945Y-24405D02*
X89266Y-24405D01*
X90364Y-24405D02*
X110255Y-24405D01*
X05745Y-24485D02*
X06344Y-24485D01*
X07444Y-24485D02*
X07586Y-24485D01*
X08415Y-24485D02*
X08555Y-24485D01*
X09659Y-24485D02*
X25321Y-24485D01*
X25636Y-24485D02*
X25664Y-24485D01*
X26705Y-24485D02*
X29558Y-24485D01*
X86054Y-24485D02*
X89294Y-24485D01*
X90334Y-24485D02*
X90364Y-24485D01*
X90680Y-24485D02*
X110255Y-24485D01*
X05745Y-24565D02*
X06377Y-24565D01*
X07364Y-24565D02*
X07506Y-24565D01*
X08495Y-24565D02*
X08635Y-24565D01*
X09625Y-24565D02*
X25151Y-24565D01*
X26672Y-24565D02*
X29500Y-24565D01*
X86163Y-24565D02*
X89327Y-24565D01*
X90849Y-24565D02*
X110255Y-24565D01*
X05745Y-24645D02*
X06409Y-24645D01*
X07284Y-24645D02*
X07426Y-24645D01*
X08575Y-24645D02*
X08715Y-24645D01*
X09591Y-24645D02*
X25071Y-24645D01*
X26623Y-24645D02*
X29441Y-24645D01*
X86271Y-24645D02*
X89377Y-24645D01*
X90929Y-24645D02*
X110255Y-24645D01*
X05745Y-24725D02*
X06441Y-24725D01*
X07204Y-24725D02*
X07346Y-24725D01*
X08655Y-24725D02*
X08795Y-24725D01*
X09557Y-24725D02*
X25004Y-24725D01*
X26543Y-24725D02*
X29382Y-24725D01*
X86380Y-24725D02*
X89457Y-24725D01*
X90997Y-24725D02*
X110255Y-24725D01*
X05745Y-24805D02*
X06473Y-24805D01*
X07124Y-24805D02*
X07266Y-24805D01*
X08735Y-24805D02*
X08875Y-24805D01*
X09522Y-24805D02*
X24971Y-24805D01*
X26416Y-24805D02*
X29323Y-24805D01*
X86489Y-24805D02*
X89583Y-24805D01*
X91030Y-24805D02*
X110255Y-24805D01*
X05745Y-24885D02*
X06505Y-24885D01*
X07044Y-24885D02*
X07186Y-24885D01*
X08815Y-24885D02*
X08955Y-24885D01*
X09488Y-24885D02*
X24938Y-24885D01*
X26019Y-24885D02*
X29265Y-24885D01*
X86598Y-24885D02*
X89982Y-24885D01*
X91063Y-24885D02*
X110255Y-24885D01*
X05745Y-24965D02*
X06540Y-24965D01*
X06964Y-24965D02*
X07106Y-24965D01*
X08895Y-24965D02*
X09035Y-24965D01*
X09454Y-24965D02*
X24929Y-24965D01*
X26027Y-24965D02*
X29206Y-24965D01*
X86707Y-24965D02*
X89973Y-24965D01*
X91071Y-24965D02*
X110255Y-24965D01*
X05745Y-25045D02*
X06627Y-25045D01*
X06884Y-25045D02*
X07026Y-25045D01*
X08975Y-25045D02*
X09115Y-25045D01*
X09372Y-25045D02*
X24929Y-25045D01*
X26027Y-25045D02*
X29147Y-25045D01*
X86816Y-25045D02*
X89973Y-25045D01*
X91071Y-25045D02*
X110255Y-25045D01*
X05745Y-25125D02*
X06729Y-25125D01*
X06804Y-25125D02*
X06946Y-25125D01*
X09055Y-25125D02*
X09195Y-25125D01*
X09270Y-25125D02*
X24590Y-25125D01*
X26026Y-25125D02*
X29088Y-25125D01*
X86925Y-25125D02*
X89973Y-25125D01*
X91070Y-25125D02*
X110255Y-25125D01*
X05745Y-25205D02*
X06866Y-25205D01*
X09135Y-25205D02*
X24511Y-25205D01*
X25992Y-25205D02*
X29030Y-25205D01*
X87034Y-25205D02*
X90007Y-25205D01*
X91036Y-25205D02*
X91060Y-25205D01*
X91123Y-25205D02*
X91336Y-25205D01*
X91403Y-25205D02*
X110255Y-25205D01*
X05745Y-25285D02*
X06886Y-25285D01*
X09113Y-25285D02*
X24431Y-25285D01*
X25959Y-25285D02*
X28971Y-25285D01*
X87143Y-25285D02*
X90040Y-25285D01*
X91179Y-25285D02*
X91279Y-25285D01*
X91549Y-25285D02*
X110255Y-25285D01*
X05745Y-25365D02*
X06949Y-25365D01*
X09050Y-25365D02*
X24351Y-25365D01*
X25903Y-25365D02*
X28912Y-25365D01*
X87252Y-25365D02*
X90097Y-25365D01*
X91179Y-25365D02*
X91279Y-25365D01*
X91638Y-25365D02*
X110255Y-25365D01*
X05745Y-25445D02*
X07012Y-25445D01*
X08988Y-25445D02*
X24271Y-25445D01*
X25823Y-25445D02*
X28853Y-25445D01*
X87360Y-25445D02*
X90177Y-25445D01*
X91179Y-25445D02*
X91279Y-25445D01*
X91694Y-25445D02*
X110255Y-25445D01*
X05745Y-25525D02*
X07199Y-25525D01*
X08808Y-25525D02*
X24191Y-25525D01*
X25678Y-25525D02*
X28795Y-25525D01*
X87469Y-25525D02*
X90321Y-25525D01*
X90719Y-25525D02*
X90722Y-25525D01*
X91179Y-25525D02*
X91279Y-25525D01*
X91732Y-25525D02*
X110255Y-25525D01*
X05745Y-25605D02*
X07387Y-25605D01*
X08609Y-25605D02*
X24126Y-25605D01*
X25418Y-25605D02*
X28736Y-25605D01*
X87578Y-25605D02*
X90707Y-25605D01*
X91184Y-25605D02*
X91279Y-25605D01*
X91750Y-25605D02*
X110255Y-25605D01*
X05745Y-25685D02*
X07575Y-25685D01*
X08410Y-25685D02*
X24098Y-25685D01*
X25444Y-25685D02*
X28677Y-25685D01*
X87687Y-25685D02*
X91122Y-25685D01*
X91194Y-25685D02*
X110255Y-25685D01*
X05745Y-25765D02*
X24098Y-25765D01*
X25444Y-25765D02*
X28618Y-25765D01*
X87796Y-25765D02*
X110255Y-25765D01*
X05745Y-25845D02*
X24128Y-25845D01*
X25413Y-25845D02*
X28560Y-25845D01*
X87905Y-25845D02*
X90704Y-25845D01*
X91179Y-25845D02*
X91279Y-25845D01*
X91755Y-25845D02*
X110255Y-25845D01*
X05745Y-25925D02*
X24198Y-25925D01*
X25343Y-25925D02*
X28501Y-25925D01*
X88014Y-25925D02*
X90729Y-25925D01*
X91179Y-25925D02*
X91279Y-25925D01*
X91732Y-25925D02*
X110255Y-25925D01*
X05745Y-26005D02*
X24278Y-26005D01*
X25263Y-26005D02*
X28442Y-26005D01*
X88123Y-26005D02*
X90768Y-26005D01*
X91179Y-26005D02*
X91279Y-26005D01*
X91697Y-26005D02*
X110255Y-26005D01*
X05745Y-26085D02*
X24358Y-26085D01*
X25183Y-26085D02*
X28383Y-26085D01*
X88232Y-26085D02*
X90829Y-26085D01*
X91179Y-26085D02*
X91279Y-26085D01*
X91625Y-26085D02*
X110255Y-26085D01*
X05745Y-26165D02*
X24438Y-26165D01*
X25103Y-26165D02*
X28325Y-26165D01*
X88352Y-26165D02*
X90917Y-26165D01*
X91179Y-26165D02*
X91279Y-26165D01*
X91548Y-26165D02*
X110255Y-26165D01*
X05745Y-26245D02*
X24518Y-26245D01*
X25023Y-26245D02*
X28266Y-26245D01*
X88417Y-26245D02*
X91074Y-26245D01*
X91108Y-26245D02*
X91349Y-26245D01*
X91380Y-26245D02*
X110255Y-26245D01*
X05745Y-26325D02*
X24598Y-26325D01*
X24944Y-26325D02*
X28207Y-26325D01*
X88465Y-26325D02*
X110255Y-26325D01*
X05745Y-26405D02*
X28148Y-26405D01*
X88514Y-26405D02*
X110255Y-26405D01*
X05745Y-26485D02*
X28090Y-26485D01*
X88562Y-26485D02*
X110255Y-26485D01*
X05745Y-26565D02*
X28031Y-26565D01*
X88610Y-26565D02*
X110255Y-26565D01*
X05745Y-26645D02*
X27972Y-26645D01*
X88659Y-26645D02*
X110255Y-26645D01*
X05745Y-26725D02*
X27913Y-26725D01*
X88707Y-26725D02*
X110255Y-26725D01*
X05745Y-26805D02*
X27855Y-26805D01*
X88756Y-26805D02*
X110255Y-26805D01*
X05745Y-26885D02*
X27796Y-26885D01*
X88804Y-26885D02*
X110255Y-26885D01*
X05745Y-26965D02*
X27737Y-26965D01*
X88853Y-26965D02*
X110255Y-26965D01*
X05745Y-27045D02*
X27678Y-27045D01*
X88901Y-27045D02*
X110255Y-27045D01*
X05745Y-27125D02*
X27620Y-27125D01*
X88950Y-27125D02*
X110255Y-27125D01*
X05745Y-27205D02*
X27561Y-27205D01*
X88998Y-27205D02*
X110255Y-27205D01*
X05745Y-27285D02*
X27502Y-27285D01*
X89047Y-27285D02*
X110255Y-27285D01*
X05745Y-27365D02*
X27443Y-27365D01*
X89095Y-27365D02*
X110255Y-27365D01*
X05745Y-27445D02*
X27385Y-27445D01*
X89143Y-27445D02*
X110255Y-27445D01*
X05745Y-27525D02*
X27326Y-27525D01*
X89192Y-27525D02*
X110255Y-27525D01*
X05745Y-27605D02*
X27267Y-27605D01*
X89240Y-27605D02*
X110255Y-27605D01*
X05745Y-27685D02*
X27208Y-27685D01*
X89289Y-27685D02*
X110255Y-27685D01*
X05745Y-27765D02*
X27150Y-27765D01*
X89337Y-27765D02*
X110255Y-27765D01*
X05745Y-27845D02*
X27091Y-27845D01*
X89386Y-27845D02*
X110255Y-27845D01*
X05745Y-27925D02*
X27032Y-27925D01*
X89434Y-27925D02*
X110255Y-27925D01*
X05745Y-28005D02*
X26973Y-28005D01*
X89483Y-28005D02*
X110255Y-28005D01*
X05745Y-28085D02*
X26915Y-28085D01*
X89531Y-28085D02*
X110255Y-28085D01*
X05745Y-28165D02*
X26856Y-28165D01*
X89580Y-28165D02*
X110255Y-28165D01*
X05745Y-28245D02*
X26797Y-28245D01*
X89628Y-28245D02*
X110255Y-28245D01*
X05745Y-28325D02*
X26738Y-28325D01*
X89676Y-28325D02*
X110255Y-28325D01*
X05745Y-28405D02*
X26680Y-28405D01*
X89725Y-28405D02*
X110255Y-28405D01*
X05745Y-28485D02*
X26621Y-28485D01*
X89773Y-28485D02*
X110255Y-28485D01*
X05745Y-28565D02*
X26562Y-28565D01*
X89822Y-28565D02*
X110255Y-28565D01*
X05745Y-28645D02*
X26503Y-28645D01*
X89870Y-28645D02*
X110255Y-28645D01*
X05745Y-28725D02*
X26445Y-28725D01*
X89919Y-28725D02*
X110255Y-28725D01*
X05745Y-28805D02*
X26386Y-28805D01*
X89967Y-28805D02*
X110255Y-28805D01*
X05745Y-28885D02*
X26327Y-28885D01*
X90016Y-28885D02*
X110255Y-28885D01*
X05745Y-28965D02*
X26268Y-28965D01*
X90064Y-28965D02*
X110255Y-28965D01*
X05745Y-29045D02*
X26210Y-29045D01*
X90112Y-29045D02*
X110255Y-29045D01*
X05745Y-29125D02*
X26151Y-29125D01*
X90161Y-29125D02*
X110255Y-29125D01*
X05745Y-29205D02*
X26092Y-29205D01*
X90209Y-29205D02*
X110255Y-29205D01*
X05745Y-29285D02*
X26033Y-29285D01*
X90258Y-29285D02*
X110255Y-29285D01*
X05745Y-29365D02*
X25975Y-29365D01*
X90306Y-29365D02*
X110255Y-29365D01*
X05745Y-29445D02*
X25916Y-29445D01*
X90355Y-29445D02*
X110255Y-29445D01*
X05745Y-29525D02*
X25857Y-29525D01*
X90403Y-29525D02*
X110255Y-29525D01*
X05745Y-29605D02*
X25798Y-29605D01*
X90452Y-29605D02*
X110255Y-29605D01*
X05745Y-29685D02*
X25740Y-29685D01*
X90500Y-29685D02*
X110255Y-29685D01*
X05745Y-29765D02*
X25681Y-29765D01*
X90549Y-29765D02*
X110255Y-29765D01*
X05745Y-29845D02*
X25622Y-29845D01*
X90597Y-29845D02*
X110255Y-29845D01*
X05745Y-29925D02*
X25563Y-29925D01*
X90646Y-29925D02*
X110255Y-29925D01*
X05745Y-30005D02*
X25505Y-30005D01*
X90694Y-30005D02*
X110255Y-30005D01*
X05745Y-30085D02*
X25446Y-30085D01*
X90742Y-30085D02*
X110255Y-30085D01*
X05745Y-30165D02*
X25387Y-30165D01*
X90791Y-30165D02*
X110255Y-30165D01*
X05745Y-30245D02*
X25328Y-30245D01*
X90839Y-30245D02*
X110255Y-30245D01*
X05745Y-30325D02*
X25270Y-30325D01*
X90888Y-30325D02*
X110255Y-30325D01*
X05745Y-30405D02*
X25211Y-30405D01*
X90936Y-30405D02*
X110255Y-30405D01*
X05745Y-30485D02*
X25152Y-30485D01*
X90985Y-30485D02*
X95263Y-30485D01*
X95340Y-30485D02*
X110255Y-30485D01*
X05745Y-30565D02*
X25093Y-30565D01*
X91033Y-30565D02*
X95075Y-30565D01*
X95482Y-30565D02*
X110255Y-30565D01*
X05745Y-30645D02*
X20749Y-30645D01*
X21058Y-30645D02*
X25035Y-30645D01*
X91082Y-30645D02*
X94918Y-30645D01*
X95530Y-30645D02*
X110255Y-30645D01*
X05745Y-30725D02*
X20489Y-30725D01*
X20652Y-30725D02*
X20756Y-30725D01*
X21190Y-30725D02*
X24976Y-30725D01*
X91130Y-30725D02*
X94761Y-30725D01*
X95570Y-30725D02*
X110255Y-30725D01*
X05745Y-30805D02*
X20404Y-30805D01*
X20678Y-30805D02*
X20782Y-30805D01*
X21265Y-30805D02*
X24917Y-30805D01*
X91179Y-30805D02*
X94603Y-30805D01*
X95611Y-30805D02*
X110255Y-30805D01*
X05745Y-30885D02*
X20360Y-30885D01*
X20704Y-30885D02*
X20808Y-30885D01*
X21293Y-30885D02*
X24858Y-30885D01*
X91227Y-30885D02*
X94537Y-30885D01*
X95652Y-30885D02*
X110255Y-30885D01*
X05745Y-30965D02*
X20324Y-30965D01*
X20730Y-30965D02*
X20834Y-30965D01*
X21202Y-30965D02*
X24800Y-30965D01*
X91276Y-30965D02*
X94511Y-30965D01*
X95693Y-30965D02*
X110255Y-30965D01*
X05745Y-31045D02*
X20300Y-31045D01*
X20755Y-31045D02*
X20859Y-31045D01*
X20955Y-31045D02*
X21281Y-31045D01*
X21326Y-31045D02*
X24741Y-31045D01*
X91324Y-31045D02*
X94512Y-31045D01*
X95733Y-31045D02*
X110255Y-31045D01*
X05745Y-31125D02*
X20293Y-31125D01*
X20709Y-31125D02*
X21033Y-31125D01*
X21382Y-31125D02*
X24682Y-31125D01*
X91372Y-31125D02*
X94541Y-31125D01*
X95774Y-31125D02*
X110255Y-31125D01*
X05745Y-31205D02*
X20324Y-31205D01*
X20461Y-31205D02*
X20697Y-31205D01*
X20835Y-31205D02*
X20911Y-31205D01*
X21376Y-31205D02*
X24623Y-31205D01*
X91421Y-31205D02*
X94581Y-31205D01*
X95812Y-31205D02*
X110255Y-31205D01*
X05745Y-31285D02*
X20538Y-31285D01*
X20833Y-31285D02*
X20937Y-31285D01*
X21359Y-31285D02*
X24565Y-31285D01*
X91469Y-31285D02*
X94622Y-31285D01*
X95819Y-31285D02*
X110255Y-31285D01*
X05745Y-31365D02*
X20385Y-31365D01*
X20859Y-31365D02*
X20963Y-31365D01*
X21324Y-31365D02*
X24506Y-31365D01*
X91518Y-31365D02*
X94663Y-31365D01*
X95796Y-31365D02*
X110255Y-31365D01*
X05745Y-31445D02*
X20388Y-31445D01*
X20885Y-31445D02*
X20989Y-31445D01*
X21288Y-31445D02*
X24447Y-31445D01*
X91566Y-31445D02*
X94704Y-31445D01*
X95741Y-31445D02*
X110255Y-31445D01*
X05745Y-31525D02*
X20161Y-31525D01*
X20911Y-31525D02*
X21015Y-31525D01*
X21209Y-31525D02*
X24388Y-31525D01*
X91615Y-31525D02*
X94744Y-31525D01*
X95840Y-31525D02*
X110255Y-31525D01*
X05745Y-31605D02*
X20029Y-31605D01*
X20937Y-31605D02*
X24330Y-31605D01*
X91663Y-31605D02*
X94785Y-31605D01*
X95971Y-31605D02*
X110255Y-31605D01*
X05745Y-31685D02*
X19949Y-31685D01*
X20817Y-31685D02*
X24271Y-31685D01*
X91711Y-31685D02*
X94826Y-31685D01*
X96051Y-31685D02*
X110255Y-31685D01*
X05745Y-31765D02*
X19898Y-31765D01*
X20869Y-31765D02*
X24212Y-31765D01*
X91760Y-31765D02*
X94920Y-31765D01*
X96103Y-31765D02*
X110255Y-31765D01*
X05745Y-31845D02*
X19865Y-31845D01*
X20902Y-31845D02*
X24153Y-31845D01*
X91808Y-31845D02*
X95099Y-31845D01*
X96136Y-31845D02*
X110255Y-31845D01*
X05745Y-31925D02*
X19834Y-31925D01*
X20932Y-31925D02*
X24094Y-31925D01*
X91857Y-31925D02*
X95068Y-31925D01*
X96166Y-31925D02*
X110255Y-31925D01*
X05745Y-32005D02*
X19834Y-32005D01*
X20932Y-32005D02*
X24036Y-32005D01*
X91905Y-32005D02*
X95068Y-32005D01*
X96166Y-32005D02*
X110255Y-32005D01*
X05745Y-32085D02*
X19834Y-32085D01*
X20932Y-32085D02*
X23977Y-32085D01*
X91954Y-32085D02*
X95068Y-32085D01*
X96166Y-32085D02*
X110255Y-32085D01*
X05745Y-32165D02*
X19846Y-32165D01*
X20919Y-32165D02*
X23918Y-32165D01*
X92002Y-32165D02*
X95080Y-32165D01*
X96153Y-32165D02*
X110255Y-32165D01*
X05745Y-32245D02*
X19879Y-32245D01*
X20886Y-32245D02*
X23859Y-32245D01*
X92051Y-32245D02*
X95113Y-32245D01*
X96120Y-32245D02*
X110255Y-32245D01*
X05745Y-32325D02*
X07565Y-32325D01*
X08449Y-32325D02*
X19912Y-32325D01*
X20853Y-32325D02*
X23801Y-32325D01*
X92099Y-32325D02*
X95146Y-32325D01*
X96087Y-32325D02*
X107565Y-32325D01*
X108449Y-32325D02*
X110255Y-32325D01*
X05745Y-32405D02*
X07366Y-32405D01*
X08636Y-32405D02*
X19734Y-32405D01*
X20781Y-32405D02*
X23742Y-32405D01*
X92147Y-32405D02*
X95219Y-32405D01*
X96267Y-32405D02*
X107366Y-32405D01*
X108636Y-32405D02*
X110255Y-32405D01*
X05745Y-32485D02*
X07168Y-32485D01*
X08824Y-32485D02*
X19586Y-32485D01*
X20701Y-32485D02*
X23683Y-32485D01*
X92196Y-32485D02*
X95299Y-32485D01*
X96414Y-32485D02*
X107168Y-32485D01*
X108824Y-32485D02*
X110255Y-32485D01*
X05745Y-32565D02*
X07005Y-32565D01*
X08996Y-32565D02*
X19506Y-32565D01*
X20518Y-32565D02*
X23624Y-32565D01*
X92244Y-32565D02*
X95481Y-32565D01*
X96494Y-32565D02*
X107005Y-32565D01*
X108996Y-32565D02*
X110255Y-32565D01*
X05745Y-32645D02*
X06942Y-32645D01*
X09059Y-32645D02*
X19449Y-32645D01*
X20410Y-32645D02*
X23566Y-32645D01*
X92293Y-32645D02*
X95591Y-32645D01*
X96552Y-32645D02*
X106942Y-32645D01*
X109059Y-32645D02*
X110255Y-32645D01*
X05745Y-32725D02*
X06879Y-32725D01*
X09122Y-32725D02*
X19415Y-32725D01*
X20444Y-32725D02*
X23507Y-32725D01*
X92341Y-32725D02*
X95557Y-32725D01*
X96586Y-32725D02*
X106879Y-32725D01*
X109122Y-32725D02*
X110255Y-32725D01*
X05745Y-32805D02*
X06875Y-32805D01*
X09124Y-32805D02*
X19382Y-32805D01*
X20477Y-32805D02*
X23448Y-32805D01*
X92390Y-32805D02*
X95524Y-32805D01*
X96619Y-32805D02*
X106875Y-32805D01*
X109124Y-32805D02*
X110255Y-32805D01*
X05745Y-32885D02*
X06718Y-32885D01*
X06815Y-32885D02*
X06955Y-32885D01*
X09044Y-32885D02*
X09186Y-32885D01*
X09283Y-32885D02*
X19380Y-32885D01*
X20478Y-32885D02*
X23389Y-32885D01*
X92438Y-32885D02*
X95522Y-32885D01*
X96620Y-32885D02*
X106718Y-32885D01*
X106815Y-32885D02*
X106955Y-32885D01*
X109044Y-32885D02*
X109186Y-32885D01*
X109283Y-32885D02*
X110255Y-32885D01*
X05745Y-32965D02*
X06615Y-32965D01*
X06895Y-32965D02*
X07035Y-32965D01*
X08964Y-32965D02*
X09106Y-32965D01*
X09386Y-32965D02*
X19380Y-32965D01*
X20478Y-32965D02*
X23331Y-32965D01*
X92487Y-32965D02*
X95522Y-32965D01*
X96620Y-32965D02*
X106615Y-32965D01*
X106895Y-32965D02*
X107035Y-32965D01*
X108964Y-32965D02*
X109106Y-32965D01*
X109386Y-32965D02*
X110255Y-32965D01*
X05745Y-33045D02*
X06541Y-33045D01*
X06975Y-33045D02*
X07115Y-33045D01*
X08884Y-33045D02*
X09026Y-33045D01*
X09466Y-33045D02*
X19387Y-33045D01*
X20470Y-33045D02*
X23272Y-33045D01*
X92535Y-33045D02*
X95529Y-33045D01*
X96612Y-33045D02*
X106541Y-33045D01*
X106975Y-33045D02*
X107115Y-33045D01*
X108884Y-33045D02*
X109026Y-33045D01*
X109466Y-33045D02*
X110255Y-33045D01*
X05745Y-33125D02*
X06507Y-33125D01*
X07055Y-33125D02*
X07195Y-33125D01*
X08804Y-33125D02*
X08946Y-33125D01*
X09499Y-33125D02*
X19420Y-33125D01*
X20437Y-33125D02*
X23213Y-33125D01*
X92583Y-33125D02*
X95562Y-33125D01*
X96579Y-33125D02*
X106507Y-33125D01*
X107055Y-33125D02*
X107195Y-33125D01*
X108804Y-33125D02*
X108946Y-33125D01*
X109499Y-33125D02*
X110255Y-33125D01*
X05745Y-33205D02*
X06473Y-33205D01*
X07135Y-33205D02*
X07275Y-33205D01*
X08724Y-33205D02*
X08866Y-33205D01*
X09531Y-33205D02*
X19454Y-33205D01*
X20403Y-33205D02*
X23154Y-33205D01*
X92632Y-33205D02*
X95596Y-33205D01*
X96545Y-33205D02*
X106473Y-33205D01*
X107135Y-33205D02*
X107275Y-33205D01*
X108724Y-33205D02*
X108866Y-33205D01*
X109531Y-33205D02*
X110255Y-33205D01*
X05745Y-33285D02*
X06439Y-33285D01*
X07215Y-33285D02*
X07355Y-33285D01*
X08644Y-33285D02*
X08786Y-33285D01*
X09563Y-33285D02*
X19306Y-33285D01*
X20338Y-33285D02*
X23095Y-33285D01*
X92680Y-33285D02*
X95662Y-33285D01*
X96695Y-33285D02*
X106439Y-33285D01*
X107215Y-33285D02*
X107355Y-33285D01*
X108644Y-33285D02*
X108786Y-33285D01*
X109563Y-33285D02*
X110255Y-33285D01*
X05745Y-33365D02*
X06405Y-33365D01*
X07295Y-33365D02*
X07435Y-33365D01*
X08564Y-33365D02*
X08706Y-33365D01*
X09595Y-33365D02*
X19143Y-33365D01*
X20258Y-33365D02*
X23037Y-33365D01*
X92729Y-33365D02*
X95742Y-33365D01*
X96857Y-33365D02*
X106405Y-33365D01*
X107295Y-33365D02*
X107435Y-33365D01*
X108564Y-33365D02*
X108706Y-33365D01*
X109595Y-33365D02*
X110255Y-33365D01*
X05745Y-33445D02*
X06371Y-33445D01*
X07375Y-33445D02*
X07515Y-33445D01*
X08484Y-33445D02*
X08626Y-33445D01*
X09627Y-33445D02*
X19063Y-33445D01*
X20090Y-33445D02*
X22978Y-33445D01*
X92777Y-33445D02*
X95909Y-33445D01*
X96937Y-33445D02*
X106371Y-33445D01*
X107375Y-33445D02*
X107515Y-33445D01*
X108484Y-33445D02*
X108626Y-33445D01*
X109627Y-33445D02*
X110255Y-33445D01*
X05745Y-33525D02*
X06337Y-33525D01*
X07455Y-33525D02*
X07595Y-33525D01*
X08404Y-33525D02*
X08546Y-33525D01*
X09660Y-33525D02*
X18999Y-33525D01*
X19952Y-33525D02*
X22919Y-33525D01*
X92826Y-33525D02*
X96049Y-33525D01*
X97002Y-33525D02*
X106337Y-33525D01*
X107455Y-33525D02*
X107595Y-33525D01*
X108404Y-33525D02*
X108546Y-33525D01*
X109660Y-33525D02*
X110255Y-33525D01*
X05745Y-33605D02*
X06303Y-33605D01*
X07535Y-33605D02*
X07675Y-33605D01*
X08324Y-33605D02*
X08466Y-33605D01*
X09692Y-33605D02*
X18966Y-33605D01*
X19985Y-33605D02*
X22860Y-33605D01*
X92874Y-33605D02*
X96016Y-33605D01*
X97035Y-33605D02*
X106303Y-33605D01*
X107535Y-33605D02*
X107675Y-33605D01*
X108324Y-33605D02*
X108466Y-33605D01*
X109692Y-33605D02*
X110255Y-33605D01*
X05745Y-33685D02*
X06287Y-33685D01*
X07615Y-33685D02*
X07755Y-33685D01*
X08244Y-33685D02*
X08386Y-33685D01*
X09719Y-33685D02*
X18933Y-33685D01*
X20018Y-33685D02*
X22802Y-33685D01*
X92923Y-33685D02*
X95983Y-33685D01*
X97068Y-33685D02*
X106287Y-33685D01*
X107615Y-33685D02*
X107755Y-33685D01*
X108244Y-33685D02*
X108386Y-33685D01*
X109719Y-33685D02*
X110255Y-33685D01*
X05745Y-33765D02*
X06286Y-33765D01*
X07695Y-33765D02*
X07835Y-33765D01*
X08164Y-33765D02*
X08306Y-33765D01*
X09719Y-33765D02*
X18926Y-33765D01*
X20024Y-33765D02*
X22743Y-33765D01*
X92971Y-33765D02*
X95976Y-33765D01*
X97074Y-33765D02*
X106286Y-33765D01*
X107695Y-33765D02*
X107835Y-33765D01*
X108164Y-33765D02*
X108306Y-33765D01*
X109719Y-33765D02*
X110255Y-33765D01*
X05745Y-33845D02*
X06285Y-33845D01*
X07775Y-33845D02*
X07915Y-33845D01*
X08084Y-33845D02*
X08226Y-33845D01*
X09718Y-33845D02*
X18926Y-33845D01*
X20024Y-33845D02*
X22684Y-33845D01*
X93019Y-33845D02*
X95976Y-33845D01*
X97074Y-33845D02*
X106285Y-33845D01*
X107775Y-33845D02*
X107915Y-33845D01*
X108084Y-33845D02*
X108226Y-33845D01*
X109718Y-33845D02*
X110255Y-33845D01*
X05745Y-33925D02*
X06285Y-33925D01*
X07855Y-33925D02*
X07995Y-33925D01*
X08004Y-33925D02*
X08146Y-33925D01*
X09717Y-33925D02*
X18928Y-33925D01*
X20021Y-33925D02*
X22625Y-33925D01*
X93068Y-33925D02*
X95978Y-33925D01*
X97071Y-33925D02*
X106285Y-33925D01*
X107855Y-33925D02*
X107995Y-33925D01*
X108004Y-33925D02*
X108146Y-33925D01*
X109717Y-33925D02*
X110255Y-33925D01*
X05745Y-34005D02*
X06284Y-34005D01*
X07924Y-34005D02*
X08075Y-34005D01*
X09716Y-34005D02*
X18962Y-34005D01*
X19987Y-34005D02*
X22567Y-34005D01*
X93116Y-34005D02*
X96012Y-34005D01*
X97037Y-34005D02*
X106284Y-34005D01*
X107924Y-34005D02*
X108075Y-34005D01*
X109716Y-34005D02*
X110255Y-34005D01*
X05745Y-34085D02*
X06283Y-34085D01*
X07844Y-34085D02*
X07986Y-34085D01*
X08015Y-34085D02*
X08155Y-34085D01*
X09715Y-34085D02*
X18995Y-34085D01*
X19954Y-34085D02*
X22508Y-34085D01*
X93165Y-34085D02*
X96045Y-34085D01*
X97004Y-34085D02*
X106283Y-34085D01*
X107844Y-34085D02*
X107986Y-34085D01*
X108015Y-34085D02*
X108155Y-34085D01*
X109715Y-34085D02*
X110255Y-34085D01*
X05745Y-34165D02*
X06282Y-34165D01*
X07764Y-34165D02*
X07906Y-34165D01*
X08095Y-34165D02*
X08235Y-34165D01*
X09714Y-34165D02*
X18881Y-34165D01*
X19895Y-34165D02*
X22449Y-34165D01*
X93213Y-34165D02*
X96105Y-34165D01*
X97120Y-34165D02*
X106282Y-34165D01*
X107764Y-34165D02*
X107906Y-34165D01*
X108095Y-34165D02*
X108235Y-34165D01*
X109714Y-34165D02*
X110255Y-34165D01*
X05745Y-34245D02*
X06281Y-34245D01*
X07684Y-34245D02*
X07826Y-34245D01*
X08175Y-34245D02*
X08315Y-34245D01*
X09714Y-34245D02*
X18701Y-34245D01*
X19815Y-34245D02*
X22390Y-34245D01*
X93262Y-34245D02*
X96185Y-34245D01*
X97299Y-34245D02*
X106281Y-34245D01*
X107684Y-34245D02*
X107826Y-34245D01*
X108175Y-34245D02*
X108315Y-34245D01*
X109714Y-34245D02*
X110255Y-34245D01*
X05745Y-34325D02*
X06280Y-34325D01*
X07604Y-34325D02*
X07746Y-34325D01*
X08255Y-34325D02*
X08395Y-34325D01*
X09713Y-34325D02*
X18621Y-34325D01*
X19663Y-34325D02*
X22332Y-34325D01*
X93310Y-34325D02*
X96336Y-34325D01*
X97379Y-34325D02*
X106280Y-34325D01*
X107604Y-34325D02*
X107746Y-34325D01*
X108255Y-34325D02*
X108395Y-34325D01*
X109713Y-34325D02*
X110255Y-34325D01*
X05745Y-34405D02*
X06312Y-34405D01*
X07524Y-34405D02*
X07666Y-34405D01*
X08335Y-34405D02*
X08475Y-34405D01*
X09693Y-34405D02*
X18550Y-34405D01*
X19493Y-34405D02*
X22273Y-34405D01*
X93359Y-34405D02*
X96508Y-34405D01*
X97451Y-34405D02*
X106312Y-34405D01*
X107524Y-34405D02*
X107666Y-34405D01*
X108335Y-34405D02*
X108475Y-34405D01*
X109693Y-34405D02*
X110255Y-34405D01*
X05745Y-34485D02*
X06344Y-34485D01*
X07444Y-34485D02*
X07586Y-34485D01*
X08415Y-34485D02*
X08555Y-34485D01*
X09659Y-34485D02*
X18517Y-34485D01*
X19526Y-34485D02*
X22214Y-34485D01*
X93407Y-34485D02*
X96475Y-34485D01*
X97484Y-34485D02*
X106344Y-34485D01*
X107444Y-34485D02*
X107586Y-34485D01*
X108415Y-34485D02*
X108555Y-34485D01*
X109659Y-34485D02*
X110255Y-34485D01*
X05745Y-34565D02*
X06377Y-34565D01*
X07364Y-34565D02*
X07506Y-34565D01*
X08495Y-34565D02*
X08635Y-34565D01*
X09625Y-34565D02*
X18484Y-34565D01*
X19559Y-34565D02*
X22155Y-34565D01*
X93455Y-34565D02*
X96442Y-34565D01*
X97517Y-34565D02*
X106377Y-34565D01*
X107364Y-34565D02*
X107506Y-34565D01*
X108495Y-34565D02*
X108635Y-34565D01*
X109625Y-34565D02*
X110255Y-34565D01*
X05745Y-34645D02*
X06409Y-34645D01*
X07284Y-34645D02*
X07426Y-34645D01*
X08575Y-34645D02*
X08715Y-34645D01*
X09591Y-34645D02*
X18472Y-34645D01*
X19570Y-34645D02*
X22096Y-34645D01*
X93504Y-34645D02*
X96430Y-34645D01*
X97528Y-34645D02*
X106409Y-34645D01*
X107284Y-34645D02*
X107426Y-34645D01*
X108575Y-34645D02*
X108715Y-34645D01*
X109591Y-34645D02*
X110255Y-34645D01*
X05745Y-34725D02*
X06441Y-34725D01*
X07204Y-34725D02*
X07346Y-34725D01*
X08655Y-34725D02*
X08795Y-34725D01*
X09557Y-34725D02*
X18472Y-34725D01*
X19570Y-34725D02*
X22038Y-34725D01*
X93552Y-34725D02*
X96430Y-34725D01*
X97528Y-34725D02*
X106441Y-34725D01*
X107204Y-34725D02*
X107346Y-34725D01*
X108655Y-34725D02*
X108795Y-34725D01*
X109557Y-34725D02*
X110255Y-34725D01*
X05745Y-34805D02*
X06473Y-34805D01*
X07124Y-34805D02*
X07266Y-34805D01*
X08735Y-34805D02*
X08875Y-34805D01*
X09522Y-34805D02*
X18472Y-34805D01*
X19570Y-34805D02*
X21979Y-34805D01*
X93601Y-34805D02*
X96430Y-34805D01*
X97528Y-34805D02*
X106473Y-34805D01*
X107124Y-34805D02*
X107266Y-34805D01*
X108735Y-34805D02*
X108875Y-34805D01*
X109522Y-34805D02*
X110255Y-34805D01*
X05745Y-34885D02*
X06505Y-34885D01*
X07044Y-34885D02*
X07186Y-34885D01*
X08815Y-34885D02*
X08955Y-34885D01*
X09488Y-34885D02*
X18503Y-34885D01*
X19538Y-34885D02*
X21920Y-34885D01*
X93649Y-34885D02*
X96461Y-34885D01*
X97496Y-34885D02*
X106505Y-34885D01*
X107044Y-34885D02*
X107186Y-34885D01*
X108815Y-34885D02*
X108955Y-34885D01*
X109488Y-34885D02*
X110255Y-34885D01*
X05745Y-34965D02*
X06540Y-34965D01*
X06964Y-34965D02*
X07106Y-34965D01*
X08895Y-34965D02*
X09035Y-34965D01*
X09454Y-34965D02*
X18536Y-34965D01*
X19505Y-34965D02*
X21861Y-34965D01*
X93698Y-34965D02*
X96494Y-34965D01*
X97463Y-34965D02*
X106540Y-34965D01*
X106964Y-34965D02*
X107106Y-34965D01*
X108895Y-34965D02*
X109035Y-34965D01*
X109454Y-34965D02*
X110255Y-34965D01*
X05745Y-35045D02*
X06627Y-35045D01*
X06884Y-35045D02*
X07026Y-35045D01*
X08975Y-35045D02*
X09115Y-35045D01*
X09372Y-35045D02*
X18454Y-35045D01*
X19453Y-35045D02*
X21803Y-35045D01*
X93746Y-35045D02*
X96547Y-35045D01*
X97547Y-35045D02*
X106627Y-35045D01*
X106884Y-35045D02*
X107026Y-35045D01*
X108975Y-35045D02*
X109115Y-35045D01*
X109372Y-35045D02*
X110255Y-35045D01*
X05745Y-35125D02*
X06729Y-35125D01*
X06804Y-35125D02*
X06946Y-35125D01*
X09055Y-35125D02*
X09195Y-35125D01*
X09270Y-35125D02*
X18261Y-35125D01*
X19373Y-35125D02*
X21744Y-35125D01*
X93795Y-35125D02*
X96627Y-35125D01*
X97740Y-35125D02*
X106729Y-35125D01*
X106804Y-35125D02*
X106946Y-35125D01*
X109055Y-35125D02*
X109195Y-35125D01*
X109270Y-35125D02*
X110255Y-35125D01*
X05745Y-35205D02*
X06866Y-35205D01*
X09135Y-35205D02*
X18178Y-35205D01*
X19238Y-35205D02*
X21685Y-35205D01*
X93843Y-35205D02*
X96761Y-35205D01*
X97822Y-35205D02*
X106866Y-35205D01*
X109135Y-35205D02*
X110255Y-35205D01*
X05745Y-35285D02*
X06886Y-35285D01*
X09113Y-35285D02*
X18101Y-35285D01*
X19034Y-35285D02*
X21626Y-35285D01*
X93891Y-35285D02*
X96967Y-35285D01*
X97900Y-35285D02*
X106886Y-35285D01*
X109113Y-35285D02*
X110255Y-35285D01*
X05745Y-35365D02*
X06949Y-35365D01*
X09050Y-35365D02*
X18068Y-35365D01*
X19067Y-35365D02*
X21568Y-35365D01*
X93940Y-35365D02*
X96934Y-35365D01*
X97933Y-35365D02*
X106949Y-35365D01*
X109050Y-35365D02*
X110255Y-35365D01*
X05745Y-35445D02*
X07012Y-35445D01*
X08988Y-35445D02*
X18034Y-35445D01*
X19101Y-35445D02*
X21509Y-35445D01*
X93988Y-35445D02*
X96900Y-35445D01*
X97967Y-35445D02*
X107012Y-35445D01*
X108988Y-35445D02*
X110255Y-35445D01*
X05745Y-35525D02*
X07199Y-35525D01*
X08808Y-35525D02*
X18018Y-35525D01*
X19116Y-35525D02*
X21450Y-35525D01*
X94037Y-35525D02*
X96884Y-35525D01*
X97982Y-35525D02*
X107199Y-35525D01*
X108808Y-35525D02*
X110255Y-35525D01*
X05745Y-35605D02*
X07387Y-35605D01*
X08609Y-35605D02*
X18018Y-35605D01*
X19116Y-35605D02*
X21391Y-35605D01*
X94085Y-35605D02*
X96884Y-35605D01*
X97982Y-35605D02*
X107387Y-35605D01*
X108609Y-35605D02*
X110255Y-35605D01*
X05745Y-35685D02*
X07575Y-35685D01*
X08410Y-35685D02*
X18018Y-35685D01*
X19116Y-35685D02*
X21333Y-35685D01*
X94134Y-35685D02*
X96884Y-35685D01*
X97982Y-35685D02*
X107575Y-35685D01*
X108410Y-35685D02*
X110255Y-35685D01*
X05745Y-35765D02*
X18044Y-35765D01*
X19089Y-35765D02*
X21274Y-35765D01*
X94182Y-35765D02*
X96910Y-35765D01*
X97955Y-35765D02*
X110255Y-35765D01*
X05745Y-35845D02*
X18077Y-35845D01*
X19056Y-35845D02*
X21215Y-35845D01*
X94231Y-35845D02*
X96943Y-35845D01*
X97922Y-35845D02*
X110255Y-35845D01*
X05745Y-35925D02*
X18123Y-35925D01*
X19010Y-35925D02*
X21156Y-35925D01*
X94279Y-35925D02*
X96990Y-35925D01*
X97876Y-35925D02*
X110255Y-35925D01*
X05745Y-36005D02*
X17834Y-36005D01*
X18930Y-36005D02*
X21097Y-36005D01*
X94327Y-36005D02*
X97070Y-36005D01*
X98167Y-36005D02*
X110255Y-36005D01*
X05745Y-36085D02*
X17735Y-36085D01*
X18810Y-36085D02*
X21039Y-36085D01*
X94376Y-36085D02*
X97189Y-36085D01*
X98265Y-36085D02*
X110255Y-36085D01*
X05745Y-36165D02*
X17655Y-36165D01*
X18571Y-36165D02*
X20980Y-36165D01*
X94424Y-36165D02*
X97429Y-36165D01*
X98345Y-36165D02*
X110255Y-36165D01*
X05745Y-36245D02*
X17618Y-36245D01*
X18609Y-36245D02*
X20921Y-36245D01*
X94473Y-36245D02*
X97392Y-36245D01*
X98383Y-36245D02*
X110255Y-36245D01*
X05745Y-36325D02*
X17585Y-36325D01*
X18642Y-36325D02*
X20863Y-36325D01*
X94521Y-36325D02*
X97359Y-36325D01*
X98416Y-36325D02*
X110255Y-36325D01*
X05745Y-36405D02*
X17564Y-36405D01*
X18662Y-36405D02*
X20804Y-36405D01*
X94570Y-36405D02*
X97338Y-36405D01*
X98436Y-36405D02*
X110255Y-36405D01*
X05745Y-36485D02*
X17564Y-36485D01*
X18662Y-36485D02*
X20745Y-36485D01*
X94618Y-36485D02*
X97338Y-36485D01*
X98436Y-36485D02*
X110255Y-36485D01*
X05745Y-36565D02*
X17564Y-36565D01*
X18662Y-36565D02*
X20691Y-36565D01*
X94667Y-36565D02*
X97338Y-36565D01*
X98436Y-36565D02*
X110255Y-36565D01*
X05745Y-36645D02*
X17585Y-36645D01*
X18639Y-36645D02*
X20657Y-36645D01*
X94715Y-36645D02*
X97360Y-36645D01*
X98413Y-36645D02*
X110255Y-36645D01*
X05745Y-36725D02*
X17477Y-36725D01*
X17585Y-36725D02*
X17618Y-36725D01*
X18606Y-36725D02*
X20649Y-36725D01*
X94763Y-36725D02*
X97393Y-36725D01*
X98380Y-36725D02*
X110255Y-36725D01*
X05745Y-36805D02*
X17339Y-36805D01*
X18567Y-36805D02*
X20629Y-36805D01*
X94812Y-36805D02*
X97433Y-36805D01*
X98340Y-36805D02*
X110255Y-36805D01*
X05745Y-36885D02*
X17293Y-36885D01*
X18487Y-36885D02*
X20610Y-36885D01*
X94860Y-36885D02*
X97513Y-36885D01*
X98432Y-36885D02*
X110255Y-36885D01*
X05745Y-36965D02*
X17252Y-36965D01*
X18383Y-36965D02*
X20590Y-36965D01*
X94909Y-36965D02*
X97616Y-36965D01*
X98420Y-36965D02*
X98527Y-36965D01*
X98699Y-36965D02*
X110255Y-36965D01*
X05745Y-37045D02*
X17211Y-37045D01*
X18221Y-37045D02*
X20570Y-37045D01*
X94957Y-37045D02*
X97908Y-37045D01*
X98394Y-37045D02*
X98501Y-37045D01*
X98773Y-37045D02*
X110255Y-37045D01*
X05745Y-37125D02*
X17170Y-37125D01*
X18286Y-37125D02*
X20551Y-37125D01*
X95006Y-37125D02*
X97885Y-37125D01*
X98368Y-37125D02*
X98475Y-37125D01*
X98819Y-37125D02*
X110255Y-37125D01*
X05745Y-37205D02*
X17129Y-37205D01*
X18313Y-37205D02*
X20531Y-37205D01*
X95054Y-37205D02*
X97981Y-37205D01*
X98342Y-37205D02*
X98449Y-37205D01*
X98862Y-37205D02*
X110255Y-37205D01*
X05745Y-37285D02*
X17089Y-37285D01*
X18309Y-37285D02*
X20512Y-37285D01*
X95103Y-37285D02*
X97851Y-37285D01*
X97905Y-37285D02*
X98181Y-37285D01*
X98323Y-37285D02*
X98423Y-37285D01*
X98873Y-37285D02*
X110255Y-37285D01*
X05745Y-37365D02*
X17048Y-37365D01*
X18279Y-37365D02*
X20492Y-37365D01*
X95151Y-37365D02*
X97796Y-37365D01*
X98153Y-37365D02*
X98261Y-37365D01*
X98279Y-37365D02*
X98475Y-37365D01*
X98884Y-37365D02*
X110255Y-37365D01*
X05745Y-37445D02*
X17011Y-37445D01*
X18239Y-37445D02*
X20472Y-37445D01*
X95199Y-37445D02*
X97807Y-37445D01*
X98265Y-37445D02*
X98371Y-37445D01*
X98398Y-37445D02*
X98722Y-37445D01*
X98851Y-37445D02*
X110255Y-37445D01*
X05745Y-37525D02*
X17004Y-37525D01*
X18198Y-37525D02*
X20453Y-37525D01*
X95248Y-37525D02*
X97817Y-37525D01*
X98239Y-37525D02*
X98345Y-37525D01*
X98645Y-37525D02*
X110255Y-37525D01*
X05745Y-37605D02*
X17026Y-37605D01*
X18157Y-37605D02*
X20433Y-37605D01*
X95296Y-37605D02*
X97852Y-37605D01*
X98213Y-37605D02*
X98319Y-37605D01*
X98794Y-37605D02*
X110255Y-37605D01*
X05745Y-37685D02*
X17081Y-37685D01*
X18116Y-37685D02*
X20413Y-37685D01*
X95345Y-37685D02*
X97899Y-37685D01*
X98187Y-37685D02*
X98293Y-37685D01*
X98789Y-37685D02*
X110255Y-37685D01*
X05745Y-37765D02*
X17217Y-37765D01*
X18075Y-37765D02*
X20394Y-37765D01*
X95393Y-37765D02*
X97962Y-37765D01*
X98161Y-37765D02*
X98267Y-37765D01*
X98720Y-37765D02*
X110255Y-37765D01*
X05745Y-37845D02*
X17374Y-37845D01*
X18035Y-37845D02*
X20374Y-37845D01*
X95442Y-37845D02*
X98241Y-37845D01*
X98601Y-37845D02*
X110255Y-37845D01*
X05745Y-37925D02*
X17530Y-37925D01*
X17994Y-37925D02*
X20354Y-37925D01*
X95490Y-37925D02*
X110255Y-37925D01*
X05745Y-38005D02*
X17687Y-38005D01*
X17895Y-38005D02*
X20335Y-38005D01*
X95539Y-38005D02*
X110255Y-38005D01*
X05745Y-38085D02*
X20315Y-38085D01*
X95587Y-38085D02*
X110255Y-38085D01*
X05745Y-38165D02*
X20295Y-38165D01*
X95635Y-38165D02*
X110255Y-38165D01*
X05745Y-38245D02*
X20276Y-38245D01*
X95684Y-38245D02*
X110255Y-38245D01*
X05745Y-38325D02*
X20256Y-38325D01*
X95732Y-38325D02*
X110255Y-38325D01*
X05745Y-38405D02*
X20236Y-38405D01*
X95781Y-38405D02*
X110255Y-38405D01*
X05745Y-38485D02*
X20217Y-38485D01*
X95829Y-38485D02*
X110255Y-38485D01*
X05745Y-38565D02*
X20197Y-38565D01*
X95878Y-38565D02*
X110255Y-38565D01*
X05745Y-38645D02*
X20177Y-38645D01*
X95926Y-38645D02*
X110255Y-38645D01*
X05745Y-38725D02*
X20158Y-38725D01*
X95975Y-38725D02*
X110255Y-38725D01*
X05745Y-38805D02*
X20138Y-38805D01*
X96023Y-38805D02*
X110255Y-38805D01*
X05745Y-38885D02*
X20119Y-38885D01*
X96071Y-38885D02*
X110255Y-38885D01*
X05745Y-38965D02*
X20099Y-38965D01*
X96120Y-38965D02*
X110255Y-38965D01*
X05745Y-39045D02*
X20079Y-39045D01*
X96168Y-39045D02*
X110255Y-39045D01*
X05745Y-39125D02*
X20060Y-39125D01*
X96217Y-39125D02*
X110255Y-39125D01*
X05745Y-39205D02*
X20040Y-39205D01*
X96265Y-39205D02*
X110255Y-39205D01*
X05745Y-39285D02*
X20020Y-39285D01*
X96314Y-39285D02*
X110255Y-39285D01*
X05745Y-39365D02*
X20001Y-39365D01*
X96362Y-39365D02*
X110255Y-39365D01*
X05745Y-39445D02*
X19981Y-39445D01*
X96411Y-39445D02*
X110255Y-39445D01*
X05745Y-39525D02*
X19961Y-39525D01*
X96459Y-39525D02*
X110255Y-39525D01*
X05745Y-39605D02*
X19942Y-39605D01*
X96507Y-39605D02*
X110255Y-39605D01*
X05745Y-39685D02*
X19922Y-39685D01*
X96556Y-39685D02*
X110255Y-39685D01*
X05745Y-39765D02*
X19902Y-39765D01*
X96604Y-39765D02*
X110255Y-39765D01*
X05745Y-39845D02*
X19883Y-39845D01*
X96658Y-39845D02*
X110255Y-39845D01*
X05745Y-39925D02*
X19863Y-39925D01*
X96703Y-39925D02*
X110255Y-39925D01*
X05745Y-40005D02*
X19843Y-40005D01*
X96723Y-40005D02*
X110255Y-40005D01*
X05745Y-40085D02*
X19824Y-40085D01*
X96735Y-40085D02*
X110255Y-40085D01*
X05745Y-40165D02*
X19804Y-40165D01*
X96747Y-40165D02*
X110255Y-40165D01*
X05745Y-40245D02*
X19784Y-40245D01*
X96760Y-40245D02*
X110255Y-40245D01*
X05745Y-40325D02*
X19765Y-40325D01*
X96772Y-40325D02*
X110255Y-40325D01*
X05745Y-40405D02*
X19745Y-40405D01*
X96784Y-40405D02*
X110255Y-40405D01*
X05745Y-40485D02*
X19725Y-40485D01*
X96796Y-40485D02*
X110255Y-40485D01*
X05745Y-40565D02*
X19706Y-40565D01*
X96809Y-40565D02*
X110255Y-40565D01*
X05745Y-40645D02*
X19686Y-40645D01*
X96821Y-40645D02*
X110255Y-40645D01*
X05745Y-40725D02*
X19667Y-40725D01*
X96833Y-40725D02*
X110255Y-40725D01*
X05745Y-40805D02*
X19647Y-40805D01*
X96845Y-40805D02*
X110255Y-40805D01*
X05745Y-40885D02*
X19627Y-40885D01*
X96858Y-40885D02*
X110255Y-40885D01*
X05745Y-40965D02*
X19608Y-40965D01*
X96870Y-40965D02*
X110255Y-40965D01*
X05745Y-41045D02*
X19588Y-41045D01*
X96882Y-41045D02*
X110255Y-41045D01*
X05745Y-41125D02*
X19568Y-41125D01*
X96894Y-41125D02*
X110255Y-41125D01*
X05745Y-41205D02*
X19549Y-41205D01*
X96907Y-41205D02*
X110255Y-41205D01*
X05745Y-41285D02*
X19529Y-41285D01*
X96919Y-41285D02*
X110255Y-41285D01*
X05745Y-41365D02*
X19509Y-41365D01*
X96931Y-41365D02*
X110255Y-41365D01*
X05745Y-41445D02*
X19490Y-41445D01*
X96943Y-41445D02*
X110255Y-41445D01*
X05745Y-41525D02*
X19470Y-41525D01*
X96956Y-41525D02*
X110255Y-41525D01*
X05745Y-41605D02*
X19450Y-41605D01*
X96968Y-41605D02*
X110255Y-41605D01*
X05745Y-41685D02*
X19431Y-41685D01*
X96980Y-41685D02*
X110255Y-41685D01*
X05745Y-41765D02*
X19411Y-41765D01*
X96992Y-41765D02*
X110255Y-41765D01*
X05745Y-41845D02*
X19391Y-41845D01*
X97004Y-41845D02*
X110255Y-41845D01*
X05745Y-41925D02*
X19372Y-41925D01*
X97017Y-41925D02*
X110255Y-41925D01*
X05745Y-42005D02*
X19352Y-42005D01*
X97029Y-42005D02*
X110255Y-42005D01*
X05745Y-42085D02*
X19332Y-42085D01*
X97041Y-42085D02*
X110255Y-42085D01*
X05745Y-42165D02*
X19313Y-42165D01*
X97053Y-42165D02*
X110255Y-42165D01*
X05745Y-42245D02*
X19293Y-42245D01*
X97066Y-42245D02*
X110255Y-42245D01*
X05745Y-42325D02*
X07565Y-42325D01*
X08449Y-42325D02*
X19273Y-42325D01*
X97078Y-42325D02*
X107565Y-42325D01*
X108449Y-42325D02*
X110255Y-42325D01*
X05745Y-42405D02*
X07366Y-42405D01*
X08636Y-42405D02*
X19254Y-42405D01*
X97090Y-42405D02*
X107366Y-42405D01*
X108636Y-42405D02*
X110255Y-42405D01*
X05745Y-42485D02*
X07168Y-42485D01*
X08824Y-42485D02*
X19234Y-42485D01*
X97102Y-42485D02*
X107168Y-42485D01*
X108824Y-42485D02*
X110255Y-42485D01*
X05745Y-42565D02*
X07005Y-42565D01*
X08996Y-42565D02*
X19215Y-42565D01*
X97115Y-42565D02*
X107005Y-42565D01*
X108996Y-42565D02*
X110255Y-42565D01*
X05745Y-42645D02*
X06942Y-42645D01*
X09059Y-42645D02*
X19195Y-42645D01*
X97127Y-42645D02*
X106942Y-42645D01*
X109059Y-42645D02*
X110255Y-42645D01*
X05745Y-42725D02*
X06879Y-42725D01*
X09122Y-42725D02*
X19175Y-42725D01*
X97139Y-42725D02*
X106879Y-42725D01*
X109122Y-42725D02*
X110255Y-42725D01*
X05745Y-42805D02*
X06875Y-42805D01*
X09124Y-42805D02*
X19156Y-42805D01*
X97151Y-42805D02*
X106875Y-42805D01*
X109124Y-42805D02*
X110255Y-42805D01*
X05745Y-42885D02*
X06718Y-42885D01*
X06815Y-42885D02*
X06955Y-42885D01*
X09044Y-42885D02*
X09186Y-42885D01*
X09283Y-42885D02*
X19136Y-42885D01*
X97164Y-42885D02*
X106718Y-42885D01*
X106815Y-42885D02*
X106955Y-42885D01*
X109044Y-42885D02*
X109186Y-42885D01*
X109283Y-42885D02*
X110255Y-42885D01*
X05745Y-42965D02*
X06615Y-42965D01*
X06895Y-42965D02*
X07035Y-42965D01*
X08964Y-42965D02*
X09106Y-42965D01*
X09386Y-42965D02*
X19116Y-42965D01*
X97176Y-42965D02*
X106615Y-42965D01*
X106895Y-42965D02*
X107035Y-42965D01*
X108964Y-42965D02*
X109106Y-42965D01*
X109386Y-42965D02*
X110255Y-42965D01*
X05745Y-43045D02*
X06541Y-43045D01*
X06975Y-43045D02*
X07115Y-43045D01*
X08884Y-43045D02*
X09026Y-43045D01*
X09466Y-43045D02*
X19097Y-43045D01*
X97188Y-43045D02*
X106541Y-43045D01*
X106975Y-43045D02*
X107115Y-43045D01*
X108884Y-43045D02*
X109026Y-43045D01*
X109466Y-43045D02*
X110255Y-43045D01*
X05745Y-43125D02*
X06507Y-43125D01*
X07055Y-43125D02*
X07195Y-43125D01*
X08804Y-43125D02*
X08946Y-43125D01*
X09499Y-43125D02*
X19077Y-43125D01*
X97200Y-43125D02*
X106507Y-43125D01*
X107055Y-43125D02*
X107195Y-43125D01*
X108804Y-43125D02*
X108946Y-43125D01*
X109499Y-43125D02*
X110255Y-43125D01*
X05745Y-43205D02*
X06473Y-43205D01*
X07135Y-43205D02*
X07275Y-43205D01*
X08724Y-43205D02*
X08866Y-43205D01*
X09531Y-43205D02*
X15490Y-43205D01*
X15658Y-43205D02*
X19057Y-43205D01*
X97213Y-43205D02*
X100269Y-43205D01*
X100821Y-43205D02*
X106473Y-43205D01*
X107135Y-43205D02*
X107275Y-43205D01*
X108724Y-43205D02*
X108866Y-43205D01*
X109531Y-43205D02*
X110255Y-43205D01*
X05745Y-43285D02*
X06439Y-43285D01*
X07215Y-43285D02*
X07355Y-43285D01*
X08644Y-43285D02*
X08786Y-43285D01*
X09563Y-43285D02*
X15362Y-43285D01*
X15884Y-43285D02*
X19038Y-43285D01*
X97225Y-43285D02*
X99923Y-43285D01*
X100883Y-43285D02*
X106439Y-43285D01*
X107215Y-43285D02*
X107355Y-43285D01*
X108644Y-43285D02*
X108786Y-43285D01*
X109563Y-43285D02*
X110255Y-43285D01*
X05745Y-43365D02*
X06405Y-43365D01*
X07295Y-43365D02*
X07435Y-43365D01*
X08564Y-43365D02*
X08706Y-43365D01*
X09595Y-43365D02*
X15380Y-43365D01*
X15948Y-43365D02*
X19018Y-43365D01*
X97237Y-43365D02*
X99849Y-43365D01*
X100907Y-43365D02*
X106405Y-43365D01*
X107295Y-43365D02*
X107435Y-43365D01*
X108564Y-43365D02*
X108706Y-43365D01*
X109595Y-43365D02*
X110255Y-43365D01*
X05745Y-43445D02*
X06371Y-43445D01*
X07375Y-43445D02*
X07515Y-43445D01*
X08484Y-43445D02*
X08626Y-43445D01*
X09627Y-43445D02*
X15139Y-43445D01*
X15316Y-43445D02*
X15439Y-43445D01*
X15910Y-43445D02*
X18998Y-43445D01*
X97249Y-43445D02*
X99821Y-43445D01*
X100919Y-43445D02*
X106371Y-43445D01*
X107375Y-43445D02*
X107515Y-43445D01*
X108484Y-43445D02*
X108626Y-43445D01*
X109627Y-43445D02*
X110255Y-43445D01*
X05745Y-43525D02*
X06337Y-43525D01*
X07455Y-43525D02*
X07595Y-43525D01*
X08404Y-43525D02*
X08546Y-43525D01*
X09660Y-43525D02*
X15095Y-43525D01*
X15374Y-43525D02*
X15497Y-43525D01*
X15800Y-43525D02*
X15971Y-43525D01*
X16078Y-43525D02*
X18979Y-43525D01*
X97262Y-43525D02*
X99819Y-43525D01*
X100932Y-43525D02*
X106337Y-43525D01*
X107455Y-43525D02*
X107595Y-43525D01*
X108404Y-43525D02*
X108546Y-43525D01*
X109660Y-43525D02*
X110255Y-43525D01*
X05745Y-43605D02*
X06303Y-43605D01*
X07535Y-43605D02*
X07675Y-43605D01*
X08324Y-43605D02*
X08466Y-43605D01*
X09692Y-43605D02*
X15065Y-43605D01*
X15432Y-43605D02*
X15555Y-43605D01*
X15690Y-43605D02*
X15861Y-43605D01*
X16118Y-43605D02*
X18959Y-43605D01*
X97274Y-43605D02*
X99831Y-43605D01*
X100945Y-43605D02*
X106303Y-43605D01*
X107535Y-43605D02*
X107675Y-43605D01*
X108324Y-43605D02*
X108466Y-43605D01*
X109692Y-43605D02*
X110255Y-43605D01*
X05745Y-43685D02*
X06287Y-43685D01*
X07615Y-43685D02*
X07755Y-43685D01*
X08244Y-43685D02*
X08386Y-43685D01*
X09719Y-43685D02*
X15056Y-43685D01*
X15490Y-43685D02*
X15751Y-43685D01*
X16137Y-43685D02*
X18939Y-43685D01*
X97286Y-43685D02*
X99844Y-43685D01*
X100957Y-43685D02*
X106287Y-43685D01*
X107615Y-43685D02*
X107755Y-43685D01*
X108244Y-43685D02*
X108386Y-43685D01*
X109719Y-43685D02*
X110255Y-43685D01*
X05745Y-43765D02*
X06286Y-43765D01*
X07695Y-43765D02*
X07835Y-43765D01*
X08164Y-43765D02*
X08306Y-43765D01*
X09719Y-43765D02*
X15048Y-43765D01*
X15470Y-43765D02*
X15671Y-43765D01*
X16129Y-43765D02*
X18920Y-43765D01*
X97298Y-43765D02*
X99856Y-43765D01*
X100970Y-43765D02*
X106286Y-43765D01*
X107695Y-43765D02*
X107835Y-43765D01*
X108164Y-43765D02*
X108306Y-43765D01*
X109719Y-43765D02*
X110255Y-43765D01*
X05745Y-43845D02*
X06285Y-43845D01*
X07775Y-43845D02*
X07915Y-43845D01*
X08084Y-43845D02*
X08226Y-43845D01*
X09718Y-43845D02*
X15058Y-43845D01*
X15360Y-43845D02*
X15531Y-43845D01*
X15607Y-43845D02*
X15730Y-43845D01*
X16120Y-43845D02*
X18900Y-43845D01*
X97311Y-43845D02*
X99869Y-43845D01*
X100983Y-43845D02*
X106285Y-43845D01*
X107775Y-43845D02*
X107915Y-43845D01*
X108084Y-43845D02*
X108226Y-43845D01*
X109718Y-43845D02*
X110255Y-43845D01*
X05745Y-43925D02*
X06285Y-43925D01*
X07855Y-43925D02*
X07995Y-43925D01*
X08004Y-43925D02*
X08146Y-43925D01*
X09717Y-43925D02*
X15077Y-43925D01*
X15250Y-43925D02*
X15421Y-43925D01*
X15665Y-43925D02*
X15788Y-43925D01*
X16102Y-43925D02*
X18880Y-43925D01*
X97323Y-43925D02*
X99882Y-43925D01*
X100995Y-43925D02*
X106285Y-43925D01*
X107855Y-43925D02*
X107995Y-43925D01*
X108004Y-43925D02*
X108146Y-43925D01*
X109717Y-43925D02*
X110255Y-43925D01*
X05745Y-44005D02*
X06284Y-44005D01*
X07924Y-44005D02*
X08075Y-44005D01*
X09716Y-44005D02*
X15311Y-44005D01*
X15723Y-44005D02*
X15846Y-44005D01*
X16059Y-44005D02*
X18861Y-44005D01*
X97335Y-44005D02*
X99894Y-44005D01*
X101004Y-44005D02*
X106284Y-44005D01*
X107924Y-44005D02*
X108075Y-44005D01*
X109716Y-44005D02*
X110255Y-44005D01*
X05745Y-44085D02*
X06283Y-44085D01*
X07844Y-44085D02*
X07986Y-44085D01*
X08015Y-44085D02*
X08155Y-44085D01*
X09715Y-44085D02*
X15230Y-44085D01*
X15781Y-44085D02*
X15904Y-44085D01*
X16015Y-44085D02*
X18841Y-44085D01*
X97347Y-44085D02*
X99907Y-44085D01*
X100985Y-44085D02*
X106283Y-44085D01*
X107844Y-44085D02*
X107986Y-44085D01*
X108015Y-44085D02*
X108155Y-44085D01*
X109715Y-44085D02*
X110255Y-44085D01*
X05745Y-44165D02*
X06282Y-44165D01*
X07764Y-44165D02*
X07906Y-44165D01*
X08095Y-44165D02*
X08235Y-44165D01*
X09714Y-44165D02*
X15247Y-44165D01*
X15834Y-44165D02*
X18822Y-44165D01*
X97360Y-44165D02*
X99920Y-44165D01*
X100932Y-44165D02*
X106282Y-44165D01*
X107764Y-44165D02*
X107906Y-44165D01*
X108095Y-44165D02*
X108235Y-44165D01*
X109714Y-44165D02*
X110255Y-44165D01*
X05745Y-44245D02*
X06281Y-44245D01*
X07684Y-44245D02*
X07826Y-44245D01*
X08175Y-44245D02*
X08315Y-44245D01*
X09714Y-44245D02*
X15163Y-44245D01*
X15795Y-44245D02*
X18802Y-44245D01*
X97372Y-44245D02*
X99966Y-44245D01*
X100837Y-44245D02*
X106281Y-44245D01*
X107684Y-44245D02*
X107826Y-44245D01*
X108175Y-44245D02*
X108315Y-44245D01*
X109714Y-44245D02*
X110255Y-44245D01*
X05745Y-44325D02*
X06280Y-44325D01*
X07604Y-44325D02*
X07746Y-44325D01*
X08255Y-44325D02*
X08395Y-44325D01*
X09713Y-44325D02*
X15060Y-44325D01*
X15808Y-44325D02*
X18782Y-44325D01*
X97384Y-44325D02*
X100103Y-44325D01*
X100940Y-44325D02*
X106280Y-44325D01*
X107604Y-44325D02*
X107746Y-44325D01*
X108255Y-44325D02*
X108395Y-44325D01*
X109713Y-44325D02*
X110255Y-44325D01*
X05745Y-44405D02*
X06312Y-44405D01*
X07524Y-44405D02*
X07666Y-44405D01*
X08335Y-44405D02*
X08475Y-44405D01*
X09693Y-44405D02*
X14980Y-44405D01*
X15888Y-44405D02*
X18763Y-44405D01*
X97396Y-44405D02*
X100112Y-44405D01*
X101020Y-44405D02*
X106312Y-44405D01*
X107524Y-44405D02*
X107666Y-44405D01*
X108335Y-44405D02*
X108475Y-44405D01*
X109693Y-44405D02*
X110255Y-44405D01*
X05745Y-44485D02*
X06344Y-44485D01*
X07444Y-44485D02*
X07586Y-44485D01*
X08415Y-44485D02*
X08555Y-44485D01*
X09659Y-44485D02*
X14941Y-44485D01*
X15928Y-44485D02*
X18743Y-44485D01*
X97408Y-44485D02*
X100073Y-44485D01*
X101060Y-44485D02*
X106344Y-44485D01*
X107444Y-44485D02*
X107586Y-44485D01*
X108415Y-44485D02*
X108555Y-44485D01*
X109659Y-44485D02*
X110255Y-44485D01*
X05745Y-44565D02*
X06377Y-44565D01*
X07364Y-44565D02*
X07506Y-44565D01*
X08495Y-44565D02*
X08635Y-44565D01*
X09625Y-44565D02*
X14908Y-44565D01*
X15961Y-44565D02*
X18723Y-44565D01*
X97421Y-44565D02*
X100040Y-44565D01*
X101093Y-44565D02*
X106377Y-44565D01*
X107364Y-44565D02*
X107506Y-44565D01*
X108495Y-44565D02*
X108635Y-44565D01*
X109625Y-44565D02*
X110255Y-44565D01*
X05745Y-44645D02*
X06409Y-44645D01*
X07284Y-44645D02*
X07426Y-44645D01*
X08575Y-44645D02*
X08715Y-44645D01*
X09591Y-44645D02*
X14885Y-44645D01*
X15983Y-44645D02*
X18704Y-44645D01*
X97433Y-44645D02*
X100017Y-44645D01*
X101115Y-44645D02*
X106409Y-44645D01*
X107284Y-44645D02*
X107426Y-44645D01*
X108575Y-44645D02*
X108715Y-44645D01*
X109591Y-44645D02*
X110255Y-44645D01*
X05745Y-44725D02*
X06441Y-44725D01*
X07204Y-44725D02*
X07346Y-44725D01*
X08655Y-44725D02*
X08795Y-44725D01*
X09557Y-44725D02*
X14885Y-44725D01*
X15983Y-44725D02*
X18684Y-44725D01*
X97445Y-44725D02*
X100017Y-44725D01*
X101115Y-44725D02*
X106441Y-44725D01*
X107204Y-44725D02*
X107346Y-44725D01*
X108655Y-44725D02*
X108795Y-44725D01*
X109557Y-44725D02*
X110255Y-44725D01*
X05745Y-44805D02*
X06473Y-44805D01*
X07124Y-44805D02*
X07266Y-44805D01*
X08735Y-44805D02*
X08875Y-44805D01*
X09522Y-44805D02*
X14885Y-44805D01*
X15983Y-44805D02*
X18664Y-44805D01*
X97457Y-44805D02*
X100017Y-44805D01*
X101115Y-44805D02*
X106473Y-44805D01*
X107124Y-44805D02*
X107266Y-44805D01*
X108735Y-44805D02*
X108875Y-44805D01*
X109522Y-44805D02*
X110255Y-44805D01*
X05745Y-44885D02*
X06505Y-44885D01*
X07044Y-44885D02*
X07186Y-44885D01*
X08815Y-44885D02*
X08955Y-44885D01*
X09488Y-44885D02*
X14905Y-44885D01*
X15962Y-44885D02*
X18645Y-44885D01*
X97470Y-44885D02*
X100037Y-44885D01*
X101094Y-44885D02*
X106505Y-44885D01*
X107044Y-44885D02*
X107186Y-44885D01*
X108815Y-44885D02*
X108955Y-44885D01*
X109488Y-44885D02*
X110255Y-44885D01*
X05745Y-44965D02*
X06540Y-44965D01*
X06964Y-44965D02*
X07106Y-44965D01*
X08895Y-44965D02*
X09035Y-44965D01*
X09454Y-44965D02*
X14938Y-44965D01*
X15929Y-44965D02*
X18625Y-44965D01*
X97482Y-44965D02*
X100070Y-44965D01*
X101061Y-44965D02*
X106540Y-44965D01*
X106964Y-44965D02*
X107106Y-44965D01*
X108895Y-44965D02*
X109035Y-44965D01*
X109454Y-44965D02*
X110255Y-44965D01*
X05745Y-45045D02*
X06627Y-45045D01*
X06884Y-45045D02*
X07026Y-45045D01*
X08975Y-45045D02*
X09115Y-45045D01*
X09372Y-45045D02*
X14976Y-45045D01*
X15892Y-45045D02*
X18605Y-45045D01*
X97494Y-45045D02*
X100108Y-45045D01*
X101023Y-45045D02*
X106627Y-45045D01*
X106884Y-45045D02*
X107026Y-45045D01*
X108975Y-45045D02*
X109115Y-45045D01*
X109372Y-45045D02*
X110255Y-45045D01*
X05745Y-45125D02*
X06729Y-45125D01*
X06804Y-45125D02*
X06946Y-45125D01*
X09055Y-45125D02*
X09195Y-45125D01*
X09270Y-45125D02*
X15056Y-45125D01*
X15812Y-45125D02*
X18586Y-45125D01*
X97506Y-45125D02*
X100188Y-45125D01*
X100943Y-45125D02*
X106729Y-45125D01*
X106804Y-45125D02*
X106946Y-45125D01*
X109055Y-45125D02*
X109195Y-45125D01*
X109270Y-45125D02*
X110255Y-45125D01*
X05745Y-45205D02*
X06866Y-45205D01*
X09135Y-45205D02*
X15072Y-45205D01*
X15713Y-45205D02*
X18566Y-45205D01*
X97519Y-45205D02*
X100286Y-45205D01*
X100928Y-45205D02*
X106866Y-45205D01*
X109135Y-45205D02*
X110255Y-45205D01*
X05745Y-45285D02*
X06886Y-45285D01*
X09113Y-45285D02*
X14931Y-45285D01*
X15625Y-45285D02*
X18546Y-45285D01*
X97531Y-45285D02*
X100375Y-45285D01*
X101069Y-45285D02*
X106886Y-45285D01*
X109113Y-45285D02*
X110255Y-45285D01*
X05745Y-45365D02*
X06949Y-45365D01*
X09050Y-45365D02*
X14851Y-45365D01*
X15705Y-45365D02*
X18527Y-45365D01*
X97543Y-45365D02*
X100295Y-45365D01*
X101149Y-45365D02*
X106949Y-45365D01*
X109050Y-45365D02*
X110255Y-45365D01*
X05745Y-45445D02*
X07012Y-45445D01*
X08988Y-45445D02*
X14796Y-45445D01*
X15761Y-45445D02*
X18507Y-45445D01*
X97555Y-45445D02*
X100240Y-45445D01*
X101205Y-45445D02*
X107012Y-45445D01*
X108988Y-45445D02*
X110255Y-45445D01*
X05745Y-45525D02*
X07199Y-45525D01*
X08808Y-45525D02*
X14763Y-45525D01*
X15794Y-45525D02*
X18487Y-45525D01*
X97568Y-45525D02*
X100207Y-45525D01*
X101238Y-45525D02*
X107199Y-45525D01*
X108808Y-45525D02*
X110255Y-45525D01*
X05745Y-45605D02*
X07387Y-45605D01*
X08609Y-45605D02*
X14729Y-45605D01*
X15827Y-45605D02*
X18468Y-45605D01*
X97580Y-45605D02*
X100173Y-45605D01*
X101271Y-45605D02*
X107387Y-45605D01*
X108609Y-45605D02*
X110255Y-45605D01*
X05745Y-45685D02*
X07575Y-45685D01*
X08410Y-45685D02*
X14729Y-45685D01*
X15827Y-45685D02*
X18448Y-45685D01*
X97592Y-45685D02*
X100173Y-45685D01*
X101271Y-45685D02*
X107575Y-45685D01*
X108410Y-45685D02*
X110255Y-45685D01*
X05745Y-45765D02*
X14729Y-45765D01*
X15827Y-45765D02*
X18428Y-45765D01*
X97604Y-45765D02*
X100173Y-45765D01*
X101271Y-45765D02*
X110255Y-45765D01*
X05745Y-45845D02*
X14738Y-45845D01*
X15817Y-45845D02*
X18409Y-45845D01*
X97617Y-45845D02*
X100182Y-45845D01*
X101261Y-45845D02*
X110255Y-45845D01*
X05745Y-45925D02*
X14771Y-45925D01*
X15784Y-45925D02*
X18389Y-45925D01*
X97629Y-45925D02*
X100215Y-45925D01*
X101228Y-45925D02*
X110255Y-45925D01*
X05745Y-46005D02*
X14804Y-46005D01*
X15751Y-46005D02*
X18370Y-46005D01*
X97641Y-46005D02*
X100248Y-46005D01*
X101195Y-46005D02*
X110255Y-46005D01*
X05745Y-46085D02*
X14873Y-46085D01*
X15683Y-46085D02*
X18350Y-46085D01*
X97653Y-46085D02*
X100317Y-46085D01*
X101126Y-46085D02*
X110255Y-46085D01*
X05745Y-46165D02*
X14953Y-46165D01*
X15603Y-46165D02*
X18330Y-46165D01*
X97666Y-46165D02*
X100397Y-46165D01*
X101046Y-46165D02*
X110255Y-46165D01*
X05745Y-46245D02*
X14802Y-46245D01*
X15440Y-46245D02*
X18311Y-46245D01*
X97678Y-46245D02*
X100560Y-46245D01*
X101198Y-46245D02*
X110255Y-46245D01*
X05745Y-46325D02*
X14722Y-46325D01*
X15520Y-46325D02*
X18291Y-46325D01*
X97690Y-46325D02*
X100480Y-46325D01*
X101278Y-46325D02*
X110255Y-46325D01*
X05745Y-46405D02*
X14651Y-46405D01*
X15592Y-46405D02*
X18271Y-46405D01*
X97702Y-46405D02*
X100409Y-46405D01*
X101350Y-46405D02*
X110255Y-46405D01*
X05745Y-46485D02*
X14617Y-46485D01*
X15626Y-46485D02*
X18252Y-46485D01*
X97715Y-46485D02*
X100375Y-46485D01*
X101384Y-46485D02*
X110255Y-46485D01*
X05745Y-46565D02*
X14584Y-46565D01*
X15659Y-46565D02*
X18232Y-46565D01*
X97727Y-46565D02*
X100342Y-46565D01*
X101417Y-46565D02*
X110255Y-46565D01*
X05745Y-46645D02*
X14572Y-46645D01*
X15670Y-46645D02*
X18212Y-46645D01*
X97739Y-46645D02*
X100330Y-46645D01*
X101428Y-46645D02*
X110255Y-46645D01*
X05745Y-46725D02*
X14572Y-46725D01*
X15670Y-46725D02*
X18193Y-46725D01*
X97751Y-46725D02*
X100330Y-46725D01*
X101428Y-46725D02*
X110255Y-46725D01*
X05745Y-46805D02*
X14572Y-46805D01*
X15670Y-46805D02*
X18173Y-46805D01*
X97764Y-46805D02*
X100330Y-46805D01*
X101428Y-46805D02*
X110255Y-46805D01*
X05745Y-46885D02*
X14602Y-46885D01*
X15639Y-46885D02*
X18153Y-46885D01*
X97776Y-46885D02*
X100360Y-46885D01*
X101397Y-46885D02*
X110255Y-46885D01*
X05745Y-46965D02*
X14636Y-46965D01*
X15605Y-46965D02*
X18134Y-46965D01*
X97788Y-46965D02*
X100394Y-46965D01*
X101363Y-46965D02*
X110255Y-46965D01*
X05745Y-47045D02*
X14688Y-47045D01*
X15554Y-47045D02*
X18114Y-47045D01*
X97800Y-47045D02*
X100446Y-47045D01*
X101311Y-47045D02*
X110255Y-47045D01*
X05745Y-47125D02*
X14768Y-47125D01*
X15474Y-47125D02*
X18094Y-47125D01*
X97812Y-47125D02*
X100526Y-47125D01*
X101231Y-47125D02*
X110255Y-47125D01*
X05745Y-47205D02*
X14702Y-47205D01*
X15338Y-47205D02*
X18075Y-47205D01*
X97825Y-47205D02*
X100660Y-47205D01*
X101298Y-47205D02*
X110255Y-47205D01*
X05745Y-47285D02*
X14594Y-47285D01*
X15336Y-47285D02*
X18055Y-47285D01*
X97837Y-47285D02*
X100664Y-47285D01*
X101406Y-47285D02*
X110255Y-47285D01*
X05745Y-47365D02*
X14514Y-47365D01*
X15416Y-47365D02*
X18035Y-47365D01*
X97849Y-47365D02*
X100584Y-47365D01*
X101486Y-47365D02*
X110255Y-47365D01*
X05745Y-47445D02*
X14473Y-47445D01*
X15458Y-47445D02*
X18016Y-47445D01*
X97861Y-47445D02*
X100543Y-47445D01*
X101528Y-47445D02*
X110255Y-47445D01*
X05745Y-47525D02*
X14440Y-47525D01*
X15491Y-47525D02*
X17996Y-47525D01*
X97874Y-47525D02*
X100510Y-47525D01*
X101561Y-47525D02*
X110255Y-47525D01*
X05745Y-47605D02*
X14416Y-47605D01*
X15514Y-47605D02*
X17976Y-47605D01*
X97886Y-47605D02*
X100486Y-47605D01*
X101584Y-47605D02*
X110255Y-47605D01*
X05745Y-47685D02*
X14416Y-47685D01*
X15514Y-47685D02*
X17957Y-47685D01*
X97898Y-47685D02*
X100486Y-47685D01*
X101584Y-47685D02*
X110255Y-47685D01*
X05745Y-47765D02*
X14416Y-47765D01*
X15514Y-47765D02*
X17937Y-47765D01*
X97910Y-47765D02*
X100486Y-47765D01*
X101584Y-47765D02*
X110255Y-47765D01*
X05745Y-47845D02*
X14435Y-47845D01*
X15494Y-47845D02*
X17918Y-47845D01*
X97923Y-47845D02*
X100505Y-47845D01*
X101564Y-47845D02*
X110255Y-47845D01*
X05745Y-47925D02*
X14468Y-47925D01*
X15461Y-47925D02*
X17898Y-47925D01*
X97935Y-47925D02*
X100538Y-47925D01*
X101531Y-47925D02*
X110255Y-47925D01*
X05745Y-48005D02*
X14504Y-48005D01*
X15426Y-48005D02*
X17878Y-48005D01*
X97947Y-48005D02*
X100574Y-48005D01*
X101495Y-48005D02*
X110255Y-48005D01*
X05745Y-48085D02*
X14584Y-48085D01*
X15346Y-48085D02*
X17859Y-48085D01*
X97959Y-48085D02*
X100654Y-48085D01*
X101415Y-48085D02*
X110255Y-48085D01*
X05745Y-48165D02*
X14611Y-48165D01*
X15251Y-48165D02*
X17839Y-48165D01*
X97972Y-48165D02*
X100747Y-48165D01*
X101389Y-48165D02*
X110255Y-48165D01*
X05745Y-48245D02*
X14465Y-48245D01*
X15151Y-48245D02*
X17819Y-48245D01*
X97984Y-48245D02*
X100849Y-48245D01*
X101535Y-48245D02*
X110255Y-48245D01*
X05745Y-48325D02*
X14385Y-48325D01*
X15231Y-48325D02*
X17800Y-48325D01*
X97996Y-48325D02*
X100769Y-48325D01*
X101615Y-48325D02*
X110255Y-48325D01*
X05745Y-48405D02*
X14328Y-48405D01*
X15289Y-48405D02*
X17780Y-48405D01*
X98008Y-48405D02*
X100712Y-48405D01*
X101673Y-48405D02*
X110255Y-48405D01*
X05745Y-48485D02*
X14294Y-48485D01*
X15323Y-48485D02*
X17760Y-48485D01*
X98021Y-48485D02*
X100678Y-48485D01*
X101707Y-48485D02*
X110255Y-48485D01*
X05745Y-48565D02*
X14261Y-48565D01*
X15356Y-48565D02*
X17741Y-48565D01*
X98033Y-48565D02*
X100645Y-48565D01*
X101740Y-48565D02*
X110255Y-48565D01*
X05745Y-48645D02*
X14259Y-48645D01*
X15357Y-48645D02*
X17721Y-48645D01*
X98045Y-48645D02*
X100643Y-48645D01*
X101741Y-48645D02*
X110255Y-48645D01*
X05745Y-48725D02*
X14259Y-48725D01*
X15357Y-48725D02*
X17701Y-48725D01*
X98057Y-48725D02*
X100643Y-48725D01*
X101741Y-48725D02*
X110255Y-48725D01*
X05745Y-48805D02*
X14266Y-48805D01*
X15349Y-48805D02*
X17682Y-48805D01*
X98069Y-48805D02*
X100650Y-48805D01*
X101733Y-48805D02*
X110255Y-48805D01*
X05745Y-48885D02*
X14299Y-48885D01*
X15316Y-48885D02*
X17662Y-48885D01*
X98082Y-48885D02*
X100683Y-48885D01*
X101700Y-48885D02*
X110255Y-48885D01*
X05745Y-48965D02*
X14333Y-48965D01*
X15282Y-48965D02*
X17642Y-48965D01*
X98094Y-48965D02*
X100717Y-48965D01*
X101666Y-48965D02*
X110255Y-48965D01*
X05745Y-49045D02*
X14399Y-49045D01*
X15217Y-49045D02*
X17623Y-49045D01*
X98106Y-49045D02*
X100783Y-49045D01*
X101600Y-49045D02*
X110255Y-49045D01*
X05745Y-49125D02*
X14479Y-49125D01*
X15137Y-49125D02*
X17603Y-49125D01*
X98118Y-49125D02*
X100863Y-49125D01*
X101520Y-49125D02*
X110255Y-49125D01*
X05745Y-49205D02*
X14336Y-49205D01*
X14968Y-49205D02*
X17583Y-49205D01*
X98131Y-49205D02*
X101031Y-49205D01*
X101664Y-49205D02*
X110255Y-49205D01*
X05745Y-49285D02*
X14256Y-49285D01*
X15048Y-49285D02*
X17564Y-49285D01*
X98143Y-49285D02*
X100952Y-49285D01*
X101744Y-49285D02*
X110255Y-49285D01*
X05745Y-49365D02*
X14183Y-49365D01*
X15122Y-49365D02*
X17544Y-49365D01*
X98155Y-49365D02*
X100879Y-49365D01*
X101818Y-49365D02*
X110255Y-49365D01*
X05745Y-49445D02*
X14150Y-49445D01*
X15155Y-49445D02*
X17524Y-49445D01*
X98167Y-49445D02*
X100846Y-49445D01*
X101851Y-49445D02*
X110255Y-49445D01*
X05745Y-49525D02*
X14116Y-49525D01*
X15189Y-49525D02*
X17505Y-49525D01*
X98180Y-49525D02*
X100812Y-49525D01*
X101885Y-49525D02*
X110255Y-49525D01*
X05745Y-49605D02*
X14103Y-49605D01*
X15201Y-49605D02*
X17485Y-49605D01*
X98192Y-49605D02*
X100799Y-49605D01*
X101897Y-49605D02*
X110255Y-49605D01*
X05745Y-49685D02*
X14103Y-49685D01*
X15201Y-49685D02*
X17465Y-49685D01*
X98204Y-49685D02*
X100799Y-49685D01*
X101897Y-49685D02*
X110255Y-49685D01*
X05745Y-49765D02*
X14103Y-49765D01*
X15201Y-49765D02*
X17446Y-49765D01*
X98216Y-49765D02*
X100799Y-49765D01*
X101897Y-49765D02*
X110255Y-49765D01*
X05745Y-49845D02*
X14132Y-49845D01*
X15171Y-49845D02*
X17426Y-49845D01*
X98228Y-49845D02*
X100828Y-49845D01*
X101867Y-49845D02*
X110255Y-49845D01*
X05745Y-49925D02*
X14165Y-49925D01*
X15138Y-49925D02*
X17406Y-49925D01*
X98241Y-49925D02*
X100861Y-49925D01*
X101834Y-49925D02*
X110255Y-49925D01*
X05745Y-50005D02*
X14216Y-50005D01*
X15088Y-50005D02*
X17387Y-50005D01*
X98253Y-50005D02*
X100912Y-50005D01*
X101784Y-50005D02*
X110255Y-50005D01*
X05745Y-50085D02*
X14131Y-50085D01*
X15008Y-50085D02*
X17367Y-50085D01*
X98265Y-50085D02*
X100992Y-50085D01*
X101704Y-50085D02*
X110255Y-50085D01*
X05745Y-50165D02*
X14042Y-50165D01*
X14921Y-50165D02*
X17347Y-50165D01*
X98277Y-50165D02*
X101122Y-50165D01*
X101719Y-50165D02*
X110255Y-50165D01*
X05745Y-50245D02*
X14005Y-50245D01*
X15032Y-50245D02*
X17328Y-50245D01*
X98290Y-50245D02*
X101153Y-50245D01*
X101739Y-50245D02*
X110255Y-50245D01*
X05745Y-50325D02*
X13992Y-50325D01*
X15076Y-50325D02*
X17308Y-50325D01*
X98302Y-50325D02*
X101143Y-50325D01*
X101681Y-50325D02*
X101806Y-50325D01*
X101941Y-50325D02*
X110255Y-50325D01*
X05745Y-50405D02*
X13979Y-50405D01*
X15090Y-50405D02*
X17288Y-50405D01*
X98314Y-50405D02*
X101249Y-50405D01*
X101623Y-50405D02*
X101748Y-50405D01*
X101990Y-50405D02*
X110255Y-50405D01*
X05745Y-50485D02*
X13966Y-50485D01*
X15077Y-50485D02*
X17269Y-50485D01*
X98326Y-50485D02*
X100989Y-50485D01*
X101190Y-50485D02*
X101359Y-50485D01*
X101565Y-50485D02*
X101690Y-50485D01*
X102020Y-50485D02*
X110255Y-50485D01*
X05745Y-50565D02*
X13954Y-50565D01*
X15064Y-50565D02*
X17249Y-50565D01*
X98339Y-50565D02*
X100974Y-50565D01*
X101300Y-50565D02*
X101469Y-50565D01*
X101507Y-50565D02*
X101631Y-50565D01*
X102037Y-50565D02*
X110255Y-50565D01*
X05745Y-50645D02*
X13941Y-50645D01*
X15052Y-50645D02*
X17229Y-50645D01*
X98351Y-50645D02*
X100959Y-50645D01*
X101409Y-50645D02*
X101579Y-50645D01*
X102054Y-50645D02*
X110255Y-50645D01*
X05745Y-50725D02*
X13928Y-50725D01*
X15039Y-50725D02*
X17210Y-50725D01*
X98363Y-50725D02*
X100969Y-50725D01*
X101390Y-50725D02*
X101515Y-50725D01*
X101519Y-50725D02*
X101689Y-50725D01*
X102039Y-50725D02*
X110255Y-50725D01*
X05745Y-50805D02*
X13915Y-50805D01*
X15026Y-50805D02*
X17190Y-50805D01*
X98375Y-50805D02*
X100987Y-50805D01*
X101332Y-50805D02*
X101457Y-50805D01*
X101629Y-50805D02*
X101799Y-50805D01*
X102024Y-50805D02*
X110255Y-50805D01*
X05745Y-50885D02*
X13903Y-50885D01*
X15014Y-50885D02*
X17170Y-50885D01*
X98387Y-50885D02*
X101010Y-50885D01*
X101273Y-50885D02*
X101399Y-50885D01*
X101739Y-50885D02*
X101909Y-50885D01*
X101954Y-50885D02*
X110255Y-50885D01*
X05745Y-50965D02*
X13910Y-50965D01*
X15001Y-50965D02*
X17151Y-50965D01*
X98400Y-50965D02*
X101059Y-50965D01*
X101215Y-50965D02*
X101340Y-50965D01*
X101849Y-50965D02*
X110255Y-50965D01*
X05745Y-51045D02*
X13947Y-51045D01*
X14988Y-51045D02*
X17131Y-51045D01*
X98412Y-51045D02*
X101282Y-51045D01*
X101859Y-51045D02*
X110255Y-51045D01*
X05745Y-51125D02*
X14038Y-51125D01*
X14957Y-51125D02*
X17111Y-51125D01*
X98424Y-51125D02*
X101283Y-51125D01*
X101773Y-51125D02*
X110255Y-51125D01*
X05745Y-51205D02*
X14470Y-51205D01*
X14881Y-51205D02*
X17092Y-51205D01*
X98436Y-51205D02*
X110255Y-51205D01*
X05745Y-51285D02*
X17072Y-51285D01*
X98449Y-51285D02*
X110255Y-51285D01*
X05745Y-51365D02*
X17052Y-51365D01*
X98461Y-51365D02*
X110255Y-51365D01*
X05745Y-51445D02*
X17033Y-51445D01*
X98473Y-51445D02*
X110255Y-51445D01*
X05745Y-51525D02*
X17013Y-51525D01*
X98485Y-51525D02*
X110255Y-51525D01*
X05745Y-51605D02*
X16993Y-51605D01*
X98498Y-51605D02*
X110255Y-51605D01*
X05745Y-51685D02*
X16974Y-51685D01*
X98510Y-51685D02*
X110255Y-51685D01*
X05745Y-51765D02*
X16954Y-51765D01*
X98522Y-51765D02*
X110255Y-51765D01*
X05745Y-51845D02*
X16934Y-51845D01*
X98534Y-51845D02*
X110255Y-51845D01*
X05745Y-51925D02*
X16915Y-51925D01*
X98546Y-51925D02*
X110255Y-51925D01*
X05745Y-52005D02*
X16895Y-52005D01*
X98559Y-52005D02*
X110255Y-52005D01*
X05745Y-52085D02*
X16875Y-52085D01*
X98571Y-52085D02*
X110255Y-52085D01*
X05745Y-52165D02*
X16859Y-52165D01*
X98583Y-52165D02*
X110255Y-52165D01*
X05745Y-52245D02*
X16856Y-52245D01*
X98595Y-52245D02*
X110255Y-52245D01*
X05745Y-52325D02*
X07565Y-52325D01*
X08449Y-52325D02*
X16866Y-52325D01*
X98608Y-52325D02*
X107565Y-52325D01*
X108449Y-52325D02*
X110255Y-52325D01*
X05745Y-52405D02*
X07366Y-52405D01*
X08636Y-52405D02*
X16879Y-52405D01*
X98620Y-52405D02*
X107366Y-52405D01*
X108636Y-52405D02*
X110255Y-52405D01*
X05745Y-52485D02*
X07168Y-52485D01*
X08824Y-52485D02*
X16891Y-52485D01*
X98632Y-52485D02*
X107168Y-52485D01*
X108824Y-52485D02*
X110255Y-52485D01*
X05745Y-52565D02*
X07005Y-52565D01*
X08996Y-52565D02*
X16903Y-52565D01*
X98644Y-52565D02*
X107005Y-52565D01*
X108996Y-52565D02*
X110255Y-52565D01*
X05745Y-52645D02*
X06942Y-52645D01*
X09059Y-52645D02*
X16915Y-52645D01*
X98657Y-52645D02*
X106942Y-52645D01*
X109059Y-52645D02*
X110255Y-52645D01*
X05745Y-52725D02*
X06879Y-52725D01*
X09122Y-52725D02*
X16927Y-52725D01*
X98669Y-52725D02*
X106879Y-52725D01*
X109122Y-52725D02*
X110255Y-52725D01*
X05745Y-52805D02*
X06875Y-52805D01*
X09124Y-52805D02*
X16940Y-52805D01*
X98681Y-52805D02*
X106875Y-52805D01*
X109124Y-52805D02*
X110255Y-52805D01*
X05745Y-52885D02*
X06718Y-52885D01*
X06815Y-52885D02*
X06955Y-52885D01*
X09044Y-52885D02*
X09186Y-52885D01*
X09283Y-52885D02*
X16952Y-52885D01*
X98693Y-52885D02*
X106718Y-52885D01*
X106815Y-52885D02*
X106955Y-52885D01*
X109044Y-52885D02*
X109186Y-52885D01*
X109283Y-52885D02*
X110255Y-52885D01*
X05745Y-52965D02*
X06615Y-52965D01*
X06895Y-52965D02*
X07035Y-52965D01*
X08964Y-52965D02*
X09106Y-52965D01*
X09386Y-52965D02*
X16964Y-52965D01*
X98706Y-52965D02*
X106615Y-52965D01*
X106895Y-52965D02*
X107035Y-52965D01*
X108964Y-52965D02*
X109106Y-52965D01*
X109386Y-52965D02*
X110255Y-52965D01*
X05745Y-53045D02*
X06541Y-53045D01*
X06975Y-53045D02*
X07115Y-53045D01*
X08884Y-53045D02*
X09026Y-53045D01*
X09466Y-53045D02*
X16976Y-53045D01*
X98718Y-53045D02*
X106541Y-53045D01*
X106975Y-53045D02*
X107115Y-53045D01*
X108884Y-53045D02*
X109026Y-53045D01*
X109466Y-53045D02*
X110255Y-53045D01*
X05745Y-53125D02*
X06507Y-53125D01*
X07055Y-53125D02*
X07195Y-53125D01*
X08804Y-53125D02*
X08946Y-53125D01*
X09499Y-53125D02*
X16989Y-53125D01*
X98730Y-53125D02*
X106507Y-53125D01*
X107055Y-53125D02*
X107195Y-53125D01*
X108804Y-53125D02*
X108946Y-53125D01*
X109499Y-53125D02*
X110255Y-53125D01*
X05745Y-53205D02*
X06473Y-53205D01*
X07135Y-53205D02*
X07275Y-53205D01*
X08724Y-53205D02*
X08866Y-53205D01*
X09531Y-53205D02*
X17001Y-53205D01*
X98742Y-53205D02*
X106473Y-53205D01*
X107135Y-53205D02*
X107275Y-53205D01*
X108724Y-53205D02*
X108866Y-53205D01*
X109531Y-53205D02*
X110255Y-53205D01*
X05745Y-53285D02*
X06439Y-53285D01*
X07215Y-53285D02*
X07355Y-53285D01*
X08644Y-53285D02*
X08786Y-53285D01*
X09563Y-53285D02*
X17013Y-53285D01*
X98754Y-53285D02*
X106439Y-53285D01*
X107215Y-53285D02*
X107355Y-53285D01*
X108644Y-53285D02*
X108786Y-53285D01*
X109563Y-53285D02*
X110255Y-53285D01*
X05745Y-53365D02*
X06405Y-53365D01*
X07295Y-53365D02*
X07435Y-53365D01*
X08564Y-53365D02*
X08706Y-53365D01*
X09595Y-53365D02*
X17025Y-53365D01*
X98767Y-53365D02*
X106405Y-53365D01*
X107295Y-53365D02*
X107435Y-53365D01*
X108564Y-53365D02*
X108706Y-53365D01*
X109595Y-53365D02*
X110255Y-53365D01*
X05745Y-53445D02*
X06371Y-53445D01*
X07375Y-53445D02*
X07515Y-53445D01*
X08484Y-53445D02*
X08626Y-53445D01*
X09627Y-53445D02*
X17038Y-53445D01*
X98779Y-53445D02*
X106371Y-53445D01*
X107375Y-53445D02*
X107515Y-53445D01*
X108484Y-53445D02*
X108626Y-53445D01*
X109627Y-53445D02*
X110255Y-53445D01*
X05745Y-53525D02*
X06337Y-53525D01*
X07455Y-53525D02*
X07595Y-53525D01*
X08404Y-53525D02*
X08546Y-53525D01*
X09660Y-53525D02*
X17050Y-53525D01*
X98791Y-53525D02*
X106337Y-53525D01*
X107455Y-53525D02*
X107595Y-53525D01*
X108404Y-53525D02*
X108546Y-53525D01*
X109660Y-53525D02*
X110255Y-53525D01*
X05745Y-53605D02*
X06303Y-53605D01*
X07535Y-53605D02*
X07675Y-53605D01*
X08324Y-53605D02*
X08466Y-53605D01*
X09692Y-53605D02*
X17062Y-53605D01*
X98803Y-53605D02*
X106303Y-53605D01*
X107535Y-53605D02*
X107675Y-53605D01*
X108324Y-53605D02*
X108466Y-53605D01*
X109692Y-53605D02*
X110255Y-53605D01*
X05745Y-53685D02*
X06287Y-53685D01*
X07615Y-53685D02*
X07755Y-53685D01*
X08244Y-53685D02*
X08386Y-53685D01*
X09719Y-53685D02*
X17074Y-53685D01*
X98816Y-53685D02*
X106287Y-53685D01*
X107615Y-53685D02*
X107755Y-53685D01*
X108244Y-53685D02*
X108386Y-53685D01*
X109719Y-53685D02*
X110255Y-53685D01*
X05745Y-53765D02*
X06286Y-53765D01*
X07695Y-53765D02*
X07835Y-53765D01*
X08164Y-53765D02*
X08306Y-53765D01*
X09719Y-53765D02*
X17087Y-53765D01*
X98828Y-53765D02*
X106286Y-53765D01*
X107695Y-53765D02*
X107835Y-53765D01*
X108164Y-53765D02*
X108306Y-53765D01*
X109719Y-53765D02*
X110255Y-53765D01*
X05745Y-53845D02*
X06285Y-53845D01*
X07775Y-53845D02*
X07915Y-53845D01*
X08084Y-53845D02*
X08226Y-53845D01*
X09718Y-53845D02*
X17099Y-53845D01*
X98840Y-53845D02*
X106285Y-53845D01*
X107775Y-53845D02*
X107915Y-53845D01*
X108084Y-53845D02*
X108226Y-53845D01*
X109718Y-53845D02*
X110255Y-53845D01*
X05745Y-53925D02*
X06285Y-53925D01*
X07855Y-53925D02*
X07995Y-53925D01*
X08004Y-53925D02*
X08146Y-53925D01*
X09717Y-53925D02*
X17111Y-53925D01*
X98852Y-53925D02*
X106285Y-53925D01*
X107855Y-53925D02*
X107995Y-53925D01*
X108004Y-53925D02*
X108146Y-53925D01*
X109717Y-53925D02*
X110255Y-53925D01*
X05745Y-54005D02*
X06284Y-54005D01*
X07924Y-54005D02*
X08075Y-54005D01*
X09716Y-54005D02*
X17123Y-54005D01*
X98865Y-54005D02*
X106284Y-54005D01*
X107924Y-54005D02*
X108075Y-54005D01*
X109716Y-54005D02*
X110255Y-54005D01*
X05745Y-54085D02*
X06283Y-54085D01*
X07844Y-54085D02*
X07986Y-54085D01*
X08015Y-54085D02*
X08155Y-54085D01*
X09715Y-54085D02*
X17135Y-54085D01*
X98877Y-54085D02*
X106283Y-54085D01*
X107844Y-54085D02*
X107986Y-54085D01*
X108015Y-54085D02*
X108155Y-54085D01*
X109715Y-54085D02*
X110255Y-54085D01*
X05745Y-54165D02*
X06282Y-54165D01*
X07764Y-54165D02*
X07906Y-54165D01*
X08095Y-54165D02*
X08235Y-54165D01*
X09714Y-54165D02*
X17148Y-54165D01*
X98889Y-54165D02*
X106282Y-54165D01*
X107764Y-54165D02*
X107906Y-54165D01*
X108095Y-54165D02*
X108235Y-54165D01*
X109714Y-54165D02*
X110255Y-54165D01*
X05745Y-54245D02*
X06281Y-54245D01*
X07684Y-54245D02*
X07826Y-54245D01*
X08175Y-54245D02*
X08315Y-54245D01*
X09714Y-54245D02*
X17160Y-54245D01*
X98901Y-54245D02*
X106281Y-54245D01*
X107684Y-54245D02*
X107826Y-54245D01*
X108175Y-54245D02*
X108315Y-54245D01*
X109714Y-54245D02*
X110255Y-54245D01*
X05745Y-54325D02*
X06280Y-54325D01*
X07604Y-54325D02*
X07746Y-54325D01*
X08255Y-54325D02*
X08395Y-54325D01*
X09713Y-54325D02*
X17172Y-54325D01*
X98913Y-54325D02*
X106280Y-54325D01*
X107604Y-54325D02*
X107746Y-54325D01*
X108255Y-54325D02*
X108395Y-54325D01*
X109713Y-54325D02*
X110255Y-54325D01*
X05745Y-54405D02*
X06312Y-54405D01*
X07524Y-54405D02*
X07666Y-54405D01*
X08335Y-54405D02*
X08475Y-54405D01*
X09693Y-54405D02*
X17184Y-54405D01*
X98926Y-54405D02*
X106312Y-54405D01*
X107524Y-54405D02*
X107666Y-54405D01*
X108335Y-54405D02*
X108475Y-54405D01*
X109693Y-54405D02*
X110255Y-54405D01*
X05745Y-54485D02*
X06344Y-54485D01*
X07444Y-54485D02*
X07586Y-54485D01*
X08415Y-54485D02*
X08555Y-54485D01*
X09659Y-54485D02*
X17197Y-54485D01*
X98938Y-54485D02*
X106344Y-54485D01*
X107444Y-54485D02*
X107586Y-54485D01*
X108415Y-54485D02*
X108555Y-54485D01*
X109659Y-54485D02*
X110255Y-54485D01*
X05745Y-54565D02*
X06377Y-54565D01*
X07364Y-54565D02*
X07506Y-54565D01*
X08495Y-54565D02*
X08635Y-54565D01*
X09625Y-54565D02*
X17209Y-54565D01*
X98950Y-54565D02*
X106377Y-54565D01*
X107364Y-54565D02*
X107506Y-54565D01*
X108495Y-54565D02*
X108635Y-54565D01*
X109625Y-54565D02*
X110255Y-54565D01*
X05745Y-54645D02*
X06409Y-54645D01*
X07284Y-54645D02*
X07426Y-54645D01*
X08575Y-54645D02*
X08715Y-54645D01*
X09591Y-54645D02*
X17221Y-54645D01*
X98962Y-54645D02*
X106409Y-54645D01*
X107284Y-54645D02*
X107426Y-54645D01*
X108575Y-54645D02*
X108715Y-54645D01*
X109591Y-54645D02*
X110255Y-54645D01*
X05745Y-54725D02*
X06441Y-54725D01*
X07204Y-54725D02*
X07346Y-54725D01*
X08655Y-54725D02*
X08795Y-54725D01*
X09557Y-54725D02*
X17233Y-54725D01*
X98975Y-54725D02*
X106441Y-54725D01*
X107204Y-54725D02*
X107346Y-54725D01*
X108655Y-54725D02*
X108795Y-54725D01*
X109557Y-54725D02*
X110255Y-54725D01*
X05745Y-54805D02*
X06473Y-54805D01*
X07124Y-54805D02*
X07266Y-54805D01*
X08735Y-54805D02*
X08875Y-54805D01*
X09522Y-54805D02*
X17246Y-54805D01*
X98987Y-54805D02*
X106473Y-54805D01*
X107124Y-54805D02*
X107266Y-54805D01*
X108735Y-54805D02*
X108875Y-54805D01*
X109522Y-54805D02*
X110255Y-54805D01*
X05745Y-54885D02*
X06505Y-54885D01*
X07044Y-54885D02*
X07186Y-54885D01*
X08815Y-54885D02*
X08955Y-54885D01*
X09488Y-54885D02*
X17258Y-54885D01*
X98999Y-54885D02*
X106505Y-54885D01*
X107044Y-54885D02*
X107186Y-54885D01*
X108815Y-54885D02*
X108955Y-54885D01*
X109488Y-54885D02*
X110255Y-54885D01*
X05745Y-54965D02*
X06540Y-54965D01*
X06964Y-54965D02*
X07106Y-54965D01*
X08895Y-54965D02*
X09035Y-54965D01*
X09454Y-54965D02*
X17270Y-54965D01*
X99011Y-54965D02*
X106540Y-54965D01*
X106964Y-54965D02*
X107106Y-54965D01*
X108895Y-54965D02*
X109035Y-54965D01*
X109454Y-54965D02*
X110255Y-54965D01*
X05745Y-55045D02*
X06627Y-55045D01*
X06884Y-55045D02*
X07026Y-55045D01*
X08975Y-55045D02*
X09115Y-55045D01*
X09372Y-55045D02*
X17282Y-55045D01*
X99023Y-55045D02*
X106627Y-55045D01*
X106884Y-55045D02*
X107026Y-55045D01*
X108975Y-55045D02*
X109115Y-55045D01*
X109372Y-55045D02*
X110255Y-55045D01*
X05745Y-55125D02*
X06729Y-55125D01*
X06804Y-55125D02*
X06946Y-55125D01*
X09055Y-55125D02*
X09195Y-55125D01*
X09270Y-55125D02*
X17295Y-55125D01*
X99036Y-55125D02*
X106729Y-55125D01*
X106804Y-55125D02*
X106946Y-55125D01*
X109055Y-55125D02*
X109195Y-55125D01*
X109270Y-55125D02*
X110255Y-55125D01*
X05745Y-55205D02*
X06866Y-55205D01*
X09135Y-55205D02*
X17307Y-55205D01*
X99048Y-55205D02*
X106866Y-55205D01*
X109135Y-55205D02*
X110255Y-55205D01*
X05745Y-55285D02*
X06886Y-55285D01*
X09113Y-55285D02*
X17319Y-55285D01*
X99060Y-55285D02*
X106886Y-55285D01*
X109113Y-55285D02*
X110255Y-55285D01*
X05745Y-55365D02*
X06949Y-55365D01*
X09050Y-55365D02*
X17331Y-55365D01*
X99072Y-55365D02*
X106949Y-55365D01*
X109050Y-55365D02*
X110255Y-55365D01*
X05745Y-55445D02*
X07012Y-55445D01*
X08988Y-55445D02*
X17344Y-55445D01*
X99085Y-55445D02*
X107012Y-55445D01*
X108988Y-55445D02*
X110255Y-55445D01*
X05745Y-55525D02*
X07199Y-55525D01*
X08808Y-55525D02*
X17356Y-55525D01*
X99097Y-55525D02*
X107199Y-55525D01*
X108808Y-55525D02*
X110255Y-55525D01*
X05745Y-55605D02*
X07387Y-55605D01*
X08609Y-55605D02*
X17368Y-55605D01*
X99109Y-55605D02*
X107387Y-55605D01*
X108609Y-55605D02*
X110255Y-55605D01*
X05745Y-55685D02*
X07575Y-55685D01*
X08410Y-55685D02*
X17380Y-55685D01*
X99128Y-55685D02*
X107575Y-55685D01*
X108410Y-55685D02*
X110255Y-55685D01*
X05745Y-55765D02*
X17392Y-55765D01*
X99153Y-55765D02*
X110255Y-55765D01*
X05745Y-55845D02*
X17405Y-55845D01*
X99151Y-55845D02*
X110255Y-55845D01*
X05745Y-55925D02*
X17417Y-55925D01*
X99135Y-55925D02*
X110255Y-55925D01*
X05745Y-56005D02*
X17429Y-56005D01*
X99119Y-56005D02*
X110255Y-56005D01*
X05745Y-56085D02*
X17441Y-56085D01*
X99103Y-56085D02*
X110255Y-56085D01*
X05745Y-56165D02*
X17454Y-56165D01*
X99087Y-56165D02*
X110255Y-56165D01*
X05745Y-56245D02*
X17466Y-56245D01*
X99071Y-56245D02*
X110255Y-56245D01*
X05745Y-56325D02*
X17478Y-56325D01*
X99055Y-56325D02*
X110255Y-56325D01*
X05745Y-56405D02*
X17490Y-56405D01*
X99039Y-56405D02*
X110255Y-56405D01*
X05745Y-56485D02*
X17503Y-56485D01*
X99023Y-56485D02*
X110255Y-56485D01*
X05745Y-56565D02*
X17515Y-56565D01*
X99007Y-56565D02*
X110255Y-56565D01*
X05745Y-56645D02*
X17527Y-56645D01*
X98991Y-56645D02*
X110255Y-56645D01*
X05745Y-56725D02*
X17539Y-56725D01*
X98975Y-56725D02*
X110255Y-56725D01*
X05745Y-56805D02*
X14456Y-56805D01*
X14526Y-56805D02*
X17552Y-56805D01*
X98959Y-56805D02*
X101105Y-56805D01*
X101594Y-56805D02*
X110255Y-56805D01*
X05745Y-56885D02*
X14210Y-56885D01*
X14721Y-56885D02*
X17564Y-56885D01*
X98943Y-56885D02*
X101037Y-56885D01*
X101979Y-56885D02*
X110255Y-56885D01*
X05745Y-56965D02*
X14139Y-56965D01*
X14710Y-56965D02*
X17576Y-56965D01*
X98927Y-56965D02*
X101010Y-56965D01*
X102061Y-56965D02*
X110255Y-56965D01*
X05745Y-57045D02*
X14165Y-57045D01*
X14652Y-57045D02*
X14777Y-57045D01*
X14947Y-57045D02*
X17588Y-57045D01*
X98911Y-57045D02*
X100997Y-57045D01*
X102092Y-57045D02*
X110255Y-57045D01*
X05745Y-57125D02*
X14025Y-57125D01*
X14105Y-57125D02*
X14275Y-57125D01*
X14594Y-57125D02*
X14719Y-57125D01*
X14996Y-57125D02*
X17601Y-57125D01*
X98895Y-57125D02*
X100985Y-57125D01*
X102096Y-57125D02*
X110255Y-57125D01*
X05745Y-57205D02*
X13974Y-57205D01*
X14215Y-57205D02*
X14385Y-57205D01*
X14536Y-57205D02*
X14661Y-57205D01*
X15015Y-57205D02*
X17613Y-57205D01*
X98879Y-57205D02*
X100972Y-57205D01*
X102083Y-57205D02*
X110255Y-57205D01*
X05745Y-57285D02*
X13959Y-57285D01*
X14325Y-57285D02*
X14603Y-57285D01*
X15033Y-57285D02*
X17625Y-57285D01*
X98863Y-57285D02*
X100959Y-57285D01*
X102070Y-57285D02*
X110255Y-57285D01*
X05745Y-57365D02*
X13948Y-57365D01*
X14419Y-57365D02*
X14605Y-57365D01*
X15039Y-57365D02*
X17637Y-57365D01*
X98847Y-57365D02*
X100947Y-57365D01*
X102058Y-57365D02*
X110255Y-57365D01*
X05745Y-57445D02*
X13965Y-57445D01*
X14361Y-57445D02*
X14486Y-57445D01*
X14545Y-57445D02*
X14715Y-57445D01*
X15024Y-57445D02*
X17649Y-57445D01*
X98831Y-57445D02*
X100934Y-57445D01*
X102045Y-57445D02*
X110255Y-57445D01*
X05745Y-57525D02*
X13982Y-57525D01*
X14303Y-57525D02*
X14428Y-57525D01*
X14655Y-57525D02*
X14825Y-57525D01*
X15009Y-57525D02*
X17662Y-57525D01*
X98815Y-57525D02*
X100921Y-57525D01*
X102032Y-57525D02*
X110255Y-57525D01*
X05745Y-57605D02*
X14016Y-57605D01*
X14245Y-57605D02*
X14370Y-57605D01*
X14765Y-57605D02*
X17674Y-57605D01*
X98799Y-57605D02*
X100909Y-57605D01*
X102020Y-57605D02*
X110255Y-57605D01*
X05745Y-57685D02*
X14065Y-57685D01*
X14187Y-57685D02*
X14312Y-57685D01*
X14856Y-57685D02*
X17686Y-57685D01*
X98783Y-57685D02*
X100926Y-57685D01*
X102007Y-57685D02*
X110255Y-57685D01*
X05745Y-57765D02*
X14253Y-57765D01*
X14846Y-57765D02*
X17698Y-57765D01*
X98767Y-57765D02*
X100975Y-57765D01*
X101994Y-57765D02*
X110255Y-57765D01*
X05745Y-57845D02*
X14286Y-57845D01*
X14905Y-57845D02*
X17711Y-57845D01*
X98752Y-57845D02*
X101096Y-57845D01*
X101951Y-57845D02*
X110255Y-57845D01*
X05745Y-57925D02*
X14286Y-57925D01*
X15018Y-57925D02*
X17723Y-57925D01*
X98736Y-57925D02*
X100982Y-57925D01*
X101844Y-57925D02*
X110255Y-57925D01*
X05745Y-58005D02*
X14206Y-58005D01*
X15098Y-58005D02*
X17735Y-58005D01*
X98720Y-58005D02*
X100902Y-58005D01*
X101794Y-58005D02*
X110255Y-58005D01*
X05745Y-58085D02*
X14162Y-58085D01*
X15143Y-58085D02*
X17747Y-58085D01*
X98704Y-58085D02*
X100858Y-58085D01*
X101839Y-58085D02*
X110255Y-58085D01*
X05745Y-58165D02*
X14129Y-58165D01*
X15176Y-58165D02*
X17760Y-58165D01*
X98688Y-58165D02*
X100825Y-58165D01*
X101872Y-58165D02*
X110255Y-58165D01*
X05745Y-58245D02*
X14103Y-58245D01*
X15201Y-58245D02*
X17772Y-58245D01*
X98672Y-58245D02*
X100799Y-58245D01*
X101897Y-58245D02*
X110255Y-58245D01*
X05745Y-58325D02*
X14103Y-58325D01*
X15201Y-58325D02*
X17784Y-58325D01*
X98656Y-58325D02*
X100799Y-58325D01*
X101897Y-58325D02*
X110255Y-58325D01*
X05745Y-58405D02*
X14103Y-58405D01*
X15201Y-58405D02*
X17796Y-58405D01*
X98640Y-58405D02*
X100799Y-58405D01*
X101897Y-58405D02*
X110255Y-58405D01*
X05745Y-58485D02*
X14120Y-58485D01*
X15183Y-58485D02*
X17809Y-58485D01*
X98624Y-58485D02*
X100816Y-58485D01*
X101879Y-58485D02*
X110255Y-58485D01*
X05745Y-58565D02*
X14153Y-58565D01*
X15150Y-58565D02*
X17821Y-58565D01*
X98608Y-58565D02*
X100849Y-58565D01*
X101846Y-58565D02*
X110255Y-58565D01*
X05745Y-58645D02*
X14186Y-58645D01*
X15117Y-58645D02*
X17833Y-58645D01*
X98592Y-58645D02*
X100882Y-58645D01*
X101813Y-58645D02*
X110255Y-58645D01*
X05745Y-58725D02*
X14266Y-58725D01*
X15037Y-58725D02*
X17845Y-58725D01*
X98576Y-58725D02*
X100962Y-58725D01*
X101734Y-58725D02*
X110255Y-58725D01*
X05745Y-58805D02*
X14353Y-58805D01*
X14995Y-58805D02*
X17857Y-58805D01*
X98560Y-58805D02*
X101005Y-58805D01*
X101646Y-58805D02*
X110255Y-58805D01*
X05745Y-58885D02*
X14469Y-58885D01*
X15147Y-58885D02*
X17870Y-58885D01*
X98544Y-58885D02*
X100853Y-58885D01*
X101531Y-58885D02*
X110255Y-58885D01*
X05745Y-58965D02*
X14389Y-58965D01*
X15227Y-58965D02*
X17882Y-58965D01*
X98528Y-58965D02*
X100773Y-58965D01*
X101611Y-58965D02*
X110255Y-58965D01*
X05745Y-59045D02*
X14329Y-59045D01*
X15288Y-59045D02*
X17894Y-59045D01*
X98512Y-59045D02*
X100713Y-59045D01*
X101672Y-59045D02*
X110255Y-59045D01*
X05745Y-59125D02*
X14296Y-59125D01*
X15321Y-59125D02*
X17906Y-59125D01*
X98496Y-59125D02*
X100680Y-59125D01*
X101705Y-59125D02*
X110255Y-59125D01*
X05745Y-59205D02*
X14263Y-59205D01*
X15354Y-59205D02*
X17919Y-59205D01*
X98480Y-59205D02*
X100647Y-59205D01*
X101738Y-59205D02*
X110255Y-59205D01*
X05745Y-59285D02*
X14259Y-59285D01*
X15357Y-59285D02*
X17931Y-59285D01*
X98464Y-59285D02*
X100643Y-59285D01*
X101741Y-59285D02*
X110255Y-59285D01*
X05745Y-59365D02*
X14259Y-59365D01*
X15357Y-59365D02*
X17943Y-59365D01*
X98448Y-59365D02*
X100643Y-59365D01*
X101741Y-59365D02*
X110255Y-59365D01*
X05745Y-59445D02*
X14264Y-59445D01*
X15351Y-59445D02*
X17955Y-59445D01*
X98432Y-59445D02*
X100648Y-59445D01*
X101735Y-59445D02*
X110255Y-59445D01*
X05745Y-59525D02*
X14298Y-59525D01*
X15317Y-59525D02*
X17968Y-59525D01*
X98416Y-59525D02*
X100682Y-59525D01*
X101701Y-59525D02*
X110255Y-59525D01*
X05745Y-59605D02*
X14331Y-59605D01*
X15284Y-59605D02*
X17980Y-59605D01*
X98400Y-59605D02*
X100715Y-59605D01*
X101668Y-59605D02*
X110255Y-59605D01*
X05745Y-59685D02*
X14395Y-59685D01*
X15220Y-59685D02*
X17992Y-59685D01*
X98384Y-59685D02*
X100779Y-59685D01*
X101605Y-59685D02*
X110255Y-59685D01*
X05745Y-59765D02*
X14475Y-59765D01*
X15140Y-59765D02*
X18004Y-59765D01*
X98368Y-59765D02*
X100859Y-59765D01*
X101525Y-59765D02*
X110255Y-59765D01*
X05745Y-59845D02*
X14636Y-59845D01*
X15276Y-59845D02*
X18017Y-59845D01*
X98352Y-59845D02*
X100724Y-59845D01*
X101363Y-59845D02*
X110255Y-59845D01*
X05745Y-59925D02*
X14574Y-59925D01*
X15356Y-59925D02*
X18029Y-59925D01*
X98336Y-59925D02*
X100644Y-59925D01*
X101426Y-59925D02*
X110255Y-59925D01*
X05745Y-60005D02*
X14498Y-60005D01*
X15433Y-60005D02*
X18041Y-60005D01*
X98320Y-60005D02*
X100568Y-60005D01*
X101503Y-60005D02*
X110255Y-60005D01*
X05745Y-60085D02*
X14465Y-60085D01*
X15466Y-60085D02*
X18053Y-60085D01*
X98304Y-60085D02*
X100535Y-60085D01*
X101536Y-60085D02*
X110255Y-60085D01*
X05745Y-60165D02*
X14431Y-60165D01*
X15500Y-60165D02*
X18066Y-60165D01*
X98288Y-60165D02*
X100501Y-60165D01*
X101570Y-60165D02*
X110255Y-60165D01*
X05745Y-60245D02*
X14416Y-60245D01*
X15514Y-60245D02*
X18078Y-60245D01*
X98272Y-60245D02*
X100486Y-60245D01*
X101584Y-60245D02*
X110255Y-60245D01*
X05745Y-60325D02*
X14416Y-60325D01*
X15514Y-60325D02*
X18090Y-60325D01*
X98256Y-60325D02*
X100486Y-60325D01*
X101584Y-60325D02*
X110255Y-60325D01*
X05745Y-60405D02*
X14416Y-60405D01*
X15514Y-60405D02*
X18102Y-60405D01*
X98240Y-60405D02*
X100486Y-60405D01*
X101584Y-60405D02*
X110255Y-60405D01*
X05745Y-60485D02*
X14443Y-60485D01*
X15486Y-60485D02*
X18114Y-60485D01*
X98224Y-60485D02*
X100513Y-60485D01*
X101556Y-60485D02*
X110255Y-60485D01*
X05745Y-60565D02*
X14476Y-60565D01*
X15453Y-60565D02*
X18127Y-60565D01*
X98208Y-60565D02*
X100546Y-60565D01*
X101523Y-60565D02*
X110255Y-60565D01*
X05745Y-60645D02*
X14524Y-60645D01*
X15405Y-60645D02*
X18139Y-60645D01*
X98192Y-60645D02*
X100594Y-60645D01*
X101476Y-60645D02*
X110255Y-60645D01*
X05745Y-60725D02*
X14604Y-60725D01*
X15325Y-60725D02*
X18151Y-60725D01*
X98176Y-60725D02*
X100674Y-60725D01*
X101396Y-60725D02*
X110255Y-60725D01*
X05745Y-60805D02*
X14727Y-60805D01*
X15365Y-60805D02*
X18163Y-60805D01*
X98160Y-60805D02*
X100636Y-60805D01*
X101272Y-60805D02*
X110255Y-60805D01*
X05745Y-60885D02*
X14758Y-60885D01*
X15484Y-60885D02*
X18176Y-60885D01*
X98144Y-60885D02*
X100516Y-60885D01*
X101242Y-60885D02*
X110255Y-60885D01*
X05745Y-60965D02*
X14678Y-60965D01*
X15564Y-60965D02*
X18188Y-60965D01*
X98128Y-60965D02*
X100436Y-60965D01*
X101322Y-60965D02*
X110255Y-60965D01*
X05745Y-61045D02*
X14632Y-61045D01*
X15611Y-61045D02*
X18200Y-61045D01*
X98112Y-61045D02*
X100390Y-61045D01*
X101369Y-61045D02*
X110255Y-61045D01*
X05745Y-61125D02*
X14599Y-61125D01*
X15644Y-61125D02*
X18212Y-61125D01*
X98096Y-61125D02*
X100357Y-61125D01*
X101402Y-61125D02*
X110255Y-61125D01*
X05745Y-61205D02*
X14572Y-61205D01*
X15670Y-61205D02*
X18225Y-61205D01*
X98080Y-61205D02*
X100330Y-61205D01*
X101428Y-61205D02*
X110255Y-61205D01*
X05745Y-61285D02*
X14572Y-61285D01*
X15670Y-61285D02*
X18237Y-61285D01*
X98064Y-61285D02*
X100330Y-61285D01*
X101428Y-61285D02*
X110255Y-61285D01*
X05745Y-61365D02*
X14572Y-61365D01*
X15670Y-61365D02*
X18249Y-61365D01*
X98048Y-61365D02*
X100330Y-61365D01*
X101428Y-61365D02*
X110255Y-61365D01*
X05745Y-61445D02*
X14587Y-61445D01*
X15654Y-61445D02*
X18261Y-61445D01*
X98032Y-61445D02*
X100345Y-61445D01*
X101412Y-61445D02*
X110255Y-61445D01*
X05745Y-61525D02*
X14621Y-61525D01*
X15620Y-61525D02*
X18274Y-61525D01*
X98016Y-61525D02*
X100379Y-61525D01*
X101378Y-61525D02*
X110255Y-61525D01*
X05745Y-61605D02*
X14654Y-61605D01*
X15587Y-61605D02*
X18286Y-61605D01*
X98000Y-61605D02*
X100412Y-61605D01*
X101345Y-61605D02*
X110255Y-61605D01*
X05745Y-61685D02*
X14732Y-61685D01*
X15509Y-61685D02*
X18298Y-61685D01*
X97984Y-61685D02*
X100490Y-61685D01*
X101268Y-61685D02*
X110255Y-61685D01*
X05745Y-61765D02*
X14814Y-61765D01*
X15456Y-61765D02*
X18310Y-61765D01*
X97968Y-61765D02*
X100544Y-61765D01*
X101185Y-61765D02*
X110255Y-61765D01*
X05745Y-61845D02*
X14943Y-61845D01*
X15613Y-61845D02*
X18322Y-61845D01*
X97952Y-61845D02*
X100387Y-61845D01*
X101057Y-61845D02*
X110255Y-61845D01*
X05745Y-61925D02*
X14863Y-61925D01*
X15693Y-61925D02*
X18335Y-61925D01*
X97936Y-61925D02*
X100307Y-61925D01*
X101137Y-61925D02*
X110255Y-61925D01*
X05745Y-62005D02*
X14801Y-62005D01*
X15756Y-62005D02*
X18347Y-62005D01*
X97920Y-62005D02*
X100245Y-62005D01*
X101200Y-62005D02*
X110255Y-62005D01*
X05745Y-62085D02*
X14768Y-62085D01*
X15789Y-62085D02*
X18359Y-62085D01*
X97904Y-62085D02*
X100212Y-62085D01*
X101233Y-62085D02*
X110255Y-62085D01*
X05745Y-62165D02*
X14734Y-62165D01*
X15823Y-62165D02*
X18371Y-62165D01*
X97888Y-62165D02*
X100178Y-62165D01*
X101267Y-62165D02*
X110255Y-62165D01*
X05745Y-62245D02*
X14729Y-62245D01*
X15827Y-62245D02*
X18384Y-62245D01*
X97872Y-62245D02*
X100173Y-62245D01*
X101271Y-62245D02*
X110255Y-62245D01*
X05745Y-62325D02*
X07565Y-62325D01*
X08449Y-62325D02*
X14729Y-62325D01*
X15827Y-62325D02*
X18396Y-62325D01*
X97856Y-62325D02*
X100173Y-62325D01*
X101271Y-62325D02*
X107565Y-62325D01*
X108449Y-62325D02*
X110255Y-62325D01*
X05745Y-62405D02*
X07366Y-62405D01*
X08636Y-62405D02*
X14733Y-62405D01*
X15822Y-62405D02*
X18408Y-62405D01*
X97840Y-62405D02*
X100177Y-62405D01*
X101266Y-62405D02*
X107366Y-62405D01*
X108636Y-62405D02*
X110255Y-62405D01*
X05745Y-62485D02*
X07168Y-62485D01*
X08824Y-62485D02*
X14766Y-62485D01*
X15789Y-62485D02*
X18420Y-62485D01*
X97824Y-62485D02*
X100210Y-62485D01*
X101233Y-62485D02*
X107168Y-62485D01*
X108824Y-62485D02*
X110255Y-62485D01*
X05745Y-62565D02*
X07005Y-62565D01*
X08996Y-62565D02*
X14799Y-62565D01*
X15756Y-62565D02*
X18433Y-62565D01*
X97808Y-62565D02*
X100243Y-62565D01*
X101200Y-62565D02*
X107005Y-62565D01*
X108996Y-62565D02*
X110255Y-62565D01*
X05745Y-62645D02*
X06942Y-62645D01*
X09059Y-62645D02*
X14861Y-62645D01*
X15694Y-62645D02*
X18445Y-62645D01*
X97792Y-62645D02*
X100305Y-62645D01*
X101139Y-62645D02*
X106942Y-62645D01*
X109059Y-62645D02*
X110255Y-62645D01*
X05745Y-62725D02*
X06879Y-62725D01*
X09122Y-62725D02*
X14941Y-62725D01*
X15614Y-62725D02*
X18457Y-62725D01*
X97776Y-62725D02*
X100385Y-62725D01*
X101059Y-62725D02*
X106879Y-62725D01*
X109122Y-62725D02*
X110255Y-62725D01*
X05745Y-62805D02*
X06875Y-62805D01*
X09124Y-62805D02*
X15097Y-62805D01*
X15738Y-62805D02*
X18469Y-62805D01*
X97760Y-62805D02*
X100263Y-62805D01*
X100901Y-62805D02*
X106875Y-62805D01*
X109124Y-62805D02*
X110255Y-62805D01*
X05745Y-62885D02*
X06718Y-62885D01*
X06815Y-62885D02*
X06955Y-62885D01*
X09044Y-62885D02*
X09186Y-62885D01*
X09283Y-62885D02*
X15046Y-62885D01*
X15822Y-62885D02*
X18482Y-62885D01*
X97744Y-62885D02*
X100178Y-62885D01*
X100954Y-62885D02*
X106718Y-62885D01*
X106815Y-62885D02*
X106955Y-62885D01*
X109044Y-62885D02*
X109186Y-62885D01*
X109283Y-62885D02*
X110255Y-62885D01*
X05745Y-62965D02*
X06615Y-62965D01*
X06895Y-62965D02*
X07035Y-62965D01*
X08964Y-62965D02*
X09106Y-62965D01*
X09386Y-62965D02*
X14968Y-62965D01*
X15901Y-62965D02*
X18494Y-62965D01*
X97728Y-62965D02*
X100100Y-62965D01*
X101033Y-62965D02*
X106615Y-62965D01*
X106895Y-62965D02*
X107035Y-62965D01*
X108964Y-62965D02*
X109106Y-62965D01*
X109386Y-62965D02*
X110255Y-62965D01*
X05745Y-63045D02*
X06541Y-63045D01*
X06975Y-63045D02*
X07115Y-63045D01*
X08884Y-63045D02*
X09026Y-63045D01*
X09466Y-63045D02*
X14935Y-63045D01*
X15934Y-63045D02*
X18506Y-63045D01*
X97712Y-63045D02*
X100067Y-63045D01*
X101066Y-63045D02*
X106541Y-63045D01*
X106975Y-63045D02*
X107115Y-63045D01*
X108884Y-63045D02*
X109026Y-63045D01*
X109466Y-63045D02*
X110255Y-63045D01*
X05745Y-63125D02*
X06507Y-63125D01*
X07055Y-63125D02*
X07195Y-63125D01*
X08804Y-63125D02*
X08946Y-63125D01*
X09499Y-63125D02*
X14902Y-63125D01*
X15967Y-63125D02*
X18518Y-63125D01*
X97696Y-63125D02*
X100034Y-63125D01*
X101099Y-63125D02*
X106507Y-63125D01*
X107055Y-63125D02*
X107195Y-63125D01*
X108804Y-63125D02*
X108946Y-63125D01*
X109499Y-63125D02*
X110255Y-63125D01*
X05745Y-63205D02*
X06473Y-63205D01*
X07135Y-63205D02*
X07275Y-63205D01*
X08724Y-63205D02*
X08866Y-63205D01*
X09531Y-63205D02*
X14885Y-63205D01*
X15983Y-63205D02*
X18531Y-63205D01*
X97680Y-63205D02*
X100017Y-63205D01*
X101115Y-63205D02*
X106473Y-63205D01*
X107135Y-63205D02*
X107275Y-63205D01*
X108724Y-63205D02*
X108866Y-63205D01*
X109531Y-63205D02*
X110255Y-63205D01*
X05745Y-63285D02*
X06439Y-63285D01*
X07215Y-63285D02*
X07355Y-63285D01*
X08644Y-63285D02*
X08786Y-63285D01*
X09563Y-63285D02*
X14885Y-63285D01*
X15983Y-63285D02*
X18543Y-63285D01*
X97664Y-63285D02*
X100017Y-63285D01*
X101115Y-63285D02*
X106439Y-63285D01*
X107215Y-63285D02*
X107355Y-63285D01*
X108644Y-63285D02*
X108786Y-63285D01*
X109563Y-63285D02*
X110255Y-63285D01*
X05745Y-63365D02*
X06405Y-63365D01*
X07295Y-63365D02*
X07435Y-63365D01*
X08564Y-63365D02*
X08706Y-63365D01*
X09595Y-63365D02*
X14885Y-63365D01*
X15983Y-63365D02*
X18555Y-63365D01*
X97648Y-63365D02*
X100017Y-63365D01*
X101115Y-63365D02*
X106405Y-63365D01*
X107295Y-63365D02*
X107435Y-63365D01*
X108564Y-63365D02*
X108706Y-63365D01*
X109595Y-63365D02*
X110255Y-63365D01*
X05745Y-63445D02*
X06371Y-63445D01*
X07375Y-63445D02*
X07515Y-63445D01*
X08484Y-63445D02*
X08626Y-63445D01*
X09627Y-63445D02*
X14911Y-63445D01*
X15956Y-63445D02*
X18567Y-63445D01*
X97632Y-63445D02*
X100043Y-63445D01*
X101088Y-63445D02*
X106371Y-63445D01*
X107375Y-63445D02*
X107515Y-63445D01*
X108484Y-63445D02*
X108626Y-63445D01*
X109627Y-63445D02*
X110255Y-63445D01*
X05745Y-63525D02*
X06337Y-63525D01*
X07455Y-63525D02*
X07595Y-63525D01*
X08404Y-63525D02*
X08546Y-63525D01*
X09660Y-63525D02*
X14944Y-63525D01*
X15923Y-63525D02*
X18579Y-63525D01*
X97616Y-63525D02*
X100076Y-63525D01*
X101055Y-63525D02*
X106337Y-63525D01*
X107455Y-63525D02*
X107595Y-63525D01*
X108404Y-63525D02*
X108546Y-63525D01*
X109660Y-63525D02*
X110255Y-63525D01*
X05745Y-63605D02*
X06303Y-63605D01*
X07535Y-63605D02*
X07675Y-63605D01*
X08324Y-63605D02*
X08466Y-63605D01*
X09692Y-63605D02*
X14990Y-63605D01*
X15877Y-63605D02*
X18592Y-63605D01*
X97600Y-63605D02*
X100122Y-63605D01*
X101010Y-63605D02*
X106303Y-63605D01*
X107535Y-63605D02*
X107675Y-63605D01*
X108324Y-63605D02*
X108466Y-63605D01*
X109692Y-63605D02*
X110255Y-63605D01*
X05745Y-63685D02*
X06287Y-63685D01*
X07615Y-63685D02*
X07755Y-63685D01*
X08244Y-63685D02*
X08386Y-63685D01*
X09719Y-63685D02*
X15070Y-63685D01*
X15939Y-63685D02*
X18604Y-63685D01*
X97584Y-63685D02*
X100202Y-63685D01*
X100930Y-63685D02*
X106287Y-63685D01*
X107615Y-63685D02*
X107755Y-63685D01*
X108244Y-63685D02*
X108386Y-63685D01*
X109719Y-63685D02*
X110255Y-63685D01*
X05745Y-63765D02*
X06286Y-63765D01*
X07695Y-63765D02*
X07835Y-63765D01*
X08164Y-63765D02*
X08306Y-63765D01*
X09719Y-63765D02*
X15189Y-63765D01*
X16040Y-63765D02*
X18616Y-63765D01*
X97568Y-63765D02*
X100200Y-63765D01*
X100811Y-63765D02*
X106286Y-63765D01*
X107695Y-63765D02*
X107835Y-63765D01*
X108164Y-63765D02*
X108306Y-63765D01*
X109719Y-63765D02*
X110255Y-63765D01*
X05745Y-63845D02*
X06285Y-63845D01*
X07775Y-63845D02*
X07915Y-63845D01*
X08084Y-63845D02*
X08226Y-63845D01*
X09718Y-63845D02*
X15061Y-63845D01*
X16082Y-63845D02*
X18628Y-63845D01*
X97552Y-63845D02*
X100168Y-63845D01*
X100761Y-63845D02*
X106285Y-63845D01*
X107775Y-63845D02*
X107915Y-63845D01*
X108084Y-63845D02*
X108226Y-63845D01*
X109718Y-63845D02*
X110255Y-63845D01*
X05745Y-63925D02*
X06285Y-63925D01*
X07855Y-63925D02*
X07995Y-63925D01*
X08004Y-63925D02*
X08146Y-63925D01*
X09717Y-63925D02*
X15013Y-63925D01*
X16095Y-63925D02*
X18641Y-63925D01*
X97536Y-63925D02*
X99979Y-63925D01*
X100103Y-63925D02*
X100226Y-63925D01*
X100771Y-63925D02*
X106285Y-63925D01*
X107855Y-63925D02*
X107995Y-63925D01*
X108004Y-63925D02*
X108146Y-63925D01*
X109717Y-63925D02*
X110255Y-63925D01*
X05745Y-64005D02*
X06284Y-64005D01*
X07924Y-64005D02*
X08075Y-64005D01*
X09716Y-64005D02*
X14994Y-64005D01*
X16107Y-64005D02*
X18653Y-64005D01*
X97520Y-64005D02*
X99936Y-64005D01*
X100161Y-64005D02*
X100284Y-64005D01*
X100675Y-64005D02*
X106284Y-64005D01*
X107924Y-64005D02*
X108075Y-64005D01*
X109716Y-64005D02*
X110255Y-64005D01*
X05745Y-64085D02*
X06283Y-64085D01*
X07844Y-64085D02*
X07986Y-64085D01*
X08015Y-64085D02*
X08155Y-64085D01*
X09715Y-64085D02*
X15006Y-64085D01*
X16120Y-64085D02*
X18665Y-64085D01*
X97504Y-64085D02*
X99893Y-64085D01*
X100219Y-64085D02*
X100342Y-64085D01*
X100565Y-64085D02*
X100737Y-64085D01*
X100926Y-64085D02*
X106283Y-64085D01*
X107844Y-64085D02*
X107986Y-64085D01*
X108015Y-64085D02*
X108155Y-64085D01*
X109715Y-64085D02*
X110255Y-64085D01*
X05745Y-64165D02*
X06282Y-64165D01*
X07764Y-64165D02*
X07906Y-64165D01*
X08095Y-64165D02*
X08235Y-64165D01*
X09714Y-64165D02*
X15019Y-64165D01*
X16133Y-64165D02*
X18677Y-64165D01*
X97488Y-64165D02*
X99879Y-64165D01*
X100278Y-64165D02*
X100401Y-64165D01*
X100455Y-64165D02*
X100627Y-64165D01*
X100945Y-64165D02*
X106282Y-64165D01*
X107764Y-64165D02*
X107906Y-64165D01*
X108095Y-64165D02*
X108235Y-64165D01*
X109714Y-64165D02*
X110255Y-64165D01*
X05745Y-64245D02*
X06281Y-64245D01*
X07684Y-64245D02*
X07826Y-64245D01*
X08175Y-64245D02*
X08315Y-64245D01*
X09714Y-64245D02*
X15032Y-64245D01*
X16145Y-64245D02*
X18690Y-64245D01*
X97472Y-64245D02*
X99870Y-64245D01*
X100336Y-64245D02*
X100517Y-64245D01*
X100951Y-64245D02*
X106281Y-64245D01*
X107684Y-64245D02*
X107826Y-64245D01*
X108175Y-64245D02*
X108315Y-64245D01*
X109714Y-64245D02*
X110255Y-64245D01*
X05745Y-64325D02*
X06280Y-64325D01*
X07604Y-64325D02*
X07746Y-64325D01*
X08255Y-64325D02*
X08395Y-64325D01*
X09713Y-64325D02*
X15044Y-64325D01*
X16158Y-64325D02*
X18702Y-64325D01*
X97456Y-64325D02*
X99866Y-64325D01*
X100235Y-64325D02*
X100517Y-64325D01*
X100943Y-64325D02*
X106280Y-64325D01*
X107604Y-64325D02*
X107746Y-64325D01*
X108255Y-64325D02*
X108395Y-64325D01*
X109713Y-64325D02*
X110255Y-64325D01*
X05745Y-64405D02*
X06312Y-64405D01*
X07524Y-64405D02*
X07666Y-64405D01*
X08335Y-64405D02*
X08475Y-64405D01*
X09693Y-64405D02*
X15057Y-64405D01*
X16171Y-64405D02*
X18714Y-64405D01*
X97440Y-64405D02*
X99885Y-64405D01*
X100125Y-64405D02*
X100297Y-64405D01*
X100452Y-64405D02*
X100575Y-64405D01*
X100934Y-64405D02*
X106312Y-64405D01*
X107524Y-64405D02*
X107666Y-64405D01*
X108335Y-64405D02*
X108475Y-64405D01*
X109693Y-64405D02*
X110255Y-64405D01*
X05745Y-64485D02*
X06344Y-64485D01*
X07444Y-64485D02*
X07586Y-64485D01*
X08415Y-64485D02*
X08555Y-64485D01*
X09659Y-64485D02*
X15070Y-64485D01*
X16183Y-64485D02*
X18726Y-64485D01*
X97424Y-64485D02*
X99943Y-64485D01*
X100015Y-64485D02*
X100187Y-64485D01*
X100511Y-64485D02*
X100633Y-64485D01*
X100899Y-64485D02*
X106344Y-64485D01*
X107444Y-64485D02*
X107586Y-64485D01*
X108415Y-64485D02*
X108555Y-64485D01*
X109659Y-64485D02*
X110255Y-64485D01*
X05745Y-64565D02*
X06377Y-64565D01*
X07364Y-64565D02*
X07506Y-64565D01*
X08495Y-64565D02*
X08635Y-64565D01*
X09625Y-64565D02*
X15082Y-64565D01*
X16177Y-64565D02*
X18739Y-64565D01*
X97408Y-64565D02*
X100077Y-64565D01*
X100569Y-64565D02*
X100692Y-64565D01*
X100856Y-64565D02*
X106377Y-64565D01*
X107364Y-64565D02*
X107506Y-64565D01*
X108495Y-64565D02*
X108635Y-64565D01*
X109625Y-64565D02*
X110255Y-64565D01*
X05745Y-64645D02*
X06409Y-64645D01*
X07284Y-64645D02*
X07426Y-64645D01*
X08575Y-64645D02*
X08715Y-64645D01*
X09591Y-64645D02*
X15095Y-64645D01*
X16144Y-64645D02*
X18751Y-64645D01*
X97392Y-64645D02*
X100053Y-64645D01*
X100627Y-64645D02*
X106409Y-64645D01*
X107284Y-64645D02*
X107426Y-64645D01*
X108575Y-64645D02*
X108715Y-64645D01*
X109591Y-64645D02*
X110255Y-64645D01*
X05745Y-64725D02*
X06441Y-64725D01*
X07204Y-64725D02*
X07346Y-64725D01*
X08655Y-64725D02*
X08795Y-64725D01*
X09557Y-64725D02*
X15123Y-64725D01*
X16061Y-64725D02*
X18763Y-64725D01*
X97376Y-64725D02*
X100135Y-64725D01*
X100633Y-64725D02*
X106441Y-64725D01*
X107204Y-64725D02*
X107346Y-64725D01*
X108655Y-64725D02*
X108795Y-64725D01*
X109557Y-64725D02*
X110255Y-64725D01*
X05745Y-64805D02*
X06473Y-64805D01*
X07124Y-64805D02*
X07266Y-64805D01*
X08735Y-64805D02*
X08875Y-64805D01*
X09522Y-64805D02*
X15193Y-64805D01*
X15668Y-64805D02*
X18775Y-64805D01*
X97360Y-64805D02*
X100446Y-64805D01*
X100467Y-64805D02*
X106473Y-64805D01*
X107124Y-64805D02*
X107266Y-64805D01*
X108735Y-64805D02*
X108875Y-64805D01*
X109522Y-64805D02*
X110255Y-64805D01*
X05745Y-64885D02*
X06505Y-64885D01*
X07044Y-64885D02*
X07186Y-64885D01*
X08815Y-64885D02*
X08955Y-64885D01*
X09488Y-64885D02*
X18787Y-64885D01*
X97344Y-64885D02*
X106505Y-64885D01*
X107044Y-64885D02*
X107186Y-64885D01*
X108815Y-64885D02*
X108955Y-64885D01*
X109488Y-64885D02*
X110255Y-64885D01*
X05745Y-64965D02*
X06540Y-64965D01*
X06964Y-64965D02*
X07106Y-64965D01*
X08895Y-64965D02*
X09035Y-64965D01*
X09454Y-64965D02*
X18800Y-64965D01*
X97328Y-64965D02*
X106540Y-64965D01*
X106964Y-64965D02*
X107106Y-64965D01*
X108895Y-64965D02*
X109035Y-64965D01*
X109454Y-64965D02*
X110255Y-64965D01*
X05745Y-65045D02*
X06627Y-65045D01*
X06884Y-65045D02*
X07026Y-65045D01*
X08975Y-65045D02*
X09115Y-65045D01*
X09372Y-65045D02*
X18812Y-65045D01*
X97312Y-65045D02*
X106627Y-65045D01*
X106884Y-65045D02*
X107026Y-65045D01*
X108975Y-65045D02*
X109115Y-65045D01*
X109372Y-65045D02*
X110255Y-65045D01*
X05745Y-65125D02*
X06729Y-65125D01*
X06804Y-65125D02*
X06946Y-65125D01*
X09055Y-65125D02*
X09195Y-65125D01*
X09270Y-65125D02*
X18824Y-65125D01*
X97296Y-65125D02*
X106729Y-65125D01*
X106804Y-65125D02*
X106946Y-65125D01*
X109055Y-65125D02*
X109195Y-65125D01*
X109270Y-65125D02*
X110255Y-65125D01*
X05745Y-65205D02*
X06866Y-65205D01*
X09135Y-65205D02*
X18836Y-65205D01*
X97280Y-65205D02*
X106866Y-65205D01*
X109135Y-65205D02*
X110255Y-65205D01*
X05745Y-65285D02*
X06886Y-65285D01*
X09113Y-65285D02*
X18849Y-65285D01*
X97264Y-65285D02*
X106886Y-65285D01*
X109113Y-65285D02*
X110255Y-65285D01*
X05745Y-65365D02*
X06949Y-65365D01*
X09050Y-65365D02*
X18861Y-65365D01*
X97248Y-65365D02*
X106949Y-65365D01*
X109050Y-65365D02*
X110255Y-65365D01*
X05745Y-65445D02*
X07012Y-65445D01*
X08988Y-65445D02*
X18873Y-65445D01*
X97232Y-65445D02*
X107012Y-65445D01*
X108988Y-65445D02*
X110255Y-65445D01*
X05745Y-65525D02*
X07199Y-65525D01*
X08808Y-65525D02*
X18885Y-65525D01*
X97216Y-65525D02*
X107199Y-65525D01*
X108808Y-65525D02*
X110255Y-65525D01*
X05745Y-65605D02*
X07387Y-65605D01*
X08609Y-65605D02*
X18898Y-65605D01*
X97200Y-65605D02*
X107387Y-65605D01*
X108609Y-65605D02*
X110255Y-65605D01*
X05745Y-65685D02*
X07575Y-65685D01*
X08410Y-65685D02*
X18910Y-65685D01*
X97184Y-65685D02*
X107575Y-65685D01*
X108410Y-65685D02*
X110255Y-65685D01*
X05745Y-65765D02*
X18922Y-65765D01*
X97168Y-65765D02*
X110255Y-65765D01*
X05745Y-65845D02*
X18934Y-65845D01*
X97152Y-65845D02*
X110255Y-65845D01*
X05745Y-65925D02*
X18947Y-65925D01*
X97136Y-65925D02*
X110255Y-65925D01*
X05745Y-66005D02*
X18959Y-66005D01*
X97120Y-66005D02*
X110255Y-66005D01*
X05745Y-66085D02*
X18971Y-66085D01*
X97104Y-66085D02*
X110255Y-66085D01*
X05745Y-66165D02*
X18983Y-66165D01*
X97088Y-66165D02*
X110255Y-66165D01*
X05745Y-66245D02*
X18996Y-66245D01*
X97072Y-66245D02*
X110255Y-66245D01*
X05745Y-66325D02*
X19008Y-66325D01*
X97056Y-66325D02*
X110255Y-66325D01*
X05745Y-66405D02*
X19020Y-66405D01*
X97040Y-66405D02*
X110255Y-66405D01*
X05745Y-66485D02*
X19032Y-66485D01*
X97024Y-66485D02*
X110255Y-66485D01*
X05745Y-66565D02*
X19044Y-66565D01*
X97008Y-66565D02*
X110255Y-66565D01*
X05745Y-66645D02*
X19057Y-66645D01*
X96992Y-66645D02*
X110255Y-66645D01*
X05745Y-66725D02*
X19069Y-66725D01*
X96976Y-66725D02*
X110255Y-66725D01*
X05745Y-66805D02*
X19081Y-66805D01*
X96960Y-66805D02*
X110255Y-66805D01*
X05745Y-66885D02*
X19093Y-66885D01*
X96944Y-66885D02*
X110255Y-66885D01*
X05745Y-66965D02*
X19106Y-66965D01*
X96928Y-66965D02*
X110255Y-66965D01*
X05745Y-67045D02*
X19118Y-67045D01*
X96912Y-67045D02*
X110255Y-67045D01*
X05745Y-67125D02*
X19130Y-67125D01*
X96896Y-67125D02*
X110255Y-67125D01*
X05745Y-67205D02*
X19142Y-67205D01*
X96880Y-67205D02*
X110255Y-67205D01*
X05745Y-67285D02*
X19155Y-67285D01*
X96864Y-67285D02*
X110255Y-67285D01*
X05745Y-67365D02*
X19167Y-67365D01*
X96848Y-67365D02*
X110255Y-67365D01*
X05745Y-67445D02*
X19179Y-67445D01*
X96832Y-67445D02*
X110255Y-67445D01*
X05745Y-67525D02*
X19191Y-67525D01*
X96816Y-67525D02*
X110255Y-67525D01*
X05745Y-67605D02*
X19204Y-67605D01*
X96800Y-67605D02*
X110255Y-67605D01*
X05745Y-67685D02*
X19216Y-67685D01*
X96784Y-67685D02*
X110255Y-67685D01*
X110255Y-67755D02*
X110255Y-08245D01*
X05745Y-08245D01*
X05745Y-67755D01*
X06772Y-67755D01*
X06772Y-65158D01*
X06555Y-64988D01*
X06535Y-64957D01*
X06280Y-64324D01*
X06287Y-63641D01*
X06555Y-63012D01*
X06772Y-62842D01*
X06772Y-55158D01*
X06555Y-54988D01*
X06535Y-54957D01*
X06280Y-54324D01*
X06287Y-53641D01*
X06555Y-53012D01*
X06772Y-52842D01*
X06772Y-45158D01*
X06555Y-44988D01*
X06535Y-44957D01*
X06280Y-44324D01*
X06287Y-43641D01*
X06555Y-43012D01*
X06772Y-42842D01*
X06772Y-35158D01*
X06555Y-34988D01*
X06535Y-34957D01*
X06280Y-34324D01*
X06287Y-33641D01*
X06555Y-33012D01*
X06772Y-32842D01*
X06772Y-25158D01*
X06555Y-24988D01*
X06535Y-24957D01*
X06280Y-24324D01*
X06287Y-23641D01*
X06555Y-23012D01*
X06772Y-22842D01*
X06772Y-15158D01*
X06555Y-14988D01*
X06535Y-14957D01*
X06280Y-14324D01*
X06287Y-13641D01*
X06555Y-13012D01*
X06772Y-12842D01*
X07929Y-14000D01*
X06772Y-15158D01*
X06772Y-22842D01*
X07929Y-24000D01*
X06772Y-25158D01*
X06772Y-32842D01*
X07929Y-34000D01*
X06772Y-35158D01*
X06772Y-42842D01*
X07929Y-44000D01*
X06772Y-45158D01*
X06772Y-52842D01*
X07929Y-54000D01*
X06772Y-55158D01*
X06772Y-62842D01*
X07929Y-64000D01*
X06772Y-65158D01*
X06772Y-67755D01*
X08324Y-67755D01*
X08324Y-65720D01*
X07641Y-65713D01*
X07012Y-65445D01*
X06842Y-65228D01*
X08000Y-64071D01*
X08000Y-63929D01*
X06842Y-62772D01*
X07012Y-62555D01*
X07043Y-62535D01*
X07676Y-62280D01*
X08324Y-62286D01*
X08324Y-55720D01*
X07641Y-55713D01*
X07012Y-55445D01*
X06842Y-55228D01*
X08000Y-54071D01*
X08000Y-53929D01*
X06842Y-52772D01*
X07012Y-52555D01*
X07043Y-52535D01*
X07676Y-52280D01*
X08324Y-52286D01*
X08324Y-45720D01*
X07641Y-45713D01*
X07012Y-45445D01*
X06842Y-45228D01*
X08000Y-44071D01*
X08000Y-43929D01*
X06842Y-42772D01*
X07012Y-42555D01*
X07043Y-42535D01*
X07676Y-42280D01*
X08324Y-42286D01*
X08324Y-35720D01*
X07641Y-35713D01*
X07012Y-35445D01*
X06842Y-35228D01*
X08000Y-34071D01*
X08000Y-33929D01*
X06842Y-32772D01*
X07012Y-32555D01*
X07043Y-32535D01*
X07676Y-32280D01*
X08324Y-32286D01*
X08324Y-25720D01*
X07641Y-25713D01*
X07012Y-25445D01*
X06842Y-25228D01*
X08000Y-24071D01*
X08000Y-23929D01*
X06842Y-22772D01*
X07012Y-22555D01*
X07043Y-22535D01*
X07676Y-22280D01*
X08324Y-22286D01*
X08324Y-15720D01*
X07641Y-15713D01*
X07012Y-15445D01*
X06842Y-15228D01*
X08000Y-14071D01*
X08000Y-13929D01*
X06842Y-12772D01*
X07012Y-12555D01*
X07043Y-12535D01*
X07676Y-12280D01*
X08359Y-12287D01*
X08988Y-12555D01*
X09158Y-12772D01*
X08000Y-13929D01*
X08000Y-14071D01*
X09158Y-15228D01*
X08988Y-15445D01*
X08957Y-15465D01*
X08324Y-15720D01*
X08324Y-22286D01*
X08359Y-22287D01*
X08988Y-22555D01*
X09158Y-22772D01*
X08000Y-23929D01*
X08000Y-24071D01*
X09158Y-25228D01*
X08988Y-25445D01*
X08957Y-25465D01*
X08324Y-25720D01*
X08324Y-32286D01*
X08359Y-32287D01*
X08988Y-32555D01*
X09158Y-32772D01*
X08000Y-33929D01*
X08000Y-34071D01*
X09158Y-35228D01*
X08988Y-35445D01*
X08957Y-35465D01*
X08324Y-35720D01*
X08324Y-42286D01*
X08359Y-42287D01*
X08988Y-42555D01*
X09158Y-42772D01*
X08000Y-43929D01*
X08000Y-44071D01*
X09158Y-45228D01*
X08988Y-45445D01*
X08957Y-45465D01*
X08324Y-45720D01*
X08324Y-52286D01*
X08359Y-52287D01*
X08988Y-52555D01*
X09158Y-52772D01*
X08000Y-53929D01*
X08000Y-54071D01*
X09158Y-55228D01*
X08988Y-55445D01*
X08957Y-55465D01*
X08324Y-55720D01*
X08324Y-62286D01*
X08359Y-62287D01*
X08988Y-62555D01*
X09158Y-62772D01*
X08000Y-63929D01*
X08000Y-64071D01*
X09158Y-65228D01*
X08988Y-65445D01*
X08957Y-65465D01*
X08324Y-65720D01*
X08324Y-67755D01*
X09228Y-67755D01*
X09228Y-65158D01*
X08071Y-64000D01*
X09228Y-62842D01*
X09228Y-55158D01*
X08071Y-54000D01*
X09228Y-52842D01*
X09228Y-45158D01*
X08071Y-44000D01*
X09228Y-42842D01*
X09228Y-35158D01*
X08071Y-34000D01*
X09228Y-32842D01*
X09228Y-25158D01*
X08071Y-24000D01*
X09228Y-22842D01*
X09228Y-15158D01*
X08071Y-14000D01*
X09228Y-12842D01*
X09445Y-13012D01*
X09465Y-13043D01*
X09720Y-13676D01*
X09713Y-14359D01*
X09445Y-14988D01*
X09228Y-15158D01*
X09228Y-22842D01*
X09445Y-23012D01*
X09465Y-23043D01*
X09720Y-23676D01*
X09713Y-24359D01*
X09445Y-24988D01*
X09228Y-25158D01*
X09228Y-32842D01*
X09445Y-33012D01*
X09465Y-33043D01*
X09720Y-33676D01*
X09713Y-34359D01*
X09445Y-34988D01*
X09228Y-35158D01*
X09228Y-42842D01*
X09445Y-43012D01*
X09465Y-43043D01*
X09720Y-43676D01*
X09713Y-44359D01*
X09445Y-44988D01*
X09228Y-45158D01*
X09228Y-52842D01*
X09445Y-53012D01*
X09465Y-53043D01*
X09720Y-53676D01*
X09713Y-54359D01*
X09445Y-54988D01*
X09228Y-55158D01*
X09228Y-62842D01*
X09445Y-63012D01*
X09465Y-63043D01*
X09720Y-63676D01*
X09713Y-64359D01*
X09445Y-64988D01*
X09228Y-65158D01*
X09228Y-67755D01*
X15331Y-67755D01*
X15331Y-64858D01*
X15235Y-64835D01*
X15155Y-64777D01*
X15103Y-64692D01*
X15009Y-64099D01*
X14994Y-64001D01*
X15017Y-63905D01*
X15075Y-63825D01*
X15160Y-63773D01*
X15194Y-63767D01*
X15123Y-63738D01*
X14969Y-63584D01*
X14885Y-63382D01*
X14885Y-63164D01*
X14969Y-62962D01*
X15117Y-62813D01*
X14967Y-62751D01*
X14813Y-62597D01*
X14729Y-62395D01*
X14729Y-62177D01*
X14813Y-61975D01*
X14961Y-61826D01*
X14810Y-61763D01*
X14656Y-61609D01*
X14572Y-61407D01*
X14572Y-61189D01*
X14656Y-60987D01*
X14805Y-60837D01*
X14654Y-60775D01*
X14500Y-60621D01*
X14416Y-60419D01*
X14416Y-60201D01*
X14500Y-59999D01*
X14648Y-59850D01*
X14497Y-59787D01*
X14343Y-59633D01*
X14259Y-59431D01*
X14259Y-59213D01*
X14343Y-59011D01*
X14491Y-58862D01*
X14341Y-58800D01*
X14187Y-58646D01*
X14103Y-58444D01*
X14103Y-58226D01*
X14169Y-58067D01*
X14169Y-57710D01*
X14073Y-57698D01*
X13991Y-57563D01*
X13946Y-57354D01*
X13985Y-57144D01*
X14073Y-57102D01*
X14425Y-57358D01*
X14169Y-57710D01*
X14169Y-58067D01*
X14187Y-58024D01*
X14341Y-57870D01*
X14347Y-57867D01*
X14292Y-57857D01*
X14250Y-57769D01*
X14484Y-57447D01*
X14484Y-57277D01*
X14132Y-57021D01*
X14144Y-56925D01*
X14279Y-56843D01*
X14488Y-56798D01*
X14698Y-56837D01*
X14740Y-56925D01*
X14484Y-57277D01*
X14484Y-57447D01*
X14506Y-57417D01*
X14754Y-57597D01*
X14858Y-57673D01*
X14846Y-57769D01*
X14794Y-57800D01*
X14917Y-57850D01*
X14917Y-57592D01*
X14754Y-57473D01*
X14565Y-57336D01*
X14754Y-57076D01*
X14754Y-51250D01*
X14161Y-51156D01*
X14063Y-51140D01*
X13979Y-51089D01*
X13921Y-51009D01*
X13898Y-50912D01*
X13992Y-50319D01*
X14008Y-50221D01*
X14059Y-50137D01*
X14139Y-50079D01*
X14236Y-50056D01*
X14272Y-50061D01*
X14187Y-49976D01*
X14103Y-49774D01*
X14103Y-49556D01*
X14187Y-49354D01*
X14341Y-49200D01*
X14491Y-49137D01*
X14343Y-48989D01*
X14259Y-48787D01*
X14259Y-48569D01*
X14343Y-48367D01*
X14497Y-48213D01*
X14648Y-48149D01*
X14500Y-48001D01*
X14416Y-47799D01*
X14416Y-47581D01*
X14500Y-47379D01*
X14654Y-47225D01*
X14805Y-47162D01*
X14656Y-47013D01*
X14572Y-46811D01*
X14572Y-46593D01*
X14656Y-46391D01*
X14810Y-46237D01*
X14961Y-46173D01*
X14813Y-46025D01*
X14729Y-45823D01*
X14729Y-45605D01*
X14813Y-45403D01*
X14967Y-45249D01*
X15117Y-45186D01*
X14969Y-45038D01*
X14885Y-44836D01*
X14885Y-44618D01*
X14969Y-44416D01*
X15123Y-44262D01*
X15169Y-44242D01*
X15169Y-43984D01*
X15081Y-43942D01*
X15045Y-43789D01*
X15067Y-43576D01*
X15169Y-43388D01*
X15265Y-43376D01*
X15521Y-43728D01*
X15169Y-43984D01*
X15169Y-44242D01*
X15294Y-44190D01*
X15240Y-44161D01*
X15228Y-44065D01*
X15580Y-43809D01*
X15602Y-43839D01*
X15602Y-43669D01*
X15346Y-43317D01*
X15388Y-43229D01*
X15541Y-43193D01*
X15754Y-43215D01*
X15942Y-43317D01*
X15954Y-43413D01*
X15602Y-43669D01*
X15602Y-43839D01*
X15836Y-44161D01*
X15794Y-44249D01*
X15742Y-44261D01*
X15745Y-44262D01*
X15899Y-44416D01*
X15917Y-44459D01*
X15917Y-44102D01*
X15661Y-43750D01*
X16013Y-43494D01*
X16101Y-43536D01*
X16137Y-43689D01*
X16115Y-43902D01*
X16013Y-44090D01*
X15917Y-44102D01*
X15917Y-44459D01*
X15983Y-44618D01*
X15983Y-44836D01*
X15899Y-45038D01*
X15745Y-45192D01*
X15594Y-45254D01*
X15743Y-45403D01*
X15827Y-45605D01*
X15827Y-45823D01*
X15743Y-46025D01*
X15589Y-46179D01*
X15437Y-46242D01*
X15586Y-46391D01*
X15670Y-46593D01*
X15670Y-46811D01*
X15586Y-47013D01*
X15432Y-47167D01*
X15280Y-47229D01*
X15430Y-47379D01*
X15514Y-47581D01*
X15514Y-47799D01*
X15430Y-48001D01*
X15276Y-48155D01*
X15124Y-48218D01*
X15273Y-48367D01*
X15357Y-48569D01*
X15357Y-48787D01*
X15273Y-48989D01*
X15119Y-49143D01*
X14968Y-49205D01*
X15117Y-49354D01*
X15201Y-49556D01*
X15201Y-49774D01*
X15117Y-49976D01*
X14963Y-50130D01*
X14890Y-50160D01*
X14927Y-50166D01*
X15011Y-50217D01*
X15069Y-50297D01*
X15092Y-50394D01*
X14998Y-50987D01*
X14982Y-51085D01*
X14931Y-51169D01*
X14851Y-51227D01*
X14754Y-51250D01*
X14754Y-57076D01*
X14821Y-56984D01*
X14917Y-56996D01*
X14999Y-57131D01*
X15044Y-57340D01*
X15005Y-57550D01*
X14917Y-57592D01*
X14917Y-57850D01*
X14963Y-57870D01*
X15117Y-58024D01*
X15201Y-58226D01*
X15201Y-58444D01*
X15117Y-58646D01*
X14968Y-58794D01*
X15119Y-58857D01*
X15273Y-59011D01*
X15357Y-59213D01*
X15357Y-59431D01*
X15273Y-59633D01*
X15124Y-59781D01*
X15276Y-59845D01*
X15430Y-59999D01*
X15514Y-60201D01*
X15514Y-60419D01*
X15430Y-60621D01*
X15280Y-60770D01*
X15432Y-60833D01*
X15586Y-60987D01*
X15670Y-61189D01*
X15670Y-61407D01*
X15586Y-61609D01*
X15437Y-61757D01*
X15589Y-61821D01*
X15743Y-61975D01*
X15827Y-62177D01*
X15827Y-62395D01*
X15743Y-62597D01*
X15594Y-62745D01*
X15745Y-62808D01*
X15899Y-62962D01*
X15983Y-63164D01*
X15983Y-63382D01*
X15899Y-63584D01*
X15813Y-63669D01*
X15851Y-63664D01*
X15947Y-63687D01*
X16027Y-63745D01*
X16079Y-63830D01*
X16173Y-64423D01*
X16188Y-64521D01*
X16165Y-64617D01*
X16107Y-64697D01*
X16022Y-64749D01*
X15429Y-64843D01*
X15331Y-64858D01*
X15331Y-67755D01*
X19227Y-67755D01*
X16855Y-52248D01*
X16859Y-52152D01*
X16859Y-52150D01*
X17820Y-48240D01*
X17820Y-38030D01*
X17721Y-38022D01*
X17186Y-37749D01*
X17098Y-37704D01*
X17034Y-37629D01*
X17003Y-37535D01*
X17011Y-37436D01*
X17284Y-36901D01*
X17329Y-36813D01*
X17404Y-36749D01*
X17498Y-36718D01*
X17597Y-36726D01*
X17625Y-36740D01*
X17564Y-36592D01*
X17564Y-36374D01*
X17648Y-36172D01*
X17802Y-36018D01*
X18004Y-35934D01*
X18132Y-35934D01*
X18102Y-35903D01*
X18018Y-35701D01*
X18018Y-35483D01*
X18102Y-35281D01*
X18256Y-35127D01*
X18458Y-35043D01*
X18586Y-35043D01*
X18556Y-35012D01*
X18472Y-34810D01*
X18472Y-34592D01*
X18556Y-34390D01*
X18710Y-34236D01*
X18912Y-34152D01*
X19042Y-34152D01*
X19010Y-34120D01*
X18926Y-33918D01*
X18926Y-33700D01*
X19010Y-33498D01*
X19164Y-33344D01*
X19366Y-33260D01*
X19495Y-33260D01*
X19464Y-33229D01*
X19380Y-33027D01*
X19380Y-32809D01*
X19464Y-32607D01*
X19618Y-32453D01*
X19820Y-32369D01*
X19949Y-32369D01*
X19918Y-32338D01*
X19834Y-32136D01*
X19834Y-31918D01*
X19918Y-31716D01*
X20072Y-31562D01*
X20274Y-31478D01*
X20360Y-31478D01*
X20360Y-31238D01*
X20289Y-31172D01*
X20302Y-31014D01*
X20389Y-30819D01*
X20544Y-30672D01*
X20640Y-30690D01*
X20774Y-31104D01*
X20360Y-31238D01*
X20360Y-31478D01*
X20419Y-31478D01*
X20373Y-31429D01*
X20391Y-31333D01*
X20654Y-31247D01*
X20766Y-31136D01*
X20837Y-31207D01*
X20814Y-31229D01*
X20869Y-31396D01*
X20869Y-31073D01*
X20735Y-30659D01*
X20801Y-30588D01*
X20959Y-30601D01*
X21154Y-30688D01*
X21301Y-30843D01*
X21283Y-30939D01*
X20869Y-31073D01*
X20869Y-31396D01*
X20939Y-31613D01*
X20873Y-31684D01*
X20810Y-31678D01*
X20848Y-31716D01*
X20932Y-31918D01*
X20932Y-32136D01*
X20848Y-32338D01*
X20694Y-32492D01*
X20492Y-32576D01*
X20363Y-32576D01*
X20394Y-32607D01*
X20478Y-32809D01*
X20478Y-33027D01*
X20394Y-33229D01*
X20240Y-33383D01*
X20038Y-33467D01*
X19908Y-33467D01*
X19940Y-33498D01*
X20024Y-33700D01*
X20024Y-33918D01*
X19940Y-34120D01*
X19786Y-34274D01*
X19584Y-34358D01*
X19453Y-34358D01*
X19486Y-34390D01*
X19570Y-34592D01*
X19570Y-34810D01*
X19486Y-35012D01*
X19332Y-35166D01*
X19130Y-35250D01*
X19000Y-35250D01*
X19032Y-35281D01*
X19116Y-35483D01*
X19116Y-35701D01*
X19032Y-35903D01*
X18878Y-36057D01*
X18676Y-36141D01*
X18547Y-36141D01*
X18578Y-36172D01*
X18662Y-36374D01*
X18662Y-36592D01*
X18578Y-36794D01*
X18424Y-36948D01*
X18222Y-37032D01*
X18196Y-37032D01*
X18220Y-37044D01*
X18284Y-37119D01*
X18315Y-37213D01*
X18307Y-37312D01*
X18034Y-37847D01*
X17989Y-37935D01*
X17914Y-37999D01*
X17820Y-38030D01*
X17820Y-48240D01*
X20654Y-36703D01*
X20657Y-36636D01*
X20698Y-36549D01*
X21130Y-35960D01*
X21130Y-31600D01*
X21034Y-31582D01*
X20900Y-31168D01*
X21314Y-31034D01*
X21385Y-31100D01*
X21372Y-31258D01*
X21285Y-31453D01*
X21130Y-31600D01*
X21130Y-35960D01*
X24722Y-31070D01*
X24722Y-26394D01*
X24630Y-26356D01*
X24205Y-25932D01*
X24135Y-25862D01*
X24098Y-25770D01*
X24098Y-25672D01*
X24136Y-25580D01*
X24560Y-25155D01*
X24630Y-25085D01*
X24722Y-25048D01*
X24820Y-25048D01*
X24912Y-25086D01*
X24929Y-25102D01*
X24929Y-24905D01*
X25013Y-24703D01*
X25167Y-24549D01*
X25369Y-24465D01*
X25587Y-24465D01*
X25670Y-24499D01*
X25636Y-24416D01*
X25636Y-24198D01*
X25720Y-23996D01*
X25874Y-23842D01*
X26076Y-23758D01*
X26294Y-23758D01*
X26377Y-23792D01*
X26343Y-23709D01*
X26343Y-23491D01*
X26427Y-23289D01*
X26581Y-23135D01*
X26783Y-23051D01*
X27001Y-23051D01*
X27086Y-23086D01*
X27051Y-23001D01*
X27051Y-22783D01*
X27135Y-22581D01*
X27289Y-22427D01*
X27491Y-22343D01*
X27709Y-22343D01*
X27792Y-22377D01*
X27758Y-22294D01*
X27758Y-22076D01*
X27842Y-21874D01*
X27996Y-21720D01*
X28198Y-21636D01*
X28416Y-21636D01*
X28499Y-21670D01*
X28465Y-21587D01*
X28465Y-21369D01*
X28549Y-21167D01*
X28703Y-21013D01*
X28905Y-20929D01*
X29123Y-20929D01*
X29218Y-20968D01*
X29189Y-20906D01*
X29236Y-20821D01*
X29236Y-20721D01*
X29189Y-20636D01*
X29250Y-20490D01*
X29393Y-20331D01*
X29586Y-20239D01*
X29671Y-20286D01*
X29671Y-20721D01*
X29236Y-20721D01*
X29236Y-20821D01*
X29600Y-20820D01*
X29650Y-20771D01*
X29721Y-20842D01*
X29671Y-20891D01*
X29671Y-21256D01*
X29586Y-21303D01*
X29524Y-21277D01*
X29563Y-21369D01*
X29563Y-21587D01*
X29479Y-21789D01*
X29325Y-21943D01*
X29123Y-22027D01*
X28905Y-22027D01*
X28821Y-21992D01*
X28856Y-22076D01*
X28856Y-22294D01*
X28772Y-22496D01*
X28618Y-22650D01*
X28416Y-22734D01*
X28198Y-22734D01*
X28114Y-22699D01*
X28149Y-22783D01*
X28149Y-23001D01*
X28065Y-23203D01*
X27911Y-23357D01*
X27709Y-23441D01*
X27491Y-23441D01*
X27405Y-23405D01*
X27441Y-23491D01*
X27441Y-23709D01*
X27357Y-23911D01*
X27203Y-24065D01*
X27001Y-24149D01*
X26783Y-24149D01*
X26699Y-24114D01*
X26734Y-24198D01*
X26734Y-24416D01*
X26650Y-24618D01*
X26496Y-24772D01*
X26294Y-24856D01*
X26076Y-24856D01*
X25992Y-24821D01*
X26027Y-24905D01*
X26027Y-25123D01*
X25943Y-25325D01*
X25789Y-25479D01*
X25587Y-25563D01*
X25390Y-25563D01*
X25407Y-25580D01*
X25444Y-25672D01*
X25444Y-25770D01*
X25406Y-25862D01*
X24982Y-26287D01*
X24912Y-26357D01*
X24820Y-26394D01*
X24722Y-26394D01*
X24722Y-31070D01*
X29856Y-24079D01*
X29856Y-21303D01*
X29771Y-21256D01*
X29771Y-20821D01*
X29771Y-20721D01*
X29771Y-20286D01*
X29856Y-20239D01*
X30002Y-20300D01*
X30161Y-20443D01*
X30253Y-20636D01*
X30206Y-20721D01*
X29771Y-20721D01*
X29771Y-20821D01*
X30206Y-20821D01*
X30253Y-20906D01*
X30192Y-21052D01*
X30049Y-21211D01*
X29856Y-21303D01*
X29856Y-24079D01*
X30118Y-23723D01*
X30145Y-23667D01*
X30215Y-23602D01*
X34975Y-20719D01*
X34975Y-17493D01*
X34881Y-17462D01*
X34805Y-17397D01*
X34533Y-16863D01*
X34488Y-16774D01*
X34480Y-16676D01*
X34511Y-16582D01*
X34576Y-16506D01*
X35110Y-16234D01*
X35199Y-16189D01*
X35297Y-16181D01*
X35391Y-16212D01*
X35467Y-16277D01*
X35478Y-16298D01*
X35478Y-16274D01*
X35562Y-16072D01*
X35716Y-15918D01*
X35918Y-15834D01*
X36136Y-15834D01*
X36338Y-15918D01*
X36369Y-15949D01*
X36369Y-15820D01*
X36453Y-15618D01*
X36607Y-15464D01*
X36809Y-15380D01*
X37027Y-15380D01*
X37229Y-15464D01*
X37260Y-15495D01*
X37260Y-15366D01*
X37344Y-15164D01*
X37498Y-15010D01*
X37700Y-14926D01*
X37918Y-14926D01*
X38120Y-15010D01*
X38152Y-15042D01*
X38152Y-14912D01*
X38236Y-14710D01*
X38390Y-14556D01*
X38592Y-14472D01*
X38810Y-14472D01*
X39012Y-14556D01*
X39043Y-14587D01*
X39043Y-14458D01*
X39127Y-14256D01*
X39281Y-14102D01*
X39483Y-14018D01*
X39701Y-14018D01*
X39903Y-14102D01*
X39934Y-14133D01*
X39934Y-14004D01*
X40018Y-13802D01*
X40172Y-13648D01*
X40374Y-13564D01*
X40592Y-13564D01*
X40794Y-13648D01*
X40834Y-13688D01*
X40826Y-13623D01*
X40897Y-13557D01*
X41280Y-13681D01*
X41303Y-13659D01*
X41342Y-13698D01*
X41342Y-13596D01*
X40928Y-13462D01*
X40910Y-13366D01*
X41013Y-13246D01*
X41198Y-13139D01*
X41410Y-13111D01*
X41476Y-13182D01*
X41342Y-13596D01*
X41342Y-13698D01*
X41374Y-13730D01*
X41342Y-13761D01*
X41262Y-13841D01*
X41177Y-14105D01*
X41081Y-14123D01*
X41032Y-14080D01*
X41032Y-14222D01*
X40948Y-14424D01*
X40794Y-14578D01*
X40592Y-14662D01*
X40374Y-14662D01*
X40172Y-14578D01*
X40141Y-14547D01*
X40141Y-14676D01*
X40057Y-14878D01*
X39903Y-15032D01*
X39701Y-15116D01*
X39483Y-15116D01*
X39281Y-15032D01*
X39250Y-15001D01*
X39250Y-15130D01*
X39166Y-15332D01*
X39012Y-15486D01*
X38810Y-15570D01*
X38592Y-15570D01*
X38390Y-15486D01*
X38358Y-15454D01*
X38358Y-15584D01*
X38274Y-15786D01*
X38120Y-15940D01*
X37918Y-16024D01*
X37700Y-16024D01*
X37498Y-15940D01*
X37467Y-15909D01*
X37467Y-16038D01*
X37383Y-16240D01*
X37229Y-16394D01*
X37027Y-16478D01*
X36809Y-16478D01*
X36607Y-16394D01*
X36576Y-16363D01*
X36576Y-16492D01*
X36492Y-16694D01*
X36338Y-16848D01*
X36136Y-16932D01*
X35918Y-16932D01*
X35768Y-16869D01*
X35784Y-16900D01*
X35792Y-16998D01*
X35761Y-17092D01*
X35696Y-17168D01*
X35162Y-17440D01*
X35073Y-17485D01*
X34975Y-17493D01*
X34975Y-20719D01*
X41338Y-16865D01*
X41338Y-14207D01*
X41272Y-14136D01*
X41342Y-13919D01*
X41406Y-13722D01*
X41820Y-13856D01*
X41838Y-13952D01*
X41735Y-14072D01*
X41550Y-14179D01*
X41338Y-14207D01*
X41338Y-16865D01*
X41851Y-16554D01*
X41851Y-13761D01*
X41437Y-13627D01*
X41571Y-13213D01*
X41667Y-13195D01*
X41787Y-13298D01*
X41894Y-13483D01*
X41922Y-13695D01*
X41851Y-13761D01*
X41851Y-16554D01*
X43828Y-15357D01*
X43873Y-15317D01*
X43963Y-15284D01*
X47479Y-14746D01*
X47479Y-12188D01*
X47383Y-12165D01*
X47303Y-12107D01*
X47251Y-12022D01*
X47157Y-11429D01*
X47142Y-11331D01*
X47165Y-11235D01*
X47223Y-11155D01*
X47308Y-11103D01*
X47901Y-11009D01*
X47999Y-10994D01*
X48095Y-11017D01*
X48175Y-11075D01*
X48227Y-11160D01*
X48232Y-11194D01*
X48262Y-11123D01*
X48416Y-10969D01*
X48618Y-10885D01*
X48836Y-10885D01*
X49038Y-10969D01*
X49186Y-11117D01*
X49249Y-10967D01*
X49403Y-10813D01*
X49605Y-10729D01*
X49823Y-10729D01*
X50025Y-10813D01*
X50173Y-10961D01*
X50237Y-10810D01*
X50391Y-10656D01*
X50593Y-10572D01*
X50811Y-10572D01*
X51013Y-10656D01*
X51162Y-10805D01*
X51225Y-10654D01*
X51379Y-10500D01*
X51581Y-10416D01*
X51799Y-10416D01*
X52001Y-10500D01*
X52149Y-10648D01*
X52213Y-10497D01*
X52367Y-10343D01*
X52569Y-10259D01*
X52787Y-10259D01*
X52989Y-10343D01*
X53137Y-10491D01*
X53200Y-10341D01*
X53354Y-10187D01*
X53556Y-10103D01*
X53774Y-10103D01*
X53976Y-10187D01*
X54130Y-10341D01*
X54132Y-10347D01*
X54143Y-10292D01*
X54231Y-10250D01*
X54583Y-10506D01*
X54327Y-10858D01*
X54231Y-10846D01*
X54199Y-10794D01*
X54130Y-10963D01*
X53976Y-11117D01*
X53774Y-11201D01*
X53556Y-11201D01*
X53354Y-11117D01*
X53205Y-10968D01*
X53143Y-11119D01*
X52989Y-11273D01*
X52787Y-11357D01*
X52569Y-11357D01*
X52367Y-11273D01*
X52218Y-11124D01*
X52155Y-11276D01*
X52001Y-11430D01*
X51799Y-11514D01*
X51581Y-11514D01*
X51379Y-11430D01*
X51229Y-11280D01*
X51167Y-11432D01*
X51013Y-11586D01*
X50811Y-11670D01*
X50593Y-11670D01*
X50391Y-11586D01*
X50242Y-11437D01*
X50179Y-11589D01*
X50025Y-11743D01*
X49823Y-11827D01*
X49605Y-11827D01*
X49403Y-11743D01*
X49254Y-11594D01*
X49192Y-11745D01*
X49038Y-11899D01*
X48836Y-11983D01*
X48618Y-11983D01*
X48416Y-11899D01*
X48330Y-11813D01*
X48336Y-11851D01*
X48313Y-11947D01*
X48255Y-12027D01*
X48170Y-12079D01*
X47577Y-12173D01*
X47479Y-12188D01*
X47479Y-14746D01*
X54660Y-13646D01*
X54660Y-11044D01*
X54450Y-11005D01*
X54408Y-10917D01*
X54642Y-10595D01*
X54642Y-10425D01*
X54290Y-10169D01*
X54302Y-10073D01*
X54437Y-09991D01*
X54646Y-09946D01*
X54856Y-09985D01*
X54898Y-10073D01*
X54642Y-10425D01*
X54642Y-10595D01*
X54664Y-10565D01*
X55016Y-10821D01*
X55004Y-10917D01*
X54869Y-10999D01*
X54660Y-11044D01*
X54660Y-13646D01*
X55075Y-13583D01*
X55075Y-10740D01*
X54723Y-10484D01*
X54979Y-10132D01*
X55075Y-10144D01*
X55157Y-10279D01*
X55202Y-10488D01*
X55163Y-10698D01*
X55075Y-10740D01*
X55075Y-13583D01*
X59690Y-12877D01*
X59752Y-12855D01*
X59847Y-12859D01*
X67164Y-14656D01*
X67164Y-11983D01*
X66962Y-11899D01*
X66808Y-11745D01*
X66745Y-11594D01*
X66597Y-11743D01*
X66395Y-11827D01*
X66177Y-11827D01*
X65975Y-11743D01*
X65821Y-11589D01*
X65757Y-11437D01*
X65609Y-11586D01*
X65407Y-11670D01*
X65189Y-11670D01*
X64987Y-11586D01*
X64833Y-11432D01*
X64770Y-11280D01*
X64621Y-11430D01*
X64419Y-11514D01*
X64201Y-11514D01*
X63999Y-11430D01*
X63845Y-11276D01*
X63781Y-11124D01*
X63633Y-11273D01*
X63431Y-11357D01*
X63213Y-11357D01*
X63011Y-11273D01*
X62857Y-11119D01*
X62794Y-10968D01*
X62646Y-11117D01*
X62444Y-11201D01*
X62226Y-11201D01*
X62024Y-11117D01*
X61870Y-10963D01*
X61839Y-10890D01*
X61834Y-10927D01*
X61783Y-11011D01*
X61703Y-11069D01*
X61606Y-11092D01*
X61013Y-10998D01*
X60915Y-10982D01*
X60831Y-10931D01*
X60773Y-10851D01*
X60750Y-10754D01*
X60844Y-10161D01*
X60860Y-10063D01*
X60911Y-09979D01*
X60991Y-09921D01*
X61088Y-09898D01*
X61681Y-09992D01*
X61779Y-10008D01*
X61863Y-10059D01*
X61921Y-10139D01*
X61944Y-10236D01*
X61938Y-10272D01*
X62024Y-10187D01*
X62226Y-10103D01*
X62444Y-10103D01*
X62646Y-10187D01*
X62800Y-10341D01*
X62862Y-10491D01*
X63011Y-10343D01*
X63213Y-10259D01*
X63431Y-10259D01*
X63633Y-10343D01*
X63787Y-10497D01*
X63850Y-10648D01*
X63999Y-10500D01*
X64201Y-10416D01*
X64419Y-10416D01*
X64621Y-10500D01*
X64775Y-10654D01*
X64837Y-10805D01*
X64987Y-10656D01*
X65189Y-10572D01*
X65407Y-10572D01*
X65609Y-10656D01*
X65763Y-10810D01*
X65826Y-10961D01*
X65975Y-10813D01*
X66177Y-10729D01*
X66395Y-10729D01*
X66597Y-10813D01*
X66751Y-10967D01*
X66813Y-11117D01*
X66962Y-10969D01*
X67164Y-10885D01*
X67382Y-10885D01*
X67584Y-10969D01*
X67738Y-11123D01*
X67809Y-11294D01*
X67839Y-11240D01*
X67935Y-11228D01*
X68191Y-11580D01*
X67839Y-11836D01*
X67751Y-11794D01*
X67738Y-11742D01*
X67738Y-11745D01*
X67584Y-11899D01*
X67382Y-11983D01*
X67164Y-11983D01*
X67164Y-14656D01*
X68311Y-14937D01*
X68311Y-12137D01*
X68098Y-12115D01*
X67910Y-12013D01*
X67898Y-11917D01*
X68250Y-11661D01*
X68272Y-11691D01*
X68272Y-11521D01*
X68016Y-11169D01*
X68058Y-11081D01*
X68211Y-11045D01*
X68424Y-11067D01*
X68612Y-11169D01*
X68624Y-11265D01*
X68272Y-11521D01*
X68272Y-11691D01*
X68506Y-12013D01*
X68464Y-12101D01*
X68311Y-12137D01*
X68311Y-14937D01*
X68587Y-15005D01*
X68587Y-11954D01*
X68331Y-11602D01*
X68683Y-11346D01*
X68771Y-11388D01*
X68807Y-11541D01*
X68785Y-11754D01*
X68683Y-11942D01*
X68587Y-11954D01*
X68587Y-15005D01*
X75296Y-16654D01*
X75364Y-16657D01*
X75451Y-16698D01*
X79864Y-19939D01*
X80387Y-20323D01*
X80387Y-16939D01*
X80316Y-16873D01*
X80321Y-16810D01*
X80284Y-16848D01*
X80082Y-16932D01*
X79864Y-16932D01*
X79662Y-16848D01*
X79508Y-16694D01*
X79424Y-16492D01*
X79424Y-16363D01*
X79393Y-16394D01*
X79191Y-16478D01*
X78973Y-16478D01*
X78771Y-16394D01*
X78617Y-16240D01*
X78533Y-16038D01*
X78533Y-15909D01*
X78502Y-15940D01*
X78300Y-16024D01*
X78082Y-16024D01*
X77880Y-15940D01*
X77726Y-15786D01*
X77642Y-15584D01*
X77642Y-15454D01*
X77610Y-15486D01*
X77408Y-15570D01*
X77190Y-15570D01*
X76988Y-15486D01*
X76834Y-15332D01*
X76750Y-15130D01*
X76750Y-15001D01*
X76719Y-15032D01*
X76517Y-15116D01*
X76299Y-15116D01*
X76097Y-15032D01*
X75943Y-14878D01*
X75859Y-14676D01*
X75859Y-14547D01*
X75828Y-14578D01*
X75626Y-14662D01*
X75408Y-14662D01*
X75206Y-14578D01*
X75052Y-14424D01*
X74968Y-14222D01*
X74968Y-14196D01*
X74956Y-14220D01*
X74881Y-14284D01*
X74787Y-14315D01*
X74688Y-14307D01*
X74153Y-14034D01*
X74065Y-13989D01*
X74001Y-13914D01*
X73970Y-13820D01*
X73978Y-13721D01*
X74251Y-13186D01*
X74296Y-13098D01*
X74371Y-13034D01*
X74465Y-13003D01*
X74564Y-13011D01*
X75099Y-13284D01*
X75187Y-13329D01*
X75251Y-13404D01*
X75282Y-13498D01*
X75274Y-13597D01*
X75259Y-13625D01*
X75408Y-13564D01*
X75626Y-13564D01*
X75828Y-13648D01*
X75982Y-13802D01*
X76066Y-14004D01*
X76066Y-14133D01*
X76097Y-14102D01*
X76299Y-14018D01*
X76517Y-14018D01*
X76719Y-14102D01*
X76873Y-14256D01*
X76957Y-14458D01*
X76957Y-14587D01*
X76988Y-14556D01*
X77190Y-14472D01*
X77408Y-14472D01*
X77610Y-14556D01*
X77764Y-14710D01*
X77848Y-14912D01*
X77848Y-15042D01*
X77880Y-15010D01*
X78082Y-14926D01*
X78300Y-14926D01*
X78502Y-15010D01*
X78656Y-15164D01*
X78740Y-15366D01*
X78740Y-15495D01*
X78771Y-15464D01*
X78973Y-15380D01*
X79191Y-15380D01*
X79393Y-15464D01*
X79547Y-15618D01*
X79631Y-15820D01*
X79631Y-15949D01*
X79662Y-15918D01*
X79864Y-15834D01*
X80082Y-15834D01*
X80284Y-15918D01*
X80438Y-16072D01*
X80522Y-16274D01*
X80522Y-16419D01*
X80571Y-16373D01*
X80667Y-16391D01*
X80752Y-16654D01*
X80864Y-16766D01*
X80793Y-16837D01*
X80770Y-16814D01*
X80387Y-16939D01*
X80387Y-20323D01*
X80900Y-20699D01*
X80900Y-17385D01*
X80742Y-17372D01*
X80547Y-17285D01*
X80400Y-17130D01*
X80418Y-17034D01*
X80832Y-16900D01*
X80896Y-17097D01*
X80896Y-16774D01*
X80762Y-16360D01*
X80828Y-16289D01*
X80986Y-16302D01*
X81181Y-16389D01*
X81328Y-16544D01*
X81310Y-16640D01*
X80896Y-16774D01*
X80896Y-17097D01*
X80966Y-17314D01*
X80900Y-17385D01*
X80900Y-20699D01*
X81157Y-20888D01*
X81157Y-17301D01*
X81061Y-17283D01*
X80927Y-16869D01*
X81341Y-16735D01*
X81412Y-16801D01*
X81399Y-16959D01*
X81312Y-17154D01*
X81157Y-17301D01*
X81157Y-20888D01*
X88276Y-26118D01*
X88333Y-26145D01*
X88398Y-26215D01*
X90413Y-29542D01*
X91094Y-30666D01*
X91094Y-26253D01*
X90948Y-26192D01*
X90789Y-26049D01*
X90697Y-25856D01*
X90744Y-25771D01*
X91158Y-25771D01*
X91158Y-25721D01*
X91108Y-25671D01*
X90744Y-25671D01*
X90697Y-25586D01*
X90722Y-25524D01*
X90631Y-25563D01*
X90413Y-25563D01*
X90211Y-25479D01*
X90057Y-25325D01*
X89973Y-25123D01*
X89973Y-24905D01*
X90007Y-24821D01*
X89924Y-24856D01*
X89706Y-24856D01*
X89504Y-24772D01*
X89350Y-24618D01*
X89266Y-24416D01*
X89266Y-24198D01*
X89300Y-24114D01*
X89217Y-24149D01*
X88999Y-24149D01*
X88797Y-24065D01*
X88643Y-23911D01*
X88559Y-23709D01*
X88559Y-23491D01*
X88594Y-23405D01*
X88509Y-23441D01*
X88291Y-23441D01*
X88089Y-23357D01*
X87935Y-23203D01*
X87851Y-23001D01*
X87851Y-22783D01*
X87885Y-22699D01*
X87802Y-22734D01*
X87584Y-22734D01*
X87382Y-22650D01*
X87228Y-22496D01*
X87144Y-22294D01*
X87144Y-22076D01*
X87178Y-21992D01*
X87095Y-22027D01*
X86877Y-22027D01*
X86675Y-21943D01*
X86521Y-21789D01*
X86437Y-21587D01*
X86437Y-21390D01*
X86420Y-21407D01*
X86328Y-21444D01*
X86230Y-21444D01*
X86138Y-21406D01*
X85713Y-20982D01*
X85643Y-20912D01*
X85606Y-20820D01*
X85606Y-20722D01*
X85644Y-20630D01*
X86068Y-20205D01*
X86138Y-20135D01*
X86230Y-20098D01*
X86328Y-20098D01*
X86420Y-20136D01*
X86845Y-20560D01*
X86915Y-20630D01*
X86952Y-20722D01*
X86952Y-20820D01*
X86914Y-20912D01*
X86897Y-20929D01*
X87095Y-20929D01*
X87297Y-21013D01*
X87451Y-21167D01*
X87535Y-21369D01*
X87535Y-21587D01*
X87500Y-21670D01*
X87584Y-21636D01*
X87802Y-21636D01*
X88004Y-21720D01*
X88158Y-21874D01*
X88242Y-22076D01*
X88242Y-22294D01*
X88207Y-22377D01*
X88291Y-22343D01*
X88509Y-22343D01*
X88711Y-22427D01*
X88865Y-22581D01*
X88949Y-22783D01*
X88949Y-23001D01*
X88913Y-23086D01*
X88999Y-23051D01*
X89217Y-23051D01*
X89419Y-23135D01*
X89573Y-23289D01*
X89657Y-23491D01*
X89657Y-23709D01*
X89622Y-23792D01*
X89706Y-23758D01*
X89924Y-23758D01*
X90126Y-23842D01*
X90280Y-23996D01*
X90364Y-24198D01*
X90364Y-24416D01*
X90329Y-24499D01*
X90413Y-24465D01*
X90631Y-24465D01*
X90833Y-24549D01*
X90987Y-24703D01*
X91071Y-24905D01*
X91071Y-25123D01*
X91031Y-25218D01*
X91094Y-25189D01*
X91179Y-25236D01*
X91179Y-25600D01*
X91229Y-25650D01*
X91158Y-25721D01*
X91158Y-25771D01*
X91179Y-25771D01*
X91179Y-26206D01*
X91094Y-26253D01*
X91094Y-30666D01*
X91364Y-31112D01*
X91364Y-26253D01*
X91279Y-26206D01*
X91279Y-25771D01*
X91279Y-25671D01*
X91279Y-25236D01*
X91364Y-25189D01*
X91510Y-25250D01*
X91669Y-25393D01*
X91761Y-25586D01*
X91714Y-25671D01*
X91279Y-25671D01*
X91279Y-25771D01*
X91714Y-25771D01*
X91761Y-25856D01*
X91700Y-26002D01*
X91557Y-26161D01*
X91364Y-26253D01*
X91364Y-31112D01*
X96642Y-39828D01*
X96683Y-39873D01*
X96716Y-39963D01*
X97778Y-46903D01*
X98048Y-48668D01*
X98048Y-37838D01*
X97928Y-37735D01*
X97821Y-37550D01*
X97793Y-37338D01*
X97864Y-37272D01*
X98270Y-37403D01*
X98270Y-37374D01*
X98158Y-37262D01*
X97895Y-37177D01*
X97877Y-37081D01*
X97919Y-37032D01*
X97778Y-37032D01*
X97576Y-36948D01*
X97422Y-36794D01*
X97338Y-36592D01*
X97338Y-36374D01*
X97422Y-36172D01*
X97452Y-36141D01*
X97324Y-36141D01*
X97122Y-36057D01*
X96968Y-35903D01*
X96884Y-35701D01*
X96884Y-35483D01*
X96968Y-35281D01*
X96998Y-35250D01*
X96870Y-35250D01*
X96668Y-35166D01*
X96514Y-35012D01*
X96430Y-34810D01*
X96430Y-34592D01*
X96514Y-34390D01*
X96545Y-34358D01*
X96416Y-34358D01*
X96214Y-34274D01*
X96060Y-34120D01*
X95976Y-33918D01*
X95976Y-33700D01*
X96060Y-33498D01*
X96091Y-33467D01*
X95962Y-33467D01*
X95760Y-33383D01*
X95606Y-33229D01*
X95522Y-33027D01*
X95522Y-32809D01*
X95606Y-32607D01*
X95636Y-32576D01*
X95508Y-32576D01*
X95306Y-32492D01*
X95152Y-32338D01*
X95068Y-32136D01*
X95068Y-31918D01*
X95130Y-31768D01*
X95100Y-31784D01*
X95002Y-31792D01*
X94908Y-31761D01*
X94832Y-31696D01*
X94560Y-31162D01*
X94515Y-31073D01*
X94507Y-30975D01*
X94538Y-30881D01*
X94603Y-30805D01*
X95137Y-30533D01*
X95226Y-30488D01*
X95324Y-30480D01*
X95418Y-30511D01*
X95494Y-30576D01*
X95766Y-31110D01*
X95811Y-31199D01*
X95819Y-31297D01*
X95788Y-31391D01*
X95723Y-31467D01*
X95701Y-31478D01*
X95726Y-31478D01*
X95928Y-31562D01*
X96082Y-31716D01*
X96166Y-31918D01*
X96166Y-32136D01*
X96082Y-32338D01*
X96050Y-32369D01*
X96180Y-32369D01*
X96382Y-32453D01*
X96536Y-32607D01*
X96620Y-32809D01*
X96620Y-33027D01*
X96536Y-33229D01*
X96505Y-33260D01*
X96634Y-33260D01*
X96836Y-33344D01*
X96990Y-33498D01*
X97074Y-33700D01*
X97074Y-33918D01*
X96990Y-34120D01*
X96958Y-34152D01*
X97088Y-34152D01*
X97290Y-34236D01*
X97444Y-34390D01*
X97528Y-34592D01*
X97528Y-34810D01*
X97444Y-35012D01*
X97413Y-35043D01*
X97542Y-35043D01*
X97744Y-35127D01*
X97898Y-35281D01*
X97982Y-35483D01*
X97982Y-35701D01*
X97898Y-35903D01*
X97867Y-35934D01*
X97996Y-35934D01*
X98198Y-36018D01*
X98352Y-36172D01*
X98436Y-36374D01*
X98436Y-36592D01*
X98352Y-36794D01*
X98311Y-36834D01*
X98377Y-36826D01*
X98443Y-36897D01*
X98318Y-37280D01*
X98341Y-37303D01*
X98309Y-37335D01*
X98270Y-37374D01*
X98270Y-37403D01*
X98278Y-37406D01*
X98144Y-37820D01*
X98048Y-37838D01*
X98048Y-48668D01*
X98305Y-50349D01*
X98305Y-37922D01*
X98239Y-37851D01*
X98309Y-37634D01*
X98373Y-37437D01*
X98787Y-37571D01*
X98805Y-37667D01*
X98702Y-37787D01*
X98517Y-37894D01*
X98305Y-37922D01*
X98305Y-50349D01*
X98818Y-53704D01*
X98818Y-37476D01*
X98404Y-37342D01*
X98538Y-36928D01*
X98634Y-36910D01*
X98754Y-37013D01*
X98861Y-37198D01*
X98889Y-37410D01*
X98818Y-37476D01*
X98818Y-53704D01*
X99117Y-55660D01*
X99153Y-55744D01*
X99153Y-55839D01*
X96771Y-67755D01*
X99987Y-67755D01*
X99987Y-64506D01*
X99899Y-64464D01*
X99863Y-64311D01*
X99885Y-64098D01*
X99987Y-63910D01*
X100083Y-63898D01*
X100339Y-64250D01*
X99987Y-64506D01*
X99987Y-67755D01*
X100459Y-67755D01*
X100459Y-64807D01*
X100457Y-64806D01*
X100246Y-64785D01*
X100058Y-64683D01*
X100046Y-64587D01*
X100398Y-64331D01*
X100420Y-64361D01*
X100420Y-64191D01*
X100164Y-63839D01*
X100206Y-63751D01*
X100257Y-63738D01*
X100255Y-63738D01*
X100101Y-63584D01*
X100017Y-63382D01*
X100017Y-63164D01*
X100101Y-62962D01*
X100255Y-62808D01*
X100405Y-62745D01*
X100257Y-62597D01*
X100173Y-62395D01*
X100173Y-62177D01*
X100257Y-61975D01*
X100411Y-61821D01*
X100562Y-61757D01*
X100414Y-61609D01*
X100330Y-61407D01*
X100330Y-61189D01*
X100414Y-60987D01*
X100568Y-60833D01*
X100719Y-60770D01*
X100570Y-60621D01*
X100486Y-60419D01*
X100486Y-60201D01*
X100570Y-59999D01*
X100724Y-59845D01*
X100875Y-59781D01*
X100727Y-59633D01*
X100643Y-59431D01*
X100643Y-59213D01*
X100727Y-59011D01*
X100881Y-58857D01*
X101031Y-58794D01*
X100883Y-58646D01*
X100799Y-58444D01*
X100799Y-58226D01*
X100883Y-58024D01*
X101037Y-57870D01*
X101109Y-57839D01*
X101073Y-57834D01*
X100989Y-57783D01*
X100931Y-57703D01*
X100908Y-57606D01*
X101002Y-57013D01*
X101018Y-56915D01*
X101069Y-56831D01*
X101149Y-56773D01*
X101179Y-56765D01*
X101179Y-51016D01*
X101083Y-51004D01*
X101001Y-50869D01*
X100956Y-50660D01*
X100995Y-50450D01*
X101083Y-50408D01*
X101239Y-50521D01*
X101435Y-50664D01*
X101239Y-50933D01*
X101179Y-51016D01*
X101179Y-56765D01*
X101239Y-56751D01*
X101246Y-56750D01*
X101512Y-56792D01*
X101512Y-51202D01*
X101302Y-51163D01*
X101260Y-51075D01*
X101494Y-50753D01*
X101494Y-50583D01*
X101239Y-50397D01*
X101142Y-50327D01*
X101154Y-50231D01*
X101205Y-50199D01*
X101037Y-50130D01*
X100883Y-49976D01*
X100799Y-49774D01*
X100799Y-49556D01*
X100883Y-49354D01*
X101031Y-49205D01*
X100881Y-49143D01*
X100727Y-48989D01*
X100643Y-48787D01*
X100643Y-48569D01*
X100727Y-48367D01*
X100875Y-48218D01*
X100724Y-48155D01*
X100570Y-48001D01*
X100486Y-47799D01*
X100486Y-47581D01*
X100570Y-47379D01*
X100719Y-47229D01*
X100568Y-47167D01*
X100414Y-47013D01*
X100330Y-46811D01*
X100330Y-46593D01*
X100414Y-46391D01*
X100562Y-46242D01*
X100411Y-46179D01*
X100257Y-46025D01*
X100173Y-45823D01*
X100173Y-45605D01*
X100257Y-45403D01*
X100405Y-45254D01*
X100255Y-45192D01*
X100101Y-45038D01*
X100017Y-44836D01*
X100017Y-44618D01*
X100101Y-44416D01*
X100186Y-44330D01*
X100149Y-44336D01*
X100053Y-44313D01*
X99973Y-44255D01*
X99921Y-44170D01*
X99827Y-43577D01*
X99812Y-43479D01*
X99835Y-43383D01*
X99893Y-43303D01*
X99978Y-43251D01*
X100571Y-43157D01*
X100669Y-43142D01*
X100765Y-43165D01*
X100845Y-43223D01*
X100897Y-43308D01*
X100991Y-43901D01*
X101006Y-43999D01*
X100983Y-44095D01*
X100925Y-44175D01*
X100840Y-44227D01*
X100805Y-44232D01*
X100877Y-44262D01*
X101031Y-44416D01*
X101115Y-44618D01*
X101115Y-44836D01*
X101031Y-45038D01*
X100882Y-45186D01*
X101033Y-45249D01*
X101187Y-45403D01*
X101271Y-45605D01*
X101271Y-45823D01*
X101187Y-46025D01*
X101038Y-46173D01*
X101190Y-46237D01*
X101344Y-46391D01*
X101428Y-46593D01*
X101428Y-46811D01*
X101344Y-47013D01*
X101194Y-47162D01*
X101346Y-47225D01*
X101500Y-47379D01*
X101584Y-47581D01*
X101584Y-47799D01*
X101500Y-48001D01*
X101351Y-48149D01*
X101503Y-48213D01*
X101657Y-48367D01*
X101741Y-48569D01*
X101741Y-48787D01*
X101657Y-48989D01*
X101508Y-49137D01*
X101659Y-49200D01*
X101813Y-49354D01*
X101897Y-49556D01*
X101897Y-49774D01*
X101813Y-49976D01*
X101659Y-50130D01*
X101652Y-50132D01*
X101708Y-50143D01*
X101750Y-50231D01*
X101494Y-50583D01*
X101494Y-50753D01*
X101516Y-50723D01*
X101868Y-50979D01*
X101856Y-51075D01*
X101721Y-51157D01*
X101512Y-51202D01*
X101512Y-56792D01*
X101839Y-56844D01*
X101927Y-56858D01*
X101927Y-50898D01*
X101575Y-50642D01*
X101831Y-50290D01*
X101927Y-50302D01*
X102009Y-50437D01*
X102054Y-50646D01*
X102015Y-50856D01*
X101927Y-50898D01*
X101927Y-56858D01*
X101937Y-56860D01*
X102021Y-56911D01*
X102079Y-56991D01*
X102102Y-57088D01*
X102008Y-57681D01*
X101992Y-57779D01*
X101941Y-57863D01*
X101861Y-57921D01*
X101764Y-57944D01*
X101727Y-57938D01*
X101813Y-58024D01*
X101897Y-58226D01*
X101897Y-58444D01*
X101813Y-58646D01*
X101659Y-58800D01*
X101508Y-58862D01*
X101657Y-59011D01*
X101741Y-59213D01*
X101741Y-59431D01*
X101657Y-59633D01*
X101503Y-59787D01*
X101351Y-59850D01*
X101500Y-59999D01*
X101584Y-60201D01*
X101584Y-60419D01*
X101500Y-60621D01*
X101346Y-60775D01*
X101194Y-60837D01*
X101344Y-60987D01*
X101428Y-61189D01*
X101428Y-61407D01*
X101344Y-61609D01*
X101190Y-61763D01*
X101038Y-61826D01*
X101187Y-61975D01*
X101271Y-62177D01*
X101271Y-62395D01*
X101187Y-62597D01*
X101033Y-62751D01*
X100882Y-62813D01*
X101031Y-62962D01*
X101115Y-63164D01*
X101115Y-63382D01*
X101031Y-63584D01*
X100877Y-63738D01*
X100705Y-63809D01*
X100760Y-63839D01*
X100772Y-63935D01*
X100457Y-64164D01*
X100420Y-64191D01*
X100420Y-64361D01*
X100457Y-64412D01*
X100654Y-64683D01*
X100612Y-64771D01*
X100459Y-64807D01*
X100459Y-67755D01*
X100735Y-67755D01*
X100735Y-64624D01*
X100479Y-64272D01*
X100831Y-64016D01*
X100919Y-64058D01*
X100955Y-64211D01*
X100933Y-64424D01*
X100831Y-64612D01*
X100735Y-64624D01*
X100735Y-67755D01*
X106772Y-67755D01*
X106772Y-65158D01*
X106555Y-64988D01*
X106535Y-64957D01*
X106280Y-64324D01*
X106287Y-63641D01*
X106555Y-63012D01*
X106772Y-62842D01*
X106772Y-55158D01*
X106555Y-54988D01*
X106535Y-54957D01*
X106280Y-54324D01*
X106287Y-53641D01*
X106555Y-53012D01*
X106772Y-52842D01*
X106772Y-45158D01*
X106555Y-44988D01*
X106535Y-44957D01*
X106280Y-44324D01*
X106287Y-43641D01*
X106555Y-43012D01*
X106772Y-42842D01*
X106772Y-35158D01*
X106555Y-34988D01*
X106535Y-34957D01*
X106280Y-34324D01*
X106287Y-33641D01*
X106555Y-33012D01*
X106772Y-32842D01*
X106772Y-15158D01*
X106555Y-14988D01*
X106535Y-14957D01*
X106280Y-14324D01*
X106287Y-13641D01*
X106555Y-13012D01*
X106772Y-12842D01*
X107929Y-14000D01*
X106772Y-15158D01*
X106772Y-32842D01*
X107929Y-34000D01*
X106772Y-35158D01*
X106772Y-42842D01*
X107929Y-44000D01*
X106772Y-45158D01*
X106772Y-52842D01*
X107929Y-54000D01*
X106772Y-55158D01*
X106772Y-62842D01*
X107929Y-64000D01*
X106772Y-65158D01*
X106772Y-67755D01*
X108324Y-67755D01*
X108324Y-65720D01*
X107641Y-65713D01*
X107012Y-65445D01*
X106842Y-65228D01*
X108000Y-64071D01*
X108000Y-63929D01*
X106842Y-62772D01*
X107012Y-62555D01*
X107043Y-62535D01*
X107676Y-62280D01*
X108324Y-62286D01*
X108324Y-55720D01*
X107641Y-55713D01*
X107012Y-55445D01*
X106842Y-55228D01*
X108000Y-54071D01*
X108000Y-53929D01*
X106842Y-52772D01*
X107012Y-52555D01*
X107043Y-52535D01*
X107676Y-52280D01*
X108324Y-52286D01*
X108324Y-45720D01*
X107641Y-45713D01*
X107012Y-45445D01*
X106842Y-45228D01*
X108000Y-44071D01*
X108000Y-43929D01*
X106842Y-42772D01*
X107012Y-42555D01*
X107043Y-42535D01*
X107676Y-42280D01*
X108324Y-42286D01*
X108324Y-35720D01*
X107641Y-35713D01*
X107012Y-35445D01*
X106842Y-35228D01*
X108000Y-34071D01*
X108000Y-33929D01*
X106842Y-32772D01*
X107012Y-32555D01*
X107043Y-32535D01*
X107676Y-32280D01*
X108324Y-32286D01*
X108324Y-15720D01*
X107641Y-15713D01*
X107012Y-15445D01*
X106842Y-15228D01*
X108000Y-14071D01*
X108000Y-13929D01*
X106842Y-12772D01*
X107012Y-12555D01*
X107043Y-12535D01*
X107676Y-12280D01*
X108359Y-12287D01*
X108988Y-12555D01*
X109158Y-12772D01*
X108000Y-13929D01*
X108000Y-14071D01*
X109158Y-15228D01*
X108988Y-15445D01*
X108957Y-15465D01*
X108324Y-15720D01*
X108324Y-32286D01*
X108359Y-32287D01*
X108988Y-32555D01*
X109158Y-32772D01*
X108000Y-33929D01*
X108000Y-34071D01*
X109158Y-35228D01*
X108988Y-35445D01*
X108957Y-35465D01*
X108324Y-35720D01*
X108324Y-42286D01*
X108359Y-42287D01*
X108988Y-42555D01*
X109158Y-42772D01*
X108000Y-43929D01*
X108000Y-44071D01*
X109158Y-45228D01*
X108988Y-45445D01*
X108957Y-45465D01*
X108324Y-45720D01*
X108324Y-52286D01*
X108359Y-52287D01*
X108988Y-52555D01*
X109158Y-52772D01*
X108000Y-53929D01*
X108000Y-54071D01*
X109158Y-55228D01*
X108988Y-55445D01*
X108957Y-55465D01*
X108324Y-55720D01*
X108324Y-62286D01*
X108359Y-62287D01*
X108988Y-62555D01*
X109158Y-62772D01*
X108000Y-63929D01*
X108000Y-64071D01*
X109158Y-65228D01*
X108988Y-65445D01*
X108957Y-65465D01*
X108324Y-65720D01*
X108324Y-67755D01*
X109228Y-67755D01*
X109228Y-65158D01*
X108071Y-64000D01*
X109228Y-62842D01*
X109228Y-55158D01*
X108071Y-54000D01*
X109228Y-52842D01*
X109228Y-45158D01*
X108071Y-44000D01*
X109228Y-42842D01*
X109228Y-35158D01*
X108071Y-34000D01*
X109228Y-32842D01*
X109228Y-15158D01*
X108071Y-14000D01*
X109228Y-12842D01*
X109445Y-13012D01*
X109465Y-13043D01*
X109720Y-13676D01*
X109713Y-14359D01*
X109445Y-14988D01*
X109228Y-15158D01*
X109228Y-32842D01*
X109445Y-33012D01*
X109465Y-33043D01*
X109720Y-33676D01*
X109713Y-34359D01*
X109445Y-34988D01*
X109228Y-35158D01*
X109228Y-42842D01*
X109445Y-43012D01*
X109465Y-43043D01*
X109720Y-43676D01*
X109713Y-44359D01*
X109445Y-44988D01*
X109228Y-45158D01*
X109228Y-52842D01*
X109445Y-53012D01*
X109465Y-53043D01*
X109720Y-53676D01*
X109713Y-54359D01*
X109445Y-54988D01*
X109228Y-55158D01*
X109228Y-62842D01*
X109445Y-63012D01*
X109465Y-63043D01*
X109720Y-63676D01*
X109713Y-64359D01*
X109445Y-64988D01*
X109228Y-65158D01*
X109228Y-67755D01*
X110255Y-67755D01*
M02*
