G04 (created by PCBNEW-RS274X (2010-03-14)-final) date Tue 08 Feb 2011 05:29:44 PM PST*
G01*
G70*
G90*
%MOIN*%
G04 Gerber Fmt 3.4, Leading zero omitted, Abs format*
%FSLAX34Y34*%
G04 APERTURE LIST*
%ADD10C,0.006000*%
%ADD11C,0.009000*%
%ADD12C,0.320000*%
%ADD13C,0.080000*%
G04 APERTURE END LIST*
G54D10*
G54D11*
X110500Y-68000D02*
X96474Y-68000D01*
X05500Y-68000D02*
X19526Y-68000D01*
X96472Y-68002D02*
X97546Y-64596D01*
X98319Y-61109D01*
X98786Y-57568D01*
X98942Y-54000D01*
X98786Y-50432D01*
X98319Y-46891D01*
X97546Y-43404D01*
X96472Y-39998D01*
X95106Y-36698D01*
X93456Y-33529D01*
X91537Y-30517D01*
X89363Y-27683D01*
X86950Y-25050D01*
X84317Y-22637D01*
X81483Y-20463D01*
X78471Y-18544D01*
X75302Y-16894D01*
X72002Y-15528D01*
X68596Y-14454D01*
X65109Y-13681D01*
X61568Y-13214D01*
X58000Y-13058D01*
X54432Y-13214D01*
X50891Y-13681D01*
X47404Y-14454D01*
X43998Y-15528D01*
X40698Y-16894D01*
X37529Y-18544D01*
X34517Y-20463D01*
X31683Y-22637D01*
X29050Y-25050D01*
X26637Y-27683D01*
X24463Y-30517D01*
X22544Y-33529D01*
X20894Y-36698D01*
X19528Y-39998D01*
X18454Y-43404D01*
X17681Y-46891D01*
X17214Y-50432D01*
X17058Y-54000D01*
X17214Y-57568D01*
X17681Y-61109D01*
X18454Y-64596D01*
X19528Y-68002D01*
X110500Y-08000D02*
X110500Y-68000D01*
X05500Y-08000D02*
X110500Y-08000D01*
X05500Y-68000D02*
X05500Y-08000D01*
G54D12*
X108000Y-14000D03*
X108000Y-34000D03*
X108000Y-44000D03*
X108000Y-54000D03*
X108000Y-64000D03*
X08000Y-34000D03*
X08000Y-14000D03*
X08000Y-44000D03*
X08000Y-24000D03*
X08000Y-54000D03*
X08000Y-64000D03*
G54D10*
G36*
X16049Y-64594D02*
X15258Y-64719D01*
X15133Y-63928D01*
X15924Y-63803D01*
X16049Y-64594D01*
X16049Y-64594D01*
G37*
G54D13*
X15434Y-63273D03*
X15278Y-62286D03*
X15121Y-61298D03*
X14965Y-60310D03*
X14808Y-59322D03*
X14652Y-58335D03*
X14495Y-57347D03*
G54D10*
G36*
X14828Y-51111D02*
X14037Y-50986D01*
X14162Y-50195D01*
X14953Y-50320D01*
X14828Y-51111D01*
X14828Y-51111D01*
G37*
G54D13*
X14652Y-49665D03*
X14808Y-48678D03*
X14965Y-47690D03*
X15121Y-46702D03*
X15278Y-45714D03*
X15434Y-44727D03*
X15591Y-43739D03*
G54D10*
G36*
X17834Y-37912D02*
X17121Y-37549D01*
X17484Y-36836D01*
X18197Y-37199D01*
X17834Y-37912D01*
X17834Y-37912D01*
G37*
G54D13*
X18113Y-36483D03*
X18567Y-35592D03*
X19021Y-34701D03*
X19475Y-33809D03*
X19929Y-32918D03*
X20383Y-32027D03*
X20837Y-31136D03*
G54D10*
G36*
X24771Y-26287D02*
X24205Y-25721D01*
X24771Y-25155D01*
X25337Y-25721D01*
X24771Y-26287D01*
X24771Y-26287D01*
G37*
G54D13*
X25478Y-25014D03*
X26185Y-24307D03*
X26892Y-23600D03*
X27600Y-22892D03*
X28307Y-22185D03*
X29014Y-21478D03*
X29721Y-20771D03*
G54D10*
G36*
X34961Y-17375D02*
X34598Y-16662D01*
X35311Y-16299D01*
X35674Y-17012D01*
X34961Y-17375D01*
X34961Y-17375D01*
G37*
G54D13*
X36027Y-16383D03*
X36918Y-15929D03*
X37809Y-15475D03*
X38701Y-15021D03*
X39592Y-14567D03*
X40483Y-14113D03*
X41374Y-13659D03*
G54D10*
G36*
X47406Y-12049D02*
X47281Y-11258D01*
X48072Y-11133D01*
X48197Y-11924D01*
X47406Y-12049D01*
X47406Y-12049D01*
G37*
G54D13*
X48727Y-11434D03*
X49714Y-11278D03*
X50702Y-11121D03*
X51690Y-10965D03*
X52678Y-10808D03*
X53665Y-10652D03*
X54653Y-10495D03*
G54D10*
G36*
X60889Y-10828D02*
X61014Y-10037D01*
X61805Y-10162D01*
X61680Y-10953D01*
X60889Y-10828D01*
X60889Y-10828D01*
G37*
G54D13*
X62335Y-10652D03*
X63322Y-10808D03*
X64310Y-10965D03*
X65298Y-11121D03*
X66286Y-11278D03*
X67273Y-11434D03*
X68261Y-11591D03*
G54D10*
G36*
X74088Y-13834D02*
X74451Y-13121D01*
X75164Y-13484D01*
X74801Y-14197D01*
X74088Y-13834D01*
X74088Y-13834D01*
G37*
G54D13*
X75517Y-14113D03*
X76408Y-14567D03*
X77299Y-15021D03*
X78191Y-15475D03*
X79082Y-15929D03*
X79973Y-16383D03*
X80864Y-16837D03*
G54D10*
G36*
X85713Y-20771D02*
X86279Y-20205D01*
X86845Y-20771D01*
X86279Y-21337D01*
X85713Y-20771D01*
X85713Y-20771D01*
G37*
G54D13*
X86986Y-21478D03*
X87693Y-22185D03*
X88400Y-22892D03*
X89108Y-23600D03*
X89815Y-24307D03*
X90522Y-25014D03*
X91229Y-25721D03*
G54D10*
G36*
X94625Y-30961D02*
X95338Y-30598D01*
X95701Y-31311D01*
X94988Y-31674D01*
X94625Y-30961D01*
X94625Y-30961D01*
G37*
G54D13*
X95617Y-32027D03*
X96071Y-32918D03*
X96525Y-33809D03*
X96979Y-34701D03*
X97433Y-35592D03*
X97887Y-36483D03*
X98341Y-37374D03*
G54D10*
G36*
X99951Y-43406D02*
X100742Y-43281D01*
X100867Y-44072D01*
X100076Y-44197D01*
X99951Y-43406D01*
X99951Y-43406D01*
G37*
G54D13*
X100566Y-44727D03*
X100722Y-45714D03*
X100879Y-46702D03*
X101035Y-47690D03*
X101192Y-48678D03*
X101348Y-49665D03*
X101505Y-50653D03*
G54D10*
G36*
X101172Y-56889D02*
X101963Y-57014D01*
X101838Y-57805D01*
X101047Y-57680D01*
X101172Y-56889D01*
X101172Y-56889D01*
G37*
G54D13*
X101348Y-58335D03*
X101192Y-59322D03*
X101035Y-60310D03*
X100879Y-61298D03*
X100722Y-62286D03*
X100566Y-63273D03*
X100409Y-64261D03*
M02*
