G04 (created by PCBNEW-RS274X (2010-03-14)-final) date Tue 08 Feb 2011 05:29:44 PM PST*
G01*
G70*
G90*
%MOIN*%
G04 Gerber Fmt 3.4, Leading zero omitted, Abs format*
%FSLAX34Y34*%
G04 APERTURE LIST*
%ADD10C,0.006000*%
%ADD11C,0.009000*%
G04 APERTURE END LIST*
G54D10*
G54D11*
X110500Y-68000D02*
X96474Y-68000D01*
X05500Y-68000D02*
X19526Y-68000D01*
X96472Y-68002D02*
X97546Y-64596D01*
X98319Y-61109D01*
X98786Y-57568D01*
X98942Y-54000D01*
X98786Y-50432D01*
X98319Y-46891D01*
X97546Y-43404D01*
X96472Y-39998D01*
X95106Y-36698D01*
X93456Y-33529D01*
X91537Y-30517D01*
X89363Y-27683D01*
X86950Y-25050D01*
X84317Y-22637D01*
X81483Y-20463D01*
X78471Y-18544D01*
X75302Y-16894D01*
X72002Y-15528D01*
X68596Y-14454D01*
X65109Y-13681D01*
X61568Y-13214D01*
X58000Y-13058D01*
X54432Y-13214D01*
X50891Y-13681D01*
X47404Y-14454D01*
X43998Y-15528D01*
X40698Y-16894D01*
X37529Y-18544D01*
X34517Y-20463D01*
X31683Y-22637D01*
X29050Y-25050D01*
X26637Y-27683D01*
X24463Y-30517D01*
X22544Y-33529D01*
X20894Y-36698D01*
X19528Y-39998D01*
X18454Y-43404D01*
X17681Y-46891D01*
X17214Y-50432D01*
X17058Y-54000D01*
X17214Y-57568D01*
X17681Y-61109D01*
X18454Y-64596D01*
X19528Y-68002D01*
X110500Y-08000D02*
X110500Y-68000D01*
X05500Y-08000D02*
X110500Y-08000D01*
X05500Y-68000D02*
X05500Y-08000D01*
M02*
