G04 (created by PCBNEW-RS274X (2010-03-14)-final) date Tue 08 Feb 2011 04:32:16 PM PST*
G01*
G70*
G90*
%MOIN*%
G04 Gerber Fmt 3.4, Leading zero omitted, Abs format*
%FSLAX34Y34*%
G04 APERTURE LIST*
%ADD10C,0.006000*%
%ADD11C,0.009000*%
%ADD12C,0.010000*%
G04 APERTURE END LIST*
G54D10*
G54D11*
X38500Y-39000D02*
X38500Y-56500D01*
X63500Y-39000D02*
X38500Y-39000D01*
X63500Y-56500D02*
X63500Y-39000D01*
X38500Y-56500D02*
X63500Y-56500D01*
G54D12*
X55284Y-52274D02*
X55084Y-53074D01*
X54884Y-52274D01*
X54684Y-52655D02*
X54484Y-52655D01*
X54398Y-53074D02*
X54684Y-53074D01*
X54684Y-52274D01*
X54398Y-52274D01*
X53798Y-53074D02*
X53998Y-52693D01*
X54141Y-53074D02*
X54141Y-52274D01*
X53913Y-52274D01*
X53855Y-52312D01*
X53827Y-52350D01*
X53798Y-52426D01*
X53798Y-52540D01*
X53827Y-52617D01*
X53855Y-52655D01*
X53913Y-52693D01*
X54141Y-52693D01*
X52770Y-53074D02*
X53113Y-53074D01*
X52941Y-53074D02*
X52941Y-52274D01*
X52998Y-52388D01*
X53056Y-52464D01*
X53113Y-52502D01*
X52513Y-52998D02*
X52485Y-53036D01*
X52513Y-53074D01*
X52542Y-53036D01*
X52513Y-52998D01*
X52513Y-53074D01*
X52113Y-52274D02*
X52056Y-52274D01*
X51999Y-52312D01*
X51970Y-52350D01*
X51941Y-52426D01*
X51913Y-52579D01*
X51913Y-52769D01*
X51941Y-52921D01*
X51970Y-52998D01*
X51999Y-53036D01*
X52056Y-53074D01*
X52113Y-53074D01*
X52170Y-53036D01*
X52199Y-52998D01*
X52227Y-52921D01*
X52256Y-52769D01*
X52256Y-52579D01*
X52227Y-52426D01*
X52199Y-52350D01*
X52170Y-52312D01*
X52113Y-52274D01*
X51628Y-53036D02*
X51628Y-53074D01*
X51656Y-53150D01*
X51685Y-53188D01*
X50713Y-52655D02*
X50913Y-52655D01*
X50913Y-53074D02*
X50913Y-52274D01*
X50627Y-52274D01*
X50399Y-52655D02*
X50199Y-52655D01*
X50113Y-53074D02*
X50399Y-53074D01*
X50399Y-52274D01*
X50113Y-52274D01*
X49656Y-52655D02*
X49570Y-52693D01*
X49542Y-52731D01*
X49513Y-52807D01*
X49513Y-52921D01*
X49542Y-52998D01*
X49570Y-53036D01*
X49628Y-53074D01*
X49856Y-53074D01*
X49856Y-52274D01*
X49656Y-52274D01*
X49599Y-52312D01*
X49570Y-52350D01*
X49542Y-52426D01*
X49542Y-52502D01*
X49570Y-52579D01*
X49599Y-52617D01*
X49656Y-52655D01*
X49856Y-52655D01*
X48828Y-52350D02*
X48799Y-52312D01*
X48742Y-52274D01*
X48599Y-52274D01*
X48542Y-52312D01*
X48513Y-52350D01*
X48485Y-52426D01*
X48485Y-52502D01*
X48513Y-52617D01*
X48856Y-53074D01*
X48485Y-53074D01*
X48114Y-52274D02*
X48057Y-52274D01*
X48000Y-52312D01*
X47971Y-52350D01*
X47942Y-52426D01*
X47914Y-52579D01*
X47914Y-52769D01*
X47942Y-52921D01*
X47971Y-52998D01*
X48000Y-53036D01*
X48057Y-53074D01*
X48114Y-53074D01*
X48171Y-53036D01*
X48200Y-52998D01*
X48228Y-52921D01*
X48257Y-52769D01*
X48257Y-52579D01*
X48228Y-52426D01*
X48200Y-52350D01*
X48171Y-52312D01*
X48114Y-52274D01*
X47343Y-53074D02*
X47686Y-53074D01*
X47514Y-53074D02*
X47514Y-52274D01*
X47571Y-52388D01*
X47629Y-52464D01*
X47686Y-52502D01*
X46772Y-53074D02*
X47115Y-53074D01*
X46943Y-53074D02*
X46943Y-52274D01*
X47000Y-52388D01*
X47058Y-52464D01*
X47115Y-52502D01*
X54186Y-51824D02*
X54186Y-51024D01*
X53786Y-51024D02*
X53672Y-51024D01*
X53614Y-51062D01*
X53557Y-51138D01*
X53529Y-51290D01*
X53529Y-51557D01*
X53557Y-51710D01*
X53614Y-51786D01*
X53672Y-51824D01*
X53786Y-51824D01*
X53843Y-51786D01*
X53900Y-51710D01*
X53929Y-51557D01*
X53929Y-51290D01*
X53900Y-51138D01*
X53843Y-51062D01*
X53786Y-51024D01*
X52471Y-51824D02*
X52671Y-51443D01*
X52814Y-51824D02*
X52814Y-51024D01*
X52586Y-51024D01*
X52528Y-51062D01*
X52500Y-51100D01*
X52471Y-51176D01*
X52471Y-51290D01*
X52500Y-51367D01*
X52528Y-51405D01*
X52586Y-51443D01*
X52814Y-51443D01*
X52128Y-51824D02*
X52186Y-51786D01*
X52214Y-51748D01*
X52243Y-51671D01*
X52243Y-51443D01*
X52214Y-51367D01*
X52186Y-51329D01*
X52128Y-51290D01*
X52043Y-51290D01*
X51986Y-51329D01*
X51957Y-51367D01*
X51928Y-51443D01*
X51928Y-51671D01*
X51957Y-51748D01*
X51986Y-51786D01*
X52043Y-51824D01*
X52128Y-51824D01*
X51414Y-51824D02*
X51414Y-51024D01*
X51414Y-51786D02*
X51471Y-51824D01*
X51585Y-51824D01*
X51643Y-51786D01*
X51671Y-51748D01*
X51700Y-51671D01*
X51700Y-51443D01*
X51671Y-51367D01*
X51643Y-51329D01*
X51585Y-51290D01*
X51471Y-51290D01*
X51414Y-51329D01*
X50900Y-51786D02*
X50957Y-51824D01*
X51071Y-51824D01*
X51128Y-51786D01*
X51157Y-51710D01*
X51157Y-51405D01*
X51128Y-51329D01*
X51071Y-51290D01*
X50957Y-51290D01*
X50900Y-51329D01*
X50871Y-51405D01*
X50871Y-51481D01*
X51157Y-51557D01*
X50528Y-51824D02*
X50586Y-51786D01*
X50614Y-51748D01*
X50643Y-51671D01*
X50643Y-51443D01*
X50614Y-51367D01*
X50586Y-51329D01*
X50528Y-51290D01*
X50443Y-51290D01*
X50386Y-51329D01*
X50357Y-51367D01*
X50328Y-51443D01*
X50328Y-51671D01*
X50357Y-51748D01*
X50386Y-51786D01*
X50443Y-51824D01*
X50528Y-51824D01*
X49614Y-51824D02*
X49614Y-51024D01*
X49328Y-51290D02*
X49328Y-51824D01*
X49328Y-51367D02*
X49300Y-51329D01*
X49242Y-51290D01*
X49157Y-51290D01*
X49100Y-51329D01*
X49071Y-51405D01*
X49071Y-51824D01*
X48528Y-51786D02*
X48585Y-51824D01*
X48699Y-51824D01*
X48757Y-51786D01*
X48785Y-51748D01*
X48814Y-51671D01*
X48814Y-51443D01*
X48785Y-51367D01*
X48757Y-51329D01*
X48699Y-51290D01*
X48585Y-51290D01*
X48528Y-51329D01*
X48271Y-51748D02*
X48243Y-51786D01*
X48271Y-51824D01*
X48300Y-51786D01*
X48271Y-51748D01*
X48271Y-51824D01*
X54957Y-48324D02*
X54957Y-47524D01*
X54729Y-47524D01*
X54671Y-47562D01*
X54643Y-47600D01*
X54614Y-47676D01*
X54614Y-47790D01*
X54643Y-47867D01*
X54671Y-47905D01*
X54729Y-47943D01*
X54957Y-47943D01*
X54100Y-48324D02*
X54100Y-47905D01*
X54129Y-47829D01*
X54186Y-47790D01*
X54300Y-47790D01*
X54357Y-47829D01*
X54100Y-48286D02*
X54157Y-48324D01*
X54300Y-48324D01*
X54357Y-48286D01*
X54386Y-48210D01*
X54386Y-48133D01*
X54357Y-48057D01*
X54300Y-48019D01*
X54157Y-48019D01*
X54100Y-47981D01*
X53814Y-47790D02*
X53814Y-48324D01*
X53814Y-47867D02*
X53786Y-47829D01*
X53728Y-47790D01*
X53643Y-47790D01*
X53586Y-47829D01*
X53557Y-47905D01*
X53557Y-48324D01*
X53043Y-48286D02*
X53100Y-48324D01*
X53214Y-48324D01*
X53271Y-48286D01*
X53300Y-48210D01*
X53300Y-47905D01*
X53271Y-47829D01*
X53214Y-47790D01*
X53100Y-47790D01*
X53043Y-47829D01*
X53014Y-47905D01*
X53014Y-47981D01*
X53300Y-48057D01*
X52671Y-48324D02*
X52729Y-48286D01*
X52757Y-48210D01*
X52757Y-47524D01*
X52472Y-48286D02*
X52415Y-48324D01*
X52300Y-48324D01*
X52243Y-48286D01*
X52215Y-48210D01*
X52215Y-48171D01*
X52243Y-48095D01*
X52300Y-48057D01*
X52386Y-48057D01*
X52443Y-48019D01*
X52472Y-47943D01*
X52472Y-47905D01*
X52443Y-47829D01*
X52386Y-47790D01*
X52300Y-47790D01*
X52243Y-47829D01*
X51529Y-48095D02*
X51243Y-48095D01*
X51586Y-48324D02*
X51386Y-47524D01*
X51186Y-48324D01*
X50986Y-48324D02*
X50986Y-47790D01*
X50986Y-47943D02*
X50958Y-47867D01*
X50929Y-47829D01*
X50872Y-47790D01*
X50815Y-47790D01*
X50387Y-48286D02*
X50444Y-48324D01*
X50558Y-48324D01*
X50615Y-48286D01*
X50644Y-48210D01*
X50644Y-47905D01*
X50615Y-47829D01*
X50558Y-47790D01*
X50444Y-47790D01*
X50387Y-47829D01*
X50358Y-47905D01*
X50358Y-47981D01*
X50644Y-48057D01*
X50101Y-47790D02*
X50101Y-48324D01*
X50101Y-47867D02*
X50073Y-47829D01*
X50015Y-47790D01*
X49930Y-47790D01*
X49873Y-47829D01*
X49844Y-47905D01*
X49844Y-48324D01*
X49301Y-48324D02*
X49301Y-47905D01*
X49330Y-47829D01*
X49387Y-47790D01*
X49501Y-47790D01*
X49558Y-47829D01*
X49301Y-48286D02*
X49358Y-48324D01*
X49501Y-48324D01*
X49558Y-48286D01*
X49587Y-48210D01*
X49587Y-48133D01*
X49558Y-48057D01*
X49501Y-48019D01*
X49358Y-48019D01*
X49301Y-47981D01*
X48558Y-48324D02*
X48558Y-47524D01*
X48358Y-48095D01*
X48158Y-47524D01*
X48158Y-48324D01*
X47872Y-48324D02*
X47872Y-47790D01*
X47872Y-47524D02*
X47901Y-47562D01*
X47872Y-47600D01*
X47844Y-47562D01*
X47872Y-47524D01*
X47872Y-47600D01*
X47586Y-47790D02*
X47586Y-48324D01*
X47586Y-47867D02*
X47558Y-47829D01*
X47500Y-47790D01*
X47415Y-47790D01*
X47358Y-47829D01*
X47329Y-47905D01*
X47329Y-48324D01*
X47043Y-48324D02*
X47043Y-47790D01*
X47043Y-47524D02*
X47072Y-47562D01*
X47043Y-47600D01*
X47015Y-47562D01*
X47043Y-47524D01*
X47043Y-47600D01*
M02*
