M48
;DRILL file {PCBnew (2010-03-14)-final} date Tue 08 Feb 2011 04:31:13 PM PST
;FORMAT={2:4/ absolute / inch / suppress trailing zeros}
R,T
VER,1
FMAT,2
INCH,LZ
TCST,OFF
ICI,OFF
ATC,ON
T1C0.039
T2C0.040
T3C0.043
T4C0.073
T5C0.130
T6C0.200
%
M47
G05
M72
T1
X049Y-04575
X049Y-04675
X05Y-04575
X05Y-04675
X051Y-04575
X051Y-04675
X052Y-04575
X052Y-04675
X053Y-04575
X053Y-04675
T2
X041Y-048
X041Y-05
X0475Y-054
X0485Y-054
X04884Y-0425
X04938Y-0415
X0495Y-054
X04992Y-0425
X05046Y-0415
X0505Y-054
X051Y-0425
X0515Y-054
X05154Y-0415
X05208Y-0425
X0525Y-054
X05262Y-0415
X05316Y-0425
X0535Y-054
X0545Y-054
T3
X0605Y-03975
X0605Y-04075
X0615Y-03975
X0615Y-04075
T4
X0535Y-04975
X0555Y-04975
X0575Y-04975
X0625Y-04875
X0625Y-05075
T5
X04607Y-042
X05593Y-042
T6
X041Y-044
X041Y-054
X061Y-044
X061Y-054
T0
M30
