G04 (created by PCBNEW-RS274X (2010-03-14)-final) date Tue 08 Feb 2011 04:32:16 PM PST*
G01*
G70*
G90*
%MOIN*%
G04 Gerber Fmt 3.4, Leading zero omitted, Abs format*
%FSLAX34Y34*%
G04 APERTURE LIST*
%ADD10C,0.006000*%
%ADD11C,0.009000*%
%ADD12C,0.010000*%
%ADD13C,0.008000*%
%ADD14C,0.032000*%
%ADD15C,0.015000*%
%ADD16C,0.005000*%
%ADD17C,0.006700*%
G04 APERTURE END LIST*
G54D10*
G54D11*
X38500Y-39000D02*
X38500Y-56500D01*
X63500Y-39000D02*
X38500Y-39000D01*
X63500Y-56500D02*
X63500Y-39000D01*
X38500Y-56500D02*
X63500Y-56500D01*
G54D12*
X59019Y-42371D02*
X59019Y-41914D01*
X59324Y-42143D02*
X58714Y-42143D01*
X58524Y-41342D02*
X58524Y-41628D01*
X58905Y-41657D01*
X58867Y-41628D01*
X58829Y-41571D01*
X58829Y-41428D01*
X58867Y-41371D01*
X58905Y-41342D01*
X58981Y-41314D01*
X59171Y-41314D01*
X59248Y-41342D01*
X59286Y-41371D01*
X59324Y-41428D01*
X59324Y-41571D01*
X59286Y-41628D01*
X59248Y-41657D01*
X58524Y-41143D02*
X59324Y-40943D01*
X58524Y-40743D01*
X59324Y-40543D02*
X58524Y-40543D01*
X58524Y-40400D01*
X58562Y-40315D01*
X58638Y-40257D01*
X58714Y-40229D01*
X58867Y-40200D01*
X58981Y-40200D01*
X59133Y-40229D01*
X59210Y-40257D01*
X59286Y-40315D01*
X59324Y-40400D01*
X59324Y-40543D01*
X59248Y-39600D02*
X59286Y-39629D01*
X59324Y-39715D01*
X59324Y-39772D01*
X59286Y-39857D01*
X59210Y-39915D01*
X59133Y-39943D01*
X58981Y-39972D01*
X58867Y-39972D01*
X58714Y-39943D01*
X58638Y-39915D01*
X58562Y-39857D01*
X58524Y-39772D01*
X58524Y-39715D01*
X58562Y-39629D01*
X58600Y-39600D01*
X62562Y-41207D02*
X62524Y-41264D01*
X62524Y-41350D01*
X62562Y-41435D01*
X62638Y-41493D01*
X62714Y-41521D01*
X62867Y-41550D01*
X62981Y-41550D01*
X63133Y-41521D01*
X63210Y-41493D01*
X63286Y-41435D01*
X63324Y-41350D01*
X63324Y-41293D01*
X63286Y-41207D01*
X63248Y-41178D01*
X62981Y-41178D01*
X62981Y-41293D01*
X63324Y-40921D02*
X62524Y-40921D01*
X63324Y-40578D01*
X62524Y-40578D01*
X63324Y-40292D02*
X62524Y-40292D01*
X62524Y-40149D01*
X62562Y-40064D01*
X62638Y-40006D01*
X62714Y-39978D01*
X62867Y-39949D01*
X62981Y-39949D01*
X63133Y-39978D01*
X63210Y-40006D01*
X63286Y-40064D01*
X63324Y-40149D01*
X63324Y-40292D01*
G54D13*
X47200Y-37800D02*
X47100Y-37800D01*
X47100Y-37800D02*
X47100Y-38750D01*
X47200Y-38750D02*
X47100Y-38750D01*
X47200Y-37800D02*
X47200Y-38750D01*
X54900Y-37800D02*
X54800Y-37800D01*
X54800Y-37800D02*
X54800Y-38750D01*
X54900Y-38750D02*
X54800Y-38750D01*
X54900Y-37800D02*
X54900Y-38750D01*
X46270Y-39000D02*
X45870Y-39000D01*
X45870Y-39000D02*
X45870Y-39650D01*
X46270Y-39650D02*
X45870Y-39650D01*
X46270Y-39000D02*
X46270Y-39650D01*
X56130Y-39000D02*
X55730Y-39000D01*
X55730Y-39000D02*
X55730Y-39650D01*
X56130Y-39650D02*
X55730Y-39650D01*
X56130Y-39000D02*
X56130Y-39650D01*
X54650Y-39000D02*
X47350Y-39000D01*
X47350Y-39000D02*
X47350Y-39300D01*
X54650Y-39300D02*
X47350Y-39300D01*
X54650Y-39000D02*
X54650Y-39300D01*
X57100Y-37400D02*
X44900Y-37400D01*
X44900Y-37400D02*
X44900Y-37600D01*
X57100Y-37600D02*
X44900Y-37600D01*
X57100Y-37400D02*
X57100Y-37600D01*
X53320Y-39300D02*
X53000Y-39300D01*
X53000Y-39300D02*
X53000Y-42150D01*
X53320Y-42150D02*
X53000Y-42150D01*
X53320Y-39300D02*
X53320Y-42150D01*
X52780Y-39300D02*
X52460Y-39300D01*
X52460Y-39300D02*
X52460Y-41150D01*
X52780Y-41150D02*
X52460Y-41150D01*
X52780Y-39300D02*
X52780Y-41150D01*
X52240Y-39300D02*
X51920Y-39300D01*
X51920Y-39300D02*
X51920Y-42150D01*
X52240Y-42150D02*
X51920Y-42150D01*
X52240Y-39300D02*
X52240Y-42150D01*
X51700Y-39300D02*
X51380Y-39300D01*
X51380Y-39300D02*
X51380Y-41150D01*
X51700Y-41150D02*
X51380Y-41150D01*
X51700Y-39300D02*
X51700Y-41150D01*
X51160Y-39300D02*
X50840Y-39300D01*
X50840Y-39300D02*
X50840Y-42150D01*
X51160Y-42150D02*
X50840Y-42150D01*
X51160Y-39300D02*
X51160Y-42150D01*
X50620Y-39300D02*
X50300Y-39300D01*
X50300Y-39300D02*
X50300Y-41150D01*
X50620Y-41150D02*
X50300Y-41150D01*
X50620Y-39300D02*
X50620Y-41150D01*
X50080Y-39300D02*
X49760Y-39300D01*
X49760Y-39300D02*
X49760Y-42150D01*
X50080Y-42150D02*
X49760Y-42150D01*
X50080Y-39300D02*
X50080Y-42150D01*
X49540Y-39300D02*
X49220Y-39300D01*
X49220Y-39300D02*
X49220Y-41150D01*
X49540Y-41150D02*
X49220Y-41150D01*
X49540Y-39300D02*
X49540Y-41150D01*
X49000Y-39300D02*
X48680Y-39300D01*
X48680Y-39300D02*
X48680Y-42150D01*
X49000Y-42150D02*
X48680Y-42150D01*
X49000Y-39300D02*
X49000Y-42150D01*
G54D10*
X47750Y-35101D02*
X47850Y-35101D01*
X47700Y-37400D02*
X47700Y-35300D01*
X47700Y-37400D02*
X54300Y-37400D01*
X54300Y-37400D02*
X54300Y-35300D01*
X44900Y-39000D02*
X46900Y-39000D01*
X44900Y-39000D02*
X44900Y-37800D01*
X44900Y-39000D02*
X44900Y-39050D01*
X44900Y-37800D02*
X45900Y-37800D01*
X44900Y-37800D02*
X44900Y-37600D01*
X44900Y-37600D02*
X44900Y-37400D01*
X57100Y-37400D02*
X57100Y-37600D01*
X57100Y-37600D02*
X57100Y-37800D01*
X57100Y-37800D02*
X57100Y-39000D01*
X57100Y-39000D02*
X57100Y-39050D01*
X45900Y-37900D02*
X46900Y-37900D01*
X44900Y-37600D02*
X45900Y-37600D01*
X45900Y-37600D02*
X46900Y-37600D01*
X45900Y-37800D02*
X45900Y-37600D01*
X45900Y-37800D02*
X45900Y-37900D01*
X46900Y-37900D02*
X46900Y-37800D01*
X46900Y-37800D02*
X46900Y-37600D01*
X44900Y-39050D02*
X46900Y-39050D01*
X46900Y-39050D02*
X46900Y-39000D01*
X46900Y-37800D02*
X46950Y-37800D01*
X46950Y-37800D02*
X55050Y-37800D01*
X46900Y-39000D02*
X47250Y-39000D01*
X47250Y-39000D02*
X47350Y-39000D01*
X46950Y-38750D02*
X46950Y-37800D01*
X47350Y-39000D02*
X47350Y-39300D01*
X47350Y-39000D02*
X54650Y-39000D01*
X47350Y-39300D02*
X54650Y-39300D01*
X54650Y-39000D02*
X54650Y-39300D01*
X54650Y-39000D02*
X54750Y-39000D01*
X54750Y-39000D02*
X54800Y-39000D01*
X54800Y-39000D02*
X55100Y-39000D01*
X55100Y-39050D02*
X57100Y-39050D01*
X56100Y-37800D02*
X56100Y-37600D01*
X56100Y-37800D02*
X57100Y-37800D01*
X56100Y-37600D02*
X57100Y-37600D01*
X55100Y-37900D02*
X56100Y-37900D01*
X56100Y-37800D02*
X56100Y-37900D01*
X46900Y-37600D02*
X55100Y-37600D01*
X55100Y-37600D02*
X56100Y-37600D01*
X55100Y-37900D02*
X55100Y-37800D01*
X55100Y-37800D02*
X55100Y-37600D01*
X55050Y-38750D02*
X55050Y-37800D01*
X55050Y-37800D02*
X55100Y-37800D01*
X45150Y-43250D02*
X44900Y-43000D01*
X44900Y-43000D02*
X44900Y-39050D01*
X47050Y-43250D02*
X45150Y-43250D01*
X47050Y-43250D02*
X47250Y-43050D01*
X47250Y-43050D02*
X47250Y-39000D01*
X54750Y-43050D02*
X54750Y-39000D01*
X54750Y-43050D02*
X54950Y-43250D01*
X54950Y-43250D02*
X56900Y-43250D01*
X56900Y-43250D02*
X57100Y-43050D01*
X57100Y-43050D02*
X57100Y-39050D01*
X53000Y-36500D02*
X52100Y-36500D01*
X52100Y-36500D02*
X52100Y-35600D01*
X52100Y-35600D02*
X52250Y-35600D01*
X52250Y-35600D02*
X52250Y-36351D01*
X52250Y-36351D02*
X52850Y-36351D01*
X52850Y-36351D02*
X52850Y-35600D01*
X52850Y-35600D02*
X53000Y-35600D01*
X53000Y-35600D02*
X53000Y-36500D01*
X51450Y-36500D02*
X50550Y-36500D01*
X50550Y-36500D02*
X50550Y-35600D01*
X50550Y-35600D02*
X50700Y-35600D01*
X50700Y-35600D02*
X50700Y-36351D01*
X50700Y-36351D02*
X51300Y-36351D01*
X51300Y-36351D02*
X51300Y-35600D01*
X51300Y-35600D02*
X51450Y-35600D01*
X51450Y-35600D02*
X51450Y-36500D01*
X49900Y-36500D02*
X49000Y-36500D01*
X49000Y-36500D02*
X49000Y-35600D01*
X49000Y-35600D02*
X49150Y-35600D01*
X49150Y-35600D02*
X49150Y-36351D01*
X49150Y-36351D02*
X49750Y-36351D01*
X49750Y-36351D02*
X49750Y-35600D01*
X49750Y-35600D02*
X49900Y-35600D01*
X49900Y-35600D02*
X49900Y-36500D01*
X55100Y-39050D02*
X55100Y-39000D01*
X55100Y-39000D02*
X57100Y-39000D01*
X54300Y-37400D02*
X54700Y-37400D01*
X54700Y-37400D02*
X57100Y-37400D01*
X54449Y-37150D02*
X54449Y-35300D01*
X44900Y-37400D02*
X47300Y-37400D01*
X47300Y-37400D02*
X47700Y-37400D01*
X47551Y-37150D02*
X47551Y-35300D01*
X54150Y-37200D02*
X54150Y-35101D01*
X54150Y-35101D02*
X54250Y-35101D01*
X47850Y-37200D02*
X47850Y-35101D01*
X47850Y-35101D02*
X54150Y-35101D01*
G54D14*
X51000Y-42450D02*
X51000Y-42050D01*
X49920Y-42450D02*
X49920Y-42050D01*
X48840Y-42450D02*
X48840Y-42050D01*
X49380Y-41450D02*
X49380Y-41050D01*
X50460Y-41450D02*
X50460Y-41050D01*
X51540Y-41450D02*
X51540Y-41050D01*
X52080Y-42450D02*
X52080Y-42050D01*
X52620Y-41450D02*
X52620Y-41050D01*
X53160Y-42450D02*
X53160Y-42050D01*
G54D10*
X46529Y-42000D02*
X46520Y-42089D01*
X46494Y-42174D01*
X46452Y-42254D01*
X46395Y-42323D01*
X46326Y-42380D01*
X46247Y-42423D01*
X46162Y-42449D01*
X46073Y-42458D01*
X45984Y-42450D01*
X45899Y-42425D01*
X45819Y-42384D01*
X45749Y-42327D01*
X45692Y-42259D01*
X45649Y-42180D01*
X45622Y-42095D01*
X45612Y-42006D01*
X45619Y-41918D01*
X45644Y-41832D01*
X45685Y-41752D01*
X45740Y-41682D01*
X45809Y-41624D01*
X45887Y-41580D01*
X45972Y-41552D01*
X46061Y-41542D01*
X46149Y-41548D01*
X46235Y-41573D01*
X46315Y-41613D01*
X46386Y-41668D01*
X46445Y-41736D01*
X46489Y-41814D01*
X46517Y-41899D01*
X46528Y-41988D01*
X46529Y-42000D01*
X56389Y-42000D02*
X56380Y-42089D01*
X56354Y-42174D01*
X56312Y-42254D01*
X56255Y-42323D01*
X56186Y-42380D01*
X56107Y-42423D01*
X56022Y-42449D01*
X55933Y-42458D01*
X55844Y-42450D01*
X55759Y-42425D01*
X55679Y-42384D01*
X55609Y-42327D01*
X55552Y-42259D01*
X55509Y-42180D01*
X55482Y-42095D01*
X55472Y-42006D01*
X55479Y-41918D01*
X55504Y-41832D01*
X55545Y-41752D01*
X55600Y-41682D01*
X55669Y-41624D01*
X55747Y-41580D01*
X55832Y-41552D01*
X55921Y-41542D01*
X56009Y-41548D01*
X56095Y-41573D01*
X56175Y-41613D01*
X56246Y-41668D01*
X56305Y-41736D01*
X56349Y-41814D01*
X56377Y-41899D01*
X56388Y-41988D01*
X56389Y-42000D01*
X47750Y-35101D02*
X47733Y-35102D01*
X47716Y-35105D01*
X47699Y-35108D01*
X47682Y-35114D01*
X47666Y-35120D01*
X47651Y-35128D01*
X47636Y-35137D01*
X47623Y-35148D01*
X47610Y-35160D01*
X47598Y-35173D01*
X47587Y-35186D01*
X47578Y-35201D01*
X47570Y-35216D01*
X47564Y-35232D01*
X47558Y-35249D01*
X47555Y-35266D01*
X47552Y-35283D01*
X47551Y-35300D01*
X47552Y-35317D01*
X47555Y-35334D01*
X47558Y-35351D01*
X47564Y-35368D01*
X47570Y-35384D01*
X47578Y-35399D01*
X47587Y-35414D01*
X47598Y-35427D01*
X47610Y-35440D01*
X47623Y-35452D01*
X47636Y-35463D01*
X47651Y-35472D01*
X47666Y-35480D01*
X47682Y-35486D01*
X47699Y-35492D01*
X47716Y-35495D01*
X47733Y-35498D01*
X47750Y-35499D01*
X47767Y-35498D01*
X47784Y-35495D01*
X47801Y-35492D01*
X47818Y-35486D01*
X47834Y-35480D01*
X47849Y-35472D01*
X47864Y-35463D01*
X47877Y-35452D01*
X47890Y-35440D01*
X47902Y-35427D01*
X47913Y-35414D01*
X47922Y-35399D01*
X47930Y-35384D01*
X47936Y-35368D01*
X47942Y-35351D01*
X47945Y-35334D01*
X47948Y-35317D01*
X47949Y-35300D01*
X47948Y-35283D01*
X47945Y-35266D01*
X47942Y-35249D01*
X47936Y-35232D01*
X47930Y-35216D01*
X47922Y-35201D01*
X47913Y-35186D01*
X47902Y-35173D01*
X47890Y-35160D01*
X47877Y-35148D01*
X47864Y-35137D01*
X47849Y-35128D01*
X47834Y-35120D01*
X47818Y-35114D01*
X47801Y-35108D01*
X47784Y-35105D01*
X47767Y-35102D01*
X47750Y-35101D01*
X47733Y-35102D01*
X47716Y-35105D01*
X47699Y-35108D01*
X47682Y-35114D01*
X47666Y-35120D01*
X47651Y-35128D01*
X47636Y-35137D01*
X47623Y-35148D01*
X47610Y-35160D01*
X47598Y-35173D01*
X47587Y-35186D01*
X47578Y-35201D01*
X47570Y-35216D01*
X47564Y-35232D01*
X47558Y-35249D01*
X47555Y-35266D01*
X47552Y-35283D01*
X47551Y-35300D01*
X54449Y-35300D02*
X54448Y-35283D01*
X54445Y-35266D01*
X54442Y-35249D01*
X54436Y-35232D01*
X54430Y-35216D01*
X54422Y-35201D01*
X54413Y-35186D01*
X54402Y-35173D01*
X54390Y-35160D01*
X54377Y-35148D01*
X54364Y-35137D01*
X54349Y-35128D01*
X54334Y-35120D01*
X54318Y-35114D01*
X54301Y-35108D01*
X54284Y-35105D01*
X54267Y-35102D01*
X54250Y-35101D01*
X54233Y-35102D01*
X54216Y-35105D01*
X54199Y-35108D01*
X54182Y-35114D01*
X54166Y-35120D01*
X54151Y-35128D01*
X54136Y-35137D01*
X54123Y-35148D01*
X54110Y-35160D01*
X54098Y-35173D01*
X54087Y-35186D01*
X54078Y-35201D01*
X54070Y-35216D01*
X54064Y-35232D01*
X54058Y-35249D01*
X54055Y-35266D01*
X54052Y-35283D01*
X54051Y-35300D01*
X54052Y-35317D01*
X54055Y-35334D01*
X54058Y-35351D01*
X54064Y-35368D01*
X54070Y-35384D01*
X54078Y-35399D01*
X54087Y-35414D01*
X54098Y-35427D01*
X54110Y-35440D01*
X54123Y-35452D01*
X54136Y-35463D01*
X54151Y-35472D01*
X54166Y-35480D01*
X54182Y-35486D01*
X54199Y-35492D01*
X54216Y-35495D01*
X54233Y-35498D01*
X54250Y-35499D01*
X54267Y-35498D01*
X54284Y-35495D01*
X54301Y-35492D01*
X54318Y-35486D01*
X54334Y-35480D01*
X54349Y-35472D01*
X54364Y-35463D01*
X54377Y-35452D01*
X54390Y-35440D01*
X54402Y-35427D01*
X54413Y-35414D01*
X54422Y-35399D01*
X54430Y-35384D01*
X54436Y-35368D01*
X54442Y-35351D01*
X54445Y-35334D01*
X54448Y-35317D01*
X54449Y-35300D01*
X54448Y-35283D01*
X54445Y-35266D01*
X54442Y-35249D01*
X54436Y-35232D01*
X54430Y-35216D01*
X54422Y-35201D01*
X54413Y-35186D01*
X54402Y-35173D01*
X54390Y-35160D01*
X54377Y-35148D01*
X54364Y-35137D01*
X54349Y-35128D01*
X54334Y-35120D01*
X54318Y-35114D01*
X54301Y-35108D01*
X54284Y-35105D01*
X54267Y-35102D01*
X54250Y-35101D01*
X46950Y-38750D02*
X46951Y-38771D01*
X46954Y-38793D01*
X46959Y-38814D01*
X46966Y-38835D01*
X46974Y-38855D01*
X46984Y-38874D01*
X46996Y-38893D01*
X47009Y-38910D01*
X47024Y-38926D01*
X47040Y-38941D01*
X47057Y-38954D01*
X47076Y-38966D01*
X47095Y-38976D01*
X47115Y-38984D01*
X47136Y-38991D01*
X47157Y-38996D01*
X47179Y-38999D01*
X47200Y-39000D01*
X47221Y-38999D01*
X47243Y-38996D01*
X47264Y-38991D01*
X47285Y-38984D01*
X47305Y-38976D01*
X47324Y-38966D01*
X47343Y-38954D01*
X47360Y-38941D01*
X47376Y-38926D01*
X47391Y-38910D01*
X47404Y-38893D01*
X47416Y-38874D01*
X47426Y-38855D01*
X47434Y-38835D01*
X47441Y-38814D01*
X47446Y-38793D01*
X47449Y-38771D01*
X47450Y-38750D01*
X47449Y-38729D01*
X47446Y-38707D01*
X47441Y-38686D01*
X47434Y-38665D01*
X47426Y-38645D01*
X47416Y-38625D01*
X47404Y-38607D01*
X47391Y-38590D01*
X47376Y-38574D01*
X47360Y-38559D01*
X47343Y-38546D01*
X47325Y-38534D01*
X47305Y-38524D01*
X47285Y-38516D01*
X47264Y-38509D01*
X47243Y-38504D01*
X47221Y-38501D01*
X47200Y-38500D01*
X47179Y-38501D01*
X47157Y-38504D01*
X47136Y-38509D01*
X47115Y-38516D01*
X47095Y-38524D01*
X47075Y-38534D01*
X47057Y-38546D01*
X47040Y-38559D01*
X47024Y-38574D01*
X47009Y-38590D01*
X46996Y-38607D01*
X46984Y-38625D01*
X46974Y-38645D01*
X46966Y-38665D01*
X46959Y-38686D01*
X46954Y-38707D01*
X46951Y-38729D01*
X46950Y-38750D01*
X46951Y-38771D01*
X46954Y-38793D01*
X46959Y-38814D01*
X46966Y-38835D01*
X46974Y-38855D01*
X46984Y-38874D01*
X46996Y-38893D01*
X47009Y-38910D01*
X47024Y-38926D01*
X47040Y-38941D01*
X47057Y-38954D01*
X47076Y-38966D01*
X47095Y-38976D01*
X47115Y-38984D01*
X47136Y-38991D01*
X47157Y-38996D01*
X47179Y-38999D01*
X47200Y-39000D01*
X54800Y-39000D02*
X54821Y-38999D01*
X54843Y-38996D01*
X54864Y-38991D01*
X54885Y-38984D01*
X54905Y-38976D01*
X54924Y-38966D01*
X54943Y-38954D01*
X54960Y-38941D01*
X54976Y-38926D01*
X54991Y-38910D01*
X55004Y-38893D01*
X55016Y-38874D01*
X55026Y-38855D01*
X55034Y-38835D01*
X55041Y-38814D01*
X55046Y-38793D01*
X55049Y-38771D01*
X55050Y-38750D01*
X55049Y-38729D01*
X55046Y-38707D01*
X55041Y-38686D01*
X55034Y-38665D01*
X55026Y-38645D01*
X55016Y-38625D01*
X55004Y-38607D01*
X54991Y-38590D01*
X54976Y-38574D01*
X54960Y-38559D01*
X54943Y-38546D01*
X54925Y-38534D01*
X54905Y-38524D01*
X54885Y-38516D01*
X54864Y-38509D01*
X54843Y-38504D01*
X54821Y-38501D01*
X54800Y-38500D01*
X54779Y-38501D01*
X54757Y-38504D01*
X54736Y-38509D01*
X54715Y-38516D01*
X54695Y-38524D01*
X54675Y-38534D01*
X54657Y-38546D01*
X54640Y-38559D01*
X54624Y-38574D01*
X54609Y-38590D01*
X54596Y-38607D01*
X54584Y-38625D01*
X54574Y-38645D01*
X54566Y-38665D01*
X54559Y-38686D01*
X54554Y-38707D01*
X54551Y-38729D01*
X54550Y-38750D01*
X54551Y-38771D01*
X54554Y-38793D01*
X54559Y-38814D01*
X54566Y-38835D01*
X54574Y-38855D01*
X54584Y-38874D01*
X54596Y-38893D01*
X54609Y-38910D01*
X54624Y-38926D01*
X54640Y-38941D01*
X54657Y-38954D01*
X54676Y-38966D01*
X54695Y-38976D01*
X54715Y-38984D01*
X54736Y-38991D01*
X54757Y-38996D01*
X54779Y-38999D01*
X54800Y-39000D01*
X54821Y-38999D01*
X54843Y-38996D01*
X54864Y-38991D01*
X54885Y-38984D01*
X54905Y-38976D01*
X54925Y-38966D01*
X54943Y-38954D01*
X54960Y-38941D01*
X54976Y-38926D01*
X54991Y-38910D01*
X55004Y-38893D01*
X55016Y-38874D01*
X55026Y-38855D01*
X55034Y-38835D01*
X55041Y-38814D01*
X55046Y-38793D01*
X55049Y-38771D01*
X55050Y-38750D01*
X54450Y-37150D02*
X54451Y-37171D01*
X54454Y-37193D01*
X54459Y-37214D01*
X54466Y-37235D01*
X54474Y-37255D01*
X54484Y-37274D01*
X54496Y-37293D01*
X54509Y-37310D01*
X54524Y-37326D01*
X54540Y-37341D01*
X54557Y-37354D01*
X54576Y-37366D01*
X54595Y-37376D01*
X54615Y-37384D01*
X54636Y-37391D01*
X54657Y-37396D01*
X54679Y-37399D01*
X54700Y-37400D01*
X54721Y-37399D01*
X54743Y-37396D01*
X54764Y-37391D01*
X54785Y-37384D01*
X54805Y-37376D01*
X54824Y-37366D01*
X54843Y-37354D01*
X54860Y-37341D01*
X54876Y-37326D01*
X54891Y-37310D01*
X54904Y-37293D01*
X54916Y-37274D01*
X54926Y-37255D01*
X54934Y-37235D01*
X54941Y-37214D01*
X54946Y-37193D01*
X54949Y-37171D01*
X54950Y-37150D01*
X54949Y-37129D01*
X54946Y-37107D01*
X54941Y-37086D01*
X54934Y-37065D01*
X54926Y-37045D01*
X54916Y-37025D01*
X54904Y-37007D01*
X54891Y-36990D01*
X54876Y-36974D01*
X54860Y-36959D01*
X54843Y-36946D01*
X54825Y-36934D01*
X54805Y-36924D01*
X54785Y-36916D01*
X54764Y-36909D01*
X54743Y-36904D01*
X54721Y-36901D01*
X54700Y-36900D01*
X54679Y-36901D01*
X54657Y-36904D01*
X54636Y-36909D01*
X54615Y-36916D01*
X54595Y-36924D01*
X54575Y-36934D01*
X54557Y-36946D01*
X54540Y-36959D01*
X54524Y-36974D01*
X54509Y-36990D01*
X54496Y-37007D01*
X54484Y-37025D01*
X54474Y-37045D01*
X54466Y-37065D01*
X54459Y-37086D01*
X54454Y-37107D01*
X54451Y-37129D01*
X54450Y-37150D01*
X54451Y-37171D01*
X54454Y-37193D01*
X54459Y-37214D01*
X54466Y-37235D01*
X54474Y-37255D01*
X54484Y-37274D01*
X54496Y-37293D01*
X54509Y-37310D01*
X54524Y-37326D01*
X54540Y-37341D01*
X54557Y-37354D01*
X54576Y-37366D01*
X54595Y-37376D01*
X54615Y-37384D01*
X54636Y-37391D01*
X54657Y-37396D01*
X54679Y-37399D01*
X54700Y-37400D01*
X47300Y-37401D02*
X47321Y-37400D01*
X47343Y-37397D01*
X47364Y-37392D01*
X47385Y-37385D01*
X47406Y-37377D01*
X47425Y-37367D01*
X47443Y-37355D01*
X47461Y-37342D01*
X47477Y-37327D01*
X47492Y-37311D01*
X47505Y-37293D01*
X47517Y-37275D01*
X47527Y-37256D01*
X47535Y-37235D01*
X47542Y-37214D01*
X47547Y-37193D01*
X47550Y-37171D01*
X47551Y-37150D01*
X47550Y-37129D01*
X47547Y-37107D01*
X47542Y-37086D01*
X47535Y-37065D01*
X47527Y-37044D01*
X47517Y-37025D01*
X47505Y-37007D01*
X47492Y-36989D01*
X47477Y-36973D01*
X47461Y-36958D01*
X47443Y-36945D01*
X47425Y-36933D01*
X47406Y-36923D01*
X47385Y-36915D01*
X47364Y-36908D01*
X47343Y-36903D01*
X47321Y-36900D01*
X47300Y-36899D01*
X47279Y-36900D01*
X47257Y-36903D01*
X47236Y-36908D01*
X47215Y-36915D01*
X47194Y-36923D01*
X47175Y-36933D01*
X47157Y-36945D01*
X47139Y-36958D01*
X47123Y-36973D01*
X47108Y-36989D01*
X47095Y-37007D01*
X47083Y-37025D01*
X47073Y-37044D01*
X47065Y-37065D01*
X47058Y-37086D01*
X47053Y-37107D01*
X47050Y-37129D01*
X47049Y-37150D01*
X47050Y-37171D01*
X47053Y-37193D01*
X47058Y-37214D01*
X47065Y-37235D01*
X47073Y-37256D01*
X47083Y-37275D01*
X47095Y-37293D01*
X47108Y-37311D01*
X47123Y-37327D01*
X47139Y-37342D01*
X47157Y-37355D01*
X47175Y-37367D01*
X47194Y-37377D01*
X47215Y-37385D01*
X47236Y-37392D01*
X47257Y-37397D01*
X47279Y-37400D01*
X47300Y-37401D01*
X47321Y-37400D01*
X47343Y-37397D01*
X47364Y-37392D01*
X47385Y-37385D01*
X47406Y-37377D01*
X47425Y-37367D01*
X47443Y-37355D01*
X47461Y-37342D01*
X47477Y-37327D01*
X47492Y-37311D01*
X47505Y-37293D01*
X47517Y-37275D01*
X47527Y-37256D01*
X47535Y-37235D01*
X47542Y-37214D01*
X47547Y-37193D01*
X47550Y-37171D01*
X47551Y-37150D01*
G54D13*
X57300Y-50000D02*
X57300Y-49500D01*
X57300Y-49500D02*
X57000Y-49500D01*
X57000Y-50000D02*
X57000Y-49500D01*
X57300Y-50000D02*
X57000Y-50000D01*
X56000Y-50000D02*
X56000Y-49500D01*
X56000Y-49500D02*
X55000Y-49500D01*
X55000Y-50000D02*
X55000Y-49500D01*
X56000Y-50000D02*
X55000Y-50000D01*
X54000Y-50000D02*
X54000Y-49500D01*
X54000Y-49500D02*
X53000Y-49500D01*
X53000Y-50000D02*
X53000Y-49500D01*
X54000Y-50000D02*
X53000Y-50000D01*
X57000Y-50000D02*
X57000Y-49500D01*
X57000Y-49500D02*
X56000Y-49500D01*
X56000Y-50000D02*
X56000Y-49500D01*
X57000Y-50000D02*
X56000Y-50000D01*
X55000Y-50000D02*
X55000Y-49500D01*
X55000Y-49500D02*
X54000Y-49500D01*
X54000Y-50000D02*
X54000Y-49500D01*
X55000Y-50000D02*
X54000Y-50000D01*
X54000Y-50000D02*
X54000Y-49500D01*
X54000Y-49500D02*
X53350Y-49500D01*
X53350Y-50000D02*
X53350Y-49500D01*
X54000Y-50000D02*
X53350Y-50000D01*
X62500Y-48400D02*
X62500Y-48150D01*
X62500Y-48150D02*
X62050Y-48150D01*
X62050Y-48400D02*
X62050Y-48150D01*
X62500Y-48400D02*
X62050Y-48400D01*
X62050Y-48400D02*
X62050Y-48150D01*
X62050Y-48150D02*
X59500Y-48150D01*
X59500Y-48400D02*
X59500Y-48150D01*
X62050Y-48400D02*
X59500Y-48400D01*
X62500Y-50150D02*
X62500Y-49350D01*
X62500Y-49350D02*
X61000Y-49350D01*
X61000Y-50150D02*
X61000Y-49350D01*
X62500Y-50150D02*
X61000Y-50150D01*
X62500Y-50250D02*
X62500Y-50150D01*
X62500Y-50150D02*
X61000Y-50150D01*
X61000Y-50250D02*
X61000Y-50150D01*
X62500Y-50250D02*
X61000Y-50250D01*
X62500Y-49350D02*
X62500Y-49250D01*
X62500Y-49250D02*
X61000Y-49250D01*
X61000Y-49350D02*
X61000Y-49250D01*
X62500Y-49350D02*
X61000Y-49350D01*
X62500Y-51350D02*
X62500Y-51100D01*
X62500Y-51100D02*
X62050Y-51100D01*
X62050Y-51350D02*
X62050Y-51100D01*
X62500Y-51350D02*
X62050Y-51350D01*
X62050Y-51350D02*
X62050Y-51100D01*
X62050Y-51100D02*
X59500Y-51100D01*
X59500Y-51350D02*
X59500Y-51100D01*
X62050Y-51350D02*
X59500Y-51350D01*
G54D10*
X62500Y-51350D02*
X58300Y-51350D01*
X62500Y-51350D02*
X62500Y-51200D01*
X62500Y-51200D02*
X62600Y-51200D01*
X62600Y-48300D02*
X62600Y-48400D01*
X62600Y-48300D02*
X62500Y-48300D01*
X62500Y-48300D02*
X62500Y-48150D01*
X62600Y-51100D02*
X62850Y-51100D01*
X62600Y-51100D02*
X62600Y-51200D01*
X62850Y-48400D02*
X62850Y-48750D01*
X62850Y-48400D02*
X62600Y-48400D01*
X65300Y-48750D02*
X65300Y-49650D01*
X65300Y-50750D02*
X65450Y-50600D01*
X65450Y-50600D02*
X65450Y-50100D01*
X65300Y-48750D02*
X65450Y-48900D01*
X65300Y-49650D02*
X62850Y-49650D01*
X65300Y-49650D02*
X65300Y-49850D01*
X62850Y-49650D02*
X62850Y-49850D01*
X65300Y-49850D02*
X62850Y-49850D01*
X65300Y-49850D02*
X65300Y-50750D01*
X65450Y-50100D02*
X67500Y-50250D01*
X67500Y-49250D02*
X65450Y-49400D01*
X65450Y-49400D02*
X65450Y-48900D01*
X65450Y-50100D02*
X65450Y-49400D01*
X58250Y-48200D02*
X58250Y-48750D01*
X58300Y-48750D02*
X58250Y-48750D01*
X58300Y-50750D02*
X58250Y-50750D01*
X58250Y-48200D02*
X58300Y-48150D01*
X58300Y-48150D02*
X62500Y-48150D01*
X58300Y-51350D02*
X58250Y-51300D01*
X58250Y-51300D02*
X58250Y-50750D01*
X58300Y-50750D02*
X58300Y-48750D01*
X62850Y-48750D02*
X63050Y-48750D01*
X63050Y-48750D02*
X65300Y-48750D01*
X62850Y-48750D02*
X62850Y-49200D01*
X62850Y-49200D02*
X62850Y-49650D01*
X62600Y-48400D02*
X62600Y-49300D01*
X62500Y-48300D02*
X62500Y-49300D01*
X62500Y-50150D02*
X62500Y-49300D01*
X62500Y-50150D02*
X62500Y-51200D01*
X62600Y-50200D02*
X62600Y-49300D01*
X62600Y-50200D02*
X62600Y-51100D01*
X62850Y-50300D02*
X62850Y-49850D01*
X62850Y-50300D02*
X62850Y-50750D01*
X62850Y-50750D02*
X62850Y-51100D01*
X62850Y-50750D02*
X63050Y-50750D01*
X63050Y-50750D02*
X65300Y-50750D01*
X67500Y-50250D02*
X67543Y-50248D01*
X67586Y-50242D01*
X67629Y-50232D01*
X67671Y-50219D01*
X67711Y-50203D01*
X67749Y-50183D01*
X67786Y-50159D01*
X67821Y-50133D01*
X67853Y-50103D01*
X67883Y-50071D01*
X67909Y-50036D01*
X67933Y-49999D01*
X67953Y-49961D01*
X67969Y-49921D01*
X67982Y-49879D01*
X67992Y-49836D01*
X67998Y-49793D01*
X68000Y-49750D01*
X67998Y-49707D01*
X67992Y-49664D01*
X67982Y-49621D01*
X67969Y-49579D01*
X67953Y-49539D01*
X67933Y-49500D01*
X67909Y-49464D01*
X67883Y-49429D01*
X67853Y-49397D01*
X67821Y-49367D01*
X67786Y-49341D01*
X67750Y-49317D01*
X67711Y-49297D01*
X67671Y-49281D01*
X67629Y-49268D01*
X67586Y-49258D01*
X67543Y-49252D01*
X67500Y-49250D01*
X67457Y-49252D01*
X67414Y-49258D01*
X67371Y-49268D01*
X67329Y-49281D01*
X67289Y-49297D01*
X67250Y-49317D01*
X67214Y-49341D01*
X67179Y-49367D01*
X67147Y-49397D01*
X67117Y-49429D01*
X67091Y-49464D01*
X67067Y-49500D01*
X67047Y-49539D01*
X67031Y-49579D01*
X67018Y-49621D01*
X67008Y-49664D01*
X67002Y-49707D01*
X67000Y-49750D01*
X67002Y-49793D01*
X67008Y-49836D01*
X67018Y-49879D01*
X67031Y-49921D01*
X67047Y-49961D01*
X67067Y-49999D01*
X67091Y-50036D01*
X67117Y-50071D01*
X67147Y-50103D01*
X67179Y-50133D01*
X67214Y-50159D01*
X67251Y-50183D01*
X67289Y-50203D01*
X67329Y-50219D01*
X67371Y-50232D01*
X67414Y-50242D01*
X67457Y-50248D01*
X67500Y-50250D01*
X67543Y-50248D01*
X67586Y-50242D01*
X67629Y-50232D01*
X67671Y-50219D01*
X67711Y-50203D01*
X67750Y-50183D01*
X67786Y-50159D01*
X67821Y-50133D01*
X67853Y-50103D01*
X67883Y-50071D01*
X67909Y-50036D01*
X67933Y-49999D01*
X67953Y-49961D01*
X67969Y-49921D01*
X67982Y-49879D01*
X67992Y-49836D01*
X67998Y-49793D01*
X68000Y-49750D01*
X67998Y-49707D01*
X67992Y-49664D01*
X67982Y-49621D01*
X67969Y-49579D01*
X67953Y-49539D01*
X67933Y-49501D01*
X67909Y-49464D01*
X67883Y-49429D01*
X67853Y-49397D01*
X67821Y-49367D01*
X67786Y-49341D01*
X67750Y-49317D01*
X67711Y-49297D01*
X67671Y-49281D01*
X67629Y-49268D01*
X67586Y-49258D01*
X67543Y-49252D01*
X67500Y-49250D01*
G54D15*
X43061Y-49000D02*
X43021Y-49400D01*
X42905Y-49785D01*
X42716Y-50140D01*
X42462Y-50452D01*
X42152Y-50708D01*
X41798Y-50899D01*
X41414Y-51018D01*
X41014Y-51060D01*
X40614Y-51024D01*
X40228Y-50910D01*
X39872Y-50724D01*
X39558Y-50472D01*
X39300Y-50164D01*
X39106Y-49811D01*
X38985Y-49428D01*
X38940Y-49028D01*
X38973Y-48628D01*
X39084Y-48242D01*
X39268Y-47884D01*
X39518Y-47569D01*
X39824Y-47308D01*
X40175Y-47112D01*
X40558Y-46988D01*
X40957Y-46940D01*
X41357Y-46971D01*
X41745Y-47079D01*
X42104Y-47260D01*
X42421Y-47508D01*
X42684Y-47812D01*
X42882Y-48162D01*
X43009Y-48544D01*
X43060Y-48943D01*
X43061Y-49000D01*
G54D13*
X40550Y-49100D02*
X40550Y-49350D01*
X40550Y-49350D02*
X41450Y-49350D01*
X41450Y-49100D02*
X41450Y-49350D01*
X40550Y-49100D02*
X41450Y-49100D01*
G54D10*
X41000Y-48550D02*
X41000Y-48650D01*
X41000Y-48650D02*
X40550Y-48650D01*
X40550Y-48650D02*
X40550Y-48900D01*
X40550Y-48900D02*
X41450Y-48900D01*
X41450Y-48900D02*
X41450Y-48650D01*
X41450Y-48650D02*
X41000Y-48650D01*
X41000Y-49250D02*
X41000Y-49450D01*
X41150Y-46500D02*
X40850Y-46500D01*
X41000Y-46650D02*
X41000Y-46350D01*
X41000Y-49450D02*
X41000Y-49650D01*
X41000Y-48350D02*
X41000Y-48550D01*
G54D15*
X44650Y-57400D02*
X57350Y-57400D01*
X57350Y-57400D02*
X57350Y-51650D01*
X57350Y-51650D02*
X44650Y-51650D01*
X44650Y-51650D02*
X44650Y-57400D01*
G54D13*
X53250Y-53500D02*
X53750Y-53500D01*
X53750Y-53500D02*
X54000Y-53750D01*
X54000Y-54250D02*
X53750Y-54500D01*
X52000Y-53750D02*
X52250Y-53500D01*
X52250Y-53500D02*
X52750Y-53500D01*
X52750Y-53500D02*
X53000Y-53750D01*
X53000Y-54250D02*
X52750Y-54500D01*
X52750Y-54500D02*
X52250Y-54500D01*
X52250Y-54500D02*
X52000Y-54250D01*
X53250Y-53500D02*
X53000Y-53750D01*
X53000Y-54250D02*
X53250Y-54500D01*
X53750Y-54500D02*
X53250Y-54500D01*
X50250Y-53500D02*
X50750Y-53500D01*
X50750Y-53500D02*
X51000Y-53750D01*
X51000Y-54250D02*
X50750Y-54500D01*
X51000Y-53750D02*
X51250Y-53500D01*
X51250Y-53500D02*
X51750Y-53500D01*
X51750Y-53500D02*
X52000Y-53750D01*
X52000Y-54250D02*
X51750Y-54500D01*
X51750Y-54500D02*
X51250Y-54500D01*
X51250Y-54500D02*
X51000Y-54250D01*
X49000Y-53750D02*
X49250Y-53500D01*
X49250Y-53500D02*
X49750Y-53500D01*
X49750Y-53500D02*
X50000Y-53750D01*
X50000Y-54250D02*
X49750Y-54500D01*
X49750Y-54500D02*
X49250Y-54500D01*
X49250Y-54500D02*
X49000Y-54250D01*
X50250Y-53500D02*
X50000Y-53750D01*
X50000Y-54250D02*
X50250Y-54500D01*
X50750Y-54500D02*
X50250Y-54500D01*
X47250Y-53500D02*
X47750Y-53500D01*
X47750Y-53500D02*
X48000Y-53750D01*
X48000Y-54250D02*
X47750Y-54500D01*
X48000Y-53750D02*
X48250Y-53500D01*
X48250Y-53500D02*
X48750Y-53500D01*
X48750Y-53500D02*
X49000Y-53750D01*
X49000Y-54250D02*
X48750Y-54500D01*
X48750Y-54500D02*
X48250Y-54500D01*
X48250Y-54500D02*
X48000Y-54250D01*
X47000Y-53750D02*
X47000Y-54250D01*
X47250Y-53500D02*
X47000Y-53750D01*
X47000Y-54250D02*
X47250Y-54500D01*
X47750Y-54500D02*
X47250Y-54500D01*
X54250Y-53500D02*
X54750Y-53500D01*
X54750Y-53500D02*
X55000Y-53750D01*
X55000Y-53750D02*
X55000Y-54250D01*
X55000Y-54250D02*
X54750Y-54500D01*
X54250Y-53500D02*
X54000Y-53750D01*
X54000Y-54250D02*
X54250Y-54500D01*
X54750Y-54500D02*
X54250Y-54500D01*
G54D15*
X55000Y-48050D02*
X55000Y-44450D01*
X55000Y-44450D02*
X47000Y-44450D01*
X47000Y-44450D02*
X47000Y-48050D01*
X47000Y-48050D02*
X55000Y-48050D01*
X53000Y-44250D02*
X53500Y-43650D01*
X53500Y-43650D02*
X52500Y-43650D01*
X52500Y-43650D02*
X53000Y-44250D01*
X62250Y-42000D02*
X62250Y-39250D01*
X62250Y-42000D02*
X59750Y-42000D01*
X59750Y-42000D02*
X59750Y-39250D01*
X62250Y-39250D02*
X59750Y-39250D01*
G54D12*
X45800Y-43643D02*
X45800Y-44071D01*
X45772Y-44157D01*
X45715Y-44214D01*
X45629Y-44243D01*
X45572Y-44243D01*
X46400Y-44243D02*
X46057Y-44243D01*
X46229Y-44243D02*
X46229Y-43643D01*
X46172Y-43729D01*
X46114Y-43786D01*
X46057Y-43814D01*
G54D16*
X54143Y-42452D02*
X53857Y-42452D01*
X54000Y-42452D02*
X54000Y-41952D01*
X53952Y-42024D01*
X53905Y-42071D01*
X53857Y-42095D01*
X48270Y-41952D02*
X48032Y-41952D01*
X48008Y-42190D01*
X48032Y-42167D01*
X48080Y-42143D01*
X48199Y-42143D01*
X48246Y-42167D01*
X48270Y-42190D01*
X48294Y-42238D01*
X48294Y-42357D01*
X48270Y-42405D01*
X48246Y-42429D01*
X48199Y-42452D01*
X48080Y-42452D01*
X48032Y-42429D01*
X48008Y-42405D01*
X48056Y-41452D02*
X48151Y-41452D01*
X48199Y-41429D01*
X48223Y-41405D01*
X48270Y-41333D01*
X48294Y-41238D01*
X48294Y-41048D01*
X48270Y-41000D01*
X48246Y-40976D01*
X48199Y-40952D01*
X48103Y-40952D01*
X48056Y-40976D01*
X48032Y-41000D01*
X48008Y-41048D01*
X48008Y-41167D01*
X48032Y-41214D01*
X48056Y-41238D01*
X48103Y-41262D01*
X48199Y-41262D01*
X48246Y-41238D01*
X48270Y-41214D01*
X48294Y-41167D01*
X54095Y-40902D02*
X54000Y-40902D01*
X53952Y-40926D01*
X53929Y-40950D01*
X53881Y-41021D01*
X53857Y-41117D01*
X53857Y-41307D01*
X53881Y-41355D01*
X53905Y-41379D01*
X53952Y-41402D01*
X54048Y-41402D01*
X54095Y-41379D01*
X54119Y-41355D01*
X54143Y-41307D01*
X54143Y-41188D01*
X54119Y-41140D01*
X54095Y-41117D01*
X54048Y-41093D01*
X53952Y-41093D01*
X53905Y-41117D01*
X53881Y-41140D01*
X53857Y-41188D01*
G54D12*
X45229Y-40743D02*
X45229Y-40143D01*
X45429Y-40571D01*
X45629Y-40143D01*
X45629Y-40743D01*
X46029Y-40143D02*
X46086Y-40143D01*
X46143Y-40171D01*
X46172Y-40200D01*
X46201Y-40257D01*
X46229Y-40371D01*
X46229Y-40514D01*
X46201Y-40629D01*
X46172Y-40686D01*
X46143Y-40714D01*
X46086Y-40743D01*
X46029Y-40743D01*
X45972Y-40714D01*
X45943Y-40686D01*
X45915Y-40629D01*
X45886Y-40514D01*
X45886Y-40371D01*
X45915Y-40257D01*
X45943Y-40200D01*
X45972Y-40171D01*
X46029Y-40143D01*
X46514Y-40743D02*
X46629Y-40743D01*
X46686Y-40714D01*
X46714Y-40686D01*
X46772Y-40600D01*
X46800Y-40486D01*
X46800Y-40257D01*
X46772Y-40200D01*
X46743Y-40171D01*
X46686Y-40143D01*
X46572Y-40143D01*
X46514Y-40171D01*
X46486Y-40200D01*
X46457Y-40257D01*
X46457Y-40400D01*
X46486Y-40457D01*
X46514Y-40486D01*
X46572Y-40514D01*
X46686Y-40514D01*
X46743Y-40486D01*
X46772Y-40457D01*
X46800Y-40400D01*
X59200Y-47714D02*
X59286Y-47743D01*
X59429Y-47743D01*
X59486Y-47714D01*
X59515Y-47686D01*
X59543Y-47629D01*
X59543Y-47571D01*
X59515Y-47514D01*
X59486Y-47486D01*
X59429Y-47457D01*
X59315Y-47429D01*
X59257Y-47400D01*
X59229Y-47371D01*
X59200Y-47314D01*
X59200Y-47257D01*
X59229Y-47200D01*
X59257Y-47171D01*
X59315Y-47143D01*
X59457Y-47143D01*
X59543Y-47171D01*
X59743Y-47143D02*
X59886Y-47743D01*
X60000Y-47314D01*
X60114Y-47743D01*
X60257Y-47143D01*
X60800Y-47743D02*
X60457Y-47743D01*
X60629Y-47743D02*
X60629Y-47143D01*
X60572Y-47229D01*
X60514Y-47286D01*
X60457Y-47314D01*
X40901Y-51936D02*
X40872Y-51964D01*
X40786Y-51993D01*
X40729Y-51993D01*
X40644Y-51964D01*
X40586Y-51907D01*
X40558Y-51850D01*
X40529Y-51736D01*
X40529Y-51650D01*
X40558Y-51536D01*
X40586Y-51479D01*
X40644Y-51421D01*
X40729Y-51393D01*
X40786Y-51393D01*
X40872Y-51421D01*
X40901Y-51450D01*
X41472Y-51993D02*
X41129Y-51993D01*
X41301Y-51993D02*
X41301Y-51393D01*
X41244Y-51479D01*
X41186Y-51536D01*
X41129Y-51564D01*
X50558Y-51243D02*
X50558Y-50643D01*
X50786Y-50643D01*
X50844Y-50671D01*
X50872Y-50700D01*
X50901Y-50757D01*
X50901Y-50843D01*
X50872Y-50900D01*
X50844Y-50929D01*
X50786Y-50957D01*
X50558Y-50957D01*
X51129Y-50700D02*
X51158Y-50671D01*
X51215Y-50643D01*
X51358Y-50643D01*
X51415Y-50671D01*
X51444Y-50700D01*
X51472Y-50757D01*
X51472Y-50814D01*
X51444Y-50900D01*
X51101Y-51243D01*
X51472Y-51243D01*
X50558Y-48993D02*
X50558Y-48393D01*
X50786Y-48393D01*
X50844Y-48421D01*
X50872Y-48450D01*
X50901Y-48507D01*
X50901Y-48593D01*
X50872Y-48650D01*
X50844Y-48679D01*
X50786Y-48707D01*
X50558Y-48707D01*
X51472Y-48993D02*
X51129Y-48993D01*
X51301Y-48993D02*
X51301Y-48393D01*
X51244Y-48479D01*
X51186Y-48536D01*
X51129Y-48564D01*
G54D17*
X52886Y-47350D02*
X52905Y-47331D01*
X52943Y-47312D01*
X53039Y-47312D01*
X53077Y-47331D01*
X53096Y-47350D01*
X53115Y-47388D01*
X53115Y-47426D01*
X53096Y-47483D01*
X52867Y-47712D01*
X53115Y-47712D01*
X48924Y-47712D02*
X48695Y-47712D01*
X48809Y-47712D02*
X48809Y-47312D01*
X48771Y-47369D01*
X48733Y-47407D01*
X48695Y-47426D01*
X49171Y-47312D02*
X49210Y-47312D01*
X49248Y-47331D01*
X49267Y-47350D01*
X49286Y-47388D01*
X49305Y-47464D01*
X49305Y-47560D01*
X49286Y-47636D01*
X49267Y-47674D01*
X49248Y-47693D01*
X49210Y-47712D01*
X49171Y-47712D01*
X49133Y-47693D01*
X49114Y-47674D01*
X49095Y-47636D01*
X49076Y-47560D01*
X49076Y-47464D01*
X49095Y-47388D01*
X49114Y-47350D01*
X49133Y-47331D01*
X49171Y-47312D01*
X48924Y-45012D02*
X49000Y-45012D01*
X49039Y-44993D01*
X49058Y-44974D01*
X49096Y-44917D01*
X49115Y-44840D01*
X49115Y-44688D01*
X49096Y-44650D01*
X49077Y-44631D01*
X49039Y-44612D01*
X48962Y-44612D01*
X48924Y-44631D01*
X48905Y-44650D01*
X48886Y-44688D01*
X48886Y-44783D01*
X48905Y-44821D01*
X48924Y-44840D01*
X48962Y-44860D01*
X49039Y-44860D01*
X49077Y-44840D01*
X49096Y-44821D01*
X49115Y-44783D01*
G54D12*
X62308Y-42743D02*
X62308Y-42143D01*
X62536Y-42143D01*
X62594Y-42171D01*
X62622Y-42200D01*
X62651Y-42257D01*
X62651Y-42343D01*
X62622Y-42400D01*
X62594Y-42429D01*
X62536Y-42457D01*
X62308Y-42457D01*
X62851Y-42143D02*
X63222Y-42143D01*
X63022Y-42371D01*
X63108Y-42371D01*
X63165Y-42400D01*
X63194Y-42429D01*
X63222Y-42486D01*
X63222Y-42629D01*
X63194Y-42686D01*
X63165Y-42714D01*
X63108Y-42743D01*
X62936Y-42743D01*
X62879Y-42714D01*
X62851Y-42686D01*
M02*
