G04 (created by PCBNEW-RS274X (2010-03-14)-final) date Mon 07 Feb 2011 05:49:37 PM PST*
G01*
G70*
G90*
%MOIN*%
G04 Gerber Fmt 3.4, Leading zero omitted, Abs format*
%FSLAX34Y34*%
G04 APERTURE LIST*
%ADD10C,0.006000*%
%ADD11C,0.009000*%
%ADD12C,0.060000*%
%ADD13C,0.200000*%
%ADD14O,0.109500X0.109500*%
%ADD15C,0.109500*%
%ADD16C,0.100000*%
%ADD17R,0.060000X0.060000*%
%ADD18R,0.070000X0.070000*%
%ADD19C,0.070000*%
%ADD20C,0.300000*%
%ADD21C,0.073000*%
%ADD22R,0.073000X0.073000*%
%ADD23C,0.053000*%
G04 APERTURE END LIST*
G54D10*
G54D11*
X38500Y-31500D02*
X38500Y-56500D01*
X63500Y-31500D02*
X38500Y-31500D01*
X63500Y-56500D02*
X63500Y-31500D01*
X38500Y-56500D02*
X63500Y-56500D01*
G54D12*
X53160Y-36500D03*
X52080Y-36500D03*
X51000Y-36500D03*
X49920Y-36500D03*
X48840Y-36500D03*
X52620Y-35500D03*
X51540Y-35500D03*
X50460Y-35500D03*
X49380Y-35500D03*
G54D13*
X55930Y-36000D03*
X46070Y-36000D03*
G54D14*
X57500Y-44500D03*
X55500Y-44500D03*
X53500Y-44500D03*
G54D15*
X62500Y-45500D03*
X62500Y-43500D03*
G54D16*
X42500Y-43500D03*
X42500Y-45500D03*
G54D17*
X47500Y-55500D03*
G54D12*
X48500Y-55500D03*
X49500Y-55500D03*
X50500Y-55500D03*
X51500Y-55500D03*
X52500Y-55500D03*
X53500Y-55500D03*
X54500Y-55500D03*
G54D18*
X53000Y-41000D03*
G54D19*
X53000Y-42000D03*
X52000Y-41000D03*
X52000Y-42000D03*
X51000Y-41000D03*
X51000Y-42000D03*
X50000Y-41000D03*
X50000Y-42000D03*
X49000Y-41000D03*
X49000Y-42000D03*
G54D20*
X41000Y-34000D03*
X61000Y-34000D03*
X41000Y-54000D03*
X61000Y-54000D03*
G54D21*
X61500Y-38500D03*
G54D22*
X61500Y-39500D03*
G54D23*
X62500Y-39500D03*
X62500Y-38500D03*
M02*
