G04 (created by PCBNEW-RS274X (2010-03-14)-final) date Mon 07 Feb 2011 05:49:37 PM PST*
G01*
G70*
G90*
%MOIN*%
G04 Gerber Fmt 3.4, Leading zero omitted, Abs format*
%FSLAX34Y34*%
G04 APERTURE LIST*
%ADD10C,0.006000*%
%ADD11C,0.009000*%
%ADD12C,0.010000*%
%ADD13C,0.008000*%
%ADD14C,0.032000*%
%ADD15C,0.015000*%
%ADD16C,0.005000*%
%ADD17C,0.006700*%
G04 APERTURE END LIST*
G54D10*
G54D11*
X38500Y-31500D02*
X38500Y-56500D01*
X63500Y-31500D02*
X38500Y-31500D01*
X63500Y-56500D02*
X63500Y-31500D01*
X38500Y-56500D02*
X63500Y-56500D01*
G54D12*
X57129Y-38519D02*
X57586Y-38519D01*
X57357Y-38824D02*
X57357Y-38214D01*
X58158Y-38024D02*
X57872Y-38024D01*
X57843Y-38405D01*
X57872Y-38367D01*
X57929Y-38329D01*
X58072Y-38329D01*
X58129Y-38367D01*
X58158Y-38405D01*
X58186Y-38481D01*
X58186Y-38671D01*
X58158Y-38748D01*
X58129Y-38786D01*
X58072Y-38824D01*
X57929Y-38824D01*
X57872Y-38786D01*
X57843Y-38748D01*
X58357Y-38024D02*
X58557Y-38824D01*
X58757Y-38024D01*
X58957Y-38824D02*
X58957Y-38024D01*
X59100Y-38024D01*
X59185Y-38062D01*
X59243Y-38138D01*
X59271Y-38214D01*
X59300Y-38367D01*
X59300Y-38481D01*
X59271Y-38633D01*
X59243Y-38710D01*
X59185Y-38786D01*
X59100Y-38824D01*
X58957Y-38824D01*
X59900Y-38748D02*
X59871Y-38786D01*
X59785Y-38824D01*
X59728Y-38824D01*
X59643Y-38786D01*
X59585Y-38710D01*
X59557Y-38633D01*
X59528Y-38481D01*
X59528Y-38367D01*
X59557Y-38214D01*
X59585Y-38138D01*
X59643Y-38062D01*
X59728Y-38024D01*
X59785Y-38024D01*
X59871Y-38062D01*
X59900Y-38100D01*
X58543Y-39062D02*
X58486Y-39024D01*
X58400Y-39024D01*
X58315Y-39062D01*
X58257Y-39138D01*
X58229Y-39214D01*
X58200Y-39367D01*
X58200Y-39481D01*
X58229Y-39633D01*
X58257Y-39710D01*
X58315Y-39786D01*
X58400Y-39824D01*
X58457Y-39824D01*
X58543Y-39786D01*
X58572Y-39748D01*
X58572Y-39481D01*
X58457Y-39481D01*
X58829Y-39824D02*
X58829Y-39024D01*
X59172Y-39824D01*
X59172Y-39024D01*
X59458Y-39824D02*
X59458Y-39024D01*
X59601Y-39024D01*
X59686Y-39062D01*
X59744Y-39138D01*
X59772Y-39214D01*
X59801Y-39367D01*
X59801Y-39481D01*
X59772Y-39633D01*
X59744Y-39710D01*
X59686Y-39786D01*
X59601Y-39824D01*
X59458Y-39824D01*
X49144Y-49405D02*
X48944Y-49405D01*
X48944Y-49824D02*
X48944Y-49024D01*
X49230Y-49024D01*
X49458Y-49405D02*
X49658Y-49405D01*
X49744Y-49824D02*
X49458Y-49824D01*
X49458Y-49024D01*
X49744Y-49024D01*
X50201Y-49405D02*
X50287Y-49443D01*
X50315Y-49481D01*
X50344Y-49557D01*
X50344Y-49671D01*
X50315Y-49748D01*
X50287Y-49786D01*
X50229Y-49824D01*
X50001Y-49824D01*
X50001Y-49024D01*
X50201Y-49024D01*
X50258Y-49062D01*
X50287Y-49100D01*
X50315Y-49176D01*
X50315Y-49252D01*
X50287Y-49329D01*
X50258Y-49367D01*
X50201Y-49405D01*
X50001Y-49405D01*
X51029Y-49100D02*
X51058Y-49062D01*
X51115Y-49024D01*
X51258Y-49024D01*
X51315Y-49062D01*
X51344Y-49100D01*
X51372Y-49176D01*
X51372Y-49252D01*
X51344Y-49367D01*
X51001Y-49824D01*
X51372Y-49824D01*
X51743Y-49024D02*
X51800Y-49024D01*
X51857Y-49062D01*
X51886Y-49100D01*
X51915Y-49176D01*
X51943Y-49329D01*
X51943Y-49519D01*
X51915Y-49671D01*
X51886Y-49748D01*
X51857Y-49786D01*
X51800Y-49824D01*
X51743Y-49824D01*
X51686Y-49786D01*
X51657Y-49748D01*
X51629Y-49671D01*
X51600Y-49519D01*
X51600Y-49329D01*
X51629Y-49176D01*
X51657Y-49100D01*
X51686Y-49062D01*
X51743Y-49024D01*
X52514Y-49824D02*
X52171Y-49824D01*
X52343Y-49824D02*
X52343Y-49024D01*
X52286Y-49138D01*
X52228Y-49214D01*
X52171Y-49252D01*
X53085Y-49824D02*
X52742Y-49824D01*
X52914Y-49824D02*
X52914Y-49024D01*
X52857Y-49138D01*
X52799Y-49214D01*
X52742Y-49252D01*
X47814Y-46824D02*
X47814Y-46024D01*
X48214Y-46024D02*
X48328Y-46024D01*
X48386Y-46062D01*
X48443Y-46138D01*
X48471Y-46290D01*
X48471Y-46557D01*
X48443Y-46710D01*
X48386Y-46786D01*
X48328Y-46824D01*
X48214Y-46824D01*
X48157Y-46786D01*
X48100Y-46710D01*
X48071Y-46557D01*
X48071Y-46290D01*
X48100Y-46138D01*
X48157Y-46062D01*
X48214Y-46024D01*
X49529Y-46824D02*
X49329Y-46443D01*
X49186Y-46824D02*
X49186Y-46024D01*
X49414Y-46024D01*
X49472Y-46062D01*
X49500Y-46100D01*
X49529Y-46176D01*
X49529Y-46290D01*
X49500Y-46367D01*
X49472Y-46405D01*
X49414Y-46443D01*
X49186Y-46443D01*
X49872Y-46824D02*
X49814Y-46786D01*
X49786Y-46748D01*
X49757Y-46671D01*
X49757Y-46443D01*
X49786Y-46367D01*
X49814Y-46329D01*
X49872Y-46290D01*
X49957Y-46290D01*
X50014Y-46329D01*
X50043Y-46367D01*
X50072Y-46443D01*
X50072Y-46671D01*
X50043Y-46748D01*
X50014Y-46786D01*
X49957Y-46824D01*
X49872Y-46824D01*
X50586Y-46824D02*
X50586Y-46024D01*
X50586Y-46786D02*
X50529Y-46824D01*
X50415Y-46824D01*
X50357Y-46786D01*
X50329Y-46748D01*
X50300Y-46671D01*
X50300Y-46443D01*
X50329Y-46367D01*
X50357Y-46329D01*
X50415Y-46290D01*
X50529Y-46290D01*
X50586Y-46329D01*
X51100Y-46786D02*
X51043Y-46824D01*
X50929Y-46824D01*
X50872Y-46786D01*
X50843Y-46710D01*
X50843Y-46405D01*
X50872Y-46329D01*
X50929Y-46290D01*
X51043Y-46290D01*
X51100Y-46329D01*
X51129Y-46405D01*
X51129Y-46481D01*
X50843Y-46557D01*
X51472Y-46824D02*
X51414Y-46786D01*
X51386Y-46748D01*
X51357Y-46671D01*
X51357Y-46443D01*
X51386Y-46367D01*
X51414Y-46329D01*
X51472Y-46290D01*
X51557Y-46290D01*
X51614Y-46329D01*
X51643Y-46367D01*
X51672Y-46443D01*
X51672Y-46671D01*
X51643Y-46748D01*
X51614Y-46786D01*
X51557Y-46824D01*
X51472Y-46824D01*
X52386Y-46824D02*
X52386Y-46024D01*
X52672Y-46290D02*
X52672Y-46824D01*
X52672Y-46367D02*
X52700Y-46329D01*
X52758Y-46290D01*
X52843Y-46290D01*
X52900Y-46329D01*
X52929Y-46405D01*
X52929Y-46824D01*
X53472Y-46786D02*
X53415Y-46824D01*
X53301Y-46824D01*
X53243Y-46786D01*
X53215Y-46748D01*
X53186Y-46671D01*
X53186Y-46443D01*
X53215Y-46367D01*
X53243Y-46329D01*
X53301Y-46290D01*
X53415Y-46290D01*
X53472Y-46329D01*
X53729Y-46748D02*
X53757Y-46786D01*
X53729Y-46824D01*
X53700Y-46786D01*
X53729Y-46748D01*
X53729Y-46824D01*
X45701Y-48324D02*
X45701Y-47524D01*
X45929Y-47524D01*
X45987Y-47562D01*
X46015Y-47600D01*
X46044Y-47676D01*
X46044Y-47790D01*
X46015Y-47867D01*
X45987Y-47905D01*
X45929Y-47943D01*
X45701Y-47943D01*
X46558Y-48324D02*
X46558Y-47905D01*
X46529Y-47829D01*
X46472Y-47790D01*
X46358Y-47790D01*
X46301Y-47829D01*
X46558Y-48286D02*
X46501Y-48324D01*
X46358Y-48324D01*
X46301Y-48286D01*
X46272Y-48210D01*
X46272Y-48133D01*
X46301Y-48057D01*
X46358Y-48019D01*
X46501Y-48019D01*
X46558Y-47981D01*
X46844Y-47790D02*
X46844Y-48324D01*
X46844Y-47867D02*
X46872Y-47829D01*
X46930Y-47790D01*
X47015Y-47790D01*
X47072Y-47829D01*
X47101Y-47905D01*
X47101Y-48324D01*
X47615Y-48286D02*
X47558Y-48324D01*
X47444Y-48324D01*
X47387Y-48286D01*
X47358Y-48210D01*
X47358Y-47905D01*
X47387Y-47829D01*
X47444Y-47790D01*
X47558Y-47790D01*
X47615Y-47829D01*
X47644Y-47905D01*
X47644Y-47981D01*
X47358Y-48057D01*
X47987Y-48324D02*
X47929Y-48286D01*
X47901Y-48210D01*
X47901Y-47524D01*
X48186Y-48286D02*
X48243Y-48324D01*
X48358Y-48324D01*
X48415Y-48286D01*
X48443Y-48210D01*
X48443Y-48171D01*
X48415Y-48095D01*
X48358Y-48057D01*
X48272Y-48057D01*
X48215Y-48019D01*
X48186Y-47943D01*
X48186Y-47905D01*
X48215Y-47829D01*
X48272Y-47790D01*
X48358Y-47790D01*
X48415Y-47829D01*
X49129Y-48095D02*
X49415Y-48095D01*
X49072Y-48324D02*
X49272Y-47524D01*
X49472Y-48324D01*
X49672Y-48324D02*
X49672Y-47790D01*
X49672Y-47943D02*
X49700Y-47867D01*
X49729Y-47829D01*
X49786Y-47790D01*
X49843Y-47790D01*
X50271Y-48286D02*
X50214Y-48324D01*
X50100Y-48324D01*
X50043Y-48286D01*
X50014Y-48210D01*
X50014Y-47905D01*
X50043Y-47829D01*
X50100Y-47790D01*
X50214Y-47790D01*
X50271Y-47829D01*
X50300Y-47905D01*
X50300Y-47981D01*
X50014Y-48057D01*
X50557Y-47790D02*
X50557Y-48324D01*
X50557Y-47867D02*
X50585Y-47829D01*
X50643Y-47790D01*
X50728Y-47790D01*
X50785Y-47829D01*
X50814Y-47905D01*
X50814Y-48324D01*
X51357Y-48324D02*
X51357Y-47905D01*
X51328Y-47829D01*
X51271Y-47790D01*
X51157Y-47790D01*
X51100Y-47829D01*
X51357Y-48286D02*
X51300Y-48324D01*
X51157Y-48324D01*
X51100Y-48286D01*
X51071Y-48210D01*
X51071Y-48133D01*
X51100Y-48057D01*
X51157Y-48019D01*
X51300Y-48019D01*
X51357Y-47981D01*
X52100Y-48324D02*
X52100Y-47524D01*
X52300Y-48095D01*
X52500Y-47524D01*
X52500Y-48324D01*
X52786Y-48324D02*
X52786Y-47790D01*
X52786Y-47524D02*
X52757Y-47562D01*
X52786Y-47600D01*
X52814Y-47562D01*
X52786Y-47524D01*
X52786Y-47600D01*
X53072Y-47790D02*
X53072Y-48324D01*
X53072Y-47867D02*
X53100Y-47829D01*
X53158Y-47790D01*
X53243Y-47790D01*
X53300Y-47829D01*
X53329Y-47905D01*
X53329Y-48324D01*
X53615Y-48324D02*
X53615Y-47790D01*
X53615Y-47524D02*
X53586Y-47562D01*
X53615Y-47600D01*
X53643Y-47562D01*
X53615Y-47524D01*
X53615Y-47600D01*
X53929Y-48286D02*
X53929Y-48324D01*
X53901Y-48400D01*
X53872Y-48438D01*
X54558Y-47524D02*
X54758Y-48324D01*
X54958Y-47524D01*
X55472Y-48324D02*
X55129Y-48324D01*
X55301Y-48324D02*
X55301Y-47524D01*
X55244Y-47638D01*
X55186Y-47714D01*
X55129Y-47752D01*
X55729Y-48248D02*
X55757Y-48286D01*
X55729Y-48324D01*
X55700Y-48286D01*
X55729Y-48248D01*
X55729Y-48324D01*
X56129Y-47524D02*
X56186Y-47524D01*
X56243Y-47562D01*
X56272Y-47600D01*
X56301Y-47676D01*
X56329Y-47829D01*
X56329Y-48019D01*
X56301Y-48171D01*
X56272Y-48248D01*
X56243Y-48286D01*
X56186Y-48324D01*
X56129Y-48324D01*
X56072Y-48286D01*
X56043Y-48248D01*
X56015Y-48171D01*
X55986Y-48019D01*
X55986Y-47829D01*
X56015Y-47676D01*
X56043Y-47600D01*
X56072Y-47562D01*
X56129Y-47524D01*
G54D13*
X47200Y-31800D02*
X47100Y-31800D01*
X47100Y-31800D02*
X47100Y-32750D01*
X47200Y-32750D02*
X47100Y-32750D01*
X47200Y-31800D02*
X47200Y-32750D01*
X54900Y-31800D02*
X54800Y-31800D01*
X54800Y-31800D02*
X54800Y-32750D01*
X54900Y-32750D02*
X54800Y-32750D01*
X54900Y-31800D02*
X54900Y-32750D01*
X46270Y-33000D02*
X45870Y-33000D01*
X45870Y-33000D02*
X45870Y-33650D01*
X46270Y-33650D02*
X45870Y-33650D01*
X46270Y-33000D02*
X46270Y-33650D01*
X56130Y-33000D02*
X55730Y-33000D01*
X55730Y-33000D02*
X55730Y-33650D01*
X56130Y-33650D02*
X55730Y-33650D01*
X56130Y-33000D02*
X56130Y-33650D01*
X54650Y-33000D02*
X47350Y-33000D01*
X47350Y-33000D02*
X47350Y-33300D01*
X54650Y-33300D02*
X47350Y-33300D01*
X54650Y-33000D02*
X54650Y-33300D01*
X57100Y-31400D02*
X44900Y-31400D01*
X44900Y-31400D02*
X44900Y-31600D01*
X57100Y-31600D02*
X44900Y-31600D01*
X57100Y-31400D02*
X57100Y-31600D01*
X53320Y-33300D02*
X53000Y-33300D01*
X53000Y-33300D02*
X53000Y-36150D01*
X53320Y-36150D02*
X53000Y-36150D01*
X53320Y-33300D02*
X53320Y-36150D01*
X52780Y-33300D02*
X52460Y-33300D01*
X52460Y-33300D02*
X52460Y-35150D01*
X52780Y-35150D02*
X52460Y-35150D01*
X52780Y-33300D02*
X52780Y-35150D01*
X52240Y-33300D02*
X51920Y-33300D01*
X51920Y-33300D02*
X51920Y-36150D01*
X52240Y-36150D02*
X51920Y-36150D01*
X52240Y-33300D02*
X52240Y-36150D01*
X51700Y-33300D02*
X51380Y-33300D01*
X51380Y-33300D02*
X51380Y-35150D01*
X51700Y-35150D02*
X51380Y-35150D01*
X51700Y-33300D02*
X51700Y-35150D01*
X51160Y-33300D02*
X50840Y-33300D01*
X50840Y-33300D02*
X50840Y-36150D01*
X51160Y-36150D02*
X50840Y-36150D01*
X51160Y-33300D02*
X51160Y-36150D01*
X50620Y-33300D02*
X50300Y-33300D01*
X50300Y-33300D02*
X50300Y-35150D01*
X50620Y-35150D02*
X50300Y-35150D01*
X50620Y-33300D02*
X50620Y-35150D01*
X50080Y-33300D02*
X49760Y-33300D01*
X49760Y-33300D02*
X49760Y-36150D01*
X50080Y-36150D02*
X49760Y-36150D01*
X50080Y-33300D02*
X50080Y-36150D01*
X49540Y-33300D02*
X49220Y-33300D01*
X49220Y-33300D02*
X49220Y-35150D01*
X49540Y-35150D02*
X49220Y-35150D01*
X49540Y-33300D02*
X49540Y-35150D01*
X49000Y-33300D02*
X48680Y-33300D01*
X48680Y-33300D02*
X48680Y-36150D01*
X49000Y-36150D02*
X48680Y-36150D01*
X49000Y-33300D02*
X49000Y-36150D01*
G54D10*
X47750Y-29101D02*
X47850Y-29101D01*
X47700Y-31400D02*
X47700Y-29300D01*
X47700Y-31400D02*
X54300Y-31400D01*
X54300Y-31400D02*
X54300Y-29300D01*
X44900Y-33000D02*
X46900Y-33000D01*
X44900Y-33000D02*
X44900Y-31800D01*
X44900Y-33000D02*
X44900Y-33050D01*
X44900Y-31800D02*
X45900Y-31800D01*
X44900Y-31800D02*
X44900Y-31600D01*
X44900Y-31600D02*
X44900Y-31400D01*
X57100Y-31400D02*
X57100Y-31600D01*
X57100Y-31600D02*
X57100Y-31800D01*
X57100Y-31800D02*
X57100Y-33000D01*
X57100Y-33000D02*
X57100Y-33050D01*
X45900Y-31900D02*
X46900Y-31900D01*
X44900Y-31600D02*
X45900Y-31600D01*
X45900Y-31600D02*
X46900Y-31600D01*
X45900Y-31800D02*
X45900Y-31600D01*
X45900Y-31800D02*
X45900Y-31900D01*
X46900Y-31900D02*
X46900Y-31800D01*
X46900Y-31800D02*
X46900Y-31600D01*
X44900Y-33050D02*
X46900Y-33050D01*
X46900Y-33050D02*
X46900Y-33000D01*
X46900Y-31800D02*
X46950Y-31800D01*
X46950Y-31800D02*
X55050Y-31800D01*
X46900Y-33000D02*
X47250Y-33000D01*
X47250Y-33000D02*
X47350Y-33000D01*
X46950Y-32750D02*
X46950Y-31800D01*
X47350Y-33000D02*
X47350Y-33300D01*
X47350Y-33000D02*
X54650Y-33000D01*
X47350Y-33300D02*
X54650Y-33300D01*
X54650Y-33000D02*
X54650Y-33300D01*
X54650Y-33000D02*
X54750Y-33000D01*
X54750Y-33000D02*
X54800Y-33000D01*
X54800Y-33000D02*
X55100Y-33000D01*
X55100Y-33050D02*
X57100Y-33050D01*
X56100Y-31800D02*
X56100Y-31600D01*
X56100Y-31800D02*
X57100Y-31800D01*
X56100Y-31600D02*
X57100Y-31600D01*
X55100Y-31900D02*
X56100Y-31900D01*
X56100Y-31800D02*
X56100Y-31900D01*
X46900Y-31600D02*
X55100Y-31600D01*
X55100Y-31600D02*
X56100Y-31600D01*
X55100Y-31900D02*
X55100Y-31800D01*
X55100Y-31800D02*
X55100Y-31600D01*
X55050Y-32750D02*
X55050Y-31800D01*
X55050Y-31800D02*
X55100Y-31800D01*
X45150Y-37250D02*
X44900Y-37000D01*
X44900Y-37000D02*
X44900Y-33050D01*
X47050Y-37250D02*
X45150Y-37250D01*
X47050Y-37250D02*
X47250Y-37050D01*
X47250Y-37050D02*
X47250Y-33000D01*
X54750Y-37050D02*
X54750Y-33000D01*
X54750Y-37050D02*
X54950Y-37250D01*
X54950Y-37250D02*
X56900Y-37250D01*
X56900Y-37250D02*
X57100Y-37050D01*
X57100Y-37050D02*
X57100Y-33050D01*
X53000Y-30500D02*
X52100Y-30500D01*
X52100Y-30500D02*
X52100Y-29600D01*
X52100Y-29600D02*
X52250Y-29600D01*
X52250Y-29600D02*
X52250Y-30351D01*
X52250Y-30351D02*
X52850Y-30351D01*
X52850Y-30351D02*
X52850Y-29600D01*
X52850Y-29600D02*
X53000Y-29600D01*
X53000Y-29600D02*
X53000Y-30500D01*
X51450Y-30500D02*
X50550Y-30500D01*
X50550Y-30500D02*
X50550Y-29600D01*
X50550Y-29600D02*
X50700Y-29600D01*
X50700Y-29600D02*
X50700Y-30351D01*
X50700Y-30351D02*
X51300Y-30351D01*
X51300Y-30351D02*
X51300Y-29600D01*
X51300Y-29600D02*
X51450Y-29600D01*
X51450Y-29600D02*
X51450Y-30500D01*
X49900Y-30500D02*
X49000Y-30500D01*
X49000Y-30500D02*
X49000Y-29600D01*
X49000Y-29600D02*
X49150Y-29600D01*
X49150Y-29600D02*
X49150Y-30351D01*
X49150Y-30351D02*
X49750Y-30351D01*
X49750Y-30351D02*
X49750Y-29600D01*
X49750Y-29600D02*
X49900Y-29600D01*
X49900Y-29600D02*
X49900Y-30500D01*
X55100Y-33050D02*
X55100Y-33000D01*
X55100Y-33000D02*
X57100Y-33000D01*
X54300Y-31400D02*
X54700Y-31400D01*
X54700Y-31400D02*
X57100Y-31400D01*
X54449Y-31150D02*
X54449Y-29300D01*
X44900Y-31400D02*
X47300Y-31400D01*
X47300Y-31400D02*
X47700Y-31400D01*
X47551Y-31150D02*
X47551Y-29300D01*
X54150Y-31200D02*
X54150Y-29101D01*
X54150Y-29101D02*
X54250Y-29101D01*
X47850Y-31200D02*
X47850Y-29101D01*
X47850Y-29101D02*
X54150Y-29101D01*
G54D14*
X51000Y-36450D02*
X51000Y-36050D01*
X49920Y-36450D02*
X49920Y-36050D01*
X48840Y-36450D02*
X48840Y-36050D01*
X49380Y-35450D02*
X49380Y-35050D01*
X50460Y-35450D02*
X50460Y-35050D01*
X51540Y-35450D02*
X51540Y-35050D01*
X52080Y-36450D02*
X52080Y-36050D01*
X52620Y-35450D02*
X52620Y-35050D01*
X53160Y-36450D02*
X53160Y-36050D01*
G54D10*
X46529Y-36000D02*
X46520Y-36089D01*
X46494Y-36174D01*
X46452Y-36254D01*
X46395Y-36323D01*
X46326Y-36380D01*
X46247Y-36423D01*
X46162Y-36449D01*
X46073Y-36458D01*
X45984Y-36450D01*
X45899Y-36425D01*
X45819Y-36384D01*
X45749Y-36327D01*
X45692Y-36259D01*
X45649Y-36180D01*
X45622Y-36095D01*
X45612Y-36006D01*
X45619Y-35918D01*
X45644Y-35832D01*
X45685Y-35752D01*
X45740Y-35682D01*
X45809Y-35624D01*
X45887Y-35580D01*
X45972Y-35552D01*
X46061Y-35542D01*
X46149Y-35548D01*
X46235Y-35573D01*
X46315Y-35613D01*
X46386Y-35668D01*
X46445Y-35736D01*
X46489Y-35814D01*
X46517Y-35899D01*
X46528Y-35988D01*
X46529Y-36000D01*
X56389Y-36000D02*
X56380Y-36089D01*
X56354Y-36174D01*
X56312Y-36254D01*
X56255Y-36323D01*
X56186Y-36380D01*
X56107Y-36423D01*
X56022Y-36449D01*
X55933Y-36458D01*
X55844Y-36450D01*
X55759Y-36425D01*
X55679Y-36384D01*
X55609Y-36327D01*
X55552Y-36259D01*
X55509Y-36180D01*
X55482Y-36095D01*
X55472Y-36006D01*
X55479Y-35918D01*
X55504Y-35832D01*
X55545Y-35752D01*
X55600Y-35682D01*
X55669Y-35624D01*
X55747Y-35580D01*
X55832Y-35552D01*
X55921Y-35542D01*
X56009Y-35548D01*
X56095Y-35573D01*
X56175Y-35613D01*
X56246Y-35668D01*
X56305Y-35736D01*
X56349Y-35814D01*
X56377Y-35899D01*
X56388Y-35988D01*
X56389Y-36000D01*
X47750Y-29101D02*
X47733Y-29102D01*
X47716Y-29105D01*
X47699Y-29108D01*
X47682Y-29114D01*
X47666Y-29120D01*
X47651Y-29128D01*
X47636Y-29137D01*
X47623Y-29148D01*
X47610Y-29160D01*
X47598Y-29173D01*
X47587Y-29186D01*
X47578Y-29201D01*
X47570Y-29216D01*
X47564Y-29232D01*
X47558Y-29249D01*
X47555Y-29266D01*
X47552Y-29283D01*
X47551Y-29300D01*
X47552Y-29317D01*
X47555Y-29334D01*
X47558Y-29351D01*
X47564Y-29368D01*
X47570Y-29384D01*
X47578Y-29399D01*
X47587Y-29414D01*
X47598Y-29427D01*
X47610Y-29440D01*
X47623Y-29452D01*
X47636Y-29463D01*
X47651Y-29472D01*
X47666Y-29480D01*
X47682Y-29486D01*
X47699Y-29492D01*
X47716Y-29495D01*
X47733Y-29498D01*
X47750Y-29499D01*
X47767Y-29498D01*
X47784Y-29495D01*
X47801Y-29492D01*
X47818Y-29486D01*
X47834Y-29480D01*
X47849Y-29472D01*
X47864Y-29463D01*
X47877Y-29452D01*
X47890Y-29440D01*
X47902Y-29427D01*
X47913Y-29414D01*
X47922Y-29399D01*
X47930Y-29384D01*
X47936Y-29368D01*
X47942Y-29351D01*
X47945Y-29334D01*
X47948Y-29317D01*
X47949Y-29300D01*
X47948Y-29283D01*
X47945Y-29266D01*
X47942Y-29249D01*
X47936Y-29232D01*
X47930Y-29216D01*
X47922Y-29201D01*
X47913Y-29186D01*
X47902Y-29173D01*
X47890Y-29160D01*
X47877Y-29148D01*
X47864Y-29137D01*
X47849Y-29128D01*
X47834Y-29120D01*
X47818Y-29114D01*
X47801Y-29108D01*
X47784Y-29105D01*
X47767Y-29102D01*
X47750Y-29101D01*
X47733Y-29102D01*
X47716Y-29105D01*
X47699Y-29108D01*
X47682Y-29114D01*
X47666Y-29120D01*
X47651Y-29128D01*
X47636Y-29137D01*
X47623Y-29148D01*
X47610Y-29160D01*
X47598Y-29173D01*
X47587Y-29186D01*
X47578Y-29201D01*
X47570Y-29216D01*
X47564Y-29232D01*
X47558Y-29249D01*
X47555Y-29266D01*
X47552Y-29283D01*
X47551Y-29300D01*
X54449Y-29300D02*
X54448Y-29283D01*
X54445Y-29266D01*
X54442Y-29249D01*
X54436Y-29232D01*
X54430Y-29216D01*
X54422Y-29201D01*
X54413Y-29186D01*
X54402Y-29173D01*
X54390Y-29160D01*
X54377Y-29148D01*
X54364Y-29137D01*
X54349Y-29128D01*
X54334Y-29120D01*
X54318Y-29114D01*
X54301Y-29108D01*
X54284Y-29105D01*
X54267Y-29102D01*
X54250Y-29101D01*
X54233Y-29102D01*
X54216Y-29105D01*
X54199Y-29108D01*
X54182Y-29114D01*
X54166Y-29120D01*
X54151Y-29128D01*
X54136Y-29137D01*
X54123Y-29148D01*
X54110Y-29160D01*
X54098Y-29173D01*
X54087Y-29186D01*
X54078Y-29201D01*
X54070Y-29216D01*
X54064Y-29232D01*
X54058Y-29249D01*
X54055Y-29266D01*
X54052Y-29283D01*
X54051Y-29300D01*
X54052Y-29317D01*
X54055Y-29334D01*
X54058Y-29351D01*
X54064Y-29368D01*
X54070Y-29384D01*
X54078Y-29399D01*
X54087Y-29414D01*
X54098Y-29427D01*
X54110Y-29440D01*
X54123Y-29452D01*
X54136Y-29463D01*
X54151Y-29472D01*
X54166Y-29480D01*
X54182Y-29486D01*
X54199Y-29492D01*
X54216Y-29495D01*
X54233Y-29498D01*
X54250Y-29499D01*
X54267Y-29498D01*
X54284Y-29495D01*
X54301Y-29492D01*
X54318Y-29486D01*
X54334Y-29480D01*
X54349Y-29472D01*
X54364Y-29463D01*
X54377Y-29452D01*
X54390Y-29440D01*
X54402Y-29427D01*
X54413Y-29414D01*
X54422Y-29399D01*
X54430Y-29384D01*
X54436Y-29368D01*
X54442Y-29351D01*
X54445Y-29334D01*
X54448Y-29317D01*
X54449Y-29300D01*
X54448Y-29283D01*
X54445Y-29266D01*
X54442Y-29249D01*
X54436Y-29232D01*
X54430Y-29216D01*
X54422Y-29201D01*
X54413Y-29186D01*
X54402Y-29173D01*
X54390Y-29160D01*
X54377Y-29148D01*
X54364Y-29137D01*
X54349Y-29128D01*
X54334Y-29120D01*
X54318Y-29114D01*
X54301Y-29108D01*
X54284Y-29105D01*
X54267Y-29102D01*
X54250Y-29101D01*
X46950Y-32750D02*
X46951Y-32771D01*
X46954Y-32793D01*
X46959Y-32814D01*
X46966Y-32835D01*
X46974Y-32855D01*
X46984Y-32874D01*
X46996Y-32893D01*
X47009Y-32910D01*
X47024Y-32926D01*
X47040Y-32941D01*
X47057Y-32954D01*
X47076Y-32966D01*
X47095Y-32976D01*
X47115Y-32984D01*
X47136Y-32991D01*
X47157Y-32996D01*
X47179Y-32999D01*
X47200Y-33000D01*
X47221Y-32999D01*
X47243Y-32996D01*
X47264Y-32991D01*
X47285Y-32984D01*
X47305Y-32976D01*
X47324Y-32966D01*
X47343Y-32954D01*
X47360Y-32941D01*
X47376Y-32926D01*
X47391Y-32910D01*
X47404Y-32893D01*
X47416Y-32874D01*
X47426Y-32855D01*
X47434Y-32835D01*
X47441Y-32814D01*
X47446Y-32793D01*
X47449Y-32771D01*
X47450Y-32750D01*
X47449Y-32729D01*
X47446Y-32707D01*
X47441Y-32686D01*
X47434Y-32665D01*
X47426Y-32645D01*
X47416Y-32625D01*
X47404Y-32607D01*
X47391Y-32590D01*
X47376Y-32574D01*
X47360Y-32559D01*
X47343Y-32546D01*
X47325Y-32534D01*
X47305Y-32524D01*
X47285Y-32516D01*
X47264Y-32509D01*
X47243Y-32504D01*
X47221Y-32501D01*
X47200Y-32500D01*
X47179Y-32501D01*
X47157Y-32504D01*
X47136Y-32509D01*
X47115Y-32516D01*
X47095Y-32524D01*
X47075Y-32534D01*
X47057Y-32546D01*
X47040Y-32559D01*
X47024Y-32574D01*
X47009Y-32590D01*
X46996Y-32607D01*
X46984Y-32625D01*
X46974Y-32645D01*
X46966Y-32665D01*
X46959Y-32686D01*
X46954Y-32707D01*
X46951Y-32729D01*
X46950Y-32750D01*
X46951Y-32771D01*
X46954Y-32793D01*
X46959Y-32814D01*
X46966Y-32835D01*
X46974Y-32855D01*
X46984Y-32874D01*
X46996Y-32893D01*
X47009Y-32910D01*
X47024Y-32926D01*
X47040Y-32941D01*
X47057Y-32954D01*
X47076Y-32966D01*
X47095Y-32976D01*
X47115Y-32984D01*
X47136Y-32991D01*
X47157Y-32996D01*
X47179Y-32999D01*
X47200Y-33000D01*
X54800Y-33000D02*
X54821Y-32999D01*
X54843Y-32996D01*
X54864Y-32991D01*
X54885Y-32984D01*
X54905Y-32976D01*
X54924Y-32966D01*
X54943Y-32954D01*
X54960Y-32941D01*
X54976Y-32926D01*
X54991Y-32910D01*
X55004Y-32893D01*
X55016Y-32874D01*
X55026Y-32855D01*
X55034Y-32835D01*
X55041Y-32814D01*
X55046Y-32793D01*
X55049Y-32771D01*
X55050Y-32750D01*
X55049Y-32729D01*
X55046Y-32707D01*
X55041Y-32686D01*
X55034Y-32665D01*
X55026Y-32645D01*
X55016Y-32625D01*
X55004Y-32607D01*
X54991Y-32590D01*
X54976Y-32574D01*
X54960Y-32559D01*
X54943Y-32546D01*
X54925Y-32534D01*
X54905Y-32524D01*
X54885Y-32516D01*
X54864Y-32509D01*
X54843Y-32504D01*
X54821Y-32501D01*
X54800Y-32500D01*
X54779Y-32501D01*
X54757Y-32504D01*
X54736Y-32509D01*
X54715Y-32516D01*
X54695Y-32524D01*
X54675Y-32534D01*
X54657Y-32546D01*
X54640Y-32559D01*
X54624Y-32574D01*
X54609Y-32590D01*
X54596Y-32607D01*
X54584Y-32625D01*
X54574Y-32645D01*
X54566Y-32665D01*
X54559Y-32686D01*
X54554Y-32707D01*
X54551Y-32729D01*
X54550Y-32750D01*
X54551Y-32771D01*
X54554Y-32793D01*
X54559Y-32814D01*
X54566Y-32835D01*
X54574Y-32855D01*
X54584Y-32874D01*
X54596Y-32893D01*
X54609Y-32910D01*
X54624Y-32926D01*
X54640Y-32941D01*
X54657Y-32954D01*
X54676Y-32966D01*
X54695Y-32976D01*
X54715Y-32984D01*
X54736Y-32991D01*
X54757Y-32996D01*
X54779Y-32999D01*
X54800Y-33000D01*
X54821Y-32999D01*
X54843Y-32996D01*
X54864Y-32991D01*
X54885Y-32984D01*
X54905Y-32976D01*
X54925Y-32966D01*
X54943Y-32954D01*
X54960Y-32941D01*
X54976Y-32926D01*
X54991Y-32910D01*
X55004Y-32893D01*
X55016Y-32874D01*
X55026Y-32855D01*
X55034Y-32835D01*
X55041Y-32814D01*
X55046Y-32793D01*
X55049Y-32771D01*
X55050Y-32750D01*
X54450Y-31150D02*
X54451Y-31171D01*
X54454Y-31193D01*
X54459Y-31214D01*
X54466Y-31235D01*
X54474Y-31255D01*
X54484Y-31274D01*
X54496Y-31293D01*
X54509Y-31310D01*
X54524Y-31326D01*
X54540Y-31341D01*
X54557Y-31354D01*
X54576Y-31366D01*
X54595Y-31376D01*
X54615Y-31384D01*
X54636Y-31391D01*
X54657Y-31396D01*
X54679Y-31399D01*
X54700Y-31400D01*
X54721Y-31399D01*
X54743Y-31396D01*
X54764Y-31391D01*
X54785Y-31384D01*
X54805Y-31376D01*
X54824Y-31366D01*
X54843Y-31354D01*
X54860Y-31341D01*
X54876Y-31326D01*
X54891Y-31310D01*
X54904Y-31293D01*
X54916Y-31274D01*
X54926Y-31255D01*
X54934Y-31235D01*
X54941Y-31214D01*
X54946Y-31193D01*
X54949Y-31171D01*
X54950Y-31150D01*
X54949Y-31129D01*
X54946Y-31107D01*
X54941Y-31086D01*
X54934Y-31065D01*
X54926Y-31045D01*
X54916Y-31025D01*
X54904Y-31007D01*
X54891Y-30990D01*
X54876Y-30974D01*
X54860Y-30959D01*
X54843Y-30946D01*
X54825Y-30934D01*
X54805Y-30924D01*
X54785Y-30916D01*
X54764Y-30909D01*
X54743Y-30904D01*
X54721Y-30901D01*
X54700Y-30900D01*
X54679Y-30901D01*
X54657Y-30904D01*
X54636Y-30909D01*
X54615Y-30916D01*
X54595Y-30924D01*
X54575Y-30934D01*
X54557Y-30946D01*
X54540Y-30959D01*
X54524Y-30974D01*
X54509Y-30990D01*
X54496Y-31007D01*
X54484Y-31025D01*
X54474Y-31045D01*
X54466Y-31065D01*
X54459Y-31086D01*
X54454Y-31107D01*
X54451Y-31129D01*
X54450Y-31150D01*
X54451Y-31171D01*
X54454Y-31193D01*
X54459Y-31214D01*
X54466Y-31235D01*
X54474Y-31255D01*
X54484Y-31274D01*
X54496Y-31293D01*
X54509Y-31310D01*
X54524Y-31326D01*
X54540Y-31341D01*
X54557Y-31354D01*
X54576Y-31366D01*
X54595Y-31376D01*
X54615Y-31384D01*
X54636Y-31391D01*
X54657Y-31396D01*
X54679Y-31399D01*
X54700Y-31400D01*
X47300Y-31401D02*
X47321Y-31400D01*
X47343Y-31397D01*
X47364Y-31392D01*
X47385Y-31385D01*
X47406Y-31377D01*
X47425Y-31367D01*
X47443Y-31355D01*
X47461Y-31342D01*
X47477Y-31327D01*
X47492Y-31311D01*
X47505Y-31293D01*
X47517Y-31275D01*
X47527Y-31256D01*
X47535Y-31235D01*
X47542Y-31214D01*
X47547Y-31193D01*
X47550Y-31171D01*
X47551Y-31150D01*
X47550Y-31129D01*
X47547Y-31107D01*
X47542Y-31086D01*
X47535Y-31065D01*
X47527Y-31044D01*
X47517Y-31025D01*
X47505Y-31007D01*
X47492Y-30989D01*
X47477Y-30973D01*
X47461Y-30958D01*
X47443Y-30945D01*
X47425Y-30933D01*
X47406Y-30923D01*
X47385Y-30915D01*
X47364Y-30908D01*
X47343Y-30903D01*
X47321Y-30900D01*
X47300Y-30899D01*
X47279Y-30900D01*
X47257Y-30903D01*
X47236Y-30908D01*
X47215Y-30915D01*
X47194Y-30923D01*
X47175Y-30933D01*
X47157Y-30945D01*
X47139Y-30958D01*
X47123Y-30973D01*
X47108Y-30989D01*
X47095Y-31007D01*
X47083Y-31025D01*
X47073Y-31044D01*
X47065Y-31065D01*
X47058Y-31086D01*
X47053Y-31107D01*
X47050Y-31129D01*
X47049Y-31150D01*
X47050Y-31171D01*
X47053Y-31193D01*
X47058Y-31214D01*
X47065Y-31235D01*
X47073Y-31256D01*
X47083Y-31275D01*
X47095Y-31293D01*
X47108Y-31311D01*
X47123Y-31327D01*
X47139Y-31342D01*
X47157Y-31355D01*
X47175Y-31367D01*
X47194Y-31377D01*
X47215Y-31385D01*
X47236Y-31392D01*
X47257Y-31397D01*
X47279Y-31400D01*
X47300Y-31401D01*
X47321Y-31400D01*
X47343Y-31397D01*
X47364Y-31392D01*
X47385Y-31385D01*
X47406Y-31377D01*
X47425Y-31367D01*
X47443Y-31355D01*
X47461Y-31342D01*
X47477Y-31327D01*
X47492Y-31311D01*
X47505Y-31293D01*
X47517Y-31275D01*
X47527Y-31256D01*
X47535Y-31235D01*
X47542Y-31214D01*
X47547Y-31193D01*
X47550Y-31171D01*
X47551Y-31150D01*
G54D13*
X57300Y-44750D02*
X57300Y-44250D01*
X57300Y-44250D02*
X57000Y-44250D01*
X57000Y-44750D02*
X57000Y-44250D01*
X57300Y-44750D02*
X57000Y-44750D01*
X56000Y-44750D02*
X56000Y-44250D01*
X56000Y-44250D02*
X55000Y-44250D01*
X55000Y-44750D02*
X55000Y-44250D01*
X56000Y-44750D02*
X55000Y-44750D01*
X54000Y-44750D02*
X54000Y-44250D01*
X54000Y-44250D02*
X53000Y-44250D01*
X53000Y-44750D02*
X53000Y-44250D01*
X54000Y-44750D02*
X53000Y-44750D01*
X57000Y-44750D02*
X57000Y-44250D01*
X57000Y-44250D02*
X56000Y-44250D01*
X56000Y-44750D02*
X56000Y-44250D01*
X57000Y-44750D02*
X56000Y-44750D01*
X55000Y-44750D02*
X55000Y-44250D01*
X55000Y-44250D02*
X54000Y-44250D01*
X54000Y-44750D02*
X54000Y-44250D01*
X55000Y-44750D02*
X54000Y-44750D01*
X54000Y-44750D02*
X54000Y-44250D01*
X54000Y-44250D02*
X53350Y-44250D01*
X53350Y-44750D02*
X53350Y-44250D01*
X54000Y-44750D02*
X53350Y-44750D01*
X62500Y-43150D02*
X62500Y-42900D01*
X62500Y-42900D02*
X62050Y-42900D01*
X62050Y-43150D02*
X62050Y-42900D01*
X62500Y-43150D02*
X62050Y-43150D01*
X62050Y-43150D02*
X62050Y-42900D01*
X62050Y-42900D02*
X59500Y-42900D01*
X59500Y-43150D02*
X59500Y-42900D01*
X62050Y-43150D02*
X59500Y-43150D01*
X62500Y-44900D02*
X62500Y-44100D01*
X62500Y-44100D02*
X61000Y-44100D01*
X61000Y-44900D02*
X61000Y-44100D01*
X62500Y-44900D02*
X61000Y-44900D01*
X62500Y-45000D02*
X62500Y-44900D01*
X62500Y-44900D02*
X61000Y-44900D01*
X61000Y-45000D02*
X61000Y-44900D01*
X62500Y-45000D02*
X61000Y-45000D01*
X62500Y-44100D02*
X62500Y-44000D01*
X62500Y-44000D02*
X61000Y-44000D01*
X61000Y-44100D02*
X61000Y-44000D01*
X62500Y-44100D02*
X61000Y-44100D01*
X62500Y-46100D02*
X62500Y-45850D01*
X62500Y-45850D02*
X62050Y-45850D01*
X62050Y-46100D02*
X62050Y-45850D01*
X62500Y-46100D02*
X62050Y-46100D01*
X62050Y-46100D02*
X62050Y-45850D01*
X62050Y-45850D02*
X59500Y-45850D01*
X59500Y-46100D02*
X59500Y-45850D01*
X62050Y-46100D02*
X59500Y-46100D01*
G54D10*
X62500Y-46100D02*
X58300Y-46100D01*
X62500Y-46100D02*
X62500Y-45950D01*
X62500Y-45950D02*
X62600Y-45950D01*
X62600Y-43050D02*
X62600Y-43150D01*
X62600Y-43050D02*
X62500Y-43050D01*
X62500Y-43050D02*
X62500Y-42900D01*
X62600Y-45850D02*
X62850Y-45850D01*
X62600Y-45850D02*
X62600Y-45950D01*
X62850Y-43150D02*
X62850Y-43500D01*
X62850Y-43150D02*
X62600Y-43150D01*
X65300Y-43500D02*
X65300Y-44400D01*
X65300Y-45500D02*
X65450Y-45350D01*
X65450Y-45350D02*
X65450Y-44850D01*
X65300Y-43500D02*
X65450Y-43650D01*
X65300Y-44400D02*
X62850Y-44400D01*
X65300Y-44400D02*
X65300Y-44600D01*
X62850Y-44400D02*
X62850Y-44600D01*
X65300Y-44600D02*
X62850Y-44600D01*
X65300Y-44600D02*
X65300Y-45500D01*
X65450Y-44850D02*
X67500Y-45000D01*
X67500Y-44000D02*
X65450Y-44150D01*
X65450Y-44150D02*
X65450Y-43650D01*
X65450Y-44850D02*
X65450Y-44150D01*
X58250Y-42950D02*
X58250Y-43500D01*
X58300Y-43500D02*
X58250Y-43500D01*
X58300Y-45500D02*
X58250Y-45500D01*
X58250Y-42950D02*
X58300Y-42900D01*
X58300Y-42900D02*
X62500Y-42900D01*
X58300Y-46100D02*
X58250Y-46050D01*
X58250Y-46050D02*
X58250Y-45500D01*
X58300Y-45500D02*
X58300Y-43500D01*
X62850Y-43500D02*
X63050Y-43500D01*
X63050Y-43500D02*
X65300Y-43500D01*
X62850Y-43500D02*
X62850Y-43950D01*
X62850Y-43950D02*
X62850Y-44400D01*
X62600Y-43150D02*
X62600Y-44050D01*
X62500Y-43050D02*
X62500Y-44050D01*
X62500Y-44900D02*
X62500Y-44050D01*
X62500Y-44900D02*
X62500Y-45950D01*
X62600Y-44950D02*
X62600Y-44050D01*
X62600Y-44950D02*
X62600Y-45850D01*
X62850Y-45050D02*
X62850Y-44600D01*
X62850Y-45050D02*
X62850Y-45500D01*
X62850Y-45500D02*
X62850Y-45850D01*
X62850Y-45500D02*
X63050Y-45500D01*
X63050Y-45500D02*
X65300Y-45500D01*
X67500Y-45000D02*
X67543Y-44998D01*
X67586Y-44992D01*
X67629Y-44982D01*
X67671Y-44969D01*
X67711Y-44953D01*
X67749Y-44933D01*
X67786Y-44909D01*
X67821Y-44883D01*
X67853Y-44853D01*
X67883Y-44821D01*
X67909Y-44786D01*
X67933Y-44749D01*
X67953Y-44711D01*
X67969Y-44671D01*
X67982Y-44629D01*
X67992Y-44586D01*
X67998Y-44543D01*
X68000Y-44500D01*
X67998Y-44457D01*
X67992Y-44414D01*
X67982Y-44371D01*
X67969Y-44329D01*
X67953Y-44289D01*
X67933Y-44250D01*
X67909Y-44214D01*
X67883Y-44179D01*
X67853Y-44147D01*
X67821Y-44117D01*
X67786Y-44091D01*
X67750Y-44067D01*
X67711Y-44047D01*
X67671Y-44031D01*
X67629Y-44018D01*
X67586Y-44008D01*
X67543Y-44002D01*
X67500Y-44000D01*
X67457Y-44002D01*
X67414Y-44008D01*
X67371Y-44018D01*
X67329Y-44031D01*
X67289Y-44047D01*
X67250Y-44067D01*
X67214Y-44091D01*
X67179Y-44117D01*
X67147Y-44147D01*
X67117Y-44179D01*
X67091Y-44214D01*
X67067Y-44250D01*
X67047Y-44289D01*
X67031Y-44329D01*
X67018Y-44371D01*
X67008Y-44414D01*
X67002Y-44457D01*
X67000Y-44500D01*
X67002Y-44543D01*
X67008Y-44586D01*
X67018Y-44629D01*
X67031Y-44671D01*
X67047Y-44711D01*
X67067Y-44749D01*
X67091Y-44786D01*
X67117Y-44821D01*
X67147Y-44853D01*
X67179Y-44883D01*
X67214Y-44909D01*
X67251Y-44933D01*
X67289Y-44953D01*
X67329Y-44969D01*
X67371Y-44982D01*
X67414Y-44992D01*
X67457Y-44998D01*
X67500Y-45000D01*
X67543Y-44998D01*
X67586Y-44992D01*
X67629Y-44982D01*
X67671Y-44969D01*
X67711Y-44953D01*
X67750Y-44933D01*
X67786Y-44909D01*
X67821Y-44883D01*
X67853Y-44853D01*
X67883Y-44821D01*
X67909Y-44786D01*
X67933Y-44749D01*
X67953Y-44711D01*
X67969Y-44671D01*
X67982Y-44629D01*
X67992Y-44586D01*
X67998Y-44543D01*
X68000Y-44500D01*
X67998Y-44457D01*
X67992Y-44414D01*
X67982Y-44371D01*
X67969Y-44329D01*
X67953Y-44289D01*
X67933Y-44251D01*
X67909Y-44214D01*
X67883Y-44179D01*
X67853Y-44147D01*
X67821Y-44117D01*
X67786Y-44091D01*
X67750Y-44067D01*
X67711Y-44047D01*
X67671Y-44031D01*
X67629Y-44018D01*
X67586Y-44008D01*
X67543Y-44002D01*
X67500Y-44000D01*
G54D15*
X44561Y-44500D02*
X44521Y-44900D01*
X44405Y-45285D01*
X44216Y-45640D01*
X43962Y-45952D01*
X43652Y-46208D01*
X43298Y-46399D01*
X42914Y-46518D01*
X42514Y-46560D01*
X42114Y-46524D01*
X41728Y-46410D01*
X41372Y-46224D01*
X41058Y-45972D01*
X40800Y-45664D01*
X40606Y-45311D01*
X40485Y-44928D01*
X40440Y-44528D01*
X40473Y-44128D01*
X40584Y-43742D01*
X40768Y-43384D01*
X41018Y-43069D01*
X41324Y-42808D01*
X41675Y-42612D01*
X42058Y-42488D01*
X42457Y-42440D01*
X42857Y-42471D01*
X43245Y-42579D01*
X43604Y-42760D01*
X43921Y-43008D01*
X44184Y-43312D01*
X44382Y-43662D01*
X44509Y-44044D01*
X44560Y-44443D01*
X44561Y-44500D01*
G54D13*
X42050Y-44600D02*
X42050Y-44850D01*
X42050Y-44850D02*
X42950Y-44850D01*
X42950Y-44600D02*
X42950Y-44850D01*
X42050Y-44600D02*
X42950Y-44600D01*
G54D10*
X42500Y-44050D02*
X42500Y-44150D01*
X42500Y-44150D02*
X42050Y-44150D01*
X42050Y-44150D02*
X42050Y-44400D01*
X42050Y-44400D02*
X42950Y-44400D01*
X42950Y-44400D02*
X42950Y-44150D01*
X42950Y-44150D02*
X42500Y-44150D01*
X42500Y-44750D02*
X42500Y-44950D01*
X42650Y-42000D02*
X42350Y-42000D01*
X42500Y-42150D02*
X42500Y-41850D01*
X42500Y-44950D02*
X42500Y-45150D01*
X42500Y-43850D02*
X42500Y-44050D01*
G54D15*
X44650Y-58900D02*
X57350Y-58900D01*
X57350Y-58900D02*
X57350Y-53150D01*
X57350Y-53150D02*
X44650Y-53150D01*
X44650Y-53150D02*
X44650Y-58900D01*
G54D13*
X53250Y-55000D02*
X53750Y-55000D01*
X53750Y-55000D02*
X54000Y-55250D01*
X54000Y-55750D02*
X53750Y-56000D01*
X52000Y-55250D02*
X52250Y-55000D01*
X52250Y-55000D02*
X52750Y-55000D01*
X52750Y-55000D02*
X53000Y-55250D01*
X53000Y-55750D02*
X52750Y-56000D01*
X52750Y-56000D02*
X52250Y-56000D01*
X52250Y-56000D02*
X52000Y-55750D01*
X53250Y-55000D02*
X53000Y-55250D01*
X53000Y-55750D02*
X53250Y-56000D01*
X53750Y-56000D02*
X53250Y-56000D01*
X50250Y-55000D02*
X50750Y-55000D01*
X50750Y-55000D02*
X51000Y-55250D01*
X51000Y-55750D02*
X50750Y-56000D01*
X51000Y-55250D02*
X51250Y-55000D01*
X51250Y-55000D02*
X51750Y-55000D01*
X51750Y-55000D02*
X52000Y-55250D01*
X52000Y-55750D02*
X51750Y-56000D01*
X51750Y-56000D02*
X51250Y-56000D01*
X51250Y-56000D02*
X51000Y-55750D01*
X49000Y-55250D02*
X49250Y-55000D01*
X49250Y-55000D02*
X49750Y-55000D01*
X49750Y-55000D02*
X50000Y-55250D01*
X50000Y-55750D02*
X49750Y-56000D01*
X49750Y-56000D02*
X49250Y-56000D01*
X49250Y-56000D02*
X49000Y-55750D01*
X50250Y-55000D02*
X50000Y-55250D01*
X50000Y-55750D02*
X50250Y-56000D01*
X50750Y-56000D02*
X50250Y-56000D01*
X47250Y-55000D02*
X47750Y-55000D01*
X47750Y-55000D02*
X48000Y-55250D01*
X48000Y-55750D02*
X47750Y-56000D01*
X48000Y-55250D02*
X48250Y-55000D01*
X48250Y-55000D02*
X48750Y-55000D01*
X48750Y-55000D02*
X49000Y-55250D01*
X49000Y-55750D02*
X48750Y-56000D01*
X48750Y-56000D02*
X48250Y-56000D01*
X48250Y-56000D02*
X48000Y-55750D01*
X47000Y-55250D02*
X47000Y-55750D01*
X47250Y-55000D02*
X47000Y-55250D01*
X47000Y-55750D02*
X47250Y-56000D01*
X47750Y-56000D02*
X47250Y-56000D01*
X54250Y-55000D02*
X54750Y-55000D01*
X54750Y-55000D02*
X55000Y-55250D01*
X55000Y-55250D02*
X55000Y-55750D01*
X55000Y-55750D02*
X54750Y-56000D01*
X54250Y-55000D02*
X54000Y-55250D01*
X54000Y-55750D02*
X54250Y-56000D01*
X54750Y-56000D02*
X54250Y-56000D01*
G54D15*
X55000Y-43300D02*
X55000Y-39700D01*
X55000Y-39700D02*
X47000Y-39700D01*
X47000Y-39700D02*
X47000Y-43300D01*
X47000Y-43300D02*
X55000Y-43300D01*
X53000Y-39500D02*
X53500Y-38900D01*
X53500Y-38900D02*
X52500Y-38900D01*
X52500Y-38900D02*
X53000Y-39500D01*
X60250Y-40250D02*
X63000Y-40250D01*
X60250Y-40250D02*
X60250Y-37750D01*
X60250Y-37750D02*
X63000Y-37750D01*
X63000Y-40250D02*
X63000Y-37750D01*
G54D12*
X45950Y-37393D02*
X45950Y-37821D01*
X45922Y-37907D01*
X45865Y-37964D01*
X45779Y-37993D01*
X45722Y-37993D01*
X46550Y-37993D02*
X46207Y-37993D01*
X46379Y-37993D02*
X46379Y-37393D01*
X46322Y-37479D01*
X46264Y-37536D01*
X46207Y-37564D01*
G54D16*
X54143Y-36452D02*
X53857Y-36452D01*
X54000Y-36452D02*
X54000Y-35952D01*
X53952Y-36024D01*
X53905Y-36071D01*
X53857Y-36095D01*
X48270Y-35952D02*
X48032Y-35952D01*
X48008Y-36190D01*
X48032Y-36167D01*
X48080Y-36143D01*
X48199Y-36143D01*
X48246Y-36167D01*
X48270Y-36190D01*
X48294Y-36238D01*
X48294Y-36357D01*
X48270Y-36405D01*
X48246Y-36429D01*
X48199Y-36452D01*
X48080Y-36452D01*
X48032Y-36429D01*
X48008Y-36405D01*
X48056Y-35452D02*
X48151Y-35452D01*
X48199Y-35429D01*
X48223Y-35405D01*
X48270Y-35333D01*
X48294Y-35238D01*
X48294Y-35048D01*
X48270Y-35000D01*
X48246Y-34976D01*
X48199Y-34952D01*
X48103Y-34952D01*
X48056Y-34976D01*
X48032Y-35000D01*
X48008Y-35048D01*
X48008Y-35167D01*
X48032Y-35214D01*
X48056Y-35238D01*
X48103Y-35262D01*
X48199Y-35262D01*
X48246Y-35238D01*
X48270Y-35214D01*
X48294Y-35167D01*
X54095Y-34902D02*
X54000Y-34902D01*
X53952Y-34926D01*
X53929Y-34950D01*
X53881Y-35021D01*
X53857Y-35117D01*
X53857Y-35307D01*
X53881Y-35355D01*
X53905Y-35379D01*
X53952Y-35402D01*
X54048Y-35402D01*
X54095Y-35379D01*
X54119Y-35355D01*
X54143Y-35307D01*
X54143Y-35188D01*
X54119Y-35140D01*
X54095Y-35117D01*
X54048Y-35093D01*
X53952Y-35093D01*
X53905Y-35117D01*
X53881Y-35140D01*
X53857Y-35188D01*
G54D12*
X52729Y-32743D02*
X52729Y-32143D01*
X52929Y-32571D01*
X53129Y-32143D01*
X53129Y-32743D01*
X53529Y-32143D02*
X53586Y-32143D01*
X53643Y-32171D01*
X53672Y-32200D01*
X53701Y-32257D01*
X53729Y-32371D01*
X53729Y-32514D01*
X53701Y-32629D01*
X53672Y-32686D01*
X53643Y-32714D01*
X53586Y-32743D01*
X53529Y-32743D01*
X53472Y-32714D01*
X53443Y-32686D01*
X53415Y-32629D01*
X53386Y-32514D01*
X53386Y-32371D01*
X53415Y-32257D01*
X53443Y-32200D01*
X53472Y-32171D01*
X53529Y-32143D01*
X54014Y-32743D02*
X54129Y-32743D01*
X54186Y-32714D01*
X54214Y-32686D01*
X54272Y-32600D01*
X54300Y-32486D01*
X54300Y-32257D01*
X54272Y-32200D01*
X54243Y-32171D01*
X54186Y-32143D01*
X54072Y-32143D01*
X54014Y-32171D01*
X53986Y-32200D01*
X53957Y-32257D01*
X53957Y-32400D01*
X53986Y-32457D01*
X54014Y-32486D01*
X54072Y-32514D01*
X54186Y-32514D01*
X54243Y-32486D01*
X54272Y-32457D01*
X54300Y-32400D01*
X56200Y-43214D02*
X56286Y-43243D01*
X56429Y-43243D01*
X56486Y-43214D01*
X56515Y-43186D01*
X56543Y-43129D01*
X56543Y-43071D01*
X56515Y-43014D01*
X56486Y-42986D01*
X56429Y-42957D01*
X56315Y-42929D01*
X56257Y-42900D01*
X56229Y-42871D01*
X56200Y-42814D01*
X56200Y-42757D01*
X56229Y-42700D01*
X56257Y-42671D01*
X56315Y-42643D01*
X56457Y-42643D01*
X56543Y-42671D01*
X56743Y-42643D02*
X56886Y-43243D01*
X57000Y-42814D01*
X57114Y-43243D01*
X57257Y-42643D01*
X57800Y-43243D02*
X57457Y-43243D01*
X57629Y-43243D02*
X57629Y-42643D01*
X57572Y-42729D01*
X57514Y-42786D01*
X57457Y-42814D01*
X42401Y-47686D02*
X42372Y-47714D01*
X42286Y-47743D01*
X42229Y-47743D01*
X42144Y-47714D01*
X42086Y-47657D01*
X42058Y-47600D01*
X42029Y-47486D01*
X42029Y-47400D01*
X42058Y-47286D01*
X42086Y-47229D01*
X42144Y-47171D01*
X42229Y-47143D01*
X42286Y-47143D01*
X42372Y-47171D01*
X42401Y-47200D01*
X42972Y-47743D02*
X42629Y-47743D01*
X42801Y-47743D02*
X42801Y-47143D01*
X42744Y-47229D01*
X42686Y-47286D01*
X42629Y-47314D01*
X55558Y-52743D02*
X55558Y-52143D01*
X55786Y-52143D01*
X55844Y-52171D01*
X55872Y-52200D01*
X55901Y-52257D01*
X55901Y-52343D01*
X55872Y-52400D01*
X55844Y-52429D01*
X55786Y-52457D01*
X55558Y-52457D01*
X56129Y-52200D02*
X56158Y-52171D01*
X56215Y-52143D01*
X56358Y-52143D01*
X56415Y-52171D01*
X56444Y-52200D01*
X56472Y-52257D01*
X56472Y-52314D01*
X56444Y-52400D01*
X56101Y-52743D01*
X56472Y-52743D01*
G54D17*
X50705Y-43962D02*
X50705Y-43562D01*
X50858Y-43562D01*
X50896Y-43581D01*
X50915Y-43600D01*
X50934Y-43638D01*
X50934Y-43695D01*
X50915Y-43733D01*
X50896Y-43752D01*
X50858Y-43771D01*
X50705Y-43771D01*
X51315Y-43962D02*
X51086Y-43962D01*
X51200Y-43962D02*
X51200Y-43562D01*
X51162Y-43619D01*
X51124Y-43657D01*
X51086Y-43676D01*
X52886Y-42600D02*
X52905Y-42581D01*
X52943Y-42562D01*
X53039Y-42562D01*
X53077Y-42581D01*
X53096Y-42600D01*
X53115Y-42638D01*
X53115Y-42676D01*
X53096Y-42733D01*
X52867Y-42962D01*
X53115Y-42962D01*
X48924Y-42962D02*
X48695Y-42962D01*
X48809Y-42962D02*
X48809Y-42562D01*
X48771Y-42619D01*
X48733Y-42657D01*
X48695Y-42676D01*
X49171Y-42562D02*
X49210Y-42562D01*
X49248Y-42581D01*
X49267Y-42600D01*
X49286Y-42638D01*
X49305Y-42714D01*
X49305Y-42810D01*
X49286Y-42886D01*
X49267Y-42924D01*
X49248Y-42943D01*
X49210Y-42962D01*
X49171Y-42962D01*
X49133Y-42943D01*
X49114Y-42924D01*
X49095Y-42886D01*
X49076Y-42810D01*
X49076Y-42714D01*
X49095Y-42638D01*
X49114Y-42600D01*
X49133Y-42581D01*
X49171Y-42562D01*
X48924Y-40262D02*
X49000Y-40262D01*
X49039Y-40243D01*
X49058Y-40224D01*
X49096Y-40167D01*
X49115Y-40090D01*
X49115Y-39938D01*
X49096Y-39900D01*
X49077Y-39881D01*
X49039Y-39862D01*
X48962Y-39862D01*
X48924Y-39881D01*
X48905Y-39900D01*
X48886Y-39938D01*
X48886Y-40033D01*
X48905Y-40071D01*
X48924Y-40090D01*
X48962Y-40110D01*
X49039Y-40110D01*
X49077Y-40090D01*
X49096Y-40071D01*
X49115Y-40033D01*
G54D12*
X60558Y-41243D02*
X60558Y-40643D01*
X60786Y-40643D01*
X60844Y-40671D01*
X60872Y-40700D01*
X60901Y-40757D01*
X60901Y-40843D01*
X60872Y-40900D01*
X60844Y-40929D01*
X60786Y-40957D01*
X60558Y-40957D01*
X61101Y-40643D02*
X61472Y-40643D01*
X61272Y-40871D01*
X61358Y-40871D01*
X61415Y-40900D01*
X61444Y-40929D01*
X61472Y-40986D01*
X61472Y-41129D01*
X61444Y-41186D01*
X61415Y-41214D01*
X61358Y-41243D01*
X61186Y-41243D01*
X61129Y-41214D01*
X61101Y-41186D01*
M02*
