G04 (created by PCBNEW-RS274X (2010-03-14)-final) date Tue 08 Feb 2011 04:32:16 PM PST*
G01*
G70*
G90*
%MOIN*%
G04 Gerber Fmt 3.4, Leading zero omitted, Abs format*
%FSLAX34Y34*%
G04 APERTURE LIST*
%ADD10C,0.006000*%
%ADD11C,0.009000*%
%ADD12C,0.060000*%
%ADD13C,0.200000*%
%ADD14O,0.109500X0.109500*%
%ADD15C,0.109500*%
%ADD16C,0.100000*%
%ADD17R,0.060000X0.060000*%
%ADD18R,0.070000X0.070000*%
%ADD19C,0.070000*%
%ADD20C,0.300000*%
%ADD21C,0.073000*%
%ADD22R,0.073000X0.073000*%
%ADD23C,0.053000*%
%ADD24C,0.008000*%
%ADD25C,0.010000*%
G04 APERTURE END LIST*
G54D10*
G54D11*
X38500Y-39000D02*
X38500Y-56500D01*
X63500Y-39000D02*
X38500Y-39000D01*
X63500Y-56500D02*
X63500Y-39000D01*
X38500Y-56500D02*
X63500Y-56500D01*
G54D12*
X53160Y-42500D03*
X52080Y-42500D03*
X51000Y-42500D03*
X49920Y-42500D03*
X48840Y-42500D03*
X52620Y-41500D03*
X51540Y-41500D03*
X50460Y-41500D03*
X49380Y-41500D03*
G54D13*
X55930Y-42000D03*
X46070Y-42000D03*
G54D14*
X57500Y-49750D03*
X55500Y-49750D03*
X53500Y-49750D03*
G54D15*
X62500Y-50750D03*
X62500Y-48750D03*
G54D16*
X41000Y-48000D03*
X41000Y-50000D03*
G54D17*
X47500Y-54000D03*
G54D12*
X48500Y-54000D03*
X49500Y-54000D03*
X50500Y-54000D03*
X51500Y-54000D03*
X52500Y-54000D03*
X53500Y-54000D03*
X54500Y-54000D03*
G54D18*
X53000Y-45750D03*
G54D19*
X53000Y-46750D03*
X52000Y-45750D03*
X52000Y-46750D03*
X51000Y-45750D03*
X51000Y-46750D03*
X50000Y-45750D03*
X50000Y-46750D03*
X49000Y-45750D03*
X49000Y-46750D03*
G54D20*
X41000Y-44000D03*
X61000Y-44000D03*
X41000Y-54000D03*
X61000Y-54000D03*
G54D21*
X60500Y-40750D03*
G54D22*
X61500Y-40750D03*
G54D23*
X61500Y-39750D03*
X60500Y-39750D03*
G54D24*
X53160Y-45097D02*
X53160Y-42500D01*
X53000Y-45257D02*
X53160Y-45097D01*
X53000Y-45750D02*
X53000Y-45257D01*
X51000Y-45750D02*
X51000Y-42500D01*
X51500Y-41540D02*
X51540Y-41500D01*
X51500Y-46250D02*
X51500Y-41540D01*
X52000Y-46750D02*
X51500Y-46250D01*
X50500Y-41540D02*
X50460Y-41500D01*
X50500Y-46250D02*
X50500Y-41540D01*
X51000Y-46750D02*
X50500Y-46250D01*
X48500Y-49250D02*
X51000Y-46750D01*
X48500Y-54000D02*
X48500Y-49250D01*
X52000Y-42580D02*
X52080Y-42500D01*
X52000Y-45750D02*
X52000Y-42580D01*
X50000Y-42580D02*
X49920Y-42500D01*
X50000Y-45750D02*
X50000Y-42580D01*
X49380Y-44103D02*
X49380Y-41500D01*
X49496Y-44219D02*
X49380Y-44103D01*
X49496Y-46246D02*
X49496Y-44219D01*
X50000Y-46750D02*
X49496Y-46246D01*
G54D25*
X61626Y-39244D02*
X61626Y-39244D01*
X38745Y-39324D02*
X60198Y-39324D01*
X61802Y-39324D02*
X63255Y-39324D01*
X38745Y-39404D02*
X60118Y-39404D01*
X61882Y-39404D02*
X63255Y-39404D01*
X38745Y-39484D02*
X60054Y-39484D01*
X61948Y-39484D02*
X63255Y-39484D01*
X38745Y-39564D02*
X60020Y-39564D01*
X61981Y-39564D02*
X63255Y-39564D01*
X38745Y-39644D02*
X59987Y-39644D01*
X62014Y-39644D02*
X63255Y-39644D01*
X38745Y-39724D02*
X59985Y-39724D01*
X62015Y-39724D02*
X63255Y-39724D01*
X38745Y-39804D02*
X59985Y-39804D01*
X62015Y-39804D02*
X63255Y-39804D01*
X38745Y-39884D02*
X59998Y-39884D01*
X62002Y-39884D02*
X63255Y-39884D01*
X38745Y-39964D02*
X60031Y-39964D01*
X61968Y-39964D02*
X63255Y-39964D01*
X38745Y-40044D02*
X60066Y-40044D01*
X61933Y-40044D02*
X63255Y-40044D01*
X38745Y-40124D02*
X60146Y-40124D01*
X61853Y-40124D02*
X63255Y-40124D01*
X38745Y-40204D02*
X60211Y-40204D01*
X62036Y-40204D02*
X63255Y-40204D01*
X38745Y-40284D02*
X60097Y-40284D01*
X62093Y-40284D02*
X63255Y-40284D01*
X38745Y-40364D02*
X60017Y-40364D01*
X62114Y-40364D02*
X63255Y-40364D01*
X38745Y-40444D02*
X59962Y-40444D01*
X62115Y-40444D02*
X63255Y-40444D01*
X38745Y-40524D02*
X59928Y-40524D01*
X62115Y-40524D02*
X63255Y-40524D01*
X38745Y-40604D02*
X59895Y-40604D01*
X62115Y-40604D02*
X63255Y-40604D01*
X38745Y-40684D02*
X59885Y-40684D01*
X62069Y-40684D02*
X63255Y-40684D01*
X38745Y-40764D02*
X45790Y-40764D01*
X46352Y-40764D02*
X55650Y-40764D01*
X56212Y-40764D02*
X59885Y-40764D01*
X61450Y-40764D02*
X63255Y-40764D01*
X38745Y-40844D02*
X45596Y-40844D01*
X46545Y-40844D02*
X55456Y-40844D01*
X56405Y-40844D02*
X59885Y-40844D01*
X61450Y-40844D02*
X61550Y-40844D01*
X62097Y-40844D02*
X63255Y-40844D01*
X38745Y-40924D02*
X45402Y-40924D01*
X46738Y-40924D02*
X55262Y-40924D01*
X56598Y-40924D02*
X59906Y-40924D01*
X61450Y-40924D02*
X61550Y-40924D01*
X62114Y-40924D02*
X63255Y-40924D01*
X38745Y-41004D02*
X45299Y-41004D01*
X46842Y-41004D02*
X49144Y-41004D01*
X49617Y-41004D02*
X50224Y-41004D01*
X50697Y-41004D02*
X51304Y-41004D01*
X51777Y-41004D02*
X52384Y-41004D01*
X52857Y-41004D02*
X55159Y-41004D01*
X56702Y-41004D02*
X59939Y-41004D01*
X61450Y-41004D02*
X61550Y-41004D01*
X62114Y-41004D02*
X63255Y-41004D01*
X38745Y-41084D02*
X45219Y-41084D01*
X46922Y-41084D02*
X49020Y-41084D01*
X49740Y-41084D02*
X50100Y-41084D01*
X50820Y-41084D02*
X51180Y-41084D01*
X51900Y-41084D02*
X52260Y-41084D01*
X52980Y-41084D02*
X55079Y-41084D01*
X56782Y-41084D02*
X59973Y-41084D01*
X61450Y-41084D02*
X61550Y-41084D01*
X62114Y-41084D02*
X63255Y-41084D01*
X38745Y-41164D02*
X45139Y-41164D01*
X47002Y-41164D02*
X48940Y-41164D01*
X49820Y-41164D02*
X50020Y-41164D01*
X50900Y-41164D02*
X51100Y-41164D01*
X51980Y-41164D02*
X52180Y-41164D01*
X53060Y-41164D02*
X54999Y-41164D01*
X56862Y-41164D02*
X60044Y-41164D01*
X61450Y-41164D02*
X61550Y-41164D01*
X62114Y-41164D02*
X63255Y-41164D01*
X38745Y-41244D02*
X45059Y-41244D01*
X47082Y-41244D02*
X48893Y-41244D01*
X49868Y-41244D02*
X49973Y-41244D01*
X50948Y-41244D02*
X51053Y-41244D01*
X52028Y-41244D02*
X52133Y-41244D01*
X53108Y-41244D02*
X54919Y-41244D01*
X56942Y-41244D02*
X60124Y-41244D01*
X60875Y-41244D02*
X60918Y-41244D01*
X61450Y-41244D02*
X61550Y-41244D01*
X62081Y-41244D02*
X63255Y-41244D01*
X38745Y-41324D02*
X44998Y-41324D01*
X47143Y-41324D02*
X48859Y-41324D01*
X49902Y-41324D02*
X49939Y-41324D01*
X50982Y-41324D02*
X51019Y-41324D01*
X52062Y-41324D02*
X52099Y-41324D01*
X53142Y-41324D02*
X54858Y-41324D01*
X57003Y-41324D02*
X60278Y-41324D01*
X60720Y-41324D02*
X60992Y-41324D01*
X61429Y-41324D02*
X61571Y-41324D01*
X62008Y-41324D02*
X63255Y-41324D01*
X38745Y-41404D02*
X44965Y-41404D01*
X47176Y-41404D02*
X48831Y-41404D01*
X53169Y-41404D02*
X54825Y-41404D01*
X57036Y-41404D02*
X63255Y-41404D01*
X38745Y-41484D02*
X44932Y-41484D01*
X47209Y-41484D02*
X48831Y-41484D01*
X53169Y-41484D02*
X54792Y-41484D01*
X57069Y-41484D02*
X63255Y-41484D01*
X38745Y-41564D02*
X44898Y-41564D01*
X47242Y-41564D02*
X48831Y-41564D01*
X53169Y-41564D02*
X54758Y-41564D01*
X57102Y-41564D02*
X63255Y-41564D01*
X38745Y-41644D02*
X44865Y-41644D01*
X47275Y-41644D02*
X48845Y-41644D01*
X52074Y-41644D02*
X52085Y-41644D01*
X53154Y-41644D02*
X54725Y-41644D01*
X57135Y-41644D02*
X63255Y-41644D01*
X38745Y-41724D02*
X44832Y-41724D01*
X47309Y-41724D02*
X48878Y-41724D01*
X52041Y-41724D02*
X52118Y-41724D01*
X53121Y-41724D02*
X54692Y-41724D01*
X57169Y-41724D02*
X63255Y-41724D01*
X38745Y-41804D02*
X44821Y-41804D01*
X47319Y-41804D02*
X48912Y-41804D01*
X52007Y-41804D02*
X52152Y-41804D01*
X53087Y-41804D02*
X54681Y-41804D01*
X57179Y-41804D02*
X63255Y-41804D01*
X38745Y-41884D02*
X44821Y-41884D01*
X47319Y-41884D02*
X48988Y-41884D01*
X51932Y-41884D02*
X52228Y-41884D01*
X53012Y-41884D02*
X54681Y-41884D01*
X57179Y-41884D02*
X63255Y-41884D01*
X38745Y-41964D02*
X44821Y-41964D01*
X47319Y-41964D02*
X48784Y-41964D01*
X48939Y-41964D02*
X49068Y-41964D01*
X51852Y-41964D02*
X51940Y-41964D01*
X52221Y-41964D02*
X52308Y-41964D01*
X52932Y-41964D02*
X53020Y-41964D01*
X53301Y-41964D02*
X54681Y-41964D01*
X57179Y-41964D02*
X63255Y-41964D01*
X38745Y-42044D02*
X44821Y-42044D01*
X47319Y-42044D02*
X48555Y-42044D01*
X52400Y-42044D02*
X52498Y-42044D01*
X52741Y-42044D02*
X52840Y-42044D01*
X53480Y-42044D02*
X54681Y-42044D01*
X57179Y-42044D02*
X63255Y-42044D01*
X38745Y-42124D02*
X44821Y-42124D01*
X47319Y-42124D02*
X48534Y-42124D01*
X52480Y-42124D02*
X52760Y-42124D01*
X53560Y-42124D02*
X54681Y-42124D01*
X57179Y-42124D02*
X63255Y-42124D01*
X38745Y-42204D02*
X44821Y-42204D01*
X47319Y-42204D02*
X48421Y-42204D01*
X48474Y-42204D02*
X48614Y-42204D01*
X52552Y-42204D02*
X52689Y-42204D01*
X53632Y-42204D02*
X54681Y-42204D01*
X57179Y-42204D02*
X63255Y-42204D01*
X38745Y-42284D02*
X40667Y-42284D01*
X41067Y-42284D02*
X44835Y-42284D01*
X47304Y-42284D02*
X48346Y-42284D01*
X48554Y-42284D02*
X48694Y-42284D01*
X52585Y-42284D02*
X52656Y-42284D01*
X53665Y-42284D02*
X54695Y-42284D01*
X57164Y-42284D02*
X60667Y-42284D01*
X61067Y-42284D02*
X63255Y-42284D01*
X38745Y-42364D02*
X40468Y-42364D01*
X41540Y-42364D02*
X44868Y-42364D01*
X47271Y-42364D02*
X48318Y-42364D01*
X48634Y-42364D02*
X48774Y-42364D01*
X52618Y-42364D02*
X52623Y-42364D01*
X53698Y-42364D02*
X54728Y-42364D01*
X57131Y-42364D02*
X60468Y-42364D01*
X61542Y-42364D02*
X63255Y-42364D01*
X38745Y-42444D02*
X40269Y-42444D01*
X41728Y-42444D02*
X44901Y-42444D01*
X47238Y-42444D02*
X48298Y-42444D01*
X48714Y-42444D02*
X48855Y-42444D01*
X53709Y-42444D02*
X54761Y-42444D01*
X57098Y-42444D02*
X60269Y-42444D01*
X61729Y-42444D02*
X63255Y-42444D01*
X38745Y-42524D02*
X40071Y-42524D01*
X41916Y-42524D02*
X44934Y-42524D01*
X47205Y-42524D02*
X48302Y-42524D01*
X48745Y-42524D02*
X48887Y-42524D01*
X53709Y-42524D02*
X54794Y-42524D01*
X57065Y-42524D02*
X60071Y-42524D01*
X61916Y-42524D02*
X63255Y-42524D01*
X38745Y-42604D02*
X39974Y-42604D01*
X42027Y-42604D02*
X44967Y-42604D01*
X47172Y-42604D02*
X48306Y-42604D01*
X48665Y-42604D02*
X48807Y-42604D01*
X53709Y-42604D02*
X54827Y-42604D01*
X57032Y-42604D02*
X59974Y-42604D01*
X62027Y-42604D02*
X63255Y-42604D01*
X38745Y-42684D02*
X39911Y-42684D01*
X42090Y-42684D02*
X45000Y-42684D01*
X47139Y-42684D02*
X48328Y-42684D01*
X48585Y-42684D02*
X48727Y-42684D01*
X53677Y-42684D02*
X54860Y-42684D01*
X56999Y-42684D02*
X59911Y-42684D01*
X62090Y-42684D02*
X63255Y-42684D01*
X38745Y-42764D02*
X39849Y-42764D01*
X42152Y-42764D02*
X45066Y-42764D01*
X47073Y-42764D02*
X48361Y-42764D01*
X48505Y-42764D02*
X48647Y-42764D01*
X53644Y-42764D02*
X54926Y-42764D01*
X56933Y-42764D02*
X59849Y-42764D01*
X62152Y-42764D02*
X63255Y-42764D01*
X38745Y-42844D02*
X39770Y-42844D01*
X39774Y-42844D02*
X39914Y-42844D01*
X42085Y-42844D02*
X42227Y-42844D01*
X42231Y-42844D02*
X45146Y-42844D01*
X46993Y-42844D02*
X48567Y-42844D01*
X53592Y-42844D02*
X55006Y-42844D01*
X56853Y-42844D02*
X59770Y-42844D01*
X59774Y-42844D02*
X59914Y-42844D01*
X62085Y-42844D02*
X62227Y-42844D01*
X62231Y-42844D02*
X63255Y-42844D01*
X38745Y-42924D02*
X39668Y-42924D01*
X39854Y-42924D02*
X39994Y-42924D01*
X42005Y-42924D02*
X42147Y-42924D01*
X42333Y-42924D02*
X45226Y-42924D01*
X46913Y-42924D02*
X48545Y-42924D01*
X53512Y-42924D02*
X55086Y-42924D01*
X56773Y-42924D02*
X59668Y-42924D01*
X59854Y-42924D02*
X59994Y-42924D01*
X62005Y-42924D02*
X62147Y-42924D01*
X62333Y-42924D02*
X63255Y-42924D01*
X38745Y-43004D02*
X39566Y-43004D01*
X39934Y-43004D02*
X40074Y-43004D01*
X41925Y-43004D02*
X42067Y-43004D01*
X42435Y-43004D02*
X45306Y-43004D01*
X46833Y-43004D02*
X48650Y-43004D01*
X49041Y-43004D02*
X49090Y-43004D01*
X53450Y-43004D02*
X55166Y-43004D01*
X56693Y-43004D02*
X59566Y-43004D01*
X59934Y-43004D02*
X60074Y-43004D01*
X61925Y-43004D02*
X62067Y-43004D01*
X62435Y-43004D02*
X63255Y-43004D01*
X38745Y-43084D02*
X39525Y-43084D01*
X40014Y-43084D02*
X40154Y-43084D01*
X41845Y-43084D02*
X41987Y-43084D01*
X42482Y-43084D02*
X45421Y-43084D01*
X46718Y-43084D02*
X49090Y-43084D01*
X53450Y-43084D02*
X55281Y-43084D01*
X56578Y-43084D02*
X59525Y-43084D01*
X60014Y-43084D02*
X60154Y-43084D01*
X61845Y-43084D02*
X61987Y-43084D01*
X62482Y-43084D02*
X63255Y-43084D01*
X38745Y-43164D02*
X39491Y-43164D01*
X40094Y-43164D02*
X40234Y-43164D01*
X41765Y-43164D02*
X41907Y-43164D01*
X42514Y-43164D02*
X45614Y-43164D01*
X46525Y-43164D02*
X49090Y-43164D01*
X53450Y-43164D02*
X55474Y-43164D01*
X56385Y-43164D02*
X59491Y-43164D01*
X60094Y-43164D02*
X60234Y-43164D01*
X61765Y-43164D02*
X61907Y-43164D01*
X62514Y-43164D02*
X63255Y-43164D01*
X38745Y-43244D02*
X39457Y-43244D01*
X40174Y-43244D02*
X40314Y-43244D01*
X41685Y-43244D02*
X41827Y-43244D01*
X42546Y-43244D02*
X45807Y-43244D01*
X46331Y-43244D02*
X49090Y-43244D01*
X53450Y-43244D02*
X55667Y-43244D01*
X56191Y-43244D02*
X59457Y-43244D01*
X60174Y-43244D02*
X60314Y-43244D01*
X61685Y-43244D02*
X61827Y-43244D01*
X62546Y-43244D02*
X63255Y-43244D01*
X38745Y-43324D02*
X39423Y-43324D01*
X40254Y-43324D02*
X40394Y-43324D01*
X41605Y-43324D02*
X41747Y-43324D01*
X42579Y-43324D02*
X49090Y-43324D01*
X53450Y-43324D02*
X59423Y-43324D01*
X60254Y-43324D02*
X60394Y-43324D01*
X61605Y-43324D02*
X61747Y-43324D01*
X62579Y-43324D02*
X63255Y-43324D01*
X38745Y-43404D02*
X39388Y-43404D01*
X40334Y-43404D02*
X40474Y-43404D01*
X41525Y-43404D02*
X41667Y-43404D01*
X42611Y-43404D02*
X49090Y-43404D01*
X53450Y-43404D02*
X59388Y-43404D01*
X60334Y-43404D02*
X60474Y-43404D01*
X61525Y-43404D02*
X61667Y-43404D01*
X62611Y-43404D02*
X63255Y-43404D01*
X38745Y-43484D02*
X39354Y-43484D01*
X40414Y-43484D02*
X40554Y-43484D01*
X41445Y-43484D02*
X41587Y-43484D01*
X42643Y-43484D02*
X49090Y-43484D01*
X53450Y-43484D02*
X59354Y-43484D01*
X60414Y-43484D02*
X60554Y-43484D01*
X61445Y-43484D02*
X61587Y-43484D01*
X62643Y-43484D02*
X63255Y-43484D01*
X38745Y-43564D02*
X39320Y-43564D01*
X40494Y-43564D02*
X40634Y-43564D01*
X41365Y-43564D02*
X41507Y-43564D01*
X42675Y-43564D02*
X49090Y-43564D01*
X53450Y-43564D02*
X59320Y-43564D01*
X60494Y-43564D02*
X60634Y-43564D01*
X61365Y-43564D02*
X61507Y-43564D01*
X62675Y-43564D02*
X63255Y-43564D01*
X38745Y-43644D02*
X39287Y-43644D01*
X40574Y-43644D02*
X40714Y-43644D01*
X41285Y-43644D02*
X41427Y-43644D01*
X42708Y-43644D02*
X49090Y-43644D01*
X53450Y-43644D02*
X59287Y-43644D01*
X60574Y-43644D02*
X60714Y-43644D01*
X61285Y-43644D02*
X61427Y-43644D01*
X62708Y-43644D02*
X63255Y-43644D01*
X38745Y-43724D02*
X39287Y-43724D01*
X40654Y-43724D02*
X40794Y-43724D01*
X41205Y-43724D02*
X41347Y-43724D01*
X42719Y-43724D02*
X49090Y-43724D01*
X53450Y-43724D02*
X59287Y-43724D01*
X60654Y-43724D02*
X60794Y-43724D01*
X61205Y-43724D02*
X61347Y-43724D01*
X62719Y-43724D02*
X63255Y-43724D01*
X38745Y-43804D02*
X39286Y-43804D01*
X40734Y-43804D02*
X40874Y-43804D01*
X41125Y-43804D02*
X41267Y-43804D01*
X42718Y-43804D02*
X49090Y-43804D01*
X53450Y-43804D02*
X59286Y-43804D01*
X60734Y-43804D02*
X60874Y-43804D01*
X61125Y-43804D02*
X61267Y-43804D01*
X62718Y-43804D02*
X63255Y-43804D01*
X38745Y-43884D02*
X39285Y-43884D01*
X40814Y-43884D02*
X40954Y-43884D01*
X41045Y-43884D02*
X41187Y-43884D01*
X42717Y-43884D02*
X49090Y-43884D01*
X53450Y-43884D02*
X59285Y-43884D01*
X60814Y-43884D02*
X60954Y-43884D01*
X61045Y-43884D02*
X61187Y-43884D01*
X62717Y-43884D02*
X63255Y-43884D01*
X38745Y-43964D02*
X39284Y-43964D01*
X40894Y-43964D02*
X41107Y-43964D01*
X42717Y-43964D02*
X49090Y-43964D01*
X53450Y-43964D02*
X59284Y-43964D01*
X60894Y-43964D02*
X61107Y-43964D01*
X62717Y-43964D02*
X63255Y-43964D01*
X38745Y-44044D02*
X39283Y-44044D01*
X40885Y-44044D02*
X41114Y-44044D01*
X42716Y-44044D02*
X49090Y-44044D01*
X53450Y-44044D02*
X59283Y-44044D01*
X60885Y-44044D02*
X61114Y-44044D01*
X62716Y-44044D02*
X63255Y-44044D01*
X38745Y-44124D02*
X39283Y-44124D01*
X40805Y-44124D02*
X40947Y-44124D01*
X41054Y-44124D02*
X41194Y-44124D01*
X42715Y-44124D02*
X49094Y-44124D01*
X53450Y-44124D02*
X59283Y-44124D01*
X60805Y-44124D02*
X60947Y-44124D01*
X61054Y-44124D02*
X61194Y-44124D01*
X62715Y-44124D02*
X63255Y-44124D01*
X38745Y-44204D02*
X39282Y-44204D01*
X40725Y-44204D02*
X40867Y-44204D01*
X41134Y-44204D02*
X41274Y-44204D01*
X42714Y-44204D02*
X49110Y-44204D01*
X53450Y-44204D02*
X59282Y-44204D01*
X60725Y-44204D02*
X60867Y-44204D01*
X61134Y-44204D02*
X61274Y-44204D01*
X62714Y-44204D02*
X63255Y-44204D01*
X38745Y-44284D02*
X39281Y-44284D01*
X40645Y-44284D02*
X40787Y-44284D01*
X41214Y-44284D02*
X41354Y-44284D01*
X42713Y-44284D02*
X49158Y-44284D01*
X53450Y-44284D02*
X59281Y-44284D01*
X60645Y-44284D02*
X60787Y-44284D01*
X61214Y-44284D02*
X61354Y-44284D01*
X62713Y-44284D02*
X63255Y-44284D01*
X38745Y-44364D02*
X39296Y-44364D01*
X40565Y-44364D02*
X40707Y-44364D01*
X41294Y-44364D02*
X41434Y-44364D01*
X42710Y-44364D02*
X49206Y-44364D01*
X53450Y-44364D02*
X59296Y-44364D01*
X60565Y-44364D02*
X60707Y-44364D01*
X61294Y-44364D02*
X61434Y-44364D01*
X62710Y-44364D02*
X63255Y-44364D01*
X38745Y-44444D02*
X39328Y-44444D01*
X40485Y-44444D02*
X40627Y-44444D01*
X41374Y-44444D02*
X41514Y-44444D01*
X42676Y-44444D02*
X49206Y-44444D01*
X53450Y-44444D02*
X59328Y-44444D01*
X60485Y-44444D02*
X60627Y-44444D01*
X61374Y-44444D02*
X61514Y-44444D01*
X62676Y-44444D02*
X63255Y-44444D01*
X38745Y-44524D02*
X39360Y-44524D01*
X40405Y-44524D02*
X40547Y-44524D01*
X41454Y-44524D02*
X41594Y-44524D01*
X42642Y-44524D02*
X49206Y-44524D01*
X53450Y-44524D02*
X59360Y-44524D01*
X60405Y-44524D02*
X60547Y-44524D01*
X61454Y-44524D02*
X61594Y-44524D01*
X62642Y-44524D02*
X63255Y-44524D01*
X38745Y-44604D02*
X39392Y-44604D01*
X40325Y-44604D02*
X40467Y-44604D01*
X41534Y-44604D02*
X41674Y-44604D01*
X42608Y-44604D02*
X49206Y-44604D01*
X53450Y-44604D02*
X59392Y-44604D01*
X60325Y-44604D02*
X60467Y-44604D01*
X61534Y-44604D02*
X61674Y-44604D01*
X62608Y-44604D02*
X63255Y-44604D01*
X38745Y-44684D02*
X39425Y-44684D01*
X40245Y-44684D02*
X40387Y-44684D01*
X41614Y-44684D02*
X41754Y-44684D01*
X42574Y-44684D02*
X49206Y-44684D01*
X53450Y-44684D02*
X59425Y-44684D01*
X60245Y-44684D02*
X60387Y-44684D01*
X61614Y-44684D02*
X61754Y-44684D01*
X62574Y-44684D02*
X63255Y-44684D01*
X38745Y-44764D02*
X39457Y-44764D01*
X40165Y-44764D02*
X40307Y-44764D01*
X41694Y-44764D02*
X41834Y-44764D01*
X42540Y-44764D02*
X49206Y-44764D01*
X53450Y-44764D02*
X59457Y-44764D01*
X60165Y-44764D02*
X60307Y-44764D01*
X61694Y-44764D02*
X61834Y-44764D01*
X62540Y-44764D02*
X63255Y-44764D01*
X38745Y-44844D02*
X39489Y-44844D01*
X40085Y-44844D02*
X40227Y-44844D01*
X41774Y-44844D02*
X41914Y-44844D01*
X42506Y-44844D02*
X49206Y-44844D01*
X53450Y-44844D02*
X59489Y-44844D01*
X60085Y-44844D02*
X60227Y-44844D01*
X61774Y-44844D02*
X61914Y-44844D01*
X62506Y-44844D02*
X63255Y-44844D01*
X38745Y-44924D02*
X39521Y-44924D01*
X40005Y-44924D02*
X40147Y-44924D01*
X41854Y-44924D02*
X41994Y-44924D01*
X42472Y-44924D02*
X49206Y-44924D01*
X53450Y-44924D02*
X59521Y-44924D01*
X60005Y-44924D02*
X60147Y-44924D01*
X61854Y-44924D02*
X61994Y-44924D01*
X62472Y-44924D02*
X63255Y-44924D01*
X38745Y-45004D02*
X39575Y-45004D01*
X39925Y-45004D02*
X40067Y-45004D01*
X41934Y-45004D02*
X42074Y-45004D01*
X42424Y-45004D02*
X49206Y-45004D01*
X53450Y-45004D02*
X59575Y-45004D01*
X59925Y-45004D02*
X60067Y-45004D01*
X61934Y-45004D02*
X62074Y-45004D01*
X62424Y-45004D02*
X63255Y-45004D01*
X38745Y-45084D02*
X39677Y-45084D01*
X39845Y-45084D02*
X39987Y-45084D01*
X42014Y-45084D02*
X42154Y-45084D01*
X42322Y-45084D02*
X49206Y-45084D01*
X53450Y-45084D02*
X59677Y-45084D01*
X59845Y-45084D02*
X59987Y-45084D01*
X62014Y-45084D02*
X62154Y-45084D01*
X62322Y-45084D02*
X63255Y-45084D01*
X38745Y-45164D02*
X39907Y-45164D01*
X42094Y-45164D02*
X48942Y-45164D01*
X49111Y-45164D02*
X49206Y-45164D01*
X53436Y-45164D02*
X59907Y-45164D01*
X62094Y-45164D02*
X63255Y-45164D01*
X38745Y-45244D02*
X39854Y-45244D01*
X42145Y-45244D02*
X48688Y-45244D01*
X53546Y-45244D02*
X59854Y-45244D01*
X62145Y-45244D02*
X63255Y-45244D01*
X38745Y-45324D02*
X39917Y-45324D01*
X42082Y-45324D02*
X48661Y-45324D01*
X53588Y-45324D02*
X59917Y-45324D01*
X62082Y-45324D02*
X63255Y-45324D01*
X38745Y-45404D02*
X39979Y-45404D01*
X42020Y-45404D02*
X48725Y-45404D01*
X53599Y-45404D02*
X59979Y-45404D01*
X62020Y-45404D02*
X63255Y-45404D01*
X38745Y-45484D02*
X40103Y-45484D01*
X41909Y-45484D02*
X48471Y-45484D01*
X48663Y-45484D02*
X48805Y-45484D01*
X53599Y-45484D02*
X60103Y-45484D01*
X61909Y-45484D02*
X63255Y-45484D01*
X38745Y-45564D02*
X40291Y-45564D01*
X41711Y-45564D02*
X48442Y-45564D01*
X48743Y-45564D02*
X48885Y-45564D01*
X53599Y-45564D02*
X60291Y-45564D01*
X61711Y-45564D02*
X63255Y-45564D01*
X38745Y-45644D02*
X40479Y-45644D01*
X41512Y-45644D02*
X48413Y-45644D01*
X48823Y-45644D02*
X48965Y-45644D01*
X53599Y-45644D02*
X60479Y-45644D01*
X61512Y-45644D02*
X63255Y-45644D01*
X38745Y-45724D02*
X48410Y-45724D01*
X48903Y-45724D02*
X49045Y-45724D01*
X53599Y-45724D02*
X63255Y-45724D01*
X38745Y-45804D02*
X48413Y-45804D01*
X48875Y-45804D02*
X49017Y-45804D01*
X53599Y-45804D02*
X63255Y-45804D01*
X38745Y-45884D02*
X48417Y-45884D01*
X48795Y-45884D02*
X48937Y-45884D01*
X53599Y-45884D02*
X63255Y-45884D01*
X38745Y-45964D02*
X48447Y-45964D01*
X48715Y-45964D02*
X48857Y-45964D01*
X53599Y-45964D02*
X63255Y-45964D01*
X38745Y-46044D02*
X48480Y-46044D01*
X48635Y-46044D02*
X48777Y-46044D01*
X53599Y-46044D02*
X63255Y-46044D01*
X38745Y-46124D02*
X48697Y-46124D01*
X53599Y-46124D02*
X63255Y-46124D01*
X38745Y-46204D02*
X48670Y-46204D01*
X53576Y-46204D02*
X63255Y-46204D01*
X38745Y-46284D02*
X48674Y-46284D01*
X53518Y-46284D02*
X63255Y-46284D01*
X38745Y-46364D02*
X48685Y-46364D01*
X53461Y-46364D02*
X63255Y-46364D01*
X38745Y-46444D02*
X48486Y-46444D01*
X48623Y-46444D02*
X48765Y-46444D01*
X53522Y-46444D02*
X63255Y-46444D01*
X38745Y-46524D02*
X48457Y-46524D01*
X48703Y-46524D02*
X48845Y-46524D01*
X53555Y-46524D02*
X63255Y-46524D01*
X38745Y-46604D02*
X48428Y-46604D01*
X48783Y-46604D02*
X48925Y-46604D01*
X53588Y-46604D02*
X63255Y-46604D01*
X38745Y-46684D02*
X48408Y-46684D01*
X48863Y-46684D02*
X49005Y-46684D01*
X53599Y-46684D02*
X63255Y-46684D01*
X38745Y-46764D02*
X48411Y-46764D01*
X48915Y-46764D02*
X49085Y-46764D01*
X53599Y-46764D02*
X63255Y-46764D01*
X38745Y-46844D02*
X48415Y-46844D01*
X48835Y-46844D02*
X48977Y-46844D01*
X49023Y-46844D02*
X49165Y-46844D01*
X53599Y-46844D02*
X63255Y-46844D01*
X38745Y-46924D02*
X48430Y-46924D01*
X48755Y-46924D02*
X48897Y-46924D01*
X49103Y-46924D02*
X49245Y-46924D01*
X53576Y-46924D02*
X63255Y-46924D01*
X38745Y-47004D02*
X48463Y-47004D01*
X48675Y-47004D02*
X48817Y-47004D01*
X49183Y-47004D02*
X49325Y-47004D01*
X53543Y-47004D02*
X63255Y-47004D01*
X38745Y-47084D02*
X48559Y-47084D01*
X48595Y-47084D02*
X48737Y-47084D01*
X49263Y-47084D02*
X49405Y-47084D01*
X49440Y-47084D02*
X49490Y-47084D01*
X53510Y-47084D02*
X63255Y-47084D01*
X38745Y-47164D02*
X48657Y-47164D01*
X49343Y-47164D02*
X49567Y-47164D01*
X51431Y-47164D02*
X51567Y-47164D01*
X52431Y-47164D02*
X52567Y-47164D01*
X53433Y-47164D02*
X63255Y-47164D01*
X38745Y-47244D02*
X48683Y-47244D01*
X49316Y-47244D02*
X49647Y-47244D01*
X51352Y-47244D02*
X51647Y-47244D01*
X52352Y-47244D02*
X52647Y-47244D01*
X53353Y-47244D02*
X63255Y-47244D01*
X38745Y-47324D02*
X40676Y-47324D01*
X41327Y-47324D02*
X48856Y-47324D01*
X49163Y-47324D02*
X49820Y-47324D01*
X51179Y-47324D02*
X51820Y-47324D01*
X52179Y-47324D02*
X52820Y-47324D01*
X53179Y-47324D02*
X63255Y-47324D01*
X38745Y-47404D02*
X40538Y-47404D01*
X41463Y-47404D02*
X49936Y-47404D01*
X50755Y-47404D02*
X63255Y-47404D01*
X38745Y-47484D02*
X40458Y-47484D01*
X41543Y-47484D02*
X49856Y-47484D01*
X50675Y-47484D02*
X63255Y-47484D01*
X38745Y-47564D02*
X40378Y-47564D01*
X41623Y-47564D02*
X49776Y-47564D01*
X50595Y-47564D02*
X63255Y-47564D01*
X38745Y-47644D02*
X40338Y-47644D01*
X41663Y-47644D02*
X49696Y-47644D01*
X50515Y-47644D02*
X63255Y-47644D01*
X38745Y-47724D02*
X40304Y-47724D01*
X41696Y-47724D02*
X49616Y-47724D01*
X50435Y-47724D02*
X63255Y-47724D01*
X38745Y-47804D02*
X40271Y-47804D01*
X41730Y-47804D02*
X49536Y-47804D01*
X50355Y-47804D02*
X63255Y-47804D01*
X38745Y-47884D02*
X40251Y-47884D01*
X41749Y-47884D02*
X49456Y-47884D01*
X50275Y-47884D02*
X63255Y-47884D01*
X38745Y-47964D02*
X40251Y-47964D01*
X41749Y-47964D02*
X49376Y-47964D01*
X50195Y-47964D02*
X62316Y-47964D01*
X62686Y-47964D02*
X63255Y-47964D01*
X38745Y-48044D02*
X40251Y-48044D01*
X41749Y-48044D02*
X49296Y-48044D01*
X50115Y-48044D02*
X62122Y-48044D01*
X62878Y-48044D02*
X63255Y-48044D01*
X38745Y-48124D02*
X40251Y-48124D01*
X41749Y-48124D02*
X49216Y-48124D01*
X50035Y-48124D02*
X61999Y-48124D01*
X63001Y-48124D02*
X63255Y-48124D01*
X38745Y-48204D02*
X40274Y-48204D01*
X41726Y-48204D02*
X49136Y-48204D01*
X49955Y-48204D02*
X61919Y-48204D01*
X63081Y-48204D02*
X63255Y-48204D01*
X38745Y-48284D02*
X40307Y-48284D01*
X41692Y-48284D02*
X49056Y-48284D01*
X49875Y-48284D02*
X61839Y-48284D01*
X63161Y-48284D02*
X63255Y-48284D01*
X38745Y-48364D02*
X40340Y-48364D01*
X41659Y-48364D02*
X48976Y-48364D01*
X49795Y-48364D02*
X61798Y-48364D01*
X63203Y-48364D02*
X63255Y-48364D01*
X38745Y-48444D02*
X40385Y-48444D01*
X41614Y-48444D02*
X48895Y-48444D01*
X49715Y-48444D02*
X61765Y-48444D01*
X63236Y-48444D02*
X63255Y-48444D01*
X38745Y-48524D02*
X40465Y-48524D01*
X41534Y-48524D02*
X48815Y-48524D01*
X49635Y-48524D02*
X61731Y-48524D01*
X38745Y-48604D02*
X40545Y-48604D01*
X41454Y-48604D02*
X48735Y-48604D01*
X49555Y-48604D02*
X61703Y-48604D01*
X38745Y-48684D02*
X40694Y-48684D01*
X41304Y-48684D02*
X48655Y-48684D01*
X49475Y-48684D02*
X61703Y-48684D01*
X38745Y-48764D02*
X48576Y-48764D01*
X49395Y-48764D02*
X61703Y-48764D01*
X38745Y-48844D02*
X48496Y-48844D01*
X49315Y-48844D02*
X61703Y-48844D01*
X38745Y-48924D02*
X48416Y-48924D01*
X49235Y-48924D02*
X61709Y-48924D01*
X38745Y-49004D02*
X48336Y-49004D01*
X49155Y-49004D02*
X53222Y-49004D01*
X53779Y-49004D02*
X55222Y-49004D01*
X55779Y-49004D02*
X57222Y-49004D01*
X57779Y-49004D02*
X61742Y-49004D01*
X38745Y-49084D02*
X48269Y-49084D01*
X49075Y-49084D02*
X53046Y-49084D01*
X53955Y-49084D02*
X55046Y-49084D01*
X55955Y-49084D02*
X57046Y-49084D01*
X57955Y-49084D02*
X61775Y-49084D01*
X63223Y-49084D02*
X63255Y-49084D01*
X38745Y-49164D02*
X48228Y-49164D01*
X48995Y-49164D02*
X52966Y-49164D01*
X54035Y-49164D02*
X54966Y-49164D01*
X56035Y-49164D02*
X56966Y-49164D01*
X58035Y-49164D02*
X61808Y-49164D01*
X63190Y-49164D02*
X63255Y-49164D01*
X38745Y-49244D02*
X48212Y-49244D01*
X48915Y-49244D02*
X52886Y-49244D01*
X54115Y-49244D02*
X54886Y-49244D01*
X56115Y-49244D02*
X56886Y-49244D01*
X58115Y-49244D02*
X61867Y-49244D01*
X63133Y-49244D02*
X63255Y-49244D01*
X38745Y-49324D02*
X40702Y-49324D01*
X41291Y-49324D02*
X48210Y-49324D01*
X48835Y-49324D02*
X52824Y-49324D01*
X54176Y-49324D02*
X54824Y-49324D01*
X56177Y-49324D02*
X56824Y-49324D01*
X58176Y-49324D02*
X61947Y-49324D01*
X63053Y-49324D02*
X63255Y-49324D01*
X38745Y-49404D02*
X40584Y-49404D01*
X41417Y-49404D02*
X48210Y-49404D01*
X48790Y-49404D02*
X52791Y-49404D01*
X54210Y-49404D02*
X54791Y-49404D01*
X56210Y-49404D02*
X56791Y-49404D01*
X58210Y-49404D02*
X62027Y-49404D01*
X62973Y-49404D02*
X63255Y-49404D01*
X38745Y-49484D02*
X40554Y-49484D01*
X41445Y-49484D02*
X48210Y-49484D01*
X48790Y-49484D02*
X52758Y-49484D01*
X54243Y-49484D02*
X54758Y-49484D01*
X56243Y-49484D02*
X56758Y-49484D01*
X58243Y-49484D02*
X62189Y-49484D01*
X62810Y-49484D02*
X63255Y-49484D01*
X38745Y-49564D02*
X40449Y-49564D01*
X40494Y-49564D02*
X40634Y-49564D01*
X41365Y-49564D02*
X41507Y-49564D01*
X41552Y-49564D02*
X48210Y-49564D01*
X48790Y-49564D02*
X52725Y-49564D01*
X54276Y-49564D02*
X54725Y-49564D01*
X56276Y-49564D02*
X56725Y-49564D01*
X58276Y-49564D02*
X63255Y-49564D01*
X38745Y-49644D02*
X40350Y-49644D01*
X40574Y-49644D02*
X40714Y-49644D01*
X41285Y-49644D02*
X41427Y-49644D01*
X41653Y-49644D02*
X48210Y-49644D01*
X48790Y-49644D02*
X52718Y-49644D01*
X54282Y-49644D02*
X54718Y-49644D01*
X56282Y-49644D02*
X56718Y-49644D01*
X58282Y-49644D02*
X63255Y-49644D01*
X38745Y-49724D02*
X40319Y-49724D01*
X40654Y-49724D02*
X40794Y-49724D01*
X41205Y-49724D02*
X41347Y-49724D01*
X41686Y-49724D02*
X48210Y-49724D01*
X48790Y-49724D02*
X52718Y-49724D01*
X54282Y-49724D02*
X54718Y-49724D01*
X56282Y-49724D02*
X56718Y-49724D01*
X58282Y-49724D02*
X63255Y-49724D01*
X38745Y-49804D02*
X40288Y-49804D01*
X40734Y-49804D02*
X40875Y-49804D01*
X41125Y-49804D02*
X41267Y-49804D01*
X41719Y-49804D02*
X48210Y-49804D01*
X48790Y-49804D02*
X52718Y-49804D01*
X54282Y-49804D02*
X54718Y-49804D01*
X56282Y-49804D02*
X56718Y-49804D01*
X58282Y-49804D02*
X63255Y-49804D01*
X38745Y-49884D02*
X40261Y-49884D01*
X40814Y-49884D02*
X40955Y-49884D01*
X41045Y-49884D02*
X41187Y-49884D01*
X41733Y-49884D02*
X48210Y-49884D01*
X48790Y-49884D02*
X52718Y-49884D01*
X54282Y-49884D02*
X54718Y-49884D01*
X56282Y-49884D02*
X56718Y-49884D01*
X58282Y-49884D02*
X63255Y-49884D01*
X38745Y-49964D02*
X40263Y-49964D01*
X40894Y-49964D02*
X41107Y-49964D01*
X41735Y-49964D02*
X48210Y-49964D01*
X48790Y-49964D02*
X52736Y-49964D01*
X54264Y-49964D02*
X54736Y-49964D01*
X56264Y-49964D02*
X56736Y-49964D01*
X58264Y-49964D02*
X62316Y-49964D01*
X62686Y-49964D02*
X63255Y-49964D01*
X38745Y-50044D02*
X40265Y-50044D01*
X40885Y-50044D02*
X41114Y-50044D01*
X41737Y-50044D02*
X48210Y-50044D01*
X48790Y-50044D02*
X52769Y-50044D01*
X54231Y-50044D02*
X54769Y-50044D01*
X56231Y-50044D02*
X56769Y-50044D01*
X58231Y-50044D02*
X62122Y-50044D01*
X62878Y-50044D02*
X63255Y-50044D01*
X38745Y-50124D02*
X40267Y-50124D01*
X40805Y-50124D02*
X40947Y-50124D01*
X41054Y-50124D02*
X41194Y-50124D01*
X41739Y-50124D02*
X48210Y-50124D01*
X48790Y-50124D02*
X52802Y-50124D01*
X54197Y-50124D02*
X54802Y-50124D01*
X56197Y-50124D02*
X56802Y-50124D01*
X58197Y-50124D02*
X61999Y-50124D01*
X63001Y-50124D02*
X63255Y-50124D01*
X38745Y-50204D02*
X40285Y-50204D01*
X40725Y-50204D02*
X40867Y-50204D01*
X41134Y-50204D02*
X41274Y-50204D01*
X41709Y-50204D02*
X48210Y-50204D01*
X48790Y-50204D02*
X52835Y-50204D01*
X54164Y-50204D02*
X54835Y-50204D01*
X56164Y-50204D02*
X56835Y-50204D01*
X58164Y-50204D02*
X61919Y-50204D01*
X63081Y-50204D02*
X63255Y-50204D01*
X38745Y-50284D02*
X40318Y-50284D01*
X40645Y-50284D02*
X40786Y-50284D01*
X41214Y-50284D02*
X41354Y-50284D01*
X41678Y-50284D02*
X48210Y-50284D01*
X48790Y-50284D02*
X52913Y-50284D01*
X54086Y-50284D02*
X54913Y-50284D01*
X56086Y-50284D02*
X56913Y-50284D01*
X58086Y-50284D02*
X61839Y-50284D01*
X63161Y-50284D02*
X63255Y-50284D01*
X38745Y-50364D02*
X40351Y-50364D01*
X40565Y-50364D02*
X40706Y-50364D01*
X41294Y-50364D02*
X41434Y-50364D01*
X41647Y-50364D02*
X48210Y-50364D01*
X48790Y-50364D02*
X52993Y-50364D01*
X54006Y-50364D02*
X54993Y-50364D01*
X56006Y-50364D02*
X56993Y-50364D01*
X58006Y-50364D02*
X61798Y-50364D01*
X63203Y-50364D02*
X63255Y-50364D01*
X38745Y-50444D02*
X40466Y-50444D01*
X40485Y-50444D02*
X40626Y-50444D01*
X41374Y-50444D02*
X41514Y-50444D01*
X41533Y-50444D02*
X48210Y-50444D01*
X48790Y-50444D02*
X53095Y-50444D01*
X53903Y-50444D02*
X55095Y-50444D01*
X55903Y-50444D02*
X57095Y-50444D01*
X57903Y-50444D02*
X61765Y-50444D01*
X63236Y-50444D02*
X63255Y-50444D01*
X38745Y-50524D02*
X40551Y-50524D01*
X41448Y-50524D02*
X48210Y-50524D01*
X48790Y-50524D02*
X53288Y-50524D01*
X53710Y-50524D02*
X55288Y-50524D01*
X55710Y-50524D02*
X57288Y-50524D01*
X57710Y-50524D02*
X61731Y-50524D01*
X38745Y-50604D02*
X40586Y-50604D01*
X41413Y-50604D02*
X48210Y-50604D01*
X48790Y-50604D02*
X61703Y-50604D01*
X38745Y-50684D02*
X40730Y-50684D01*
X41278Y-50684D02*
X48210Y-50684D01*
X48790Y-50684D02*
X61703Y-50684D01*
X38745Y-50764D02*
X48210Y-50764D01*
X48790Y-50764D02*
X61703Y-50764D01*
X38745Y-50844D02*
X48210Y-50844D01*
X48790Y-50844D02*
X61703Y-50844D01*
X38745Y-50924D02*
X48210Y-50924D01*
X48790Y-50924D02*
X61709Y-50924D01*
X38745Y-51004D02*
X48210Y-51004D01*
X48790Y-51004D02*
X61742Y-51004D01*
X38745Y-51084D02*
X48210Y-51084D01*
X48790Y-51084D02*
X61775Y-51084D01*
X63223Y-51084D02*
X63255Y-51084D01*
X38745Y-51164D02*
X48210Y-51164D01*
X48790Y-51164D02*
X61808Y-51164D01*
X63190Y-51164D02*
X63255Y-51164D01*
X38745Y-51244D02*
X48210Y-51244D01*
X48790Y-51244D02*
X61867Y-51244D01*
X63133Y-51244D02*
X63255Y-51244D01*
X38745Y-51324D02*
X48210Y-51324D01*
X48790Y-51324D02*
X61947Y-51324D01*
X63053Y-51324D02*
X63255Y-51324D01*
X38745Y-51404D02*
X48210Y-51404D01*
X48790Y-51404D02*
X62027Y-51404D01*
X62973Y-51404D02*
X63255Y-51404D01*
X38745Y-51484D02*
X48210Y-51484D01*
X48790Y-51484D02*
X62189Y-51484D01*
X62810Y-51484D02*
X63255Y-51484D01*
X38745Y-51564D02*
X48210Y-51564D01*
X48790Y-51564D02*
X63255Y-51564D01*
X38745Y-51644D02*
X48210Y-51644D01*
X48790Y-51644D02*
X63255Y-51644D01*
X38745Y-51724D02*
X48210Y-51724D01*
X48790Y-51724D02*
X63255Y-51724D01*
X38745Y-51804D02*
X48210Y-51804D01*
X48790Y-51804D02*
X63255Y-51804D01*
X38745Y-51884D02*
X48210Y-51884D01*
X48790Y-51884D02*
X63255Y-51884D01*
X38745Y-51964D02*
X48210Y-51964D01*
X48790Y-51964D02*
X63255Y-51964D01*
X38745Y-52044D02*
X48210Y-52044D01*
X48790Y-52044D02*
X63255Y-52044D01*
X38745Y-52124D02*
X48210Y-52124D01*
X48790Y-52124D02*
X63255Y-52124D01*
X38745Y-52204D02*
X48210Y-52204D01*
X48790Y-52204D02*
X63255Y-52204D01*
X38745Y-52284D02*
X40666Y-52284D01*
X41068Y-52284D02*
X48210Y-52284D01*
X48790Y-52284D02*
X60667Y-52284D01*
X61108Y-52284D02*
X63255Y-52284D01*
X38745Y-52364D02*
X40466Y-52364D01*
X41542Y-52364D02*
X48210Y-52364D01*
X48790Y-52364D02*
X60468Y-52364D01*
X61540Y-52364D02*
X63255Y-52364D01*
X38745Y-52444D02*
X40268Y-52444D01*
X41729Y-52444D02*
X48210Y-52444D01*
X48790Y-52444D02*
X60269Y-52444D01*
X61728Y-52444D02*
X63255Y-52444D01*
X38745Y-52524D02*
X40071Y-52524D01*
X41916Y-52524D02*
X48210Y-52524D01*
X48790Y-52524D02*
X60071Y-52524D01*
X61916Y-52524D02*
X63255Y-52524D01*
X38745Y-52604D02*
X39974Y-52604D01*
X42027Y-52604D02*
X48210Y-52604D01*
X48790Y-52604D02*
X59974Y-52604D01*
X62027Y-52604D02*
X63255Y-52604D01*
X38745Y-52684D02*
X39911Y-52684D01*
X42090Y-52684D02*
X48210Y-52684D01*
X48790Y-52684D02*
X59911Y-52684D01*
X62090Y-52684D02*
X63255Y-52684D01*
X38745Y-52764D02*
X39849Y-52764D01*
X42152Y-52764D02*
X48210Y-52764D01*
X48790Y-52764D02*
X59849Y-52764D01*
X62152Y-52764D02*
X63255Y-52764D01*
X38745Y-52844D02*
X39770Y-52844D01*
X39774Y-52844D02*
X39914Y-52844D01*
X42085Y-52844D02*
X42227Y-52844D01*
X42231Y-52844D02*
X48210Y-52844D01*
X48790Y-52844D02*
X59770Y-52844D01*
X59774Y-52844D02*
X59914Y-52844D01*
X62085Y-52844D02*
X62227Y-52844D01*
X62231Y-52844D02*
X63255Y-52844D01*
X38745Y-52924D02*
X39668Y-52924D01*
X39854Y-52924D02*
X39994Y-52924D01*
X42005Y-52924D02*
X42147Y-52924D01*
X42333Y-52924D02*
X48210Y-52924D01*
X48790Y-52924D02*
X59668Y-52924D01*
X59854Y-52924D02*
X59994Y-52924D01*
X62005Y-52924D02*
X62147Y-52924D01*
X62333Y-52924D02*
X63255Y-52924D01*
X38745Y-53004D02*
X39566Y-53004D01*
X39934Y-53004D02*
X40074Y-53004D01*
X41925Y-53004D02*
X42067Y-53004D01*
X42435Y-53004D02*
X48210Y-53004D01*
X48790Y-53004D02*
X59566Y-53004D01*
X59934Y-53004D02*
X60074Y-53004D01*
X61925Y-53004D02*
X62067Y-53004D01*
X62435Y-53004D02*
X63255Y-53004D01*
X38745Y-53084D02*
X39525Y-53084D01*
X40014Y-53084D02*
X40154Y-53084D01*
X41845Y-53084D02*
X41987Y-53084D01*
X42482Y-53084D02*
X48210Y-53084D01*
X48790Y-53084D02*
X59525Y-53084D01*
X60014Y-53084D02*
X60154Y-53084D01*
X61845Y-53084D02*
X61987Y-53084D01*
X62482Y-53084D02*
X63255Y-53084D01*
X38745Y-53164D02*
X39491Y-53164D01*
X40094Y-53164D02*
X40234Y-53164D01*
X41765Y-53164D02*
X41907Y-53164D01*
X42514Y-53164D02*
X48210Y-53164D01*
X48790Y-53164D02*
X59491Y-53164D01*
X60094Y-53164D02*
X60234Y-53164D01*
X61765Y-53164D02*
X61907Y-53164D01*
X62514Y-53164D02*
X63255Y-53164D01*
X38745Y-53244D02*
X39457Y-53244D01*
X40174Y-53244D02*
X40314Y-53244D01*
X41685Y-53244D02*
X41827Y-53244D01*
X42546Y-53244D02*
X48210Y-53244D01*
X48790Y-53244D02*
X59457Y-53244D01*
X60174Y-53244D02*
X60314Y-53244D01*
X61685Y-53244D02*
X61827Y-53244D01*
X62546Y-53244D02*
X63255Y-53244D01*
X38745Y-53324D02*
X39423Y-53324D01*
X40254Y-53324D02*
X40394Y-53324D01*
X41605Y-53324D02*
X41747Y-53324D01*
X42579Y-53324D02*
X48210Y-53324D01*
X48790Y-53324D02*
X59423Y-53324D01*
X60254Y-53324D02*
X60394Y-53324D01*
X61605Y-53324D02*
X61747Y-53324D01*
X62579Y-53324D02*
X63255Y-53324D01*
X38745Y-53404D02*
X39388Y-53404D01*
X40334Y-53404D02*
X40474Y-53404D01*
X41525Y-53404D02*
X41667Y-53404D01*
X42611Y-53404D02*
X48210Y-53404D01*
X48790Y-53404D02*
X59388Y-53404D01*
X60334Y-53404D02*
X60474Y-53404D01*
X61525Y-53404D02*
X61667Y-53404D01*
X62611Y-53404D02*
X63255Y-53404D01*
X38745Y-53484D02*
X39354Y-53484D01*
X40414Y-53484D02*
X40554Y-53484D01*
X41445Y-53484D02*
X41587Y-53484D01*
X42643Y-53484D02*
X47072Y-53484D01*
X47930Y-53484D02*
X48210Y-53484D01*
X48790Y-53484D02*
X49312Y-53484D01*
X49689Y-53484D02*
X50312Y-53484D01*
X50689Y-53484D02*
X51312Y-53484D01*
X51689Y-53484D02*
X52312Y-53484D01*
X52689Y-53484D02*
X53311Y-53484D01*
X53689Y-53484D02*
X54327Y-53484D01*
X54656Y-53484D02*
X59354Y-53484D01*
X60414Y-53484D02*
X60554Y-53484D01*
X61445Y-53484D02*
X61587Y-53484D01*
X62643Y-53484D02*
X63255Y-53484D01*
X38745Y-53564D02*
X39320Y-53564D01*
X40494Y-53564D02*
X40634Y-53564D01*
X41365Y-53564D02*
X41507Y-53564D01*
X42675Y-53564D02*
X46987Y-53564D01*
X48014Y-53564D02*
X48160Y-53564D01*
X48840Y-53564D02*
X49160Y-53564D01*
X49840Y-53564D02*
X50160Y-53564D01*
X50840Y-53564D02*
X51160Y-53564D01*
X51840Y-53564D02*
X52160Y-53564D01*
X52840Y-53564D02*
X53160Y-53564D01*
X53840Y-53564D02*
X54209Y-53564D01*
X54792Y-53564D02*
X59320Y-53564D01*
X60494Y-53564D02*
X60634Y-53564D01*
X61365Y-53564D02*
X61507Y-53564D01*
X62675Y-53564D02*
X63255Y-53564D01*
X38745Y-53644D02*
X39287Y-53644D01*
X40574Y-53644D02*
X40714Y-53644D01*
X41285Y-53644D02*
X41427Y-53644D01*
X42708Y-53644D02*
X46954Y-53644D01*
X48047Y-53644D02*
X48080Y-53644D01*
X48920Y-53644D02*
X49080Y-53644D01*
X49920Y-53644D02*
X50080Y-53644D01*
X50920Y-53644D02*
X51080Y-53644D01*
X51920Y-53644D02*
X52080Y-53644D01*
X52920Y-53644D02*
X53080Y-53644D01*
X53920Y-53644D02*
X54214Y-53644D01*
X54785Y-53644D02*
X59287Y-53644D01*
X60574Y-53644D02*
X60714Y-53644D01*
X61285Y-53644D02*
X61427Y-53644D01*
X62708Y-53644D02*
X63255Y-53644D01*
X38745Y-53724D02*
X39287Y-53724D01*
X40654Y-53724D02*
X40794Y-53724D01*
X41205Y-53724D02*
X41347Y-53724D01*
X42719Y-53724D02*
X46951Y-53724D01*
X48980Y-53724D02*
X49021Y-53724D01*
X49980Y-53724D02*
X50021Y-53724D01*
X50980Y-53724D02*
X51021Y-53724D01*
X51980Y-53724D02*
X52021Y-53724D01*
X52980Y-53724D02*
X53021Y-53724D01*
X53980Y-53724D02*
X54027Y-53724D01*
X54154Y-53724D02*
X54294Y-53724D01*
X54705Y-53724D02*
X54847Y-53724D01*
X54975Y-53724D02*
X59287Y-53724D01*
X60654Y-53724D02*
X60794Y-53724D01*
X61205Y-53724D02*
X61347Y-53724D01*
X62719Y-53724D02*
X63255Y-53724D01*
X38745Y-53804D02*
X39286Y-53804D01*
X40734Y-53804D02*
X40875Y-53804D01*
X41125Y-53804D02*
X41267Y-53804D01*
X42718Y-53804D02*
X46951Y-53804D01*
X54234Y-53804D02*
X54374Y-53804D01*
X54625Y-53804D02*
X54767Y-53804D01*
X55007Y-53804D02*
X59286Y-53804D01*
X60734Y-53804D02*
X60874Y-53804D01*
X61125Y-53804D02*
X61267Y-53804D01*
X62718Y-53804D02*
X63255Y-53804D01*
X38745Y-53884D02*
X39285Y-53884D01*
X40814Y-53884D02*
X40955Y-53884D01*
X41045Y-53884D02*
X41187Y-53884D01*
X42717Y-53884D02*
X46951Y-53884D01*
X54314Y-53884D02*
X54454Y-53884D01*
X54545Y-53884D02*
X54687Y-53884D01*
X55033Y-53884D02*
X59285Y-53884D01*
X60814Y-53884D02*
X60954Y-53884D01*
X61045Y-53884D02*
X61187Y-53884D01*
X62717Y-53884D02*
X63255Y-53884D01*
X38745Y-53964D02*
X39284Y-53964D01*
X40894Y-53964D02*
X41107Y-53964D01*
X42717Y-53964D02*
X46951Y-53964D01*
X54394Y-53964D02*
X54607Y-53964D01*
X55038Y-53964D02*
X59284Y-53964D01*
X60894Y-53964D02*
X61107Y-53964D01*
X62717Y-53964D02*
X63255Y-53964D01*
X38745Y-54044D02*
X39283Y-54044D01*
X40885Y-54044D02*
X41114Y-54044D01*
X42716Y-54044D02*
X46951Y-54044D01*
X54385Y-54044D02*
X54614Y-54044D01*
X55042Y-54044D02*
X59283Y-54044D01*
X60885Y-54044D02*
X61114Y-54044D01*
X62716Y-54044D02*
X63255Y-54044D01*
X38745Y-54124D02*
X39283Y-54124D01*
X40805Y-54124D02*
X40947Y-54124D01*
X41054Y-54124D02*
X41194Y-54124D01*
X42715Y-54124D02*
X46951Y-54124D01*
X54305Y-54124D02*
X54447Y-54124D01*
X54554Y-54124D02*
X54694Y-54124D01*
X55027Y-54124D02*
X59283Y-54124D01*
X60805Y-54124D02*
X60947Y-54124D01*
X61054Y-54124D02*
X61194Y-54124D01*
X62715Y-54124D02*
X63255Y-54124D01*
X38745Y-54204D02*
X39282Y-54204D01*
X40725Y-54204D02*
X40867Y-54204D01*
X41134Y-54204D02*
X41274Y-54204D01*
X42714Y-54204D02*
X46951Y-54204D01*
X54225Y-54204D02*
X54367Y-54204D01*
X54634Y-54204D02*
X54774Y-54204D01*
X54999Y-54204D02*
X59282Y-54204D01*
X60725Y-54204D02*
X60867Y-54204D01*
X61134Y-54204D02*
X61274Y-54204D01*
X62714Y-54204D02*
X63255Y-54204D01*
X38745Y-54284D02*
X39281Y-54284D01*
X40645Y-54284D02*
X40786Y-54284D01*
X41214Y-54284D02*
X41354Y-54284D01*
X42713Y-54284D02*
X46951Y-54284D01*
X48976Y-54284D02*
X49023Y-54284D01*
X49976Y-54284D02*
X50023Y-54284D01*
X50976Y-54284D02*
X51023Y-54284D01*
X51976Y-54284D02*
X52023Y-54284D01*
X52976Y-54284D02*
X53023Y-54284D01*
X53975Y-54284D02*
X54038Y-54284D01*
X54145Y-54284D02*
X54287Y-54284D01*
X54714Y-54284D02*
X54854Y-54284D01*
X54961Y-54284D02*
X59281Y-54284D01*
X60645Y-54284D02*
X60787Y-54284D01*
X61214Y-54284D02*
X61354Y-54284D01*
X62713Y-54284D02*
X63255Y-54284D01*
X38745Y-54364D02*
X39296Y-54364D01*
X40565Y-54364D02*
X40706Y-54364D01*
X41294Y-54364D02*
X41434Y-54364D01*
X42710Y-54364D02*
X46957Y-54364D01*
X48043Y-54364D02*
X48088Y-54364D01*
X48912Y-54364D02*
X49088Y-54364D01*
X49912Y-54364D02*
X50088Y-54364D01*
X50912Y-54364D02*
X51088Y-54364D01*
X51912Y-54364D02*
X52088Y-54364D01*
X52912Y-54364D02*
X53088Y-54364D01*
X53912Y-54364D02*
X54207Y-54364D01*
X54794Y-54364D02*
X59296Y-54364D01*
X60565Y-54364D02*
X60707Y-54364D01*
X61294Y-54364D02*
X61434Y-54364D01*
X62710Y-54364D02*
X63255Y-54364D01*
X38745Y-54444D02*
X39328Y-54444D01*
X40485Y-54444D02*
X40626Y-54444D01*
X41374Y-54444D02*
X41514Y-54444D01*
X42676Y-54444D02*
X46992Y-54444D01*
X48008Y-54444D02*
X48168Y-54444D01*
X48832Y-54444D02*
X49168Y-54444D01*
X49832Y-54444D02*
X50168Y-54444D01*
X50832Y-54444D02*
X51168Y-54444D01*
X51832Y-54444D02*
X52168Y-54444D01*
X52832Y-54444D02*
X53168Y-54444D01*
X53832Y-54444D02*
X54210Y-54444D01*
X54789Y-54444D02*
X59328Y-54444D01*
X60485Y-54444D02*
X60627Y-54444D01*
X61374Y-54444D02*
X61514Y-54444D01*
X62676Y-54444D02*
X63255Y-54444D01*
X38745Y-54524D02*
X39360Y-54524D01*
X40405Y-54524D02*
X40546Y-54524D01*
X41454Y-54524D02*
X41594Y-54524D01*
X42642Y-54524D02*
X47090Y-54524D01*
X47909Y-54524D02*
X48330Y-54524D01*
X48669Y-54524D02*
X49330Y-54524D01*
X49669Y-54524D02*
X50330Y-54524D01*
X50669Y-54524D02*
X51330Y-54524D01*
X51669Y-54524D02*
X52330Y-54524D01*
X52669Y-54524D02*
X53330Y-54524D01*
X53669Y-54524D02*
X54366Y-54524D01*
X54653Y-54524D02*
X59360Y-54524D01*
X60405Y-54524D02*
X60547Y-54524D01*
X61454Y-54524D02*
X61594Y-54524D01*
X62642Y-54524D02*
X63255Y-54524D01*
X38745Y-54604D02*
X39392Y-54604D01*
X40325Y-54604D02*
X40466Y-54604D01*
X41534Y-54604D02*
X41674Y-54604D01*
X42608Y-54604D02*
X59392Y-54604D01*
X60325Y-54604D02*
X60467Y-54604D01*
X61534Y-54604D02*
X61674Y-54604D01*
X62608Y-54604D02*
X63255Y-54604D01*
X38745Y-54684D02*
X39425Y-54684D01*
X40245Y-54684D02*
X40386Y-54684D01*
X41614Y-54684D02*
X41754Y-54684D01*
X42574Y-54684D02*
X59425Y-54684D01*
X60245Y-54684D02*
X60387Y-54684D01*
X61614Y-54684D02*
X61754Y-54684D01*
X62574Y-54684D02*
X63255Y-54684D01*
X38745Y-54764D02*
X39457Y-54764D01*
X40165Y-54764D02*
X40306Y-54764D01*
X41694Y-54764D02*
X41834Y-54764D01*
X42540Y-54764D02*
X59457Y-54764D01*
X60165Y-54764D02*
X60307Y-54764D01*
X61694Y-54764D02*
X61834Y-54764D01*
X62540Y-54764D02*
X63255Y-54764D01*
X38745Y-54844D02*
X39489Y-54844D01*
X40085Y-54844D02*
X40226Y-54844D01*
X41774Y-54844D02*
X41914Y-54844D01*
X42506Y-54844D02*
X59489Y-54844D01*
X60085Y-54844D02*
X60227Y-54844D01*
X61774Y-54844D02*
X61914Y-54844D01*
X62506Y-54844D02*
X63255Y-54844D01*
X38745Y-54924D02*
X39521Y-54924D01*
X40005Y-54924D02*
X40146Y-54924D01*
X41854Y-54924D02*
X41994Y-54924D01*
X42472Y-54924D02*
X59521Y-54924D01*
X60005Y-54924D02*
X60147Y-54924D01*
X61854Y-54924D02*
X61994Y-54924D01*
X62472Y-54924D02*
X63255Y-54924D01*
X38745Y-55004D02*
X39575Y-55004D01*
X39925Y-55004D02*
X40066Y-55004D01*
X41934Y-55004D02*
X42074Y-55004D01*
X42424Y-55004D02*
X59575Y-55004D01*
X59925Y-55004D02*
X60067Y-55004D01*
X61934Y-55004D02*
X62074Y-55004D01*
X62424Y-55004D02*
X63255Y-55004D01*
X38745Y-55084D02*
X39677Y-55084D01*
X39845Y-55084D02*
X39986Y-55084D01*
X42014Y-55084D02*
X42154Y-55084D01*
X42322Y-55084D02*
X59677Y-55084D01*
X59845Y-55084D02*
X59987Y-55084D01*
X62014Y-55084D02*
X62154Y-55084D01*
X62322Y-55084D02*
X63255Y-55084D01*
X38745Y-55164D02*
X39906Y-55164D01*
X42094Y-55164D02*
X59907Y-55164D01*
X62094Y-55164D02*
X63255Y-55164D01*
X38745Y-55244D02*
X39854Y-55244D01*
X42145Y-55244D02*
X59854Y-55244D01*
X62145Y-55244D02*
X63255Y-55244D01*
X38745Y-55324D02*
X39917Y-55324D01*
X42082Y-55324D02*
X59917Y-55324D01*
X62082Y-55324D02*
X63255Y-55324D01*
X38745Y-55404D02*
X39979Y-55404D01*
X42020Y-55404D02*
X59979Y-55404D01*
X62020Y-55404D02*
X63255Y-55404D01*
X38745Y-55484D02*
X40103Y-55484D01*
X41909Y-55484D02*
X60103Y-55484D01*
X61909Y-55484D02*
X63255Y-55484D01*
X38745Y-55564D02*
X40291Y-55564D01*
X41711Y-55564D02*
X60291Y-55564D01*
X61711Y-55564D02*
X63255Y-55564D01*
X38745Y-55644D02*
X40479Y-55644D01*
X41512Y-55644D02*
X60479Y-55644D01*
X61512Y-55644D02*
X63255Y-55644D01*
X38745Y-55724D02*
X63255Y-55724D01*
X38745Y-55804D02*
X63255Y-55804D01*
X38745Y-55884D02*
X63255Y-55884D01*
X38745Y-55964D02*
X63255Y-55964D01*
X38745Y-56044D02*
X63255Y-56044D01*
X38745Y-56124D02*
X63255Y-56124D01*
X38745Y-56204D02*
X63255Y-56204D01*
X63255Y-56255D02*
X63255Y-51009D01*
X63175Y-51202D01*
X62951Y-51426D01*
X62658Y-51547D01*
X62341Y-51547D01*
X62048Y-51425D01*
X61824Y-51201D01*
X61703Y-50908D01*
X61703Y-50591D01*
X61825Y-50298D01*
X62049Y-50074D01*
X62342Y-49953D01*
X62659Y-49953D01*
X62952Y-50075D01*
X63176Y-50299D01*
X63255Y-50490D01*
X63255Y-49009D01*
X63175Y-49202D01*
X62951Y-49426D01*
X62658Y-49547D01*
X62341Y-49547D01*
X62048Y-49425D01*
X61824Y-49201D01*
X61703Y-48908D01*
X61703Y-48591D01*
X61825Y-48298D01*
X62049Y-48074D01*
X62228Y-48000D01*
X62228Y-45158D01*
X61071Y-44000D01*
X62228Y-42842D01*
X62445Y-43012D01*
X62465Y-43043D01*
X62720Y-43676D01*
X62713Y-44359D01*
X62445Y-44988D01*
X62228Y-45158D01*
X62228Y-48000D01*
X62342Y-47953D01*
X62659Y-47953D01*
X62952Y-48075D01*
X63176Y-48299D01*
X63255Y-48490D01*
X63255Y-39245D01*
X61626Y-39244D01*
X61792Y-39314D01*
X61937Y-39459D01*
X62015Y-39648D01*
X62015Y-39853D01*
X61936Y-40042D01*
X61842Y-40135D01*
X61914Y-40136D01*
X62006Y-40174D01*
X62076Y-40244D01*
X62114Y-40335D01*
X62114Y-40434D01*
X62115Y-40638D01*
X62053Y-40700D01*
X61550Y-40700D01*
X61450Y-40700D01*
X61450Y-40800D01*
X61450Y-41303D01*
X61388Y-41365D01*
X61086Y-41364D01*
X60994Y-41326D01*
X60924Y-41256D01*
X60906Y-41213D01*
X60848Y-41271D01*
X60622Y-41365D01*
X60377Y-41365D01*
X60151Y-41271D01*
X59979Y-41098D01*
X59885Y-40872D01*
X59885Y-40627D01*
X59979Y-40401D01*
X60152Y-40229D01*
X60231Y-40195D01*
X60208Y-40186D01*
X60063Y-40041D01*
X59985Y-39852D01*
X59985Y-39647D01*
X60064Y-39458D01*
X60209Y-39313D01*
X60373Y-39245D01*
X38745Y-39245D01*
X38745Y-56255D01*
X39772Y-56255D01*
X39772Y-55158D01*
X39555Y-54988D01*
X39535Y-54957D01*
X39280Y-54324D01*
X39287Y-53641D01*
X39555Y-53012D01*
X39772Y-52842D01*
X39772Y-45158D01*
X39555Y-44988D01*
X39535Y-44957D01*
X39280Y-44324D01*
X39287Y-43641D01*
X39555Y-43012D01*
X39772Y-42842D01*
X40929Y-44000D01*
X39772Y-45158D01*
X39772Y-52842D01*
X40850Y-53920D01*
X40929Y-54000D01*
X40850Y-54079D01*
X39772Y-55158D01*
X39772Y-56255D01*
X41324Y-56255D01*
X41324Y-55720D01*
X40850Y-55715D01*
X40641Y-55713D01*
X40012Y-55445D01*
X39842Y-55228D01*
X40850Y-54220D01*
X41000Y-54071D01*
X41000Y-53929D01*
X40850Y-53779D01*
X39842Y-52772D01*
X40012Y-52555D01*
X40043Y-52535D01*
X40480Y-52358D01*
X40480Y-50450D01*
X40366Y-50400D01*
X40269Y-50165D01*
X40261Y-49873D01*
X40366Y-49600D01*
X40480Y-49550D01*
X40850Y-49920D01*
X40929Y-50000D01*
X40850Y-50079D01*
X40480Y-50450D01*
X40480Y-52358D01*
X40676Y-52280D01*
X40850Y-52281D01*
X40873Y-52282D01*
X40873Y-50739D01*
X40850Y-50730D01*
X40600Y-50634D01*
X40550Y-50520D01*
X40850Y-50220D01*
X41000Y-50071D01*
X41000Y-49929D01*
X40850Y-49779D01*
X40550Y-49480D01*
X40600Y-49366D01*
X40835Y-49269D01*
X40850Y-49268D01*
X40850Y-48749D01*
X40575Y-48634D01*
X40365Y-48423D01*
X40251Y-48148D01*
X40251Y-47850D01*
X40366Y-47575D01*
X40577Y-47365D01*
X40852Y-47251D01*
X41150Y-47251D01*
X41324Y-47323D01*
X41324Y-45720D01*
X40641Y-45713D01*
X40012Y-45445D01*
X39842Y-45228D01*
X41000Y-44071D01*
X41000Y-43929D01*
X39842Y-42772D01*
X40012Y-42555D01*
X40043Y-42535D01*
X40676Y-42280D01*
X41359Y-42287D01*
X41988Y-42555D01*
X42158Y-42772D01*
X41000Y-43929D01*
X41000Y-44071D01*
X42158Y-45228D01*
X41988Y-45445D01*
X41957Y-45465D01*
X41324Y-45720D01*
X41324Y-47323D01*
X41425Y-47366D01*
X41635Y-47577D01*
X41749Y-47852D01*
X41749Y-48150D01*
X41634Y-48425D01*
X41423Y-48635D01*
X41148Y-48749D01*
X40850Y-48749D01*
X40850Y-49268D01*
X41127Y-49261D01*
X41400Y-49366D01*
X41450Y-49480D01*
X41000Y-49929D01*
X41000Y-50071D01*
X41450Y-50520D01*
X41400Y-50634D01*
X41165Y-50731D01*
X40873Y-50739D01*
X40873Y-52282D01*
X41359Y-52287D01*
X41520Y-52355D01*
X41520Y-50450D01*
X41071Y-50000D01*
X41520Y-49550D01*
X41634Y-49600D01*
X41731Y-49835D01*
X41739Y-50127D01*
X41634Y-50400D01*
X41520Y-50450D01*
X41520Y-52355D01*
X41988Y-52555D01*
X42158Y-52772D01*
X41000Y-53929D01*
X41000Y-54071D01*
X42158Y-55228D01*
X41988Y-55445D01*
X41957Y-55465D01*
X41324Y-55720D01*
X41324Y-56255D01*
X42228Y-56255D01*
X42228Y-55158D01*
X41071Y-54000D01*
X42228Y-52842D01*
X42228Y-45158D01*
X41071Y-44000D01*
X42228Y-42842D01*
X42445Y-43012D01*
X42465Y-43043D01*
X42720Y-43676D01*
X42713Y-44359D01*
X42445Y-44988D01*
X42228Y-45158D01*
X42228Y-52842D01*
X42445Y-53012D01*
X42465Y-53043D01*
X42720Y-53676D01*
X42713Y-54359D01*
X42445Y-54988D01*
X42228Y-55158D01*
X42228Y-56255D01*
X46317Y-56255D01*
X46317Y-43250D01*
X45820Y-43249D01*
X45361Y-43059D01*
X45010Y-42707D01*
X44820Y-42247D01*
X44821Y-41750D01*
X45011Y-41291D01*
X45363Y-40940D01*
X45823Y-40750D01*
X46320Y-40751D01*
X46779Y-40941D01*
X47130Y-41293D01*
X47320Y-41753D01*
X47319Y-42250D01*
X47129Y-42709D01*
X46777Y-43060D01*
X46317Y-43250D01*
X46317Y-56255D01*
X53391Y-56255D01*
X53391Y-54549D01*
X53189Y-54465D01*
X53035Y-54311D01*
X53000Y-54226D01*
X52965Y-54311D01*
X52811Y-54465D01*
X52609Y-54549D01*
X52391Y-54549D01*
X52189Y-54465D01*
X52035Y-54311D01*
X52000Y-54226D01*
X51965Y-54311D01*
X51811Y-54465D01*
X51609Y-54549D01*
X51391Y-54549D01*
X51189Y-54465D01*
X51035Y-54311D01*
X51000Y-54226D01*
X50965Y-54311D01*
X50811Y-54465D01*
X50609Y-54549D01*
X50391Y-54549D01*
X50189Y-54465D01*
X50035Y-54311D01*
X50000Y-54226D01*
X49965Y-54311D01*
X49811Y-54465D01*
X49609Y-54549D01*
X49391Y-54549D01*
X49189Y-54465D01*
X49035Y-54311D01*
X49000Y-54226D01*
X48965Y-54311D01*
X48811Y-54465D01*
X48609Y-54549D01*
X48391Y-54549D01*
X48189Y-54465D01*
X48049Y-54325D01*
X48049Y-54350D01*
X48011Y-54441D01*
X47941Y-54511D01*
X47849Y-54549D01*
X47150Y-54549D01*
X47059Y-54511D01*
X46989Y-54441D01*
X46951Y-54349D01*
X46951Y-53650D01*
X46989Y-53559D01*
X47059Y-53489D01*
X47151Y-53451D01*
X47850Y-53451D01*
X47941Y-53489D01*
X48011Y-53559D01*
X48049Y-53651D01*
X48049Y-53675D01*
X48189Y-53535D01*
X48210Y-53526D01*
X48210Y-49250D01*
X48232Y-49139D01*
X48295Y-49045D01*
X48586Y-48753D01*
X48586Y-47093D01*
X48487Y-47060D01*
X48418Y-46894D01*
X48407Y-46659D01*
X48487Y-46440D01*
X48586Y-46407D01*
X48586Y-46093D01*
X48487Y-46060D01*
X48418Y-45894D01*
X48407Y-45659D01*
X48462Y-45508D01*
X48462Y-42808D01*
X48368Y-42781D01*
X48308Y-42634D01*
X48297Y-42421D01*
X48368Y-42219D01*
X48462Y-42192D01*
X48769Y-42500D01*
X48462Y-42808D01*
X48462Y-45508D01*
X48487Y-45440D01*
X48586Y-45407D01*
X48929Y-45750D01*
X48586Y-46093D01*
X48586Y-46407D01*
X48929Y-46750D01*
X48586Y-47093D01*
X48586Y-48753D01*
X48909Y-48430D01*
X48909Y-47343D01*
X48690Y-47263D01*
X48657Y-47164D01*
X49000Y-46821D01*
X49343Y-47164D01*
X49310Y-47263D01*
X49144Y-47332D01*
X48909Y-47343D01*
X48909Y-48430D01*
X49991Y-47349D01*
X49881Y-47349D01*
X49661Y-47258D01*
X49492Y-47089D01*
X49484Y-47069D01*
X49414Y-47093D01*
X49071Y-46750D01*
X49000Y-46679D01*
X48657Y-46336D01*
X48685Y-46250D01*
X48657Y-46164D01*
X49000Y-45821D01*
X49071Y-45750D01*
X49000Y-45679D01*
X48657Y-45336D01*
X48690Y-45237D01*
X48856Y-45168D01*
X49091Y-45157D01*
X49206Y-45199D01*
X49206Y-44339D01*
X49175Y-44308D01*
X49112Y-44214D01*
X49090Y-44103D01*
X49090Y-42984D01*
X48974Y-43032D01*
X48761Y-43043D01*
X48559Y-42972D01*
X48532Y-42878D01*
X48840Y-42571D01*
X48911Y-42500D01*
X48840Y-42429D01*
X48532Y-42122D01*
X48559Y-42028D01*
X48706Y-41968D01*
X48919Y-41957D01*
X49090Y-42017D01*
X49090Y-41973D01*
X49069Y-41965D01*
X48915Y-41811D01*
X48831Y-41609D01*
X48831Y-41391D01*
X48915Y-41189D01*
X49069Y-41035D01*
X49271Y-40951D01*
X49489Y-40951D01*
X49691Y-41035D01*
X49845Y-41189D01*
X49920Y-41369D01*
X49995Y-41189D01*
X50149Y-41035D01*
X50351Y-40951D01*
X50569Y-40951D01*
X50771Y-41035D01*
X50925Y-41189D01*
X51000Y-41369D01*
X51075Y-41189D01*
X51229Y-41035D01*
X51431Y-40951D01*
X51649Y-40951D01*
X51851Y-41035D01*
X52005Y-41189D01*
X52080Y-41369D01*
X52155Y-41189D01*
X52309Y-41035D01*
X52511Y-40951D01*
X52729Y-40951D01*
X52931Y-41035D01*
X53085Y-41189D01*
X53169Y-41391D01*
X53169Y-41609D01*
X53085Y-41811D01*
X52931Y-41965D01*
X52729Y-42049D01*
X52511Y-42049D01*
X52309Y-41965D01*
X52155Y-41811D01*
X52080Y-41630D01*
X52005Y-41811D01*
X51851Y-41965D01*
X51790Y-41990D01*
X51790Y-42026D01*
X51971Y-41951D01*
X52189Y-41951D01*
X52391Y-42035D01*
X52545Y-42189D01*
X52620Y-42369D01*
X52695Y-42189D01*
X52849Y-42035D01*
X53051Y-41951D01*
X53269Y-41951D01*
X53471Y-42035D01*
X53625Y-42189D01*
X53709Y-42391D01*
X53709Y-42609D01*
X53625Y-42811D01*
X53471Y-42965D01*
X53450Y-42973D01*
X53450Y-45097D01*
X53436Y-45166D01*
X53491Y-45189D01*
X53561Y-45259D01*
X53599Y-45351D01*
X53599Y-46150D01*
X53561Y-46241D01*
X53491Y-46311D01*
X53432Y-46335D01*
X53508Y-46411D01*
X53599Y-46631D01*
X53599Y-46869D01*
X53508Y-47089D01*
X53339Y-47258D01*
X53119Y-47349D01*
X52881Y-47349D01*
X52661Y-47258D01*
X52499Y-47096D01*
X52339Y-47258D01*
X52119Y-47349D01*
X51881Y-47349D01*
X51661Y-47258D01*
X51499Y-47096D01*
X51339Y-47258D01*
X51119Y-47349D01*
X50881Y-47349D01*
X50831Y-47328D01*
X48790Y-49370D01*
X48790Y-53526D01*
X48811Y-53535D01*
X48965Y-53689D01*
X49000Y-53773D01*
X49035Y-53689D01*
X49189Y-53535D01*
X49391Y-53451D01*
X49609Y-53451D01*
X49811Y-53535D01*
X49965Y-53689D01*
X50000Y-53773D01*
X50035Y-53689D01*
X50189Y-53535D01*
X50391Y-53451D01*
X50609Y-53451D01*
X50811Y-53535D01*
X50965Y-53689D01*
X51000Y-53773D01*
X51035Y-53689D01*
X51189Y-53535D01*
X51391Y-53451D01*
X51609Y-53451D01*
X51811Y-53535D01*
X51965Y-53689D01*
X52000Y-53773D01*
X52035Y-53689D01*
X52189Y-53535D01*
X52391Y-53451D01*
X52609Y-53451D01*
X52811Y-53535D01*
X52965Y-53689D01*
X53000Y-53773D01*
X53035Y-53689D01*
X53189Y-53535D01*
X53344Y-53470D01*
X53344Y-50547D01*
X53057Y-50428D01*
X52837Y-50207D01*
X52718Y-49920D01*
X52718Y-49579D01*
X52837Y-49292D01*
X53058Y-49072D01*
X53345Y-48953D01*
X53656Y-48953D01*
X53943Y-49072D01*
X54163Y-49293D01*
X54282Y-49580D01*
X54282Y-49921D01*
X54163Y-50208D01*
X53942Y-50428D01*
X53655Y-50547D01*
X53344Y-50547D01*
X53344Y-53470D01*
X53391Y-53451D01*
X53609Y-53451D01*
X53811Y-53535D01*
X53965Y-53689D01*
X54004Y-53784D01*
X54028Y-53719D01*
X54122Y-53692D01*
X54429Y-54000D01*
X54122Y-54308D01*
X54028Y-54281D01*
X54002Y-54219D01*
X53965Y-54311D01*
X53811Y-54465D01*
X53609Y-54549D01*
X53391Y-54549D01*
X53391Y-56255D01*
X54421Y-56255D01*
X54421Y-54543D01*
X54219Y-54472D01*
X54192Y-54378D01*
X54500Y-54071D01*
X54500Y-53929D01*
X54192Y-53622D01*
X54219Y-53528D01*
X54366Y-53468D01*
X54579Y-53457D01*
X54781Y-53528D01*
X54808Y-53622D01*
X54500Y-53929D01*
X54500Y-54071D01*
X54808Y-54378D01*
X54781Y-54472D01*
X54634Y-54532D01*
X54421Y-54543D01*
X54421Y-56255D01*
X54878Y-56255D01*
X54878Y-54308D01*
X54571Y-54000D01*
X54878Y-53692D01*
X54972Y-53719D01*
X55032Y-53866D01*
X55043Y-54079D01*
X54972Y-54281D01*
X54878Y-54308D01*
X54878Y-56255D01*
X55344Y-56255D01*
X55344Y-50547D01*
X55057Y-50428D01*
X54837Y-50207D01*
X54718Y-49920D01*
X54718Y-49579D01*
X54837Y-49292D01*
X55058Y-49072D01*
X55345Y-48953D01*
X55656Y-48953D01*
X55943Y-49072D01*
X56163Y-49293D01*
X56177Y-49326D01*
X56177Y-43250D01*
X55680Y-43249D01*
X55221Y-43059D01*
X54870Y-42707D01*
X54680Y-42247D01*
X54681Y-41750D01*
X54871Y-41291D01*
X55223Y-40940D01*
X55683Y-40750D01*
X56180Y-40751D01*
X56639Y-40941D01*
X56990Y-41293D01*
X57180Y-41753D01*
X57179Y-42250D01*
X56989Y-42709D01*
X56637Y-43060D01*
X56177Y-43250D01*
X56177Y-49326D01*
X56282Y-49580D01*
X56282Y-49921D01*
X56163Y-50208D01*
X55942Y-50428D01*
X55655Y-50547D01*
X55344Y-50547D01*
X55344Y-56255D01*
X57344Y-56255D01*
X57344Y-50547D01*
X57057Y-50428D01*
X56837Y-50207D01*
X56718Y-49920D01*
X56718Y-49579D01*
X56837Y-49292D01*
X57058Y-49072D01*
X57345Y-48953D01*
X57656Y-48953D01*
X57943Y-49072D01*
X58163Y-49293D01*
X58282Y-49580D01*
X58282Y-49921D01*
X58163Y-50208D01*
X57942Y-50428D01*
X57655Y-50547D01*
X57344Y-50547D01*
X57344Y-56255D01*
X59772Y-56255D01*
X59772Y-55158D01*
X59555Y-54988D01*
X59535Y-54957D01*
X59280Y-54324D01*
X59287Y-53641D01*
X59555Y-53012D01*
X59772Y-52842D01*
X59772Y-45158D01*
X59555Y-44988D01*
X59535Y-44957D01*
X59280Y-44324D01*
X59287Y-43641D01*
X59555Y-43012D01*
X59772Y-42842D01*
X60929Y-44000D01*
X59772Y-45158D01*
X59772Y-52842D01*
X60929Y-54000D01*
X59772Y-55158D01*
X59772Y-56255D01*
X61324Y-56255D01*
X61324Y-55720D01*
X60641Y-55713D01*
X60012Y-55445D01*
X59842Y-55228D01*
X61000Y-54071D01*
X61000Y-53929D01*
X59842Y-52772D01*
X60012Y-52555D01*
X60043Y-52535D01*
X60676Y-52280D01*
X61324Y-52286D01*
X61324Y-45720D01*
X60641Y-45713D01*
X60012Y-45445D01*
X59842Y-45228D01*
X61000Y-44071D01*
X61000Y-43929D01*
X59842Y-42772D01*
X60012Y-42555D01*
X60043Y-42535D01*
X60676Y-42280D01*
X61359Y-42287D01*
X61612Y-42394D01*
X61612Y-41365D01*
X61550Y-41303D01*
X61550Y-40800D01*
X62053Y-40800D01*
X62115Y-40862D01*
X62114Y-41066D01*
X62114Y-41165D01*
X62076Y-41256D01*
X62006Y-41326D01*
X61914Y-41364D01*
X61612Y-41365D01*
X61612Y-42394D01*
X61988Y-42555D01*
X62158Y-42772D01*
X61000Y-43929D01*
X61000Y-44071D01*
X62158Y-45228D01*
X61988Y-45445D01*
X61957Y-45465D01*
X61324Y-45720D01*
X61324Y-52286D01*
X61359Y-52287D01*
X61988Y-52555D01*
X62158Y-52772D01*
X61000Y-53929D01*
X61000Y-54071D01*
X62158Y-55228D01*
X61988Y-55445D01*
X61957Y-55465D01*
X61324Y-55720D01*
X61324Y-56255D01*
X62228Y-56255D01*
X62228Y-55158D01*
X61071Y-54000D01*
X62228Y-52842D01*
X62445Y-53012D01*
X62465Y-53043D01*
X62720Y-53676D01*
X62713Y-54359D01*
X62445Y-54988D01*
X62228Y-55158D01*
X62228Y-56255D01*
X63255Y-56255D01*
M02*
