G04 (created by PCBNEW-RS274X (2010-03-14)-final) date Tue 08 Feb 2011 04:32:16 PM PST*
G01*
G70*
G90*
%MOIN*%
G04 Gerber Fmt 3.4, Leading zero omitted, Abs format*
%FSLAX34Y34*%
G04 APERTURE LIST*
%ADD10C,0.006000*%
%ADD11C,0.009000*%
%ADD12C,0.060000*%
%ADD13C,0.200000*%
%ADD14O,0.109500X0.109500*%
%ADD15C,0.109500*%
%ADD16C,0.100000*%
%ADD17R,0.060000X0.060000*%
%ADD18R,0.070000X0.070000*%
%ADD19C,0.070000*%
%ADD20C,0.300000*%
%ADD21C,0.073000*%
%ADD22R,0.073000X0.073000*%
%ADD23C,0.053000*%
%ADD24C,0.008000*%
%ADD25C,0.010000*%
G04 APERTURE END LIST*
G54D10*
G54D11*
X38500Y-39000D02*
X38500Y-56500D01*
X63500Y-39000D02*
X38500Y-39000D01*
X63500Y-56500D02*
X63500Y-39000D01*
X38500Y-56500D02*
X63500Y-56500D01*
G54D12*
X53160Y-42500D03*
X52080Y-42500D03*
X51000Y-42500D03*
X49920Y-42500D03*
X48840Y-42500D03*
X52620Y-41500D03*
X51540Y-41500D03*
X50460Y-41500D03*
X49380Y-41500D03*
G54D13*
X55930Y-42000D03*
X46070Y-42000D03*
G54D14*
X57500Y-49750D03*
X55500Y-49750D03*
X53500Y-49750D03*
G54D15*
X62500Y-50750D03*
X62500Y-48750D03*
G54D16*
X41000Y-48000D03*
X41000Y-50000D03*
G54D17*
X47500Y-54000D03*
G54D12*
X48500Y-54000D03*
X49500Y-54000D03*
X50500Y-54000D03*
X51500Y-54000D03*
X52500Y-54000D03*
X53500Y-54000D03*
X54500Y-54000D03*
G54D18*
X53000Y-45750D03*
G54D19*
X53000Y-46750D03*
X52000Y-45750D03*
X52000Y-46750D03*
X51000Y-45750D03*
X51000Y-46750D03*
X50000Y-45750D03*
X50000Y-46750D03*
X49000Y-45750D03*
X49000Y-46750D03*
G54D20*
X41000Y-44000D03*
X61000Y-44000D03*
X41000Y-54000D03*
X61000Y-54000D03*
G54D21*
X60500Y-40750D03*
G54D22*
X61500Y-40750D03*
G54D23*
X61500Y-39750D03*
X60500Y-39750D03*
G54D24*
X53000Y-46750D02*
X52500Y-46750D01*
X52500Y-48557D02*
X52500Y-46750D01*
X47500Y-53557D02*
X52500Y-48557D01*
X52620Y-43923D02*
X52620Y-41500D01*
X52500Y-44043D02*
X52620Y-43923D01*
X52500Y-46750D02*
X52500Y-44043D01*
X47500Y-54000D02*
X47500Y-53557D01*
G54D25*
X61626Y-39244D02*
X61626Y-39244D01*
X56800Y-39324D02*
X60198Y-39324D01*
X61802Y-39324D02*
X63255Y-39324D01*
X56800Y-39404D02*
X60118Y-39404D01*
X61882Y-39404D02*
X63255Y-39404D01*
X56800Y-39484D02*
X60054Y-39484D01*
X61948Y-39484D02*
X63255Y-39484D01*
X56800Y-39564D02*
X60020Y-39564D01*
X61981Y-39564D02*
X63255Y-39564D01*
X56800Y-39644D02*
X59987Y-39644D01*
X62014Y-39644D02*
X63255Y-39644D01*
X56800Y-39724D02*
X59985Y-39724D01*
X62015Y-39724D02*
X63255Y-39724D01*
X56800Y-39804D02*
X59985Y-39804D01*
X62015Y-39804D02*
X63255Y-39804D01*
X56800Y-39884D02*
X59998Y-39884D01*
X62002Y-39884D02*
X63255Y-39884D01*
X56800Y-39964D02*
X60031Y-39964D01*
X61968Y-39964D02*
X63255Y-39964D01*
X56800Y-40044D02*
X60066Y-40044D01*
X61934Y-40044D02*
X63255Y-40044D01*
X56800Y-40124D02*
X60146Y-40124D01*
X61854Y-40124D02*
X63255Y-40124D01*
X56800Y-40204D02*
X60230Y-40204D01*
X62036Y-40204D02*
X63255Y-40204D01*
X56800Y-40284D02*
X60161Y-40284D01*
X62093Y-40284D02*
X63255Y-40284D01*
X56800Y-40364D02*
X60184Y-40364D01*
X62114Y-40364D02*
X63255Y-40364D01*
X56800Y-40444D02*
X59970Y-40444D01*
X60124Y-40444D02*
X60264Y-40444D01*
X62114Y-40444D02*
X63255Y-40444D01*
X56800Y-40524D02*
X59941Y-40524D01*
X60204Y-40524D02*
X60344Y-40524D01*
X62114Y-40524D02*
X63255Y-40524D01*
X56800Y-40604D02*
X59912Y-40604D01*
X60284Y-40604D02*
X60424Y-40604D01*
X62114Y-40604D02*
X63255Y-40604D01*
X56800Y-40684D02*
X59894Y-40684D01*
X60364Y-40684D02*
X60505Y-40684D01*
X62114Y-40684D02*
X63255Y-40684D01*
X56800Y-40764D02*
X59897Y-40764D01*
X60415Y-40764D02*
X60557Y-40764D01*
X62114Y-40764D02*
X63255Y-40764D01*
X56800Y-40844D02*
X59900Y-40844D01*
X60335Y-40844D02*
X60477Y-40844D01*
X62114Y-40844D02*
X63255Y-40844D01*
X56800Y-40924D02*
X59915Y-40924D01*
X60255Y-40924D02*
X60397Y-40924D01*
X62114Y-40924D02*
X63255Y-40924D01*
X56800Y-41004D02*
X59948Y-41004D01*
X60175Y-41004D02*
X60317Y-41004D01*
X62114Y-41004D02*
X63255Y-41004D01*
X56800Y-41084D02*
X60016Y-41084D01*
X60095Y-41084D02*
X60237Y-41084D01*
X62114Y-41084D02*
X63255Y-41084D01*
X56862Y-41164D02*
X60157Y-41164D01*
X62114Y-41164D02*
X63255Y-41164D01*
X56942Y-41244D02*
X60169Y-41244D01*
X60830Y-41244D02*
X60919Y-41244D01*
X62081Y-41244D02*
X63255Y-41244D01*
X57003Y-41324D02*
X60314Y-41324D01*
X60700Y-41324D02*
X60992Y-41324D01*
X62008Y-41324D02*
X63255Y-41324D01*
X57036Y-41404D02*
X63255Y-41404D01*
X57069Y-41484D02*
X63255Y-41484D01*
X57102Y-41564D02*
X63255Y-41564D01*
X57135Y-41644D02*
X63255Y-41644D01*
X57169Y-41724D02*
X63255Y-41724D01*
X57179Y-41804D02*
X63255Y-41804D01*
X57179Y-41884D02*
X63255Y-41884D01*
X57179Y-41964D02*
X63255Y-41964D01*
X57179Y-42044D02*
X63255Y-42044D01*
X57179Y-42124D02*
X63255Y-42124D01*
X57179Y-42204D02*
X63255Y-42204D01*
X57164Y-42284D02*
X60571Y-42284D01*
X61431Y-42284D02*
X63255Y-42284D01*
X57131Y-42364D02*
X60376Y-42364D01*
X61624Y-42364D02*
X63255Y-42364D01*
X57098Y-42444D02*
X60183Y-42444D01*
X61817Y-42444D02*
X63255Y-42444D01*
X57065Y-42524D02*
X60002Y-42524D01*
X61999Y-42524D02*
X63255Y-42524D01*
X57032Y-42604D02*
X59922Y-42604D01*
X62079Y-42604D02*
X63255Y-42604D01*
X56999Y-42684D02*
X59842Y-42684D01*
X62159Y-42684D02*
X63255Y-42684D01*
X56933Y-42764D02*
X59762Y-42764D01*
X62239Y-42764D02*
X63255Y-42764D01*
X56853Y-42844D02*
X59682Y-42844D01*
X62319Y-42844D02*
X63255Y-42844D01*
X56800Y-42924D02*
X59602Y-42924D01*
X62399Y-42924D02*
X63255Y-42924D01*
X56800Y-43004D02*
X59522Y-43004D01*
X62479Y-43004D02*
X63255Y-43004D01*
X56800Y-43084D02*
X59486Y-43084D01*
X62515Y-43084D02*
X63255Y-43084D01*
X56800Y-43164D02*
X59453Y-43164D01*
X62548Y-43164D02*
X63255Y-43164D01*
X56800Y-43244D02*
X59420Y-43244D01*
X62581Y-43244D02*
X63255Y-43244D01*
X56800Y-43324D02*
X59386Y-43324D01*
X62614Y-43324D02*
X63255Y-43324D01*
X56800Y-43404D02*
X59353Y-43404D01*
X62647Y-43404D02*
X63255Y-43404D01*
X56800Y-43484D02*
X59320Y-43484D01*
X62681Y-43484D02*
X63255Y-43484D01*
X56800Y-43564D02*
X59287Y-43564D01*
X62714Y-43564D02*
X63255Y-43564D01*
X56800Y-43644D02*
X59253Y-43644D01*
X62747Y-43644D02*
X63255Y-43644D01*
X56800Y-43724D02*
X59250Y-43724D01*
X62750Y-43724D02*
X63255Y-43724D01*
X56800Y-43804D02*
X59250Y-43804D01*
X62750Y-43804D02*
X63255Y-43804D01*
X56800Y-43884D02*
X59250Y-43884D01*
X62750Y-43884D02*
X63255Y-43884D01*
X56800Y-43964D02*
X59250Y-43964D01*
X62750Y-43964D02*
X63255Y-43964D01*
X56800Y-44044D02*
X59250Y-44044D01*
X62750Y-44044D02*
X63255Y-44044D01*
X56800Y-44124D02*
X59250Y-44124D01*
X62750Y-44124D02*
X63255Y-44124D01*
X56800Y-44204D02*
X59250Y-44204D01*
X62750Y-44204D02*
X63255Y-44204D01*
X56800Y-44284D02*
X59250Y-44284D01*
X62750Y-44284D02*
X63255Y-44284D01*
X56800Y-44364D02*
X59257Y-44364D01*
X62743Y-44364D02*
X63255Y-44364D01*
X56800Y-44444D02*
X59290Y-44444D01*
X62710Y-44444D02*
X63255Y-44444D01*
X56800Y-44524D02*
X59323Y-44524D01*
X62677Y-44524D02*
X63255Y-44524D01*
X56800Y-44604D02*
X59356Y-44604D01*
X62644Y-44604D02*
X63255Y-44604D01*
X56800Y-44684D02*
X59389Y-44684D01*
X62610Y-44684D02*
X63255Y-44684D01*
X56800Y-44764D02*
X59422Y-44764D01*
X62577Y-44764D02*
X63255Y-44764D01*
X56800Y-44844D02*
X59455Y-44844D01*
X62544Y-44844D02*
X63255Y-44844D01*
X56800Y-44924D02*
X59488Y-44924D01*
X62511Y-44924D02*
X63255Y-44924D01*
X56800Y-45004D02*
X59529Y-45004D01*
X62470Y-45004D02*
X63255Y-45004D01*
X56800Y-45084D02*
X59609Y-45084D01*
X62390Y-45084D02*
X63255Y-45084D01*
X56800Y-45164D02*
X59689Y-45164D01*
X62310Y-45164D02*
X63255Y-45164D01*
X56800Y-45244D02*
X59769Y-45244D01*
X62230Y-45244D02*
X63255Y-45244D01*
X56800Y-45324D02*
X59849Y-45324D01*
X62150Y-45324D02*
X63255Y-45324D01*
X56800Y-45404D02*
X59929Y-45404D01*
X62070Y-45404D02*
X63255Y-45404D01*
X56800Y-45484D02*
X60010Y-45484D01*
X61990Y-45484D02*
X63255Y-45484D01*
X56800Y-45564D02*
X60203Y-45564D01*
X61796Y-45564D02*
X63255Y-45564D01*
X56800Y-45644D02*
X60395Y-45644D01*
X61603Y-45644D02*
X63255Y-45644D01*
X56800Y-45724D02*
X60588Y-45724D01*
X61409Y-45724D02*
X63255Y-45724D01*
X56800Y-45804D02*
X63255Y-45804D01*
X56800Y-45884D02*
X63255Y-45884D01*
X56800Y-45964D02*
X63255Y-45964D01*
X56800Y-46044D02*
X63255Y-46044D01*
X56800Y-46124D02*
X63255Y-46124D01*
X56800Y-46204D02*
X63255Y-46204D01*
X56800Y-46284D02*
X63255Y-46284D01*
X56800Y-46364D02*
X63255Y-46364D01*
X56800Y-46444D02*
X63255Y-46444D01*
X56800Y-46524D02*
X63255Y-46524D01*
X56800Y-46604D02*
X63255Y-46604D01*
X56800Y-46684D02*
X63255Y-46684D01*
X56800Y-46764D02*
X63255Y-46764D01*
X56800Y-46844D02*
X63255Y-46844D01*
X56800Y-46924D02*
X63255Y-46924D01*
X56800Y-47004D02*
X63255Y-47004D01*
X56800Y-47084D02*
X63255Y-47084D01*
X56800Y-47164D02*
X63255Y-47164D01*
X56800Y-47244D02*
X63255Y-47244D01*
X56800Y-47324D02*
X63255Y-47324D01*
X56800Y-47404D02*
X63255Y-47404D01*
X56800Y-47484D02*
X63255Y-47484D01*
X56800Y-47564D02*
X63255Y-47564D01*
X56800Y-47644D02*
X63255Y-47644D01*
X56800Y-47724D02*
X63255Y-47724D01*
X56800Y-47804D02*
X63255Y-47804D01*
X56800Y-47884D02*
X63255Y-47884D01*
X56800Y-47964D02*
X62316Y-47964D01*
X62686Y-47964D02*
X63255Y-47964D01*
X56800Y-48044D02*
X62122Y-48044D01*
X62878Y-48044D02*
X63255Y-48044D01*
X56800Y-48124D02*
X61999Y-48124D01*
X63001Y-48124D02*
X63255Y-48124D01*
X56800Y-48204D02*
X61919Y-48204D01*
X63081Y-48204D02*
X63255Y-48204D01*
X56800Y-48284D02*
X61839Y-48284D01*
X63161Y-48284D02*
X63255Y-48284D01*
X56800Y-48364D02*
X61798Y-48364D01*
X63203Y-48364D02*
X63255Y-48364D01*
X56800Y-48444D02*
X61765Y-48444D01*
X63236Y-48444D02*
X63255Y-48444D01*
X56800Y-48524D02*
X61731Y-48524D01*
X56800Y-48604D02*
X61703Y-48604D01*
X56800Y-48684D02*
X61703Y-48684D01*
X56800Y-48764D02*
X61703Y-48764D01*
X56800Y-48844D02*
X61703Y-48844D01*
X56800Y-48924D02*
X61709Y-48924D01*
X56800Y-49004D02*
X57246Y-49004D01*
X57414Y-49004D02*
X57587Y-49004D01*
X57755Y-49004D02*
X61742Y-49004D01*
X56800Y-49084D02*
X57058Y-49084D01*
X57450Y-49084D02*
X57550Y-49084D01*
X57943Y-49084D02*
X61775Y-49084D01*
X63223Y-49084D02*
X63255Y-49084D01*
X56800Y-49164D02*
X56974Y-49164D01*
X57450Y-49164D02*
X57550Y-49164D01*
X58027Y-49164D02*
X61808Y-49164D01*
X63190Y-49164D02*
X63255Y-49164D01*
X56800Y-49244D02*
X56890Y-49244D01*
X57450Y-49244D02*
X57550Y-49244D01*
X58111Y-49244D02*
X61867Y-49244D01*
X63133Y-49244D02*
X63255Y-49244D01*
X56800Y-49324D02*
X56828Y-49324D01*
X57450Y-49324D02*
X57550Y-49324D01*
X58173Y-49324D02*
X61947Y-49324D01*
X63053Y-49324D02*
X63255Y-49324D01*
X57450Y-49404D02*
X57550Y-49404D01*
X58209Y-49404D02*
X62027Y-49404D01*
X62973Y-49404D02*
X63255Y-49404D01*
X57450Y-49484D02*
X57550Y-49484D01*
X58244Y-49484D02*
X62189Y-49484D01*
X62810Y-49484D02*
X63255Y-49484D01*
X57450Y-49564D02*
X57550Y-49564D01*
X58280Y-49564D02*
X63255Y-49564D01*
X57450Y-49644D02*
X57550Y-49644D01*
X58259Y-49644D02*
X63255Y-49644D01*
X57450Y-49724D02*
X63255Y-49724D01*
X58242Y-49804D02*
X63255Y-49804D01*
X58270Y-49884D02*
X63255Y-49884D01*
X58266Y-49964D02*
X62316Y-49964D01*
X62686Y-49964D02*
X63255Y-49964D01*
X58231Y-50044D02*
X62122Y-50044D01*
X62878Y-50044D02*
X63255Y-50044D01*
X58195Y-50124D02*
X61999Y-50124D01*
X63001Y-50124D02*
X63255Y-50124D01*
X58160Y-50204D02*
X61919Y-50204D01*
X63081Y-50204D02*
X63255Y-50204D01*
X58081Y-50284D02*
X61839Y-50284D01*
X63161Y-50284D02*
X63255Y-50284D01*
X57997Y-50364D02*
X61798Y-50364D01*
X63203Y-50364D02*
X63255Y-50364D01*
X57888Y-50444D02*
X61764Y-50444D01*
X63236Y-50444D02*
X63255Y-50444D01*
X63255Y-50450D02*
X63255Y-49009D01*
X63175Y-49202D01*
X62951Y-49426D01*
X62658Y-49547D01*
X62341Y-49547D01*
X62048Y-49425D01*
X61824Y-49201D01*
X61703Y-48908D01*
X61703Y-48591D01*
X61825Y-48298D01*
X62049Y-48074D01*
X62342Y-47953D01*
X62659Y-47953D01*
X62952Y-48075D01*
X63176Y-48299D01*
X63255Y-48490D01*
X63255Y-39245D01*
X61626Y-39244D01*
X61792Y-39314D01*
X61937Y-39459D01*
X62015Y-39648D01*
X62015Y-39853D01*
X61936Y-40042D01*
X61842Y-40136D01*
X61915Y-40136D01*
X62006Y-40174D01*
X62076Y-40244D01*
X62114Y-40336D01*
X62114Y-41165D01*
X62076Y-41256D01*
X62006Y-41326D01*
X61914Y-41364D01*
X61085Y-41364D01*
X60994Y-41326D01*
X60924Y-41256D01*
X60890Y-41174D01*
X60872Y-41193D01*
X60853Y-41174D01*
X60820Y-41275D01*
X60644Y-41347D01*
X60405Y-41357D01*
X60180Y-41275D01*
X60146Y-41174D01*
X60500Y-40821D01*
X60571Y-40750D01*
X60500Y-40679D01*
X60146Y-40326D01*
X60180Y-40225D01*
X60241Y-40199D01*
X60208Y-40186D01*
X60063Y-40041D01*
X59985Y-39852D01*
X59985Y-39647D01*
X60064Y-39458D01*
X60209Y-39313D01*
X60373Y-39245D01*
X56800Y-39245D01*
X56800Y-41102D01*
X56990Y-41293D01*
X57180Y-41753D01*
X57179Y-42250D01*
X56989Y-42709D01*
X56800Y-42897D01*
X56800Y-49385D01*
X56843Y-49288D01*
X57070Y-49072D01*
X57326Y-48973D01*
X57450Y-49017D01*
X57450Y-49700D01*
X57450Y-49800D01*
X57550Y-49800D01*
X57550Y-49700D01*
X57550Y-49017D01*
X57674Y-48973D01*
X57930Y-49072D01*
X58157Y-49288D01*
X58284Y-49575D01*
X58240Y-49700D01*
X57550Y-49700D01*
X57550Y-49800D01*
X58240Y-49800D01*
X58284Y-49925D01*
X58157Y-50212D01*
X57930Y-50428D01*
X57873Y-50450D01*
X60651Y-50450D01*
X60651Y-45750D01*
X60008Y-45483D01*
X59516Y-44990D01*
X59250Y-44347D01*
X59250Y-43651D01*
X59517Y-43008D01*
X60010Y-42516D01*
X60076Y-42488D01*
X60076Y-41104D01*
X59975Y-41070D01*
X59903Y-40894D01*
X59893Y-40655D01*
X59975Y-40430D01*
X60076Y-40396D01*
X60429Y-40750D01*
X60076Y-41104D01*
X60076Y-42488D01*
X60405Y-42352D01*
X60653Y-42250D01*
X61349Y-42250D01*
X61992Y-42517D01*
X62484Y-43010D01*
X62750Y-43653D01*
X62750Y-44349D01*
X62483Y-44992D01*
X61990Y-45484D01*
X61347Y-45750D01*
X60651Y-45750D01*
X60651Y-50450D01*
X61761Y-50450D01*
X61825Y-50298D01*
X62049Y-50074D01*
X62342Y-49953D01*
X62659Y-49953D01*
X62952Y-50075D01*
X63176Y-50299D01*
X63238Y-50450D01*
X63255Y-50450D01*
X38745Y-39245D02*
X56450Y-39245D01*
X38745Y-39325D02*
X56450Y-39325D01*
X38745Y-39405D02*
X56450Y-39405D01*
X38745Y-39485D02*
X56450Y-39485D01*
X38745Y-39565D02*
X56450Y-39565D01*
X38745Y-39645D02*
X56450Y-39645D01*
X38745Y-39725D02*
X56450Y-39725D01*
X38745Y-39805D02*
X56450Y-39805D01*
X38745Y-39885D02*
X56450Y-39885D01*
X38745Y-39965D02*
X56450Y-39965D01*
X38745Y-40045D02*
X56450Y-40045D01*
X38745Y-40125D02*
X56450Y-40125D01*
X38745Y-40205D02*
X56450Y-40205D01*
X38745Y-40285D02*
X56450Y-40285D01*
X38745Y-40365D02*
X56450Y-40365D01*
X38745Y-40445D02*
X56450Y-40445D01*
X38745Y-40525D02*
X56450Y-40525D01*
X38745Y-40605D02*
X56450Y-40605D01*
X38745Y-40685D02*
X56450Y-40685D01*
X38745Y-40765D02*
X45787Y-40765D01*
X46354Y-40765D02*
X55647Y-40765D01*
X56215Y-40765D02*
X56450Y-40765D01*
X38745Y-40845D02*
X45593Y-40845D01*
X46548Y-40845D02*
X55453Y-40845D01*
X56409Y-40845D02*
X56450Y-40845D01*
X38745Y-40925D02*
X45400Y-40925D01*
X46741Y-40925D02*
X55260Y-40925D01*
X38745Y-41005D02*
X45298Y-41005D01*
X46843Y-41005D02*
X49142Y-41005D01*
X49619Y-41005D02*
X50222Y-41005D01*
X50699Y-41005D02*
X51302Y-41005D01*
X51779Y-41005D02*
X52382Y-41005D01*
X52859Y-41005D02*
X55158Y-41005D01*
X38745Y-41085D02*
X45218Y-41085D01*
X46923Y-41085D02*
X49019Y-41085D01*
X49741Y-41085D02*
X50099Y-41085D01*
X50821Y-41085D02*
X51179Y-41085D01*
X51901Y-41085D02*
X52259Y-41085D01*
X52981Y-41085D02*
X55078Y-41085D01*
X38745Y-41165D02*
X45138Y-41165D01*
X47003Y-41165D02*
X48939Y-41165D01*
X49821Y-41165D02*
X50019Y-41165D01*
X50901Y-41165D02*
X51099Y-41165D01*
X51981Y-41165D02*
X52179Y-41165D01*
X53061Y-41165D02*
X54998Y-41165D01*
X38745Y-41245D02*
X45058Y-41245D01*
X47083Y-41245D02*
X48892Y-41245D01*
X49869Y-41245D02*
X49972Y-41245D01*
X50949Y-41245D02*
X51052Y-41245D01*
X52029Y-41245D02*
X52132Y-41245D01*
X53109Y-41245D02*
X54918Y-41245D01*
X38745Y-41325D02*
X44997Y-41325D01*
X47144Y-41325D02*
X48859Y-41325D01*
X49902Y-41325D02*
X49939Y-41325D01*
X50982Y-41325D02*
X51019Y-41325D01*
X52062Y-41325D02*
X52099Y-41325D01*
X53142Y-41325D02*
X54857Y-41325D01*
X38745Y-41405D02*
X44964Y-41405D01*
X47177Y-41405D02*
X48831Y-41405D01*
X53169Y-41405D02*
X54824Y-41405D01*
X38745Y-41485D02*
X44931Y-41485D01*
X47210Y-41485D02*
X48831Y-41485D01*
X53169Y-41485D02*
X54791Y-41485D01*
X38745Y-41565D02*
X44898Y-41565D01*
X47243Y-41565D02*
X48831Y-41565D01*
X53169Y-41565D02*
X54758Y-41565D01*
X38745Y-41645D02*
X44865Y-41645D01*
X47276Y-41645D02*
X48845Y-41645D01*
X49913Y-41645D02*
X49926Y-41645D01*
X50993Y-41645D02*
X51006Y-41645D01*
X52073Y-41645D02*
X52086Y-41645D01*
X53154Y-41645D02*
X54725Y-41645D01*
X38745Y-41725D02*
X44832Y-41725D01*
X47309Y-41725D02*
X48879Y-41725D01*
X49880Y-41725D02*
X49959Y-41725D01*
X50960Y-41725D02*
X51039Y-41725D01*
X52040Y-41725D02*
X52119Y-41725D01*
X53120Y-41725D02*
X54692Y-41725D01*
X38745Y-41805D02*
X44821Y-41805D01*
X47319Y-41805D02*
X48912Y-41805D01*
X49847Y-41805D02*
X49992Y-41805D01*
X50927Y-41805D02*
X51072Y-41805D01*
X52007Y-41805D02*
X52152Y-41805D01*
X53087Y-41805D02*
X54681Y-41805D01*
X38745Y-41885D02*
X44821Y-41885D01*
X47319Y-41885D02*
X48989Y-41885D01*
X49771Y-41885D02*
X50069Y-41885D01*
X50851Y-41885D02*
X51149Y-41885D01*
X51931Y-41885D02*
X52229Y-41885D01*
X53011Y-41885D02*
X54681Y-41885D01*
X38745Y-41965D02*
X44821Y-41965D01*
X47319Y-41965D02*
X48698Y-41965D01*
X48983Y-41965D02*
X49069Y-41965D01*
X49691Y-41965D02*
X49778Y-41965D01*
X50063Y-41965D02*
X50149Y-41965D01*
X50771Y-41965D02*
X50858Y-41965D01*
X51143Y-41965D02*
X51229Y-41965D01*
X51851Y-41965D02*
X51938Y-41965D01*
X52224Y-41965D02*
X52309Y-41965D01*
X52931Y-41965D02*
X53017Y-41965D01*
X53303Y-41965D02*
X54681Y-41965D01*
X38745Y-42045D02*
X44821Y-42045D01*
X47319Y-42045D02*
X48519Y-42045D01*
X49161Y-42045D02*
X49261Y-42045D01*
X49498Y-42045D02*
X49599Y-42045D01*
X50241Y-42045D02*
X50341Y-42045D01*
X50578Y-42045D02*
X50679Y-42045D01*
X51321Y-42045D02*
X51421Y-42045D01*
X51658Y-42045D02*
X51759Y-42045D01*
X53481Y-42045D02*
X54681Y-42045D01*
X38745Y-42125D02*
X44821Y-42125D01*
X47319Y-42125D02*
X48439Y-42125D01*
X49241Y-42125D02*
X49519Y-42125D01*
X50321Y-42125D02*
X50599Y-42125D01*
X51401Y-42125D02*
X51679Y-42125D01*
X53561Y-42125D02*
X54681Y-42125D01*
X38745Y-42205D02*
X44821Y-42205D01*
X47319Y-42205D02*
X48369Y-42205D01*
X49312Y-42205D02*
X49449Y-42205D01*
X50392Y-42205D02*
X50529Y-42205D01*
X51472Y-42205D02*
X51609Y-42205D01*
X53632Y-42205D02*
X54681Y-42205D01*
X38745Y-42285D02*
X40569Y-42285D01*
X41434Y-42285D02*
X44835Y-42285D01*
X47304Y-42285D02*
X48336Y-42285D01*
X49345Y-42285D02*
X49415Y-42285D01*
X50425Y-42285D02*
X50495Y-42285D01*
X51505Y-42285D02*
X51575Y-42285D01*
X53665Y-42285D02*
X54695Y-42285D01*
X38745Y-42365D02*
X40376Y-42365D01*
X41626Y-42365D02*
X44868Y-42365D01*
X47271Y-42365D02*
X48302Y-42365D01*
X49379Y-42365D02*
X49382Y-42365D01*
X50459Y-42365D02*
X50462Y-42365D01*
X51539Y-42365D02*
X51542Y-42365D01*
X53699Y-42365D02*
X54728Y-42365D01*
X38745Y-42445D02*
X40182Y-42445D01*
X41819Y-42445D02*
X44901Y-42445D01*
X47238Y-42445D02*
X48291Y-42445D01*
X53709Y-42445D02*
X54761Y-42445D01*
X38745Y-42525D02*
X40001Y-42525D01*
X42000Y-42525D02*
X44934Y-42525D01*
X47205Y-42525D02*
X48291Y-42525D01*
X53709Y-42525D02*
X54794Y-42525D01*
X38745Y-42605D02*
X39921Y-42605D01*
X42080Y-42605D02*
X44967Y-42605D01*
X47172Y-42605D02*
X48291Y-42605D01*
X53709Y-42605D02*
X54827Y-42605D01*
X38745Y-42685D02*
X39841Y-42685D01*
X42160Y-42685D02*
X45000Y-42685D01*
X47138Y-42685D02*
X48322Y-42685D01*
X49357Y-42685D02*
X49402Y-42685D01*
X50437Y-42685D02*
X50482Y-42685D01*
X51517Y-42685D02*
X51562Y-42685D01*
X53677Y-42685D02*
X54860Y-42685D01*
X38745Y-42765D02*
X39761Y-42765D01*
X42240Y-42765D02*
X45067Y-42765D01*
X47072Y-42765D02*
X48355Y-42765D01*
X49324Y-42765D02*
X49435Y-42765D01*
X50404Y-42765D02*
X50515Y-42765D01*
X51484Y-42765D02*
X51595Y-42765D01*
X53644Y-42765D02*
X54927Y-42765D01*
X38745Y-42845D02*
X39681Y-42845D01*
X42320Y-42845D02*
X45147Y-42845D01*
X46992Y-42845D02*
X48409Y-42845D01*
X49271Y-42845D02*
X49489Y-42845D01*
X50351Y-42845D02*
X50569Y-42845D01*
X51431Y-42845D02*
X51649Y-42845D01*
X53591Y-42845D02*
X55007Y-42845D01*
X38745Y-42925D02*
X39601Y-42925D01*
X42400Y-42925D02*
X45227Y-42925D01*
X46912Y-42925D02*
X48489Y-42925D01*
X49191Y-42925D02*
X49569Y-42925D01*
X50271Y-42925D02*
X50649Y-42925D01*
X51351Y-42925D02*
X51729Y-42925D01*
X53511Y-42925D02*
X55087Y-42925D01*
X38745Y-43005D02*
X39521Y-43005D01*
X42480Y-43005D02*
X45307Y-43005D01*
X46832Y-43005D02*
X48625Y-43005D01*
X49054Y-43005D02*
X49705Y-43005D01*
X50134Y-43005D02*
X50785Y-43005D01*
X51214Y-43005D02*
X51865Y-43005D01*
X52294Y-43005D02*
X52330Y-43005D01*
X52910Y-43005D02*
X52945Y-43005D01*
X53374Y-43005D02*
X55167Y-43005D01*
X38745Y-43085D02*
X39486Y-43085D01*
X42516Y-43085D02*
X45423Y-43085D01*
X46716Y-43085D02*
X52330Y-43085D01*
X52910Y-43085D02*
X55283Y-43085D01*
X38745Y-43165D02*
X39452Y-43165D01*
X42549Y-43165D02*
X45617Y-43165D01*
X46522Y-43165D02*
X52330Y-43165D01*
X52910Y-43165D02*
X55477Y-43165D01*
X56382Y-43165D02*
X56450Y-43165D01*
X38745Y-43245D02*
X39419Y-43245D01*
X42582Y-43245D02*
X45810Y-43245D01*
X46329Y-43245D02*
X52330Y-43245D01*
X52910Y-43245D02*
X55670Y-43245D01*
X56189Y-43245D02*
X56450Y-43245D01*
X38745Y-43325D02*
X39386Y-43325D01*
X42615Y-43325D02*
X52330Y-43325D01*
X52910Y-43325D02*
X56450Y-43325D01*
X38745Y-43405D02*
X39353Y-43405D01*
X42648Y-43405D02*
X52330Y-43405D01*
X52910Y-43405D02*
X56450Y-43405D01*
X38745Y-43485D02*
X39319Y-43485D01*
X42681Y-43485D02*
X52330Y-43485D01*
X52910Y-43485D02*
X56450Y-43485D01*
X38745Y-43565D02*
X39286Y-43565D01*
X42714Y-43565D02*
X52330Y-43565D01*
X52910Y-43565D02*
X56450Y-43565D01*
X38745Y-43645D02*
X39253Y-43645D01*
X42747Y-43645D02*
X52330Y-43645D01*
X52910Y-43645D02*
X56450Y-43645D01*
X38745Y-43725D02*
X39250Y-43725D01*
X42750Y-43725D02*
X52330Y-43725D01*
X52910Y-43725D02*
X56450Y-43725D01*
X38745Y-43805D02*
X39250Y-43805D01*
X42750Y-43805D02*
X52328Y-43805D01*
X52910Y-43805D02*
X56450Y-43805D01*
X38745Y-43885D02*
X39250Y-43885D01*
X42750Y-43885D02*
X52264Y-43885D01*
X52910Y-43885D02*
X56450Y-43885D01*
X38745Y-43965D02*
X39250Y-43965D01*
X42750Y-43965D02*
X52226Y-43965D01*
X52901Y-43965D02*
X56450Y-43965D01*
X38745Y-44045D02*
X39250Y-44045D01*
X42750Y-44045D02*
X52210Y-44045D01*
X52880Y-44045D02*
X56450Y-44045D01*
X38745Y-44125D02*
X39250Y-44125D01*
X42750Y-44125D02*
X52210Y-44125D01*
X52827Y-44125D02*
X56450Y-44125D01*
X38745Y-44205D02*
X39250Y-44205D01*
X42750Y-44205D02*
X52210Y-44205D01*
X52790Y-44205D02*
X56450Y-44205D01*
X38745Y-44285D02*
X39250Y-44285D01*
X42750Y-44285D02*
X52210Y-44285D01*
X52790Y-44285D02*
X56450Y-44285D01*
X38745Y-44365D02*
X39257Y-44365D01*
X42743Y-44365D02*
X52210Y-44365D01*
X52790Y-44365D02*
X56450Y-44365D01*
X38745Y-44445D02*
X39290Y-44445D01*
X42710Y-44445D02*
X52210Y-44445D01*
X52790Y-44445D02*
X56450Y-44445D01*
X38745Y-44525D02*
X39323Y-44525D01*
X42676Y-44525D02*
X52210Y-44525D01*
X52790Y-44525D02*
X56450Y-44525D01*
X38745Y-44605D02*
X39356Y-44605D01*
X42643Y-44605D02*
X52210Y-44605D01*
X52790Y-44605D02*
X56450Y-44605D01*
X38745Y-44685D02*
X39389Y-44685D01*
X42610Y-44685D02*
X52210Y-44685D01*
X52790Y-44685D02*
X56450Y-44685D01*
X38745Y-44765D02*
X39422Y-44765D01*
X42577Y-44765D02*
X52210Y-44765D01*
X52790Y-44765D02*
X56450Y-44765D01*
X38745Y-44845D02*
X39456Y-44845D01*
X42544Y-44845D02*
X52210Y-44845D01*
X52790Y-44845D02*
X56450Y-44845D01*
X38745Y-44925D02*
X39489Y-44925D01*
X42510Y-44925D02*
X52210Y-44925D01*
X52790Y-44925D02*
X56450Y-44925D01*
X38745Y-45005D02*
X39530Y-45005D01*
X42469Y-45005D02*
X52210Y-45005D01*
X52790Y-45005D02*
X56450Y-45005D01*
X38745Y-45085D02*
X39610Y-45085D01*
X42389Y-45085D02*
X52210Y-45085D01*
X52790Y-45085D02*
X56450Y-45085D01*
X38745Y-45165D02*
X39690Y-45165D01*
X42309Y-45165D02*
X48848Y-45165D01*
X49153Y-45165D02*
X49848Y-45165D01*
X50153Y-45165D02*
X50848Y-45165D01*
X51153Y-45165D02*
X51848Y-45165D01*
X52154Y-45165D02*
X52210Y-45165D01*
X53434Y-45165D02*
X56450Y-45165D01*
X38745Y-45245D02*
X39770Y-45245D01*
X42229Y-45245D02*
X48658Y-45245D01*
X49343Y-45245D02*
X49658Y-45245D01*
X50342Y-45245D02*
X50658Y-45245D01*
X51342Y-45245D02*
X51658Y-45245D01*
X53547Y-45245D02*
X56450Y-45245D01*
X38745Y-45325D02*
X39850Y-45325D01*
X42149Y-45325D02*
X48578Y-45325D01*
X49423Y-45325D02*
X49578Y-45325D01*
X50422Y-45325D02*
X50577Y-45325D01*
X51422Y-45325D02*
X51577Y-45325D01*
X53589Y-45325D02*
X56450Y-45325D01*
X38745Y-45405D02*
X39930Y-45405D01*
X42069Y-45405D02*
X48498Y-45405D01*
X53599Y-45405D02*
X56450Y-45405D01*
X38745Y-45485D02*
X40012Y-45485D01*
X41987Y-45485D02*
X48462Y-45485D01*
X53599Y-45485D02*
X56450Y-45485D01*
X38745Y-45565D02*
X40205Y-45565D01*
X41794Y-45565D02*
X48429Y-45565D01*
X53599Y-45565D02*
X56450Y-45565D01*
X38745Y-45645D02*
X40398Y-45645D01*
X41600Y-45645D02*
X48401Y-45645D01*
X53599Y-45645D02*
X56450Y-45645D01*
X38745Y-45725D02*
X40590Y-45725D01*
X41407Y-45725D02*
X48401Y-45725D01*
X53599Y-45725D02*
X56450Y-45725D01*
X38745Y-45805D02*
X48401Y-45805D01*
X53599Y-45805D02*
X56450Y-45805D01*
X38745Y-45885D02*
X48407Y-45885D01*
X53599Y-45885D02*
X56450Y-45885D01*
X38745Y-45965D02*
X48440Y-45965D01*
X53599Y-45965D02*
X56450Y-45965D01*
X38745Y-46045D02*
X48473Y-46045D01*
X53599Y-46045D02*
X56450Y-46045D01*
X38745Y-46125D02*
X48528Y-46125D01*
X53599Y-46125D02*
X56450Y-46125D01*
X38745Y-46205D02*
X48608Y-46205D01*
X53576Y-46205D02*
X56450Y-46205D01*
X38745Y-46285D02*
X48617Y-46285D01*
X53517Y-46285D02*
X56450Y-46285D01*
X38745Y-46365D02*
X48538Y-46365D01*
X53462Y-46365D02*
X56450Y-46365D01*
X38745Y-46445D02*
X48478Y-46445D01*
X53523Y-46445D02*
X56450Y-46445D01*
X38745Y-46525D02*
X48445Y-46525D01*
X53556Y-46525D02*
X56450Y-46525D01*
X38745Y-46605D02*
X48412Y-46605D01*
X53589Y-46605D02*
X56450Y-46605D01*
X38745Y-46685D02*
X48401Y-46685D01*
X53599Y-46685D02*
X56450Y-46685D01*
X38745Y-46765D02*
X48401Y-46765D01*
X53599Y-46765D02*
X56450Y-46765D01*
X38745Y-46845D02*
X48401Y-46845D01*
X53599Y-46845D02*
X56450Y-46845D01*
X38745Y-46925D02*
X48424Y-46925D01*
X53575Y-46925D02*
X56450Y-46925D01*
X38745Y-47005D02*
X48457Y-47005D01*
X53542Y-47005D02*
X56450Y-47005D01*
X38745Y-47085D02*
X48490Y-47085D01*
X53509Y-47085D02*
X56450Y-47085D01*
X38745Y-47165D02*
X48568Y-47165D01*
X49430Y-47165D02*
X49568Y-47165D01*
X50432Y-47165D02*
X50568Y-47165D01*
X51430Y-47165D02*
X51568Y-47165D01*
X53432Y-47165D02*
X56450Y-47165D01*
X38745Y-47245D02*
X48648Y-47245D01*
X49351Y-47245D02*
X49648Y-47245D01*
X50352Y-47245D02*
X50648Y-47245D01*
X51351Y-47245D02*
X51648Y-47245D01*
X53352Y-47245D02*
X56450Y-47245D01*
X38745Y-47325D02*
X40698Y-47325D01*
X41294Y-47325D02*
X48822Y-47325D01*
X49177Y-47325D02*
X49822Y-47325D01*
X50177Y-47325D02*
X50822Y-47325D01*
X51177Y-47325D02*
X51822Y-47325D01*
X52176Y-47325D02*
X52210Y-47325D01*
X52790Y-47325D02*
X52823Y-47325D01*
X53177Y-47325D02*
X56450Y-47325D01*
X38745Y-47405D02*
X40583Y-47405D01*
X41418Y-47405D02*
X52210Y-47405D01*
X52790Y-47405D02*
X56450Y-47405D01*
X38745Y-47485D02*
X40555Y-47485D01*
X41444Y-47485D02*
X52210Y-47485D01*
X52790Y-47485D02*
X56450Y-47485D01*
X38745Y-47565D02*
X40446Y-47565D01*
X40495Y-47565D02*
X40635Y-47565D01*
X41364Y-47565D02*
X41506Y-47565D01*
X41555Y-47565D02*
X52210Y-47565D01*
X52790Y-47565D02*
X56450Y-47565D01*
X38745Y-47645D02*
X40349Y-47645D01*
X40575Y-47645D02*
X40716Y-47645D01*
X41284Y-47645D02*
X41426Y-47645D01*
X41653Y-47645D02*
X52210Y-47645D01*
X52790Y-47645D02*
X56450Y-47645D01*
X38745Y-47725D02*
X40318Y-47725D01*
X40655Y-47725D02*
X40796Y-47725D01*
X41204Y-47725D02*
X41346Y-47725D01*
X41686Y-47725D02*
X52210Y-47725D01*
X52790Y-47725D02*
X56450Y-47725D01*
X38745Y-47805D02*
X40288Y-47805D01*
X40735Y-47805D02*
X40876Y-47805D01*
X41124Y-47805D02*
X41266Y-47805D01*
X41719Y-47805D02*
X52210Y-47805D01*
X52790Y-47805D02*
X56450Y-47805D01*
X38745Y-47885D02*
X40261Y-47885D01*
X40815Y-47885D02*
X40956Y-47885D01*
X41044Y-47885D02*
X41186Y-47885D01*
X41733Y-47885D02*
X52210Y-47885D01*
X52790Y-47885D02*
X56450Y-47885D01*
X38745Y-47965D02*
X40263Y-47965D01*
X40895Y-47965D02*
X41106Y-47965D01*
X41735Y-47965D02*
X52210Y-47965D01*
X52790Y-47965D02*
X56450Y-47965D01*
X38745Y-48045D02*
X40265Y-48045D01*
X40884Y-48045D02*
X41115Y-48045D01*
X41737Y-48045D02*
X52210Y-48045D01*
X52790Y-48045D02*
X56450Y-48045D01*
X38745Y-48125D02*
X40267Y-48125D01*
X40804Y-48125D02*
X40946Y-48125D01*
X41055Y-48125D02*
X41195Y-48125D01*
X41739Y-48125D02*
X52210Y-48125D01*
X52790Y-48125D02*
X56450Y-48125D01*
X38745Y-48205D02*
X40285Y-48205D01*
X40724Y-48205D02*
X40866Y-48205D01*
X41135Y-48205D02*
X41275Y-48205D01*
X41709Y-48205D02*
X52210Y-48205D01*
X52790Y-48205D02*
X56450Y-48205D01*
X38745Y-48285D02*
X40318Y-48285D01*
X40644Y-48285D02*
X40786Y-48285D01*
X41215Y-48285D02*
X41355Y-48285D01*
X41678Y-48285D02*
X52210Y-48285D01*
X52790Y-48285D02*
X56450Y-48285D01*
X38745Y-48365D02*
X40351Y-48365D01*
X40564Y-48365D02*
X40706Y-48365D01*
X41295Y-48365D02*
X41435Y-48365D01*
X41647Y-48365D02*
X52210Y-48365D01*
X52790Y-48365D02*
X56450Y-48365D01*
X38745Y-48445D02*
X40468Y-48445D01*
X40484Y-48445D02*
X40625Y-48445D01*
X41375Y-48445D02*
X41515Y-48445D01*
X41531Y-48445D02*
X52202Y-48445D01*
X52790Y-48445D02*
X56450Y-48445D01*
X38745Y-48525D02*
X40552Y-48525D01*
X41447Y-48525D02*
X52122Y-48525D01*
X52790Y-48525D02*
X56450Y-48525D01*
X38745Y-48605D02*
X40587Y-48605D01*
X41412Y-48605D02*
X52042Y-48605D01*
X52780Y-48605D02*
X56450Y-48605D01*
X38745Y-48685D02*
X40733Y-48685D01*
X41276Y-48685D02*
X51962Y-48685D01*
X52756Y-48685D02*
X56450Y-48685D01*
X38745Y-48765D02*
X51882Y-48765D01*
X52701Y-48765D02*
X56450Y-48765D01*
X38745Y-48845D02*
X51802Y-48845D01*
X52621Y-48845D02*
X56450Y-48845D01*
X38745Y-48925D02*
X51722Y-48925D01*
X52541Y-48925D02*
X56450Y-48925D01*
X38745Y-49005D02*
X51642Y-49005D01*
X52461Y-49005D02*
X53220Y-49005D01*
X53782Y-49005D02*
X55244Y-49005D01*
X55417Y-49005D02*
X55584Y-49005D01*
X55757Y-49005D02*
X56450Y-49005D01*
X38745Y-49085D02*
X51562Y-49085D01*
X52381Y-49085D02*
X53045Y-49085D01*
X53956Y-49085D02*
X55057Y-49085D01*
X55450Y-49085D02*
X55550Y-49085D01*
X55944Y-49085D02*
X56450Y-49085D01*
X38745Y-49165D02*
X51482Y-49165D01*
X52301Y-49165D02*
X52965Y-49165D01*
X54036Y-49165D02*
X54973Y-49165D01*
X55450Y-49165D02*
X55550Y-49165D01*
X56028Y-49165D02*
X56450Y-49165D01*
X38745Y-49245D02*
X51402Y-49245D01*
X52221Y-49245D02*
X52885Y-49245D01*
X54116Y-49245D02*
X54889Y-49245D01*
X55450Y-49245D02*
X55550Y-49245D01*
X56112Y-49245D02*
X56450Y-49245D01*
X38745Y-49325D02*
X40673Y-49325D01*
X41327Y-49325D02*
X51322Y-49325D01*
X52141Y-49325D02*
X52824Y-49325D01*
X54177Y-49325D02*
X54827Y-49325D01*
X55450Y-49325D02*
X55550Y-49325D01*
X56174Y-49325D02*
X56450Y-49325D01*
X38745Y-49405D02*
X40537Y-49405D01*
X41464Y-49405D02*
X51242Y-49405D01*
X52061Y-49405D02*
X52791Y-49405D01*
X54210Y-49405D02*
X54792Y-49405D01*
X55450Y-49405D02*
X55550Y-49405D01*
X56209Y-49405D02*
X56450Y-49405D01*
X38745Y-49485D02*
X40456Y-49485D01*
X41544Y-49485D02*
X51162Y-49485D01*
X51981Y-49485D02*
X52757Y-49485D01*
X54243Y-49485D02*
X54756Y-49485D01*
X55450Y-49485D02*
X55550Y-49485D01*
X56245Y-49485D02*
X56450Y-49485D01*
X38745Y-49565D02*
X40376Y-49565D01*
X41624Y-49565D02*
X51082Y-49565D01*
X51901Y-49565D02*
X52724Y-49565D01*
X54276Y-49565D02*
X54721Y-49565D01*
X55450Y-49565D02*
X55550Y-49565D01*
X56280Y-49565D02*
X56450Y-49565D01*
X38745Y-49645D02*
X40337Y-49645D01*
X41664Y-49645D02*
X51002Y-49645D01*
X51821Y-49645D02*
X52718Y-49645D01*
X54282Y-49645D02*
X54740Y-49645D01*
X55450Y-49645D02*
X55550Y-49645D01*
X56259Y-49645D02*
X56450Y-49645D01*
X38745Y-49725D02*
X40304Y-49725D01*
X41697Y-49725D02*
X50922Y-49725D01*
X51741Y-49725D02*
X52718Y-49725D01*
X54282Y-49725D02*
X56450Y-49725D01*
X38745Y-49805D02*
X40270Y-49805D01*
X41730Y-49805D02*
X50842Y-49805D01*
X51661Y-49805D02*
X52718Y-49805D01*
X54282Y-49805D02*
X54759Y-49805D01*
X55450Y-49805D02*
X55550Y-49805D01*
X56242Y-49805D02*
X56450Y-49805D01*
X38745Y-49885D02*
X40251Y-49885D01*
X41749Y-49885D02*
X50762Y-49885D01*
X51581Y-49885D02*
X52718Y-49885D01*
X54282Y-49885D02*
X54731Y-49885D01*
X55450Y-49885D02*
X55550Y-49885D01*
X56270Y-49885D02*
X56450Y-49885D01*
X38745Y-49965D02*
X40251Y-49965D01*
X41749Y-49965D02*
X50682Y-49965D01*
X51501Y-49965D02*
X52736Y-49965D01*
X54263Y-49965D02*
X54733Y-49965D01*
X55450Y-49965D02*
X55550Y-49965D01*
X56266Y-49965D02*
X56450Y-49965D01*
X38745Y-50045D02*
X40251Y-50045D01*
X41749Y-50045D02*
X50602Y-50045D01*
X51421Y-50045D02*
X52769Y-50045D01*
X54230Y-50045D02*
X54769Y-50045D01*
X55450Y-50045D02*
X55550Y-50045D01*
X56230Y-50045D02*
X56450Y-50045D01*
X38745Y-50125D02*
X40251Y-50125D01*
X41749Y-50125D02*
X50522Y-50125D01*
X51341Y-50125D02*
X52803Y-50125D01*
X54197Y-50125D02*
X54804Y-50125D01*
X55450Y-50125D02*
X55550Y-50125D01*
X56195Y-50125D02*
X56450Y-50125D01*
X38745Y-50205D02*
X40274Y-50205D01*
X41726Y-50205D02*
X50442Y-50205D01*
X51261Y-50205D02*
X52836Y-50205D01*
X54164Y-50205D02*
X54839Y-50205D01*
X55450Y-50205D02*
X55550Y-50205D01*
X56160Y-50205D02*
X56450Y-50205D01*
X38745Y-50285D02*
X40307Y-50285D01*
X41692Y-50285D02*
X50362Y-50285D01*
X51181Y-50285D02*
X52914Y-50285D01*
X54085Y-50285D02*
X54919Y-50285D01*
X55450Y-50285D02*
X55550Y-50285D01*
X56080Y-50285D02*
X56450Y-50285D01*
X38745Y-50365D02*
X40340Y-50365D01*
X41659Y-50365D02*
X50282Y-50365D01*
X51101Y-50365D02*
X52994Y-50365D01*
X54005Y-50365D02*
X55003Y-50365D01*
X55450Y-50365D02*
X55550Y-50365D01*
X55996Y-50365D02*
X56450Y-50365D01*
X38745Y-50445D02*
X40386Y-50445D01*
X41613Y-50445D02*
X50202Y-50445D01*
X51021Y-50445D02*
X53098Y-50445D01*
X53901Y-50445D02*
X55113Y-50445D01*
X55450Y-50445D02*
X55550Y-50445D01*
X55886Y-50445D02*
X56450Y-50445D01*
X38745Y-50525D02*
X40466Y-50525D01*
X41533Y-50525D02*
X50122Y-50525D01*
X50941Y-50525D02*
X53290Y-50525D01*
X53708Y-50525D02*
X55320Y-50525D01*
X55331Y-50525D02*
X55668Y-50525D01*
X55679Y-50525D02*
X56450Y-50525D01*
X38745Y-50605D02*
X40546Y-50605D01*
X41453Y-50605D02*
X50042Y-50605D01*
X50861Y-50605D02*
X56450Y-50605D01*
X38745Y-50685D02*
X40696Y-50685D01*
X41302Y-50685D02*
X49962Y-50685D01*
X50781Y-50685D02*
X56450Y-50685D01*
X38745Y-50765D02*
X49882Y-50765D01*
X50701Y-50765D02*
X56450Y-50765D01*
X38745Y-50845D02*
X49802Y-50845D01*
X50621Y-50845D02*
X61703Y-50845D01*
X38745Y-50925D02*
X49722Y-50925D01*
X50541Y-50925D02*
X61710Y-50925D01*
X38745Y-51005D02*
X49642Y-51005D01*
X50461Y-51005D02*
X61743Y-51005D01*
X38745Y-51085D02*
X49562Y-51085D01*
X50381Y-51085D02*
X61776Y-51085D01*
X63223Y-51085D02*
X63255Y-51085D01*
X38745Y-51165D02*
X49482Y-51165D01*
X50301Y-51165D02*
X61809Y-51165D01*
X63190Y-51165D02*
X63255Y-51165D01*
X38745Y-51245D02*
X49402Y-51245D01*
X50221Y-51245D02*
X61868Y-51245D01*
X63132Y-51245D02*
X63255Y-51245D01*
X38745Y-51325D02*
X49322Y-51325D01*
X50141Y-51325D02*
X61948Y-51325D01*
X63052Y-51325D02*
X63255Y-51325D01*
X38745Y-51405D02*
X49242Y-51405D01*
X50061Y-51405D02*
X62028Y-51405D01*
X62972Y-51405D02*
X63255Y-51405D01*
X38745Y-51485D02*
X49162Y-51485D01*
X49981Y-51485D02*
X62192Y-51485D01*
X62808Y-51485D02*
X63255Y-51485D01*
X38745Y-51565D02*
X49082Y-51565D01*
X49901Y-51565D02*
X63255Y-51565D01*
X38745Y-51645D02*
X49002Y-51645D01*
X49821Y-51645D02*
X63255Y-51645D01*
X38745Y-51725D02*
X48922Y-51725D01*
X49741Y-51725D02*
X63255Y-51725D01*
X38745Y-51805D02*
X48842Y-51805D01*
X49661Y-51805D02*
X63255Y-51805D01*
X38745Y-51885D02*
X48762Y-51885D01*
X49581Y-51885D02*
X63255Y-51885D01*
X38745Y-51965D02*
X48682Y-51965D01*
X49501Y-51965D02*
X63255Y-51965D01*
X38745Y-52045D02*
X48602Y-52045D01*
X49421Y-52045D02*
X63255Y-52045D01*
X38745Y-52125D02*
X48522Y-52125D01*
X49341Y-52125D02*
X63255Y-52125D01*
X38745Y-52205D02*
X48442Y-52205D01*
X49261Y-52205D02*
X63255Y-52205D01*
X38745Y-52285D02*
X40569Y-52285D01*
X41434Y-52285D02*
X48362Y-52285D01*
X49181Y-52285D02*
X60569Y-52285D01*
X61434Y-52285D02*
X63255Y-52285D01*
X38745Y-52365D02*
X40376Y-52365D01*
X41626Y-52365D02*
X48282Y-52365D01*
X49101Y-52365D02*
X60376Y-52365D01*
X61626Y-52365D02*
X63255Y-52365D01*
X38745Y-52445D02*
X40182Y-52445D01*
X41819Y-52445D02*
X48202Y-52445D01*
X49021Y-52445D02*
X60182Y-52445D01*
X61819Y-52445D02*
X63255Y-52445D01*
X38745Y-52525D02*
X40001Y-52525D01*
X42000Y-52525D02*
X48122Y-52525D01*
X48941Y-52525D02*
X60001Y-52525D01*
X62000Y-52525D02*
X63255Y-52525D01*
X38745Y-52605D02*
X39921Y-52605D01*
X42080Y-52605D02*
X48042Y-52605D01*
X48861Y-52605D02*
X59921Y-52605D01*
X62080Y-52605D02*
X63255Y-52605D01*
X38745Y-52685D02*
X39841Y-52685D01*
X42160Y-52685D02*
X47962Y-52685D01*
X48781Y-52685D02*
X59841Y-52685D01*
X62160Y-52685D02*
X63255Y-52685D01*
X38745Y-52765D02*
X39761Y-52765D01*
X42240Y-52765D02*
X47882Y-52765D01*
X48701Y-52765D02*
X59761Y-52765D01*
X62240Y-52765D02*
X63255Y-52765D01*
X38745Y-52845D02*
X39681Y-52845D01*
X42320Y-52845D02*
X47802Y-52845D01*
X48621Y-52845D02*
X59681Y-52845D01*
X62320Y-52845D02*
X63255Y-52845D01*
X38745Y-52925D02*
X39601Y-52925D01*
X42400Y-52925D02*
X47722Y-52925D01*
X48541Y-52925D02*
X59601Y-52925D01*
X62400Y-52925D02*
X63255Y-52925D01*
X38745Y-53005D02*
X39521Y-53005D01*
X42480Y-53005D02*
X47642Y-53005D01*
X48461Y-53005D02*
X59521Y-53005D01*
X62480Y-53005D02*
X63255Y-53005D01*
X38745Y-53085D02*
X39486Y-53085D01*
X42516Y-53085D02*
X47562Y-53085D01*
X48381Y-53085D02*
X59486Y-53085D01*
X62516Y-53085D02*
X63255Y-53085D01*
X38745Y-53165D02*
X39452Y-53165D01*
X42549Y-53165D02*
X47482Y-53165D01*
X48301Y-53165D02*
X59452Y-53165D01*
X62549Y-53165D02*
X63255Y-53165D01*
X38745Y-53245D02*
X39419Y-53245D01*
X42582Y-53245D02*
X47402Y-53245D01*
X48221Y-53245D02*
X59419Y-53245D01*
X62582Y-53245D02*
X63255Y-53245D01*
X38745Y-53325D02*
X39386Y-53325D01*
X42615Y-53325D02*
X47322Y-53325D01*
X48141Y-53325D02*
X59386Y-53325D01*
X62615Y-53325D02*
X63255Y-53325D01*
X38745Y-53405D02*
X39353Y-53405D01*
X42648Y-53405D02*
X47260Y-53405D01*
X48061Y-53405D02*
X59353Y-53405D01*
X62648Y-53405D02*
X63255Y-53405D01*
X38745Y-53485D02*
X39319Y-53485D01*
X42681Y-53485D02*
X47069Y-53485D01*
X47981Y-53485D02*
X48310Y-53485D01*
X48691Y-53485D02*
X49325Y-53485D01*
X49659Y-53485D02*
X50310Y-53485D01*
X50691Y-53485D02*
X51310Y-53485D01*
X51691Y-53485D02*
X52310Y-53485D01*
X52691Y-53485D02*
X53323Y-53485D01*
X53659Y-53485D02*
X54310Y-53485D01*
X54691Y-53485D02*
X59319Y-53485D01*
X62681Y-53485D02*
X63255Y-53485D01*
X38745Y-53565D02*
X39286Y-53565D01*
X42714Y-53565D02*
X46987Y-53565D01*
X48014Y-53565D02*
X48159Y-53565D01*
X48841Y-53565D02*
X49209Y-53565D01*
X49792Y-53565D02*
X50159Y-53565D01*
X50841Y-53565D02*
X51159Y-53565D01*
X51841Y-53565D02*
X52159Y-53565D01*
X52841Y-53565D02*
X53209Y-53565D01*
X53792Y-53565D02*
X54159Y-53565D01*
X54841Y-53565D02*
X59286Y-53565D01*
X62714Y-53565D02*
X63255Y-53565D01*
X38745Y-53645D02*
X39253Y-53645D01*
X42747Y-53645D02*
X46954Y-53645D01*
X48047Y-53645D02*
X48079Y-53645D01*
X48921Y-53645D02*
X49215Y-53645D01*
X49784Y-53645D02*
X50079Y-53645D01*
X50921Y-53645D02*
X51079Y-53645D01*
X51921Y-53645D02*
X52079Y-53645D01*
X52921Y-53645D02*
X53215Y-53645D01*
X53784Y-53645D02*
X54079Y-53645D01*
X54921Y-53645D02*
X59253Y-53645D01*
X62747Y-53645D02*
X63255Y-53645D01*
X38745Y-53725D02*
X39250Y-53725D01*
X42750Y-53725D02*
X46951Y-53725D01*
X48980Y-53725D02*
X49026Y-53725D01*
X49155Y-53725D02*
X49295Y-53725D01*
X49704Y-53725D02*
X49846Y-53725D01*
X49975Y-53725D02*
X50020Y-53725D01*
X50980Y-53725D02*
X51020Y-53725D01*
X51980Y-53725D02*
X52020Y-53725D01*
X52980Y-53725D02*
X53026Y-53725D01*
X53155Y-53725D02*
X53295Y-53725D01*
X53704Y-53725D02*
X53846Y-53725D01*
X53975Y-53725D02*
X54020Y-53725D01*
X54980Y-53725D02*
X59250Y-53725D01*
X62750Y-53725D02*
X63255Y-53725D01*
X38745Y-53805D02*
X39250Y-53805D01*
X42750Y-53805D02*
X46951Y-53805D01*
X49235Y-53805D02*
X49375Y-53805D01*
X49624Y-53805D02*
X49766Y-53805D01*
X53235Y-53805D02*
X53376Y-53805D01*
X53624Y-53805D02*
X53766Y-53805D01*
X55014Y-53805D02*
X59250Y-53805D01*
X62750Y-53805D02*
X63255Y-53805D01*
X38745Y-53885D02*
X39250Y-53885D01*
X42750Y-53885D02*
X46951Y-53885D01*
X49315Y-53885D02*
X49455Y-53885D01*
X49544Y-53885D02*
X49686Y-53885D01*
X53315Y-53885D02*
X53456Y-53885D01*
X53544Y-53885D02*
X53686Y-53885D01*
X55047Y-53885D02*
X59250Y-53885D01*
X62750Y-53885D02*
X63255Y-53885D01*
X38745Y-53965D02*
X39250Y-53965D01*
X42750Y-53965D02*
X46951Y-53965D01*
X49395Y-53965D02*
X49606Y-53965D01*
X53395Y-53965D02*
X53606Y-53965D01*
X55049Y-53965D02*
X59250Y-53965D01*
X62750Y-53965D02*
X63255Y-53965D01*
X38745Y-54045D02*
X39250Y-54045D01*
X42750Y-54045D02*
X46951Y-54045D01*
X49384Y-54045D02*
X49615Y-54045D01*
X53384Y-54045D02*
X53615Y-54045D01*
X55049Y-54045D02*
X59250Y-54045D01*
X62750Y-54045D02*
X63255Y-54045D01*
X38745Y-54125D02*
X39250Y-54125D01*
X42750Y-54125D02*
X46951Y-54125D01*
X49304Y-54125D02*
X49446Y-54125D01*
X49555Y-54125D02*
X49695Y-54125D01*
X53304Y-54125D02*
X53446Y-54125D01*
X53555Y-54125D02*
X53695Y-54125D01*
X55042Y-54125D02*
X59250Y-54125D01*
X62750Y-54125D02*
X63255Y-54125D01*
X38745Y-54205D02*
X39250Y-54205D01*
X42750Y-54205D02*
X46951Y-54205D01*
X49224Y-54205D02*
X49366Y-54205D01*
X49635Y-54205D02*
X49775Y-54205D01*
X53224Y-54205D02*
X53366Y-54205D01*
X53635Y-54205D02*
X53775Y-54205D01*
X55009Y-54205D02*
X59250Y-54205D01*
X62750Y-54205D02*
X63255Y-54205D01*
X38745Y-54285D02*
X39250Y-54285D01*
X42750Y-54285D02*
X46951Y-54285D01*
X48975Y-54285D02*
X49041Y-54285D01*
X49144Y-54285D02*
X49286Y-54285D01*
X49715Y-54285D02*
X49855Y-54285D01*
X49958Y-54285D02*
X50024Y-54285D01*
X50975Y-54285D02*
X51024Y-54285D01*
X51975Y-54285D02*
X52024Y-54285D01*
X52975Y-54285D02*
X53041Y-54285D01*
X53144Y-54285D02*
X53285Y-54285D01*
X53715Y-54285D02*
X53855Y-54285D01*
X53958Y-54285D02*
X54024Y-54285D01*
X54975Y-54285D02*
X59250Y-54285D01*
X62750Y-54285D02*
X63255Y-54285D01*
X38745Y-54365D02*
X39257Y-54365D01*
X42743Y-54365D02*
X46957Y-54365D01*
X48042Y-54365D02*
X48089Y-54365D01*
X48911Y-54365D02*
X49206Y-54365D01*
X49795Y-54365D02*
X50089Y-54365D01*
X50911Y-54365D02*
X51089Y-54365D01*
X51911Y-54365D02*
X52089Y-54365D01*
X52911Y-54365D02*
X53205Y-54365D01*
X53795Y-54365D02*
X54089Y-54365D01*
X54911Y-54365D02*
X59257Y-54365D01*
X62743Y-54365D02*
X63255Y-54365D01*
X38745Y-54445D02*
X39290Y-54445D01*
X42710Y-54445D02*
X46993Y-54445D01*
X48007Y-54445D02*
X48169Y-54445D01*
X48831Y-54445D02*
X49211Y-54445D01*
X49788Y-54445D02*
X50169Y-54445D01*
X50831Y-54445D02*
X51169Y-54445D01*
X51831Y-54445D02*
X52169Y-54445D01*
X52831Y-54445D02*
X53211Y-54445D01*
X53788Y-54445D02*
X54169Y-54445D01*
X54831Y-54445D02*
X59290Y-54445D01*
X62710Y-54445D02*
X63255Y-54445D01*
X38745Y-54525D02*
X39323Y-54525D01*
X42676Y-54525D02*
X47092Y-54525D01*
X47907Y-54525D02*
X48333Y-54525D01*
X48666Y-54525D02*
X49369Y-54525D01*
X49651Y-54525D02*
X50333Y-54525D01*
X50666Y-54525D02*
X51333Y-54525D01*
X51666Y-54525D02*
X52333Y-54525D01*
X52666Y-54525D02*
X53371Y-54525D01*
X53651Y-54525D02*
X54333Y-54525D01*
X54666Y-54525D02*
X59323Y-54525D01*
X62676Y-54525D02*
X63255Y-54525D01*
X38745Y-54605D02*
X39356Y-54605D01*
X42643Y-54605D02*
X59356Y-54605D01*
X62643Y-54605D02*
X63255Y-54605D01*
X38745Y-54685D02*
X39389Y-54685D01*
X42610Y-54685D02*
X59389Y-54685D01*
X62610Y-54685D02*
X63255Y-54685D01*
X38745Y-54765D02*
X39422Y-54765D01*
X42577Y-54765D02*
X59422Y-54765D01*
X62577Y-54765D02*
X63255Y-54765D01*
X38745Y-54845D02*
X39456Y-54845D01*
X42544Y-54845D02*
X59456Y-54845D01*
X62544Y-54845D02*
X63255Y-54845D01*
X38745Y-54925D02*
X39489Y-54925D01*
X42510Y-54925D02*
X59489Y-54925D01*
X62510Y-54925D02*
X63255Y-54925D01*
X38745Y-55005D02*
X39530Y-55005D01*
X42469Y-55005D02*
X59530Y-55005D01*
X62469Y-55005D02*
X63255Y-55005D01*
X38745Y-55085D02*
X39610Y-55085D01*
X42389Y-55085D02*
X59610Y-55085D01*
X62389Y-55085D02*
X63255Y-55085D01*
X38745Y-55165D02*
X39690Y-55165D01*
X42309Y-55165D02*
X59690Y-55165D01*
X62309Y-55165D02*
X63255Y-55165D01*
X38745Y-55245D02*
X39770Y-55245D01*
X42229Y-55245D02*
X59770Y-55245D01*
X62229Y-55245D02*
X63255Y-55245D01*
X38745Y-55325D02*
X39850Y-55325D01*
X42149Y-55325D02*
X59850Y-55325D01*
X62149Y-55325D02*
X63255Y-55325D01*
X38745Y-55405D02*
X39930Y-55405D01*
X42069Y-55405D02*
X59930Y-55405D01*
X62069Y-55405D02*
X63255Y-55405D01*
X38745Y-55485D02*
X40012Y-55485D01*
X41987Y-55485D02*
X60012Y-55485D01*
X61987Y-55485D02*
X63255Y-55485D01*
X38745Y-55565D02*
X40205Y-55565D01*
X41794Y-55565D02*
X60205Y-55565D01*
X61794Y-55565D02*
X63255Y-55565D01*
X38745Y-55645D02*
X40398Y-55645D01*
X41600Y-55645D02*
X60398Y-55645D01*
X61600Y-55645D02*
X63255Y-55645D01*
X38745Y-55725D02*
X40590Y-55725D01*
X41407Y-55725D02*
X60590Y-55725D01*
X61407Y-55725D02*
X63255Y-55725D01*
X38745Y-55805D02*
X63255Y-55805D01*
X38745Y-55885D02*
X63255Y-55885D01*
X38745Y-55965D02*
X63255Y-55965D01*
X38745Y-56045D02*
X63255Y-56045D01*
X38745Y-56125D02*
X63255Y-56125D01*
X38745Y-56205D02*
X63255Y-56205D01*
X63255Y-56255D02*
X63255Y-51009D01*
X63175Y-51202D01*
X62951Y-51426D01*
X62658Y-51547D01*
X62341Y-51547D01*
X62048Y-51425D01*
X61824Y-51201D01*
X61703Y-50908D01*
X61703Y-50800D01*
X56450Y-50800D01*
X56450Y-43137D01*
X56177Y-43250D01*
X55680Y-43249D01*
X55221Y-43059D01*
X54870Y-42707D01*
X54680Y-42247D01*
X54681Y-41750D01*
X54871Y-41291D01*
X55223Y-40940D01*
X55683Y-40750D01*
X56180Y-40751D01*
X56450Y-40862D01*
X56450Y-39245D01*
X38745Y-39245D01*
X38745Y-56255D01*
X40651Y-56255D01*
X40651Y-55750D01*
X40008Y-55483D01*
X39516Y-54990D01*
X39250Y-54347D01*
X39250Y-53651D01*
X39517Y-53008D01*
X40010Y-52516D01*
X40653Y-52250D01*
X40850Y-52250D01*
X40850Y-50749D01*
X40575Y-50634D01*
X40365Y-50423D01*
X40251Y-50148D01*
X40251Y-49850D01*
X40366Y-49575D01*
X40480Y-49461D01*
X40480Y-48450D01*
X40366Y-48400D01*
X40269Y-48165D01*
X40261Y-47873D01*
X40366Y-47600D01*
X40480Y-47550D01*
X40651Y-47721D01*
X40929Y-48000D01*
X40651Y-48278D01*
X40480Y-48450D01*
X40480Y-49461D01*
X40577Y-49365D01*
X40651Y-49334D01*
X40852Y-49251D01*
X40873Y-49251D01*
X40873Y-48739D01*
X40651Y-48653D01*
X40600Y-48634D01*
X40550Y-48520D01*
X40651Y-48419D01*
X41000Y-48071D01*
X41000Y-47929D01*
X40651Y-47580D01*
X40550Y-47480D01*
X40600Y-47366D01*
X40651Y-47344D01*
X40651Y-45750D01*
X40008Y-45483D01*
X39516Y-44990D01*
X39250Y-44347D01*
X39250Y-43651D01*
X39517Y-43008D01*
X40010Y-42516D01*
X40653Y-42250D01*
X41349Y-42250D01*
X41992Y-42517D01*
X42484Y-43010D01*
X42750Y-43653D01*
X42750Y-44349D01*
X42483Y-44992D01*
X41990Y-45484D01*
X41347Y-45750D01*
X40651Y-45750D01*
X40651Y-47344D01*
X40835Y-47269D01*
X41127Y-47261D01*
X41400Y-47366D01*
X41450Y-47480D01*
X41000Y-47929D01*
X41000Y-48071D01*
X41450Y-48520D01*
X41400Y-48634D01*
X41165Y-48731D01*
X40873Y-48739D01*
X40873Y-49251D01*
X41150Y-49251D01*
X41425Y-49366D01*
X41520Y-49461D01*
X41520Y-48450D01*
X41071Y-48000D01*
X41520Y-47550D01*
X41634Y-47600D01*
X41731Y-47835D01*
X41739Y-48127D01*
X41634Y-48400D01*
X41520Y-48450D01*
X41520Y-49461D01*
X41635Y-49577D01*
X41749Y-49852D01*
X41749Y-50150D01*
X41634Y-50425D01*
X41423Y-50635D01*
X41148Y-50749D01*
X40850Y-50749D01*
X40850Y-52250D01*
X41349Y-52250D01*
X41992Y-52517D01*
X42484Y-53010D01*
X42750Y-53653D01*
X42750Y-54349D01*
X42483Y-54992D01*
X41990Y-55484D01*
X41347Y-55750D01*
X40651Y-55750D01*
X40651Y-56255D01*
X46317Y-56255D01*
X46317Y-43250D01*
X45820Y-43249D01*
X45361Y-43059D01*
X45010Y-42707D01*
X44820Y-42247D01*
X44821Y-41750D01*
X45011Y-41291D01*
X45363Y-40940D01*
X45823Y-40750D01*
X46320Y-40751D01*
X46779Y-40941D01*
X47130Y-41293D01*
X47320Y-41753D01*
X47319Y-42250D01*
X47129Y-42709D01*
X46777Y-43060D01*
X46317Y-43250D01*
X46317Y-56255D01*
X48391Y-56255D01*
X48391Y-54549D01*
X48189Y-54465D01*
X48049Y-54325D01*
X48049Y-54350D01*
X48011Y-54441D01*
X47941Y-54511D01*
X47849Y-54549D01*
X47150Y-54549D01*
X47059Y-54511D01*
X46989Y-54441D01*
X46951Y-54349D01*
X46951Y-53650D01*
X46989Y-53559D01*
X47059Y-53489D01*
X47151Y-53451D01*
X47231Y-53451D01*
X47232Y-53446D01*
X47295Y-53352D01*
X52210Y-48437D01*
X52210Y-47311D01*
X52119Y-47349D01*
X51881Y-47349D01*
X51661Y-47258D01*
X51499Y-47096D01*
X51339Y-47258D01*
X51119Y-47349D01*
X50881Y-47349D01*
X50661Y-47258D01*
X50500Y-47097D01*
X50339Y-47258D01*
X50119Y-47349D01*
X49881Y-47349D01*
X49661Y-47258D01*
X49499Y-47096D01*
X49339Y-47258D01*
X49119Y-47349D01*
X48881Y-47349D01*
X48661Y-47258D01*
X48492Y-47089D01*
X48401Y-46869D01*
X48401Y-46631D01*
X48492Y-46411D01*
X48652Y-46249D01*
X48492Y-46089D01*
X48401Y-45869D01*
X48401Y-45631D01*
X48492Y-45411D01*
X48661Y-45242D01*
X48881Y-45151D01*
X49119Y-45151D01*
X49339Y-45242D01*
X49500Y-45402D01*
X49661Y-45242D01*
X49881Y-45151D01*
X50119Y-45151D01*
X50339Y-45242D01*
X50499Y-45402D01*
X50661Y-45242D01*
X50881Y-45151D01*
X51119Y-45151D01*
X51339Y-45242D01*
X51499Y-45402D01*
X51661Y-45242D01*
X51881Y-45151D01*
X52119Y-45151D01*
X52210Y-45188D01*
X52210Y-44043D01*
X52232Y-43932D01*
X52295Y-43838D01*
X52330Y-43802D01*
X52330Y-42990D01*
X52189Y-43049D01*
X51971Y-43049D01*
X51769Y-42965D01*
X51615Y-42811D01*
X51540Y-42630D01*
X51465Y-42811D01*
X51311Y-42965D01*
X51109Y-43049D01*
X50891Y-43049D01*
X50689Y-42965D01*
X50535Y-42811D01*
X50460Y-42630D01*
X50385Y-42811D01*
X50231Y-42965D01*
X50029Y-43049D01*
X49811Y-43049D01*
X49609Y-42965D01*
X49455Y-42811D01*
X49380Y-42630D01*
X49305Y-42811D01*
X49151Y-42965D01*
X48949Y-43049D01*
X48731Y-43049D01*
X48529Y-42965D01*
X48375Y-42811D01*
X48291Y-42609D01*
X48291Y-42391D01*
X48375Y-42189D01*
X48529Y-42035D01*
X48731Y-41951D01*
X48949Y-41951D01*
X49151Y-42035D01*
X49305Y-42189D01*
X49380Y-42369D01*
X49455Y-42189D01*
X49609Y-42035D01*
X49811Y-41951D01*
X50029Y-41951D01*
X50231Y-42035D01*
X50385Y-42189D01*
X50460Y-42369D01*
X50535Y-42189D01*
X50689Y-42035D01*
X50891Y-41951D01*
X51109Y-41951D01*
X51311Y-42035D01*
X51465Y-42189D01*
X51540Y-42369D01*
X51615Y-42189D01*
X51769Y-42035D01*
X51971Y-41951D01*
X52189Y-41951D01*
X52330Y-42009D01*
X52330Y-41973D01*
X52309Y-41965D01*
X52155Y-41811D01*
X52080Y-41630D01*
X52005Y-41811D01*
X51851Y-41965D01*
X51649Y-42049D01*
X51431Y-42049D01*
X51229Y-41965D01*
X51075Y-41811D01*
X51000Y-41630D01*
X50925Y-41811D01*
X50771Y-41965D01*
X50569Y-42049D01*
X50351Y-42049D01*
X50149Y-41965D01*
X49995Y-41811D01*
X49920Y-41630D01*
X49845Y-41811D01*
X49691Y-41965D01*
X49489Y-42049D01*
X49271Y-42049D01*
X49069Y-41965D01*
X48915Y-41811D01*
X48831Y-41609D01*
X48831Y-41391D01*
X48915Y-41189D01*
X49069Y-41035D01*
X49271Y-40951D01*
X49489Y-40951D01*
X49691Y-41035D01*
X49845Y-41189D01*
X49920Y-41369D01*
X49995Y-41189D01*
X50149Y-41035D01*
X50351Y-40951D01*
X50569Y-40951D01*
X50771Y-41035D01*
X50925Y-41189D01*
X51000Y-41369D01*
X51075Y-41189D01*
X51229Y-41035D01*
X51431Y-40951D01*
X51649Y-40951D01*
X51851Y-41035D01*
X52005Y-41189D01*
X52080Y-41369D01*
X52155Y-41189D01*
X52309Y-41035D01*
X52511Y-40951D01*
X52729Y-40951D01*
X52931Y-41035D01*
X53085Y-41189D01*
X53169Y-41391D01*
X53169Y-41609D01*
X53085Y-41811D01*
X52931Y-41965D01*
X52910Y-41973D01*
X52910Y-42009D01*
X53051Y-41951D01*
X53269Y-41951D01*
X53471Y-42035D01*
X53625Y-42189D01*
X53709Y-42391D01*
X53709Y-42609D01*
X53625Y-42811D01*
X53471Y-42965D01*
X53269Y-43049D01*
X53051Y-43049D01*
X52910Y-42990D01*
X52910Y-43923D01*
X52888Y-44034D01*
X52866Y-44065D01*
X52825Y-44129D01*
X52790Y-44163D01*
X52790Y-45151D01*
X53400Y-45151D01*
X53491Y-45189D01*
X53561Y-45259D01*
X53599Y-45351D01*
X53599Y-46150D01*
X53561Y-46241D01*
X53491Y-46311D01*
X53432Y-46335D01*
X53508Y-46411D01*
X53599Y-46631D01*
X53599Y-46869D01*
X53508Y-47089D01*
X53339Y-47258D01*
X53119Y-47349D01*
X52881Y-47349D01*
X52790Y-47311D01*
X52790Y-48557D01*
X52768Y-48668D01*
X52705Y-48762D01*
X47959Y-53507D01*
X48011Y-53559D01*
X48049Y-53651D01*
X48049Y-53675D01*
X48189Y-53535D01*
X48391Y-53451D01*
X48609Y-53451D01*
X48811Y-53535D01*
X48965Y-53689D01*
X49004Y-53784D01*
X49028Y-53719D01*
X49122Y-53692D01*
X49429Y-54000D01*
X49122Y-54308D01*
X49028Y-54281D01*
X49002Y-54219D01*
X48965Y-54311D01*
X48811Y-54465D01*
X48609Y-54549D01*
X48391Y-54549D01*
X48391Y-56255D01*
X49421Y-56255D01*
X49421Y-54543D01*
X49219Y-54472D01*
X49192Y-54378D01*
X49500Y-54071D01*
X49500Y-53929D01*
X49192Y-53622D01*
X49219Y-53528D01*
X49366Y-53468D01*
X49579Y-53457D01*
X49781Y-53528D01*
X49808Y-53622D01*
X49500Y-53929D01*
X49500Y-54071D01*
X49808Y-54378D01*
X49781Y-54472D01*
X49634Y-54532D01*
X49421Y-54543D01*
X49421Y-56255D01*
X52391Y-56255D01*
X52391Y-54549D01*
X52189Y-54465D01*
X52035Y-54311D01*
X52000Y-54226D01*
X51965Y-54311D01*
X51811Y-54465D01*
X51609Y-54549D01*
X51391Y-54549D01*
X51189Y-54465D01*
X51035Y-54311D01*
X51000Y-54226D01*
X50965Y-54311D01*
X50811Y-54465D01*
X50609Y-54549D01*
X50391Y-54549D01*
X50189Y-54465D01*
X50035Y-54311D01*
X49995Y-54215D01*
X49972Y-54281D01*
X49878Y-54308D01*
X49571Y-54000D01*
X49878Y-53692D01*
X49972Y-53719D01*
X49997Y-53780D01*
X50035Y-53689D01*
X50189Y-53535D01*
X50391Y-53451D01*
X50609Y-53451D01*
X50811Y-53535D01*
X50965Y-53689D01*
X51000Y-53773D01*
X51035Y-53689D01*
X51189Y-53535D01*
X51391Y-53451D01*
X51609Y-53451D01*
X51811Y-53535D01*
X51965Y-53689D01*
X52000Y-53773D01*
X52035Y-53689D01*
X52189Y-53535D01*
X52391Y-53451D01*
X52609Y-53451D01*
X52811Y-53535D01*
X52965Y-53689D01*
X53004Y-53784D01*
X53028Y-53719D01*
X53122Y-53692D01*
X53344Y-53914D01*
X53429Y-54000D01*
X53344Y-54085D01*
X53122Y-54308D01*
X53028Y-54281D01*
X53002Y-54219D01*
X52965Y-54311D01*
X52811Y-54465D01*
X52609Y-54549D01*
X52391Y-54549D01*
X52391Y-56255D01*
X53344Y-56255D01*
X53421Y-56255D01*
X53421Y-54543D01*
X53344Y-54515D01*
X53219Y-54472D01*
X53192Y-54378D01*
X53344Y-54226D01*
X53500Y-54071D01*
X53500Y-53929D01*
X53344Y-53773D01*
X53192Y-53622D01*
X53219Y-53528D01*
X53344Y-53476D01*
X53344Y-50547D01*
X53057Y-50428D01*
X52837Y-50207D01*
X52718Y-49920D01*
X52718Y-49579D01*
X52837Y-49292D01*
X53058Y-49072D01*
X53345Y-48953D01*
X53656Y-48953D01*
X53943Y-49072D01*
X54163Y-49293D01*
X54282Y-49580D01*
X54282Y-49921D01*
X54163Y-50208D01*
X53942Y-50428D01*
X53655Y-50547D01*
X53344Y-50547D01*
X53344Y-53476D01*
X53366Y-53468D01*
X53579Y-53457D01*
X53781Y-53528D01*
X53808Y-53622D01*
X53500Y-53929D01*
X53500Y-54071D01*
X53808Y-54378D01*
X53781Y-54472D01*
X53634Y-54532D01*
X53421Y-54543D01*
X53421Y-56255D01*
X54391Y-56255D01*
X54391Y-54549D01*
X54189Y-54465D01*
X54035Y-54311D01*
X53995Y-54215D01*
X53972Y-54281D01*
X53878Y-54308D01*
X53571Y-54000D01*
X53878Y-53692D01*
X53972Y-53719D01*
X53997Y-53780D01*
X54035Y-53689D01*
X54189Y-53535D01*
X54391Y-53451D01*
X54609Y-53451D01*
X54811Y-53535D01*
X54965Y-53689D01*
X55049Y-53891D01*
X55049Y-54109D01*
X54965Y-54311D01*
X54811Y-54465D01*
X54609Y-54549D01*
X54391Y-54549D01*
X54391Y-56255D01*
X55326Y-56255D01*
X55326Y-50527D01*
X55070Y-50428D01*
X54843Y-50212D01*
X54716Y-49925D01*
X54760Y-49800D01*
X54760Y-49700D01*
X54716Y-49575D01*
X54843Y-49288D01*
X55070Y-49072D01*
X55326Y-48973D01*
X55450Y-49017D01*
X55450Y-49700D01*
X54760Y-49700D01*
X54760Y-49800D01*
X55450Y-49800D01*
X55450Y-50483D01*
X55326Y-50527D01*
X55326Y-56255D01*
X55674Y-56255D01*
X55674Y-50527D01*
X55550Y-50483D01*
X55550Y-49800D01*
X55550Y-49700D01*
X55550Y-49017D01*
X55674Y-48973D01*
X55930Y-49072D01*
X56157Y-49288D01*
X56284Y-49575D01*
X56240Y-49700D01*
X55550Y-49700D01*
X55550Y-49800D01*
X56240Y-49800D01*
X56284Y-49925D01*
X56157Y-50212D01*
X55930Y-50428D01*
X55674Y-50527D01*
X55674Y-56255D01*
X60651Y-56255D01*
X60651Y-55750D01*
X60008Y-55483D01*
X59516Y-54990D01*
X59250Y-54347D01*
X59250Y-53651D01*
X59517Y-53008D01*
X60010Y-52516D01*
X60653Y-52250D01*
X61349Y-52250D01*
X61992Y-52517D01*
X62484Y-53010D01*
X62750Y-53653D01*
X62750Y-54349D01*
X62483Y-54992D01*
X61990Y-55484D01*
X61347Y-55750D01*
X60651Y-55750D01*
X60651Y-56255D01*
X63255Y-56255D01*
M02*
