M48
;DRILL file {PCBnew (2010-03-14)-final} date Fri 28 Jan 2011 02:56:48 PM PST
;FORMAT={2:4/ absolute / inch / suppress trailing zeros}
R,T
VER,1
FMAT,2
INCH,LZ
TCST,OFF
ICI,OFF
ATC,ON
T1C0.039
T2C0.040
T3C0.043
T4C0.051
T5C0.073
T6C0.130
T7C0.200
T8C0.266
%
M47
G05
M72
T1
X093732Y-019939
X094439Y-019232
X094439Y-020646
X095146Y-019939
X095146Y-021354
X095854Y-020646
X095854Y-022061
X096561Y-021354
X096561Y-022768
X097268Y-022061
T2
X014495Y-050653
X014495Y-057347
X014652Y-049665
X014652Y-058335
X014808Y-048678
X014808Y-059322
X014965Y-04769
X014965Y-06031
X015121Y-046702
X015121Y-061298
X015278Y-045714
X015278Y-062286
X015434Y-044727
X015434Y-063273
X015591Y-043739
X015591Y-064261
X017659Y-037374
X018113Y-036483
X018567Y-035592
X019021Y-034701
X019475Y-033809
X019929Y-032918
X020383Y-032027
X020837Y-031136
X024771Y-025721
X025478Y-025014
X026185Y-024307
X026892Y-0236
X0276Y-022892
X028307Y-022185
X029014Y-021478
X029721Y-020771
X033Y-011
X035Y-011
X035136Y-016837
X036027Y-016383
X036918Y-015929
X037809Y-015475
X038701Y-015021
X039592Y-014567
X040483Y-014113
X041374Y-013659
X047739Y-011591
X048727Y-011434
X049714Y-011278
X050702Y-011121
X05169Y-010965
X052678Y-010808
X053665Y-010652
X054653Y-010495
X061347Y-010495
X062335Y-010652
X063322Y-010808
X06431Y-010965
X065298Y-011121
X066286Y-011278
X067273Y-011434
X068261Y-011591
X074626Y-013659
X075517Y-014113
X076408Y-014567
X077299Y-015021
X078191Y-015475
X079082Y-015929
X079973Y-016383
X080864Y-016837
X081Y-011
X083Y-011
X086279Y-020771
X086986Y-021478
X087693Y-022185
X0884Y-022892
X089108Y-0236
X089815Y-024307
X090522Y-025014
X091229Y-025721
X095163Y-031136
X095617Y-032027
X096071Y-032918
X09634Y-0135
X096525Y-033809
X09688Y-0125
X096979Y-034701
X09742Y-0135
X097433Y-035592
X097887Y-036483
X09796Y-0125
X098341Y-037374
X0985Y-0135
X09904Y-0125
X09958Y-0135
X10012Y-0125
X100409Y-043739
X100409Y-064261
X100566Y-044727
X100566Y-063273
X10066Y-0135
X100722Y-045714
X100722Y-062286
X100879Y-046702
X100879Y-061298
X101035Y-04769
X101035Y-06031
X101192Y-048678
X101192Y-059322
X101348Y-049665
X101348Y-058335
X101505Y-050653
X101505Y-057347
T3
X1085Y-029
X1085Y-03
T4
X104516Y-018032
X104516Y-021968
X1055Y-017048
X1055Y-02
X1055Y-022952
X109437Y-019016
X109437Y-020984
T5
X1005Y-026
X1025Y-026
X1045Y-026
X1095Y-025
X1095Y-027
T6
X09357Y-013
X10343Y-013
T7
X008Y-014
X008Y-024
X008Y-034
X008Y-044
X008Y-054
X008Y-064
X108Y-014
X108Y-034
X108Y-044
X108Y-054
X108Y-064
T8
X028Y-014
X088Y-014
T0
M30
