M48
;DRILL file {PCBnew (20090216-final)} date Mon 27 Dec 2010 06:52:29 PM PST
;FORMAT={2:4/ absolute / inch / suppress trailing zeros}
R,T
VER,1
FMAT,2
INCH,LZ
TCST,OFF
ICI,OFF
ATC,ON
T1C0.025
T2C0.039
T3C0.040
T4C0.043
T5C0.051
T6C0.073
T7C0.130
T8C0.200
T9C0.266
%
M47
G05
M72
T1
X082575Y-02015
X08446Y-02376
X0895Y-0214
X09085Y-01925
X091975Y-020625
X09388Y-0225
X0945Y-0195
X0951Y-02335
X0957Y-0229
T2
X092475Y-025182
X09309Y-02597
X093263Y-024566
X093706Y-026758
X093878Y-025354
X094322Y-027546
X094494Y-026142
X094937Y-028334
X09511Y-02693
X095725Y-027718
T3
X018262Y-052187
X018262Y-057713
X018419Y-051199
X018419Y-058701
X018575Y-050212
X018575Y-059688
X018732Y-049224
X018732Y-060676
X018888Y-048236
X018888Y-061664
X019045Y-047248
X019045Y-062652
X019201Y-046261
X019201Y-063639
X019358Y-045273
X019358Y-064627
X01985Y-0277
X021071Y-040009
X021525Y-039118
X02185Y-0277
X021979Y-038227
X022433Y-037336
X022887Y-036444
X023341Y-035553
X023795Y-034662
X024249Y-033771
X027495Y-029295
X028202Y-028588
X028909Y-027881
X029616Y-027174
X030324Y-026466
X031031Y-025759
X031738Y-025052
X032445Y-024345
X036971Y-021099
X037862Y-020645
X038753Y-020191
X039644Y-019737
X040536Y-019283
X041427Y-018829
X042318Y-018375
X043209Y-017921
X048423Y-016208
X049411Y-016051
X050398Y-015895
X051386Y-015738
X052374Y-015582
X053362Y-015425
X054349Y-015269
X055337Y-015112
X060863Y-015112
X061851Y-015269
X062838Y-015425
X063826Y-015582
X064814Y-015738
X065802Y-015895
X066789Y-016051
X067777Y-016208
X073041Y-017921
X073932Y-018375
X074823Y-018829
X075714Y-019283
X076606Y-019737
X077497Y-020191
X078388Y-020645
X079279Y-021099
X083755Y-024345
X084462Y-025052
X085169Y-025759
X085876Y-026466
X086584Y-027174
X087291Y-027881
X087998Y-028588
X088705Y-029295
X09144Y-01475
X091951Y-033771
X09198Y-01375
X092405Y-034662
X09252Y-01475
X092859Y-035553
X09306Y-01375
X093313Y-036444
X0936Y-01475
X093767Y-037336
X09414Y-01375
X094221Y-038227
X094675Y-039118
X09468Y-01475
X095129Y-040009
X09522Y-01375
X09576Y-01475
X09635Y-0202
X096842Y-045273
X096842Y-064627
X096999Y-046261
X096999Y-063639
X097155Y-047248
X097155Y-062652
X097312Y-048236
X097312Y-061664
X097468Y-049224
X097468Y-060676
X097625Y-050212
X097625Y-059688
X097781Y-051199
X097781Y-058701
X097938Y-052187
X097938Y-057713
X09835Y-0202
T4
X02585Y-0217
X02685Y-0217
T5
X022098Y-0146
X023082Y-015584
X024066Y-010663
X02505Y-0146
X026034Y-010663
X027018Y-015584
X028002Y-0146
T6
X0171Y-0117
X0181Y-0167
X0181Y-0187
X0181Y-0207
X0191Y-0117
T7
X08867Y-01425
X09853Y-01425
T8
X0131Y-01495
X0131Y-02495
X0131Y-03495
X0131Y-04495
X0131Y-05495
X0131Y-06495
X1031Y-01495
X1031Y-02495
X1031Y-03495
X1031Y-04495
X1031Y-05495
X1031Y-06495
T9
X0331Y-01495
X0831Y-01495
T0
M30
